[
  {
    "events": [
      {
        "pitch": 75,
        "duration": 0.6666666666666666,
        "velocity": 72
      },
      {
        "pitch": 75,
        "duration": 0.6666666666666666,
        "velocity": 69
      },
      {
        "pitch": 75,
        "duration": 0.6666666666666666,
        "velocity": 61
      },
      {
        "pitch": 75,
        "duration": 0.3333333333333333,
        "velocity": 61
      },
      {
        "pitch": 75,
        "duration": 0.6666666666666666,
        "velocity": 49
      },
      {
        "pitch": 73,
        "duration": 0.25,
        "velocity": 44
      },
      {
        "pitch": 75,
        "duration": 0.75,
        "velocity": 47
      },
      {
        "pitch": 73,
        "duration": 0.3333333333333333,
        "velocity": 41
      },
      {
        "pitch": 73,
        "duration": 0.3333333333333333,
        "velocity": 39
      },
      {
        "pitch": 75,
        "duration": 0.25,
        "velocity": 56
      },
      {
        "pitch": 75,
        "duration": 0.25,
        "velocity": 53
      },
      {
        "pitch": 75,
        "duration": 0.25,
        "velocity": 58
      },
      {
        "pitch": 75,
        "duration": 0.25,
        "velocity": 60
      },
      {
        "pitch": 75,
        "duration": 0.25,
        "velocity": 56
      },
      {
        "pitch": 75,
        "duration": 0.25,
        "velocity": 51
      },
      {
        "pitch": 75,
        "duration": 0.25,
        "velocity": 61
      }
    ],
    "key": "B- minor",
    "tempo": 120,
    "name": "be7307ce4ed6869f39d3b15e83b5d757_10.mid_seg0",
    "avg_interval": 0.5333333333333333,
    "span": 2,
    "note_density": 0.5989583333333334,
    "register": "treble",
    "complexity": 0.2422453703703704
  },
  {
    "events": [
      {
        "pitch": 73,
        "duration": 0.3333333333333333,
        "velocity": 62
      },
      {
        "pitch": 78,
        "duration": 0.25,
        "velocity": 40
      },
      {
        "pitch": 77,
        "duration": 0.5,
        "velocity": 66
      },
      {
        "pitch": 75,
        "duration": 0.6666666666666666,
        "velocity": 67
      },
      {
        "pitch": 77,
        "duration": 0.5,
        "velocity": 70
      },
      {
        "pitch": 75,
        "duration": 0.25,
        "velocity": 57
      },
      {
        "pitch": 75,
        "duration": 0.3333333333333333,
        "velocity": 40
      },
      {
        "pitch": 75,
        "duration": 0.75,
        "velocity": 62
      },
      {
        "pitch": 70,
        "duration": 0.6666666666666666,
        "velocity": 107
      },
      {
        "pitch": 65,
        "duration": 0.3333333333333333,
        "velocity": 91
      },
      {
        "pitch": 70,
        "duration": 0.6666666666666666,
        "velocity": 107
      },
      {
        "pitch": 77,
        "duration": 0.25,
        "velocity": 104
      },
      {
        "pitch": 77,
        "duration": 0.08333333333333333,
        "velocity": 104
      },
      {
        "pitch": 70,
        "duration": 0.6666666666666666,
        "velocity": 107
      },
      {
        "pitch": 70,
        "duration": 0.25,
        "velocity": 107
      },
      {
        "pitch": 73,
        "duration": 0.6666666666666666,
        "velocity": 123
      }
    ],
    "key": "B- minor",
    "tempo": 120,
    "name": "be7307ce4ed6869f39d3b15e83b5d757_10.mid_seg1",
    "avg_interval": 2.933333333333333,
    "span": 13,
    "note_density": 0.5520833333333333,
    "register": "treble",
    "complexity": 0.4460648148148148
  },
  {
    "events": [
      {
        "pitch": 77,
        "duration": 0.25,
        "velocity": 102
      },
      {
        "pitch": 77,
        "duration": 0.08333333333333333,
        "velocity": 102
      },
      {
        "pitch": 70,
        "duration": 0.6666666666666666,
        "velocity": 110
      },
      {
        "pitch": 65,
        "duration": 0.3333333333333333,
        "velocity": 96
      },
      {
        "pitch": 70,
        "duration": 0.6666666666666666,
        "velocity": 116
      },
      {
        "pitch": 77,
        "duration": 0.25,
        "velocity": 104
      },
      {
        "pitch": 77,
        "duration": 0.08333333333333333,
        "velocity": 104
      },
      {
        "pitch": 70,
        "duration": 0.6666666666666666,
        "velocity": 107
      },
      {
        "pitch": 65,
        "duration": 0.25,
        "velocity": 88
      },
      {
        "pitch": 73,
        "duration": 0.6666666666666666,
        "velocity": 102
      },
      {
        "pitch": 70,
        "duration": 0.6666666666666666,
        "velocity": 100
      },
      {
        "pitch": 65,
        "duration": 0.3333333333333333,
        "velocity": 94
      },
      {
        "pitch": 70,
        "duration": 0.6666666666666666,
        "velocity": 110
      },
      {
        "pitch": 77,
        "duration": 0.25,
        "velocity": 103
      },
      {
        "pitch": 77,
        "duration": 0.08333333333333333,
        "velocity": 103
      },
      {
        "pitch": 70,
        "duration": 0.5,
        "velocity": 100
      }
    ],
    "key": "B- minor",
    "tempo": 120,
    "name": "be7307ce4ed6869f39d3b15e83b5d757_10.mid_seg2",
    "avg_interval": 4.733333333333333,
    "span": 12,
    "note_density": 0.5989583333333334,
    "register": "treble",
    "complexity": 0.49780092592592595
  },
  {
    "events": [
      {
        "pitch": 73,
        "duration": 0.6666666666666666,
        "velocity": 123
      },
      {
        "pitch": 77,
        "duration": 0.25,
        "velocity": 109
      },
      {
        "pitch": 77,
        "duration": 0.08333333333333333,
        "velocity": 109
      },
      {
        "pitch": 70,
        "duration": 0.5,
        "velocity": 113
      },
      {
        "pitch": 70,
        "duration": 0.6666666666666666,
        "velocity": 119
      },
      {
        "pitch": 77,
        "duration": 0.25,
        "velocity": 102
      },
      {
        "pitch": 61,
        "duration": 3.75,
        "velocity": 76
      },
      {
        "pitch": 58,
        "duration": 4.0,
        "velocity": 84
      },
      {
        "pitch": 65,
        "duration": 4.0,
        "velocity": 96
      },
      {
        "pitch": 77,
        "duration": 0.08333333333333333,
        "velocity": 102
      },
      {
        "pitch": 65,
        "duration": 0.25,
        "velocity": 86
      },
      {
        "pitch": 73,
        "duration": 0.75,
        "velocity": 98
      },
      {
        "pitch": 77,
        "duration": 0.25,
        "velocity": 109
      },
      {
        "pitch": 77,
        "duration": 0.25,
        "velocity": 109
      },
      {
        "pitch": 58,
        "duration": 1.0,
        "velocity": 84
      },
      {
        "pitch": 77,
        "duration": 0.25,
        "velocity": 110
      }
    ],
    "key": "B- minor",
    "tempo": 120,
    "name": "be7307ce4ed6869f39d3b15e83b5d757_10.mid_seg3",
    "avg_interval": 7.866666666666666,
    "span": 19,
    "note_density": 0.0,
    "register": "treble",
    "complexity": 0.4824074074074074
  },
  {
    "events": [
      {
        "pitch": 77,
        "duration": 0.25,
        "velocity": 110
      },
      {
        "pitch": 70,
        "duration": 0.6666666666666666,
        "velocity": 104
      },
      {
        "pitch": 77,
        "duration": 0.25,
        "velocity": 109
      },
      {
        "pitch": 77,
        "duration": 0.25,
        "velocity": 109
      },
      {
        "pitch": 77,
        "duration": 0.25,
        "velocity": 104
      },
      {
        "pitch": 77,
        "duration": 0.08333333333333333,
        "velocity": 104
      },
      {
        "pitch": 65,
        "duration": 0.3333333333333333,
        "velocity": 91
      },
      {
        "pitch": 41,
        "duration": 0.5,
        "velocity": 99
      },
      {
        "pitch": 46,
        "duration": 0.75,
        "velocity": 87
      },
      {
        "pitch": 41,
        "duration": 0.6666666666666666,
        "velocity": 94
      },
      {
        "pitch": 46,
        "duration": 0.6666666666666666,
        "velocity": 66
      },
      {
        "pitch": 41,
        "duration": 0.5,
        "velocity": 73
      },
      {
        "pitch": 41,
        "duration": 0.5,
        "velocity": 99
      },
      {
        "pitch": 46,
        "duration": 0.75,
        "velocity": 84
      },
      {
        "pitch": 41,
        "duration": 0.16666666666666666,
        "velocity": 99
      },
      {
        "pitch": 77,
        "duration": 0.25,
        "velocity": 102
      }
    ],
    "key": "B- minor",
    "tempo": 120,
    "name": "be7307ce4ed6869f39d3b15e83b5d757_10.mid_seg4",
    "avg_interval": 7.733333333333333,
    "span": 36,
    "note_density": 0.5729166666666667,
    "register": "middle",
    "complexity": 0.7391203703703703
  },
  {
    "events": [
      {
        "pitch": 46,
        "duration": 0.6666666666666666,
        "velocity": 82
      },
      {
        "pitch": 77,
        "duration": 0.08333333333333333,
        "velocity": 102
      },
      {
        "pitch": 41,
        "duration": 0.25,
        "velocity": 66
      },
      {
        "pitch": 41,
        "duration": 0.5,
        "velocity": 66
      },
      {
        "pitch": 36,
        "duration": 1.0,
        "velocity": 88
      },
      {
        "pitch": 73,
        "duration": 1.0,
        "velocity": 81
      },
      {
        "pitch": 36,
        "duration": 1.0,
        "velocity": 88
      },
      {
        "pitch": 75,
        "duration": 4.0,
        "velocity": 62
      },
      {
        "pitch": 80,
        "duration": 4.0,
        "velocity": 80
      },
      {
        "pitch": 75,
        "duration": 4.25,
        "velocity": 62
      },
      {
        "pitch": 46,
        "duration": 0.6666666666666666,
        "velocity": 90
      },
      {
        "pitch": 73,
        "duration": 0.75,
        "velocity": 107
      },
      {
        "pitch": 41,
        "duration": 0.5,
        "velocity": 99
      },
      {
        "pitch": 46,
        "duration": 0.75,
        "velocity": 87
      },
      {
        "pitch": 46,
        "duration": 0.5,
        "velocity": 69
      },
      {
        "pitch": 41,
        "duration": 0.6666666666666666,
        "velocity": 94
      }
    ],
    "key": "B- minor",
    "tempo": 120,
    "name": "be7307ce4ed6869f39d3b15e83b5d757_10.mid_seg5",
    "avg_interval": 19.533333333333335,
    "span": 44,
    "note_density": 0.0,
    "register": "bass",
    "complexity": 0.6666666666666666
  },
  {
    "events": [
      {
        "pitch": 46,
        "duration": 0.6666666666666666,
        "velocity": 66
      },
      {
        "pitch": 41,
        "duration": 0.5,
        "velocity": 73
      },
      {
        "pitch": 41,
        "duration": 0.5,
        "velocity": 99
      },
      {
        "pitch": 46,
        "duration": 0.75,
        "velocity": 87
      },
      {
        "pitch": 41,
        "duration": 0.6666666666666666,
        "velocity": 94
      },
      {
        "pitch": 46,
        "duration": 0.6666666666666666,
        "velocity": 66
      },
      {
        "pitch": 41,
        "duration": 0.5,
        "velocity": 73
      },
      {
        "pitch": 41,
        "duration": 0.5,
        "velocity": 89
      },
      {
        "pitch": 63,
        "duration": 0.25,
        "velocity": 107
      },
      {
        "pitch": 41,
        "duration": 0.5,
        "velocity": 99
      },
      {
        "pitch": 46,
        "duration": 0.75,
        "velocity": 87
      },
      {
        "pitch": 46,
        "duration": 0.5,
        "velocity": 69
      },
      {
        "pitch": 41,
        "duration": 0.6666666666666666,
        "velocity": 94
      },
      {
        "pitch": 63,
        "duration": 0.25,
        "velocity": 107
      },
      {
        "pitch": 46,
        "duration": 0.6666666666666666,
        "velocity": 66
      },
      {
        "pitch": 41,
        "duration": 0.5,
        "velocity": 73
      }
    ],
    "key": "B- minor",
    "tempo": 120,
    "name": "be7307ce4ed6869f39d3b15e83b5d757_10.mid_seg6",
    "avg_interval": 8.2,
    "span": 22,
    "note_density": 0.44791666666666663,
    "register": "bass",
    "complexity": 0.6826388888888889
  },
  {
    "events": [
      {
        "pitch": 41,
        "duration": 0.5,
        "velocity": 89
      },
      {
        "pitch": 63,
        "duration": 0.25,
        "velocity": 107
      },
      {
        "pitch": 41,
        "duration": 0.5,
        "velocity": 99
      },
      {
        "pitch": 46,
        "duration": 0.75,
        "velocity": 87
      },
      {
        "pitch": 46,
        "duration": 0.5,
        "velocity": 69
      },
      {
        "pitch": 41,
        "duration": 0.6666666666666666,
        "velocity": 94
      },
      {
        "pitch": 63,
        "duration": 0.25,
        "velocity": 107
      },
      {
        "pitch": 46,
        "duration": 0.6666666666666666,
        "velocity": 66
      },
      {
        "pitch": 41,
        "duration": 0.5,
        "velocity": 73
      },
      {
        "pitch": 36,
        "duration": 1.0,
        "velocity": 88
      },
      {
        "pitch": 80,
        "duration": 0.5,
        "velocity": 78
      },
      {
        "pitch": 77,
        "duration": 0.75,
        "velocity": 95
      },
      {
        "pitch": 73,
        "duration": 1.25,
        "velocity": 81
      },
      {
        "pitch": 36,
        "duration": 1.0,
        "velocity": 88
      },
      {
        "pitch": 75,
        "duration": 4.0,
        "velocity": 62
      },
      {
        "pitch": 80,
        "duration": 4.0,
        "velocity": 80
      }
    ],
    "key": "B- minor",
    "tempo": 120,
    "name": "be7307ce4ed6869f39d3b15e83b5d757_10.mid_seg7",
    "avg_interval": 15.666666666666666,
    "span": 44,
    "note_density": 0.0,
    "register": "middle",
    "complexity": 0.6666666666666666
  },
  {
    "events": [
      {
        "pitch": 75,
        "duration": 4.25,
        "velocity": 62
      },
      {
        "pitch": 46,
        "duration": 0.6666666666666666,
        "velocity": 90
      },
      {
        "pitch": 73,
        "duration": 0.75,
        "velocity": 107
      },
      {
        "pitch": 41,
        "duration": 0.5,
        "velocity": 99
      },
      {
        "pitch": 46,
        "duration": 0.75,
        "velocity": 87
      },
      {
        "pitch": 46,
        "duration": 0.5,
        "velocity": 69
      },
      {
        "pitch": 41,
        "duration": 0.6666666666666666,
        "velocity": 94
      },
      {
        "pitch": 46,
        "duration": 0.6666666666666666,
        "velocity": 66
      },
      {
        "pitch": 41,
        "duration": 0.5,
        "velocity": 73
      },
      {
        "pitch": 41,
        "duration": 0.5,
        "velocity": 99
      },
      {
        "pitch": 46,
        "duration": 0.75,
        "velocity": 87
      },
      {
        "pitch": 41,
        "duration": 0.6666666666666666,
        "velocity": 94
      },
      {
        "pitch": 46,
        "duration": 0.6666666666666666,
        "velocity": 66
      },
      {
        "pitch": 41,
        "duration": 0.5,
        "velocity": 73
      },
      {
        "pitch": 41,
        "duration": 0.5,
        "velocity": 89
      },
      {
        "pitch": 63,
        "duration": 0.25,
        "velocity": 107
      }
    ],
    "key": "B- minor",
    "tempo": 120,
    "name": "be7307ce4ed6869f39d3b15e83b5d757_10.mid_seg8",
    "avg_interval": 10.0,
    "span": 34,
    "note_density": 0.18229166666666674,
    "register": "bass",
    "complexity": 0.671875
  },
  {
    "events": [
      {
        "pitch": 41,
        "duration": 0.5,
        "velocity": 99
      },
      {
        "pitch": 46,
        "duration": 0.75,
        "velocity": 87
      },
      {
        "pitch": 46,
        "duration": 0.5,
        "velocity": 69
      },
      {
        "pitch": 41,
        "duration": 0.6666666666666666,
        "velocity": 94
      },
      {
        "pitch": 63,
        "duration": 0.25,
        "velocity": 107
      },
      {
        "pitch": 46,
        "duration": 0.6666666666666666,
        "velocity": 66
      },
      {
        "pitch": 41,
        "duration": 0.5,
        "velocity": 73
      },
      {
        "pitch": 41,
        "duration": 0.5,
        "velocity": 89
      },
      {
        "pitch": 63,
        "duration": 0.25,
        "velocity": 107
      },
      {
        "pitch": 41,
        "duration": 0.5,
        "velocity": 99
      },
      {
        "pitch": 46,
        "duration": 0.75,
        "velocity": 87
      },
      {
        "pitch": 46,
        "duration": 0.5,
        "velocity": 69
      },
      {
        "pitch": 41,
        "duration": 0.6666666666666666,
        "velocity": 94
      },
      {
        "pitch": 63,
        "duration": 0.25,
        "velocity": 107
      },
      {
        "pitch": 46,
        "duration": 0.6666666666666666,
        "velocity": 66
      },
      {
        "pitch": 41,
        "duration": 0.5,
        "velocity": 73
      }
    ],
    "key": "B- minor",
    "tempo": 120,
    "name": "be7307ce4ed6869f39d3b15e83b5d757_10.mid_seg9",
    "avg_interval": 10.133333333333333,
    "span": 22,
    "note_density": 0.47395833333333326,
    "register": "bass",
    "complexity": 0.7450231481481481
  },
  {
    "events": [
      {
        "pitch": 38,
        "duration": 3.0,
        "velocity": 115
      },
      {
        "pitch": 50,
        "duration": 2.75,
        "velocity": 75
      },
      {
        "pitch": 57,
        "duration": 2.3333333333333335,
        "velocity": 63
      },
      {
        "pitch": 66,
        "duration": 2.0,
        "velocity": 59
      },
      {
        "pitch": 62,
        "duration": 2.0,
        "velocity": 56
      },
      {
        "pitch": 66,
        "duration": 1.5,
        "velocity": 95
      },
      {
        "pitch": 69,
        "duration": 1.0,
        "velocity": 66
      },
      {
        "pitch": 69,
        "duration": 1.0,
        "velocity": 82
      },
      {
        "pitch": 57,
        "duration": 1.0,
        "velocity": 80
      },
      {
        "pitch": 74,
        "duration": 0.5,
        "velocity": 71
      },
      {
        "pitch": 37,
        "duration": 3.0,
        "velocity": 115
      },
      {
        "pitch": 49,
        "duration": 2.75,
        "velocity": 80
      },
      {
        "pitch": 66,
        "duration": 0.5,
        "velocity": 80
      },
      {
        "pitch": 57,
        "duration": 2.3333333333333335,
        "velocity": 76
      },
      {
        "pitch": 64,
        "duration": 0.5,
        "velocity": 80
      },
      {
        "pitch": 66,
        "duration": 2.0,
        "velocity": 59
      }
    ],
    "key": "D major",
    "tempo": 120,
    "name": "129820fe71b310853a333b846db2b951_1.mid_seg0",
    "avg_interval": 10.133333333333333,
    "span": 37,
    "note_density": 0.0,
    "register": "middle",
    "complexity": 0.6148148148148148
  },
  {
    "events": [
      {
        "pitch": 62,
        "duration": 2.0,
        "velocity": 61
      },
      {
        "pitch": 66,
        "duration": 1.0,
        "velocity": 80
      },
      {
        "pitch": 66,
        "duration": 0.5,
        "velocity": 102
      },
      {
        "pitch": 69,
        "duration": 1.0,
        "velocity": 66
      },
      {
        "pitch": 74,
        "duration": 1.0,
        "velocity": 47
      },
      {
        "pitch": 64,
        "duration": 1.0,
        "velocity": 80
      },
      {
        "pitch": 69,
        "duration": 0.5,
        "velocity": 86
      },
      {
        "pitch": 35,
        "duration": 3.0,
        "velocity": 115
      },
      {
        "pitch": 47,
        "duration": 2.75,
        "velocity": 80
      },
      {
        "pitch": 66,
        "duration": 0.5,
        "velocity": 80
      },
      {
        "pitch": 57,
        "duration": 2.3333333333333335,
        "velocity": 76
      },
      {
        "pitch": 64,
        "duration": 0.5,
        "velocity": 80
      },
      {
        "pitch": 66,
        "duration": 2.0,
        "velocity": 59
      },
      {
        "pitch": 62,
        "duration": 2.0,
        "velocity": 61
      },
      {
        "pitch": 66,
        "duration": 1.0,
        "velocity": 80
      },
      {
        "pitch": 66,
        "duration": 0.5,
        "velocity": 102
      }
    ],
    "key": "D major",
    "tempo": 120,
    "name": "129820fe71b310853a333b846db2b951_1.mid_seg1",
    "avg_interval": 7.866666666666666,
    "span": 39,
    "note_density": 0.0,
    "register": "middle",
    "complexity": 0.5518518518518518
  },
  {
    "events": [
      {
        "pitch": 69,
        "duration": 1.0,
        "velocity": 66
      },
      {
        "pitch": 74,
        "duration": 1.0,
        "velocity": 47
      },
      {
        "pitch": 64,
        "duration": 1.0,
        "velocity": 80
      },
      {
        "pitch": 69,
        "duration": 0.5,
        "velocity": 86
      },
      {
        "pitch": 38,
        "duration": 3.0,
        "velocity": 115
      },
      {
        "pitch": 50,
        "duration": 2.75,
        "velocity": 80
      },
      {
        "pitch": 66,
        "duration": 0.5,
        "velocity": 80
      },
      {
        "pitch": 57,
        "duration": 2.3333333333333335,
        "velocity": 76
      },
      {
        "pitch": 64,
        "duration": 0.5,
        "velocity": 80
      },
      {
        "pitch": 66,
        "duration": 2.0,
        "velocity": 59
      },
      {
        "pitch": 60,
        "duration": 2.0,
        "velocity": 61
      },
      {
        "pitch": 62,
        "duration": 2.0,
        "velocity": 80
      },
      {
        "pitch": 66,
        "duration": 0.5,
        "velocity": 102
      },
      {
        "pitch": 69,
        "duration": 1.0,
        "velocity": 66
      },
      {
        "pitch": 72,
        "duration": 1.0,
        "velocity": 47
      },
      {
        "pitch": 69,
        "duration": 0.5,
        "velocity": 86
      }
    ],
    "key": "D major",
    "tempo": 120,
    "name": "129820fe71b310853a333b846db2b951_1.mid_seg2",
    "avg_interval": 7.866666666666666,
    "span": 36,
    "note_density": 0.0,
    "register": "middle",
    "complexity": 0.5518518518518518
  },
  {
    "events": [
      {
        "pitch": 43,
        "duration": 3.0,
        "velocity": 115
      },
      {
        "pitch": 43,
        "duration": 2.75,
        "velocity": 80
      },
      {
        "pitch": 62,
        "duration": 2.0,
        "velocity": 80
      },
      {
        "pitch": 50,
        "duration": 2.3333333333333335,
        "velocity": 76
      },
      {
        "pitch": 59,
        "duration": 2.0,
        "velocity": 59
      },
      {
        "pitch": 55,
        "duration": 2.0,
        "velocity": 61
      },
      {
        "pitch": 59,
        "duration": 0.5,
        "velocity": 102
      },
      {
        "pitch": 62,
        "duration": 1.0,
        "velocity": 66
      },
      {
        "pitch": 67,
        "duration": 1.0,
        "velocity": 47
      },
      {
        "pitch": 62,
        "duration": 0.5,
        "velocity": 86
      },
      {
        "pitch": 38,
        "duration": 3.0,
        "velocity": 115
      },
      {
        "pitch": 43,
        "duration": 3.0,
        "velocity": 95
      },
      {
        "pitch": 50,
        "duration": 2.5,
        "velocity": 93
      },
      {
        "pitch": 59,
        "duration": 1.75,
        "velocity": 76
      },
      {
        "pitch": 55,
        "duration": 2.0,
        "velocity": 61
      },
      {
        "pitch": 59,
        "duration": 1.5,
        "velocity": 107
      }
    ],
    "key": "D major",
    "tempo": 120,
    "name": "129820fe71b310853a333b846db2b951_1.mid_seg3",
    "avg_interval": 7.6,
    "span": 29,
    "note_density": 0.0,
    "register": "bass",
    "complexity": 0.5444444444444444
  },
  {
    "events": [
      {
        "pitch": 62,
        "duration": 0.75,
        "velocity": 55
      },
      {
        "pitch": 67,
        "duration": 1.0,
        "velocity": 57
      },
      {
        "pitch": 57,
        "duration": 1.0,
        "velocity": 80
      },
      {
        "pitch": 62,
        "duration": 0.5,
        "velocity": 96
      },
      {
        "pitch": 33,
        "duration": 3.0,
        "velocity": 115
      },
      {
        "pitch": 45,
        "duration": 2.75,
        "velocity": 80
      },
      {
        "pitch": 71,
        "duration": 1.0,
        "velocity": 80
      },
      {
        "pitch": 52,
        "duration": 2.3333333333333335,
        "velocity": 76
      },
      {
        "pitch": 61,
        "duration": 1.75,
        "velocity": 62
      },
      {
        "pitch": 55,
        "duration": 2.0,
        "velocity": 61
      },
      {
        "pitch": 69,
        "duration": 2.0,
        "velocity": 80
      },
      {
        "pitch": 61,
        "duration": 0.5,
        "velocity": 102
      },
      {
        "pitch": 64,
        "duration": 0.75,
        "velocity": 85
      },
      {
        "pitch": 67,
        "duration": 1.0,
        "velocity": 47
      },
      {
        "pitch": 64,
        "duration": 0.5,
        "velocity": 86
      },
      {
        "pitch": 40,
        "duration": 2.0,
        "velocity": 115
      }
    ],
    "key": "D major",
    "tempo": 120,
    "name": "129820fe71b310853a333b846db2b951_1.mid_seg4",
    "avg_interval": 11.733333333333333,
    "span": 38,
    "note_density": 0.0,
    "register": "middle",
    "complexity": 0.6592592592592593
  },
  {
    "events": [
      {
        "pitch": 45,
        "duration": 3.0,
        "velocity": 95
      },
      {
        "pitch": 69,
        "duration": 3.0,
        "velocity": 80
      },
      {
        "pitch": 52,
        "duration": 2.5,
        "velocity": 93
      },
      {
        "pitch": 55,
        "duration": 2.0,
        "velocity": 61
      },
      {
        "pitch": 61,
        "duration": 1.5,
        "velocity": 107
      },
      {
        "pitch": 28,
        "duration": 1.0,
        "velocity": 100
      },
      {
        "pitch": 67,
        "duration": 1.0,
        "velocity": 57
      },
      {
        "pitch": 64,
        "duration": 0.5,
        "velocity": 96
      },
      {
        "pitch": 38,
        "duration": 3.0,
        "velocity": 115
      },
      {
        "pitch": 50,
        "duration": 2.75,
        "velocity": 75
      },
      {
        "pitch": 69,
        "duration": 1.0,
        "velocity": 80
      },
      {
        "pitch": 57,
        "duration": 2.3333333333333335,
        "velocity": 63
      },
      {
        "pitch": 66,
        "duration": 2.0,
        "velocity": 59
      },
      {
        "pitch": 62,
        "duration": 2.0,
        "velocity": 56
      },
      {
        "pitch": 66,
        "duration": 1.5,
        "velocity": 95
      },
      {
        "pitch": 69,
        "duration": 1.0,
        "velocity": 66
      }
    ],
    "key": "D major",
    "tempo": 120,
    "name": "129820fe71b310853a333b846db2b951_1.mid_seg5",
    "avg_interval": 14.266666666666667,
    "span": 41,
    "note_density": 0.0,
    "register": "middle",
    "complexity": 0.6666666666666666
  },
  {
    "events": [
      {
        "pitch": 69,
        "duration": 1.0,
        "velocity": 82
      },
      {
        "pitch": 57,
        "duration": 1.0,
        "velocity": 80
      },
      {
        "pitch": 74,
        "duration": 0.5,
        "velocity": 71
      },
      {
        "pitch": 37,
        "duration": 3.0,
        "velocity": 115
      },
      {
        "pitch": 49,
        "duration": 2.75,
        "velocity": 75
      },
      {
        "pitch": 66,
        "duration": 0.5,
        "velocity": 80
      },
      {
        "pitch": 57,
        "duration": 2.3333333333333335,
        "velocity": 63
      },
      {
        "pitch": 64,
        "duration": 0.5,
        "velocity": 80
      },
      {
        "pitch": 66,
        "duration": 2.0,
        "velocity": 59
      },
      {
        "pitch": 62,
        "duration": 2.0,
        "velocity": 56
      },
      {
        "pitch": 66,
        "duration": 1.0,
        "velocity": 80
      },
      {
        "pitch": 66,
        "duration": 1.5,
        "velocity": 95
      },
      {
        "pitch": 69,
        "duration": 1.0,
        "velocity": 66
      },
      {
        "pitch": 69,
        "duration": 1.0,
        "velocity": 82
      },
      {
        "pitch": 64,
        "duration": 1.0,
        "velocity": 80
      },
      {
        "pitch": 74,
        "duration": 0.5,
        "velocity": 71
      }
    ],
    "key": "D major",
    "tempo": 120,
    "name": "129820fe71b310853a333b846db2b951_1.mid_seg6",
    "avg_interval": 9.266666666666667,
    "span": 37,
    "note_density": 0.0,
    "register": "middle",
    "complexity": 0.5907407407407407
  },
  {
    "events": [
      {
        "pitch": 35,
        "duration": 3.0,
        "velocity": 115
      },
      {
        "pitch": 47,
        "duration": 2.75,
        "velocity": 75
      },
      {
        "pitch": 66,
        "duration": 0.5,
        "velocity": 80
      },
      {
        "pitch": 57,
        "duration": 2.3333333333333335,
        "velocity": 63
      },
      {
        "pitch": 64,
        "duration": 0.5,
        "velocity": 80
      },
      {
        "pitch": 66,
        "duration": 2.0,
        "velocity": 59
      },
      {
        "pitch": 62,
        "duration": 2.0,
        "velocity": 56
      },
      {
        "pitch": 66,
        "duration": 1.0,
        "velocity": 80
      },
      {
        "pitch": 66,
        "duration": 1.5,
        "velocity": 95
      },
      {
        "pitch": 69,
        "duration": 1.0,
        "velocity": 66
      },
      {
        "pitch": 69,
        "duration": 1.0,
        "velocity": 82
      },
      {
        "pitch": 64,
        "duration": 1.0,
        "velocity": 80
      },
      {
        "pitch": 74,
        "duration": 0.5,
        "velocity": 71
      },
      {
        "pitch": 38,
        "duration": 3.0,
        "velocity": 115
      },
      {
        "pitch": 50,
        "duration": 2.75,
        "velocity": 75
      },
      {
        "pitch": 66,
        "duration": 0.5,
        "velocity": 80
      }
    ],
    "key": "D major",
    "tempo": 120,
    "name": "129820fe71b310853a333b846db2b951_1.mid_seg7",
    "avg_interval": 9.266666666666667,
    "span": 39,
    "note_density": 0.0,
    "register": "middle",
    "complexity": 0.5907407407407407
  },
  {
    "events": [
      {
        "pitch": 57,
        "duration": 2.3333333333333335,
        "velocity": 63
      },
      {
        "pitch": 64,
        "duration": 0.5,
        "velocity": 80
      },
      {
        "pitch": 66,
        "duration": 2.0,
        "velocity": 59
      },
      {
        "pitch": 60,
        "duration": 2.0,
        "velocity": 56
      },
      {
        "pitch": 62,
        "duration": 2.0,
        "velocity": 80
      },
      {
        "pitch": 66,
        "duration": 1.5,
        "velocity": 95
      },
      {
        "pitch": 69,
        "duration": 1.0,
        "velocity": 66
      },
      {
        "pitch": 69,
        "duration": 1.0,
        "velocity": 82
      },
      {
        "pitch": 72,
        "duration": 0.5,
        "velocity": 71
      },
      {
        "pitch": 43,
        "duration": 3.0,
        "velocity": 115
      },
      {
        "pitch": 43,
        "duration": 2.75,
        "velocity": 80
      },
      {
        "pitch": 62,
        "duration": 2.0,
        "velocity": 80
      },
      {
        "pitch": 50,
        "duration": 2.3333333333333335,
        "velocity": 76
      },
      {
        "pitch": 59,
        "duration": 2.0,
        "velocity": 59
      },
      {
        "pitch": 55,
        "duration": 2.0,
        "velocity": 61
      },
      {
        "pitch": 59,
        "duration": 0.5,
        "velocity": 102
      }
    ],
    "key": "D major",
    "tempo": 120,
    "name": "129820fe71b310853a333b846db2b951_1.mid_seg8",
    "avg_interval": 6.933333333333334,
    "span": 29,
    "note_density": 0.0,
    "register": "middle",
    "complexity": 0.525925925925926
  },
  {
    "events": [
      {
        "pitch": 62,
        "duration": 1.0,
        "velocity": 66
      },
      {
        "pitch": 67,
        "duration": 1.0,
        "velocity": 47
      },
      {
        "pitch": 62,
        "duration": 0.5,
        "velocity": 86
      },
      {
        "pitch": 38,
        "duration": 3.0,
        "velocity": 115
      },
      {
        "pitch": 43,
        "duration": 3.0,
        "velocity": 95
      },
      {
        "pitch": 50,
        "duration": 2.5,
        "velocity": 93
      },
      {
        "pitch": 59,
        "duration": 1.75,
        "velocity": 76
      },
      {
        "pitch": 55,
        "duration": 2.0,
        "velocity": 61
      },
      {
        "pitch": 59,
        "duration": 1.5,
        "velocity": 107
      },
      {
        "pitch": 62,
        "duration": 0.75,
        "velocity": 55
      },
      {
        "pitch": 67,
        "duration": 1.0,
        "velocity": 57
      },
      {
        "pitch": 57,
        "duration": 1.0,
        "velocity": 80
      },
      {
        "pitch": 62,
        "duration": 0.5,
        "velocity": 96
      },
      {
        "pitch": 33,
        "duration": 3.0,
        "velocity": 115
      },
      {
        "pitch": 45,
        "duration": 2.75,
        "velocity": 75
      },
      {
        "pitch": 71,
        "duration": 1.0,
        "velocity": 80
      }
    ],
    "key": "D major",
    "tempo": 120,
    "name": "129820fe71b310853a333b846db2b951_1.mid_seg9",
    "avg_interval": 10.2,
    "span": 38,
    "note_density": 0.0,
    "register": "middle",
    "complexity": 0.6166666666666667
  },
  {
    "events": [
      {
        "pitch": 52,
        "duration": 2.3333333333333335,
        "velocity": 63
      },
      {
        "pitch": 61,
        "duration": 1.75,
        "velocity": 62
      },
      {
        "pitch": 55,
        "duration": 2.0,
        "velocity": 56
      },
      {
        "pitch": 69,
        "duration": 2.0,
        "velocity": 80
      },
      {
        "pitch": 61,
        "duration": 1.5,
        "velocity": 95
      },
      {
        "pitch": 64,
        "duration": 0.75,
        "velocity": 85
      },
      {
        "pitch": 64,
        "duration": 1.0,
        "velocity": 82
      },
      {
        "pitch": 67,
        "duration": 0.5,
        "velocity": 71
      },
      {
        "pitch": 40,
        "duration": 2.0,
        "velocity": 115
      },
      {
        "pitch": 45,
        "duration": 3.0,
        "velocity": 107
      },
      {
        "pitch": 67,
        "duration": 0.16666666666666666,
        "velocity": 71
      },
      {
        "pitch": 69,
        "duration": 3.0,
        "velocity": 80
      },
      {
        "pitch": 52,
        "duration": 2.5,
        "velocity": 70
      },
      {
        "pitch": 55,
        "duration": 2.0,
        "velocity": 66
      },
      {
        "pitch": 61,
        "duration": 1.5,
        "velocity": 103
      },
      {
        "pitch": 33,
        "duration": 1.0,
        "velocity": 100
      }
    ],
    "key": "D major",
    "tempo": 120,
    "name": "129820fe71b310853a333b846db2b951_1.mid_seg10",
    "avg_interval": 10.2,
    "span": 36,
    "note_density": 0.0,
    "register": "middle",
    "complexity": 0.6166666666666667
  },
  {
    "events": [
      {
        "pitch": 64,
        "duration": 1.0,
        "velocity": 98
      },
      {
        "pitch": 67,
        "duration": 0.5,
        "velocity": 77
      },
      {
        "pitch": 43,
        "duration": 3.0,
        "velocity": 115
      },
      {
        "pitch": 43,
        "duration": 2.75,
        "velocity": 75
      },
      {
        "pitch": 69,
        "duration": 1.0,
        "velocity": 80
      },
      {
        "pitch": 50,
        "duration": 2.3333333333333335,
        "velocity": 63
      },
      {
        "pitch": 59,
        "duration": 2.0,
        "velocity": 59
      },
      {
        "pitch": 55,
        "duration": 2.0,
        "velocity": 56
      },
      {
        "pitch": 59,
        "duration": 1.5,
        "velocity": 95
      },
      {
        "pitch": 62,
        "duration": 1.0,
        "velocity": 66
      },
      {
        "pitch": 62,
        "duration": 1.0,
        "velocity": 82
      },
      {
        "pitch": 67,
        "duration": 0.5,
        "velocity": 71
      },
      {
        "pitch": 38,
        "duration": 3.0,
        "velocity": 115
      },
      {
        "pitch": 43,
        "duration": 3.0,
        "velocity": 107
      },
      {
        "pitch": 67,
        "duration": 0.16666666666666666,
        "velocity": 71
      },
      {
        "pitch": 50,
        "duration": 2.5,
        "velocity": 70
      }
    ],
    "key": "D major",
    "tempo": 120,
    "name": "129820fe71b310853a333b846db2b951_1.mid_seg11",
    "avg_interval": 11.466666666666667,
    "span": 31,
    "note_density": 0.0,
    "register": "middle",
    "complexity": 0.6518518518518519
  },
  {
    "events": [
      {
        "pitch": 59,
        "duration": 1.75,
        "velocity": 76
      },
      {
        "pitch": 55,
        "duration": 2.0,
        "velocity": 66
      },
      {
        "pitch": 59,
        "duration": 1.5,
        "velocity": 103
      },
      {
        "pitch": 62,
        "duration": 0.75,
        "velocity": 55
      },
      {
        "pitch": 62,
        "duration": 1.0,
        "velocity": 98
      },
      {
        "pitch": 57,
        "duration": 1.0,
        "velocity": 80
      },
      {
        "pitch": 67,
        "duration": 0.5,
        "velocity": 77
      },
      {
        "pitch": 38,
        "duration": 3.0,
        "velocity": 115
      },
      {
        "pitch": 50,
        "duration": 2.75,
        "velocity": 80
      },
      {
        "pitch": 71,
        "duration": 1.0,
        "velocity": 80
      },
      {
        "pitch": 57,
        "duration": 2.3333333333333335,
        "velocity": 76
      },
      {
        "pitch": 66,
        "duration": 2.0,
        "velocity": 59
      },
      {
        "pitch": 62,
        "duration": 2.0,
        "velocity": 61
      },
      {
        "pitch": 73,
        "duration": 2.0,
        "velocity": 80
      },
      {
        "pitch": 66,
        "duration": 0.5,
        "velocity": 102
      },
      {
        "pitch": 69,
        "duration": 1.0,
        "velocity": 66
      }
    ],
    "key": "D major",
    "tempo": 120,
    "name": "129820fe71b310853a333b846db2b951_1.mid_seg12",
    "avg_interval": 9.066666666666666,
    "span": 35,
    "note_density": 0.0,
    "register": "middle",
    "complexity": 0.5851851851851851
  },
  {
    "events": [
      {
        "pitch": 74,
        "duration": 1.0,
        "velocity": 47
      },
      {
        "pitch": 69,
        "duration": 0.5,
        "velocity": 86
      },
      {
        "pitch": 42,
        "duration": 3.0,
        "velocity": 115
      },
      {
        "pitch": 42,
        "duration": 2.75,
        "velocity": 75
      },
      {
        "pitch": 69,
        "duration": 3.0,
        "velocity": 80
      },
      {
        "pitch": 49,
        "duration": 2.3333333333333335,
        "velocity": 63
      },
      {
        "pitch": 58,
        "duration": 2.0,
        "velocity": 59
      },
      {
        "pitch": 54,
        "duration": 2.0,
        "velocity": 56
      },
      {
        "pitch": 58,
        "duration": 1.5,
        "velocity": 95
      },
      {
        "pitch": 61,
        "duration": 1.0,
        "velocity": 66
      },
      {
        "pitch": 61,
        "duration": 1.0,
        "velocity": 82
      },
      {
        "pitch": 66,
        "duration": 0.5,
        "velocity": 71
      },
      {
        "pitch": 35,
        "duration": 3.0,
        "velocity": 115
      },
      {
        "pitch": 47,
        "duration": 2.75,
        "velocity": 75
      },
      {
        "pitch": 66,
        "duration": 2.0,
        "velocity": 80
      },
      {
        "pitch": 54,
        "duration": 2.3333333333333335,
        "velocity": 63
      }
    ],
    "key": "D major",
    "tempo": 120,
    "name": "129820fe71b310853a333b846db2b951_1.mid_seg13",
    "avg_interval": 11.866666666666667,
    "span": 39,
    "note_density": 0.0,
    "register": "middle",
    "complexity": 0.662962962962963
  },
  {
    "events": [
      {
        "pitch": 62,
        "duration": 2.0,
        "velocity": 59
      },
      {
        "pitch": 59,
        "duration": 2.0,
        "velocity": 56
      },
      {
        "pitch": 62,
        "duration": 1.5,
        "velocity": 95
      },
      {
        "pitch": 66,
        "duration": 1.0,
        "velocity": 66
      },
      {
        "pitch": 66,
        "duration": 1.0,
        "velocity": 82
      },
      {
        "pitch": 64,
        "duration": 1.0,
        "velocity": 80
      },
      {
        "pitch": 71,
        "duration": 0.5,
        "velocity": 71
      },
      {
        "pitch": 33,
        "duration": 3.0,
        "velocity": 115
      },
      {
        "pitch": 45,
        "duration": 2.75,
        "velocity": 80
      },
      {
        "pitch": 62,
        "duration": 3.0,
        "velocity": 80
      },
      {
        "pitch": 54,
        "duration": 2.3333333333333335,
        "velocity": 76
      },
      {
        "pitch": 62,
        "duration": 2.0,
        "velocity": 59
      },
      {
        "pitch": 59,
        "duration": 2.0,
        "velocity": 61
      },
      {
        "pitch": 62,
        "duration": 0.5,
        "velocity": 102
      },
      {
        "pitch": 66,
        "duration": 1.0,
        "velocity": 66
      },
      {
        "pitch": 71,
        "duration": 1.0,
        "velocity": 47
      }
    ],
    "key": "D major",
    "tempo": 120,
    "name": "129820fe71b310853a333b846db2b951_1.mid_seg14",
    "avg_interval": 7.8,
    "span": 38,
    "note_density": 0.0,
    "register": "middle",
    "complexity": 0.5499999999999999
  },
  {
    "events": [
      {
        "pitch": 66,
        "duration": 0.5,
        "velocity": 86
      },
      {
        "pitch": 40,
        "duration": 3.0,
        "velocity": 115
      },
      {
        "pitch": 52,
        "duration": 2.75,
        "velocity": 75
      },
      {
        "pitch": 62,
        "duration": 3.0,
        "velocity": 80
      },
      {
        "pitch": 59,
        "duration": 2.3333333333333335,
        "velocity": 63
      },
      {
        "pitch": 68,
        "duration": 1.75,
        "velocity": 62
      },
      {
        "pitch": 62,
        "duration": 2.0,
        "velocity": 56
      },
      {
        "pitch": 68,
        "duration": 1.5,
        "velocity": 95
      },
      {
        "pitch": 71,
        "duration": 0.75,
        "velocity": 85
      },
      {
        "pitch": 71,
        "duration": 1.0,
        "velocity": 82
      },
      {
        "pitch": 74,
        "duration": 0.5,
        "velocity": 71
      },
      {
        "pitch": 47,
        "duration": 2.0,
        "velocity": 115
      },
      {
        "pitch": 52,
        "duration": 3.0,
        "velocity": 107
      },
      {
        "pitch": 74,
        "duration": 0.16666666666666666,
        "velocity": 71
      },
      {
        "pitch": 59,
        "duration": 2.5,
        "velocity": 70
      },
      {
        "pitch": 62,
        "duration": 2.0,
        "velocity": 66
      }
    ],
    "key": "D major",
    "tempo": 120,
    "name": "129820fe71b310853a333b846db2b951_1.mid_seg15",
    "avg_interval": 10.0,
    "span": 34,
    "note_density": 0.0,
    "register": "middle",
    "complexity": 0.6111111111111112
  },
  {
    "events": [
      {
        "pitch": 68,
        "duration": 1.5,
        "velocity": 103
      },
      {
        "pitch": 40,
        "duration": 1.0,
        "velocity": 100
      },
      {
        "pitch": 71,
        "duration": 1.0,
        "velocity": 98
      },
      {
        "pitch": 66,
        "duration": 0.5,
        "velocity": 80
      },
      {
        "pitch": 74,
        "duration": 0.5,
        "velocity": 77
      },
      {
        "pitch": 66,
        "duration": 0.5,
        "velocity": 80
      },
      {
        "pitch": 33,
        "duration": 3.0,
        "velocity": 115
      },
      {
        "pitch": 45,
        "duration": 2.75,
        "velocity": 67
      },
      {
        "pitch": 66,
        "duration": 0.25,
        "velocity": 80
      },
      {
        "pitch": 52,
        "duration": 1.75,
        "velocity": 75
      },
      {
        "pitch": 62,
        "duration": 2.0,
        "velocity": 59
      },
      {
        "pitch": 55,
        "duration": 0.6666666666666666,
        "velocity": 57
      },
      {
        "pitch": 64,
        "duration": 1.0,
        "velocity": 80
      },
      {
        "pitch": 62,
        "duration": 1.5,
        "velocity": 72
      },
      {
        "pitch": 64,
        "duration": 1.0,
        "velocity": 66
      },
      {
        "pitch": 55,
        "duration": 1.0,
        "velocity": 54
      }
    ],
    "key": "D major",
    "tempo": 120,
    "name": "129820fe71b310853a333b846db2b951_1.mid_seg16",
    "avg_interval": 13.266666666666667,
    "span": 41,
    "note_density": 0.0,
    "register": "middle",
    "complexity": 0.6666666666666666
  },
  {
    "events": [
      {
        "pitch": 62,
        "duration": 1.0,
        "velocity": 80
      },
      {
        "pitch": 52,
        "duration": 0.5,
        "velocity": 81
      },
      {
        "pitch": 40,
        "duration": 3.0,
        "velocity": 115
      },
      {
        "pitch": 45,
        "duration": 3.0,
        "velocity": 107
      },
      {
        "pitch": 62,
        "duration": 1.25,
        "velocity": 72
      },
      {
        "pitch": 55,
        "duration": 1.0,
        "velocity": 54
      },
      {
        "pitch": 52,
        "duration": 0.25,
        "velocity": 81
      },
      {
        "pitch": 64,
        "duration": 3.0,
        "velocity": 80
      },
      {
        "pitch": 52,
        "duration": 1.75,
        "velocity": 98
      },
      {
        "pitch": 62,
        "duration": 1.75,
        "velocity": 76
      },
      {
        "pitch": 55,
        "duration": 0.6666666666666666,
        "velocity": 77
      },
      {
        "pitch": 62,
        "duration": 1.5,
        "velocity": 92
      },
      {
        "pitch": 64,
        "duration": 0.75,
        "velocity": 55
      },
      {
        "pitch": 55,
        "duration": 1.0,
        "velocity": 83
      },
      {
        "pitch": 52,
        "duration": 0.5,
        "velocity": 98
      },
      {
        "pitch": 33,
        "duration": 3.0,
        "velocity": 115
      }
    ],
    "key": "D major",
    "tempo": 120,
    "name": "129820fe71b310853a333b846db2b951_1.mid_seg17",
    "avg_interval": 9.0,
    "span": 31,
    "note_density": 0.0,
    "register": "bass",
    "complexity": 0.5833333333333334
  },
  {
    "events": [
      {
        "pitch": 45,
        "duration": 2.75,
        "velocity": 80
      },
      {
        "pitch": 64,
        "duration": 3.0,
        "velocity": 80
      },
      {
        "pitch": 52,
        "duration": 2.3333333333333335,
        "velocity": 76
      },
      {
        "pitch": 61,
        "duration": 1.75,
        "velocity": 62
      },
      {
        "pitch": 55,
        "duration": 2.0,
        "velocity": 61
      },
      {
        "pitch": 61,
        "duration": 0.5,
        "velocity": 102
      },
      {
        "pitch": 64,
        "duration": 0.75,
        "velocity": 85
      },
      {
        "pitch": 67,
        "duration": 1.0,
        "velocity": 47
      },
      {
        "pitch": 64,
        "duration": 0.5,
        "velocity": 86
      },
      {
        "pitch": 33,
        "duration": 1.0,
        "velocity": 115
      },
      {
        "pitch": 45,
        "duration": 3.0,
        "velocity": 95
      },
      {
        "pitch": 52,
        "duration": 2.5,
        "velocity": 93
      },
      {
        "pitch": 40,
        "duration": 1.0,
        "velocity": 90
      },
      {
        "pitch": 55,
        "duration": 2.0,
        "velocity": 61
      },
      {
        "pitch": 61,
        "duration": 1.5,
        "velocity": 107
      },
      {
        "pitch": 33,
        "duration": 1.0,
        "velocity": 100
      }
    ],
    "key": "D major",
    "tempo": 120,
    "name": "129820fe71b310853a333b846db2b951_1.mid_seg18",
    "avg_interval": 11.466666666666667,
    "span": 34,
    "note_density": 0.0,
    "register": "bass",
    "complexity": 0.6518518518518519
  },
  {
    "events": [
      {
        "pitch": 67,
        "duration": 1.0,
        "velocity": 57
      },
      {
        "pitch": 64,
        "duration": 0.5,
        "velocity": 96
      },
      {
        "pitch": 35,
        "duration": 2.0,
        "velocity": 115
      },
      {
        "pitch": 47,
        "duration": 2.75,
        "velocity": 80
      },
      {
        "pitch": 59,
        "duration": 3.0,
        "velocity": 80
      },
      {
        "pitch": 54,
        "duration": 2.3333333333333335,
        "velocity": 76
      },
      {
        "pitch": 62,
        "duration": 2.0,
        "velocity": 59
      },
      {
        "pitch": 59,
        "duration": 2.0,
        "velocity": 61
      },
      {
        "pitch": 62,
        "duration": 0.5,
        "velocity": 102
      },
      {
        "pitch": 35,
        "duration": 1.0,
        "velocity": 100
      },
      {
        "pitch": 66,
        "duration": 1.0,
        "velocity": 66
      },
      {
        "pitch": 71,
        "duration": 1.0,
        "velocity": 47
      },
      {
        "pitch": 66,
        "duration": 0.5,
        "velocity": 86
      },
      {
        "pitch": 30,
        "duration": 2.0,
        "velocity": 115
      },
      {
        "pitch": 47,
        "duration": 3.0,
        "velocity": 95
      },
      {
        "pitch": 59,
        "duration": 3.0,
        "velocity": 80
      }
    ],
    "key": "D major",
    "tempo": 120,
    "name": "129820fe71b310853a333b846db2b951_1.mid_seg19",
    "avg_interval": 13.866666666666667,
    "span": 41,
    "note_density": 0.0,
    "register": "middle",
    "complexity": 0.6666666666666666
  },
  {
    "events": [
      {
        "pitch": 71,
        "duration": 0.5,
        "velocity": 80
      },
      {
        "pitch": 54,
        "duration": 2.5,
        "velocity": 93
      },
      {
        "pitch": 71,
        "duration": 0.5,
        "velocity": 80
      },
      {
        "pitch": 62,
        "duration": 1.75,
        "velocity": 76
      },
      {
        "pitch": 59,
        "duration": 2.0,
        "velocity": 61
      },
      {
        "pitch": 71,
        "duration": 0.25,
        "velocity": 80
      },
      {
        "pitch": 62,
        "duration": 1.5,
        "velocity": 107
      },
      {
        "pitch": 35,
        "duration": 1.0,
        "velocity": 115
      },
      {
        "pitch": 66,
        "duration": 0.75,
        "velocity": 55
      },
      {
        "pitch": 71,
        "duration": 1.0,
        "velocity": 57
      },
      {
        "pitch": 73,
        "duration": 1.0,
        "velocity": 80
      },
      {
        "pitch": 66,
        "duration": 0.5,
        "velocity": 96
      },
      {
        "pitch": 33,
        "duration": 2.0,
        "velocity": 115
      },
      {
        "pitch": 45,
        "duration": 2.75,
        "velocity": 75
      },
      {
        "pitch": 69,
        "duration": 0.5,
        "velocity": 80
      },
      {
        "pitch": 52,
        "duration": 2.3333333333333335,
        "velocity": 63
      }
    ],
    "key": "D major",
    "tempo": 120,
    "name": "129820fe71b310853a333b846db2b951_1.mid_seg20",
    "avg_interval": 15.0,
    "span": 40,
    "note_density": 0.0,
    "register": "middle",
    "complexity": 0.6666666666666666
  },
  {
    "events": [
      {
        "pitch": 66,
        "duration": 0.5,
        "velocity": 80
      },
      {
        "pitch": 61,
        "duration": 2.0,
        "velocity": 59
      },
      {
        "pitch": 57,
        "duration": 2.0,
        "velocity": 56
      },
      {
        "pitch": 73,
        "duration": 2.0,
        "velocity": 51
      },
      {
        "pitch": 64,
        "duration": 2.0,
        "velocity": 80
      },
      {
        "pitch": 61,
        "duration": 1.5,
        "velocity": 95
      },
      {
        "pitch": 33,
        "duration": 1.0,
        "velocity": 100
      },
      {
        "pitch": 64,
        "duration": 1.0,
        "velocity": 66
      },
      {
        "pitch": 64,
        "duration": 1.0,
        "velocity": 82
      },
      {
        "pitch": 76,
        "duration": 1.0,
        "velocity": 34
      },
      {
        "pitch": 81,
        "duration": 1.0,
        "velocity": 27
      },
      {
        "pitch": 69,
        "duration": 0.5,
        "velocity": 71
      },
      {
        "pitch": 40,
        "duration": 2.0,
        "velocity": 115
      },
      {
        "pitch": 45,
        "duration": 3.0,
        "velocity": 107
      },
      {
        "pitch": 69,
        "duration": 0.16666666666666666,
        "velocity": 71
      },
      {
        "pitch": 81,
        "duration": 0.5,
        "velocity": 27
      }
    ],
    "key": "D major",
    "tempo": 120,
    "name": "129820fe71b310853a333b846db2b951_1.mid_seg21",
    "avg_interval": 13.0,
    "span": 48,
    "note_density": 0.0,
    "register": "middle",
    "complexity": 0.6666666666666666
  },
  {
    "events": [
      {
        "pitch": 64,
        "duration": 1.0,
        "velocity": 80
      },
      {
        "pitch": 52,
        "duration": 2.5,
        "velocity": 70
      },
      {
        "pitch": 61,
        "duration": 1.75,
        "velocity": 76
      },
      {
        "pitch": 57,
        "duration": 2.0,
        "velocity": 66
      },
      {
        "pitch": 73,
        "duration": 2.0,
        "velocity": 60
      },
      {
        "pitch": 61,
        "duration": 1.5,
        "velocity": 103
      },
      {
        "pitch": 33,
        "duration": 1.0,
        "velocity": 115
      },
      {
        "pitch": 64,
        "duration": 0.75,
        "velocity": 55
      },
      {
        "pitch": 64,
        "duration": 1.0,
        "velocity": 98
      },
      {
        "pitch": 69,
        "duration": 0.5,
        "velocity": 77
      },
      {
        "pitch": 35,
        "duration": 2.0,
        "velocity": 115
      },
      {
        "pitch": 47,
        "duration": 2.75,
        "velocity": 80
      },
      {
        "pitch": 59,
        "duration": 3.0,
        "velocity": 80
      },
      {
        "pitch": 54,
        "duration": 2.3333333333333335,
        "velocity": 76
      },
      {
        "pitch": 62,
        "duration": 2.0,
        "velocity": 59
      },
      {
        "pitch": 59,
        "duration": 2.0,
        "velocity": 61
      }
    ],
    "key": "D major",
    "tempo": 120,
    "name": "129820fe71b310853a333b846db2b951_1.mid_seg22",
    "avg_interval": 12.733333333333333,
    "span": 40,
    "note_density": 0.0,
    "register": "middle",
    "complexity": 0.6666666666666666
  },
  {
    "events": [
      {
        "pitch": 62,
        "duration": 0.5,
        "velocity": 102
      },
      {
        "pitch": 35,
        "duration": 1.0,
        "velocity": 100
      },
      {
        "pitch": 66,
        "duration": 1.0,
        "velocity": 66
      },
      {
        "pitch": 71,
        "duration": 1.0,
        "velocity": 47
      },
      {
        "pitch": 66,
        "duration": 0.5,
        "velocity": 86
      },
      {
        "pitch": 30,
        "duration": 2.0,
        "velocity": 115
      },
      {
        "pitch": 47,
        "duration": 3.0,
        "velocity": 95
      },
      {
        "pitch": 59,
        "duration": 3.0,
        "velocity": 80
      },
      {
        "pitch": 71,
        "duration": 0.5,
        "velocity": 80
      },
      {
        "pitch": 54,
        "duration": 2.5,
        "velocity": 93
      },
      {
        "pitch": 71,
        "duration": 0.5,
        "velocity": 80
      },
      {
        "pitch": 62,
        "duration": 1.75,
        "velocity": 76
      },
      {
        "pitch": 59,
        "duration": 2.0,
        "velocity": 61
      },
      {
        "pitch": 71,
        "duration": 0.25,
        "velocity": 80
      },
      {
        "pitch": 62,
        "duration": 1.5,
        "velocity": 107
      },
      {
        "pitch": 35,
        "duration": 1.0,
        "velocity": 115
      }
    ],
    "key": "D major",
    "tempo": 120,
    "name": "129820fe71b310853a333b846db2b951_1.mid_seg23",
    "avg_interval": 15.933333333333334,
    "span": 41,
    "note_density": 0.0,
    "register": "middle",
    "complexity": 0.6666666666666666
  },
  {
    "events": [
      {
        "pitch": 66,
        "duration": 0.75,
        "velocity": 55
      },
      {
        "pitch": 71,
        "duration": 1.0,
        "velocity": 57
      },
      {
        "pitch": 73,
        "duration": 1.0,
        "velocity": 80
      },
      {
        "pitch": 66,
        "duration": 0.5,
        "velocity": 96
      },
      {
        "pitch": 33,
        "duration": 2.0,
        "velocity": 115
      },
      {
        "pitch": 45,
        "duration": 2.75,
        "velocity": 75
      },
      {
        "pitch": 69,
        "duration": 0.5,
        "velocity": 80
      },
      {
        "pitch": 52,
        "duration": 2.3333333333333335,
        "velocity": 63
      },
      {
        "pitch": 66,
        "duration": 0.5,
        "velocity": 80
      },
      {
        "pitch": 61,
        "duration": 2.0,
        "velocity": 59
      },
      {
        "pitch": 57,
        "duration": 2.0,
        "velocity": 56
      },
      {
        "pitch": 81,
        "duration": 2.0,
        "velocity": 27
      },
      {
        "pitch": 64,
        "duration": 2.0,
        "velocity": 80
      },
      {
        "pitch": 61,
        "duration": 1.5,
        "velocity": 95
      },
      {
        "pitch": 33,
        "duration": 1.0,
        "velocity": 100
      },
      {
        "pitch": 64,
        "duration": 1.0,
        "velocity": 66
      }
    ],
    "key": "D major",
    "tempo": 120,
    "name": "129820fe71b310853a333b846db2b951_1.mid_seg24",
    "avg_interval": 15.066666666666666,
    "span": 48,
    "note_density": 0.0,
    "register": "middle",
    "complexity": 0.6666666666666666
  },
  {
    "events": [
      {
        "pitch": 64,
        "duration": 1.0,
        "velocity": 82
      },
      {
        "pitch": 69,
        "duration": 0.5,
        "velocity": 71
      },
      {
        "pitch": 40,
        "duration": 2.0,
        "velocity": 115
      },
      {
        "pitch": 45,
        "duration": 3.0,
        "velocity": 107
      },
      {
        "pitch": 69,
        "duration": 0.16666666666666666,
        "velocity": 71
      },
      {
        "pitch": 64,
        "duration": 1.0,
        "velocity": 80
      },
      {
        "pitch": 52,
        "duration": 2.5,
        "velocity": 70
      },
      {
        "pitch": 61,
        "duration": 1.75,
        "velocity": 76
      },
      {
        "pitch": 57,
        "duration": 2.0,
        "velocity": 66
      },
      {
        "pitch": 81,
        "duration": 1.75,
        "velocity": 38
      },
      {
        "pitch": 61,
        "duration": 1.5,
        "velocity": 103
      },
      {
        "pitch": 33,
        "duration": 1.0,
        "velocity": 115
      },
      {
        "pitch": 64,
        "duration": 0.75,
        "velocity": 55
      },
      {
        "pitch": 64,
        "duration": 1.0,
        "velocity": 98
      },
      {
        "pitch": 69,
        "duration": 0.5,
        "velocity": 77
      },
      {
        "pitch": 35,
        "duration": 2.0,
        "velocity": 115
      }
    ],
    "key": "D major",
    "tempo": 120,
    "name": "129820fe71b310853a333b846db2b951_1.mid_seg25",
    "avg_interval": 15.666666666666666,
    "span": 48,
    "note_density": 0.0,
    "register": "middle",
    "complexity": 0.6666666666666666
  },
  {
    "events": [
      {
        "pitch": 47,
        "duration": 2.75,
        "velocity": 75
      },
      {
        "pitch": 59,
        "duration": 3.0,
        "velocity": 80
      },
      {
        "pitch": 54,
        "duration": 2.3333333333333335,
        "velocity": 63
      },
      {
        "pitch": 62,
        "duration": 2.0,
        "velocity": 59
      },
      {
        "pitch": 59,
        "duration": 2.0,
        "velocity": 56
      },
      {
        "pitch": 62,
        "duration": 1.5,
        "velocity": 95
      },
      {
        "pitch": 35,
        "duration": 1.0,
        "velocity": 100
      },
      {
        "pitch": 66,
        "duration": 1.0,
        "velocity": 66
      },
      {
        "pitch": 66,
        "duration": 1.0,
        "velocity": 82
      },
      {
        "pitch": 71,
        "duration": 0.5,
        "velocity": 71
      },
      {
        "pitch": 30,
        "duration": 2.0,
        "velocity": 115
      },
      {
        "pitch": 47,
        "duration": 3.0,
        "velocity": 107
      },
      {
        "pitch": 71,
        "duration": 0.16666666666666666,
        "velocity": 71
      },
      {
        "pitch": 59,
        "duration": 3.0,
        "velocity": 80
      },
      {
        "pitch": 71,
        "duration": 0.5,
        "velocity": 80
      },
      {
        "pitch": 54,
        "duration": 2.5,
        "velocity": 70
      }
    ],
    "key": "D major",
    "tempo": 120,
    "name": "129820fe71b310853a333b846db2b951_1.mid_seg26",
    "avg_interval": 14.466666666666667,
    "span": 41,
    "note_density": 0.0,
    "register": "middle",
    "complexity": 0.6666666666666666
  },
  {
    "events": [
      {
        "pitch": 71,
        "duration": 0.5,
        "velocity": 80
      },
      {
        "pitch": 62,
        "duration": 1.75,
        "velocity": 76
      },
      {
        "pitch": 59,
        "duration": 2.0,
        "velocity": 66
      },
      {
        "pitch": 71,
        "duration": 0.25,
        "velocity": 80
      },
      {
        "pitch": 62,
        "duration": 1.5,
        "velocity": 103
      },
      {
        "pitch": 35,
        "duration": 1.0,
        "velocity": 115
      },
      {
        "pitch": 66,
        "duration": 0.75,
        "velocity": 55
      },
      {
        "pitch": 66,
        "duration": 1.0,
        "velocity": 98
      },
      {
        "pitch": 73,
        "duration": 1.0,
        "velocity": 80
      },
      {
        "pitch": 71,
        "duration": 0.5,
        "velocity": 77
      },
      {
        "pitch": 33,
        "duration": 2.0,
        "velocity": 115
      },
      {
        "pitch": 45,
        "duration": 2.75,
        "velocity": 75
      },
      {
        "pitch": 69,
        "duration": 0.5,
        "velocity": 80
      },
      {
        "pitch": 52,
        "duration": 2.3333333333333335,
        "velocity": 63
      },
      {
        "pitch": 66,
        "duration": 0.5,
        "velocity": 80
      },
      {
        "pitch": 61,
        "duration": 2.0,
        "velocity": 59
      }
    ],
    "key": "D major",
    "tempo": 120,
    "name": "129820fe71b310853a333b846db2b951_1.mid_seg27",
    "avg_interval": 14.0,
    "span": 40,
    "note_density": 0.0,
    "register": "middle",
    "complexity": 0.6666666666666666
  },
  {
    "events": [
      {
        "pitch": 57,
        "duration": 2.0,
        "velocity": 56
      },
      {
        "pitch": 81,
        "duration": 2.0,
        "velocity": 27
      },
      {
        "pitch": 64,
        "duration": 2.0,
        "velocity": 80
      },
      {
        "pitch": 61,
        "duration": 1.5,
        "velocity": 95
      },
      {
        "pitch": 33,
        "duration": 1.0,
        "velocity": 100
      },
      {
        "pitch": 64,
        "duration": 1.0,
        "velocity": 66
      },
      {
        "pitch": 64,
        "duration": 1.0,
        "velocity": 82
      },
      {
        "pitch": 69,
        "duration": 0.5,
        "velocity": 71
      },
      {
        "pitch": 40,
        "duration": 2.0,
        "velocity": 115
      },
      {
        "pitch": 45,
        "duration": 3.0,
        "velocity": 107
      },
      {
        "pitch": 69,
        "duration": 0.16666666666666666,
        "velocity": 71
      },
      {
        "pitch": 64,
        "duration": 1.0,
        "velocity": 80
      },
      {
        "pitch": 52,
        "duration": 2.5,
        "velocity": 70
      },
      {
        "pitch": 61,
        "duration": 1.75,
        "velocity": 76
      },
      {
        "pitch": 57,
        "duration": 2.0,
        "velocity": 66
      },
      {
        "pitch": 81,
        "duration": 1.75,
        "velocity": 38
      }
    ],
    "key": "D major",
    "tempo": 120,
    "name": "129820fe71b310853a333b846db2b951_1.mid_seg28",
    "avg_interval": 14.666666666666666,
    "span": 48,
    "note_density": 0.0,
    "register": "middle",
    "complexity": 0.6666666666666666
  },
  {
    "events": [
      {
        "pitch": 61,
        "duration": 1.5,
        "velocity": 103
      },
      {
        "pitch": 33,
        "duration": 1.0,
        "velocity": 115
      },
      {
        "pitch": 64,
        "duration": 0.75,
        "velocity": 55
      },
      {
        "pitch": 64,
        "duration": 1.0,
        "velocity": 98
      },
      {
        "pitch": 69,
        "duration": 0.5,
        "velocity": 77
      },
      {
        "pitch": 38,
        "duration": 2.0,
        "velocity": 115
      },
      {
        "pitch": 50,
        "duration": 2.75,
        "velocity": 75
      },
      {
        "pitch": 62,
        "duration": 3.0,
        "velocity": 80
      },
      {
        "pitch": 62,
        "duration": 3.0,
        "velocity": 80
      },
      {
        "pitch": 57,
        "duration": 2.3333333333333335,
        "velocity": 63
      },
      {
        "pitch": 66,
        "duration": 2.0,
        "velocity": 59
      },
      {
        "pitch": 62,
        "duration": 2.0,
        "velocity": 56
      },
      {
        "pitch": 66,
        "duration": 1.5,
        "velocity": 95
      },
      {
        "pitch": 38,
        "duration": 1.0,
        "velocity": 100
      },
      {
        "pitch": 69,
        "duration": 1.0,
        "velocity": 66
      },
      {
        "pitch": 69,
        "duration": 1.0,
        "velocity": 82
      }
    ],
    "key": "D major",
    "tempo": 120,
    "name": "129820fe71b310853a333b846db2b951_1.mid_seg29",
    "avg_interval": 13.333333333333334,
    "span": 36,
    "note_density": 0.0,
    "register": "middle",
    "complexity": 0.6666666666666666
  },
  {
    "events": [
      {
        "pitch": 74,
        "duration": 0.5,
        "velocity": 71
      },
      {
        "pitch": 37,
        "duration": 2.0,
        "velocity": 115
      },
      {
        "pitch": 49,
        "duration": 2.75,
        "velocity": 80
      },
      {
        "pitch": 62,
        "duration": 3.0,
        "velocity": 80
      },
      {
        "pitch": 57,
        "duration": 2.3333333333333335,
        "velocity": 76
      },
      {
        "pitch": 66,
        "duration": 2.0,
        "velocity": 59
      },
      {
        "pitch": 62,
        "duration": 2.0,
        "velocity": 61
      },
      {
        "pitch": 66,
        "duration": 0.5,
        "velocity": 102
      },
      {
        "pitch": 37,
        "duration": 1.0,
        "velocity": 100
      },
      {
        "pitch": 69,
        "duration": 1.0,
        "velocity": 66
      },
      {
        "pitch": 74,
        "duration": 1.0,
        "velocity": 47
      },
      {
        "pitch": 69,
        "duration": 0.5,
        "velocity": 86
      },
      {
        "pitch": 35,
        "duration": 1.0,
        "velocity": 115
      },
      {
        "pitch": 47,
        "duration": 2.75,
        "velocity": 75
      },
      {
        "pitch": 57,
        "duration": 2.3333333333333335,
        "velocity": 63
      },
      {
        "pitch": 45,
        "duration": 1.0,
        "velocity": 100
      }
    ],
    "key": "D major",
    "tempo": 120,
    "name": "129820fe71b310853a333b846db2b951_1.mid_seg30",
    "avg_interval": 14.866666666666667,
    "span": 39,
    "note_density": 0.0,
    "register": "middle",
    "complexity": 0.6666666666666666
  },
  {
    "events": [
      {
        "pitch": 66,
        "duration": 2.0,
        "velocity": 59
      },
      {
        "pitch": 64,
        "duration": 2.0,
        "velocity": 56
      },
      {
        "pitch": 88,
        "duration": 2.0,
        "velocity": 43
      },
      {
        "pitch": 66,
        "duration": 1.5,
        "velocity": 95
      },
      {
        "pitch": 33,
        "duration": 1.0,
        "velocity": 100
      },
      {
        "pitch": 69,
        "duration": 1.0,
        "velocity": 66
      },
      {
        "pitch": 69,
        "duration": 1.0,
        "velocity": 82
      },
      {
        "pitch": 76,
        "duration": 0.5,
        "velocity": 71
      },
      {
        "pitch": 38,
        "duration": 1.0,
        "velocity": 115
      },
      {
        "pitch": 50,
        "duration": 2.75,
        "velocity": 75
      },
      {
        "pitch": 57,
        "duration": 2.3333333333333335,
        "velocity": 63
      },
      {
        "pitch": 45,
        "duration": 1.0,
        "velocity": 100
      },
      {
        "pitch": 62,
        "duration": 2.0,
        "velocity": 56
      },
      {
        "pitch": 66,
        "duration": 1.5,
        "velocity": 95
      },
      {
        "pitch": 40,
        "duration": 1.0,
        "velocity": 115
      },
      {
        "pitch": 69,
        "duration": 1.0,
        "velocity": 82
      }
    ],
    "key": "D major",
    "tempo": 120,
    "name": "129820fe71b310853a333b846db2b951_1.mid_seg31",
    "avg_interval": 17.933333333333334,
    "span": 55,
    "note_density": 0.0,
    "register": "middle",
    "complexity": 0.6666666666666666
  },
  {
    "events": [
      {
        "pitch": 74,
        "duration": 0.5,
        "velocity": 71
      },
      {
        "pitch": 38,
        "duration": 3.0,
        "velocity": 115
      },
      {
        "pitch": 50,
        "duration": 2.75,
        "velocity": 80
      },
      {
        "pitch": 57,
        "duration": 2.3333333333333335,
        "velocity": 76
      },
      {
        "pitch": 66,
        "duration": 2.0,
        "velocity": 59
      },
      {
        "pitch": 62,
        "duration": 2.0,
        "velocity": 61
      },
      {
        "pitch": 66,
        "duration": 0.5,
        "velocity": 102
      },
      {
        "pitch": 69,
        "duration": 1.0,
        "velocity": 66
      },
      {
        "pitch": 74,
        "duration": 1.0,
        "velocity": 47
      },
      {
        "pitch": 57,
        "duration": 1.0,
        "velocity": 80
      },
      {
        "pitch": 69,
        "duration": 0.5,
        "velocity": 86
      },
      {
        "pitch": 37,
        "duration": 3.0,
        "velocity": 115
      },
      {
        "pitch": 49,
        "duration": 2.75,
        "velocity": 75
      },
      {
        "pitch": 66,
        "duration": 0.5,
        "velocity": 80
      },
      {
        "pitch": 57,
        "duration": 2.3333333333333335,
        "velocity": 63
      },
      {
        "pitch": 64,
        "duration": 0.5,
        "velocity": 80
      }
    ],
    "key": "D major",
    "tempo": 120,
    "name": "129820fe71b310853a333b846db2b951_1.mid_seg32",
    "avg_interval": 12.4,
    "span": 37,
    "note_density": 0.0,
    "register": "middle",
    "complexity": 0.6666666666666666
  },
  {
    "events": [
      {
        "pitch": 66,
        "duration": 2.0,
        "velocity": 59
      },
      {
        "pitch": 62,
        "duration": 2.0,
        "velocity": 56
      },
      {
        "pitch": 66,
        "duration": 1.0,
        "velocity": 80
      },
      {
        "pitch": 66,
        "duration": 1.5,
        "velocity": 95
      },
      {
        "pitch": 69,
        "duration": 1.0,
        "velocity": 66
      },
      {
        "pitch": 69,
        "duration": 1.0,
        "velocity": 82
      },
      {
        "pitch": 64,
        "duration": 1.0,
        "velocity": 80
      },
      {
        "pitch": 74,
        "duration": 0.5,
        "velocity": 71
      },
      {
        "pitch": 35,
        "duration": 3.0,
        "velocity": 115
      },
      {
        "pitch": 47,
        "duration": 2.75,
        "velocity": 75
      },
      {
        "pitch": 66,
        "duration": 0.5,
        "velocity": 80
      },
      {
        "pitch": 57,
        "duration": 2.3333333333333335,
        "velocity": 63
      },
      {
        "pitch": 64,
        "duration": 0.5,
        "velocity": 80
      },
      {
        "pitch": 66,
        "duration": 2.0,
        "velocity": 59
      },
      {
        "pitch": 62,
        "duration": 2.0,
        "velocity": 56
      },
      {
        "pitch": 66,
        "duration": 1.0,
        "velocity": 80
      }
    ],
    "key": "D major",
    "tempo": 120,
    "name": "129820fe71b310853a333b846db2b951_1.mid_seg33",
    "avg_interval": 8.133333333333333,
    "span": 39,
    "note_density": 0.0,
    "register": "middle",
    "complexity": 0.5592592592592592
  },
  {
    "events": [
      {
        "pitch": 66,
        "duration": 1.5,
        "velocity": 95
      },
      {
        "pitch": 69,
        "duration": 1.0,
        "velocity": 66
      },
      {
        "pitch": 69,
        "duration": 1.0,
        "velocity": 82
      },
      {
        "pitch": 64,
        "duration": 1.0,
        "velocity": 80
      },
      {
        "pitch": 74,
        "duration": 0.5,
        "velocity": 71
      },
      {
        "pitch": 38,
        "duration": 3.0,
        "velocity": 115
      },
      {
        "pitch": 50,
        "duration": 2.75,
        "velocity": 75
      },
      {
        "pitch": 66,
        "duration": 0.5,
        "velocity": 80
      },
      {
        "pitch": 57,
        "duration": 2.3333333333333335,
        "velocity": 63
      },
      {
        "pitch": 64,
        "duration": 0.5,
        "velocity": 80
      },
      {
        "pitch": 66,
        "duration": 2.0,
        "velocity": 59
      },
      {
        "pitch": 60,
        "duration": 2.0,
        "velocity": 56
      },
      {
        "pitch": 62,
        "duration": 2.0,
        "velocity": 80
      },
      {
        "pitch": 66,
        "duration": 1.5,
        "velocity": 95
      },
      {
        "pitch": 69,
        "duration": 1.0,
        "velocity": 66
      },
      {
        "pitch": 69,
        "duration": 1.0,
        "velocity": 82
      }
    ],
    "key": "D major",
    "tempo": 120,
    "name": "129820fe71b310853a333b846db2b951_1.mid_seg34",
    "avg_interval": 7.666666666666667,
    "span": 36,
    "note_density": 0.0,
    "register": "middle",
    "complexity": 0.5462962962962963
  },
  {
    "events": [
      {
        "pitch": 72,
        "duration": 0.5,
        "velocity": 71
      },
      {
        "pitch": 43,
        "duration": 3.0,
        "velocity": 115
      },
      {
        "pitch": 43,
        "duration": 2.75,
        "velocity": 75
      },
      {
        "pitch": 62,
        "duration": 2.0,
        "velocity": 80
      },
      {
        "pitch": 50,
        "duration": 2.3333333333333335,
        "velocity": 63
      },
      {
        "pitch": 59,
        "duration": 2.0,
        "velocity": 59
      },
      {
        "pitch": 55,
        "duration": 2.0,
        "velocity": 56
      },
      {
        "pitch": 59,
        "duration": 1.5,
        "velocity": 95
      },
      {
        "pitch": 62,
        "duration": 1.0,
        "velocity": 66
      },
      {
        "pitch": 62,
        "duration": 1.0,
        "velocity": 82
      },
      {
        "pitch": 67,
        "duration": 0.5,
        "velocity": 71
      },
      {
        "pitch": 38,
        "duration": 3.0,
        "velocity": 115
      },
      {
        "pitch": 43,
        "duration": 3.0,
        "velocity": 107
      },
      {
        "pitch": 67,
        "duration": 0.16666666666666666,
        "velocity": 71
      },
      {
        "pitch": 50,
        "duration": 2.5,
        "velocity": 70
      },
      {
        "pitch": 59,
        "duration": 1.75,
        "velocity": 76
      }
    ],
    "key": "D major",
    "tempo": 120,
    "name": "129820fe71b310853a333b846db2b951_1.mid_seg35",
    "avg_interval": 11.266666666666667,
    "span": 34,
    "note_density": 0.0,
    "register": "middle",
    "complexity": 0.6462962962962964
  },
  {
    "events": [
      {
        "pitch": 55,
        "duration": 2.0,
        "velocity": 66
      },
      {
        "pitch": 59,
        "duration": 1.5,
        "velocity": 103
      },
      {
        "pitch": 62,
        "duration": 0.75,
        "velocity": 55
      },
      {
        "pitch": 62,
        "duration": 1.0,
        "velocity": 98
      },
      {
        "pitch": 57,
        "duration": 1.0,
        "velocity": 80
      },
      {
        "pitch": 67,
        "duration": 0.5,
        "velocity": 77
      },
      {
        "pitch": 33,
        "duration": 3.0,
        "velocity": 115
      },
      {
        "pitch": 45,
        "duration": 2.75,
        "velocity": 80
      },
      {
        "pitch": 71,
        "duration": 1.0,
        "velocity": 80
      },
      {
        "pitch": 52,
        "duration": 2.3333333333333335,
        "velocity": 76
      },
      {
        "pitch": 61,
        "duration": 1.75,
        "velocity": 62
      },
      {
        "pitch": 55,
        "duration": 2.0,
        "velocity": 61
      },
      {
        "pitch": 69,
        "duration": 2.0,
        "velocity": 80
      },
      {
        "pitch": 61,
        "duration": 0.5,
        "velocity": 102
      },
      {
        "pitch": 64,
        "duration": 0.75,
        "velocity": 85
      },
      {
        "pitch": 67,
        "duration": 1.0,
        "velocity": 47
      }
    ],
    "key": "D major",
    "tempo": 120,
    "name": "129820fe71b310853a333b846db2b951_1.mid_seg36",
    "avg_interval": 10.4,
    "span": 38,
    "note_density": 0.0,
    "register": "middle",
    "complexity": 0.6222222222222222
  },
  {
    "events": [
      {
        "pitch": 64,
        "duration": 0.5,
        "velocity": 86
      },
      {
        "pitch": 40,
        "duration": 3.0,
        "velocity": 115
      },
      {
        "pitch": 45,
        "duration": 3.0,
        "velocity": 95
      },
      {
        "pitch": 69,
        "duration": 3.0,
        "velocity": 80
      },
      {
        "pitch": 52,
        "duration": 2.5,
        "velocity": 93
      },
      {
        "pitch": 55,
        "duration": 2.0,
        "velocity": 61
      },
      {
        "pitch": 61,
        "duration": 1.5,
        "velocity": 107
      },
      {
        "pitch": 67,
        "duration": 1.0,
        "velocity": 57
      },
      {
        "pitch": 64,
        "duration": 0.5,
        "velocity": 96
      },
      {
        "pitch": 38,
        "duration": 3.0,
        "velocity": 115
      },
      {
        "pitch": 50,
        "duration": 2.75,
        "velocity": 67
      },
      {
        "pitch": 69,
        "duration": 1.0,
        "velocity": 80
      },
      {
        "pitch": 57,
        "duration": 1.75,
        "velocity": 75
      },
      {
        "pitch": 66,
        "duration": 2.0,
        "velocity": 59
      },
      {
        "pitch": 62,
        "duration": 0.6666666666666666,
        "velocity": 57
      },
      {
        "pitch": 66,
        "duration": 1.5,
        "velocity": 72
      }
    ],
    "key": "D major",
    "tempo": 120,
    "name": "129820fe71b310853a333b846db2b951_1.mid_seg37",
    "avg_interval": 11.6,
    "span": 31,
    "note_density": 0.0,
    "register": "middle",
    "complexity": 0.6555555555555556
  },
  {
    "events": [
      {
        "pitch": 69,
        "duration": 1.0,
        "velocity": 66
      },
      {
        "pitch": 62,
        "duration": 1.0,
        "velocity": 54
      },
      {
        "pitch": 57,
        "duration": 1.0,
        "velocity": 80
      },
      {
        "pitch": 57,
        "duration": 0.5,
        "velocity": 81
      },
      {
        "pitch": 37,
        "duration": 3.0,
        "velocity": 115
      },
      {
        "pitch": 49,
        "duration": 2.75,
        "velocity": 75
      },
      {
        "pitch": 66,
        "duration": 0.5,
        "velocity": 80
      },
      {
        "pitch": 57,
        "duration": 2.3333333333333335,
        "velocity": 63
      },
      {
        "pitch": 64,
        "duration": 0.5,
        "velocity": 80
      },
      {
        "pitch": 66,
        "duration": 2.0,
        "velocity": 59
      },
      {
        "pitch": 62,
        "duration": 2.0,
        "velocity": 56
      },
      {
        "pitch": 66,
        "duration": 1.0,
        "velocity": 80
      },
      {
        "pitch": 66,
        "duration": 1.5,
        "velocity": 95
      },
      {
        "pitch": 69,
        "duration": 1.0,
        "velocity": 66
      },
      {
        "pitch": 69,
        "duration": 1.0,
        "velocity": 82
      },
      {
        "pitch": 64,
        "duration": 1.0,
        "velocity": 80
      }
    ],
    "key": "D major",
    "tempo": 120,
    "name": "129820fe71b310853a333b846db2b951_1.mid_seg38",
    "avg_interval": 6.333333333333333,
    "span": 32,
    "note_density": 0.0,
    "register": "middle",
    "complexity": 0.5092592592592592
  },
  {
    "events": [
      {
        "pitch": 74,
        "duration": 0.5,
        "velocity": 71
      },
      {
        "pitch": 35,
        "duration": 3.0,
        "velocity": 115
      },
      {
        "pitch": 47,
        "duration": 2.75,
        "velocity": 75
      },
      {
        "pitch": 66,
        "duration": 0.5,
        "velocity": 80
      },
      {
        "pitch": 57,
        "duration": 2.3333333333333335,
        "velocity": 63
      },
      {
        "pitch": 64,
        "duration": 0.5,
        "velocity": 80
      },
      {
        "pitch": 66,
        "duration": 2.0,
        "velocity": 59
      },
      {
        "pitch": 62,
        "duration": 2.0,
        "velocity": 56
      },
      {
        "pitch": 66,
        "duration": 1.0,
        "velocity": 80
      },
      {
        "pitch": 66,
        "duration": 1.5,
        "velocity": 95
      },
      {
        "pitch": 69,
        "duration": 1.0,
        "velocity": 66
      },
      {
        "pitch": 69,
        "duration": 1.0,
        "velocity": 82
      },
      {
        "pitch": 64,
        "duration": 1.0,
        "velocity": 80
      },
      {
        "pitch": 74,
        "duration": 0.5,
        "velocity": 71
      },
      {
        "pitch": 38,
        "duration": 3.0,
        "velocity": 115
      },
      {
        "pitch": 50,
        "duration": 2.75,
        "velocity": 67
      }
    ],
    "key": "D major",
    "tempo": 120,
    "name": "129820fe71b310853a333b846db2b951_1.mid_seg39",
    "avg_interval": 10.8,
    "span": 39,
    "note_density": 0.0,
    "register": "middle",
    "complexity": 0.6333333333333333
  },
  {
    "events": [
      {
        "pitch": 66,
        "duration": 0.5,
        "velocity": 80
      },
      {
        "pitch": 57,
        "duration": 1.75,
        "velocity": 75
      },
      {
        "pitch": 64,
        "duration": 0.5,
        "velocity": 80
      },
      {
        "pitch": 66,
        "duration": 2.0,
        "velocity": 59
      },
      {
        "pitch": 60,
        "duration": 0.6666666666666666,
        "velocity": 57
      },
      {
        "pitch": 62,
        "duration": 2.0,
        "velocity": 80
      },
      {
        "pitch": 66,
        "duration": 1.5,
        "velocity": 72
      },
      {
        "pitch": 69,
        "duration": 1.0,
        "velocity": 66
      },
      {
        "pitch": 60,
        "duration": 1.0,
        "velocity": 54
      },
      {
        "pitch": 57,
        "duration": 0.5,
        "velocity": 81
      },
      {
        "pitch": 43,
        "duration": 3.0,
        "velocity": 115
      },
      {
        "pitch": 43,
        "duration": 2.75,
        "velocity": 75
      },
      {
        "pitch": 62,
        "duration": 2.0,
        "velocity": 80
      },
      {
        "pitch": 50,
        "duration": 2.3333333333333335,
        "velocity": 63
      },
      {
        "pitch": 59,
        "duration": 2.0,
        "velocity": 59
      },
      {
        "pitch": 55,
        "duration": 2.0,
        "velocity": 56
      }
    ],
    "key": "D major",
    "tempo": 120,
    "name": "129820fe71b310853a333b846db2b951_1.mid_seg40",
    "avg_interval": 6.866666666666666,
    "span": 26,
    "note_density": 0.0,
    "register": "middle",
    "complexity": 0.524074074074074
  },
  {
    "events": [
      {
        "pitch": 59,
        "duration": 1.5,
        "velocity": 95
      },
      {
        "pitch": 62,
        "duration": 1.0,
        "velocity": 66
      },
      {
        "pitch": 62,
        "duration": 1.0,
        "velocity": 82
      },
      {
        "pitch": 67,
        "duration": 0.5,
        "velocity": 71
      },
      {
        "pitch": 38,
        "duration": 3.0,
        "velocity": 115
      },
      {
        "pitch": 43,
        "duration": 3.0,
        "velocity": 107
      },
      {
        "pitch": 67,
        "duration": 0.16666666666666666,
        "velocity": 71
      },
      {
        "pitch": 50,
        "duration": 2.5,
        "velocity": 70
      },
      {
        "pitch": 59,
        "duration": 1.75,
        "velocity": 76
      },
      {
        "pitch": 55,
        "duration": 2.0,
        "velocity": 66
      },
      {
        "pitch": 59,
        "duration": 1.5,
        "velocity": 103
      },
      {
        "pitch": 62,
        "duration": 0.75,
        "velocity": 55
      },
      {
        "pitch": 62,
        "duration": 1.0,
        "velocity": 98
      },
      {
        "pitch": 57,
        "duration": 1.0,
        "velocity": 80
      },
      {
        "pitch": 67,
        "duration": 0.5,
        "velocity": 77
      },
      {
        "pitch": 33,
        "duration": 3.0,
        "velocity": 115
      }
    ],
    "key": "D major",
    "tempo": 120,
    "name": "129820fe71b310853a333b846db2b951_1.mid_seg41",
    "avg_interval": 10.133333333333333,
    "span": 34,
    "note_density": 0.0,
    "register": "middle",
    "complexity": 0.6148148148148148
  },
  {
    "events": [
      {
        "pitch": 45,
        "duration": 2.75,
        "velocity": 75
      },
      {
        "pitch": 71,
        "duration": 1.0,
        "velocity": 80
      },
      {
        "pitch": 52,
        "duration": 2.3333333333333335,
        "velocity": 63
      },
      {
        "pitch": 61,
        "duration": 1.75,
        "velocity": 62
      },
      {
        "pitch": 55,
        "duration": 2.0,
        "velocity": 56
      },
      {
        "pitch": 69,
        "duration": 2.0,
        "velocity": 80
      },
      {
        "pitch": 61,
        "duration": 1.5,
        "velocity": 95
      },
      {
        "pitch": 64,
        "duration": 0.75,
        "velocity": 85
      },
      {
        "pitch": 64,
        "duration": 1.0,
        "velocity": 82
      },
      {
        "pitch": 67,
        "duration": 0.5,
        "velocity": 71
      },
      {
        "pitch": 40,
        "duration": 2.0,
        "velocity": 115
      },
      {
        "pitch": 45,
        "duration": 3.0,
        "velocity": 107
      },
      {
        "pitch": 67,
        "duration": 0.16666666666666666,
        "velocity": 71
      },
      {
        "pitch": 69,
        "duration": 3.0,
        "velocity": 80
      },
      {
        "pitch": 52,
        "duration": 2.5,
        "velocity": 70
      },
      {
        "pitch": 55,
        "duration": 2.0,
        "velocity": 66
      }
    ],
    "key": "D major",
    "tempo": 120,
    "name": "129820fe71b310853a333b846db2b951_1.mid_seg42",
    "avg_interval": 10.933333333333334,
    "span": 31,
    "note_density": 0.0,
    "register": "middle",
    "complexity": 0.637037037037037
  },
  {
    "events": [
      {
        "pitch": 61,
        "duration": 1.5,
        "velocity": 103
      },
      {
        "pitch": 33,
        "duration": 1.0,
        "velocity": 100
      },
      {
        "pitch": 64,
        "duration": 1.0,
        "velocity": 98
      },
      {
        "pitch": 67,
        "duration": 0.5,
        "velocity": 77
      },
      {
        "pitch": 43,
        "duration": 3.0,
        "velocity": 115
      },
      {
        "pitch": 43,
        "duration": 2.75,
        "velocity": 75
      },
      {
        "pitch": 69,
        "duration": 1.0,
        "velocity": 80
      },
      {
        "pitch": 50,
        "duration": 2.3333333333333335,
        "velocity": 63
      },
      {
        "pitch": 59,
        "duration": 2.0,
        "velocity": 59
      },
      {
        "pitch": 55,
        "duration": 2.0,
        "velocity": 56
      },
      {
        "pitch": 59,
        "duration": 1.5,
        "velocity": 95
      },
      {
        "pitch": 62,
        "duration": 1.0,
        "velocity": 66
      },
      {
        "pitch": 62,
        "duration": 1.0,
        "velocity": 82
      },
      {
        "pitch": 67,
        "duration": 0.5,
        "velocity": 71
      },
      {
        "pitch": 38,
        "duration": 3.0,
        "velocity": 115
      },
      {
        "pitch": 43,
        "duration": 3.0,
        "velocity": 107
      }
    ],
    "key": "D major",
    "tempo": 120,
    "name": "129820fe71b310853a333b846db2b951_1.mid_seg43",
    "avg_interval": 12.666666666666666,
    "span": 36,
    "note_density": 0.0,
    "register": "bass",
    "complexity": 0.6666666666666666
  },
  {
    "events": [
      {
        "pitch": 67,
        "duration": 0.16666666666666666,
        "velocity": 71
      },
      {
        "pitch": 50,
        "duration": 2.5,
        "velocity": 70
      },
      {
        "pitch": 59,
        "duration": 1.75,
        "velocity": 76
      },
      {
        "pitch": 55,
        "duration": 2.0,
        "velocity": 66
      },
      {
        "pitch": 59,
        "duration": 1.5,
        "velocity": 103
      },
      {
        "pitch": 62,
        "duration": 0.75,
        "velocity": 55
      },
      {
        "pitch": 62,
        "duration": 1.0,
        "velocity": 98
      },
      {
        "pitch": 57,
        "duration": 1.0,
        "velocity": 80
      },
      {
        "pitch": 67,
        "duration": 0.5,
        "velocity": 77
      },
      {
        "pitch": 38,
        "duration": 3.0,
        "velocity": 115
      },
      {
        "pitch": 50,
        "duration": 2.75,
        "velocity": 67
      },
      {
        "pitch": 71,
        "duration": 1.0,
        "velocity": 80
      },
      {
        "pitch": 57,
        "duration": 1.75,
        "velocity": 75
      },
      {
        "pitch": 66,
        "duration": 2.0,
        "velocity": 59
      },
      {
        "pitch": 62,
        "duration": 0.6666666666666666,
        "velocity": 57
      },
      {
        "pitch": 73,
        "duration": 2.0,
        "velocity": 80
      }
    ],
    "key": "D major",
    "tempo": 120,
    "name": "129820fe71b310853a333b846db2b951_1.mid_seg44",
    "avg_interval": 10.133333333333333,
    "span": 35,
    "note_density": 0.0,
    "register": "middle",
    "complexity": 0.6148148148148148
  },
  {
    "events": [
      {
        "pitch": 66,
        "duration": 1.5,
        "velocity": 72
      },
      {
        "pitch": 69,
        "duration": 1.0,
        "velocity": 66
      },
      {
        "pitch": 62,
        "duration": 1.0,
        "velocity": 54
      },
      {
        "pitch": 57,
        "duration": 0.5,
        "velocity": 81
      },
      {
        "pitch": 42,
        "duration": 3.0,
        "velocity": 115
      },
      {
        "pitch": 42,
        "duration": 2.75,
        "velocity": 75
      },
      {
        "pitch": 69,
        "duration": 3.0,
        "velocity": 80
      },
      {
        "pitch": 49,
        "duration": 2.3333333333333335,
        "velocity": 63
      },
      {
        "pitch": 58,
        "duration": 2.0,
        "velocity": 59
      },
      {
        "pitch": 54,
        "duration": 2.0,
        "velocity": 56
      },
      {
        "pitch": 58,
        "duration": 1.5,
        "velocity": 95
      },
      {
        "pitch": 61,
        "duration": 1.0,
        "velocity": 66
      },
      {
        "pitch": 61,
        "duration": 1.0,
        "velocity": 82
      },
      {
        "pitch": 66,
        "duration": 0.5,
        "velocity": 71
      },
      {
        "pitch": 35,
        "duration": 3.0,
        "velocity": 115
      },
      {
        "pitch": 47,
        "duration": 2.75,
        "velocity": 75
      }
    ],
    "key": "D major",
    "tempo": 120,
    "name": "129820fe71b310853a333b846db2b951_1.mid_seg45",
    "avg_interval": 9.666666666666666,
    "span": 34,
    "note_density": 0.0,
    "register": "middle",
    "complexity": 0.6018518518518517
  },
  {
    "events": [
      {
        "pitch": 66,
        "duration": 2.0,
        "velocity": 80
      },
      {
        "pitch": 54,
        "duration": 2.3333333333333335,
        "velocity": 63
      },
      {
        "pitch": 62,
        "duration": 2.0,
        "velocity": 59
      },
      {
        "pitch": 59,
        "duration": 2.0,
        "velocity": 56
      },
      {
        "pitch": 62,
        "duration": 1.5,
        "velocity": 95
      },
      {
        "pitch": 66,
        "duration": 1.0,
        "velocity": 66
      },
      {
        "pitch": 66,
        "duration": 1.0,
        "velocity": 82
      },
      {
        "pitch": 64,
        "duration": 1.0,
        "velocity": 80
      },
      {
        "pitch": 71,
        "duration": 0.5,
        "velocity": 71
      },
      {
        "pitch": 33,
        "duration": 3.0,
        "velocity": 115
      },
      {
        "pitch": 45,
        "duration": 2.75,
        "velocity": 75
      },
      {
        "pitch": 62,
        "duration": 3.0,
        "velocity": 80
      },
      {
        "pitch": 54,
        "duration": 2.3333333333333335,
        "velocity": 63
      },
      {
        "pitch": 62,
        "duration": 2.0,
        "velocity": 59
      },
      {
        "pitch": 59,
        "duration": 2.0,
        "velocity": 56
      },
      {
        "pitch": 62,
        "duration": 1.5,
        "velocity": 95
      }
    ],
    "key": "D major",
    "tempo": 120,
    "name": "129820fe71b310853a333b846db2b951_1.mid_seg46",
    "avg_interval": 8.533333333333333,
    "span": 38,
    "note_density": 0.0,
    "register": "middle",
    "complexity": 0.5703703703703704
  },
  {
    "events": [
      {
        "pitch": 66,
        "duration": 1.0,
        "velocity": 66
      },
      {
        "pitch": 66,
        "duration": 1.0,
        "velocity": 82
      },
      {
        "pitch": 71,
        "duration": 0.5,
        "velocity": 71
      },
      {
        "pitch": 40,
        "duration": 3.0,
        "velocity": 115
      },
      {
        "pitch": 52,
        "duration": 2.75,
        "velocity": 75
      },
      {
        "pitch": 62,
        "duration": 3.0,
        "velocity": 80
      },
      {
        "pitch": 59,
        "duration": 2.3333333333333335,
        "velocity": 63
      },
      {
        "pitch": 68,
        "duration": 1.75,
        "velocity": 62
      },
      {
        "pitch": 62,
        "duration": 2.0,
        "velocity": 56
      },
      {
        "pitch": 68,
        "duration": 1.5,
        "velocity": 95
      },
      {
        "pitch": 71,
        "duration": 0.75,
        "velocity": 85
      },
      {
        "pitch": 71,
        "duration": 1.0,
        "velocity": 82
      },
      {
        "pitch": 74,
        "duration": 0.5,
        "velocity": 71
      },
      {
        "pitch": 47,
        "duration": 2.0,
        "velocity": 115
      },
      {
        "pitch": 52,
        "duration": 3.0,
        "velocity": 107
      },
      {
        "pitch": 74,
        "duration": 0.16666666666666666,
        "velocity": 71
      }
    ],
    "key": "D major",
    "tempo": 120,
    "name": "129820fe71b310853a333b846db2b951_1.mid_seg47",
    "avg_interval": 9.466666666666667,
    "span": 34,
    "note_density": 0.0,
    "register": "middle",
    "complexity": 0.5962962962962962
  },
  {
    "events": [
      {
        "pitch": 59,
        "duration": 2.5,
        "velocity": 70
      },
      {
        "pitch": 62,
        "duration": 2.0,
        "velocity": 66
      },
      {
        "pitch": 68,
        "duration": 1.5,
        "velocity": 103
      },
      {
        "pitch": 35,
        "duration": 1.0,
        "velocity": 100
      },
      {
        "pitch": 71,
        "duration": 1.0,
        "velocity": 98
      },
      {
        "pitch": 66,
        "duration": 0.5,
        "velocity": 80
      },
      {
        "pitch": 74,
        "duration": 0.5,
        "velocity": 77
      },
      {
        "pitch": 66,
        "duration": 0.5,
        "velocity": 80
      },
      {
        "pitch": 33,
        "duration": 3.0,
        "velocity": 115
      },
      {
        "pitch": 45,
        "duration": 2.75,
        "velocity": 75
      },
      {
        "pitch": 66,
        "duration": 0.25,
        "velocity": 80
      },
      {
        "pitch": 52,
        "duration": 2.3333333333333335,
        "velocity": 63
      },
      {
        "pitch": 62,
        "duration": 2.0,
        "velocity": 59
      },
      {
        "pitch": 55,
        "duration": 2.0,
        "velocity": 56
      },
      {
        "pitch": 64,
        "duration": 1.0,
        "velocity": 80
      },
      {
        "pitch": 62,
        "duration": 1.5,
        "velocity": 95
      }
    ],
    "key": "D major",
    "tempo": 120,
    "name": "129820fe71b310853a333b846db2b951_1.mid_seg48",
    "avg_interval": 13.8,
    "span": 41,
    "note_density": 0.0,
    "register": "middle",
    "complexity": 0.6666666666666666
  },
  {
    "events": [
      {
        "pitch": 64,
        "duration": 1.0,
        "velocity": 66
      },
      {
        "pitch": 64,
        "duration": 1.0,
        "velocity": 82
      },
      {
        "pitch": 62,
        "duration": 1.0,
        "velocity": 80
      },
      {
        "pitch": 67,
        "duration": 0.5,
        "velocity": 71
      },
      {
        "pitch": 40,
        "duration": 3.0,
        "velocity": 115
      },
      {
        "pitch": 45,
        "duration": 3.0,
        "velocity": 107
      },
      {
        "pitch": 67,
        "duration": 0.16666666666666666,
        "velocity": 71
      },
      {
        "pitch": 64,
        "duration": 3.0,
        "velocity": 80
      },
      {
        "pitch": 52,
        "duration": 2.5,
        "velocity": 70
      },
      {
        "pitch": 62,
        "duration": 1.75,
        "velocity": 76
      },
      {
        "pitch": 55,
        "duration": 2.0,
        "velocity": 66
      },
      {
        "pitch": 62,
        "duration": 1.5,
        "velocity": 103
      },
      {
        "pitch": 64,
        "duration": 0.75,
        "velocity": 55
      },
      {
        "pitch": 64,
        "duration": 1.0,
        "velocity": 98
      },
      {
        "pitch": 67,
        "duration": 0.5,
        "velocity": 77
      },
      {
        "pitch": 33,
        "duration": 3.0,
        "velocity": 115
      }
    ],
    "key": "D major",
    "tempo": 120,
    "name": "129820fe71b310853a333b846db2b951_1.mid_seg49",
    "avg_interval": 9.266666666666667,
    "span": 34,
    "note_density": 0.0,
    "register": "middle",
    "complexity": 0.5907407407407407
  },
  {
    "events": [
      {
        "pitch": 45,
        "duration": 2.75,
        "velocity": 80
      },
      {
        "pitch": 64,
        "duration": 3.0,
        "velocity": 80
      },
      {
        "pitch": 52,
        "duration": 2.3333333333333335,
        "velocity": 76
      },
      {
        "pitch": 61,
        "duration": 1.75,
        "velocity": 62
      },
      {
        "pitch": 55,
        "duration": 2.0,
        "velocity": 61
      },
      {
        "pitch": 61,
        "duration": 0.5,
        "velocity": 102
      },
      {
        "pitch": 64,
        "duration": 0.75,
        "velocity": 85
      },
      {
        "pitch": 67,
        "duration": 1.0,
        "velocity": 47
      },
      {
        "pitch": 64,
        "duration": 0.5,
        "velocity": 86
      },
      {
        "pitch": 33,
        "duration": 1.0,
        "velocity": 115
      },
      {
        "pitch": 45,
        "duration": 3.0,
        "velocity": 95
      },
      {
        "pitch": 52,
        "duration": 2.5,
        "velocity": 93
      },
      {
        "pitch": 40,
        "duration": 1.0,
        "velocity": 90
      },
      {
        "pitch": 55,
        "duration": 2.0,
        "velocity": 61
      },
      {
        "pitch": 61,
        "duration": 1.5,
        "velocity": 107
      },
      {
        "pitch": 33,
        "duration": 1.0,
        "velocity": 100
      }
    ],
    "key": "D major",
    "tempo": 120,
    "name": "129820fe71b310853a333b846db2b951_1.mid_seg50",
    "avg_interval": 11.466666666666667,
    "span": 34,
    "note_density": 0.0,
    "register": "bass",
    "complexity": 0.6518518518518519
  },
  {
    "events": [
      {
        "pitch": 67,
        "duration": 1.0,
        "velocity": 57
      },
      {
        "pitch": 64,
        "duration": 0.5,
        "velocity": 96
      },
      {
        "pitch": 35,
        "duration": 2.0,
        "velocity": 115
      },
      {
        "pitch": 47,
        "duration": 2.75,
        "velocity": 67
      },
      {
        "pitch": 59,
        "duration": 3.0,
        "velocity": 80
      },
      {
        "pitch": 54,
        "duration": 1.75,
        "velocity": 75
      },
      {
        "pitch": 62,
        "duration": 2.0,
        "velocity": 59
      },
      {
        "pitch": 59,
        "duration": 0.6666666666666666,
        "velocity": 57
      },
      {
        "pitch": 62,
        "duration": 1.5,
        "velocity": 72
      },
      {
        "pitch": 35,
        "duration": 1.0,
        "velocity": 100
      },
      {
        "pitch": 66,
        "duration": 1.0,
        "velocity": 66
      },
      {
        "pitch": 59,
        "duration": 1.0,
        "velocity": 54
      },
      {
        "pitch": 54,
        "duration": 0.5,
        "velocity": 81
      },
      {
        "pitch": 30,
        "duration": 2.0,
        "velocity": 115
      },
      {
        "pitch": 47,
        "duration": 3.0,
        "velocity": 107
      },
      {
        "pitch": 62,
        "duration": 1.25,
        "velocity": 72
      }
    ],
    "key": "D major",
    "tempo": 120,
    "name": "129820fe71b310853a333b846db2b951_1.mid_seg51",
    "avg_interval": 13.4,
    "span": 37,
    "note_density": 0.0,
    "register": "bass",
    "complexity": 0.6666666666666666
  },
  {
    "events": [
      {
        "pitch": 59,
        "duration": 1.0,
        "velocity": 54
      },
      {
        "pitch": 54,
        "duration": 0.25,
        "velocity": 81
      },
      {
        "pitch": 59,
        "duration": 3.0,
        "velocity": 80
      },
      {
        "pitch": 71,
        "duration": 0.5,
        "velocity": 80
      },
      {
        "pitch": 54,
        "duration": 1.75,
        "velocity": 98
      },
      {
        "pitch": 71,
        "duration": 0.5,
        "velocity": 80
      },
      {
        "pitch": 62,
        "duration": 1.75,
        "velocity": 76
      },
      {
        "pitch": 59,
        "duration": 0.6666666666666666,
        "velocity": 77
      },
      {
        "pitch": 71,
        "duration": 0.25,
        "velocity": 80
      },
      {
        "pitch": 62,
        "duration": 1.5,
        "velocity": 92
      },
      {
        "pitch": 35,
        "duration": 1.0,
        "velocity": 115
      },
      {
        "pitch": 66,
        "duration": 0.75,
        "velocity": 55
      },
      {
        "pitch": 59,
        "duration": 1.0,
        "velocity": 83
      },
      {
        "pitch": 73,
        "duration": 1.0,
        "velocity": 80
      },
      {
        "pitch": 54,
        "duration": 0.5,
        "velocity": 98
      },
      {
        "pitch": 33,
        "duration": 2.0,
        "velocity": 115
      }
    ],
    "key": "D major",
    "tempo": 120,
    "name": "129820fe71b310853a333b846db2b951_1.mid_seg52",
    "avg_interval": 13.866666666666667,
    "span": 40,
    "note_density": 0.0,
    "register": "middle",
    "complexity": 0.6666666666666666
  },
  {
    "events": [
      {
        "pitch": 45,
        "duration": 2.75,
        "velocity": 75
      },
      {
        "pitch": 69,
        "duration": 0.5,
        "velocity": 80
      },
      {
        "pitch": 52,
        "duration": 2.3333333333333335,
        "velocity": 63
      },
      {
        "pitch": 66,
        "duration": 0.5,
        "velocity": 80
      },
      {
        "pitch": 61,
        "duration": 2.0,
        "velocity": 59
      },
      {
        "pitch": 57,
        "duration": 2.0,
        "velocity": 56
      },
      {
        "pitch": 73,
        "duration": 1.75,
        "velocity": 31
      },
      {
        "pitch": 64,
        "duration": 2.0,
        "velocity": 80
      },
      {
        "pitch": 61,
        "duration": 1.5,
        "velocity": 95
      },
      {
        "pitch": 33,
        "duration": 1.0,
        "velocity": 100
      },
      {
        "pitch": 64,
        "duration": 1.0,
        "velocity": 66
      },
      {
        "pitch": 64,
        "duration": 1.0,
        "velocity": 82
      },
      {
        "pitch": 69,
        "duration": 0.5,
        "velocity": 71
      },
      {
        "pitch": 40,
        "duration": 2.0,
        "velocity": 115
      },
      {
        "pitch": 45,
        "duration": 3.0,
        "velocity": 107
      },
      {
        "pitch": 69,
        "duration": 0.16666666666666666,
        "velocity": 71
      }
    ],
    "key": "D major",
    "tempo": 120,
    "name": "129820fe71b310853a333b846db2b951_1.mid_seg53",
    "avg_interval": 14.266666666666667,
    "span": 40,
    "note_density": 0.0,
    "register": "middle",
    "complexity": 0.6666666666666666
  },
  {
    "events": [
      {
        "pitch": 64,
        "duration": 1.0,
        "velocity": 80
      },
      {
        "pitch": 52,
        "duration": 2.5,
        "velocity": 70
      },
      {
        "pitch": 61,
        "duration": 1.75,
        "velocity": 76
      },
      {
        "pitch": 57,
        "duration": 2.0,
        "velocity": 66
      },
      {
        "pitch": 61,
        "duration": 1.5,
        "velocity": 103
      },
      {
        "pitch": 33,
        "duration": 1.0,
        "velocity": 115
      },
      {
        "pitch": 64,
        "duration": 0.75,
        "velocity": 55
      },
      {
        "pitch": 64,
        "duration": 1.0,
        "velocity": 98
      },
      {
        "pitch": 69,
        "duration": 0.5,
        "velocity": 77
      },
      {
        "pitch": 35,
        "duration": 2.0,
        "velocity": 115
      },
      {
        "pitch": 47,
        "duration": 2.75,
        "velocity": 75
      },
      {
        "pitch": 59,
        "duration": 3.0,
        "velocity": 80
      },
      {
        "pitch": 54,
        "duration": 2.3333333333333335,
        "velocity": 63
      },
      {
        "pitch": 62,
        "duration": 2.0,
        "velocity": 59
      },
      {
        "pitch": 59,
        "duration": 2.0,
        "velocity": 56
      },
      {
        "pitch": 62,
        "duration": 1.5,
        "velocity": 95
      }
    ],
    "key": "D major",
    "tempo": 120,
    "name": "129820fe71b310853a333b846db2b951_1.mid_seg54",
    "avg_interval": 11.333333333333334,
    "span": 36,
    "note_density": 0.0,
    "register": "middle",
    "complexity": 0.6481481481481483
  },
  {
    "events": [
      {
        "pitch": 35,
        "duration": 1.0,
        "velocity": 100
      },
      {
        "pitch": 66,
        "duration": 1.0,
        "velocity": 66
      },
      {
        "pitch": 66,
        "duration": 1.0,
        "velocity": 82
      },
      {
        "pitch": 71,
        "duration": 0.5,
        "velocity": 71
      },
      {
        "pitch": 30,
        "duration": 2.0,
        "velocity": 115
      },
      {
        "pitch": 47,
        "duration": 3.0,
        "velocity": 107
      },
      {
        "pitch": 71,
        "duration": 0.16666666666666666,
        "velocity": 71
      },
      {
        "pitch": 59,
        "duration": 3.0,
        "velocity": 80
      },
      {
        "pitch": 71,
        "duration": 0.5,
        "velocity": 80
      },
      {
        "pitch": 54,
        "duration": 2.5,
        "velocity": 70
      },
      {
        "pitch": 71,
        "duration": 0.5,
        "velocity": 80
      },
      {
        "pitch": 62,
        "duration": 1.75,
        "velocity": 76
      },
      {
        "pitch": 59,
        "duration": 2.0,
        "velocity": 66
      },
      {
        "pitch": 71,
        "duration": 0.25,
        "velocity": 80
      },
      {
        "pitch": 62,
        "duration": 1.5,
        "velocity": 103
      },
      {
        "pitch": 35,
        "duration": 1.0,
        "velocity": 115
      }
    ],
    "key": "D major",
    "tempo": 120,
    "name": "129820fe71b310853a333b846db2b951_1.mid_seg55",
    "avg_interval": 15.733333333333333,
    "span": 41,
    "note_density": 0.0,
    "register": "middle",
    "complexity": 0.6666666666666666
  },
  {
    "events": [
      {
        "pitch": 66,
        "duration": 0.75,
        "velocity": 55
      },
      {
        "pitch": 66,
        "duration": 1.0,
        "velocity": 98
      },
      {
        "pitch": 73,
        "duration": 1.0,
        "velocity": 80
      },
      {
        "pitch": 71,
        "duration": 0.5,
        "velocity": 77
      },
      {
        "pitch": 33,
        "duration": 2.0,
        "velocity": 115
      },
      {
        "pitch": 45,
        "duration": 2.75,
        "velocity": 75
      },
      {
        "pitch": 69,
        "duration": 0.5,
        "velocity": 80
      },
      {
        "pitch": 52,
        "duration": 2.3333333333333335,
        "velocity": 63
      },
      {
        "pitch": 66,
        "duration": 0.5,
        "velocity": 80
      },
      {
        "pitch": 61,
        "duration": 1.75,
        "velocity": 62
      },
      {
        "pitch": 57,
        "duration": 2.0,
        "velocity": 56
      },
      {
        "pitch": 73,
        "duration": 1.75,
        "velocity": 31
      },
      {
        "pitch": 64,
        "duration": 2.0,
        "velocity": 80
      },
      {
        "pitch": 61,
        "duration": 1.5,
        "velocity": 95
      },
      {
        "pitch": 33,
        "duration": 1.0,
        "velocity": 100
      },
      {
        "pitch": 64,
        "duration": 0.75,
        "velocity": 85
      }
    ],
    "key": "D major",
    "tempo": 120,
    "name": "129820fe71b310853a333b846db2b951_1.mid_seg56",
    "avg_interval": 14.0,
    "span": 40,
    "note_density": 0.0,
    "register": "middle",
    "complexity": 0.6666666666666666
  },
  {
    "events": [
      {
        "pitch": 64,
        "duration": 1.0,
        "velocity": 82
      },
      {
        "pitch": 69,
        "duration": 0.5,
        "velocity": 71
      },
      {
        "pitch": 40,
        "duration": 2.0,
        "velocity": 115
      },
      {
        "pitch": 45,
        "duration": 3.0,
        "velocity": 107
      },
      {
        "pitch": 69,
        "duration": 0.16666666666666666,
        "velocity": 71
      },
      {
        "pitch": 64,
        "duration": 1.0,
        "velocity": 80
      },
      {
        "pitch": 52,
        "duration": 2.5,
        "velocity": 70
      },
      {
        "pitch": 57,
        "duration": 2.0,
        "velocity": 66
      },
      {
        "pitch": 61,
        "duration": 1.5,
        "velocity": 103
      },
      {
        "pitch": 33,
        "duration": 1.0,
        "velocity": 115
      },
      {
        "pitch": 64,
        "duration": 1.0,
        "velocity": 98
      },
      {
        "pitch": 69,
        "duration": 0.5,
        "velocity": 77
      },
      {
        "pitch": 35,
        "duration": 2.0,
        "velocity": 115
      },
      {
        "pitch": 47,
        "duration": 2.75,
        "velocity": 75
      },
      {
        "pitch": 59,
        "duration": 3.0,
        "velocity": 80
      },
      {
        "pitch": 54,
        "duration": 2.3333333333333335,
        "velocity": 63
      }
    ],
    "key": "D major",
    "tempo": 120,
    "name": "129820fe71b310853a333b846db2b951_1.mid_seg57",
    "avg_interval": 14.4,
    "span": 36,
    "note_density": 0.0,
    "register": "middle",
    "complexity": 0.6666666666666666
  },
  {
    "events": [
      {
        "pitch": 62,
        "duration": 2.0,
        "velocity": 59
      },
      {
        "pitch": 59,
        "duration": 2.0,
        "velocity": 56
      },
      {
        "pitch": 62,
        "duration": 1.5,
        "velocity": 95
      },
      {
        "pitch": 35,
        "duration": 1.0,
        "velocity": 100
      },
      {
        "pitch": 66,
        "duration": 1.0,
        "velocity": 66
      },
      {
        "pitch": 66,
        "duration": 1.0,
        "velocity": 82
      },
      {
        "pitch": 71,
        "duration": 0.5,
        "velocity": 71
      },
      {
        "pitch": 30,
        "duration": 2.0,
        "velocity": 115
      },
      {
        "pitch": 47,
        "duration": 3.0,
        "velocity": 107
      },
      {
        "pitch": 71,
        "duration": 0.16666666666666666,
        "velocity": 71
      },
      {
        "pitch": 59,
        "duration": 3.0,
        "velocity": 80
      },
      {
        "pitch": 71,
        "duration": 0.5,
        "velocity": 80
      },
      {
        "pitch": 54,
        "duration": 2.5,
        "velocity": 70
      },
      {
        "pitch": 71,
        "duration": 0.5,
        "velocity": 80
      },
      {
        "pitch": 62,
        "duration": 1.75,
        "velocity": 76
      },
      {
        "pitch": 59,
        "duration": 2.0,
        "velocity": 66
      }
    ],
    "key": "D major",
    "tempo": 120,
    "name": "129820fe71b310853a333b846db2b951_1.mid_seg58",
    "avg_interval": 14.733333333333333,
    "span": 41,
    "note_density": 0.0,
    "register": "middle",
    "complexity": 0.6666666666666666
  },
  {
    "events": [
      {
        "pitch": 71,
        "duration": 0.25,
        "velocity": 80
      },
      {
        "pitch": 62,
        "duration": 1.5,
        "velocity": 103
      },
      {
        "pitch": 35,
        "duration": 1.0,
        "velocity": 115
      },
      {
        "pitch": 66,
        "duration": 0.75,
        "velocity": 55
      },
      {
        "pitch": 66,
        "duration": 1.0,
        "velocity": 98
      },
      {
        "pitch": 73,
        "duration": 1.0,
        "velocity": 80
      },
      {
        "pitch": 71,
        "duration": 0.5,
        "velocity": 77
      },
      {
        "pitch": 33,
        "duration": 2.0,
        "velocity": 115
      },
      {
        "pitch": 45,
        "duration": 2.75,
        "velocity": 80
      },
      {
        "pitch": 69,
        "duration": 0.5,
        "velocity": 80
      },
      {
        "pitch": 52,
        "duration": 2.3333333333333335,
        "velocity": 76
      },
      {
        "pitch": 66,
        "duration": 0.5,
        "velocity": 80
      },
      {
        "pitch": 61,
        "duration": 2.0,
        "velocity": 59
      },
      {
        "pitch": 57,
        "duration": 2.0,
        "velocity": 61
      },
      {
        "pitch": 73,
        "duration": 2.0,
        "velocity": 51
      },
      {
        "pitch": 64,
        "duration": 2.0,
        "velocity": 80
      }
    ],
    "key": "D major",
    "tempo": 120,
    "name": "129820fe71b310853a333b846db2b951_1.mid_seg59",
    "avg_interval": 14.333333333333334,
    "span": 40,
    "note_density": 0.0,
    "register": "middle",
    "complexity": 0.6666666666666666
  },
  {
    "events": [
      {
        "pitch": 61,
        "duration": 0.5,
        "velocity": 102
      },
      {
        "pitch": 33,
        "duration": 1.0,
        "velocity": 100
      },
      {
        "pitch": 64,
        "duration": 1.0,
        "velocity": 66
      },
      {
        "pitch": 69,
        "duration": 1.0,
        "velocity": 47
      },
      {
        "pitch": 76,
        "duration": 1.0,
        "velocity": 34
      },
      {
        "pitch": 81,
        "duration": 1.0,
        "velocity": 27
      },
      {
        "pitch": 64,
        "duration": 0.5,
        "velocity": 86
      },
      {
        "pitch": 40,
        "duration": 2.0,
        "velocity": 115
      },
      {
        "pitch": 45,
        "duration": 3.0,
        "velocity": 95
      },
      {
        "pitch": 81,
        "duration": 0.5,
        "velocity": 27
      },
      {
        "pitch": 64,
        "duration": 1.0,
        "velocity": 80
      },
      {
        "pitch": 52,
        "duration": 2.5,
        "velocity": 93
      },
      {
        "pitch": 61,
        "duration": 1.75,
        "velocity": 76
      },
      {
        "pitch": 57,
        "duration": 2.0,
        "velocity": 61
      },
      {
        "pitch": 73,
        "duration": 2.0,
        "velocity": 60
      },
      {
        "pitch": 61,
        "duration": 1.5,
        "velocity": 107
      }
    ],
    "key": "D major",
    "tempo": 120,
    "name": "129820fe71b310853a333b846db2b951_1.mid_seg60",
    "avg_interval": 15.2,
    "span": 48,
    "note_density": 0.0,
    "register": "middle",
    "complexity": 0.6666666666666666
  },
  {
    "events": [
      {
        "pitch": 33,
        "duration": 1.0,
        "velocity": 115
      },
      {
        "pitch": 64,
        "duration": 0.75,
        "velocity": 55
      },
      {
        "pitch": 69,
        "duration": 1.0,
        "velocity": 57
      },
      {
        "pitch": 64,
        "duration": 0.5,
        "velocity": 96
      },
      {
        "pitch": 38,
        "duration": 2.0,
        "velocity": 115
      },
      {
        "pitch": 50,
        "duration": 2.75,
        "velocity": 75
      },
      {
        "pitch": 62,
        "duration": 3.0,
        "velocity": 80
      },
      {
        "pitch": 62,
        "duration": 3.0,
        "velocity": 80
      },
      {
        "pitch": 57,
        "duration": 2.3333333333333335,
        "velocity": 63
      },
      {
        "pitch": 66,
        "duration": 2.0,
        "velocity": 59
      },
      {
        "pitch": 62,
        "duration": 2.0,
        "velocity": 56
      },
      {
        "pitch": 66,
        "duration": 1.5,
        "velocity": 95
      },
      {
        "pitch": 38,
        "duration": 1.0,
        "velocity": 100
      },
      {
        "pitch": 69,
        "duration": 1.0,
        "velocity": 66
      },
      {
        "pitch": 69,
        "duration": 1.0,
        "velocity": 82
      },
      {
        "pitch": 74,
        "duration": 0.5,
        "velocity": 71
      }
    ],
    "key": "D major",
    "tempo": 120,
    "name": "129820fe71b310853a333b846db2b951_1.mid_seg61",
    "avg_interval": 11.8,
    "span": 41,
    "note_density": 0.0,
    "register": "middle",
    "complexity": 0.6611111111111111
  },
  {
    "events": [
      {
        "pitch": 37,
        "duration": 2.0,
        "velocity": 115
      },
      {
        "pitch": 49,
        "duration": 2.75,
        "velocity": 80
      },
      {
        "pitch": 62,
        "duration": 3.0,
        "velocity": 80
      },
      {
        "pitch": 57,
        "duration": 2.3333333333333335,
        "velocity": 76
      },
      {
        "pitch": 66,
        "duration": 2.0,
        "velocity": 59
      },
      {
        "pitch": 62,
        "duration": 2.0,
        "velocity": 61
      },
      {
        "pitch": 66,
        "duration": 0.5,
        "velocity": 102
      },
      {
        "pitch": 37,
        "duration": 1.0,
        "velocity": 100
      },
      {
        "pitch": 69,
        "duration": 1.0,
        "velocity": 66
      },
      {
        "pitch": 74,
        "duration": 1.0,
        "velocity": 47
      },
      {
        "pitch": 69,
        "duration": 0.5,
        "velocity": 86
      },
      {
        "pitch": 35,
        "duration": 1.0,
        "velocity": 115
      },
      {
        "pitch": 47,
        "duration": 2.75,
        "velocity": 80
      },
      {
        "pitch": 57,
        "duration": 2.3333333333333335,
        "velocity": 76
      },
      {
        "pitch": 45,
        "duration": 1.0,
        "velocity": 100
      },
      {
        "pitch": 66,
        "duration": 2.0,
        "velocity": 59
      }
    ],
    "key": "D major",
    "tempo": 120,
    "name": "129820fe71b310853a333b846db2b951_1.mid_seg62",
    "avg_interval": 13.8,
    "span": 39,
    "note_density": 0.0,
    "register": "middle",
    "complexity": 0.6666666666666666
  },
  {
    "events": [
      {
        "pitch": 64,
        "duration": 2.0,
        "velocity": 61
      },
      {
        "pitch": 88,
        "duration": 2.0,
        "velocity": 43
      },
      {
        "pitch": 66,
        "duration": 0.5,
        "velocity": 102
      },
      {
        "pitch": 33,
        "duration": 1.0,
        "velocity": 100
      },
      {
        "pitch": 69,
        "duration": 1.0,
        "velocity": 66
      },
      {
        "pitch": 76,
        "duration": 1.0,
        "velocity": 47
      },
      {
        "pitch": 69,
        "duration": 0.5,
        "velocity": 86
      },
      {
        "pitch": 38,
        "duration": 1.0,
        "velocity": 115
      },
      {
        "pitch": 50,
        "duration": 2.75,
        "velocity": 75
      },
      {
        "pitch": 57,
        "duration": 2.3333333333333335,
        "velocity": 63
      },
      {
        "pitch": 45,
        "duration": 1.0,
        "velocity": 100
      },
      {
        "pitch": 62,
        "duration": 2.0,
        "velocity": 56
      },
      {
        "pitch": 86,
        "duration": 2.0,
        "velocity": 43
      },
      {
        "pitch": 66,
        "duration": 1.5,
        "velocity": 95
      },
      {
        "pitch": 40,
        "duration": 1.0,
        "velocity": 115
      },
      {
        "pitch": 69,
        "duration": 1.0,
        "velocity": 82
      }
    ],
    "key": "D major",
    "tempo": 120,
    "name": "129820fe71b310853a333b846db2b951_1.mid_seg63",
    "avg_interval": 20.466666666666665,
    "span": 55,
    "note_density": 0.0,
    "register": "middle",
    "complexity": 0.6666666666666666
  },
  {
    "events": [
      {
        "pitch": 74,
        "duration": 0.5,
        "velocity": 71
      },
      {
        "pitch": 38,
        "duration": 3.0,
        "velocity": 115
      },
      {
        "pitch": 50,
        "duration": 2.75,
        "velocity": 80
      },
      {
        "pitch": 57,
        "duration": 2.3333333333333335,
        "velocity": 76
      },
      {
        "pitch": 66,
        "duration": 2.0,
        "velocity": 59
      },
      {
        "pitch": 62,
        "duration": 2.0,
        "velocity": 61
      },
      {
        "pitch": 66,
        "duration": 0.5,
        "velocity": 102
      },
      {
        "pitch": 69,
        "duration": 1.0,
        "velocity": 66
      },
      {
        "pitch": 74,
        "duration": 1.0,
        "velocity": 47
      },
      {
        "pitch": 57,
        "duration": 1.0,
        "velocity": 80
      },
      {
        "pitch": 69,
        "duration": 0.5,
        "velocity": 86
      },
      {
        "pitch": 37,
        "duration": 3.0,
        "velocity": 115
      },
      {
        "pitch": 49,
        "duration": 2.75,
        "velocity": 80
      },
      {
        "pitch": 66,
        "duration": 0.5,
        "velocity": 80
      },
      {
        "pitch": 57,
        "duration": 2.3333333333333335,
        "velocity": 76
      },
      {
        "pitch": 64,
        "duration": 0.5,
        "velocity": 80
      }
    ],
    "key": "D major",
    "tempo": 120,
    "name": "129820fe71b310853a333b846db2b951_1.mid_seg64",
    "avg_interval": 12.4,
    "span": 37,
    "note_density": 0.0,
    "register": "middle",
    "complexity": 0.6666666666666666
  },
  {
    "events": [
      {
        "pitch": 66,
        "duration": 2.0,
        "velocity": 59
      },
      {
        "pitch": 62,
        "duration": 2.0,
        "velocity": 61
      },
      {
        "pitch": 66,
        "duration": 1.0,
        "velocity": 80
      },
      {
        "pitch": 66,
        "duration": 0.5,
        "velocity": 102
      },
      {
        "pitch": 69,
        "duration": 1.0,
        "velocity": 66
      },
      {
        "pitch": 74,
        "duration": 1.0,
        "velocity": 47
      },
      {
        "pitch": 64,
        "duration": 1.0,
        "velocity": 80
      },
      {
        "pitch": 69,
        "duration": 0.5,
        "velocity": 86
      },
      {
        "pitch": 35,
        "duration": 3.0,
        "velocity": 115
      },
      {
        "pitch": 47,
        "duration": 2.75,
        "velocity": 67
      },
      {
        "pitch": 66,
        "duration": 0.5,
        "velocity": 80
      },
      {
        "pitch": 57,
        "duration": 1.75,
        "velocity": 75
      },
      {
        "pitch": 64,
        "duration": 0.5,
        "velocity": 80
      },
      {
        "pitch": 66,
        "duration": 2.0,
        "velocity": 59
      },
      {
        "pitch": 62,
        "duration": 0.6666666666666666,
        "velocity": 57
      },
      {
        "pitch": 66,
        "duration": 1.0,
        "velocity": 80
      }
    ],
    "key": "D major",
    "tempo": 120,
    "name": "129820fe71b310853a333b846db2b951_1.mid_seg65",
    "avg_interval": 8.133333333333333,
    "span": 39,
    "note_density": 0.0,
    "register": "middle",
    "complexity": 0.5592592592592592
  },
  {
    "events": [
      {
        "pitch": 66,
        "duration": 1.5,
        "velocity": 72
      },
      {
        "pitch": 69,
        "duration": 1.0,
        "velocity": 66
      },
      {
        "pitch": 62,
        "duration": 1.0,
        "velocity": 54
      },
      {
        "pitch": 64,
        "duration": 1.0,
        "velocity": 80
      },
      {
        "pitch": 57,
        "duration": 0.5,
        "velocity": 81
      },
      {
        "pitch": 38,
        "duration": 3.0,
        "velocity": 115
      },
      {
        "pitch": 50,
        "duration": 2.75,
        "velocity": 75
      },
      {
        "pitch": 66,
        "duration": 0.5,
        "velocity": 80
      },
      {
        "pitch": 57,
        "duration": 2.3333333333333335,
        "velocity": 63
      },
      {
        "pitch": 64,
        "duration": 0.5,
        "velocity": 80
      },
      {
        "pitch": 66,
        "duration": 2.0,
        "velocity": 59
      },
      {
        "pitch": 60,
        "duration": 2.0,
        "velocity": 56
      },
      {
        "pitch": 62,
        "duration": 2.0,
        "velocity": 80
      },
      {
        "pitch": 66,
        "duration": 1.5,
        "velocity": 95
      },
      {
        "pitch": 69,
        "duration": 1.0,
        "velocity": 66
      },
      {
        "pitch": 69,
        "duration": 1.0,
        "velocity": 82
      }
    ],
    "key": "D major",
    "tempo": 120,
    "name": "129820fe71b310853a333b846db2b951_1.mid_seg66",
    "avg_interval": 6.6,
    "span": 31,
    "note_density": 0.0,
    "register": "middle",
    "complexity": 0.5166666666666666
  },
  {
    "events": [
      {
        "pitch": 72,
        "duration": 0.5,
        "velocity": 71
      },
      {
        "pitch": 43,
        "duration": 3.0,
        "velocity": 115
      },
      {
        "pitch": 43,
        "duration": 2.75,
        "velocity": 67
      },
      {
        "pitch": 62,
        "duration": 2.0,
        "velocity": 80
      },
      {
        "pitch": 50,
        "duration": 1.75,
        "velocity": 75
      },
      {
        "pitch": 59,
        "duration": 2.0,
        "velocity": 59
      },
      {
        "pitch": 55,
        "duration": 0.6666666666666666,
        "velocity": 57
      },
      {
        "pitch": 59,
        "duration": 1.5,
        "velocity": 72
      },
      {
        "pitch": 62,
        "duration": 1.0,
        "velocity": 66
      },
      {
        "pitch": 55,
        "duration": 1.0,
        "velocity": 54
      },
      {
        "pitch": 50,
        "duration": 0.5,
        "velocity": 81
      },
      {
        "pitch": 38,
        "duration": 3.0,
        "velocity": 115
      },
      {
        "pitch": 43,
        "duration": 3.0,
        "velocity": 107
      },
      {
        "pitch": 59,
        "duration": 1.25,
        "velocity": 72
      },
      {
        "pitch": 55,
        "duration": 1.0,
        "velocity": 54
      },
      {
        "pitch": 50,
        "duration": 0.25,
        "velocity": 81
      }
    ],
    "key": "D major",
    "tempo": 120,
    "name": "129820fe71b310853a333b846db2b951_1.mid_seg67",
    "avg_interval": 8.933333333333334,
    "span": 34,
    "note_density": 0.0,
    "register": "bass",
    "complexity": 0.5814814814814815
  },
  {
    "events": [
      {
        "pitch": 50,
        "duration": 1.75,
        "velocity": 98
      },
      {
        "pitch": 59,
        "duration": 1.75,
        "velocity": 76
      },
      {
        "pitch": 55,
        "duration": 0.6666666666666666,
        "velocity": 77
      },
      {
        "pitch": 59,
        "duration": 1.5,
        "velocity": 92
      },
      {
        "pitch": 62,
        "duration": 0.75,
        "velocity": 55
      },
      {
        "pitch": 55,
        "duration": 1.0,
        "velocity": 83
      },
      {
        "pitch": 57,
        "duration": 1.0,
        "velocity": 80
      },
      {
        "pitch": 50,
        "duration": 0.5,
        "velocity": 98
      },
      {
        "pitch": 33,
        "duration": 3.0,
        "velocity": 115
      },
      {
        "pitch": 45,
        "duration": 2.75,
        "velocity": 80
      },
      {
        "pitch": 71,
        "duration": 1.0,
        "velocity": 80
      },
      {
        "pitch": 52,
        "duration": 2.3333333333333335,
        "velocity": 76
      },
      {
        "pitch": 61,
        "duration": 1.75,
        "velocity": 62
      },
      {
        "pitch": 55,
        "duration": 2.0,
        "velocity": 61
      },
      {
        "pitch": 69,
        "duration": 2.0,
        "velocity": 80
      },
      {
        "pitch": 61,
        "duration": 0.5,
        "velocity": 102
      }
    ],
    "key": "D major",
    "tempo": 120,
    "name": "129820fe71b310853a333b846db2b951_1.mid_seg68",
    "avg_interval": 9.8,
    "span": 38,
    "note_density": 0.0,
    "register": "middle",
    "complexity": 0.6055555555555556
  },
  {
    "events": [
      {
        "pitch": 64,
        "duration": 0.75,
        "velocity": 85
      },
      {
        "pitch": 67,
        "duration": 1.0,
        "velocity": 47
      },
      {
        "pitch": 64,
        "duration": 0.5,
        "velocity": 86
      },
      {
        "pitch": 40,
        "duration": 2.0,
        "velocity": 115
      },
      {
        "pitch": 45,
        "duration": 3.0,
        "velocity": 95
      },
      {
        "pitch": 69,
        "duration": 3.0,
        "velocity": 80
      },
      {
        "pitch": 52,
        "duration": 2.5,
        "velocity": 93
      },
      {
        "pitch": 55,
        "duration": 2.0,
        "velocity": 61
      },
      {
        "pitch": 61,
        "duration": 1.5,
        "velocity": 107
      },
      {
        "pitch": 28,
        "duration": 1.0,
        "velocity": 100
      },
      {
        "pitch": 67,
        "duration": 1.0,
        "velocity": 57
      },
      {
        "pitch": 64,
        "duration": 0.5,
        "velocity": 96
      },
      {
        "pitch": 38,
        "duration": 3.0,
        "velocity": 115
      },
      {
        "pitch": 50,
        "duration": 2.75,
        "velocity": 67
      },
      {
        "pitch": 69,
        "duration": 1.0,
        "velocity": 80
      },
      {
        "pitch": 57,
        "duration": 1.75,
        "velocity": 75
      }
    ],
    "key": "D major",
    "tempo": 120,
    "name": "129820fe71b310853a333b846db2b951_1.mid_seg69",
    "avg_interval": 15.266666666666667,
    "span": 41,
    "note_density": 0.0,
    "register": "middle",
    "complexity": 0.6666666666666666
  },
  {
    "events": [
      {
        "pitch": 66,
        "duration": 2.0,
        "velocity": 59
      },
      {
        "pitch": 62,
        "duration": 0.6666666666666666,
        "velocity": 57
      },
      {
        "pitch": 66,
        "duration": 1.5,
        "velocity": 72
      },
      {
        "pitch": 69,
        "duration": 1.0,
        "velocity": 66
      },
      {
        "pitch": 62,
        "duration": 1.0,
        "velocity": 54
      },
      {
        "pitch": 57,
        "duration": 1.0,
        "velocity": 80
      },
      {
        "pitch": 57,
        "duration": 0.5,
        "velocity": 81
      },
      {
        "pitch": 37,
        "duration": 3.0,
        "velocity": 115
      },
      {
        "pitch": 49,
        "duration": 2.75,
        "velocity": 75
      },
      {
        "pitch": 66,
        "duration": 0.5,
        "velocity": 80
      },
      {
        "pitch": 57,
        "duration": 2.3333333333333335,
        "velocity": 63
      },
      {
        "pitch": 64,
        "duration": 0.5,
        "velocity": 80
      },
      {
        "pitch": 66,
        "duration": 2.0,
        "velocity": 59
      },
      {
        "pitch": 62,
        "duration": 2.0,
        "velocity": 56
      },
      {
        "pitch": 66,
        "duration": 1.0,
        "velocity": 80
      },
      {
        "pitch": 66,
        "duration": 1.5,
        "velocity": 95
      }
    ],
    "key": "D major",
    "tempo": 120,
    "name": "129820fe71b310853a333b846db2b951_1.mid_seg70",
    "avg_interval": 6.533333333333333,
    "span": 32,
    "note_density": 0.0,
    "register": "middle",
    "complexity": 0.5148148148148147
  },
  {
    "events": [
      {
        "pitch": 69,
        "duration": 1.0,
        "velocity": 66
      },
      {
        "pitch": 69,
        "duration": 1.0,
        "velocity": 82
      },
      {
        "pitch": 64,
        "duration": 1.0,
        "velocity": 80
      },
      {
        "pitch": 74,
        "duration": 0.5,
        "velocity": 71
      },
      {
        "pitch": 35,
        "duration": 3.0,
        "velocity": 115
      },
      {
        "pitch": 47,
        "duration": 2.75,
        "velocity": 80
      },
      {
        "pitch": 66,
        "duration": 0.5,
        "velocity": 80
      },
      {
        "pitch": 57,
        "duration": 2.3333333333333335,
        "velocity": 76
      },
      {
        "pitch": 64,
        "duration": 0.5,
        "velocity": 80
      },
      {
        "pitch": 66,
        "duration": 2.0,
        "velocity": 59
      },
      {
        "pitch": 62,
        "duration": 2.0,
        "velocity": 61
      },
      {
        "pitch": 66,
        "duration": 1.0,
        "velocity": 80
      },
      {
        "pitch": 66,
        "duration": 0.5,
        "velocity": 102
      },
      {
        "pitch": 69,
        "duration": 1.0,
        "velocity": 66
      },
      {
        "pitch": 74,
        "duration": 1.0,
        "velocity": 47
      },
      {
        "pitch": 64,
        "duration": 1.0,
        "velocity": 80
      }
    ],
    "key": "D major",
    "tempo": 120,
    "name": "129820fe71b310853a333b846db2b951_1.mid_seg71",
    "avg_interval": 8.6,
    "span": 39,
    "note_density": 0.0,
    "register": "middle",
    "complexity": 0.5722222222222223
  },
  {
    "events": [
      {
        "pitch": 69,
        "duration": 0.5,
        "velocity": 86
      },
      {
        "pitch": 38,
        "duration": 3.0,
        "velocity": 115
      },
      {
        "pitch": 50,
        "duration": 2.75,
        "velocity": 75
      },
      {
        "pitch": 66,
        "duration": 0.5,
        "velocity": 80
      },
      {
        "pitch": 57,
        "duration": 2.3333333333333335,
        "velocity": 63
      },
      {
        "pitch": 64,
        "duration": 0.5,
        "velocity": 80
      },
      {
        "pitch": 66,
        "duration": 2.0,
        "velocity": 59
      },
      {
        "pitch": 60,
        "duration": 2.0,
        "velocity": 56
      },
      {
        "pitch": 62,
        "duration": 2.0,
        "velocity": 80
      },
      {
        "pitch": 66,
        "duration": 1.5,
        "velocity": 95
      },
      {
        "pitch": 69,
        "duration": 1.0,
        "velocity": 66
      },
      {
        "pitch": 69,
        "duration": 1.0,
        "velocity": 82
      },
      {
        "pitch": 72,
        "duration": 0.5,
        "velocity": 71
      },
      {
        "pitch": 43,
        "duration": 3.0,
        "velocity": 115
      },
      {
        "pitch": 43,
        "duration": 2.75,
        "velocity": 75
      },
      {
        "pitch": 62,
        "duration": 2.0,
        "velocity": 80
      }
    ],
    "key": "D major",
    "tempo": 120,
    "name": "129820fe71b310853a333b846db2b951_1.mid_seg72",
    "avg_interval": 9.533333333333333,
    "span": 34,
    "note_density": 0.0,
    "register": "middle",
    "complexity": 0.5981481481481481
  },
  {
    "events": [
      {
        "pitch": 50,
        "duration": 2.3333333333333335,
        "velocity": 63
      },
      {
        "pitch": 59,
        "duration": 2.0,
        "velocity": 59
      },
      {
        "pitch": 55,
        "duration": 2.0,
        "velocity": 56
      },
      {
        "pitch": 59,
        "duration": 1.5,
        "velocity": 95
      },
      {
        "pitch": 62,
        "duration": 1.0,
        "velocity": 66
      },
      {
        "pitch": 62,
        "duration": 1.0,
        "velocity": 82
      },
      {
        "pitch": 67,
        "duration": 0.5,
        "velocity": 71
      },
      {
        "pitch": 38,
        "duration": 3.0,
        "velocity": 115
      },
      {
        "pitch": 43,
        "duration": 3.0,
        "velocity": 107
      },
      {
        "pitch": 67,
        "duration": 0.16666666666666666,
        "velocity": 71
      },
      {
        "pitch": 50,
        "duration": 2.5,
        "velocity": 70
      },
      {
        "pitch": 59,
        "duration": 1.75,
        "velocity": 76
      },
      {
        "pitch": 55,
        "duration": 2.0,
        "velocity": 66
      },
      {
        "pitch": 59,
        "duration": 1.5,
        "velocity": 103
      },
      {
        "pitch": 62,
        "duration": 0.75,
        "velocity": 55
      },
      {
        "pitch": 62,
        "duration": 1.0,
        "velocity": 98
      }
    ],
    "key": "D major",
    "tempo": 120,
    "name": "129820fe71b310853a333b846db2b951_1.mid_seg73",
    "avg_interval": 8.0,
    "span": 29,
    "note_density": 0.0,
    "register": "middle",
    "complexity": 0.5555555555555555
  },
  {
    "events": [
      {
        "pitch": 57,
        "duration": 1.0,
        "velocity": 80
      },
      {
        "pitch": 67,
        "duration": 0.5,
        "velocity": 77
      },
      {
        "pitch": 33,
        "duration": 3.0,
        "velocity": 115
      },
      {
        "pitch": 45,
        "duration": 2.75,
        "velocity": 67
      },
      {
        "pitch": 71,
        "duration": 1.0,
        "velocity": 80
      },
      {
        "pitch": 52,
        "duration": 1.75,
        "velocity": 75
      },
      {
        "pitch": 61,
        "duration": 1.75,
        "velocity": 62
      },
      {
        "pitch": 55,
        "duration": 0.6666666666666666,
        "velocity": 57
      },
      {
        "pitch": 69,
        "duration": 2.0,
        "velocity": 80
      },
      {
        "pitch": 61,
        "duration": 1.5,
        "velocity": 72
      },
      {
        "pitch": 64,
        "duration": 0.75,
        "velocity": 85
      },
      {
        "pitch": 55,
        "duration": 1.0,
        "velocity": 54
      },
      {
        "pitch": 52,
        "duration": 0.5,
        "velocity": 81
      },
      {
        "pitch": 40,
        "duration": 2.0,
        "velocity": 115
      },
      {
        "pitch": 45,
        "duration": 3.0,
        "velocity": 107
      },
      {
        "pitch": 61,
        "duration": 1.25,
        "velocity": 72
      }
    ],
    "key": "D major",
    "tempo": 120,
    "name": "129820fe71b310853a333b846db2b951_1.mid_seg74",
    "avg_interval": 12.4,
    "span": 38,
    "note_density": 0.0,
    "register": "middle",
    "complexity": 0.6666666666666666
  },
  {
    "events": [
      {
        "pitch": 55,
        "duration": 1.0,
        "velocity": 54
      },
      {
        "pitch": 52,
        "duration": 0.25,
        "velocity": 81
      },
      {
        "pitch": 69,
        "duration": 3.0,
        "velocity": 80
      },
      {
        "pitch": 52,
        "duration": 1.75,
        "velocity": 98
      },
      {
        "pitch": 55,
        "duration": 0.6666666666666666,
        "velocity": 77
      },
      {
        "pitch": 61,
        "duration": 1.5,
        "velocity": 92
      },
      {
        "pitch": 33,
        "duration": 1.0,
        "velocity": 100
      },
      {
        "pitch": 55,
        "duration": 1.0,
        "velocity": 83
      },
      {
        "pitch": 52,
        "duration": 0.5,
        "velocity": 98
      },
      {
        "pitch": 43,
        "duration": 3.0,
        "velocity": 115
      },
      {
        "pitch": 43,
        "duration": 2.75,
        "velocity": 80
      },
      {
        "pitch": 69,
        "duration": 1.0,
        "velocity": 80
      },
      {
        "pitch": 50,
        "duration": 2.3333333333333335,
        "velocity": 76
      },
      {
        "pitch": 59,
        "duration": 2.0,
        "velocity": 59
      },
      {
        "pitch": 55,
        "duration": 2.0,
        "velocity": 61
      },
      {
        "pitch": 59,
        "duration": 0.5,
        "velocity": 102
      }
    ],
    "key": "D major",
    "tempo": 120,
    "name": "129820fe71b310853a333b846db2b951_1.mid_seg75",
    "avg_interval": 11.333333333333334,
    "span": 36,
    "note_density": 0.0,
    "register": "bass",
    "complexity": 0.6481481481481483
  },
  {
    "events": [
      {
        "pitch": 62,
        "duration": 1.0,
        "velocity": 66
      },
      {
        "pitch": 67,
        "duration": 1.0,
        "velocity": 47
      },
      {
        "pitch": 62,
        "duration": 0.5,
        "velocity": 86
      },
      {
        "pitch": 38,
        "duration": 3.0,
        "velocity": 115
      },
      {
        "pitch": 43,
        "duration": 3.0,
        "velocity": 95
      },
      {
        "pitch": 50,
        "duration": 2.5,
        "velocity": 93
      },
      {
        "pitch": 59,
        "duration": 1.75,
        "velocity": 76
      },
      {
        "pitch": 55,
        "duration": 2.0,
        "velocity": 61
      },
      {
        "pitch": 59,
        "duration": 1.5,
        "velocity": 107
      },
      {
        "pitch": 62,
        "duration": 0.75,
        "velocity": 55
      },
      {
        "pitch": 67,
        "duration": 1.0,
        "velocity": 57
      },
      {
        "pitch": 57,
        "duration": 1.0,
        "velocity": 80
      },
      {
        "pitch": 62,
        "duration": 0.5,
        "velocity": 96
      },
      {
        "pitch": 38,
        "duration": 3.0,
        "velocity": 115
      },
      {
        "pitch": 50,
        "duration": 2.75,
        "velocity": 75
      },
      {
        "pitch": 71,
        "duration": 1.0,
        "velocity": 80
      }
    ],
    "key": "D major",
    "tempo": 120,
    "name": "129820fe71b310853a333b846db2b951_1.mid_seg76",
    "avg_interval": 9.533333333333333,
    "span": 33,
    "note_density": 0.0,
    "register": "middle",
    "complexity": 0.5981481481481481
  },
  {
    "events": [
      {
        "pitch": 57,
        "duration": 2.3333333333333335,
        "velocity": 63
      },
      {
        "pitch": 66,
        "duration": 2.0,
        "velocity": 59
      },
      {
        "pitch": 62,
        "duration": 2.0,
        "velocity": 56
      },
      {
        "pitch": 73,
        "duration": 2.0,
        "velocity": 80
      },
      {
        "pitch": 66,
        "duration": 1.5,
        "velocity": 95
      },
      {
        "pitch": 69,
        "duration": 1.0,
        "velocity": 66
      },
      {
        "pitch": 69,
        "duration": 1.0,
        "velocity": 82
      },
      {
        "pitch": 74,
        "duration": 0.5,
        "velocity": 71
      },
      {
        "pitch": 42,
        "duration": 3.0,
        "velocity": 115
      },
      {
        "pitch": 42,
        "duration": 2.75,
        "velocity": 80
      },
      {
        "pitch": 69,
        "duration": 3.0,
        "velocity": 80
      },
      {
        "pitch": 49,
        "duration": 2.3333333333333335,
        "velocity": 76
      },
      {
        "pitch": 58,
        "duration": 2.0,
        "velocity": 59
      },
      {
        "pitch": 54,
        "duration": 2.0,
        "velocity": 61
      },
      {
        "pitch": 58,
        "duration": 0.5,
        "velocity": 102
      },
      {
        "pitch": 61,
        "duration": 1.0,
        "velocity": 66
      }
    ],
    "key": "D major",
    "tempo": 120,
    "name": "129820fe71b310853a333b846db2b951_1.mid_seg77",
    "avg_interval": 9.2,
    "span": 32,
    "note_density": 0.0,
    "register": "middle",
    "complexity": 0.5888888888888889
  },
  {
    "events": [
      {
        "pitch": 66,
        "duration": 1.0,
        "velocity": 47
      },
      {
        "pitch": 61,
        "duration": 0.5,
        "velocity": 86
      },
      {
        "pitch": 35,
        "duration": 3.0,
        "velocity": 115
      },
      {
        "pitch": 47,
        "duration": 2.75,
        "velocity": 75
      },
      {
        "pitch": 66,
        "duration": 2.0,
        "velocity": 80
      },
      {
        "pitch": 54,
        "duration": 2.3333333333333335,
        "velocity": 63
      },
      {
        "pitch": 62,
        "duration": 2.0,
        "velocity": 59
      },
      {
        "pitch": 59,
        "duration": 2.0,
        "velocity": 56
      },
      {
        "pitch": 62,
        "duration": 1.5,
        "velocity": 95
      },
      {
        "pitch": 66,
        "duration": 1.0,
        "velocity": 66
      },
      {
        "pitch": 66,
        "duration": 1.0,
        "velocity": 82
      },
      {
        "pitch": 64,
        "duration": 1.0,
        "velocity": 80
      },
      {
        "pitch": 71,
        "duration": 0.5,
        "velocity": 71
      },
      {
        "pitch": 33,
        "duration": 3.0,
        "velocity": 115
      },
      {
        "pitch": 45,
        "duration": 2.75,
        "velocity": 80
      },
      {
        "pitch": 62,
        "duration": 3.0,
        "velocity": 80
      }
    ],
    "key": "D major",
    "tempo": 120,
    "name": "129820fe71b310853a333b846db2b951_1.mid_seg78",
    "avg_interval": 11.2,
    "span": 38,
    "note_density": 0.0,
    "register": "middle",
    "complexity": 0.6444444444444444
  },
  {
    "events": [
      {
        "pitch": 54,
        "duration": 2.3333333333333335,
        "velocity": 76
      },
      {
        "pitch": 62,
        "duration": 2.0,
        "velocity": 59
      },
      {
        "pitch": 59,
        "duration": 2.0,
        "velocity": 61
      },
      {
        "pitch": 62,
        "duration": 0.5,
        "velocity": 102
      },
      {
        "pitch": 66,
        "duration": 1.0,
        "velocity": 66
      },
      {
        "pitch": 71,
        "duration": 1.0,
        "velocity": 47
      },
      {
        "pitch": 66,
        "duration": 0.5,
        "velocity": 86
      },
      {
        "pitch": 40,
        "duration": 3.0,
        "velocity": 115
      },
      {
        "pitch": 52,
        "duration": 2.75,
        "velocity": 75
      },
      {
        "pitch": 62,
        "duration": 3.0,
        "velocity": 80
      },
      {
        "pitch": 59,
        "duration": 2.3333333333333335,
        "velocity": 63
      },
      {
        "pitch": 68,
        "duration": 1.75,
        "velocity": 62
      },
      {
        "pitch": 62,
        "duration": 2.0,
        "velocity": 56
      },
      {
        "pitch": 68,
        "duration": 1.5,
        "velocity": 95
      },
      {
        "pitch": 71,
        "duration": 0.75,
        "velocity": 85
      },
      {
        "pitch": 71,
        "duration": 1.0,
        "velocity": 82
      }
    ],
    "key": "D major",
    "tempo": 120,
    "name": "129820fe71b310853a333b846db2b951_1.mid_seg79",
    "avg_interval": 6.866666666666666,
    "span": 31,
    "note_density": 0.0,
    "register": "middle",
    "complexity": 0.524074074074074
  },
  {
    "events": [
      {
        "pitch": 74,
        "duration": 0.5,
        "velocity": 71
      },
      {
        "pitch": 35,
        "duration": 3.0,
        "velocity": 115
      },
      {
        "pitch": 52,
        "duration": 3.0,
        "velocity": 107
      },
      {
        "pitch": 74,
        "duration": 0.16666666666666666,
        "velocity": 71
      },
      {
        "pitch": 59,
        "duration": 2.5,
        "velocity": 70
      },
      {
        "pitch": 62,
        "duration": 2.0,
        "velocity": 66
      },
      {
        "pitch": 68,
        "duration": 1.5,
        "velocity": 103
      },
      {
        "pitch": 71,
        "duration": 1.0,
        "velocity": 98
      },
      {
        "pitch": 66,
        "duration": 0.5,
        "velocity": 80
      },
      {
        "pitch": 74,
        "duration": 0.5,
        "velocity": 77
      },
      {
        "pitch": 66,
        "duration": 0.5,
        "velocity": 80
      },
      {
        "pitch": 33,
        "duration": 3.0,
        "velocity": 115
      },
      {
        "pitch": 45,
        "duration": 2.75,
        "velocity": 67
      },
      {
        "pitch": 66,
        "duration": 0.25,
        "velocity": 80
      },
      {
        "pitch": 52,
        "duration": 1.75,
        "velocity": 75
      },
      {
        "pitch": 62,
        "duration": 2.0,
        "velocity": 59
      }
    ],
    "key": "D major",
    "tempo": 120,
    "name": "129820fe71b310853a333b846db2b951_1.mid_seg80",
    "avg_interval": 14.4,
    "span": 41,
    "note_density": 0.0,
    "register": "middle",
    "complexity": 0.6666666666666666
  },
  {
    "events": [
      {
        "pitch": 55,
        "duration": 0.6666666666666666,
        "velocity": 57
      },
      {
        "pitch": 64,
        "duration": 1.0,
        "velocity": 80
      },
      {
        "pitch": 62,
        "duration": 1.5,
        "velocity": 72
      },
      {
        "pitch": 64,
        "duration": 1.0,
        "velocity": 66
      },
      {
        "pitch": 55,
        "duration": 1.0,
        "velocity": 54
      },
      {
        "pitch": 62,
        "duration": 1.0,
        "velocity": 80
      },
      {
        "pitch": 52,
        "duration": 0.5,
        "velocity": 81
      },
      {
        "pitch": 40,
        "duration": 3.0,
        "velocity": 115
      },
      {
        "pitch": 45,
        "duration": 3.0,
        "velocity": 107
      },
      {
        "pitch": 62,
        "duration": 1.25,
        "velocity": 72
      },
      {
        "pitch": 55,
        "duration": 1.0,
        "velocity": 54
      },
      {
        "pitch": 52,
        "duration": 0.25,
        "velocity": 81
      },
      {
        "pitch": 64,
        "duration": 3.0,
        "velocity": 80
      },
      {
        "pitch": 52,
        "duration": 1.75,
        "velocity": 98
      },
      {
        "pitch": 62,
        "duration": 1.75,
        "velocity": 76
      },
      {
        "pitch": 55,
        "duration": 0.6666666666666666,
        "velocity": 77
      }
    ],
    "key": "D major",
    "tempo": 120,
    "name": "129820fe71b310853a333b846db2b951_1.mid_seg81",
    "avg_interval": 8.266666666666667,
    "span": 24,
    "note_density": 0.0,
    "register": "middle",
    "complexity": 0.562962962962963
  },
  {
    "events": [
      {
        "pitch": 62,
        "duration": 1.5,
        "velocity": 92
      },
      {
        "pitch": 64,
        "duration": 0.75,
        "velocity": 55
      },
      {
        "pitch": 55,
        "duration": 1.0,
        "velocity": 83
      },
      {
        "pitch": 52,
        "duration": 0.5,
        "velocity": 98
      },
      {
        "pitch": 33,
        "duration": 3.0,
        "velocity": 115
      },
      {
        "pitch": 45,
        "duration": 2.75,
        "velocity": 67
      },
      {
        "pitch": 64,
        "duration": 3.0,
        "velocity": 80
      },
      {
        "pitch": 52,
        "duration": 1.75,
        "velocity": 75
      },
      {
        "pitch": 61,
        "duration": 1.75,
        "velocity": 62
      },
      {
        "pitch": 55,
        "duration": 0.6666666666666666,
        "velocity": 57
      },
      {
        "pitch": 61,
        "duration": 1.5,
        "velocity": 72
      },
      {
        "pitch": 64,
        "duration": 0.75,
        "velocity": 85
      },
      {
        "pitch": 55,
        "duration": 1.0,
        "velocity": 54
      },
      {
        "pitch": 52,
        "duration": 0.5,
        "velocity": 81
      },
      {
        "pitch": 33,
        "duration": 1.0,
        "velocity": 115
      },
      {
        "pitch": 45,
        "duration": 3.0,
        "velocity": 107
      }
    ],
    "key": "D major",
    "tempo": 120,
    "name": "129820fe71b310853a333b846db2b951_1.mid_seg82",
    "avg_interval": 9.533333333333333,
    "span": 31,
    "note_density": 0.0,
    "register": "bass",
    "complexity": 0.5981481481481481
  },
  {
    "events": [
      {
        "pitch": 61,
        "duration": 1.25,
        "velocity": 72
      },
      {
        "pitch": 55,
        "duration": 1.0,
        "velocity": 54
      },
      {
        "pitch": 52,
        "duration": 0.25,
        "velocity": 81
      },
      {
        "pitch": 52,
        "duration": 1.75,
        "velocity": 98
      },
      {
        "pitch": 40,
        "duration": 1.0,
        "velocity": 90
      },
      {
        "pitch": 55,
        "duration": 0.6666666666666666,
        "velocity": 77
      },
      {
        "pitch": 61,
        "duration": 1.5,
        "velocity": 92
      },
      {
        "pitch": 33,
        "duration": 1.0,
        "velocity": 100
      },
      {
        "pitch": 55,
        "duration": 1.0,
        "velocity": 83
      },
      {
        "pitch": 52,
        "duration": 0.5,
        "velocity": 98
      },
      {
        "pitch": 35,
        "duration": 2.0,
        "velocity": 115
      },
      {
        "pitch": 47,
        "duration": 2.75,
        "velocity": 75
      },
      {
        "pitch": 59,
        "duration": 3.0,
        "velocity": 80
      },
      {
        "pitch": 54,
        "duration": 2.3333333333333335,
        "velocity": 63
      },
      {
        "pitch": 62,
        "duration": 2.0,
        "velocity": 59
      },
      {
        "pitch": 59,
        "duration": 2.0,
        "velocity": 56
      }
    ],
    "key": "D major",
    "tempo": 120,
    "name": "129820fe71b310853a333b846db2b951_1.mid_seg83",
    "avg_interval": 10.133333333333333,
    "span": 29,
    "note_density": 0.0,
    "register": "bass",
    "complexity": 0.6148148148148148
  },
  {
    "events": [
      {
        "pitch": 62,
        "duration": 1.5,
        "velocity": 95
      },
      {
        "pitch": 35,
        "duration": 1.0,
        "velocity": 100
      },
      {
        "pitch": 66,
        "duration": 1.0,
        "velocity": 66
      },
      {
        "pitch": 66,
        "duration": 1.0,
        "velocity": 82
      },
      {
        "pitch": 71,
        "duration": 0.5,
        "velocity": 71
      },
      {
        "pitch": 30,
        "duration": 2.0,
        "velocity": 115
      },
      {
        "pitch": 47,
        "duration": 3.0,
        "velocity": 107
      },
      {
        "pitch": 71,
        "duration": 0.16666666666666666,
        "velocity": 71
      },
      {
        "pitch": 59,
        "duration": 3.0,
        "velocity": 80
      },
      {
        "pitch": 71,
        "duration": 0.5,
        "velocity": 80
      },
      {
        "pitch": 54,
        "duration": 2.5,
        "velocity": 70
      },
      {
        "pitch": 71,
        "duration": 0.5,
        "velocity": 80
      },
      {
        "pitch": 62,
        "duration": 1.75,
        "velocity": 76
      },
      {
        "pitch": 59,
        "duration": 2.0,
        "velocity": 66
      },
      {
        "pitch": 71,
        "duration": 0.25,
        "velocity": 80
      },
      {
        "pitch": 62,
        "duration": 1.5,
        "velocity": 103
      }
    ],
    "key": "D major",
    "tempo": 120,
    "name": "129820fe71b310853a333b846db2b951_1.mid_seg84",
    "avg_interval": 15.733333333333333,
    "span": 41,
    "note_density": 0.0,
    "register": "middle",
    "complexity": 0.6666666666666666
  },
  {
    "events": [
      {
        "pitch": 35,
        "duration": 1.0,
        "velocity": 115
      },
      {
        "pitch": 66,
        "duration": 0.75,
        "velocity": 55
      },
      {
        "pitch": 66,
        "duration": 1.0,
        "velocity": 98
      },
      {
        "pitch": 73,
        "duration": 1.0,
        "velocity": 80
      },
      {
        "pitch": 71,
        "duration": 0.5,
        "velocity": 77
      },
      {
        "pitch": 33,
        "duration": 2.0,
        "velocity": 115
      },
      {
        "pitch": 45,
        "duration": 2.75,
        "velocity": 67
      },
      {
        "pitch": 69,
        "duration": 0.5,
        "velocity": 80
      },
      {
        "pitch": 52,
        "duration": 1.75,
        "velocity": 75
      },
      {
        "pitch": 66,
        "duration": 0.5,
        "velocity": 80
      },
      {
        "pitch": 61,
        "duration": 2.0,
        "velocity": 59
      },
      {
        "pitch": 57,
        "duration": 0.6666666666666666,
        "velocity": 57
      },
      {
        "pitch": 81,
        "duration": 2.0,
        "velocity": 27
      },
      {
        "pitch": 64,
        "duration": 2.0,
        "velocity": 80
      },
      {
        "pitch": 61,
        "duration": 1.5,
        "velocity": 72
      },
      {
        "pitch": 33,
        "duration": 1.0,
        "velocity": 100
      }
    ],
    "key": "D major",
    "tempo": 120,
    "name": "129820fe71b310853a333b846db2b951_1.mid_seg85",
    "avg_interval": 15.066666666666666,
    "span": 48,
    "note_density": 0.0,
    "register": "middle",
    "complexity": 0.6666666666666666
  },
  {
    "events": [
      {
        "pitch": 64,
        "duration": 1.0,
        "velocity": 66
      },
      {
        "pitch": 57,
        "duration": 1.0,
        "velocity": 54
      },
      {
        "pitch": 52,
        "duration": 0.5,
        "velocity": 81
      },
      {
        "pitch": 40,
        "duration": 2.0,
        "velocity": 115
      },
      {
        "pitch": 45,
        "duration": 3.0,
        "velocity": 107
      },
      {
        "pitch": 61,
        "duration": 1.25,
        "velocity": 72
      },
      {
        "pitch": 57,
        "duration": 1.0,
        "velocity": 54
      },
      {
        "pitch": 52,
        "duration": 0.25,
        "velocity": 81
      },
      {
        "pitch": 64,
        "duration": 1.0,
        "velocity": 80
      },
      {
        "pitch": 52,
        "duration": 1.75,
        "velocity": 98
      },
      {
        "pitch": 61,
        "duration": 1.75,
        "velocity": 76
      },
      {
        "pitch": 57,
        "duration": 0.6666666666666666,
        "velocity": 77
      },
      {
        "pitch": 81,
        "duration": 1.75,
        "velocity": 38
      },
      {
        "pitch": 61,
        "duration": 1.5,
        "velocity": 92
      },
      {
        "pitch": 33,
        "duration": 1.0,
        "velocity": 115
      },
      {
        "pitch": 64,
        "duration": 0.75,
        "velocity": 55
      }
    ],
    "key": "D major",
    "tempo": 120,
    "name": "129820fe71b310853a333b846db2b951_1.mid_seg86",
    "avg_interval": 12.933333333333334,
    "span": 48,
    "note_density": 0.0,
    "register": "middle",
    "complexity": 0.6666666666666666
  },
  {
    "events": [
      {
        "pitch": 57,
        "duration": 1.0,
        "velocity": 83
      },
      {
        "pitch": 52,
        "duration": 0.5,
        "velocity": 98
      },
      {
        "pitch": 35,
        "duration": 2.0,
        "velocity": 115
      },
      {
        "pitch": 47,
        "duration": 2.75,
        "velocity": 67
      },
      {
        "pitch": 59,
        "duration": 3.0,
        "velocity": 80
      },
      {
        "pitch": 54,
        "duration": 1.75,
        "velocity": 75
      },
      {
        "pitch": 62,
        "duration": 2.0,
        "velocity": 59
      },
      {
        "pitch": 59,
        "duration": 0.6666666666666666,
        "velocity": 57
      },
      {
        "pitch": 62,
        "duration": 1.5,
        "velocity": 72
      },
      {
        "pitch": 35,
        "duration": 1.0,
        "velocity": 100
      },
      {
        "pitch": 66,
        "duration": 1.0,
        "velocity": 66
      },
      {
        "pitch": 59,
        "duration": 1.0,
        "velocity": 54
      },
      {
        "pitch": 54,
        "duration": 0.5,
        "velocity": 81
      },
      {
        "pitch": 30,
        "duration": 2.0,
        "velocity": 115
      },
      {
        "pitch": 47,
        "duration": 3.0,
        "velocity": 107
      },
      {
        "pitch": 62,
        "duration": 1.25,
        "velocity": 72
      }
    ],
    "key": "D major",
    "tempo": 120,
    "name": "129820fe71b310853a333b846db2b951_1.mid_seg87",
    "avg_interval": 12.733333333333333,
    "span": 36,
    "note_density": 0.0,
    "register": "bass",
    "complexity": 0.6666666666666666
  },
  {
    "events": [
      {
        "pitch": 59,
        "duration": 1.0,
        "velocity": 54
      },
      {
        "pitch": 54,
        "duration": 0.25,
        "velocity": 81
      },
      {
        "pitch": 59,
        "duration": 3.0,
        "velocity": 80
      },
      {
        "pitch": 71,
        "duration": 0.5,
        "velocity": 80
      },
      {
        "pitch": 54,
        "duration": 1.75,
        "velocity": 98
      },
      {
        "pitch": 71,
        "duration": 0.5,
        "velocity": 80
      },
      {
        "pitch": 62,
        "duration": 1.75,
        "velocity": 76
      },
      {
        "pitch": 59,
        "duration": 0.6666666666666666,
        "velocity": 77
      },
      {
        "pitch": 71,
        "duration": 0.25,
        "velocity": 80
      },
      {
        "pitch": 62,
        "duration": 1.5,
        "velocity": 92
      },
      {
        "pitch": 35,
        "duration": 1.0,
        "velocity": 115
      },
      {
        "pitch": 66,
        "duration": 0.75,
        "velocity": 55
      },
      {
        "pitch": 59,
        "duration": 1.0,
        "velocity": 83
      },
      {
        "pitch": 73,
        "duration": 1.0,
        "velocity": 80
      },
      {
        "pitch": 54,
        "duration": 0.5,
        "velocity": 98
      },
      {
        "pitch": 33,
        "duration": 2.0,
        "velocity": 115
      }
    ],
    "key": "D major",
    "tempo": 120,
    "name": "129820fe71b310853a333b846db2b951_1.mid_seg88",
    "avg_interval": 13.866666666666667,
    "span": 40,
    "note_density": 0.0,
    "register": "middle",
    "complexity": 0.6666666666666666
  },
  {
    "events": [
      {
        "pitch": 45,
        "duration": 2.75,
        "velocity": 75
      },
      {
        "pitch": 69,
        "duration": 0.5,
        "velocity": 80
      },
      {
        "pitch": 52,
        "duration": 2.3333333333333335,
        "velocity": 63
      },
      {
        "pitch": 66,
        "duration": 0.5,
        "velocity": 80
      },
      {
        "pitch": 61,
        "duration": 1.75,
        "velocity": 62
      },
      {
        "pitch": 57,
        "duration": 2.0,
        "velocity": 56
      },
      {
        "pitch": 73,
        "duration": 1.75,
        "velocity": 31
      },
      {
        "pitch": 64,
        "duration": 2.0,
        "velocity": 80
      },
      {
        "pitch": 61,
        "duration": 1.5,
        "velocity": 95
      },
      {
        "pitch": 33,
        "duration": 1.0,
        "velocity": 100
      },
      {
        "pitch": 64,
        "duration": 0.75,
        "velocity": 85
      },
      {
        "pitch": 64,
        "duration": 1.0,
        "velocity": 82
      },
      {
        "pitch": 69,
        "duration": 0.5,
        "velocity": 71
      },
      {
        "pitch": 40,
        "duration": 2.0,
        "velocity": 115
      },
      {
        "pitch": 45,
        "duration": 3.0,
        "velocity": 107
      },
      {
        "pitch": 69,
        "duration": 0.16666666666666666,
        "velocity": 71
      }
    ],
    "key": "D major",
    "tempo": 120,
    "name": "129820fe71b310853a333b846db2b951_1.mid_seg89",
    "avg_interval": 14.266666666666667,
    "span": 40,
    "note_density": 0.0,
    "register": "middle",
    "complexity": 0.6666666666666666
  },
  {
    "events": [
      {
        "pitch": 64,
        "duration": 1.0,
        "velocity": 80
      },
      {
        "pitch": 52,
        "duration": 2.5,
        "velocity": 70
      },
      {
        "pitch": 57,
        "duration": 2.0,
        "velocity": 66
      },
      {
        "pitch": 61,
        "duration": 1.5,
        "velocity": 103
      },
      {
        "pitch": 33,
        "duration": 1.0,
        "velocity": 115
      },
      {
        "pitch": 64,
        "duration": 1.0,
        "velocity": 98
      },
      {
        "pitch": 69,
        "duration": 0.5,
        "velocity": 77
      },
      {
        "pitch": 35,
        "duration": 2.0,
        "velocity": 115
      },
      {
        "pitch": 47,
        "duration": 2.75,
        "velocity": 67
      },
      {
        "pitch": 59,
        "duration": 3.0,
        "velocity": 80
      },
      {
        "pitch": 54,
        "duration": 1.75,
        "velocity": 75
      },
      {
        "pitch": 62,
        "duration": 2.0,
        "velocity": 59
      },
      {
        "pitch": 59,
        "duration": 0.6666666666666666,
        "velocity": 57
      },
      {
        "pitch": 62,
        "duration": 1.5,
        "velocity": 72
      },
      {
        "pitch": 35,
        "duration": 1.0,
        "velocity": 100
      },
      {
        "pitch": 66,
        "duration": 1.0,
        "velocity": 66
      }
    ],
    "key": "D major",
    "tempo": 120,
    "name": "129820fe71b310853a333b846db2b951_1.mid_seg90",
    "avg_interval": 14.666666666666666,
    "span": 36,
    "note_density": 0.0,
    "register": "bass",
    "complexity": 0.6666666666666666
  },
  {
    "events": [
      {
        "pitch": 59,
        "duration": 1.0,
        "velocity": 54
      },
      {
        "pitch": 54,
        "duration": 0.5,
        "velocity": 81
      },
      {
        "pitch": 30,
        "duration": 2.0,
        "velocity": 115
      },
      {
        "pitch": 47,
        "duration": 3.0,
        "velocity": 107
      },
      {
        "pitch": 62,
        "duration": 1.25,
        "velocity": 72
      },
      {
        "pitch": 59,
        "duration": 1.0,
        "velocity": 54
      },
      {
        "pitch": 54,
        "duration": 0.25,
        "velocity": 81
      },
      {
        "pitch": 59,
        "duration": 3.0,
        "velocity": 80
      },
      {
        "pitch": 71,
        "duration": 0.5,
        "velocity": 80
      },
      {
        "pitch": 54,
        "duration": 1.75,
        "velocity": 98
      },
      {
        "pitch": 71,
        "duration": 0.5,
        "velocity": 80
      },
      {
        "pitch": 62,
        "duration": 1.75,
        "velocity": 76
      },
      {
        "pitch": 59,
        "duration": 0.6666666666666666,
        "velocity": 77
      },
      {
        "pitch": 71,
        "duration": 0.25,
        "velocity": 80
      },
      {
        "pitch": 62,
        "duration": 1.5,
        "velocity": 92
      },
      {
        "pitch": 35,
        "duration": 1.0,
        "velocity": 115
      }
    ],
    "key": "D major",
    "tempo": 120,
    "name": "129820fe71b310853a333b846db2b951_1.mid_seg91",
    "avg_interval": 12.0,
    "span": 41,
    "note_density": 0.0,
    "register": "middle",
    "complexity": 0.6666666666666666
  },
  {
    "events": [
      {
        "pitch": 66,
        "duration": 0.75,
        "velocity": 55
      },
      {
        "pitch": 59,
        "duration": 1.0,
        "velocity": 83
      },
      {
        "pitch": 73,
        "duration": 1.0,
        "velocity": 80
      },
      {
        "pitch": 54,
        "duration": 0.5,
        "velocity": 98
      },
      {
        "pitch": 33,
        "duration": 2.0,
        "velocity": 115
      },
      {
        "pitch": 45,
        "duration": 2.75,
        "velocity": 67
      },
      {
        "pitch": 69,
        "duration": 0.5,
        "velocity": 80
      },
      {
        "pitch": 52,
        "duration": 1.75,
        "velocity": 75
      },
      {
        "pitch": 66,
        "duration": 0.5,
        "velocity": 80
      },
      {
        "pitch": 61,
        "duration": 2.0,
        "velocity": 59
      },
      {
        "pitch": 57,
        "duration": 0.6666666666666666,
        "velocity": 57
      },
      {
        "pitch": 73,
        "duration": 1.75,
        "velocity": 31
      },
      {
        "pitch": 64,
        "duration": 2.0,
        "velocity": 80
      },
      {
        "pitch": 61,
        "duration": 1.5,
        "velocity": 72
      },
      {
        "pitch": 33,
        "duration": 1.0,
        "velocity": 100
      },
      {
        "pitch": 64,
        "duration": 1.0,
        "velocity": 66
      }
    ],
    "key": "D major",
    "tempo": 120,
    "name": "129820fe71b310853a333b846db2b951_1.mid_seg92",
    "avg_interval": 14.933333333333334,
    "span": 40,
    "note_density": 0.0,
    "register": "middle",
    "complexity": 0.6666666666666666
  },
  {
    "events": [
      {
        "pitch": 57,
        "duration": 1.0,
        "velocity": 54
      },
      {
        "pitch": 52,
        "duration": 0.5,
        "velocity": 81
      },
      {
        "pitch": 40,
        "duration": 2.0,
        "velocity": 115
      },
      {
        "pitch": 45,
        "duration": 3.0,
        "velocity": 107
      },
      {
        "pitch": 61,
        "duration": 1.25,
        "velocity": 72
      },
      {
        "pitch": 57,
        "duration": 1.0,
        "velocity": 54
      },
      {
        "pitch": 52,
        "duration": 0.25,
        "velocity": 81
      },
      {
        "pitch": 64,
        "duration": 1.0,
        "velocity": 80
      },
      {
        "pitch": 52,
        "duration": 1.75,
        "velocity": 98
      },
      {
        "pitch": 61,
        "duration": 1.75,
        "velocity": 76
      },
      {
        "pitch": 57,
        "duration": 0.6666666666666666,
        "velocity": 77
      },
      {
        "pitch": 61,
        "duration": 1.5,
        "velocity": 92
      },
      {
        "pitch": 33,
        "duration": 1.0,
        "velocity": 115
      },
      {
        "pitch": 64,
        "duration": 0.75,
        "velocity": 55
      },
      {
        "pitch": 57,
        "duration": 1.0,
        "velocity": 83
      },
      {
        "pitch": 52,
        "duration": 0.5,
        "velocity": 98
      }
    ],
    "key": "D major",
    "tempo": 120,
    "name": "129820fe71b310853a333b846db2b951_1.mid_seg93",
    "avg_interval": 10.6,
    "span": 31,
    "note_density": 0.0,
    "register": "bass",
    "complexity": 0.6277777777777778
  },
  {
    "events": [
      {
        "pitch": 38,
        "duration": 2.0,
        "velocity": 115
      },
      {
        "pitch": 50,
        "duration": 2.75,
        "velocity": 80
      },
      {
        "pitch": 62,
        "duration": 3.0,
        "velocity": 80
      },
      {
        "pitch": 62,
        "duration": 3.0,
        "velocity": 80
      },
      {
        "pitch": 57,
        "duration": 2.3333333333333335,
        "velocity": 76
      },
      {
        "pitch": 66,
        "duration": 2.0,
        "velocity": 59
      },
      {
        "pitch": 62,
        "duration": 2.0,
        "velocity": 61
      },
      {
        "pitch": 66,
        "duration": 0.5,
        "velocity": 102
      },
      {
        "pitch": 38,
        "duration": 1.0,
        "velocity": 100
      },
      {
        "pitch": 69,
        "duration": 1.0,
        "velocity": 66
      },
      {
        "pitch": 74,
        "duration": 1.0,
        "velocity": 47
      },
      {
        "pitch": 69,
        "duration": 0.5,
        "velocity": 86
      },
      {
        "pitch": 37,
        "duration": 2.0,
        "velocity": 115
      },
      {
        "pitch": 49,
        "duration": 2.75,
        "velocity": 75
      },
      {
        "pitch": 62,
        "duration": 3.0,
        "velocity": 80
      },
      {
        "pitch": 57,
        "duration": 2.3333333333333335,
        "velocity": 63
      }
    ],
    "key": "D major",
    "tempo": 120,
    "name": "129820fe71b310853a333b846db2b951_1.mid_seg94",
    "avg_interval": 11.8,
    "span": 37,
    "note_density": 0.0,
    "register": "middle",
    "complexity": 0.6611111111111111
  },
  {
    "events": [
      {
        "pitch": 66,
        "duration": 2.0,
        "velocity": 59
      },
      {
        "pitch": 62,
        "duration": 2.0,
        "velocity": 56
      },
      {
        "pitch": 66,
        "duration": 1.5,
        "velocity": 95
      },
      {
        "pitch": 37,
        "duration": 1.0,
        "velocity": 100
      },
      {
        "pitch": 69,
        "duration": 1.0,
        "velocity": 66
      },
      {
        "pitch": 69,
        "duration": 1.0,
        "velocity": 82
      },
      {
        "pitch": 74,
        "duration": 0.5,
        "velocity": 71
      },
      {
        "pitch": 35,
        "duration": 1.0,
        "velocity": 115
      },
      {
        "pitch": 47,
        "duration": 2.75,
        "velocity": 80
      },
      {
        "pitch": 64,
        "duration": 3.0,
        "velocity": 80
      },
      {
        "pitch": 57,
        "duration": 2.3333333333333335,
        "velocity": 76
      },
      {
        "pitch": 45,
        "duration": 1.0,
        "velocity": 100
      },
      {
        "pitch": 66,
        "duration": 2.0,
        "velocity": 59
      },
      {
        "pitch": 64,
        "duration": 2.0,
        "velocity": 61
      },
      {
        "pitch": 66,
        "duration": 0.5,
        "velocity": 102
      },
      {
        "pitch": 33,
        "duration": 1.0,
        "velocity": 100
      }
    ],
    "key": "D major",
    "tempo": 120,
    "name": "129820fe71b310853a333b846db2b951_1.mid_seg95",
    "avg_interval": 14.6,
    "span": 41,
    "note_density": 0.0,
    "register": "middle",
    "complexity": 0.6666666666666666
  },
  {
    "events": [
      {
        "pitch": 69,
        "duration": 1.0,
        "velocity": 66
      },
      {
        "pitch": 76,
        "duration": 1.0,
        "velocity": 47
      },
      {
        "pitch": 69,
        "duration": 0.5,
        "velocity": 86
      },
      {
        "pitch": 38,
        "duration": 1.0,
        "velocity": 115
      },
      {
        "pitch": 50,
        "duration": 2.75,
        "velocity": 80
      },
      {
        "pitch": 62,
        "duration": 3.0,
        "velocity": 80
      },
      {
        "pitch": 57,
        "duration": 2.3333333333333335,
        "velocity": 76
      },
      {
        "pitch": 45,
        "duration": 1.0,
        "velocity": 100
      },
      {
        "pitch": 62,
        "duration": 2.0,
        "velocity": 61
      },
      {
        "pitch": 66,
        "duration": 0.5,
        "velocity": 102
      },
      {
        "pitch": 40,
        "duration": 1.0,
        "velocity": 115
      },
      {
        "pitch": 74,
        "duration": 1.0,
        "velocity": 47
      },
      {
        "pitch": 69,
        "duration": 0.5,
        "velocity": 86
      },
      {
        "pitch": 38,
        "duration": 3.0,
        "velocity": 115
      },
      {
        "pitch": 50,
        "duration": 2.75,
        "velocity": 75
      },
      {
        "pitch": 57,
        "duration": 2.3333333333333335,
        "velocity": 63
      }
    ],
    "key": "D major",
    "tempo": 120,
    "name": "129820fe71b310853a333b846db2b951_1.mid_seg96",
    "avg_interval": 14.8,
    "span": 38,
    "note_density": 0.0,
    "register": "middle",
    "complexity": 0.6666666666666666
  },
  {
    "events": [
      {
        "pitch": 66,
        "duration": 2.0,
        "velocity": 59
      },
      {
        "pitch": 62,
        "duration": 2.0,
        "velocity": 56
      },
      {
        "pitch": 66,
        "duration": 1.5,
        "velocity": 95
      },
      {
        "pitch": 69,
        "duration": 1.0,
        "velocity": 66
      },
      {
        "pitch": 69,
        "duration": 1.0,
        "velocity": 82
      },
      {
        "pitch": 57,
        "duration": 1.0,
        "velocity": 80
      },
      {
        "pitch": 74,
        "duration": 0.5,
        "velocity": 71
      },
      {
        "pitch": 37,
        "duration": 3.0,
        "velocity": 115
      },
      {
        "pitch": 49,
        "duration": 2.75,
        "velocity": 75
      },
      {
        "pitch": 66,
        "duration": 0.5,
        "velocity": 80
      },
      {
        "pitch": 57,
        "duration": 2.3333333333333335,
        "velocity": 63
      },
      {
        "pitch": 64,
        "duration": 0.5,
        "velocity": 80
      },
      {
        "pitch": 66,
        "duration": 2.0,
        "velocity": 59
      },
      {
        "pitch": 62,
        "duration": 2.0,
        "velocity": 56
      },
      {
        "pitch": 66,
        "duration": 1.0,
        "velocity": 80
      },
      {
        "pitch": 66,
        "duration": 1.5,
        "velocity": 95
      }
    ],
    "key": "D major",
    "tempo": 120,
    "name": "129820fe71b310853a333b846db2b951_1.mid_seg97",
    "avg_interval": 8.8,
    "span": 37,
    "note_density": 0.0,
    "register": "middle",
    "complexity": 0.5777777777777778
  },
  {
    "events": [
      {
        "pitch": 69,
        "duration": 1.0,
        "velocity": 66
      },
      {
        "pitch": 69,
        "duration": 1.0,
        "velocity": 82
      },
      {
        "pitch": 64,
        "duration": 1.0,
        "velocity": 80
      },
      {
        "pitch": 74,
        "duration": 0.5,
        "velocity": 71
      },
      {
        "pitch": 35,
        "duration": 3.0,
        "velocity": 115
      },
      {
        "pitch": 47,
        "duration": 2.75,
        "velocity": 80
      },
      {
        "pitch": 66,
        "duration": 0.5,
        "velocity": 80
      },
      {
        "pitch": 57,
        "duration": 2.3333333333333335,
        "velocity": 76
      },
      {
        "pitch": 64,
        "duration": 0.5,
        "velocity": 80
      },
      {
        "pitch": 66,
        "duration": 2.0,
        "velocity": 59
      },
      {
        "pitch": 62,
        "duration": 2.0,
        "velocity": 61
      },
      {
        "pitch": 66,
        "duration": 1.0,
        "velocity": 80
      },
      {
        "pitch": 66,
        "duration": 0.5,
        "velocity": 102
      },
      {
        "pitch": 69,
        "duration": 1.0,
        "velocity": 66
      },
      {
        "pitch": 74,
        "duration": 1.0,
        "velocity": 47
      },
      {
        "pitch": 64,
        "duration": 1.0,
        "velocity": 80
      }
    ],
    "key": "D major",
    "tempo": 120,
    "name": "129820fe71b310853a333b846db2b951_1.mid_seg98",
    "avg_interval": 8.6,
    "span": 39,
    "note_density": 0.0,
    "register": "middle",
    "complexity": 0.5722222222222223
  },
  {
    "events": [
      {
        "pitch": 69,
        "duration": 0.5,
        "velocity": 86
      },
      {
        "pitch": 38,
        "duration": 3.0,
        "velocity": 115
      },
      {
        "pitch": 50,
        "duration": 2.75,
        "velocity": 75
      },
      {
        "pitch": 66,
        "duration": 0.5,
        "velocity": 80
      },
      {
        "pitch": 57,
        "duration": 2.3333333333333335,
        "velocity": 63
      },
      {
        "pitch": 64,
        "duration": 0.5,
        "velocity": 80
      },
      {
        "pitch": 66,
        "duration": 2.0,
        "velocity": 59
      },
      {
        "pitch": 60,
        "duration": 2.0,
        "velocity": 56
      },
      {
        "pitch": 62,
        "duration": 2.0,
        "velocity": 80
      },
      {
        "pitch": 66,
        "duration": 1.5,
        "velocity": 95
      },
      {
        "pitch": 69,
        "duration": 1.0,
        "velocity": 66
      },
      {
        "pitch": 69,
        "duration": 1.0,
        "velocity": 82
      },
      {
        "pitch": 72,
        "duration": 0.5,
        "velocity": 71
      },
      {
        "pitch": 43,
        "duration": 3.0,
        "velocity": 115
      },
      {
        "pitch": 43,
        "duration": 2.75,
        "velocity": 80
      },
      {
        "pitch": 62,
        "duration": 2.0,
        "velocity": 80
      }
    ],
    "key": "D major",
    "tempo": 120,
    "name": "129820fe71b310853a333b846db2b951_1.mid_seg99",
    "avg_interval": 9.533333333333333,
    "span": 34,
    "note_density": 0.0,
    "register": "middle",
    "complexity": 0.5981481481481481
  },
  {
    "events": [
      {
        "pitch": 50,
        "duration": 2.3333333333333335,
        "velocity": 76
      },
      {
        "pitch": 59,
        "duration": 2.0,
        "velocity": 59
      },
      {
        "pitch": 55,
        "duration": 2.0,
        "velocity": 61
      },
      {
        "pitch": 59,
        "duration": 0.5,
        "velocity": 102
      },
      {
        "pitch": 62,
        "duration": 1.0,
        "velocity": 66
      },
      {
        "pitch": 67,
        "duration": 1.0,
        "velocity": 47
      },
      {
        "pitch": 62,
        "duration": 0.5,
        "velocity": 86
      },
      {
        "pitch": 38,
        "duration": 3.0,
        "velocity": 115
      },
      {
        "pitch": 43,
        "duration": 3.0,
        "velocity": 95
      },
      {
        "pitch": 50,
        "duration": 2.5,
        "velocity": 93
      },
      {
        "pitch": 59,
        "duration": 1.75,
        "velocity": 76
      },
      {
        "pitch": 55,
        "duration": 2.0,
        "velocity": 61
      },
      {
        "pitch": 59,
        "duration": 1.5,
        "velocity": 107
      },
      {
        "pitch": 62,
        "duration": 0.75,
        "velocity": 55
      },
      {
        "pitch": 67,
        "duration": 1.0,
        "velocity": 57
      },
      {
        "pitch": 57,
        "duration": 1.0,
        "velocity": 80
      }
    ],
    "key": "D major",
    "tempo": 120,
    "name": "129820fe71b310853a333b846db2b951_1.mid_seg100",
    "avg_interval": 6.733333333333333,
    "span": 29,
    "note_density": 0.0,
    "register": "middle",
    "complexity": 0.5203703703703704
  },
  {
    "events": [
      {
        "pitch": 62,
        "duration": 0.5,
        "velocity": 96
      },
      {
        "pitch": 33,
        "duration": 3.0,
        "velocity": 115
      },
      {
        "pitch": 45,
        "duration": 2.75,
        "velocity": 80
      },
      {
        "pitch": 71,
        "duration": 1.0,
        "velocity": 80
      },
      {
        "pitch": 52,
        "duration": 2.3333333333333335,
        "velocity": 76
      },
      {
        "pitch": 61,
        "duration": 1.75,
        "velocity": 62
      },
      {
        "pitch": 55,
        "duration": 2.0,
        "velocity": 61
      },
      {
        "pitch": 69,
        "duration": 2.0,
        "velocity": 80
      },
      {
        "pitch": 61,
        "duration": 0.5,
        "velocity": 102
      },
      {
        "pitch": 64,
        "duration": 0.75,
        "velocity": 85
      },
      {
        "pitch": 67,
        "duration": 1.0,
        "velocity": 47
      },
      {
        "pitch": 64,
        "duration": 0.5,
        "velocity": 86
      },
      {
        "pitch": 40,
        "duration": 3.0,
        "velocity": 115
      },
      {
        "pitch": 45,
        "duration": 3.0,
        "velocity": 95
      },
      {
        "pitch": 69,
        "duration": 3.0,
        "velocity": 80
      },
      {
        "pitch": 52,
        "duration": 2.5,
        "velocity": 93
      }
    ],
    "key": "D major",
    "tempo": 120,
    "name": "129820fe71b310853a333b846db2b951_1.mid_seg101",
    "avg_interval": 13.466666666666667,
    "span": 38,
    "note_density": 0.0,
    "register": "middle",
    "complexity": 0.6666666666666666
  },
  {
    "events": [
      {
        "pitch": 55,
        "duration": 2.0,
        "velocity": 61
      },
      {
        "pitch": 61,
        "duration": 1.5,
        "velocity": 107
      },
      {
        "pitch": 67,
        "duration": 1.0,
        "velocity": 57
      },
      {
        "pitch": 64,
        "duration": 0.5,
        "velocity": 96
      },
      {
        "pitch": 38,
        "duration": 3.0,
        "velocity": 115
      },
      {
        "pitch": 50,
        "duration": 2.75,
        "velocity": 67
      },
      {
        "pitch": 69,
        "duration": 1.0,
        "velocity": 80
      },
      {
        "pitch": 57,
        "duration": 1.75,
        "velocity": 75
      },
      {
        "pitch": 66,
        "duration": 2.0,
        "velocity": 59
      },
      {
        "pitch": 62,
        "duration": 0.6666666666666666,
        "velocity": 57
      },
      {
        "pitch": 66,
        "duration": 1.5,
        "velocity": 72
      },
      {
        "pitch": 69,
        "duration": 1.0,
        "velocity": 66
      },
      {
        "pitch": 62,
        "duration": 1.0,
        "velocity": 54
      },
      {
        "pitch": 57,
        "duration": 1.0,
        "velocity": 80
      },
      {
        "pitch": 57,
        "duration": 0.5,
        "velocity": 81
      },
      {
        "pitch": 37,
        "duration": 3.0,
        "velocity": 115
      }
    ],
    "key": "D major",
    "tempo": 120,
    "name": "129820fe71b310853a333b846db2b951_1.mid_seg102",
    "avg_interval": 9.066666666666666,
    "span": 32,
    "note_density": 0.0,
    "register": "middle",
    "complexity": 0.5851851851851851
  },
  {
    "events": [
      {
        "pitch": 49,
        "duration": 2.75,
        "velocity": 75
      },
      {
        "pitch": 66,
        "duration": 0.5,
        "velocity": 80
      },
      {
        "pitch": 57,
        "duration": 2.3333333333333335,
        "velocity": 63
      },
      {
        "pitch": 64,
        "duration": 0.5,
        "velocity": 80
      },
      {
        "pitch": 66,
        "duration": 2.0,
        "velocity": 59
      },
      {
        "pitch": 62,
        "duration": 2.0,
        "velocity": 56
      },
      {
        "pitch": 66,
        "duration": 1.0,
        "velocity": 80
      },
      {
        "pitch": 66,
        "duration": 1.5,
        "velocity": 95
      },
      {
        "pitch": 69,
        "duration": 1.0,
        "velocity": 66
      },
      {
        "pitch": 69,
        "duration": 1.0,
        "velocity": 82
      },
      {
        "pitch": 64,
        "duration": 1.0,
        "velocity": 80
      },
      {
        "pitch": 74,
        "duration": 0.5,
        "velocity": 71
      },
      {
        "pitch": 35,
        "duration": 3.0,
        "velocity": 115
      },
      {
        "pitch": 47,
        "duration": 2.75,
        "velocity": 67
      },
      {
        "pitch": 66,
        "duration": 0.5,
        "velocity": 80
      },
      {
        "pitch": 57,
        "duration": 1.75,
        "velocity": 75
      }
    ],
    "key": "D major",
    "tempo": 120,
    "name": "129820fe71b310853a333b846db2b951_1.mid_seg103",
    "avg_interval": 9.333333333333334,
    "span": 39,
    "note_density": 0.0,
    "register": "middle",
    "complexity": 0.5925925925925926
  },
  {
    "events": [
      {
        "pitch": 64,
        "duration": 0.5,
        "velocity": 80
      },
      {
        "pitch": 66,
        "duration": 2.0,
        "velocity": 59
      },
      {
        "pitch": 62,
        "duration": 0.6666666666666666,
        "velocity": 57
      },
      {
        "pitch": 66,
        "duration": 1.0,
        "velocity": 80
      },
      {
        "pitch": 66,
        "duration": 1.5,
        "velocity": 72
      },
      {
        "pitch": 69,
        "duration": 1.0,
        "velocity": 66
      },
      {
        "pitch": 62,
        "duration": 1.0,
        "velocity": 54
      },
      {
        "pitch": 64,
        "duration": 1.0,
        "velocity": 80
      },
      {
        "pitch": 57,
        "duration": 0.5,
        "velocity": 81
      },
      {
        "pitch": 38,
        "duration": 3.0,
        "velocity": 115
      },
      {
        "pitch": 50,
        "duration": 2.75,
        "velocity": 67
      },
      {
        "pitch": 66,
        "duration": 0.5,
        "velocity": 80
      },
      {
        "pitch": 57,
        "duration": 1.75,
        "velocity": 75
      },
      {
        "pitch": 64,
        "duration": 0.5,
        "velocity": 80
      },
      {
        "pitch": 66,
        "duration": 2.0,
        "velocity": 59
      },
      {
        "pitch": 60,
        "duration": 0.6666666666666666,
        "velocity": 57
      }
    ],
    "key": "D major",
    "tempo": 120,
    "name": "129820fe71b310853a333b846db2b951_1.mid_seg104",
    "avg_interval": 6.666666666666667,
    "span": 31,
    "note_density": 0.0,
    "register": "middle",
    "complexity": 0.5185185185185185
  },
  {
    "events": [
      {
        "pitch": 62,
        "duration": 2.0,
        "velocity": 80
      },
      {
        "pitch": 66,
        "duration": 1.5,
        "velocity": 72
      },
      {
        "pitch": 69,
        "duration": 1.0,
        "velocity": 66
      },
      {
        "pitch": 60,
        "duration": 1.0,
        "velocity": 54
      },
      {
        "pitch": 57,
        "duration": 0.5,
        "velocity": 81
      },
      {
        "pitch": 43,
        "duration": 3.0,
        "velocity": 115
      },
      {
        "pitch": 43,
        "duration": 2.75,
        "velocity": 67
      },
      {
        "pitch": 62,
        "duration": 2.0,
        "velocity": 80
      },
      {
        "pitch": 50,
        "duration": 1.75,
        "velocity": 75
      },
      {
        "pitch": 59,
        "duration": 2.0,
        "velocity": 59
      },
      {
        "pitch": 55,
        "duration": 0.6666666666666666,
        "velocity": 57
      },
      {
        "pitch": 59,
        "duration": 1.5,
        "velocity": 72
      },
      {
        "pitch": 62,
        "duration": 1.0,
        "velocity": 66
      },
      {
        "pitch": 55,
        "duration": 1.0,
        "velocity": 54
      },
      {
        "pitch": 50,
        "duration": 0.5,
        "velocity": 81
      },
      {
        "pitch": 38,
        "duration": 3.0,
        "velocity": 115
      }
    ],
    "key": "D major",
    "tempo": 120,
    "name": "129820fe71b310853a333b846db2b951_1.mid_seg105",
    "avg_interval": 7.2,
    "span": 31,
    "note_density": 0.0,
    "register": "middle",
    "complexity": 0.5333333333333333
  },
  {
    "events": [
      {
        "pitch": 43,
        "duration": 3.0,
        "velocity": 107
      },
      {
        "pitch": 59,
        "duration": 1.25,
        "velocity": 72
      },
      {
        "pitch": 55,
        "duration": 1.0,
        "velocity": 54
      },
      {
        "pitch": 50,
        "duration": 0.25,
        "velocity": 81
      },
      {
        "pitch": 50,
        "duration": 1.75,
        "velocity": 98
      },
      {
        "pitch": 59,
        "duration": 1.75,
        "velocity": 76
      },
      {
        "pitch": 55,
        "duration": 0.6666666666666666,
        "velocity": 77
      },
      {
        "pitch": 59,
        "duration": 1.5,
        "velocity": 92
      },
      {
        "pitch": 62,
        "duration": 0.75,
        "velocity": 55
      },
      {
        "pitch": 55,
        "duration": 1.0,
        "velocity": 83
      },
      {
        "pitch": 57,
        "duration": 1.0,
        "velocity": 80
      },
      {
        "pitch": 50,
        "duration": 0.5,
        "velocity": 98
      },
      {
        "pitch": 33,
        "duration": 3.0,
        "velocity": 115
      },
      {
        "pitch": 45,
        "duration": 2.75,
        "velocity": 80
      },
      {
        "pitch": 71,
        "duration": 1.0,
        "velocity": 80
      },
      {
        "pitch": 52,
        "duration": 2.3333333333333335,
        "velocity": 76
      }
    ],
    "key": "D major",
    "tempo": 120,
    "name": "129820fe71b310853a333b846db2b951_1.mid_seg106",
    "avg_interval": 9.0,
    "span": 38,
    "note_density": 0.0,
    "register": "bass",
    "complexity": 0.5833333333333334
  },
  {
    "events": [
      {
        "pitch": 61,
        "duration": 1.75,
        "velocity": 62
      },
      {
        "pitch": 55,
        "duration": 2.0,
        "velocity": 61
      },
      {
        "pitch": 69,
        "duration": 2.0,
        "velocity": 80
      },
      {
        "pitch": 61,
        "duration": 0.5,
        "velocity": 102
      },
      {
        "pitch": 64,
        "duration": 0.75,
        "velocity": 85
      },
      {
        "pitch": 67,
        "duration": 1.0,
        "velocity": 47
      },
      {
        "pitch": 64,
        "duration": 0.5,
        "velocity": 86
      },
      {
        "pitch": 40,
        "duration": 2.0,
        "velocity": 115
      },
      {
        "pitch": 45,
        "duration": 3.0,
        "velocity": 95
      },
      {
        "pitch": 69,
        "duration": 3.0,
        "velocity": 80
      },
      {
        "pitch": 52,
        "duration": 2.5,
        "velocity": 93
      },
      {
        "pitch": 55,
        "duration": 2.0,
        "velocity": 61
      },
      {
        "pitch": 61,
        "duration": 1.5,
        "velocity": 107
      },
      {
        "pitch": 28,
        "duration": 1.0,
        "velocity": 100
      },
      {
        "pitch": 67,
        "duration": 1.0,
        "velocity": 57
      },
      {
        "pitch": 64,
        "duration": 0.5,
        "velocity": 96
      }
    ],
    "key": "D major",
    "tempo": 120,
    "name": "129820fe71b310853a333b846db2b951_1.mid_seg107",
    "avg_interval": 12.733333333333333,
    "span": 41,
    "note_density": 0.0,
    "register": "middle",
    "complexity": 0.6666666666666666
  },
  {
    "events": [
      {
        "pitch": 43,
        "duration": 3.0,
        "velocity": 115
      },
      {
        "pitch": 43,
        "duration": 2.75,
        "velocity": 80
      },
      {
        "pitch": 69,
        "duration": 1.0,
        "velocity": 80
      },
      {
        "pitch": 50,
        "duration": 2.3333333333333335,
        "velocity": 76
      },
      {
        "pitch": 59,
        "duration": 2.0,
        "velocity": 59
      },
      {
        "pitch": 55,
        "duration": 2.0,
        "velocity": 61
      },
      {
        "pitch": 59,
        "duration": 0.5,
        "velocity": 102
      },
      {
        "pitch": 62,
        "duration": 1.0,
        "velocity": 66
      },
      {
        "pitch": 67,
        "duration": 1.0,
        "velocity": 47
      },
      {
        "pitch": 62,
        "duration": 0.5,
        "velocity": 86
      },
      {
        "pitch": 38,
        "duration": 3.0,
        "velocity": 115
      },
      {
        "pitch": 43,
        "duration": 3.0,
        "velocity": 95
      },
      {
        "pitch": 50,
        "duration": 2.5,
        "velocity": 93
      },
      {
        "pitch": 59,
        "duration": 1.75,
        "velocity": 76
      },
      {
        "pitch": 55,
        "duration": 2.0,
        "velocity": 61
      },
      {
        "pitch": 59,
        "duration": 1.5,
        "velocity": 107
      }
    ],
    "key": "D major",
    "tempo": 120,
    "name": "129820fe71b310853a333b846db2b951_1.mid_seg108",
    "avg_interval": 8.533333333333333,
    "span": 31,
    "note_density": 0.0,
    "register": "bass",
    "complexity": 0.5703703703703704
  },
  {
    "events": [
      {
        "pitch": 62,
        "duration": 0.75,
        "velocity": 55
      },
      {
        "pitch": 67,
        "duration": 1.0,
        "velocity": 57
      },
      {
        "pitch": 57,
        "duration": 1.0,
        "velocity": 80
      },
      {
        "pitch": 62,
        "duration": 0.5,
        "velocity": 96
      },
      {
        "pitch": 38,
        "duration": 3.0,
        "velocity": 115
      },
      {
        "pitch": 50,
        "duration": 2.75,
        "velocity": 67
      },
      {
        "pitch": 71,
        "duration": 1.0,
        "velocity": 80
      },
      {
        "pitch": 57,
        "duration": 1.75,
        "velocity": 75
      },
      {
        "pitch": 66,
        "duration": 2.0,
        "velocity": 59
      },
      {
        "pitch": 62,
        "duration": 0.6666666666666666,
        "velocity": 57
      },
      {
        "pitch": 73,
        "duration": 2.0,
        "velocity": 80
      },
      {
        "pitch": 66,
        "duration": 1.5,
        "velocity": 72
      },
      {
        "pitch": 69,
        "duration": 1.0,
        "velocity": 66
      },
      {
        "pitch": 62,
        "duration": 1.0,
        "velocity": 54
      },
      {
        "pitch": 57,
        "duration": 0.5,
        "velocity": 81
      },
      {
        "pitch": 42,
        "duration": 3.0,
        "velocity": 115
      }
    ],
    "key": "D major",
    "tempo": 120,
    "name": "129820fe71b310853a333b846db2b951_1.mid_seg109",
    "avg_interval": 10.133333333333333,
    "span": 35,
    "note_density": 0.0,
    "register": "middle",
    "complexity": 0.6148148148148148
  },
  {
    "events": [
      {
        "pitch": 42,
        "duration": 2.75,
        "velocity": 80
      },
      {
        "pitch": 69,
        "duration": 3.0,
        "velocity": 80
      },
      {
        "pitch": 49,
        "duration": 2.3333333333333335,
        "velocity": 76
      },
      {
        "pitch": 58,
        "duration": 2.0,
        "velocity": 59
      },
      {
        "pitch": 54,
        "duration": 2.0,
        "velocity": 61
      },
      {
        "pitch": 58,
        "duration": 0.5,
        "velocity": 102
      },
      {
        "pitch": 61,
        "duration": 1.0,
        "velocity": 66
      },
      {
        "pitch": 66,
        "duration": 1.0,
        "velocity": 47
      },
      {
        "pitch": 61,
        "duration": 0.5,
        "velocity": 86
      },
      {
        "pitch": 35,
        "duration": 3.0,
        "velocity": 115
      },
      {
        "pitch": 47,
        "duration": 2.75,
        "velocity": 67
      },
      {
        "pitch": 66,
        "duration": 2.0,
        "velocity": 80
      },
      {
        "pitch": 54,
        "duration": 1.75,
        "velocity": 75
      },
      {
        "pitch": 62,
        "duration": 2.0,
        "velocity": 59
      },
      {
        "pitch": 59,
        "duration": 0.6666666666666666,
        "velocity": 57
      },
      {
        "pitch": 62,
        "duration": 1.5,
        "velocity": 72
      }
    ],
    "key": "D major",
    "tempo": 120,
    "name": "129820fe71b310853a333b846db2b951_1.mid_seg110",
    "avg_interval": 10.666666666666666,
    "span": 34,
    "note_density": 0.0,
    "register": "middle",
    "complexity": 0.6296296296296297
  },
  {
    "events": [
      {
        "pitch": 66,
        "duration": 1.0,
        "velocity": 66
      },
      {
        "pitch": 59,
        "duration": 1.0,
        "velocity": 54
      },
      {
        "pitch": 64,
        "duration": 1.0,
        "velocity": 80
      },
      {
        "pitch": 54,
        "duration": 0.5,
        "velocity": 81
      },
      {
        "pitch": 33,
        "duration": 3.0,
        "velocity": 115
      },
      {
        "pitch": 45,
        "duration": 2.75,
        "velocity": 80
      },
      {
        "pitch": 62,
        "duration": 3.0,
        "velocity": 80
      },
      {
        "pitch": 54,
        "duration": 2.3333333333333335,
        "velocity": 76
      },
      {
        "pitch": 62,
        "duration": 2.0,
        "velocity": 59
      },
      {
        "pitch": 59,
        "duration": 2.0,
        "velocity": 61
      },
      {
        "pitch": 62,
        "duration": 0.5,
        "velocity": 102
      },
      {
        "pitch": 66,
        "duration": 1.0,
        "velocity": 66
      },
      {
        "pitch": 71,
        "duration": 1.0,
        "velocity": 47
      },
      {
        "pitch": 66,
        "duration": 0.5,
        "velocity": 86
      },
      {
        "pitch": 40,
        "duration": 3.0,
        "velocity": 115
      },
      {
        "pitch": 52,
        "duration": 2.75,
        "velocity": 80
      }
    ],
    "key": "D major",
    "tempo": 120,
    "name": "129820fe71b310853a333b846db2b951_1.mid_seg111",
    "avg_interval": 9.733333333333333,
    "span": 38,
    "note_density": 0.0,
    "register": "middle",
    "complexity": 0.6037037037037036
  },
  {
    "events": [
      {
        "pitch": 62,
        "duration": 3.0,
        "velocity": 80
      },
      {
        "pitch": 59,
        "duration": 2.3333333333333335,
        "velocity": 76
      },
      {
        "pitch": 68,
        "duration": 1.75,
        "velocity": 62
      },
      {
        "pitch": 62,
        "duration": 2.0,
        "velocity": 61
      },
      {
        "pitch": 68,
        "duration": 0.5,
        "velocity": 102
      },
      {
        "pitch": 71,
        "duration": 0.75,
        "velocity": 85
      },
      {
        "pitch": 74,
        "duration": 1.0,
        "velocity": 47
      },
      {
        "pitch": 71,
        "duration": 0.5,
        "velocity": 86
      },
      {
        "pitch": 47,
        "duration": 2.0,
        "velocity": 115
      },
      {
        "pitch": 52,
        "duration": 3.0,
        "velocity": 95
      },
      {
        "pitch": 59,
        "duration": 2.5,
        "velocity": 93
      },
      {
        "pitch": 62,
        "duration": 2.0,
        "velocity": 61
      },
      {
        "pitch": 68,
        "duration": 1.5,
        "velocity": 107
      },
      {
        "pitch": 35,
        "duration": 1.0,
        "velocity": 100
      },
      {
        "pitch": 74,
        "duration": 1.0,
        "velocity": 57
      },
      {
        "pitch": 66,
        "duration": 0.5,
        "velocity": 80
      }
    ],
    "key": "D major",
    "tempo": 120,
    "name": "129820fe71b310853a333b846db2b951_1.mid_seg112",
    "avg_interval": 10.533333333333333,
    "span": 39,
    "note_density": 0.0,
    "register": "middle",
    "complexity": 0.6259259259259259
  },
  {
    "events": [
      {
        "pitch": 71,
        "duration": 0.5,
        "velocity": 96
      },
      {
        "pitch": 66,
        "duration": 0.5,
        "velocity": 80
      },
      {
        "pitch": 33,
        "duration": 3.0,
        "velocity": 115
      },
      {
        "pitch": 45,
        "duration": 2.75,
        "velocity": 75
      },
      {
        "pitch": 66,
        "duration": 0.25,
        "velocity": 80
      },
      {
        "pitch": 52,
        "duration": 2.3333333333333335,
        "velocity": 63
      },
      {
        "pitch": 62,
        "duration": 2.0,
        "velocity": 59
      },
      {
        "pitch": 55,
        "duration": 2.0,
        "velocity": 56
      },
      {
        "pitch": 64,
        "duration": 1.0,
        "velocity": 80
      },
      {
        "pitch": 62,
        "duration": 1.5,
        "velocity": 95
      },
      {
        "pitch": 64,
        "duration": 1.0,
        "velocity": 66
      },
      {
        "pitch": 64,
        "duration": 1.0,
        "velocity": 82
      },
      {
        "pitch": 62,
        "duration": 1.0,
        "velocity": 80
      },
      {
        "pitch": 67,
        "duration": 0.5,
        "velocity": 71
      },
      {
        "pitch": 40,
        "duration": 3.0,
        "velocity": 115
      },
      {
        "pitch": 45,
        "duration": 3.0,
        "velocity": 107
      }
    ],
    "key": "D major",
    "tempo": 120,
    "name": "129820fe71b310853a333b846db2b951_1.mid_seg113",
    "avg_interval": 10.266666666666667,
    "span": 38,
    "note_density": 0.0,
    "register": "middle",
    "complexity": 0.6185185185185186
  },
  {
    "events": [
      {
        "pitch": 67,
        "duration": 0.16666666666666666,
        "velocity": 71
      },
      {
        "pitch": 64,
        "duration": 3.0,
        "velocity": 80
      },
      {
        "pitch": 52,
        "duration": 2.5,
        "velocity": 70
      },
      {
        "pitch": 62,
        "duration": 1.75,
        "velocity": 76
      },
      {
        "pitch": 55,
        "duration": 2.0,
        "velocity": 66
      },
      {
        "pitch": 62,
        "duration": 1.5,
        "velocity": 103
      },
      {
        "pitch": 64,
        "duration": 0.75,
        "velocity": 55
      },
      {
        "pitch": 64,
        "duration": 1.0,
        "velocity": 98
      },
      {
        "pitch": 67,
        "duration": 0.5,
        "velocity": 77
      },
      {
        "pitch": 33,
        "duration": 3.0,
        "velocity": 115
      },
      {
        "pitch": 45,
        "duration": 2.75,
        "velocity": 75
      },
      {
        "pitch": 64,
        "duration": 3.0,
        "velocity": 80
      },
      {
        "pitch": 52,
        "duration": 2.3333333333333335,
        "velocity": 63
      },
      {
        "pitch": 61,
        "duration": 1.75,
        "velocity": 62
      },
      {
        "pitch": 55,
        "duration": 2.0,
        "velocity": 56
      },
      {
        "pitch": 61,
        "duration": 1.5,
        "velocity": 95
      }
    ],
    "key": "D major",
    "tempo": 120,
    "name": "129820fe71b310853a333b846db2b951_1.mid_seg114",
    "avg_interval": 9.466666666666667,
    "span": 34,
    "note_density": 0.0,
    "register": "middle",
    "complexity": 0.5962962962962962
  },
  {
    "events": [
      {
        "pitch": 64,
        "duration": 0.75,
        "velocity": 85
      },
      {
        "pitch": 64,
        "duration": 1.0,
        "velocity": 82
      },
      {
        "pitch": 67,
        "duration": 0.5,
        "velocity": 71
      },
      {
        "pitch": 33,
        "duration": 1.0,
        "velocity": 115
      },
      {
        "pitch": 45,
        "duration": 3.0,
        "velocity": 107
      },
      {
        "pitch": 67,
        "duration": 0.16666666666666666,
        "velocity": 71
      },
      {
        "pitch": 52,
        "duration": 2.5,
        "velocity": 70
      },
      {
        "pitch": 40,
        "duration": 1.0,
        "velocity": 90
      },
      {
        "pitch": 55,
        "duration": 2.0,
        "velocity": 66
      },
      {
        "pitch": 61,
        "duration": 1.5,
        "velocity": 103
      },
      {
        "pitch": 33,
        "duration": 1.0,
        "velocity": 100
      },
      {
        "pitch": 64,
        "duration": 1.0,
        "velocity": 98
      },
      {
        "pitch": 67,
        "duration": 0.5,
        "velocity": 77
      },
      {
        "pitch": 35,
        "duration": 2.0,
        "velocity": 115
      },
      {
        "pitch": 47,
        "duration": 2.75,
        "velocity": 75
      },
      {
        "pitch": 59,
        "duration": 3.0,
        "velocity": 80
      }
    ],
    "key": "D major",
    "tempo": 120,
    "name": "129820fe71b310853a333b846db2b951_1.mid_seg115",
    "avg_interval": 15.8,
    "span": 34,
    "note_density": 0.0,
    "register": "bass",
    "complexity": 0.6666666666666666
  },
  {
    "events": [
      {
        "pitch": 54,
        "duration": 2.3333333333333335,
        "velocity": 63
      },
      {
        "pitch": 62,
        "duration": 2.0,
        "velocity": 59
      },
      {
        "pitch": 59,
        "duration": 2.0,
        "velocity": 56
      },
      {
        "pitch": 62,
        "duration": 1.5,
        "velocity": 95
      },
      {
        "pitch": 35,
        "duration": 1.0,
        "velocity": 100
      },
      {
        "pitch": 66,
        "duration": 1.0,
        "velocity": 66
      },
      {
        "pitch": 66,
        "duration": 1.0,
        "velocity": 82
      },
      {
        "pitch": 71,
        "duration": 0.5,
        "velocity": 71
      },
      {
        "pitch": 30,
        "duration": 2.0,
        "velocity": 115
      },
      {
        "pitch": 47,
        "duration": 3.0,
        "velocity": 107
      },
      {
        "pitch": 71,
        "duration": 0.16666666666666666,
        "velocity": 71
      },
      {
        "pitch": 59,
        "duration": 3.0,
        "velocity": 80
      },
      {
        "pitch": 71,
        "duration": 0.5,
        "velocity": 80
      },
      {
        "pitch": 54,
        "duration": 2.5,
        "velocity": 70
      },
      {
        "pitch": 71,
        "duration": 0.5,
        "velocity": 80
      },
      {
        "pitch": 62,
        "duration": 1.75,
        "velocity": 76
      }
    ],
    "key": "D major",
    "tempo": 120,
    "name": "129820fe71b310853a333b846db2b951_1.mid_seg116",
    "avg_interval": 15.066666666666666,
    "span": 41,
    "note_density": 0.0,
    "register": "middle",
    "complexity": 0.6666666666666666
  },
  {
    "events": [
      {
        "pitch": 59,
        "duration": 2.0,
        "velocity": 66
      },
      {
        "pitch": 71,
        "duration": 0.25,
        "velocity": 80
      },
      {
        "pitch": 62,
        "duration": 1.5,
        "velocity": 103
      },
      {
        "pitch": 35,
        "duration": 1.0,
        "velocity": 115
      },
      {
        "pitch": 66,
        "duration": 0.75,
        "velocity": 55
      },
      {
        "pitch": 66,
        "duration": 1.0,
        "velocity": 98
      },
      {
        "pitch": 73,
        "duration": 1.0,
        "velocity": 80
      },
      {
        "pitch": 71,
        "duration": 0.5,
        "velocity": 77
      },
      {
        "pitch": 33,
        "duration": 2.0,
        "velocity": 115
      },
      {
        "pitch": 45,
        "duration": 2.75,
        "velocity": 80
      },
      {
        "pitch": 69,
        "duration": 0.5,
        "velocity": 80
      },
      {
        "pitch": 52,
        "duration": 2.3333333333333335,
        "velocity": 76
      },
      {
        "pitch": 66,
        "duration": 0.5,
        "velocity": 80
      },
      {
        "pitch": 61,
        "duration": 2.0,
        "velocity": 59
      },
      {
        "pitch": 57,
        "duration": 2.0,
        "velocity": 61
      },
      {
        "pitch": 73,
        "duration": 2.0,
        "velocity": 51
      }
    ],
    "key": "D major",
    "tempo": 120,
    "name": "129820fe71b310853a333b846db2b951_1.mid_seg117",
    "avg_interval": 14.533333333333333,
    "span": 40,
    "note_density": 0.0,
    "register": "middle",
    "complexity": 0.6666666666666666
  },
  {
    "events": [
      {
        "pitch": 64,
        "duration": 2.0,
        "velocity": 80
      },
      {
        "pitch": 61,
        "duration": 0.5,
        "velocity": 102
      },
      {
        "pitch": 33,
        "duration": 1.0,
        "velocity": 100
      },
      {
        "pitch": 64,
        "duration": 1.0,
        "velocity": 66
      },
      {
        "pitch": 69,
        "duration": 1.0,
        "velocity": 47
      },
      {
        "pitch": 76,
        "duration": 1.0,
        "velocity": 34
      },
      {
        "pitch": 81,
        "duration": 1.0,
        "velocity": 27
      },
      {
        "pitch": 64,
        "duration": 0.5,
        "velocity": 86
      },
      {
        "pitch": 40,
        "duration": 2.0,
        "velocity": 115
      },
      {
        "pitch": 45,
        "duration": 3.0,
        "velocity": 95
      },
      {
        "pitch": 81,
        "duration": 0.5,
        "velocity": 27
      },
      {
        "pitch": 64,
        "duration": 1.0,
        "velocity": 80
      },
      {
        "pitch": 52,
        "duration": 2.5,
        "velocity": 93
      },
      {
        "pitch": 61,
        "duration": 1.75,
        "velocity": 76
      },
      {
        "pitch": 57,
        "duration": 2.0,
        "velocity": 61
      },
      {
        "pitch": 73,
        "duration": 2.0,
        "velocity": 60
      }
    ],
    "key": "D major",
    "tempo": 120,
    "name": "129820fe71b310853a333b846db2b951_1.mid_seg118",
    "avg_interval": 14.6,
    "span": 48,
    "note_density": 0.0,
    "register": "middle",
    "complexity": 0.6666666666666666
  },
  {
    "events": [
      {
        "pitch": 61,
        "duration": 1.5,
        "velocity": 107
      },
      {
        "pitch": 33,
        "duration": 1.0,
        "velocity": 115
      },
      {
        "pitch": 64,
        "duration": 0.75,
        "velocity": 55
      },
      {
        "pitch": 69,
        "duration": 1.0,
        "velocity": 57
      },
      {
        "pitch": 64,
        "duration": 0.5,
        "velocity": 96
      },
      {
        "pitch": 35,
        "duration": 2.0,
        "velocity": 115
      },
      {
        "pitch": 47,
        "duration": 2.75,
        "velocity": 67
      },
      {
        "pitch": 59,
        "duration": 3.0,
        "velocity": 80
      },
      {
        "pitch": 54,
        "duration": 1.75,
        "velocity": 75
      },
      {
        "pitch": 62,
        "duration": 2.0,
        "velocity": 59
      },
      {
        "pitch": 59,
        "duration": 0.6666666666666666,
        "velocity": 57
      },
      {
        "pitch": 62,
        "duration": 1.5,
        "velocity": 72
      },
      {
        "pitch": 35,
        "duration": 1.0,
        "velocity": 100
      },
      {
        "pitch": 66,
        "duration": 1.0,
        "velocity": 66
      },
      {
        "pitch": 59,
        "duration": 1.0,
        "velocity": 54
      },
      {
        "pitch": 54,
        "duration": 0.5,
        "velocity": 81
      }
    ],
    "key": "D major",
    "tempo": 120,
    "name": "129820fe71b310853a333b846db2b951_1.mid_seg119",
    "avg_interval": 14.066666666666666,
    "span": 36,
    "note_density": 0.0,
    "register": "middle",
    "complexity": 0.6666666666666666
  },
  {
    "events": [
      {
        "pitch": 30,
        "duration": 2.0,
        "velocity": 115
      },
      {
        "pitch": 47,
        "duration": 3.0,
        "velocity": 107
      },
      {
        "pitch": 62,
        "duration": 1.25,
        "velocity": 72
      },
      {
        "pitch": 59,
        "duration": 1.0,
        "velocity": 54
      },
      {
        "pitch": 54,
        "duration": 0.25,
        "velocity": 81
      },
      {
        "pitch": 59,
        "duration": 3.0,
        "velocity": 80
      },
      {
        "pitch": 71,
        "duration": 0.5,
        "velocity": 80
      },
      {
        "pitch": 54,
        "duration": 1.75,
        "velocity": 98
      },
      {
        "pitch": 71,
        "duration": 0.5,
        "velocity": 80
      },
      {
        "pitch": 62,
        "duration": 1.75,
        "velocity": 76
      },
      {
        "pitch": 59,
        "duration": 0.6666666666666666,
        "velocity": 77
      },
      {
        "pitch": 71,
        "duration": 0.25,
        "velocity": 80
      },
      {
        "pitch": 62,
        "duration": 1.5,
        "velocity": 92
      },
      {
        "pitch": 35,
        "duration": 1.0,
        "velocity": 115
      },
      {
        "pitch": 66,
        "duration": 0.75,
        "velocity": 55
      },
      {
        "pitch": 59,
        "duration": 1.0,
        "velocity": 83
      }
    ],
    "key": "D major",
    "tempo": 120,
    "name": "129820fe71b310853a333b846db2b951_1.mid_seg120",
    "avg_interval": 12.6,
    "span": 41,
    "note_density": 0.0,
    "register": "middle",
    "complexity": 0.6666666666666666
  },
  {
    "events": [
      {
        "pitch": 73,
        "duration": 1.0,
        "velocity": 80
      },
      {
        "pitch": 54,
        "duration": 0.5,
        "velocity": 98
      },
      {
        "pitch": 33,
        "duration": 2.0,
        "velocity": 115
      },
      {
        "pitch": 45,
        "duration": 2.75,
        "velocity": 80
      },
      {
        "pitch": 69,
        "duration": 0.5,
        "velocity": 80
      },
      {
        "pitch": 52,
        "duration": 2.3333333333333335,
        "velocity": 76
      },
      {
        "pitch": 66,
        "duration": 0.5,
        "velocity": 80
      },
      {
        "pitch": 61,
        "duration": 1.75,
        "velocity": 62
      },
      {
        "pitch": 57,
        "duration": 2.0,
        "velocity": 61
      },
      {
        "pitch": 81,
        "duration": 2.0,
        "velocity": 27
      },
      {
        "pitch": 64,
        "duration": 2.0,
        "velocity": 80
      },
      {
        "pitch": 61,
        "duration": 0.5,
        "velocity": 102
      },
      {
        "pitch": 33,
        "duration": 1.0,
        "velocity": 100
      },
      {
        "pitch": 64,
        "duration": 0.75,
        "velocity": 85
      },
      {
        "pitch": 69,
        "duration": 1.0,
        "velocity": 47
      },
      {
        "pitch": 64,
        "duration": 0.5,
        "velocity": 86
      }
    ],
    "key": "D major",
    "tempo": 120,
    "name": "129820fe71b310853a333b846db2b951_1.mid_seg121",
    "avg_interval": 15.266666666666667,
    "span": 48,
    "note_density": 0.0,
    "register": "middle",
    "complexity": 0.6666666666666666
  },
  {
    "events": [
      {
        "pitch": 40,
        "duration": 2.0,
        "velocity": 115
      },
      {
        "pitch": 45,
        "duration": 3.0,
        "velocity": 95
      },
      {
        "pitch": 64,
        "duration": 1.0,
        "velocity": 80
      },
      {
        "pitch": 52,
        "duration": 2.5,
        "velocity": 93
      },
      {
        "pitch": 57,
        "duration": 2.0,
        "velocity": 61
      },
      {
        "pitch": 81,
        "duration": 1.75,
        "velocity": 38
      },
      {
        "pitch": 61,
        "duration": 1.5,
        "velocity": 107
      },
      {
        "pitch": 33,
        "duration": 1.0,
        "velocity": 115
      },
      {
        "pitch": 69,
        "duration": 1.0,
        "velocity": 57
      },
      {
        "pitch": 64,
        "duration": 0.5,
        "velocity": 96
      },
      {
        "pitch": 35,
        "duration": 2.0,
        "velocity": 115
      },
      {
        "pitch": 47,
        "duration": 2.75,
        "velocity": 80
      },
      {
        "pitch": 59,
        "duration": 3.0,
        "velocity": 80
      },
      {
        "pitch": 54,
        "duration": 2.3333333333333335,
        "velocity": 76
      },
      {
        "pitch": 62,
        "duration": 2.0,
        "velocity": 59
      },
      {
        "pitch": 59,
        "duration": 2.0,
        "velocity": 61
      }
    ],
    "key": "D major",
    "tempo": 120,
    "name": "129820fe71b310853a333b846db2b951_1.mid_seg122",
    "avg_interval": 14.866666666666667,
    "span": 48,
    "note_density": 0.0,
    "register": "middle",
    "complexity": 0.6666666666666666
  },
  {
    "events": [
      {
        "pitch": 62,
        "duration": 0.5,
        "velocity": 102
      },
      {
        "pitch": 35,
        "duration": 1.0,
        "velocity": 100
      },
      {
        "pitch": 66,
        "duration": 1.0,
        "velocity": 66
      },
      {
        "pitch": 71,
        "duration": 1.0,
        "velocity": 47
      },
      {
        "pitch": 66,
        "duration": 0.5,
        "velocity": 86
      },
      {
        "pitch": 30,
        "duration": 2.0,
        "velocity": 115
      },
      {
        "pitch": 47,
        "duration": 3.0,
        "velocity": 95
      },
      {
        "pitch": 59,
        "duration": 3.0,
        "velocity": 80
      },
      {
        "pitch": 71,
        "duration": 0.5,
        "velocity": 80
      },
      {
        "pitch": 54,
        "duration": 2.5,
        "velocity": 93
      },
      {
        "pitch": 71,
        "duration": 0.5,
        "velocity": 80
      },
      {
        "pitch": 62,
        "duration": 1.75,
        "velocity": 76
      },
      {
        "pitch": 59,
        "duration": 2.0,
        "velocity": 61
      },
      {
        "pitch": 71,
        "duration": 0.25,
        "velocity": 80
      },
      {
        "pitch": 62,
        "duration": 1.5,
        "velocity": 107
      },
      {
        "pitch": 35,
        "duration": 1.0,
        "velocity": 115
      }
    ],
    "key": "D major",
    "tempo": 120,
    "name": "129820fe71b310853a333b846db2b951_1.mid_seg123",
    "avg_interval": 15.933333333333334,
    "span": 41,
    "note_density": 0.0,
    "register": "middle",
    "complexity": 0.6666666666666666
  },
  {
    "events": [
      {
        "pitch": 66,
        "duration": 0.75,
        "velocity": 55
      },
      {
        "pitch": 71,
        "duration": 1.0,
        "velocity": 57
      },
      {
        "pitch": 73,
        "duration": 1.0,
        "velocity": 80
      },
      {
        "pitch": 66,
        "duration": 0.5,
        "velocity": 96
      },
      {
        "pitch": 33,
        "duration": 2.0,
        "velocity": 115
      },
      {
        "pitch": 45,
        "duration": 2.75,
        "velocity": 80
      },
      {
        "pitch": 69,
        "duration": 0.5,
        "velocity": 80
      },
      {
        "pitch": 52,
        "duration": 2.3333333333333335,
        "velocity": 76
      },
      {
        "pitch": 66,
        "duration": 0.5,
        "velocity": 80
      },
      {
        "pitch": 61,
        "duration": 2.0,
        "velocity": 59
      },
      {
        "pitch": 57,
        "duration": 2.0,
        "velocity": 61
      },
      {
        "pitch": 73,
        "duration": 1.75,
        "velocity": 31
      },
      {
        "pitch": 64,
        "duration": 2.0,
        "velocity": 80
      },
      {
        "pitch": 61,
        "duration": 0.5,
        "velocity": 102
      },
      {
        "pitch": 33,
        "duration": 1.0,
        "velocity": 100
      },
      {
        "pitch": 64,
        "duration": 1.0,
        "velocity": 66
      }
    ],
    "key": "D major",
    "tempo": 120,
    "name": "129820fe71b310853a333b846db2b951_1.mid_seg124",
    "avg_interval": 14.0,
    "span": 40,
    "note_density": 0.0,
    "register": "middle",
    "complexity": 0.6666666666666666
  },
  {
    "events": [
      {
        "pitch": 69,
        "duration": 1.0,
        "velocity": 47
      },
      {
        "pitch": 64,
        "duration": 0.5,
        "velocity": 86
      },
      {
        "pitch": 40,
        "duration": 2.0,
        "velocity": 115
      },
      {
        "pitch": 45,
        "duration": 3.0,
        "velocity": 95
      },
      {
        "pitch": 64,
        "duration": 1.0,
        "velocity": 80
      },
      {
        "pitch": 52,
        "duration": 2.5,
        "velocity": 93
      },
      {
        "pitch": 61,
        "duration": 1.75,
        "velocity": 76
      },
      {
        "pitch": 57,
        "duration": 2.0,
        "velocity": 61
      },
      {
        "pitch": 61,
        "duration": 1.5,
        "velocity": 107
      },
      {
        "pitch": 33,
        "duration": 1.0,
        "velocity": 115
      },
      {
        "pitch": 64,
        "duration": 0.75,
        "velocity": 55
      },
      {
        "pitch": 69,
        "duration": 1.0,
        "velocity": 57
      },
      {
        "pitch": 64,
        "duration": 0.5,
        "velocity": 96
      },
      {
        "pitch": 38,
        "duration": 2.0,
        "velocity": 115
      },
      {
        "pitch": 50,
        "duration": 2.75,
        "velocity": 75
      },
      {
        "pitch": 62,
        "duration": 3.0,
        "velocity": 80
      }
    ],
    "key": "D major",
    "tempo": 120,
    "name": "129820fe71b310853a333b846db2b951_1.mid_seg125",
    "avg_interval": 13.4,
    "span": 36,
    "note_density": 0.0,
    "register": "middle",
    "complexity": 0.6666666666666666
  },
  {
    "events": [
      {
        "pitch": 62,
        "duration": 3.0,
        "velocity": 80
      },
      {
        "pitch": 57,
        "duration": 2.3333333333333335,
        "velocity": 63
      },
      {
        "pitch": 66,
        "duration": 2.0,
        "velocity": 59
      },
      {
        "pitch": 62,
        "duration": 2.0,
        "velocity": 56
      },
      {
        "pitch": 66,
        "duration": 1.5,
        "velocity": 95
      },
      {
        "pitch": 38,
        "duration": 1.0,
        "velocity": 100
      },
      {
        "pitch": 69,
        "duration": 1.0,
        "velocity": 66
      },
      {
        "pitch": 69,
        "duration": 1.0,
        "velocity": 82
      },
      {
        "pitch": 74,
        "duration": 0.5,
        "velocity": 71
      },
      {
        "pitch": 37,
        "duration": 2.0,
        "velocity": 115
      },
      {
        "pitch": 49,
        "duration": 2.75,
        "velocity": 67
      },
      {
        "pitch": 62,
        "duration": 3.0,
        "velocity": 80
      },
      {
        "pitch": 57,
        "duration": 1.75,
        "velocity": 75
      },
      {
        "pitch": 66,
        "duration": 2.0,
        "velocity": 59
      },
      {
        "pitch": 62,
        "duration": 0.6666666666666666,
        "velocity": 57
      },
      {
        "pitch": 66,
        "duration": 1.5,
        "velocity": 72
      }
    ],
    "key": "D major",
    "tempo": 120,
    "name": "129820fe71b310853a333b846db2b951_1.mid_seg126",
    "avg_interval": 11.333333333333334,
    "span": 37,
    "note_density": 0.0,
    "register": "middle",
    "complexity": 0.6481481481481483
  },
  {
    "events": [
      {
        "pitch": 37,
        "duration": 1.0,
        "velocity": 100
      },
      {
        "pitch": 69,
        "duration": 1.0,
        "velocity": 66
      },
      {
        "pitch": 62,
        "duration": 1.0,
        "velocity": 54
      },
      {
        "pitch": 57,
        "duration": 0.5,
        "velocity": 81
      },
      {
        "pitch": 35,
        "duration": 1.0,
        "velocity": 115
      },
      {
        "pitch": 47,
        "duration": 2.75,
        "velocity": 80
      },
      {
        "pitch": 57,
        "duration": 2.3333333333333335,
        "velocity": 76
      },
      {
        "pitch": 45,
        "duration": 1.0,
        "velocity": 100
      },
      {
        "pitch": 66,
        "duration": 2.0,
        "velocity": 59
      },
      {
        "pitch": 64,
        "duration": 2.0,
        "velocity": 61
      },
      {
        "pitch": 78,
        "duration": 2.0,
        "velocity": 51
      },
      {
        "pitch": 66,
        "duration": 0.5,
        "velocity": 102
      },
      {
        "pitch": 33,
        "duration": 1.0,
        "velocity": 100
      },
      {
        "pitch": 69,
        "duration": 1.0,
        "velocity": 66
      },
      {
        "pitch": 76,
        "duration": 1.0,
        "velocity": 47
      },
      {
        "pitch": 69,
        "duration": 0.5,
        "velocity": 86
      }
    ],
    "key": "D major",
    "tempo": 120,
    "name": "129820fe71b310853a333b846db2b951_1.mid_seg127",
    "avg_interval": 15.466666666666667,
    "span": 45,
    "note_density": 0.0,
    "register": "middle",
    "complexity": 0.6666666666666666
  },
  {
    "events": [
      {
        "pitch": 38,
        "duration": 1.0,
        "velocity": 115
      },
      {
        "pitch": 50,
        "duration": 2.75,
        "velocity": 80
      },
      {
        "pitch": 57,
        "duration": 2.3333333333333335,
        "velocity": 76
      },
      {
        "pitch": 45,
        "duration": 1.0,
        "velocity": 100
      },
      {
        "pitch": 62,
        "duration": 2.0,
        "velocity": 61
      },
      {
        "pitch": 66,
        "duration": 0.5,
        "velocity": 102
      },
      {
        "pitch": 37,
        "duration": 1.0,
        "velocity": 115
      },
      {
        "pitch": 74,
        "duration": 1.0,
        "velocity": 47
      },
      {
        "pitch": 69,
        "duration": 0.5,
        "velocity": 86
      },
      {
        "pitch": 38,
        "duration": 3.0,
        "velocity": 115
      },
      {
        "pitch": 50,
        "duration": 2.75,
        "velocity": 67
      },
      {
        "pitch": 57,
        "duration": 1.75,
        "velocity": 75
      },
      {
        "pitch": 66,
        "duration": 2.0,
        "velocity": 59
      },
      {
        "pitch": 62,
        "duration": 0.6666666666666666,
        "velocity": 57
      },
      {
        "pitch": 66,
        "duration": 1.5,
        "velocity": 72
      },
      {
        "pitch": 69,
        "duration": 1.0,
        "velocity": 66
      }
    ],
    "key": "D major",
    "tempo": 120,
    "name": "129820fe71b310853a333b846db2b951_1.mid_seg128",
    "avg_interval": 12.866666666666667,
    "span": 37,
    "note_density": 0.0,
    "register": "middle",
    "complexity": 0.6666666666666666
  },
  {
    "events": [
      {
        "pitch": 62,
        "duration": 1.0,
        "velocity": 54
      },
      {
        "pitch": 57,
        "duration": 1.0,
        "velocity": 80
      },
      {
        "pitch": 57,
        "duration": 0.5,
        "velocity": 81
      },
      {
        "pitch": 37,
        "duration": 3.0,
        "velocity": 115
      },
      {
        "pitch": 49,
        "duration": 2.75,
        "velocity": 80
      },
      {
        "pitch": 66,
        "duration": 0.5,
        "velocity": 80
      },
      {
        "pitch": 57,
        "duration": 2.3333333333333335,
        "velocity": 76
      },
      {
        "pitch": 64,
        "duration": 0.5,
        "velocity": 80
      },
      {
        "pitch": 66,
        "duration": 2.0,
        "velocity": 59
      },
      {
        "pitch": 62,
        "duration": 2.0,
        "velocity": 61
      },
      {
        "pitch": 66,
        "duration": 1.0,
        "velocity": 80
      },
      {
        "pitch": 66,
        "duration": 0.5,
        "velocity": 102
      },
      {
        "pitch": 69,
        "duration": 1.0,
        "velocity": 66
      },
      {
        "pitch": 74,
        "duration": 1.0,
        "velocity": 47
      },
      {
        "pitch": 64,
        "duration": 1.0,
        "velocity": 80
      },
      {
        "pitch": 69,
        "duration": 0.5,
        "velocity": 86
      }
    ],
    "key": "D major",
    "tempo": 120,
    "name": "129820fe71b310853a333b846db2b951_1.mid_seg129",
    "avg_interval": 6.866666666666666,
    "span": 37,
    "note_density": 0.0,
    "register": "middle",
    "complexity": 0.524074074074074
  },
  {
    "events": [
      {
        "pitch": 35,
        "duration": 3.0,
        "velocity": 115
      },
      {
        "pitch": 47,
        "duration": 2.75,
        "velocity": 80
      },
      {
        "pitch": 66,
        "duration": 0.5,
        "velocity": 80
      },
      {
        "pitch": 57,
        "duration": 2.3333333333333335,
        "velocity": 76
      },
      {
        "pitch": 64,
        "duration": 0.5,
        "velocity": 80
      },
      {
        "pitch": 66,
        "duration": 2.0,
        "velocity": 59
      },
      {
        "pitch": 62,
        "duration": 2.0,
        "velocity": 61
      },
      {
        "pitch": 66,
        "duration": 1.0,
        "velocity": 80
      },
      {
        "pitch": 66,
        "duration": 0.5,
        "velocity": 102
      },
      {
        "pitch": 69,
        "duration": 1.0,
        "velocity": 66
      },
      {
        "pitch": 74,
        "duration": 1.0,
        "velocity": 47
      },
      {
        "pitch": 64,
        "duration": 1.0,
        "velocity": 80
      },
      {
        "pitch": 69,
        "duration": 0.5,
        "velocity": 86
      },
      {
        "pitch": 38,
        "duration": 3.0,
        "velocity": 115
      },
      {
        "pitch": 50,
        "duration": 2.75,
        "velocity": 80
      },
      {
        "pitch": 66,
        "duration": 0.5,
        "velocity": 80
      }
    ],
    "key": "D major",
    "tempo": 120,
    "name": "129820fe71b310853a333b846db2b951_1.mid_seg130",
    "avg_interval": 9.266666666666667,
    "span": 39,
    "note_density": 0.0,
    "register": "middle",
    "complexity": 0.5907407407407407
  },
  {
    "events": [
      {
        "pitch": 57,
        "duration": 2.3333333333333335,
        "velocity": 76
      },
      {
        "pitch": 64,
        "duration": 0.5,
        "velocity": 80
      },
      {
        "pitch": 66,
        "duration": 2.0,
        "velocity": 59
      },
      {
        "pitch": 60,
        "duration": 2.0,
        "velocity": 61
      },
      {
        "pitch": 62,
        "duration": 2.0,
        "velocity": 80
      },
      {
        "pitch": 66,
        "duration": 0.5,
        "velocity": 102
      },
      {
        "pitch": 69,
        "duration": 1.0,
        "velocity": 66
      },
      {
        "pitch": 72,
        "duration": 1.0,
        "velocity": 47
      },
      {
        "pitch": 69,
        "duration": 0.5,
        "velocity": 86
      },
      {
        "pitch": 43,
        "duration": 3.0,
        "velocity": 115
      },
      {
        "pitch": 43,
        "duration": 2.75,
        "velocity": 80
      },
      {
        "pitch": 62,
        "duration": 2.0,
        "velocity": 80
      },
      {
        "pitch": 50,
        "duration": 2.3333333333333335,
        "velocity": 76
      },
      {
        "pitch": 59,
        "duration": 2.0,
        "velocity": 59
      },
      {
        "pitch": 55,
        "duration": 2.0,
        "velocity": 61
      },
      {
        "pitch": 59,
        "duration": 0.5,
        "velocity": 102
      }
    ],
    "key": "D major",
    "tempo": 120,
    "name": "129820fe71b310853a333b846db2b951_1.mid_seg131",
    "avg_interval": 6.933333333333334,
    "span": 29,
    "note_density": 0.0,
    "register": "middle",
    "complexity": 0.525925925925926
  },
  {
    "events": [
      {
        "pitch": 62,
        "duration": 1.0,
        "velocity": 66
      },
      {
        "pitch": 67,
        "duration": 1.0,
        "velocity": 47
      },
      {
        "pitch": 62,
        "duration": 0.5,
        "velocity": 86
      },
      {
        "pitch": 38,
        "duration": 3.0,
        "velocity": 115
      },
      {
        "pitch": 43,
        "duration": 3.0,
        "velocity": 95
      },
      {
        "pitch": 50,
        "duration": 2.5,
        "velocity": 93
      },
      {
        "pitch": 59,
        "duration": 1.75,
        "velocity": 76
      },
      {
        "pitch": 55,
        "duration": 2.0,
        "velocity": 61
      },
      {
        "pitch": 59,
        "duration": 1.5,
        "velocity": 107
      },
      {
        "pitch": 62,
        "duration": 0.75,
        "velocity": 55
      },
      {
        "pitch": 67,
        "duration": 1.0,
        "velocity": 57
      },
      {
        "pitch": 57,
        "duration": 1.0,
        "velocity": 80
      },
      {
        "pitch": 62,
        "duration": 0.5,
        "velocity": 96
      },
      {
        "pitch": 33,
        "duration": 3.0,
        "velocity": 115
      },
      {
        "pitch": 45,
        "duration": 2.75,
        "velocity": 75
      },
      {
        "pitch": 71,
        "duration": 1.0,
        "velocity": 80
      }
    ],
    "key": "D major",
    "tempo": 120,
    "name": "129820fe71b310853a333b846db2b951_1.mid_seg132",
    "avg_interval": 10.2,
    "span": 38,
    "note_density": 0.0,
    "register": "middle",
    "complexity": 0.6166666666666667
  },
  {
    "events": [
      {
        "pitch": 52,
        "duration": 2.3333333333333335,
        "velocity": 63
      },
      {
        "pitch": 61,
        "duration": 2.0,
        "velocity": 59
      },
      {
        "pitch": 55,
        "duration": 2.0,
        "velocity": 56
      },
      {
        "pitch": 69,
        "duration": 2.0,
        "velocity": 80
      },
      {
        "pitch": 61,
        "duration": 1.5,
        "velocity": 95
      },
      {
        "pitch": 64,
        "duration": 1.0,
        "velocity": 66
      },
      {
        "pitch": 64,
        "duration": 1.0,
        "velocity": 82
      },
      {
        "pitch": 67,
        "duration": 0.5,
        "velocity": 71
      },
      {
        "pitch": 40,
        "duration": 2.0,
        "velocity": 115
      },
      {
        "pitch": 45,
        "duration": 3.0,
        "velocity": 107
      },
      {
        "pitch": 67,
        "duration": 0.16666666666666666,
        "velocity": 71
      },
      {
        "pitch": 69,
        "duration": 3.0,
        "velocity": 80
      },
      {
        "pitch": 52,
        "duration": 2.5,
        "velocity": 70
      },
      {
        "pitch": 61,
        "duration": 1.75,
        "velocity": 76
      },
      {
        "pitch": 55,
        "duration": 2.0,
        "velocity": 66
      },
      {
        "pitch": 61,
        "duration": 1.5,
        "velocity": 103
      }
    ],
    "key": "D major",
    "tempo": 120,
    "name": "129820fe71b310853a333b846db2b951_1.mid_seg133",
    "avg_interval": 9.133333333333333,
    "span": 29,
    "note_density": 0.0,
    "register": "middle",
    "complexity": 0.587037037037037
  },
  {
    "events": [
      {
        "pitch": 33,
        "duration": 1.0,
        "velocity": 100
      },
      {
        "pitch": 64,
        "duration": 0.75,
        "velocity": 55
      },
      {
        "pitch": 64,
        "duration": 1.0,
        "velocity": 98
      },
      {
        "pitch": 67,
        "duration": 0.5,
        "velocity": 77
      },
      {
        "pitch": 38,
        "duration": 3.0,
        "velocity": 115
      },
      {
        "pitch": 50,
        "duration": 2.75,
        "velocity": 67
      },
      {
        "pitch": 69,
        "duration": 1.0,
        "velocity": 80
      },
      {
        "pitch": 57,
        "duration": 1.75,
        "velocity": 75
      },
      {
        "pitch": 66,
        "duration": 2.0,
        "velocity": 59
      },
      {
        "pitch": 62,
        "duration": 0.6666666666666666,
        "velocity": 57
      },
      {
        "pitch": 66,
        "duration": 1.5,
        "velocity": 72
      },
      {
        "pitch": 69,
        "duration": 1.0,
        "velocity": 66
      },
      {
        "pitch": 62,
        "duration": 1.0,
        "velocity": 54
      },
      {
        "pitch": 57,
        "duration": 1.0,
        "velocity": 80
      },
      {
        "pitch": 57,
        "duration": 0.5,
        "velocity": 81
      },
      {
        "pitch": 37,
        "duration": 3.0,
        "velocity": 115
      }
    ],
    "key": "D major",
    "tempo": 120,
    "name": "129820fe71b310853a333b846db2b951_1.mid_seg134",
    "avg_interval": 10.533333333333333,
    "span": 36,
    "note_density": 0.0,
    "register": "middle",
    "complexity": 0.6259259259259259
  },
  {
    "events": [
      {
        "pitch": 49,
        "duration": 2.75,
        "velocity": 67
      },
      {
        "pitch": 66,
        "duration": 0.5,
        "velocity": 80
      },
      {
        "pitch": 57,
        "duration": 1.75,
        "velocity": 75
      },
      {
        "pitch": 64,
        "duration": 0.5,
        "velocity": 80
      },
      {
        "pitch": 66,
        "duration": 2.0,
        "velocity": 59
      },
      {
        "pitch": 62,
        "duration": 0.6666666666666666,
        "velocity": 57
      },
      {
        "pitch": 66,
        "duration": 1.0,
        "velocity": 80
      },
      {
        "pitch": 66,
        "duration": 1.5,
        "velocity": 72
      },
      {
        "pitch": 69,
        "duration": 1.0,
        "velocity": 66
      },
      {
        "pitch": 62,
        "duration": 1.0,
        "velocity": 54
      },
      {
        "pitch": 64,
        "duration": 1.0,
        "velocity": 80
      },
      {
        "pitch": 57,
        "duration": 0.5,
        "velocity": 81
      },
      {
        "pitch": 35,
        "duration": 3.0,
        "velocity": 115
      },
      {
        "pitch": 47,
        "duration": 2.75,
        "velocity": 75
      },
      {
        "pitch": 66,
        "duration": 0.5,
        "velocity": 80
      },
      {
        "pitch": 57,
        "duration": 2.3333333333333335,
        "velocity": 63
      }
    ],
    "key": "D major",
    "tempo": 120,
    "name": "129820fe71b310853a333b846db2b951_1.mid_seg135",
    "avg_interval": 8.266666666666667,
    "span": 34,
    "note_density": 0.0,
    "register": "middle",
    "complexity": 0.562962962962963
  },
  {
    "events": [
      {
        "pitch": 64,
        "duration": 0.5,
        "velocity": 80
      },
      {
        "pitch": 66,
        "duration": 2.0,
        "velocity": 59
      },
      {
        "pitch": 62,
        "duration": 2.0,
        "velocity": 56
      },
      {
        "pitch": 66,
        "duration": 1.0,
        "velocity": 80
      },
      {
        "pitch": 66,
        "duration": 1.5,
        "velocity": 95
      },
      {
        "pitch": 69,
        "duration": 1.0,
        "velocity": 66
      },
      {
        "pitch": 69,
        "duration": 1.0,
        "velocity": 82
      },
      {
        "pitch": 64,
        "duration": 1.0,
        "velocity": 80
      },
      {
        "pitch": 74,
        "duration": 0.5,
        "velocity": 71
      },
      {
        "pitch": 38,
        "duration": 3.0,
        "velocity": 115
      },
      {
        "pitch": 50,
        "duration": 2.75,
        "velocity": 80
      },
      {
        "pitch": 66,
        "duration": 0.5,
        "velocity": 80
      },
      {
        "pitch": 57,
        "duration": 2.3333333333333335,
        "velocity": 76
      },
      {
        "pitch": 64,
        "duration": 0.5,
        "velocity": 80
      },
      {
        "pitch": 66,
        "duration": 2.0,
        "velocity": 59
      },
      {
        "pitch": 60,
        "duration": 2.0,
        "velocity": 61
      }
    ],
    "key": "D major",
    "tempo": 120,
    "name": "129820fe71b310853a333b846db2b951_1.mid_seg136",
    "avg_interval": 7.733333333333333,
    "span": 36,
    "note_density": 0.0,
    "register": "middle",
    "complexity": 0.5481481481481482
  },
  {
    "events": [
      {
        "pitch": 62,
        "duration": 2.0,
        "velocity": 80
      },
      {
        "pitch": 66,
        "duration": 0.5,
        "velocity": 102
      },
      {
        "pitch": 69,
        "duration": 1.0,
        "velocity": 66
      },
      {
        "pitch": 72,
        "duration": 1.0,
        "velocity": 47
      },
      {
        "pitch": 69,
        "duration": 0.5,
        "velocity": 86
      },
      {
        "pitch": 43,
        "duration": 3.0,
        "velocity": 115
      },
      {
        "pitch": 43,
        "duration": 2.75,
        "velocity": 80
      },
      {
        "pitch": 62,
        "duration": 2.0,
        "velocity": 80
      },
      {
        "pitch": 50,
        "duration": 2.3333333333333335,
        "velocity": 76
      },
      {
        "pitch": 59,
        "duration": 2.0,
        "velocity": 59
      },
      {
        "pitch": 55,
        "duration": 2.0,
        "velocity": 61
      },
      {
        "pitch": 59,
        "duration": 0.5,
        "velocity": 102
      },
      {
        "pitch": 62,
        "duration": 1.0,
        "velocity": 66
      },
      {
        "pitch": 67,
        "duration": 1.0,
        "velocity": 47
      },
      {
        "pitch": 62,
        "duration": 0.5,
        "velocity": 86
      },
      {
        "pitch": 38,
        "duration": 3.0,
        "velocity": 115
      }
    ],
    "key": "D major",
    "tempo": 120,
    "name": "129820fe71b310853a333b846db2b951_1.mid_seg137",
    "avg_interval": 8.266666666666667,
    "span": 34,
    "note_density": 0.0,
    "register": "middle",
    "complexity": 0.562962962962963
  },
  {
    "events": [
      {
        "pitch": 43,
        "duration": 3.0,
        "velocity": 95
      },
      {
        "pitch": 50,
        "duration": 2.5,
        "velocity": 93
      },
      {
        "pitch": 59,
        "duration": 1.75,
        "velocity": 76
      },
      {
        "pitch": 55,
        "duration": 2.0,
        "velocity": 61
      },
      {
        "pitch": 59,
        "duration": 1.5,
        "velocity": 107
      },
      {
        "pitch": 62,
        "duration": 0.75,
        "velocity": 55
      },
      {
        "pitch": 67,
        "duration": 1.0,
        "velocity": 57
      },
      {
        "pitch": 57,
        "duration": 1.0,
        "velocity": 80
      },
      {
        "pitch": 62,
        "duration": 0.5,
        "velocity": 96
      },
      {
        "pitch": 33,
        "duration": 3.0,
        "velocity": 115
      },
      {
        "pitch": 45,
        "duration": 2.75,
        "velocity": 75
      },
      {
        "pitch": 71,
        "duration": 1.0,
        "velocity": 80
      },
      {
        "pitch": 52,
        "duration": 2.3333333333333335,
        "velocity": 63
      },
      {
        "pitch": 61,
        "duration": 1.75,
        "velocity": 62
      },
      {
        "pitch": 55,
        "duration": 2.0,
        "velocity": 56
      },
      {
        "pitch": 69,
        "duration": 2.0,
        "velocity": 80
      }
    ],
    "key": "D major",
    "tempo": 120,
    "name": "129820fe71b310853a333b846db2b951_1.mid_seg138",
    "avg_interval": 10.8,
    "span": 38,
    "note_density": 0.0,
    "register": "middle",
    "complexity": 0.6333333333333333
  },
  {
    "events": [
      {
        "pitch": 61,
        "duration": 1.5,
        "velocity": 95
      },
      {
        "pitch": 64,
        "duration": 0.75,
        "velocity": 85
      },
      {
        "pitch": 64,
        "duration": 1.0,
        "velocity": 82
      },
      {
        "pitch": 67,
        "duration": 0.5,
        "velocity": 71
      },
      {
        "pitch": 40,
        "duration": 2.0,
        "velocity": 115
      },
      {
        "pitch": 45,
        "duration": 3.0,
        "velocity": 107
      },
      {
        "pitch": 67,
        "duration": 0.16666666666666666,
        "velocity": 71
      },
      {
        "pitch": 69,
        "duration": 3.0,
        "velocity": 80
      },
      {
        "pitch": 52,
        "duration": 2.5,
        "velocity": 70
      },
      {
        "pitch": 55,
        "duration": 2.0,
        "velocity": 66
      },
      {
        "pitch": 61,
        "duration": 1.5,
        "velocity": 103
      },
      {
        "pitch": 28,
        "duration": 1.0,
        "velocity": 100
      },
      {
        "pitch": 64,
        "duration": 1.0,
        "velocity": 98
      },
      {
        "pitch": 67,
        "duration": 0.5,
        "velocity": 77
      },
      {
        "pitch": 43,
        "duration": 3.0,
        "velocity": 115
      },
      {
        "pitch": 43,
        "duration": 2.75,
        "velocity": 67
      }
    ],
    "key": "D major",
    "tempo": 120,
    "name": "129820fe71b310853a333b846db2b951_1.mid_seg139",
    "avg_interval": 12.266666666666667,
    "span": 41,
    "note_density": 0.0,
    "register": "middle",
    "complexity": 0.6666666666666666
  },
  {
    "events": [
      {
        "pitch": 69,
        "duration": 1.0,
        "velocity": 80
      },
      {
        "pitch": 50,
        "duration": 1.75,
        "velocity": 75
      },
      {
        "pitch": 59,
        "duration": 2.0,
        "velocity": 59
      },
      {
        "pitch": 55,
        "duration": 0.6666666666666666,
        "velocity": 57
      },
      {
        "pitch": 59,
        "duration": 1.5,
        "velocity": 72
      },
      {
        "pitch": 62,
        "duration": 1.0,
        "velocity": 66
      },
      {
        "pitch": 55,
        "duration": 1.0,
        "velocity": 54
      },
      {
        "pitch": 50,
        "duration": 0.5,
        "velocity": 81
      },
      {
        "pitch": 38,
        "duration": 3.0,
        "velocity": 115
      },
      {
        "pitch": 43,
        "duration": 3.0,
        "velocity": 107
      },
      {
        "pitch": 59,
        "duration": 1.25,
        "velocity": 72
      },
      {
        "pitch": 55,
        "duration": 1.0,
        "velocity": 54
      },
      {
        "pitch": 50,
        "duration": 0.25,
        "velocity": 81
      },
      {
        "pitch": 50,
        "duration": 1.75,
        "velocity": 98
      },
      {
        "pitch": 59,
        "duration": 1.75,
        "velocity": 76
      },
      {
        "pitch": 55,
        "duration": 0.6666666666666666,
        "velocity": 77
      }
    ],
    "key": "D major",
    "tempo": 120,
    "name": "129820fe71b310853a333b846db2b951_1.mid_seg140",
    "avg_interval": 7.066666666666666,
    "span": 31,
    "note_density": 0.0,
    "register": "bass",
    "complexity": 0.5296296296296297
  },
  {
    "events": [
      {
        "pitch": 59,
        "duration": 1.5,
        "velocity": 92
      },
      {
        "pitch": 62,
        "duration": 0.75,
        "velocity": 55
      },
      {
        "pitch": 55,
        "duration": 1.0,
        "velocity": 83
      },
      {
        "pitch": 57,
        "duration": 1.0,
        "velocity": 80
      },
      {
        "pitch": 50,
        "duration": 0.5,
        "velocity": 98
      },
      {
        "pitch": 38,
        "duration": 3.0,
        "velocity": 115
      },
      {
        "pitch": 50,
        "duration": 2.75,
        "velocity": 67
      },
      {
        "pitch": 71,
        "duration": 1.0,
        "velocity": 80
      },
      {
        "pitch": 57,
        "duration": 1.75,
        "velocity": 75
      },
      {
        "pitch": 66,
        "duration": 2.0,
        "velocity": 59
      },
      {
        "pitch": 62,
        "duration": 0.6666666666666666,
        "velocity": 57
      },
      {
        "pitch": 73,
        "duration": 2.0,
        "velocity": 80
      },
      {
        "pitch": 66,
        "duration": 1.5,
        "velocity": 72
      },
      {
        "pitch": 69,
        "duration": 1.0,
        "velocity": 66
      },
      {
        "pitch": 62,
        "duration": 1.0,
        "velocity": 54
      },
      {
        "pitch": 57,
        "duration": 0.5,
        "velocity": 81
      }
    ],
    "key": "D major",
    "tempo": 120,
    "name": "129820fe71b310853a333b846db2b951_1.mid_seg141",
    "avg_interval": 8.266666666666667,
    "span": 35,
    "note_density": 0.0,
    "register": "middle",
    "complexity": 0.562962962962963
  },
  {
    "events": [
      {
        "pitch": 42,
        "duration": 3.0,
        "velocity": 115
      },
      {
        "pitch": 42,
        "duration": 2.75,
        "velocity": 75
      },
      {
        "pitch": 69,
        "duration": 3.0,
        "velocity": 80
      },
      {
        "pitch": 49,
        "duration": 2.3333333333333335,
        "velocity": 63
      },
      {
        "pitch": 58,
        "duration": 2.0,
        "velocity": 59
      },
      {
        "pitch": 54,
        "duration": 2.0,
        "velocity": 56
      },
      {
        "pitch": 58,
        "duration": 1.5,
        "velocity": 95
      },
      {
        "pitch": 61,
        "duration": 1.0,
        "velocity": 66
      },
      {
        "pitch": 61,
        "duration": 1.0,
        "velocity": 82
      },
      {
        "pitch": 66,
        "duration": 0.5,
        "velocity": 71
      },
      {
        "pitch": 35,
        "duration": 3.0,
        "velocity": 115
      },
      {
        "pitch": 47,
        "duration": 2.75,
        "velocity": 80
      },
      {
        "pitch": 66,
        "duration": 2.0,
        "velocity": 80
      },
      {
        "pitch": 54,
        "duration": 2.3333333333333335,
        "velocity": 76
      },
      {
        "pitch": 62,
        "duration": 2.0,
        "velocity": 59
      },
      {
        "pitch": 59,
        "duration": 2.0,
        "velocity": 61
      }
    ],
    "key": "D major",
    "tempo": 120,
    "name": "129820fe71b310853a333b846db2b951_1.mid_seg142",
    "avg_interval": 10.466666666666667,
    "span": 34,
    "note_density": 0.0,
    "register": "middle",
    "complexity": 0.6240740740740741
  },
  {
    "events": [
      {
        "pitch": 62,
        "duration": 0.5,
        "velocity": 102
      },
      {
        "pitch": 66,
        "duration": 1.0,
        "velocity": 66
      },
      {
        "pitch": 71,
        "duration": 1.0,
        "velocity": 47
      },
      {
        "pitch": 64,
        "duration": 1.0,
        "velocity": 80
      },
      {
        "pitch": 66,
        "duration": 0.5,
        "velocity": 86
      },
      {
        "pitch": 33,
        "duration": 3.0,
        "velocity": 115
      },
      {
        "pitch": 45,
        "duration": 2.75,
        "velocity": 80
      },
      {
        "pitch": 62,
        "duration": 3.0,
        "velocity": 80
      },
      {
        "pitch": 54,
        "duration": 2.3333333333333335,
        "velocity": 76
      },
      {
        "pitch": 62,
        "duration": 2.0,
        "velocity": 59
      },
      {
        "pitch": 59,
        "duration": 2.0,
        "velocity": 61
      },
      {
        "pitch": 62,
        "duration": 0.5,
        "velocity": 102
      },
      {
        "pitch": 66,
        "duration": 1.0,
        "velocity": 66
      },
      {
        "pitch": 71,
        "duration": 1.0,
        "velocity": 47
      },
      {
        "pitch": 66,
        "duration": 0.5,
        "velocity": 86
      },
      {
        "pitch": 40,
        "duration": 3.0,
        "velocity": 115
      }
    ],
    "key": "D major",
    "tempo": 120,
    "name": "129820fe71b310853a333b846db2b951_1.mid_seg143",
    "avg_interval": 9.466666666666667,
    "span": 38,
    "note_density": 0.0,
    "register": "middle",
    "complexity": 0.5962962962962962
  },
  {
    "events": [
      {
        "pitch": 52,
        "duration": 2.75,
        "velocity": 67
      },
      {
        "pitch": 62,
        "duration": 3.0,
        "velocity": 80
      },
      {
        "pitch": 59,
        "duration": 1.75,
        "velocity": 75
      },
      {
        "pitch": 68,
        "duration": 1.75,
        "velocity": 62
      },
      {
        "pitch": 62,
        "duration": 0.6666666666666666,
        "velocity": 57
      },
      {
        "pitch": 68,
        "duration": 1.5,
        "velocity": 72
      },
      {
        "pitch": 71,
        "duration": 0.75,
        "velocity": 85
      },
      {
        "pitch": 62,
        "duration": 1.0,
        "velocity": 54
      },
      {
        "pitch": 59,
        "duration": 0.5,
        "velocity": 81
      },
      {
        "pitch": 35,
        "duration": 3.0,
        "velocity": 115
      },
      {
        "pitch": 52,
        "duration": 3.0,
        "velocity": 107
      },
      {
        "pitch": 68,
        "duration": 1.25,
        "velocity": 72
      },
      {
        "pitch": 62,
        "duration": 1.0,
        "velocity": 54
      },
      {
        "pitch": 59,
        "duration": 0.25,
        "velocity": 81
      },
      {
        "pitch": 59,
        "duration": 1.75,
        "velocity": 98
      },
      {
        "pitch": 62,
        "duration": 0.6666666666666666,
        "velocity": 77
      }
    ],
    "key": "D major",
    "tempo": 120,
    "name": "129820fe71b310853a333b846db2b951_1.mid_seg144",
    "avg_interval": 7.866666666666666,
    "span": 36,
    "note_density": 0.0,
    "register": "middle",
    "complexity": 0.5518518518518518
  },
  {
    "events": [
      {
        "pitch": 68,
        "duration": 1.5,
        "velocity": 92
      },
      {
        "pitch": 62,
        "duration": 1.0,
        "velocity": 83
      },
      {
        "pitch": 66,
        "duration": 0.5,
        "velocity": 80
      },
      {
        "pitch": 59,
        "duration": 0.5,
        "velocity": 98
      },
      {
        "pitch": 66,
        "duration": 0.5,
        "velocity": 80
      },
      {
        "pitch": 33,
        "duration": 3.0,
        "velocity": 115
      },
      {
        "pitch": 45,
        "duration": 2.75,
        "velocity": 80
      },
      {
        "pitch": 66,
        "duration": 0.25,
        "velocity": 80
      },
      {
        "pitch": 52,
        "duration": 2.3333333333333335,
        "velocity": 76
      },
      {
        "pitch": 62,
        "duration": 2.0,
        "velocity": 59
      },
      {
        "pitch": 55,
        "duration": 2.0,
        "velocity": 61
      },
      {
        "pitch": 64,
        "duration": 1.0,
        "velocity": 80
      },
      {
        "pitch": 62,
        "duration": 0.5,
        "velocity": 102
      },
      {
        "pitch": 64,
        "duration": 1.0,
        "velocity": 66
      },
      {
        "pitch": 67,
        "duration": 1.0,
        "velocity": 47
      },
      {
        "pitch": 62,
        "duration": 1.0,
        "velocity": 80
      }
    ],
    "key": "D major",
    "tempo": 120,
    "name": "129820fe71b310853a333b846db2b951_1.mid_seg145",
    "avg_interval": 9.466666666666667,
    "span": 35,
    "note_density": 0.0,
    "register": "middle",
    "complexity": 0.5962962962962962
  },
  {
    "events": [
      {
        "pitch": 64,
        "duration": 0.5,
        "velocity": 86
      },
      {
        "pitch": 40,
        "duration": 3.0,
        "velocity": 115
      },
      {
        "pitch": 45,
        "duration": 3.0,
        "velocity": 95
      },
      {
        "pitch": 64,
        "duration": 3.0,
        "velocity": 80
      },
      {
        "pitch": 52,
        "duration": 2.5,
        "velocity": 93
      },
      {
        "pitch": 62,
        "duration": 1.75,
        "velocity": 76
      },
      {
        "pitch": 55,
        "duration": 2.0,
        "velocity": 61
      },
      {
        "pitch": 62,
        "duration": 1.5,
        "velocity": 107
      },
      {
        "pitch": 64,
        "duration": 0.75,
        "velocity": 55
      },
      {
        "pitch": 67,
        "duration": 1.0,
        "velocity": 57
      },
      {
        "pitch": 64,
        "duration": 0.5,
        "velocity": 96
      },
      {
        "pitch": 33,
        "duration": 3.0,
        "velocity": 115
      },
      {
        "pitch": 45,
        "duration": 2.75,
        "velocity": 80
      },
      {
        "pitch": 64,
        "duration": 3.0,
        "velocity": 80
      },
      {
        "pitch": 52,
        "duration": 2.3333333333333335,
        "velocity": 76
      },
      {
        "pitch": 61,
        "duration": 1.75,
        "velocity": 62
      }
    ],
    "key": "D major",
    "tempo": 120,
    "name": "129820fe71b310853a333b846db2b951_1.mid_seg146",
    "avg_interval": 11.666666666666666,
    "span": 34,
    "note_density": 0.0,
    "register": "middle",
    "complexity": 0.6574074074074074
  },
  {
    "events": [
      {
        "pitch": 55,
        "duration": 2.0,
        "velocity": 61
      },
      {
        "pitch": 61,
        "duration": 0.5,
        "velocity": 102
      },
      {
        "pitch": 64,
        "duration": 0.75,
        "velocity": 85
      },
      {
        "pitch": 67,
        "duration": 1.0,
        "velocity": 47
      },
      {
        "pitch": 64,
        "duration": 0.5,
        "velocity": 86
      },
      {
        "pitch": 33,
        "duration": 1.0,
        "velocity": 115
      },
      {
        "pitch": 45,
        "duration": 3.0,
        "velocity": 95
      },
      {
        "pitch": 52,
        "duration": 2.5,
        "velocity": 93
      },
      {
        "pitch": 40,
        "duration": 1.0,
        "velocity": 90
      },
      {
        "pitch": 55,
        "duration": 2.0,
        "velocity": 61
      },
      {
        "pitch": 61,
        "duration": 1.5,
        "velocity": 107
      },
      {
        "pitch": 33,
        "duration": 1.0,
        "velocity": 100
      },
      {
        "pitch": 67,
        "duration": 1.0,
        "velocity": 57
      },
      {
        "pitch": 64,
        "duration": 0.5,
        "velocity": 96
      },
      {
        "pitch": 35,
        "duration": 2.0,
        "velocity": 115
      },
      {
        "pitch": 47,
        "duration": 2.75,
        "velocity": 75
      }
    ],
    "key": "D major",
    "tempo": 120,
    "name": "129820fe71b310853a333b846db2b951_1.mid_seg147",
    "avg_interval": 13.6,
    "span": 34,
    "note_density": 0.0,
    "register": "bass",
    "complexity": 0.6666666666666666
  },
  {
    "events": [
      {
        "pitch": 59,
        "duration": 3.0,
        "velocity": 80
      },
      {
        "pitch": 54,
        "duration": 2.3333333333333335,
        "velocity": 63
      },
      {
        "pitch": 62,
        "duration": 2.0,
        "velocity": 59
      },
      {
        "pitch": 59,
        "duration": 2.0,
        "velocity": 56
      },
      {
        "pitch": 62,
        "duration": 1.5,
        "velocity": 95
      },
      {
        "pitch": 35,
        "duration": 1.0,
        "velocity": 100
      },
      {
        "pitch": 66,
        "duration": 1.0,
        "velocity": 66
      },
      {
        "pitch": 66,
        "duration": 1.0,
        "velocity": 82
      },
      {
        "pitch": 71,
        "duration": 0.5,
        "velocity": 71
      },
      {
        "pitch": 30,
        "duration": 2.0,
        "velocity": 115
      },
      {
        "pitch": 47,
        "duration": 3.0,
        "velocity": 107
      },
      {
        "pitch": 71,
        "duration": 0.16666666666666666,
        "velocity": 71
      },
      {
        "pitch": 59,
        "duration": 3.0,
        "velocity": 80
      },
      {
        "pitch": 71,
        "duration": 0.5,
        "velocity": 80
      },
      {
        "pitch": 54,
        "duration": 2.5,
        "velocity": 70
      },
      {
        "pitch": 71,
        "duration": 0.5,
        "velocity": 80
      }
    ],
    "key": "D major",
    "tempo": 120,
    "name": "129820fe71b310853a333b846db2b951_1.mid_seg148",
    "avg_interval": 14.8,
    "span": 41,
    "note_density": 0.0,
    "register": "middle",
    "complexity": 0.6666666666666666
  },
  {
    "events": [
      {
        "pitch": 62,
        "duration": 1.75,
        "velocity": 76
      },
      {
        "pitch": 59,
        "duration": 2.0,
        "velocity": 66
      },
      {
        "pitch": 71,
        "duration": 0.25,
        "velocity": 80
      },
      {
        "pitch": 62,
        "duration": 1.5,
        "velocity": 103
      },
      {
        "pitch": 35,
        "duration": 1.0,
        "velocity": 115
      },
      {
        "pitch": 66,
        "duration": 0.75,
        "velocity": 55
      },
      {
        "pitch": 66,
        "duration": 1.0,
        "velocity": 98
      },
      {
        "pitch": 73,
        "duration": 1.0,
        "velocity": 80
      },
      {
        "pitch": 71,
        "duration": 0.5,
        "velocity": 77
      },
      {
        "pitch": 33,
        "duration": 2.0,
        "velocity": 115
      },
      {
        "pitch": 45,
        "duration": 2.75,
        "velocity": 75
      },
      {
        "pitch": 69,
        "duration": 0.5,
        "velocity": 80
      },
      {
        "pitch": 52,
        "duration": 2.3333333333333335,
        "velocity": 63
      },
      {
        "pitch": 66,
        "duration": 0.5,
        "velocity": 80
      },
      {
        "pitch": 61,
        "duration": 2.0,
        "velocity": 59
      },
      {
        "pitch": 57,
        "duration": 2.0,
        "velocity": 56
      }
    ],
    "key": "D major",
    "tempo": 120,
    "name": "129820fe71b310853a333b846db2b951_1.mid_seg149",
    "avg_interval": 13.666666666666666,
    "span": 40,
    "note_density": 0.0,
    "register": "middle",
    "complexity": 0.6666666666666666
  },
  {
    "events": [
      {
        "pitch": 73,
        "duration": 1.75,
        "velocity": 31
      },
      {
        "pitch": 64,
        "duration": 2.0,
        "velocity": 80
      },
      {
        "pitch": 61,
        "duration": 1.5,
        "velocity": 95
      },
      {
        "pitch": 33,
        "duration": 1.0,
        "velocity": 100
      },
      {
        "pitch": 64,
        "duration": 1.0,
        "velocity": 66
      },
      {
        "pitch": 64,
        "duration": 1.0,
        "velocity": 82
      },
      {
        "pitch": 69,
        "duration": 0.5,
        "velocity": 71
      },
      {
        "pitch": 40,
        "duration": 2.0,
        "velocity": 115
      },
      {
        "pitch": 45,
        "duration": 3.0,
        "velocity": 107
      },
      {
        "pitch": 69,
        "duration": 0.16666666666666666,
        "velocity": 71
      },
      {
        "pitch": 64,
        "duration": 1.0,
        "velocity": 80
      },
      {
        "pitch": 52,
        "duration": 2.5,
        "velocity": 70
      },
      {
        "pitch": 61,
        "duration": 1.75,
        "velocity": 76
      },
      {
        "pitch": 57,
        "duration": 2.0,
        "velocity": 66
      },
      {
        "pitch": 61,
        "duration": 1.5,
        "velocity": 103
      },
      {
        "pitch": 33,
        "duration": 1.0,
        "velocity": 115
      }
    ],
    "key": "D major",
    "tempo": 120,
    "name": "129820fe71b310853a333b846db2b951_1.mid_seg150",
    "avg_interval": 13.066666666666666,
    "span": 40,
    "note_density": 0.0,
    "register": "middle",
    "complexity": 0.6666666666666666
  },
  {
    "events": [
      {
        "pitch": 64,
        "duration": 0.75,
        "velocity": 55
      },
      {
        "pitch": 64,
        "duration": 1.0,
        "velocity": 98
      },
      {
        "pitch": 69,
        "duration": 0.5,
        "velocity": 77
      },
      {
        "pitch": 35,
        "duration": 2.0,
        "velocity": 115
      },
      {
        "pitch": 47,
        "duration": 2.75,
        "velocity": 80
      },
      {
        "pitch": 59,
        "duration": 3.0,
        "velocity": 80
      },
      {
        "pitch": 54,
        "duration": 2.3333333333333335,
        "velocity": 76
      },
      {
        "pitch": 62,
        "duration": 2.0,
        "velocity": 59
      },
      {
        "pitch": 59,
        "duration": 2.0,
        "velocity": 61
      },
      {
        "pitch": 62,
        "duration": 0.5,
        "velocity": 102
      },
      {
        "pitch": 35,
        "duration": 1.0,
        "velocity": 100
      },
      {
        "pitch": 66,
        "duration": 1.0,
        "velocity": 66
      },
      {
        "pitch": 71,
        "duration": 1.0,
        "velocity": 47
      },
      {
        "pitch": 66,
        "duration": 0.5,
        "velocity": 86
      },
      {
        "pitch": 30,
        "duration": 2.0,
        "velocity": 115
      },
      {
        "pitch": 47,
        "duration": 3.0,
        "velocity": 95
      }
    ],
    "key": "D major",
    "tempo": 120,
    "name": "129820fe71b310853a333b846db2b951_1.mid_seg151",
    "avg_interval": 13.533333333333333,
    "span": 41,
    "note_density": 0.0,
    "register": "middle",
    "complexity": 0.6666666666666666
  },
  {
    "events": [
      {
        "pitch": 59,
        "duration": 3.0,
        "velocity": 80
      },
      {
        "pitch": 71,
        "duration": 0.5,
        "velocity": 80
      },
      {
        "pitch": 54,
        "duration": 2.5,
        "velocity": 93
      },
      {
        "pitch": 71,
        "duration": 0.5,
        "velocity": 80
      },
      {
        "pitch": 62,
        "duration": 1.75,
        "velocity": 76
      },
      {
        "pitch": 59,
        "duration": 2.0,
        "velocity": 61
      },
      {
        "pitch": 71,
        "duration": 0.25,
        "velocity": 80
      },
      {
        "pitch": 62,
        "duration": 1.5,
        "velocity": 107
      },
      {
        "pitch": 35,
        "duration": 1.0,
        "velocity": 115
      },
      {
        "pitch": 66,
        "duration": 0.75,
        "velocity": 55
      },
      {
        "pitch": 71,
        "duration": 1.0,
        "velocity": 57
      },
      {
        "pitch": 73,
        "duration": 1.0,
        "velocity": 80
      },
      {
        "pitch": 66,
        "duration": 0.5,
        "velocity": 96
      },
      {
        "pitch": 33,
        "duration": 2.0,
        "velocity": 115
      },
      {
        "pitch": 45,
        "duration": 2.75,
        "velocity": 75
      },
      {
        "pitch": 57,
        "duration": 3.0,
        "velocity": 80
      }
    ],
    "key": "D major",
    "tempo": 120,
    "name": "129820fe71b310853a333b846db2b951_1.mid_seg152",
    "avg_interval": 13.866666666666667,
    "span": 40,
    "note_density": 0.0,
    "register": "middle",
    "complexity": 0.6666666666666666
  },
  {
    "events": [
      {
        "pitch": 69,
        "duration": 0.5,
        "velocity": 80
      },
      {
        "pitch": 52,
        "duration": 2.3333333333333335,
        "velocity": 63
      },
      {
        "pitch": 66,
        "duration": 0.5,
        "velocity": 80
      },
      {
        "pitch": 61,
        "duration": 1.75,
        "velocity": 62
      },
      {
        "pitch": 57,
        "duration": 2.0,
        "velocity": 56
      },
      {
        "pitch": 64,
        "duration": 2.0,
        "velocity": 80
      },
      {
        "pitch": 61,
        "duration": 1.5,
        "velocity": 95
      },
      {
        "pitch": 33,
        "duration": 1.0,
        "velocity": 100
      },
      {
        "pitch": 64,
        "duration": 0.75,
        "velocity": 85
      },
      {
        "pitch": 64,
        "duration": 1.0,
        "velocity": 82
      },
      {
        "pitch": 69,
        "duration": 0.5,
        "velocity": 71
      },
      {
        "pitch": 40,
        "duration": 2.0,
        "velocity": 115
      },
      {
        "pitch": 45,
        "duration": 3.0,
        "velocity": 107
      },
      {
        "pitch": 69,
        "duration": 0.16666666666666666,
        "velocity": 71
      },
      {
        "pitch": 57,
        "duration": 3.0,
        "velocity": 80
      },
      {
        "pitch": 64,
        "duration": 1.0,
        "velocity": 80
      }
    ],
    "key": "D major",
    "tempo": 120,
    "name": "129820fe71b310853a333b846db2b951_1.mid_seg153",
    "avg_interval": 12.733333333333333,
    "span": 36,
    "note_density": 0.0,
    "register": "middle",
    "complexity": 0.6666666666666666
  },
  {
    "events": [
      {
        "pitch": 52,
        "duration": 2.5,
        "velocity": 70
      },
      {
        "pitch": 57,
        "duration": 2.0,
        "velocity": 66
      },
      {
        "pitch": 61,
        "duration": 1.5,
        "velocity": 103
      },
      {
        "pitch": 33,
        "duration": 1.0,
        "velocity": 115
      },
      {
        "pitch": 64,
        "duration": 1.0,
        "velocity": 98
      },
      {
        "pitch": 69,
        "duration": 0.5,
        "velocity": 77
      },
      {
        "pitch": 35,
        "duration": 2.0,
        "velocity": 115
      },
      {
        "pitch": 47,
        "duration": 2.75,
        "velocity": 80
      },
      {
        "pitch": 59,
        "duration": 3.0,
        "velocity": 80
      },
      {
        "pitch": 54,
        "duration": 2.3333333333333335,
        "velocity": 76
      },
      {
        "pitch": 62,
        "duration": 2.0,
        "velocity": 59
      },
      {
        "pitch": 59,
        "duration": 2.0,
        "velocity": 61
      },
      {
        "pitch": 62,
        "duration": 0.5,
        "velocity": 102
      },
      {
        "pitch": 35,
        "duration": 1.0,
        "velocity": 100
      },
      {
        "pitch": 66,
        "duration": 1.0,
        "velocity": 66
      },
      {
        "pitch": 71,
        "duration": 1.0,
        "velocity": 47
      }
    ],
    "key": "D major",
    "tempo": 120,
    "name": "129820fe71b310853a333b846db2b951_1.mid_seg154",
    "avg_interval": 14.2,
    "span": 38,
    "note_density": 0.0,
    "register": "middle",
    "complexity": 0.6666666666666666
  },
  {
    "events": [
      {
        "pitch": 66,
        "duration": 0.5,
        "velocity": 86
      },
      {
        "pitch": 30,
        "duration": 2.0,
        "velocity": 115
      },
      {
        "pitch": 47,
        "duration": 3.0,
        "velocity": 95
      },
      {
        "pitch": 59,
        "duration": 3.0,
        "velocity": 80
      },
      {
        "pitch": 71,
        "duration": 0.5,
        "velocity": 80
      },
      {
        "pitch": 54,
        "duration": 2.5,
        "velocity": 93
      },
      {
        "pitch": 71,
        "duration": 0.5,
        "velocity": 80
      },
      {
        "pitch": 62,
        "duration": 1.75,
        "velocity": 76
      },
      {
        "pitch": 59,
        "duration": 2.0,
        "velocity": 61
      },
      {
        "pitch": 71,
        "duration": 0.25,
        "velocity": 80
      },
      {
        "pitch": 62,
        "duration": 1.5,
        "velocity": 107
      },
      {
        "pitch": 35,
        "duration": 1.0,
        "velocity": 115
      },
      {
        "pitch": 66,
        "duration": 0.75,
        "velocity": 55
      },
      {
        "pitch": 71,
        "duration": 1.0,
        "velocity": 57
      },
      {
        "pitch": 73,
        "duration": 1.0,
        "velocity": 80
      },
      {
        "pitch": 66,
        "duration": 0.5,
        "velocity": 96
      }
    ],
    "key": "D major",
    "tempo": 120,
    "name": "129820fe71b310853a333b846db2b951_1.mid_seg155",
    "avg_interval": 14.4,
    "span": 43,
    "note_density": 0.0,
    "register": "middle",
    "complexity": 0.6666666666666666
  },
  {
    "events": [
      {
        "pitch": 33,
        "duration": 2.0,
        "velocity": 115
      },
      {
        "pitch": 45,
        "duration": 2.75,
        "velocity": 67
      },
      {
        "pitch": 69,
        "duration": 0.5,
        "velocity": 80
      },
      {
        "pitch": 52,
        "duration": 1.75,
        "velocity": 75
      },
      {
        "pitch": 66,
        "duration": 0.5,
        "velocity": 80
      },
      {
        "pitch": 61,
        "duration": 2.0,
        "velocity": 59
      },
      {
        "pitch": 57,
        "duration": 0.6666666666666666,
        "velocity": 57
      },
      {
        "pitch": 73,
        "duration": 2.0,
        "velocity": 51
      },
      {
        "pitch": 64,
        "duration": 2.0,
        "velocity": 80
      },
      {
        "pitch": 61,
        "duration": 1.5,
        "velocity": 72
      },
      {
        "pitch": 33,
        "duration": 1.0,
        "velocity": 100
      },
      {
        "pitch": 64,
        "duration": 1.0,
        "velocity": 66
      },
      {
        "pitch": 57,
        "duration": 1.0,
        "velocity": 54
      },
      {
        "pitch": 76,
        "duration": 1.0,
        "velocity": 34
      },
      {
        "pitch": 81,
        "duration": 1.0,
        "velocity": 27
      },
      {
        "pitch": 52,
        "duration": 0.5,
        "velocity": 81
      }
    ],
    "key": "D major",
    "tempo": 120,
    "name": "129820fe71b310853a333b846db2b951_1.mid_seg156",
    "avg_interval": 14.866666666666667,
    "span": 48,
    "note_density": 0.0,
    "register": "middle",
    "complexity": 0.6666666666666666
  },
  {
    "events": [
      {
        "pitch": 40,
        "duration": 2.0,
        "velocity": 115
      },
      {
        "pitch": 45,
        "duration": 3.0,
        "velocity": 107
      },
      {
        "pitch": 61,
        "duration": 1.25,
        "velocity": 72
      },
      {
        "pitch": 57,
        "duration": 1.0,
        "velocity": 54
      },
      {
        "pitch": 52,
        "duration": 0.25,
        "velocity": 81
      },
      {
        "pitch": 81,
        "duration": 0.5,
        "velocity": 27
      },
      {
        "pitch": 64,
        "duration": 1.0,
        "velocity": 80
      },
      {
        "pitch": 52,
        "duration": 1.75,
        "velocity": 98
      },
      {
        "pitch": 61,
        "duration": 1.75,
        "velocity": 76
      },
      {
        "pitch": 57,
        "duration": 0.6666666666666666,
        "velocity": 77
      },
      {
        "pitch": 73,
        "duration": 2.0,
        "velocity": 60
      },
      {
        "pitch": 61,
        "duration": 1.5,
        "velocity": 92
      },
      {
        "pitch": 33,
        "duration": 1.0,
        "velocity": 115
      },
      {
        "pitch": 64,
        "duration": 0.75,
        "velocity": 55
      },
      {
        "pitch": 57,
        "duration": 1.0,
        "velocity": 83
      },
      {
        "pitch": 52,
        "duration": 0.5,
        "velocity": 98
      }
    ],
    "key": "D major",
    "tempo": 120,
    "name": "129820fe71b310853a333b846db2b951_1.mid_seg157",
    "avg_interval": 13.333333333333334,
    "span": 48,
    "note_density": 0.0,
    "register": "middle",
    "complexity": 0.6666666666666666
  },
  {
    "events": [
      {
        "pitch": 38,
        "duration": 2.0,
        "velocity": 115
      },
      {
        "pitch": 50,
        "duration": 2.75,
        "velocity": 80
      },
      {
        "pitch": 62,
        "duration": 3.0,
        "velocity": 80
      },
      {
        "pitch": 62,
        "duration": 3.0,
        "velocity": 80
      },
      {
        "pitch": 57,
        "duration": 2.3333333333333335,
        "velocity": 76
      },
      {
        "pitch": 66,
        "duration": 2.0,
        "velocity": 59
      },
      {
        "pitch": 62,
        "duration": 2.0,
        "velocity": 61
      },
      {
        "pitch": 66,
        "duration": 0.5,
        "velocity": 102
      },
      {
        "pitch": 38,
        "duration": 1.0,
        "velocity": 100
      },
      {
        "pitch": 69,
        "duration": 1.0,
        "velocity": 66
      },
      {
        "pitch": 74,
        "duration": 1.0,
        "velocity": 47
      },
      {
        "pitch": 69,
        "duration": 0.5,
        "velocity": 86
      },
      {
        "pitch": 37,
        "duration": 2.0,
        "velocity": 115
      },
      {
        "pitch": 49,
        "duration": 2.75,
        "velocity": 67
      },
      {
        "pitch": 62,
        "duration": 3.0,
        "velocity": 80
      },
      {
        "pitch": 57,
        "duration": 1.75,
        "velocity": 75
      }
    ],
    "key": "D major",
    "tempo": 120,
    "name": "129820fe71b310853a333b846db2b951_1.mid_seg158",
    "avg_interval": 11.8,
    "span": 37,
    "note_density": 0.0,
    "register": "middle",
    "complexity": 0.6611111111111111
  },
  {
    "events": [
      {
        "pitch": 66,
        "duration": 2.0,
        "velocity": 59
      },
      {
        "pitch": 62,
        "duration": 0.6666666666666666,
        "velocity": 57
      },
      {
        "pitch": 66,
        "duration": 1.5,
        "velocity": 72
      },
      {
        "pitch": 37,
        "duration": 1.0,
        "velocity": 100
      },
      {
        "pitch": 69,
        "duration": 1.0,
        "velocity": 66
      },
      {
        "pitch": 62,
        "duration": 1.0,
        "velocity": 54
      },
      {
        "pitch": 57,
        "duration": 0.5,
        "velocity": 81
      },
      {
        "pitch": 35,
        "duration": 1.0,
        "velocity": 115
      },
      {
        "pitch": 47,
        "duration": 2.75,
        "velocity": 80
      },
      {
        "pitch": 57,
        "duration": 2.3333333333333335,
        "velocity": 76
      },
      {
        "pitch": 45,
        "duration": 1.0,
        "velocity": 100
      },
      {
        "pitch": 66,
        "duration": 2.0,
        "velocity": 59
      },
      {
        "pitch": 64,
        "duration": 2.0,
        "velocity": 61
      },
      {
        "pitch": 88,
        "duration": 2.0,
        "velocity": 43
      },
      {
        "pitch": 66,
        "duration": 0.5,
        "velocity": 102
      },
      {
        "pitch": 33,
        "duration": 1.0,
        "velocity": 100
      }
    ],
    "key": "D major",
    "tempo": 120,
    "name": "129820fe71b310853a333b846db2b951_1.mid_seg159",
    "avg_interval": 15.933333333333334,
    "span": 55,
    "note_density": 0.0,
    "register": "middle",
    "complexity": 0.6666666666666666
  },
  {
    "events": [
      {
        "pitch": 69,
        "duration": 1.0,
        "velocity": 66
      },
      {
        "pitch": 76,
        "duration": 1.0,
        "velocity": 47
      },
      {
        "pitch": 69,
        "duration": 0.5,
        "velocity": 86
      },
      {
        "pitch": 38,
        "duration": 1.0,
        "velocity": 115
      },
      {
        "pitch": 50,
        "duration": 2.75,
        "velocity": 67
      },
      {
        "pitch": 57,
        "duration": 1.75,
        "velocity": 75
      },
      {
        "pitch": 45,
        "duration": 1.0,
        "velocity": 100
      },
      {
        "pitch": 62,
        "duration": 0.6666666666666666,
        "velocity": 57
      },
      {
        "pitch": 86,
        "duration": 2.0,
        "velocity": 43
      },
      {
        "pitch": 66,
        "duration": 1.5,
        "velocity": 72
      },
      {
        "pitch": 37,
        "duration": 1.0,
        "velocity": 115
      },
      {
        "pitch": 62,
        "duration": 1.0,
        "velocity": 54
      },
      {
        "pitch": 57,
        "duration": 0.5,
        "velocity": 81
      },
      {
        "pitch": 38,
        "duration": 3.0,
        "velocity": 115
      },
      {
        "pitch": 50,
        "duration": 3.0,
        "velocity": 86
      },
      {
        "pitch": 57,
        "duration": 2.6666666666666665,
        "velocity": 91
      }
    ],
    "key": "D major",
    "tempo": 120,
    "name": "129820fe71b310853a333b846db2b951_1.mid_seg160",
    "avg_interval": 15.6,
    "span": 49,
    "note_density": 0.0,
    "register": "middle",
    "complexity": 0.6666666666666666
  },
  {
    "events": [
      {
        "pitch": 62,
        "duration": 2.3333333333333335,
        "velocity": 50
      },
      {
        "pitch": 66,
        "duration": 2.0,
        "velocity": 95
      },
      {
        "pitch": 38,
        "duration": 2.6666666666666665,
        "velocity": 115
      },
      {
        "pitch": 50,
        "duration": 2.25,
        "velocity": 86
      },
      {
        "pitch": 57,
        "duration": 2.3333333333333335,
        "velocity": 91
      },
      {
        "pitch": 62,
        "duration": 2.3333333333333335,
        "velocity": 50
      },
      {
        "pitch": 66,
        "duration": 2.25,
        "velocity": 95
      }
    ],
    "key": "D major",
    "tempo": 120,
    "name": "129820fe71b310853a333b846db2b951_1.mid_seg161",
    "avg_interval": 10.0,
    "span": 28,
    "note_density": 0.0,
    "register": "middle",
    "complexity": 0.6111111111111112
  },
  {
    "events": [
      {
        "pitch": 36,
        "duration": 0.5,
        "velocity": 95
      },
      {
        "pitch": 41,
        "duration": 1.0,
        "velocity": 100
      },
      {
        "pitch": 48,
        "duration": 1.0,
        "velocity": 105
      },
      {
        "pitch": 57,
        "duration": 1.0,
        "velocity": 105
      },
      {
        "pitch": 65,
        "duration": 0.5,
        "velocity": 112
      },
      {
        "pitch": 65,
        "duration": 0.5,
        "velocity": 112
      },
      {
        "pitch": 43,
        "duration": 2.0,
        "velocity": 100
      },
      {
        "pitch": 50,
        "duration": 2.0,
        "velocity": 105
      },
      {
        "pitch": 58,
        "duration": 2.0,
        "velocity": 105
      },
      {
        "pitch": 65,
        "duration": 1.0,
        "velocity": 112
      },
      {
        "pitch": 67,
        "duration": 1.0,
        "velocity": 112
      },
      {
        "pitch": 45,
        "duration": 1.0,
        "velocity": 100
      },
      {
        "pitch": 52,
        "duration": 1.0,
        "velocity": 105
      },
      {
        "pitch": 60,
        "duration": 1.0,
        "velocity": 105
      },
      {
        "pitch": 69,
        "duration": 0.5,
        "velocity": 112
      },
      {
        "pitch": 69,
        "duration": 0.5,
        "velocity": 112
      }
    ],
    "key": "F major",
    "tempo": 120,
    "name": "8fb42fb300d91015af9a6c173f5e60e6_1.mid_seg0",
    "avg_interval": 8.066666666666666,
    "span": 33,
    "note_density": 0.0,
    "register": "middle",
    "complexity": 0.5574074074074074
  },
  {
    "events": [
      {
        "pitch": 50,
        "duration": 2.0,
        "velocity": 100
      },
      {
        "pitch": 54,
        "duration": 2.0,
        "velocity": 105
      },
      {
        "pitch": 60,
        "duration": 2.0,
        "velocity": 105
      },
      {
        "pitch": 63,
        "duration": 2.0,
        "velocity": 105
      },
      {
        "pitch": 69,
        "duration": 1.5,
        "velocity": 112
      },
      {
        "pitch": 69,
        "duration": 0.5,
        "velocity": 112
      },
      {
        "pitch": 55,
        "duration": 1.0,
        "velocity": 100
      },
      {
        "pitch": 58,
        "duration": 1.0,
        "velocity": 105
      },
      {
        "pitch": 62,
        "duration": 1.0,
        "velocity": 105
      },
      {
        "pitch": 65,
        "duration": 1.0,
        "velocity": 105
      },
      {
        "pitch": 67,
        "duration": 0.5,
        "velocity": 112
      },
      {
        "pitch": 69,
        "duration": 0.5,
        "velocity": 112
      },
      {
        "pitch": 52,
        "duration": 2.0,
        "velocity": 100
      },
      {
        "pitch": 58,
        "duration": 2.0,
        "velocity": 105
      },
      {
        "pitch": 62,
        "duration": 2.0,
        "velocity": 105
      },
      {
        "pitch": 70,
        "duration": 1.0,
        "velocity": 112
      }
    ],
    "key": "F major",
    "tempo": 120,
    "name": "8fb42fb300d91015af9a6c173f5e60e6_1.mid_seg1",
    "avg_interval": 5.466666666666667,
    "span": 20,
    "note_density": 0.0,
    "register": "middle",
    "complexity": 0.42962962962962964
  },
  {
    "events": [
      {
        "pitch": 64,
        "duration": 1.0,
        "velocity": 112
      },
      {
        "pitch": 41,
        "duration": 2.0,
        "velocity": 100
      },
      {
        "pitch": 48,
        "duration": 2.0,
        "velocity": 105
      },
      {
        "pitch": 57,
        "duration": 2.0,
        "velocity": 105
      },
      {
        "pitch": 67,
        "duration": 0.5,
        "velocity": 112
      },
      {
        "pitch": 65,
        "duration": 0.5,
        "velocity": 112
      },
      {
        "pitch": 65,
        "duration": 1.0,
        "velocity": 112
      },
      {
        "pitch": 36,
        "duration": 1.0,
        "velocity": 95
      },
      {
        "pitch": 53,
        "duration": 1.0,
        "velocity": 105
      },
      {
        "pitch": 58,
        "duration": 1.0,
        "velocity": 105
      },
      {
        "pitch": 61,
        "duration": 1.0,
        "velocity": 105
      },
      {
        "pitch": 65,
        "duration": 0.5,
        "velocity": 112
      },
      {
        "pitch": 60,
        "duration": 0.5,
        "velocity": 112
      },
      {
        "pitch": 41,
        "duration": 1.0,
        "velocity": 100
      },
      {
        "pitch": 57,
        "duration": 1.0,
        "velocity": 105
      },
      {
        "pitch": 65,
        "duration": 0.5,
        "velocity": 112
      }
    ],
    "key": "F major",
    "tempo": 120,
    "name": "8fb42fb300d91015af9a6c173f5e60e6_1.mid_seg2",
    "avg_interval": 10.466666666666667,
    "span": 31,
    "note_density": 0.0,
    "register": "middle",
    "complexity": 0.6240740740740741
  },
  {
    "events": [
      {
        "pitch": 48,
        "duration": 0.75,
        "velocity": 105
      },
      {
        "pitch": 65,
        "duration": 0.5,
        "velocity": 112
      },
      {
        "pitch": 43,
        "duration": 2.0,
        "velocity": 100
      },
      {
        "pitch": 50,
        "duration": 2.0,
        "velocity": 105
      },
      {
        "pitch": 58,
        "duration": 2.0,
        "velocity": 105
      },
      {
        "pitch": 65,
        "duration": 1.0,
        "velocity": 112
      },
      {
        "pitch": 67,
        "duration": 1.0,
        "velocity": 112
      },
      {
        "pitch": 45,
        "duration": 3.0,
        "velocity": 100
      },
      {
        "pitch": 60,
        "duration": 1.0,
        "velocity": 105
      },
      {
        "pitch": 69,
        "duration": 0.5,
        "velocity": 112
      },
      {
        "pitch": 69,
        "duration": 0.5,
        "velocity": 112
      },
      {
        "pitch": 55,
        "duration": 1.0,
        "velocity": 105
      },
      {
        "pitch": 61,
        "duration": 1.0,
        "velocity": 105
      },
      {
        "pitch": 65,
        "duration": 1.0,
        "velocity": 105
      },
      {
        "pitch": 69,
        "duration": 1.5,
        "velocity": 112
      },
      {
        "pitch": 54,
        "duration": 1.0,
        "velocity": 105
      }
    ],
    "key": "F major",
    "tempo": 120,
    "name": "8fb42fb300d91015af9a6c173f5e60e6_1.mid_seg3",
    "avg_interval": 10.133333333333333,
    "span": 26,
    "note_density": 0.0,
    "register": "middle",
    "complexity": 0.6148148148148148
  },
  {
    "events": [
      {
        "pitch": 60,
        "duration": 1.0,
        "velocity": 105
      },
      {
        "pitch": 63,
        "duration": 1.0,
        "velocity": 105
      },
      {
        "pitch": 69,
        "duration": 0.5,
        "velocity": 112
      },
      {
        "pitch": 55,
        "duration": 3.0,
        "velocity": 100
      },
      {
        "pitch": 58,
        "duration": 3.0,
        "velocity": 105
      },
      {
        "pitch": 62,
        "duration": 3.0,
        "velocity": 105
      },
      {
        "pitch": 67,
        "duration": 0.5,
        "velocity": 112
      },
      {
        "pitch": 69,
        "duration": 0.5,
        "velocity": 112
      },
      {
        "pitch": 70,
        "duration": 1.0,
        "velocity": 112
      },
      {
        "pitch": 64,
        "duration": 1.0,
        "velocity": 112
      },
      {
        "pitch": 41,
        "duration": 3.0,
        "velocity": 100
      },
      {
        "pitch": 60,
        "duration": 3.0,
        "velocity": 105
      },
      {
        "pitch": 67,
        "duration": 0.5,
        "velocity": 112
      },
      {
        "pitch": 48,
        "duration": 2.5,
        "velocity": 105
      },
      {
        "pitch": 65,
        "duration": 0.5,
        "velocity": 112
      },
      {
        "pitch": 57,
        "duration": 2.0,
        "velocity": 105
      }
    ],
    "key": "F major",
    "tempo": 120,
    "name": "8fb42fb300d91015af9a6c173f5e60e6_1.mid_seg4",
    "avg_interval": 9.133333333333333,
    "span": 29,
    "note_density": 0.0,
    "register": "middle",
    "complexity": 0.587037037037037
  },
  {
    "events": [
      {
        "pitch": 65,
        "duration": 1.5,
        "velocity": 112
      },
      {
        "pitch": 72,
        "duration": 0.5,
        "velocity": 112
      },
      {
        "pitch": 57,
        "duration": 1.0,
        "velocity": 100
      },
      {
        "pitch": 64,
        "duration": 1.0,
        "velocity": 105
      },
      {
        "pitch": 67,
        "duration": 1.0,
        "velocity": 105
      },
      {
        "pitch": 72,
        "duration": 0.5,
        "velocity": 112
      },
      {
        "pitch": 69,
        "duration": 0.5,
        "velocity": 112
      },
      {
        "pitch": 54,
        "duration": 2.0,
        "velocity": 100
      },
      {
        "pitch": 63,
        "duration": 2.0,
        "velocity": 105
      },
      {
        "pitch": 69,
        "duration": 2.0,
        "velocity": 105
      },
      {
        "pitch": 74,
        "duration": 1.5,
        "velocity": 112
      },
      {
        "pitch": 72,
        "duration": 0.5,
        "velocity": 112
      },
      {
        "pitch": 55,
        "duration": 3.0,
        "velocity": 100
      },
      {
        "pitch": 62,
        "duration": 3.0,
        "velocity": 105
      },
      {
        "pitch": 65,
        "duration": 3.0,
        "velocity": 105
      },
      {
        "pitch": 72,
        "duration": 0.5,
        "velocity": 112
      }
    ],
    "key": "F major",
    "tempo": 120,
    "name": "8fb42fb300d91015af9a6c173f5e60e6_1.mid_seg5",
    "avg_interval": 7.4,
    "span": 20,
    "note_density": 0.0,
    "register": "middle",
    "complexity": 0.4833333333333334
  },
  {
    "events": [
      {
        "pitch": 70,
        "duration": 0.5,
        "velocity": 112
      },
      {
        "pitch": 70,
        "duration": 1.5,
        "velocity": 112
      },
      {
        "pitch": 70,
        "duration": 0.5,
        "velocity": 112
      },
      {
        "pitch": 55,
        "duration": 1.5,
        "velocity": 100
      },
      {
        "pitch": 62,
        "duration": 1.5,
        "velocity": 105
      },
      {
        "pitch": 65,
        "duration": 1.5,
        "velocity": 105
      },
      {
        "pitch": 70,
        "duration": 0.5,
        "velocity": 112
      },
      {
        "pitch": 67,
        "duration": 0.5,
        "velocity": 112
      },
      {
        "pitch": 72,
        "duration": 1.5,
        "velocity": 112
      },
      {
        "pitch": 58,
        "duration": 1.0,
        "velocity": 105
      },
      {
        "pitch": 64,
        "duration": 1.0,
        "velocity": 105
      },
      {
        "pitch": 69,
        "duration": 1.0,
        "velocity": 105
      },
      {
        "pitch": 58,
        "duration": 0.5,
        "velocity": 105
      },
      {
        "pitch": 64,
        "duration": 0.5,
        "velocity": 105
      },
      {
        "pitch": 68,
        "duration": 0.5,
        "velocity": 105
      },
      {
        "pitch": 70,
        "duration": 0.5,
        "velocity": 112
      }
    ],
    "key": "F major",
    "tempo": 120,
    "name": "8fb42fb300d91015af9a6c173f5e60e6_1.mid_seg6",
    "avg_interval": 5.733333333333333,
    "span": 17,
    "note_density": 0.09375,
    "register": "middle",
    "complexity": 0.42662037037037037
  },
  {
    "events": [
      {
        "pitch": 57,
        "duration": 2.0,
        "velocity": 100
      },
      {
        "pitch": 60,
        "duration": 2.0,
        "velocity": 105
      },
      {
        "pitch": 64,
        "duration": 2.0,
        "velocity": 105
      },
      {
        "pitch": 67,
        "duration": 2.0,
        "velocity": 105
      },
      {
        "pitch": 70,
        "duration": 0.5,
        "velocity": 112
      },
      {
        "pitch": 69,
        "duration": 0.5,
        "velocity": 112
      },
      {
        "pitch": 69,
        "duration": 1.0,
        "velocity": 112
      },
      {
        "pitch": 48,
        "duration": 1.0,
        "velocity": 100
      },
      {
        "pitch": 58,
        "duration": 1.0,
        "velocity": 105
      },
      {
        "pitch": 61,
        "duration": 1.0,
        "velocity": 105
      },
      {
        "pitch": 64,
        "duration": 1.0,
        "velocity": 105
      },
      {
        "pitch": 69,
        "duration": 0.5,
        "velocity": 112
      },
      {
        "pitch": 60,
        "duration": 0.5,
        "velocity": 112
      },
      {
        "pitch": 41,
        "duration": 1.0,
        "velocity": 100
      },
      {
        "pitch": 65,
        "duration": 0.5,
        "velocity": 112
      },
      {
        "pitch": 48,
        "duration": 0.75,
        "velocity": 105
      }
    ],
    "key": "F major",
    "tempo": 120,
    "name": "8fb42fb300d91015af9a6c173f5e60e6_1.mid_seg7",
    "avg_interval": 8.333333333333334,
    "span": 29,
    "note_density": 0.0,
    "register": "middle",
    "complexity": 0.5648148148148149
  },
  {
    "events": [
      {
        "pitch": 57,
        "duration": 0.5,
        "velocity": 105
      },
      {
        "pitch": 65,
        "duration": 0.5,
        "velocity": 112
      },
      {
        "pitch": 43,
        "duration": 2.0,
        "velocity": 100
      },
      {
        "pitch": 50,
        "duration": 2.0,
        "velocity": 105
      },
      {
        "pitch": 58,
        "duration": 2.0,
        "velocity": 105
      },
      {
        "pitch": 65,
        "duration": 1.0,
        "velocity": 112
      },
      {
        "pitch": 67,
        "duration": 1.0,
        "velocity": 112
      },
      {
        "pitch": 45,
        "duration": 0.5,
        "velocity": 100
      },
      {
        "pitch": 55,
        "duration": 0.5,
        "velocity": 105
      },
      {
        "pitch": 60,
        "duration": 0.5,
        "velocity": 105
      },
      {
        "pitch": 69,
        "duration": 0.5,
        "velocity": 112
      },
      {
        "pitch": 51,
        "duration": 0.5,
        "velocity": 100
      },
      {
        "pitch": 55,
        "duration": 0.5,
        "velocity": 105
      },
      {
        "pitch": 61,
        "duration": 0.5,
        "velocity": 105
      },
      {
        "pitch": 65,
        "duration": 0.5,
        "velocity": 105
      },
      {
        "pitch": 69,
        "duration": 0.5,
        "velocity": 112
      }
    ],
    "key": "F major",
    "tempo": 120,
    "name": "8fb42fb300d91015af9a6c173f5e60e6_1.mid_seg8",
    "avg_interval": 9.066666666666666,
    "span": 26,
    "note_density": 0.15625,
    "register": "middle",
    "complexity": 0.6372685185185185
  },
  {
    "events": [
      {
        "pitch": 50,
        "duration": 2.0,
        "velocity": 100
      },
      {
        "pitch": 54,
        "duration": 2.0,
        "velocity": 105
      },
      {
        "pitch": 60,
        "duration": 2.0,
        "velocity": 105
      },
      {
        "pitch": 64,
        "duration": 2.0,
        "velocity": 105
      },
      {
        "pitch": 69,
        "duration": 1.5,
        "velocity": 112
      },
      {
        "pitch": 69,
        "duration": 0.5,
        "velocity": 112
      },
      {
        "pitch": 43,
        "duration": 1.0,
        "velocity": 100
      },
      {
        "pitch": 53,
        "duration": 1.0,
        "velocity": 105
      },
      {
        "pitch": 58,
        "duration": 1.0,
        "velocity": 105
      },
      {
        "pitch": 62,
        "duration": 1.0,
        "velocity": 105
      },
      {
        "pitch": 67,
        "duration": 0.5,
        "velocity": 112
      },
      {
        "pitch": 69,
        "duration": 0.5,
        "velocity": 112
      },
      {
        "pitch": 48,
        "duration": 2.0,
        "velocity": 100
      },
      {
        "pitch": 52,
        "duration": 2.0,
        "velocity": 105
      },
      {
        "pitch": 58,
        "duration": 2.0,
        "velocity": 105
      },
      {
        "pitch": 61,
        "duration": 2.0,
        "velocity": 105
      }
    ],
    "key": "F major",
    "tempo": 120,
    "name": "8fb42fb300d91015af9a6c173f5e60e6_1.mid_seg9",
    "avg_interval": 7.0,
    "span": 26,
    "note_density": 0.0,
    "register": "middle",
    "complexity": 0.5277777777777778
  },
  {
    "events": [
      {
        "pitch": 70,
        "duration": 1.0,
        "velocity": 112
      },
      {
        "pitch": 64,
        "duration": 1.0,
        "velocity": 112
      },
      {
        "pitch": 60,
        "duration": 3.0,
        "velocity": 105
      },
      {
        "pitch": 62,
        "duration": 3.0,
        "velocity": 105
      },
      {
        "pitch": 67,
        "duration": 0.5,
        "velocity": 112
      },
      {
        "pitch": 65,
        "duration": 0.5,
        "velocity": 112
      },
      {
        "pitch": 65,
        "duration": 2.0,
        "velocity": 112
      },
      {
        "pitch": 36,
        "duration": 3.0,
        "velocity": 95
      },
      {
        "pitch": 52,
        "duration": 3.0,
        "velocity": 105
      },
      {
        "pitch": 58,
        "duration": 1.75,
        "velocity": 105
      },
      {
        "pitch": 61,
        "duration": 1.75,
        "velocity": 105
      },
      {
        "pitch": 69,
        "duration": 1.75,
        "velocity": 112
      },
      {
        "pitch": 60,
        "duration": 1.0,
        "velocity": 112
      },
      {
        "pitch": 29,
        "duration": 1.6666666666666667,
        "velocity": 120
      },
      {
        "pitch": 29,
        "duration": 1.75,
        "velocity": 95
      },
      {
        "pitch": 60,
        "duration": 1.0,
        "velocity": 105
      }
    ],
    "key": "F major",
    "tempo": 120,
    "name": "8fb42fb300d91015af9a6c173f5e60e6_1.mid_seg10",
    "avg_interval": 10.133333333333333,
    "span": 41,
    "note_density": 0.0,
    "register": "middle",
    "complexity": 0.6148148148148148
  },
  {
    "events": [
      {
        "pitch": 62,
        "duration": 1.0,
        "velocity": 112
      },
      {
        "pitch": 36,
        "duration": 0.3333333333333333,
        "velocity": 120
      },
      {
        "pitch": 36,
        "duration": 0.25,
        "velocity": 95
      },
      {
        "pitch": 31,
        "duration": 1.6666666666666667,
        "velocity": 120
      },
      {
        "pitch": 31,
        "duration": 1.75,
        "velocity": 95
      },
      {
        "pitch": 53,
        "duration": 1.0,
        "velocity": 105
      },
      {
        "pitch": 55,
        "duration": 1.0,
        "velocity": 105
      },
      {
        "pitch": 58,
        "duration": 1.0,
        "velocity": 105
      },
      {
        "pitch": 62,
        "duration": 1.0,
        "velocity": 112
      },
      {
        "pitch": 36,
        "duration": 0.3333333333333333,
        "velocity": 120
      },
      {
        "pitch": 36,
        "duration": 0.3333333333333333,
        "velocity": 95
      },
      {
        "pitch": 57,
        "duration": 0.25,
        "velocity": 105
      },
      {
        "pitch": 60,
        "duration": 0.3333333333333333,
        "velocity": 105
      },
      {
        "pitch": 64,
        "duration": 0.3333333333333333,
        "velocity": 105
      },
      {
        "pitch": 67,
        "duration": 0.3333333333333333,
        "velocity": 112
      },
      {
        "pitch": 29,
        "duration": 1.6666666666666667,
        "velocity": 120
      }
    ],
    "key": "F major",
    "tempo": 120,
    "name": "8fb42fb300d91015af9a6c173f5e60e6_1.mid_seg11",
    "avg_interval": 10.466666666666667,
    "span": 38,
    "note_density": 0.21354166666666652,
    "register": "bass",
    "complexity": 0.6952546296296296
  },
  {
    "events": [
      {
        "pitch": 29,
        "duration": 1.75,
        "velocity": 95
      },
      {
        "pitch": 69,
        "duration": 0.5,
        "velocity": 112
      },
      {
        "pitch": 69,
        "duration": 3.3333333333333335,
        "velocity": 112
      },
      {
        "pitch": 39,
        "duration": 0.3333333333333333,
        "velocity": 120
      },
      {
        "pitch": 39,
        "duration": 0.3333333333333333,
        "velocity": 100
      },
      {
        "pitch": 38,
        "duration": 1.0,
        "velocity": 120
      },
      {
        "pitch": 38,
        "duration": 1.0,
        "velocity": 100
      },
      {
        "pitch": 60,
        "duration": 1.0,
        "velocity": 105
      },
      {
        "pitch": 63,
        "duration": 1.0,
        "velocity": 105
      },
      {
        "pitch": 66,
        "duration": 1.0,
        "velocity": 105
      },
      {
        "pitch": 44,
        "duration": 1.0,
        "velocity": 120
      },
      {
        "pitch": 44,
        "duration": 1.0,
        "velocity": 100
      },
      {
        "pitch": 43,
        "duration": 1.6666666666666667,
        "velocity": 120
      },
      {
        "pitch": 43,
        "duration": 1.6666666666666667,
        "velocity": 100
      },
      {
        "pitch": 58,
        "duration": 1.0,
        "velocity": 105
      },
      {
        "pitch": 62,
        "duration": 1.0,
        "velocity": 105
      }
    ],
    "key": "F major",
    "tempo": 120,
    "name": "8fb42fb300d91015af9a6c173f5e60e6_1.mid_seg12",
    "avg_interval": 9.4,
    "span": 40,
    "note_density": 0.0,
    "register": "bass",
    "complexity": 0.5944444444444444
  },
  {
    "events": [
      {
        "pitch": 65,
        "duration": 1.0,
        "velocity": 105
      },
      {
        "pitch": 69,
        "duration": 2.0,
        "velocity": 112
      },
      {
        "pitch": 46,
        "duration": 0.3333333333333333,
        "velocity": 120
      },
      {
        "pitch": 46,
        "duration": 0.3333333333333333,
        "velocity": 100
      },
      {
        "pitch": 58,
        "duration": 0.25,
        "velocity": 105
      },
      {
        "pitch": 61,
        "duration": 0.25,
        "velocity": 105
      },
      {
        "pitch": 64,
        "duration": 0.25,
        "velocity": 105
      },
      {
        "pitch": 48,
        "duration": 0.6666666666666666,
        "velocity": 120
      },
      {
        "pitch": 48,
        "duration": 0.75,
        "velocity": 100
      },
      {
        "pitch": 67,
        "duration": 0.6666666666666666,
        "velocity": 112
      },
      {
        "pitch": 43,
        "duration": 0.3333333333333333,
        "velocity": 120
      },
      {
        "pitch": 43,
        "duration": 0.3333333333333333,
        "velocity": 100
      },
      {
        "pitch": 69,
        "duration": 0.3333333333333333,
        "velocity": 112
      },
      {
        "pitch": 36,
        "duration": 1.0,
        "velocity": 120
      },
      {
        "pitch": 36,
        "duration": 1.0,
        "velocity": 95
      },
      {
        "pitch": 70,
        "duration": 0.75,
        "velocity": 112
      }
    ],
    "key": "F major",
    "tempo": 120,
    "name": "8fb42fb300d91015af9a6c173f5e60e6_1.mid_seg13",
    "avg_interval": 13.133333333333333,
    "span": 34,
    "note_density": 0.359375,
    "register": "bass",
    "complexity": 0.7864583333333334
  },
  {
    "events": [
      {
        "pitch": 64,
        "duration": 0.3333333333333333,
        "velocity": 112
      },
      {
        "pitch": 41,
        "duration": 1.6666666666666667,
        "velocity": 120
      },
      {
        "pitch": 41,
        "duration": 1.75,
        "velocity": 100
      },
      {
        "pitch": 66,
        "duration": 0.25,
        "velocity": 112
      },
      {
        "pitch": 67,
        "duration": 1.0,
        "velocity": 112
      },
      {
        "pitch": 65,
        "duration": 1.0,
        "velocity": 112
      },
      {
        "pitch": 46,
        "duration": 0.3333333333333333,
        "velocity": 120
      },
      {
        "pitch": 46,
        "duration": 0.25,
        "velocity": 100
      },
      {
        "pitch": 45,
        "duration": 1.0,
        "velocity": 120
      },
      {
        "pitch": 45,
        "duration": 1.0,
        "velocity": 100
      },
      {
        "pitch": 65,
        "duration": 1.0,
        "velocity": 112
      },
      {
        "pitch": 43,
        "duration": 1.0,
        "velocity": 120
      },
      {
        "pitch": 43,
        "duration": 1.0,
        "velocity": 100
      },
      {
        "pitch": 68,
        "duration": 0.25,
        "velocity": 112
      },
      {
        "pitch": 69,
        "duration": 1.0,
        "velocity": 112
      },
      {
        "pitch": 41,
        "duration": 1.75,
        "velocity": 120
      }
    ],
    "key": "F major",
    "tempo": 120,
    "name": "8fb42fb300d91015af9a6c173f5e60e6_1.mid_seg14",
    "avg_interval": 11.133333333333333,
    "span": 28,
    "note_density": 0.08854166666666674,
    "register": "bass",
    "complexity": 0.6721064814814813
  },
  {
    "events": [
      {
        "pitch": 41,
        "duration": 2.0,
        "velocity": 100
      },
      {
        "pitch": 69,
        "duration": 1.5,
        "velocity": 112
      },
      {
        "pitch": 58,
        "duration": 0.3333333333333333,
        "velocity": 112
      },
      {
        "pitch": 43,
        "duration": 1.6666666666666667,
        "velocity": 120
      },
      {
        "pitch": 43,
        "duration": 1.75,
        "velocity": 100
      },
      {
        "pitch": 65,
        "duration": 1.0,
        "velocity": 112
      },
      {
        "pitch": 67,
        "duration": 1.0,
        "velocity": 112
      },
      {
        "pitch": 43,
        "duration": 0.3333333333333333,
        "velocity": 120
      },
      {
        "pitch": 43,
        "duration": 0.3333333333333333,
        "velocity": 100
      },
      {
        "pitch": 45,
        "duration": 1.3333333333333333,
        "velocity": 120
      },
      {
        "pitch": 45,
        "duration": 1.3333333333333333,
        "velocity": 100
      },
      {
        "pitch": 68,
        "duration": 0.3333333333333333,
        "velocity": 112
      },
      {
        "pitch": 69,
        "duration": 4.0,
        "velocity": 112
      },
      {
        "pitch": 55,
        "duration": 0.3333333333333333,
        "velocity": 105
      },
      {
        "pitch": 61,
        "duration": 0.3333333333333333,
        "velocity": 105
      },
      {
        "pitch": 65,
        "duration": 0.3333333333333333,
        "velocity": 105
      }
    ],
    "key": "F major",
    "tempo": 120,
    "name": "8fb42fb300d91015af9a6c173f5e60e6_1.mid_seg15",
    "avg_interval": 10.133333333333333,
    "span": 28,
    "note_density": 0.0,
    "register": "middle",
    "complexity": 0.6148148148148148
  },
  {
    "events": [
      {
        "pitch": 45,
        "duration": 0.3333333333333333,
        "velocity": 120
      },
      {
        "pitch": 45,
        "duration": 0.3333333333333333,
        "velocity": 100
      },
      {
        "pitch": 39,
        "duration": 0.3333333333333333,
        "velocity": 120
      },
      {
        "pitch": 39,
        "duration": 0.3333333333333333,
        "velocity": 100
      },
      {
        "pitch": 38,
        "duration": 1.0,
        "velocity": 120
      },
      {
        "pitch": 38,
        "duration": 1.0,
        "velocity": 100
      },
      {
        "pitch": 54,
        "duration": 1.0,
        "velocity": 105
      },
      {
        "pitch": 44,
        "duration": 1.0,
        "velocity": 120
      },
      {
        "pitch": 44,
        "duration": 1.0,
        "velocity": 100
      },
      {
        "pitch": 43,
        "duration": 1.6666666666666667,
        "velocity": 120
      },
      {
        "pitch": 43,
        "duration": 1.75,
        "velocity": 100
      },
      {
        "pitch": 58,
        "duration": 0.75,
        "velocity": 105
      },
      {
        "pitch": 62,
        "duration": 0.75,
        "velocity": 105
      },
      {
        "pitch": 65,
        "duration": 0.6666666666666666,
        "velocity": 112
      },
      {
        "pitch": 67,
        "duration": 0.6666666666666666,
        "velocity": 112
      },
      {
        "pitch": 69,
        "duration": 0.75,
        "velocity": 112
      }
    ],
    "key": "F major",
    "tempo": 120,
    "name": "8fb42fb300d91015af9a6c173f5e60e6_1.mid_seg16",
    "avg_interval": 4.0,
    "span": 31,
    "note_density": 0.16666666666666674,
    "register": "bass",
    "complexity": 0.5
  },
  {
    "events": [
      {
        "pitch": 43,
        "duration": 0.3333333333333333,
        "velocity": 120
      },
      {
        "pitch": 43,
        "duration": 0.3333333333333333,
        "velocity": 100
      },
      {
        "pitch": 36,
        "duration": 1.75,
        "velocity": 120
      },
      {
        "pitch": 36,
        "duration": 2.0,
        "velocity": 95
      },
      {
        "pitch": 58,
        "duration": 0.75,
        "velocity": 105
      },
      {
        "pitch": 61,
        "duration": 0.75,
        "velocity": 105
      },
      {
        "pitch": 70,
        "duration": 0.75,
        "velocity": 112
      },
      {
        "pitch": 64,
        "duration": 1.0,
        "velocity": 112
      },
      {
        "pitch": 66,
        "duration": 0.25,
        "velocity": 112
      },
      {
        "pitch": 67,
        "duration": 0.25,
        "velocity": 112
      },
      {
        "pitch": 41,
        "duration": 1.6666666666666667,
        "velocity": 120
      },
      {
        "pitch": 41,
        "duration": 1.75,
        "velocity": 100
      },
      {
        "pitch": 67,
        "duration": 0.75,
        "velocity": 112
      },
      {
        "pitch": 65,
        "duration": 1.3333333333333333,
        "velocity": 112
      },
      {
        "pitch": 46,
        "duration": 0.3333333333333333,
        "velocity": 120
      },
      {
        "pitch": 46,
        "duration": 0.3333333333333333,
        "velocity": 100
      }
    ],
    "key": "F major",
    "tempo": 120,
    "name": "8fb42fb300d91015af9a6c173f5e60e6_1.mid_seg17",
    "avg_interval": 8.2,
    "span": 34,
    "note_density": 0.10416666666666663,
    "register": "bass",
    "complexity": 0.5958333333333332
  },
  {
    "events": [
      {
        "pitch": 45,
        "duration": 1.0,
        "velocity": 120
      },
      {
        "pitch": 45,
        "duration": 1.0,
        "velocity": 100
      },
      {
        "pitch": 72,
        "duration": 2.0,
        "velocity": 112
      },
      {
        "pitch": 43,
        "duration": 1.0,
        "velocity": 120
      },
      {
        "pitch": 43,
        "duration": 1.0,
        "velocity": 100
      },
      {
        "pitch": 41,
        "duration": 1.6666666666666667,
        "velocity": 120
      },
      {
        "pitch": 41,
        "duration": 1.75,
        "velocity": 100
      },
      {
        "pitch": 57,
        "duration": 1.75,
        "velocity": 105
      },
      {
        "pitch": 60,
        "duration": 2.0,
        "velocity": 105
      },
      {
        "pitch": 64,
        "duration": 2.0,
        "velocity": 105
      },
      {
        "pitch": 67,
        "duration": 2.0,
        "velocity": 105
      },
      {
        "pitch": 72,
        "duration": 1.75,
        "velocity": 112
      },
      {
        "pitch": 53,
        "duration": 0.3333333333333333,
        "velocity": 120
      },
      {
        "pitch": 53,
        "duration": 0.25,
        "velocity": 100
      },
      {
        "pitch": 69,
        "duration": 0.3333333333333333,
        "velocity": 112
      },
      {
        "pitch": 54,
        "duration": 1.0,
        "velocity": 120
      }
    ],
    "key": "F major",
    "tempo": 120,
    "name": "8fb42fb300d91015af9a6c173f5e60e6_1.mid_seg18",
    "avg_interval": 9.266666666666667,
    "span": 31,
    "note_density": 0.0,
    "register": "bass",
    "complexity": 0.5907407407407407
  },
  {
    "events": [
      {
        "pitch": 54,
        "duration": 1.0,
        "velocity": 100
      },
      {
        "pitch": 60,
        "duration": 2.0,
        "velocity": 105
      },
      {
        "pitch": 65,
        "duration": 2.0,
        "velocity": 105
      },
      {
        "pitch": 73,
        "duration": 0.25,
        "velocity": 112
      },
      {
        "pitch": 74,
        "duration": 1.5,
        "velocity": 112
      },
      {
        "pitch": 42,
        "duration": 1.0,
        "velocity": 120
      },
      {
        "pitch": 42,
        "duration": 1.0,
        "velocity": 100
      },
      {
        "pitch": 72,
        "duration": 0.3333333333333333,
        "velocity": 112
      },
      {
        "pitch": 43,
        "duration": 1.6666666666666667,
        "velocity": 120
      },
      {
        "pitch": 43,
        "duration": 1.75,
        "velocity": 100
      },
      {
        "pitch": 62,
        "duration": 2.0,
        "velocity": 105
      },
      {
        "pitch": 65,
        "duration": 2.0,
        "velocity": 105
      },
      {
        "pitch": 72,
        "duration": 0.6666666666666666,
        "velocity": 112
      },
      {
        "pitch": 70,
        "duration": 0.6666666666666666,
        "velocity": 112
      },
      {
        "pitch": 70,
        "duration": 2.6666666666666665,
        "velocity": 112
      },
      {
        "pitch": 38,
        "duration": 0.3333333333333333,
        "velocity": 120
      }
    ],
    "key": "F major",
    "tempo": 120,
    "name": "8fb42fb300d91015af9a6c173f5e60e6_1.mid_seg19",
    "avg_interval": 11.6,
    "span": 36,
    "note_density": 0.0,
    "register": "middle",
    "complexity": 0.6555555555555556
  },
  {
    "events": [
      {
        "pitch": 38,
        "duration": 0.3333333333333333,
        "velocity": 100
      },
      {
        "pitch": 45,
        "duration": 1.0,
        "velocity": 120
      },
      {
        "pitch": 45,
        "duration": 1.0,
        "velocity": 100
      },
      {
        "pitch": 58,
        "duration": 0.3333333333333333,
        "velocity": 105
      },
      {
        "pitch": 62,
        "duration": 0.3333333333333333,
        "velocity": 105
      },
      {
        "pitch": 65,
        "duration": 0.3333333333333333,
        "velocity": 105
      },
      {
        "pitch": 44,
        "duration": 1.0,
        "velocity": 120
      },
      {
        "pitch": 44,
        "duration": 1.0,
        "velocity": 100
      },
      {
        "pitch": 43,
        "duration": 1.6666666666666667,
        "velocity": 120
      },
      {
        "pitch": 43,
        "duration": 1.75,
        "velocity": 100
      },
      {
        "pitch": 58,
        "duration": 0.75,
        "velocity": 105
      },
      {
        "pitch": 62,
        "duration": 0.75,
        "velocity": 105
      },
      {
        "pitch": 65,
        "duration": 0.75,
        "velocity": 112
      },
      {
        "pitch": 70,
        "duration": 0.08333333333333333,
        "velocity": 112
      },
      {
        "pitch": 70,
        "duration": 0.6666666666666666,
        "velocity": 112
      },
      {
        "pitch": 67,
        "duration": 0.6666666666666666,
        "velocity": 112
      }
    ],
    "key": "F major",
    "tempo": 120,
    "name": "8fb42fb300d91015af9a6c173f5e60e6_1.mid_seg20",
    "avg_interval": 5.266666666666667,
    "span": 32,
    "note_density": 0.22395833333333337,
    "register": "bass",
    "complexity": 0.5542824074074074
  },
  {
    "events": [
      {
        "pitch": 43,
        "duration": 0.3333333333333333,
        "velocity": 120
      },
      {
        "pitch": 43,
        "duration": 0.3333333333333333,
        "velocity": 100
      },
      {
        "pitch": 36,
        "duration": 1.75,
        "velocity": 120
      },
      {
        "pitch": 36,
        "duration": 2.0,
        "velocity": 95
      },
      {
        "pitch": 61,
        "duration": 1.75,
        "velocity": 105
      },
      {
        "pitch": 64,
        "duration": 1.6666666666666667,
        "velocity": 105
      },
      {
        "pitch": 67,
        "duration": 1.75,
        "velocity": 105
      },
      {
        "pitch": 72,
        "duration": 1.75,
        "velocity": 112
      },
      {
        "pitch": 67,
        "duration": 0.3333333333333333,
        "velocity": 105
      },
      {
        "pitch": 70,
        "duration": 0.3333333333333333,
        "velocity": 112
      },
      {
        "pitch": 45,
        "duration": 1.0,
        "velocity": 120
      },
      {
        "pitch": 45,
        "duration": 1.0,
        "velocity": 100
      },
      {
        "pitch": 60,
        "duration": 2.3333333333333335,
        "velocity": 105
      },
      {
        "pitch": 67,
        "duration": 0.6666666666666666,
        "velocity": 105
      },
      {
        "pitch": 70,
        "duration": 0.75,
        "velocity": 112
      },
      {
        "pitch": 65,
        "duration": 0.6666666666666666,
        "velocity": 105
      }
    ],
    "key": "F major",
    "tempo": 120,
    "name": "8fb42fb300d91015af9a6c173f5e60e6_1.mid_seg21",
    "avg_interval": 7.066666666666666,
    "span": 36,
    "note_density": 0.0,
    "register": "middle",
    "complexity": 0.5296296296296297
  },
  {
    "events": [
      {
        "pitch": 69,
        "duration": 0.6666666666666666,
        "velocity": 112
      },
      {
        "pitch": 38,
        "duration": 1.0,
        "velocity": 120
      },
      {
        "pitch": 38,
        "duration": 1.0,
        "velocity": 100
      },
      {
        "pitch": 65,
        "duration": 2.6666666666666665,
        "velocity": 105
      },
      {
        "pitch": 69,
        "duration": 2.6666666666666665,
        "velocity": 112
      },
      {
        "pitch": 43,
        "duration": 1.0,
        "velocity": 120
      },
      {
        "pitch": 43,
        "duration": 1.0,
        "velocity": 100
      },
      {
        "pitch": 58,
        "duration": 1.6666666666666667,
        "velocity": 105
      },
      {
        "pitch": 36,
        "duration": 1.0,
        "velocity": 120
      },
      {
        "pitch": 36,
        "duration": 1.0,
        "velocity": 95
      },
      {
        "pitch": 41,
        "duration": 1.6666666666666667,
        "velocity": 120
      },
      {
        "pitch": 41,
        "duration": 1.75,
        "velocity": 100
      },
      {
        "pitch": 57,
        "duration": 0.75,
        "velocity": 105
      },
      {
        "pitch": 60,
        "duration": 0.6666666666666666,
        "velocity": 105
      },
      {
        "pitch": 58,
        "duration": 0.08333333333333333,
        "velocity": 105
      },
      {
        "pitch": 64,
        "duration": 0.75,
        "velocity": 112
      }
    ],
    "key": "F major",
    "tempo": 120,
    "name": "8fb42fb300d91015af9a6c173f5e60e6_1.mid_seg22",
    "avg_interval": 10.466666666666667,
    "span": 33,
    "note_density": 0.0,
    "register": "bass",
    "complexity": 0.6240740740740741
  },
  {
    "events": [
      {
        "pitch": 69,
        "duration": 0.08333333333333333,
        "velocity": 112
      },
      {
        "pitch": 60,
        "duration": 0.25,
        "velocity": 112
      },
      {
        "pitch": 65,
        "duration": 0.75,
        "velocity": 112
      },
      {
        "pitch": 41,
        "duration": 0.3333333333333333,
        "velocity": 120
      },
      {
        "pitch": 41,
        "duration": 0.3333333333333333,
        "velocity": 100
      },
      {
        "pitch": 52,
        "duration": 0.3333333333333333,
        "velocity": 105
      },
      {
        "pitch": 60,
        "duration": 0.3333333333333333,
        "velocity": 112
      },
      {
        "pitch": 43,
        "duration": 1.75,
        "velocity": 120
      },
      {
        "pitch": 43,
        "duration": 2.0,
        "velocity": 100
      },
      {
        "pitch": 53,
        "duration": 2.0,
        "velocity": 105
      },
      {
        "pitch": 58,
        "duration": 0.6666666666666666,
        "velocity": 105
      },
      {
        "pitch": 67,
        "duration": 0.75,
        "velocity": 112
      },
      {
        "pitch": 60,
        "duration": 0.75,
        "velocity": 112
      },
      {
        "pitch": 65,
        "duration": 0.6666666666666666,
        "velocity": 112
      },
      {
        "pitch": 45,
        "duration": 1.6666666666666667,
        "velocity": 120
      },
      {
        "pitch": 45,
        "duration": 1.75,
        "velocity": 100
      }
    ],
    "key": "F major",
    "tempo": 120,
    "name": "8fb42fb300d91015af9a6c173f5e60e6_1.mid_seg23",
    "avg_interval": 8.666666666666666,
    "span": 28,
    "note_density": 0.09895833333333348,
    "register": "bass",
    "complexity": 0.6070601851851852
  },
  {
    "events": [
      {
        "pitch": 51,
        "duration": 1.75,
        "velocity": 105
      },
      {
        "pitch": 55,
        "duration": 1.75,
        "velocity": 105
      },
      {
        "pitch": 65,
        "duration": 0.08333333333333333,
        "velocity": 112
      },
      {
        "pitch": 69,
        "duration": 0.75,
        "velocity": 112
      },
      {
        "pitch": 64,
        "duration": 0.6666666666666666,
        "velocity": 112
      },
      {
        "pitch": 45,
        "duration": 0.3333333333333333,
        "velocity": 120
      },
      {
        "pitch": 45,
        "duration": 0.3333333333333333,
        "velocity": 100
      },
      {
        "pitch": 60,
        "duration": 2.0,
        "velocity": 105
      },
      {
        "pitch": 66,
        "duration": 2.0,
        "velocity": 112
      },
      {
        "pitch": 38,
        "duration": 1.0,
        "velocity": 120
      },
      {
        "pitch": 38,
        "duration": 1.0,
        "velocity": 100
      },
      {
        "pitch": 44,
        "duration": 1.0,
        "velocity": 120
      },
      {
        "pitch": 44,
        "duration": 1.0,
        "velocity": 100
      },
      {
        "pitch": 58,
        "duration": 0.3333333333333333,
        "velocity": 105
      },
      {
        "pitch": 62,
        "duration": 0.3333333333333333,
        "velocity": 105
      },
      {
        "pitch": 65,
        "duration": 0.3333333333333333,
        "velocity": 112
      }
    ],
    "key": "F major",
    "tempo": 120,
    "name": "8fb42fb300d91015af9a6c173f5e60e6_1.mid_seg24",
    "avg_interval": 7.866666666666666,
    "span": 31,
    "note_density": 0.08333333333333315,
    "register": "bass",
    "complexity": 0.5796296296296295
  },
  {
    "events": [
      {
        "pitch": 43,
        "duration": 1.0,
        "velocity": 120
      },
      {
        "pitch": 43,
        "duration": 1.0,
        "velocity": 100
      },
      {
        "pitch": 67,
        "duration": 0.3333333333333333,
        "velocity": 112
      },
      {
        "pitch": 47,
        "duration": 1.0,
        "velocity": 120
      },
      {
        "pitch": 47,
        "duration": 1.0,
        "velocity": 100
      },
      {
        "pitch": 69,
        "duration": 1.0,
        "velocity": 112
      },
      {
        "pitch": 48,
        "duration": 1.6666666666666667,
        "velocity": 120
      },
      {
        "pitch": 48,
        "duration": 1.75,
        "velocity": 100
      },
      {
        "pitch": 70,
        "duration": 1.0,
        "velocity": 112
      },
      {
        "pitch": 64,
        "duration": 1.0,
        "velocity": 112
      },
      {
        "pitch": 48,
        "duration": 0.3333333333333333,
        "velocity": 120
      },
      {
        "pitch": 48,
        "duration": 0.25,
        "velocity": 100
      },
      {
        "pitch": 41,
        "duration": 1.6666666666666667,
        "velocity": 120
      },
      {
        "pitch": 41,
        "duration": 1.75,
        "velocity": 100
      },
      {
        "pitch": 66,
        "duration": 0.25,
        "velocity": 112
      },
      {
        "pitch": 67,
        "duration": 1.0,
        "velocity": 112
      }
    ],
    "key": "F major",
    "tempo": 120,
    "name": "8fb42fb300d91015af9a6c173f5e60e6_1.mid_seg25",
    "avg_interval": 10.933333333333334,
    "span": 29,
    "note_density": 0.0,
    "register": "bass",
    "complexity": 0.637037037037037
  },
  {
    "events": [
      {
        "pitch": 65,
        "duration": 1.0,
        "velocity": 112
      },
      {
        "pitch": 36,
        "duration": 1.0,
        "velocity": 120
      },
      {
        "pitch": 36,
        "duration": 1.0,
        "velocity": 95
      },
      {
        "pitch": 40,
        "duration": 1.0,
        "velocity": 120
      },
      {
        "pitch": 40,
        "duration": 1.0,
        "velocity": 100
      },
      {
        "pitch": 60,
        "duration": 0.25,
        "velocity": 112
      },
      {
        "pitch": 65,
        "duration": 0.3333333333333333,
        "velocity": 112
      },
      {
        "pitch": 67,
        "duration": 0.25,
        "velocity": 112
      },
      {
        "pitch": 29,
        "duration": 1.6666666666666667,
        "velocity": 120
      },
      {
        "pitch": 29,
        "duration": 1.75,
        "velocity": 95
      },
      {
        "pitch": 60,
        "duration": 1.0,
        "velocity": 105
      },
      {
        "pitch": 62,
        "duration": 1.0,
        "velocity": 112
      },
      {
        "pitch": 36,
        "duration": 0.3333333333333333,
        "velocity": 120
      },
      {
        "pitch": 36,
        "duration": 0.25,
        "velocity": 95
      },
      {
        "pitch": 31,
        "duration": 1.6666666666666667,
        "velocity": 120
      },
      {
        "pitch": 31,
        "duration": 1.75,
        "velocity": 95
      }
    ],
    "key": "F major",
    "tempo": 120,
    "name": "8fb42fb300d91015af9a6c173f5e60e6_1.mid_seg26",
    "avg_interval": 10.8,
    "span": 38,
    "note_density": 0.046875,
    "register": "bass",
    "complexity": 0.6489583333333333
  },
  {
    "events": [
      {
        "pitch": 53,
        "duration": 1.0,
        "velocity": 105
      },
      {
        "pitch": 55,
        "duration": 1.0,
        "velocity": 105
      },
      {
        "pitch": 58,
        "duration": 1.0,
        "velocity": 105
      },
      {
        "pitch": 62,
        "duration": 1.0,
        "velocity": 112
      },
      {
        "pitch": 36,
        "duration": 0.3333333333333333,
        "velocity": 120
      },
      {
        "pitch": 36,
        "duration": 0.3333333333333333,
        "velocity": 95
      },
      {
        "pitch": 57,
        "duration": 0.25,
        "velocity": 105
      },
      {
        "pitch": 60,
        "duration": 0.3333333333333333,
        "velocity": 105
      },
      {
        "pitch": 64,
        "duration": 0.3333333333333333,
        "velocity": 105
      },
      {
        "pitch": 67,
        "duration": 0.3333333333333333,
        "velocity": 112
      },
      {
        "pitch": 29,
        "duration": 1.6666666666666667,
        "velocity": 120
      },
      {
        "pitch": 29,
        "duration": 1.75,
        "velocity": 95
      },
      {
        "pitch": 69,
        "duration": 0.5,
        "velocity": 112
      },
      {
        "pitch": 69,
        "duration": 3.3333333333333335,
        "velocity": 112
      },
      {
        "pitch": 39,
        "duration": 0.3333333333333333,
        "velocity": 120
      },
      {
        "pitch": 39,
        "duration": 0.3333333333333333,
        "velocity": 100
      }
    ],
    "key": "F major",
    "tempo": 120,
    "name": "8fb42fb300d91015af9a6c173f5e60e6_1.mid_seg27",
    "avg_interval": 11.6,
    "span": 40,
    "note_density": 0.13541666666666663,
    "register": "bass",
    "complexity": 0.7006944444444444
  },
  {
    "events": [
      {
        "pitch": 38,
        "duration": 1.0,
        "velocity": 120
      },
      {
        "pitch": 38,
        "duration": 1.0,
        "velocity": 100
      },
      {
        "pitch": 60,
        "duration": 1.0,
        "velocity": 105
      },
      {
        "pitch": 63,
        "duration": 1.0,
        "velocity": 105
      },
      {
        "pitch": 66,
        "duration": 1.0,
        "velocity": 105
      },
      {
        "pitch": 44,
        "duration": 1.0,
        "velocity": 120
      },
      {
        "pitch": 44,
        "duration": 1.0,
        "velocity": 100
      },
      {
        "pitch": 43,
        "duration": 1.6666666666666667,
        "velocity": 120
      },
      {
        "pitch": 43,
        "duration": 1.6666666666666667,
        "velocity": 100
      },
      {
        "pitch": 58,
        "duration": 1.0,
        "velocity": 105
      },
      {
        "pitch": 62,
        "duration": 1.0,
        "velocity": 105
      },
      {
        "pitch": 65,
        "duration": 1.0,
        "velocity": 105
      },
      {
        "pitch": 69,
        "duration": 2.0,
        "velocity": 112
      },
      {
        "pitch": 46,
        "duration": 0.3333333333333333,
        "velocity": 120
      },
      {
        "pitch": 46,
        "duration": 0.3333333333333333,
        "velocity": 100
      },
      {
        "pitch": 58,
        "duration": 0.25,
        "velocity": 105
      }
    ],
    "key": "F major",
    "tempo": 120,
    "name": "8fb42fb300d91015af9a6c173f5e60e6_1.mid_seg28",
    "avg_interval": 7.466666666666667,
    "span": 31,
    "note_density": 0.0,
    "register": "bass",
    "complexity": 0.5407407407407407
  },
  {
    "events": [
      {
        "pitch": 61,
        "duration": 0.25,
        "velocity": 105
      },
      {
        "pitch": 64,
        "duration": 0.25,
        "velocity": 105
      },
      {
        "pitch": 48,
        "duration": 0.6666666666666666,
        "velocity": 120
      },
      {
        "pitch": 48,
        "duration": 0.75,
        "velocity": 100
      },
      {
        "pitch": 67,
        "duration": 0.6666666666666666,
        "velocity": 112
      },
      {
        "pitch": 43,
        "duration": 0.3333333333333333,
        "velocity": 120
      },
      {
        "pitch": 43,
        "duration": 0.3333333333333333,
        "velocity": 100
      },
      {
        "pitch": 69,
        "duration": 0.3333333333333333,
        "velocity": 112
      },
      {
        "pitch": 36,
        "duration": 1.0,
        "velocity": 120
      },
      {
        "pitch": 36,
        "duration": 1.0,
        "velocity": 95
      },
      {
        "pitch": 70,
        "duration": 0.75,
        "velocity": 112
      },
      {
        "pitch": 64,
        "duration": 0.3333333333333333,
        "velocity": 112
      },
      {
        "pitch": 41,
        "duration": 1.6666666666666667,
        "velocity": 120
      },
      {
        "pitch": 41,
        "duration": 1.75,
        "velocity": 100
      },
      {
        "pitch": 66,
        "duration": 0.25,
        "velocity": 112
      },
      {
        "pitch": 67,
        "duration": 1.0,
        "velocity": 112
      }
    ],
    "key": "F major",
    "tempo": 120,
    "name": "8fb42fb300d91015af9a6c173f5e60e6_1.mid_seg29",
    "avg_interval": 14.0,
    "span": 34,
    "note_density": 0.29166666666666663,
    "register": "bass",
    "complexity": 0.7638888888888888
  },
  {
    "events": [
      {
        "pitch": 65,
        "duration": 1.0,
        "velocity": 112
      },
      {
        "pitch": 46,
        "duration": 0.3333333333333333,
        "velocity": 120
      },
      {
        "pitch": 46,
        "duration": 0.25,
        "velocity": 100
      },
      {
        "pitch": 45,
        "duration": 1.0,
        "velocity": 120
      },
      {
        "pitch": 45,
        "duration": 1.0,
        "velocity": 100
      },
      {
        "pitch": 65,
        "duration": 1.0,
        "velocity": 112
      },
      {
        "pitch": 43,
        "duration": 1.0,
        "velocity": 120
      },
      {
        "pitch": 43,
        "duration": 1.0,
        "velocity": 100
      },
      {
        "pitch": 68,
        "duration": 0.25,
        "velocity": 112
      },
      {
        "pitch": 69,
        "duration": 1.0,
        "velocity": 112
      },
      {
        "pitch": 41,
        "duration": 1.75,
        "velocity": 120
      },
      {
        "pitch": 41,
        "duration": 2.0,
        "velocity": 100
      },
      {
        "pitch": 69,
        "duration": 1.5,
        "velocity": 112
      },
      {
        "pitch": 58,
        "duration": 0.3333333333333333,
        "velocity": 112
      },
      {
        "pitch": 43,
        "duration": 1.6666666666666667,
        "velocity": 120
      },
      {
        "pitch": 43,
        "duration": 1.75,
        "velocity": 100
      }
    ],
    "key": "F major",
    "tempo": 120,
    "name": "8fb42fb300d91015af9a6c173f5e60e6_1.mid_seg30",
    "avg_interval": 11.333333333333334,
    "span": 28,
    "note_density": 0.0,
    "register": "bass",
    "complexity": 0.6481481481481483
  },
  {
    "events": [
      {
        "pitch": 65,
        "duration": 1.0,
        "velocity": 112
      },
      {
        "pitch": 67,
        "duration": 1.0,
        "velocity": 112
      },
      {
        "pitch": 43,
        "duration": 0.3333333333333333,
        "velocity": 120
      },
      {
        "pitch": 43,
        "duration": 0.3333333333333333,
        "velocity": 100
      },
      {
        "pitch": 45,
        "duration": 1.3333333333333333,
        "velocity": 120
      },
      {
        "pitch": 45,
        "duration": 1.3333333333333333,
        "velocity": 100
      },
      {
        "pitch": 68,
        "duration": 0.3333333333333333,
        "velocity": 112
      },
      {
        "pitch": 69,
        "duration": 4.0,
        "velocity": 112
      },
      {
        "pitch": 55,
        "duration": 0.3333333333333333,
        "velocity": 105
      },
      {
        "pitch": 61,
        "duration": 0.3333333333333333,
        "velocity": 105
      },
      {
        "pitch": 65,
        "duration": 0.3333333333333333,
        "velocity": 105
      },
      {
        "pitch": 45,
        "duration": 0.3333333333333333,
        "velocity": 120
      },
      {
        "pitch": 45,
        "duration": 0.3333333333333333,
        "velocity": 100
      },
      {
        "pitch": 39,
        "duration": 0.3333333333333333,
        "velocity": 120
      },
      {
        "pitch": 39,
        "duration": 0.3333333333333333,
        "velocity": 100
      },
      {
        "pitch": 38,
        "duration": 1.0,
        "velocity": 120
      }
    ],
    "key": "F major",
    "tempo": 120,
    "name": "8fb42fb300d91015af9a6c173f5e60e6_1.mid_seg31",
    "avg_interval": 6.866666666666666,
    "span": 31,
    "note_density": 0.18749999999999978,
    "register": "bass",
    "complexity": 0.586574074074074
  },
  {
    "events": [
      {
        "pitch": 38,
        "duration": 1.0,
        "velocity": 100
      },
      {
        "pitch": 54,
        "duration": 1.0,
        "velocity": 105
      },
      {
        "pitch": 44,
        "duration": 1.0,
        "velocity": 120
      },
      {
        "pitch": 44,
        "duration": 1.0,
        "velocity": 100
      },
      {
        "pitch": 43,
        "duration": 1.6666666666666667,
        "velocity": 120
      },
      {
        "pitch": 43,
        "duration": 1.75,
        "velocity": 100
      },
      {
        "pitch": 58,
        "duration": 0.75,
        "velocity": 105
      },
      {
        "pitch": 62,
        "duration": 0.75,
        "velocity": 105
      },
      {
        "pitch": 65,
        "duration": 0.6666666666666666,
        "velocity": 112
      },
      {
        "pitch": 67,
        "duration": 0.6666666666666666,
        "velocity": 112
      },
      {
        "pitch": 69,
        "duration": 0.75,
        "velocity": 112
      },
      {
        "pitch": 43,
        "duration": 0.3333333333333333,
        "velocity": 120
      },
      {
        "pitch": 43,
        "duration": 0.3333333333333333,
        "velocity": 100
      },
      {
        "pitch": 36,
        "duration": 1.75,
        "velocity": 120
      },
      {
        "pitch": 36,
        "duration": 2.0,
        "velocity": 95
      },
      {
        "pitch": 58,
        "duration": 0.75,
        "velocity": 105
      }
    ],
    "key": "F major",
    "tempo": 120,
    "name": "8fb42fb300d91015af9a6c173f5e60e6_1.mid_seg32",
    "avg_interval": 7.2,
    "span": 33,
    "note_density": 0.0,
    "register": "bass",
    "complexity": 0.5333333333333333
  },
  {
    "events": [
      {
        "pitch": 61,
        "duration": 0.75,
        "velocity": 105
      },
      {
        "pitch": 70,
        "duration": 0.75,
        "velocity": 112
      },
      {
        "pitch": 64,
        "duration": 1.0,
        "velocity": 112
      },
      {
        "pitch": 66,
        "duration": 0.25,
        "velocity": 112
      },
      {
        "pitch": 67,
        "duration": 0.25,
        "velocity": 112
      },
      {
        "pitch": 41,
        "duration": 1.6666666666666667,
        "velocity": 120
      },
      {
        "pitch": 41,
        "duration": 1.75,
        "velocity": 100
      },
      {
        "pitch": 67,
        "duration": 0.75,
        "velocity": 112
      },
      {
        "pitch": 65,
        "duration": 1.3333333333333333,
        "velocity": 112
      },
      {
        "pitch": 46,
        "duration": 0.3333333333333333,
        "velocity": 120
      },
      {
        "pitch": 46,
        "duration": 0.3333333333333333,
        "velocity": 100
      },
      {
        "pitch": 45,
        "duration": 1.0,
        "velocity": 120
      },
      {
        "pitch": 45,
        "duration": 1.0,
        "velocity": 100
      },
      {
        "pitch": 72,
        "duration": 2.0,
        "velocity": 112
      },
      {
        "pitch": 43,
        "duration": 1.0,
        "velocity": 120
      },
      {
        "pitch": 43,
        "duration": 1.0,
        "velocity": 100
      }
    ],
    "key": "F major",
    "tempo": 120,
    "name": "8fb42fb300d91015af9a6c173f5e60e6_1.mid_seg33",
    "avg_interval": 9.866666666666667,
    "span": 31,
    "note_density": 0.05208333333333326,
    "register": "middle",
    "complexity": 0.6247685185185186
  },
  {
    "events": [
      {
        "pitch": 41,
        "duration": 1.6666666666666667,
        "velocity": 120
      },
      {
        "pitch": 41,
        "duration": 1.75,
        "velocity": 100
      },
      {
        "pitch": 57,
        "duration": 1.75,
        "velocity": 105
      },
      {
        "pitch": 60,
        "duration": 2.0,
        "velocity": 105
      },
      {
        "pitch": 64,
        "duration": 2.0,
        "velocity": 105
      },
      {
        "pitch": 67,
        "duration": 2.0,
        "velocity": 105
      },
      {
        "pitch": 72,
        "duration": 1.75,
        "velocity": 112
      },
      {
        "pitch": 53,
        "duration": 0.3333333333333333,
        "velocity": 120
      },
      {
        "pitch": 53,
        "duration": 0.25,
        "velocity": 100
      },
      {
        "pitch": 69,
        "duration": 0.3333333333333333,
        "velocity": 112
      },
      {
        "pitch": 54,
        "duration": 1.0,
        "velocity": 120
      },
      {
        "pitch": 54,
        "duration": 1.0,
        "velocity": 100
      },
      {
        "pitch": 60,
        "duration": 2.0,
        "velocity": 105
      },
      {
        "pitch": 65,
        "duration": 2.0,
        "velocity": 105
      },
      {
        "pitch": 73,
        "duration": 0.25,
        "velocity": 112
      },
      {
        "pitch": 74,
        "duration": 1.5,
        "velocity": 112
      }
    ],
    "key": "F major",
    "tempo": 120,
    "name": "8fb42fb300d91015af9a6c173f5e60e6_1.mid_seg34",
    "avg_interval": 6.733333333333333,
    "span": 33,
    "note_density": 0.0,
    "register": "middle",
    "complexity": 0.5203703703703704
  },
  {
    "events": [
      {
        "pitch": 42,
        "duration": 1.0,
        "velocity": 120
      },
      {
        "pitch": 42,
        "duration": 1.0,
        "velocity": 100
      },
      {
        "pitch": 72,
        "duration": 0.3333333333333333,
        "velocity": 112
      },
      {
        "pitch": 43,
        "duration": 1.6666666666666667,
        "velocity": 120
      },
      {
        "pitch": 43,
        "duration": 1.75,
        "velocity": 100
      },
      {
        "pitch": 62,
        "duration": 2.0,
        "velocity": 105
      },
      {
        "pitch": 65,
        "duration": 2.0,
        "velocity": 105
      },
      {
        "pitch": 72,
        "duration": 0.6666666666666666,
        "velocity": 112
      },
      {
        "pitch": 70,
        "duration": 0.6666666666666666,
        "velocity": 112
      },
      {
        "pitch": 70,
        "duration": 2.6666666666666665,
        "velocity": 112
      },
      {
        "pitch": 38,
        "duration": 0.3333333333333333,
        "velocity": 120
      },
      {
        "pitch": 38,
        "duration": 0.3333333333333333,
        "velocity": 100
      },
      {
        "pitch": 45,
        "duration": 1.0,
        "velocity": 120
      },
      {
        "pitch": 45,
        "duration": 1.0,
        "velocity": 100
      },
      {
        "pitch": 58,
        "duration": 0.3333333333333333,
        "velocity": 105
      },
      {
        "pitch": 62,
        "duration": 0.3333333333333333,
        "velocity": 105
      }
    ],
    "key": "F major",
    "tempo": 120,
    "name": "8fb42fb300d91015af9a6c173f5e60e6_1.mid_seg35",
    "avg_interval": 9.733333333333333,
    "span": 34,
    "note_density": 0.0,
    "register": "bass",
    "complexity": 0.6037037037037036
  },
  {
    "events": [
      {
        "pitch": 65,
        "duration": 0.3333333333333333,
        "velocity": 105
      },
      {
        "pitch": 44,
        "duration": 1.0,
        "velocity": 120
      },
      {
        "pitch": 44,
        "duration": 1.0,
        "velocity": 100
      },
      {
        "pitch": 43,
        "duration": 1.6666666666666667,
        "velocity": 120
      },
      {
        "pitch": 43,
        "duration": 1.75,
        "velocity": 100
      },
      {
        "pitch": 58,
        "duration": 0.75,
        "velocity": 105
      },
      {
        "pitch": 62,
        "duration": 0.75,
        "velocity": 105
      },
      {
        "pitch": 65,
        "duration": 0.75,
        "velocity": 112
      },
      {
        "pitch": 70,
        "duration": 0.08333333333333333,
        "velocity": 112
      },
      {
        "pitch": 70,
        "duration": 0.6666666666666666,
        "velocity": 112
      },
      {
        "pitch": 67,
        "duration": 0.6666666666666666,
        "velocity": 112
      },
      {
        "pitch": 43,
        "duration": 0.3333333333333333,
        "velocity": 120
      },
      {
        "pitch": 43,
        "duration": 0.3333333333333333,
        "velocity": 100
      },
      {
        "pitch": 36,
        "duration": 1.75,
        "velocity": 120
      },
      {
        "pitch": 36,
        "duration": 2.0,
        "velocity": 95
      },
      {
        "pitch": 61,
        "duration": 1.75,
        "velocity": 105
      }
    ],
    "key": "F major",
    "tempo": 120,
    "name": "8fb42fb300d91015af9a6c173f5e60e6_1.mid_seg36",
    "avg_interval": 7.2,
    "span": 34,
    "note_density": 0.02604166666666663,
    "register": "bass",
    "complexity": 0.5420138888888889
  },
  {
    "events": [
      {
        "pitch": 64,
        "duration": 1.6666666666666667,
        "velocity": 105
      },
      {
        "pitch": 67,
        "duration": 1.75,
        "velocity": 105
      },
      {
        "pitch": 72,
        "duration": 1.75,
        "velocity": 112
      },
      {
        "pitch": 67,
        "duration": 0.3333333333333333,
        "velocity": 105
      },
      {
        "pitch": 70,
        "duration": 0.3333333333333333,
        "velocity": 112
      },
      {
        "pitch": 45,
        "duration": 1.0,
        "velocity": 120
      },
      {
        "pitch": 45,
        "duration": 1.0,
        "velocity": 100
      },
      {
        "pitch": 60,
        "duration": 2.3333333333333335,
        "velocity": 105
      },
      {
        "pitch": 67,
        "duration": 0.6666666666666666,
        "velocity": 105
      },
      {
        "pitch": 70,
        "duration": 0.75,
        "velocity": 112
      },
      {
        "pitch": 65,
        "duration": 0.6666666666666666,
        "velocity": 105
      },
      {
        "pitch": 69,
        "duration": 0.6666666666666666,
        "velocity": 112
      },
      {
        "pitch": 38,
        "duration": 1.0,
        "velocity": 120
      },
      {
        "pitch": 38,
        "duration": 1.0,
        "velocity": 100
      },
      {
        "pitch": 65,
        "duration": 2.6666666666666665,
        "velocity": 105
      },
      {
        "pitch": 69,
        "duration": 2.6666666666666665,
        "velocity": 112
      }
    ],
    "key": "F major",
    "tempo": 120,
    "name": "8fb42fb300d91015af9a6c173f5e60e6_1.mid_seg37",
    "avg_interval": 9.133333333333333,
    "span": 34,
    "note_density": 0.0,
    "register": "middle",
    "complexity": 0.587037037037037
  },
  {
    "events": [
      {
        "pitch": 43,
        "duration": 1.0,
        "velocity": 120
      },
      {
        "pitch": 43,
        "duration": 1.0,
        "velocity": 100
      },
      {
        "pitch": 58,
        "duration": 1.6666666666666667,
        "velocity": 105
      },
      {
        "pitch": 36,
        "duration": 1.0,
        "velocity": 120
      },
      {
        "pitch": 36,
        "duration": 1.0,
        "velocity": 95
      },
      {
        "pitch": 41,
        "duration": 1.6666666666666667,
        "velocity": 120
      },
      {
        "pitch": 41,
        "duration": 1.75,
        "velocity": 100
      },
      {
        "pitch": 57,
        "duration": 0.75,
        "velocity": 105
      },
      {
        "pitch": 60,
        "duration": 0.6666666666666666,
        "velocity": 105
      },
      {
        "pitch": 58,
        "duration": 0.08333333333333333,
        "velocity": 105
      },
      {
        "pitch": 64,
        "duration": 0.75,
        "velocity": 112
      },
      {
        "pitch": 69,
        "duration": 0.08333333333333333,
        "velocity": 112
      },
      {
        "pitch": 60,
        "duration": 0.25,
        "velocity": 112
      },
      {
        "pitch": 65,
        "duration": 0.75,
        "velocity": 112
      },
      {
        "pitch": 41,
        "duration": 0.3333333333333333,
        "velocity": 120
      },
      {
        "pitch": 41,
        "duration": 0.3333333333333333,
        "velocity": 100
      }
    ],
    "key": "F major",
    "tempo": 120,
    "name": "8fb42fb300d91015af9a6c173f5e60e6_1.mid_seg38",
    "avg_interval": 7.466666666666667,
    "span": 33,
    "note_density": 0.18229166666666652,
    "register": "bass",
    "complexity": 0.6015046296296296
  },
  {
    "events": [
      {
        "pitch": 52,
        "duration": 0.3333333333333333,
        "velocity": 105
      },
      {
        "pitch": 60,
        "duration": 0.3333333333333333,
        "velocity": 112
      },
      {
        "pitch": 43,
        "duration": 1.75,
        "velocity": 120
      },
      {
        "pitch": 43,
        "duration": 2.0,
        "velocity": 100
      },
      {
        "pitch": 53,
        "duration": 2.0,
        "velocity": 105
      },
      {
        "pitch": 58,
        "duration": 0.6666666666666666,
        "velocity": 105
      },
      {
        "pitch": 67,
        "duration": 0.75,
        "velocity": 112
      },
      {
        "pitch": 60,
        "duration": 0.75,
        "velocity": 112
      },
      {
        "pitch": 65,
        "duration": 0.6666666666666666,
        "velocity": 112
      },
      {
        "pitch": 45,
        "duration": 1.6666666666666667,
        "velocity": 120
      },
      {
        "pitch": 45,
        "duration": 1.75,
        "velocity": 100
      },
      {
        "pitch": 51,
        "duration": 1.75,
        "velocity": 105
      },
      {
        "pitch": 55,
        "duration": 1.75,
        "velocity": 105
      },
      {
        "pitch": 65,
        "duration": 0.08333333333333333,
        "velocity": 112
      },
      {
        "pitch": 69,
        "duration": 0.75,
        "velocity": 112
      },
      {
        "pitch": 64,
        "duration": 0.6666666666666666,
        "velocity": 112
      }
    ],
    "key": "F major",
    "tempo": 120,
    "name": "8fb42fb300d91015af9a6c173f5e60e6_1.mid_seg39",
    "avg_interval": 7.333333333333333,
    "span": 26,
    "note_density": 0.0,
    "register": "middle",
    "complexity": 0.5370370370370371
  },
  {
    "events": [
      {
        "pitch": 45,
        "duration": 0.3333333333333333,
        "velocity": 120
      },
      {
        "pitch": 45,
        "duration": 0.3333333333333333,
        "velocity": 100
      },
      {
        "pitch": 60,
        "duration": 2.0,
        "velocity": 105
      },
      {
        "pitch": 66,
        "duration": 2.0,
        "velocity": 112
      },
      {
        "pitch": 38,
        "duration": 1.0,
        "velocity": 120
      },
      {
        "pitch": 38,
        "duration": 1.0,
        "velocity": 100
      },
      {
        "pitch": 44,
        "duration": 1.0,
        "velocity": 120
      },
      {
        "pitch": 44,
        "duration": 1.0,
        "velocity": 100
      },
      {
        "pitch": 58,
        "duration": 0.3333333333333333,
        "velocity": 105
      },
      {
        "pitch": 62,
        "duration": 0.3333333333333333,
        "velocity": 105
      },
      {
        "pitch": 65,
        "duration": 0.3333333333333333,
        "velocity": 112
      },
      {
        "pitch": 43,
        "duration": 1.0,
        "velocity": 120
      },
      {
        "pitch": 43,
        "duration": 1.0,
        "velocity": 100
      },
      {
        "pitch": 67,
        "duration": 0.3333333333333333,
        "velocity": 112
      },
      {
        "pitch": 47,
        "duration": 1.0,
        "velocity": 120
      },
      {
        "pitch": 47,
        "duration": 1.0,
        "velocity": 100
      }
    ],
    "key": "F major",
    "tempo": 120,
    "name": "8fb42fb300d91015af9a6c173f5e60e6_1.mid_seg40",
    "avg_interval": 9.466666666666667,
    "span": 29,
    "note_density": 0.12499999999999989,
    "register": "bass",
    "complexity": 0.637962962962963
  },
  {
    "events": [
      {
        "pitch": 69,
        "duration": 1.0,
        "velocity": 112
      },
      {
        "pitch": 48,
        "duration": 1.6666666666666667,
        "velocity": 120
      },
      {
        "pitch": 48,
        "duration": 1.75,
        "velocity": 100
      },
      {
        "pitch": 70,
        "duration": 1.0,
        "velocity": 112
      },
      {
        "pitch": 64,
        "duration": 1.0,
        "velocity": 112
      },
      {
        "pitch": 48,
        "duration": 0.3333333333333333,
        "velocity": 120
      },
      {
        "pitch": 48,
        "duration": 0.25,
        "velocity": 100
      },
      {
        "pitch": 41,
        "duration": 1.6666666666666667,
        "velocity": 120
      },
      {
        "pitch": 41,
        "duration": 1.75,
        "velocity": 100
      },
      {
        "pitch": 66,
        "duration": 0.25,
        "velocity": 112
      },
      {
        "pitch": 67,
        "duration": 1.0,
        "velocity": 112
      },
      {
        "pitch": 65,
        "duration": 1.0,
        "velocity": 112
      },
      {
        "pitch": 36,
        "duration": 1.0,
        "velocity": 120
      },
      {
        "pitch": 36,
        "duration": 1.0,
        "velocity": 95
      },
      {
        "pitch": 40,
        "duration": 1.0,
        "velocity": 120
      },
      {
        "pitch": 40,
        "duration": 1.0,
        "velocity": 100
      }
    ],
    "key": "F major",
    "tempo": 120,
    "name": "8fb42fb300d91015af9a6c173f5e60e6_1.mid_seg41",
    "avg_interval": 8.866666666666667,
    "span": 34,
    "note_density": 0.0,
    "register": "bass",
    "complexity": 0.5796296296296296
  },
  {
    "events": [
      {
        "pitch": 60,
        "duration": 0.25,
        "velocity": 112
      },
      {
        "pitch": 65,
        "duration": 0.3333333333333333,
        "velocity": 112
      },
      {
        "pitch": 67,
        "duration": 0.25,
        "velocity": 112
      },
      {
        "pitch": 29,
        "duration": 1.6666666666666667,
        "velocity": 120
      },
      {
        "pitch": 29,
        "duration": 1.75,
        "velocity": 95
      },
      {
        "pitch": 60,
        "duration": 1.0,
        "velocity": 105
      },
      {
        "pitch": 62,
        "duration": 1.0,
        "velocity": 112
      },
      {
        "pitch": 36,
        "duration": 0.3333333333333333,
        "velocity": 120
      },
      {
        "pitch": 36,
        "duration": 0.25,
        "velocity": 95
      },
      {
        "pitch": 31,
        "duration": 1.6666666666666667,
        "velocity": 120
      },
      {
        "pitch": 31,
        "duration": 1.75,
        "velocity": 95
      },
      {
        "pitch": 53,
        "duration": 1.0,
        "velocity": 105
      },
      {
        "pitch": 55,
        "duration": 1.0,
        "velocity": 105
      },
      {
        "pitch": 58,
        "duration": 1.0,
        "velocity": 105
      },
      {
        "pitch": 62,
        "duration": 1.0,
        "velocity": 112
      },
      {
        "pitch": 36,
        "duration": 0.3333333333333333,
        "velocity": 120
      }
    ],
    "key": "F major",
    "tempo": 120,
    "name": "8fb42fb300d91015af9a6c173f5e60e6_1.mid_seg42",
    "avg_interval": 11.066666666666666,
    "span": 38,
    "note_density": 0.08854166666666663,
    "register": "bass",
    "complexity": 0.6702546296296296
  },
  {
    "events": [
      {
        "pitch": 36,
        "duration": 0.3333333333333333,
        "velocity": 95
      },
      {
        "pitch": 57,
        "duration": 0.25,
        "velocity": 105
      },
      {
        "pitch": 60,
        "duration": 0.3333333333333333,
        "velocity": 105
      },
      {
        "pitch": 64,
        "duration": 0.3333333333333333,
        "velocity": 105
      },
      {
        "pitch": 67,
        "duration": 0.3333333333333333,
        "velocity": 112
      },
      {
        "pitch": 29,
        "duration": 1.6666666666666667,
        "velocity": 120
      },
      {
        "pitch": 29,
        "duration": 1.75,
        "velocity": 95
      },
      {
        "pitch": 69,
        "duration": 0.5,
        "velocity": 112
      },
      {
        "pitch": 69,
        "duration": 3.3333333333333335,
        "velocity": 112
      },
      {
        "pitch": 39,
        "duration": 0.3333333333333333,
        "velocity": 120
      },
      {
        "pitch": 39,
        "duration": 0.3333333333333333,
        "velocity": 100
      },
      {
        "pitch": 38,
        "duration": 1.0,
        "velocity": 120
      },
      {
        "pitch": 38,
        "duration": 1.0,
        "velocity": 100
      },
      {
        "pitch": 60,
        "duration": 1.0,
        "velocity": 105
      },
      {
        "pitch": 63,
        "duration": 1.0,
        "velocity": 105
      },
      {
        "pitch": 66,
        "duration": 1.0,
        "velocity": 105
      }
    ],
    "key": "F major",
    "tempo": 120,
    "name": "8fb42fb300d91015af9a6c173f5e60e6_1.mid_seg43",
    "avg_interval": 11.2,
    "span": 40,
    "note_density": 0.09374999999999989,
    "register": "bass",
    "complexity": 0.6756944444444444
  },
  {
    "events": [
      {
        "pitch": 44,
        "duration": 1.0,
        "velocity": 120
      },
      {
        "pitch": 44,
        "duration": 1.0,
        "velocity": 100
      },
      {
        "pitch": 43,
        "duration": 1.6666666666666667,
        "velocity": 120
      },
      {
        "pitch": 43,
        "duration": 1.6666666666666667,
        "velocity": 100
      },
      {
        "pitch": 58,
        "duration": 1.0,
        "velocity": 105
      },
      {
        "pitch": 62,
        "duration": 1.0,
        "velocity": 105
      },
      {
        "pitch": 65,
        "duration": 1.0,
        "velocity": 105
      },
      {
        "pitch": 69,
        "duration": 2.0,
        "velocity": 112
      },
      {
        "pitch": 46,
        "duration": 0.3333333333333333,
        "velocity": 120
      },
      {
        "pitch": 46,
        "duration": 0.3333333333333333,
        "velocity": 100
      },
      {
        "pitch": 58,
        "duration": 0.25,
        "velocity": 105
      },
      {
        "pitch": 61,
        "duration": 0.25,
        "velocity": 105
      },
      {
        "pitch": 64,
        "duration": 0.25,
        "velocity": 105
      },
      {
        "pitch": 48,
        "duration": 0.6666666666666666,
        "velocity": 120
      },
      {
        "pitch": 48,
        "duration": 0.75,
        "velocity": 100
      },
      {
        "pitch": 67,
        "duration": 0.6666666666666666,
        "velocity": 112
      }
    ],
    "key": "F major",
    "tempo": 120,
    "name": "8fb42fb300d91015af9a6c173f5e60e6_1.mid_seg44",
    "avg_interval": 6.866666666666666,
    "span": 26,
    "note_density": 0.13541666666666663,
    "register": "bass",
    "complexity": 0.569212962962963
  },
  {
    "events": [
      {
        "pitch": 43,
        "duration": 0.3333333333333333,
        "velocity": 120
      },
      {
        "pitch": 43,
        "duration": 0.3333333333333333,
        "velocity": 100
      },
      {
        "pitch": 69,
        "duration": 0.3333333333333333,
        "velocity": 112
      },
      {
        "pitch": 36,
        "duration": 1.0,
        "velocity": 120
      },
      {
        "pitch": 36,
        "duration": 1.0,
        "velocity": 95
      },
      {
        "pitch": 70,
        "duration": 0.75,
        "velocity": 112
      },
      {
        "pitch": 64,
        "duration": 0.3333333333333333,
        "velocity": 112
      },
      {
        "pitch": 41,
        "duration": 1.6666666666666667,
        "velocity": 120
      },
      {
        "pitch": 41,
        "duration": 1.75,
        "velocity": 100
      },
      {
        "pitch": 66,
        "duration": 0.25,
        "velocity": 112
      },
      {
        "pitch": 67,
        "duration": 1.0,
        "velocity": 112
      },
      {
        "pitch": 65,
        "duration": 1.0,
        "velocity": 112
      },
      {
        "pitch": 46,
        "duration": 0.3333333333333333,
        "velocity": 120
      },
      {
        "pitch": 46,
        "duration": 0.25,
        "velocity": 100
      },
      {
        "pitch": 45,
        "duration": 1.0,
        "velocity": 120
      },
      {
        "pitch": 45,
        "duration": 1.0,
        "velocity": 100
      }
    ],
    "key": "F major",
    "tempo": 120,
    "name": "8fb42fb300d91015af9a6c173f5e60e6_1.mid_seg45",
    "avg_interval": 11.333333333333334,
    "span": 34,
    "note_density": 0.22916666666666663,
    "register": "bass",
    "complexity": 0.7245370370370371
  },
  {
    "events": [
      {
        "pitch": 65,
        "duration": 1.0,
        "velocity": 112
      },
      {
        "pitch": 43,
        "duration": 1.0,
        "velocity": 120
      },
      {
        "pitch": 43,
        "duration": 1.0,
        "velocity": 100
      },
      {
        "pitch": 68,
        "duration": 0.25,
        "velocity": 112
      },
      {
        "pitch": 69,
        "duration": 1.0,
        "velocity": 112
      },
      {
        "pitch": 41,
        "duration": 1.75,
        "velocity": 120
      },
      {
        "pitch": 41,
        "duration": 2.0,
        "velocity": 100
      },
      {
        "pitch": 69,
        "duration": 1.5,
        "velocity": 112
      },
      {
        "pitch": 58,
        "duration": 0.3333333333333333,
        "velocity": 112
      },
      {
        "pitch": 43,
        "duration": 1.6666666666666667,
        "velocity": 120
      },
      {
        "pitch": 43,
        "duration": 1.75,
        "velocity": 100
      },
      {
        "pitch": 65,
        "duration": 1.0,
        "velocity": 112
      },
      {
        "pitch": 67,
        "duration": 1.0,
        "velocity": 112
      },
      {
        "pitch": 43,
        "duration": 0.3333333333333333,
        "velocity": 120
      },
      {
        "pitch": 43,
        "duration": 0.3333333333333333,
        "velocity": 100
      },
      {
        "pitch": 45,
        "duration": 1.3333333333333333,
        "velocity": 120
      }
    ],
    "key": "F major",
    "tempo": 120,
    "name": "8fb42fb300d91015af9a6c173f5e60e6_1.mid_seg46",
    "avg_interval": 12.0,
    "span": 28,
    "note_density": 0.0,
    "register": "bass",
    "complexity": 0.6666666666666666
  },
  {
    "events": [
      {
        "pitch": 45,
        "duration": 1.3333333333333333,
        "velocity": 100
      },
      {
        "pitch": 68,
        "duration": 0.3333333333333333,
        "velocity": 112
      },
      {
        "pitch": 69,
        "duration": 4.0,
        "velocity": 112
      },
      {
        "pitch": 55,
        "duration": 0.3333333333333333,
        "velocity": 105
      },
      {
        "pitch": 61,
        "duration": 0.3333333333333333,
        "velocity": 105
      },
      {
        "pitch": 65,
        "duration": 0.3333333333333333,
        "velocity": 105
      },
      {
        "pitch": 45,
        "duration": 0.3333333333333333,
        "velocity": 120
      },
      {
        "pitch": 45,
        "duration": 0.3333333333333333,
        "velocity": 100
      },
      {
        "pitch": 39,
        "duration": 0.3333333333333333,
        "velocity": 120
      },
      {
        "pitch": 39,
        "duration": 0.3333333333333333,
        "velocity": 100
      },
      {
        "pitch": 38,
        "duration": 1.0,
        "velocity": 120
      },
      {
        "pitch": 38,
        "duration": 1.0,
        "velocity": 100
      },
      {
        "pitch": 54,
        "duration": 1.0,
        "velocity": 105
      },
      {
        "pitch": 44,
        "duration": 1.0,
        "velocity": 120
      },
      {
        "pitch": 44,
        "duration": 1.0,
        "velocity": 100
      },
      {
        "pitch": 43,
        "duration": 1.6666666666666667,
        "velocity": 120
      }
    ],
    "key": "F major",
    "tempo": 120,
    "name": "8fb42fb300d91015af9a6c173f5e60e6_1.mid_seg47",
    "avg_interval": 6.8,
    "span": 31,
    "note_density": 0.08333333333333359,
    "register": "bass",
    "complexity": 0.5500000000000002
  },
  {
    "events": [
      {
        "pitch": 43,
        "duration": 1.75,
        "velocity": 100
      },
      {
        "pitch": 58,
        "duration": 0.75,
        "velocity": 105
      },
      {
        "pitch": 62,
        "duration": 0.75,
        "velocity": 105
      },
      {
        "pitch": 65,
        "duration": 0.6666666666666666,
        "velocity": 112
      },
      {
        "pitch": 67,
        "duration": 0.6666666666666666,
        "velocity": 112
      },
      {
        "pitch": 69,
        "duration": 0.75,
        "velocity": 112
      },
      {
        "pitch": 43,
        "duration": 0.3333333333333333,
        "velocity": 120
      },
      {
        "pitch": 43,
        "duration": 0.3333333333333333,
        "velocity": 100
      },
      {
        "pitch": 36,
        "duration": 1.75,
        "velocity": 120
      },
      {
        "pitch": 36,
        "duration": 2.0,
        "velocity": 95
      },
      {
        "pitch": 58,
        "duration": 0.75,
        "velocity": 105
      },
      {
        "pitch": 61,
        "duration": 0.75,
        "velocity": 105
      },
      {
        "pitch": 70,
        "duration": 0.75,
        "velocity": 112
      },
      {
        "pitch": 64,
        "duration": 1.0,
        "velocity": 112
      },
      {
        "pitch": 66,
        "duration": 0.25,
        "velocity": 112
      },
      {
        "pitch": 67,
        "duration": 0.25,
        "velocity": 112
      }
    ],
    "key": "F major",
    "tempo": 120,
    "name": "8fb42fb300d91015af9a6c173f5e60e6_1.mid_seg48",
    "avg_interval": 6.8,
    "span": 34,
    "note_density": 0.15625,
    "register": "middle",
    "complexity": 0.5743055555555555
  },
  {
    "events": [
      {
        "pitch": 41,
        "duration": 1.6666666666666667,
        "velocity": 120
      },
      {
        "pitch": 41,
        "duration": 1.75,
        "velocity": 100
      },
      {
        "pitch": 67,
        "duration": 0.75,
        "velocity": 112
      },
      {
        "pitch": 65,
        "duration": 1.3333333333333333,
        "velocity": 112
      },
      {
        "pitch": 46,
        "duration": 0.3333333333333333,
        "velocity": 120
      },
      {
        "pitch": 46,
        "duration": 0.3333333333333333,
        "velocity": 100
      },
      {
        "pitch": 45,
        "duration": 1.0,
        "velocity": 120
      },
      {
        "pitch": 45,
        "duration": 1.0,
        "velocity": 100
      },
      {
        "pitch": 72,
        "duration": 2.0,
        "velocity": 112
      },
      {
        "pitch": 43,
        "duration": 1.0,
        "velocity": 120
      },
      {
        "pitch": 43,
        "duration": 1.0,
        "velocity": 100
      },
      {
        "pitch": 41,
        "duration": 1.6666666666666667,
        "velocity": 120
      },
      {
        "pitch": 41,
        "duration": 1.75,
        "velocity": 100
      },
      {
        "pitch": 57,
        "duration": 1.75,
        "velocity": 105
      },
      {
        "pitch": 60,
        "duration": 2.0,
        "velocity": 105
      },
      {
        "pitch": 64,
        "duration": 2.0,
        "velocity": 105
      }
    ],
    "key": "F major",
    "tempo": 120,
    "name": "8fb42fb300d91015af9a6c173f5e60e6_1.mid_seg49",
    "avg_interval": 8.6,
    "span": 31,
    "note_density": 0.0,
    "register": "bass",
    "complexity": 0.5722222222222223
  },
  {
    "events": [
      {
        "pitch": 67,
        "duration": 2.0,
        "velocity": 105
      },
      {
        "pitch": 72,
        "duration": 1.75,
        "velocity": 112
      },
      {
        "pitch": 53,
        "duration": 0.3333333333333333,
        "velocity": 120
      },
      {
        "pitch": 53,
        "duration": 0.25,
        "velocity": 100
      },
      {
        "pitch": 69,
        "duration": 0.3333333333333333,
        "velocity": 112
      },
      {
        "pitch": 54,
        "duration": 1.0,
        "velocity": 120
      },
      {
        "pitch": 54,
        "duration": 1.0,
        "velocity": 100
      },
      {
        "pitch": 60,
        "duration": 2.0,
        "velocity": 105
      },
      {
        "pitch": 65,
        "duration": 2.0,
        "velocity": 105
      },
      {
        "pitch": 73,
        "duration": 0.25,
        "velocity": 112
      },
      {
        "pitch": 74,
        "duration": 1.5,
        "velocity": 112
      },
      {
        "pitch": 42,
        "duration": 1.0,
        "velocity": 120
      },
      {
        "pitch": 42,
        "duration": 1.0,
        "velocity": 100
      },
      {
        "pitch": 72,
        "duration": 0.3333333333333333,
        "velocity": 112
      },
      {
        "pitch": 43,
        "duration": 1.6666666666666667,
        "velocity": 120
      },
      {
        "pitch": 43,
        "duration": 1.75,
        "velocity": 100
      }
    ],
    "key": "F major",
    "tempo": 120,
    "name": "8fb42fb300d91015af9a6c173f5e60e6_1.mid_seg50",
    "avg_interval": 11.066666666666666,
    "span": 32,
    "note_density": 0.0,
    "register": "middle",
    "complexity": 0.6407407407407407
  },
  {
    "events": [
      {
        "pitch": 62,
        "duration": 2.0,
        "velocity": 105
      },
      {
        "pitch": 65,
        "duration": 2.0,
        "velocity": 105
      },
      {
        "pitch": 72,
        "duration": 0.6666666666666666,
        "velocity": 112
      },
      {
        "pitch": 70,
        "duration": 0.6666666666666666,
        "velocity": 112
      },
      {
        "pitch": 70,
        "duration": 2.6666666666666665,
        "velocity": 112
      },
      {
        "pitch": 38,
        "duration": 0.3333333333333333,
        "velocity": 120
      },
      {
        "pitch": 38,
        "duration": 0.3333333333333333,
        "velocity": 100
      },
      {
        "pitch": 45,
        "duration": 1.0,
        "velocity": 120
      },
      {
        "pitch": 45,
        "duration": 1.0,
        "velocity": 100
      },
      {
        "pitch": 58,
        "duration": 0.3333333333333333,
        "velocity": 105
      },
      {
        "pitch": 62,
        "duration": 0.3333333333333333,
        "velocity": 105
      },
      {
        "pitch": 65,
        "duration": 0.3333333333333333,
        "velocity": 105
      },
      {
        "pitch": 44,
        "duration": 1.0,
        "velocity": 120
      },
      {
        "pitch": 44,
        "duration": 1.0,
        "velocity": 100
      },
      {
        "pitch": 43,
        "duration": 1.6666666666666667,
        "velocity": 120
      },
      {
        "pitch": 43,
        "duration": 1.75,
        "velocity": 100
      }
    ],
    "key": "F major",
    "tempo": 120,
    "name": "8fb42fb300d91015af9a6c173f5e60e6_1.mid_seg51",
    "avg_interval": 6.2,
    "span": 34,
    "note_density": 0.0,
    "register": "bass",
    "complexity": 0.5055555555555555
  },
  {
    "events": [
      {
        "pitch": 58,
        "duration": 0.75,
        "velocity": 105
      },
      {
        "pitch": 62,
        "duration": 0.75,
        "velocity": 105
      },
      {
        "pitch": 65,
        "duration": 0.75,
        "velocity": 112
      },
      {
        "pitch": 70,
        "duration": 0.08333333333333333,
        "velocity": 112
      },
      {
        "pitch": 70,
        "duration": 0.6666666666666666,
        "velocity": 112
      },
      {
        "pitch": 67,
        "duration": 0.6666666666666666,
        "velocity": 112
      },
      {
        "pitch": 43,
        "duration": 0.3333333333333333,
        "velocity": 120
      },
      {
        "pitch": 43,
        "duration": 0.3333333333333333,
        "velocity": 100
      },
      {
        "pitch": 36,
        "duration": 1.75,
        "velocity": 120
      },
      {
        "pitch": 36,
        "duration": 2.0,
        "velocity": 95
      },
      {
        "pitch": 61,
        "duration": 1.75,
        "velocity": 105
      },
      {
        "pitch": 64,
        "duration": 1.6666666666666667,
        "velocity": 105
      },
      {
        "pitch": 67,
        "duration": 1.75,
        "velocity": 105
      },
      {
        "pitch": 72,
        "duration": 1.75,
        "velocity": 112
      },
      {
        "pitch": 67,
        "duration": 0.3333333333333333,
        "velocity": 105
      },
      {
        "pitch": 70,
        "duration": 0.3333333333333333,
        "velocity": 112
      }
    ],
    "key": "F major",
    "tempo": 120,
    "name": "8fb42fb300d91015af9a6c173f5e60e6_1.mid_seg52",
    "avg_interval": 6.0,
    "span": 36,
    "note_density": 0.02083333333333337,
    "register": "middle",
    "complexity": 0.5069444444444445
  },
  {
    "events": [
      {
        "pitch": 45,
        "duration": 1.0,
        "velocity": 120
      },
      {
        "pitch": 45,
        "duration": 1.0,
        "velocity": 100
      },
      {
        "pitch": 60,
        "duration": 2.3333333333333335,
        "velocity": 105
      },
      {
        "pitch": 67,
        "duration": 0.6666666666666666,
        "velocity": 105
      },
      {
        "pitch": 70,
        "duration": 0.75,
        "velocity": 112
      },
      {
        "pitch": 65,
        "duration": 0.6666666666666666,
        "velocity": 105
      },
      {
        "pitch": 69,
        "duration": 0.6666666666666666,
        "velocity": 112
      },
      {
        "pitch": 38,
        "duration": 1.0,
        "velocity": 120
      },
      {
        "pitch": 38,
        "duration": 1.0,
        "velocity": 100
      },
      {
        "pitch": 65,
        "duration": 2.6666666666666665,
        "velocity": 105
      },
      {
        "pitch": 69,
        "duration": 2.6666666666666665,
        "velocity": 112
      },
      {
        "pitch": 43,
        "duration": 1.0,
        "velocity": 120
      },
      {
        "pitch": 43,
        "duration": 1.0,
        "velocity": 100
      },
      {
        "pitch": 58,
        "duration": 1.6666666666666667,
        "velocity": 105
      },
      {
        "pitch": 36,
        "duration": 1.0,
        "velocity": 120
      },
      {
        "pitch": 36,
        "duration": 1.0,
        "velocity": 95
      }
    ],
    "key": "F major",
    "tempo": 120,
    "name": "8fb42fb300d91015af9a6c173f5e60e6_1.mid_seg53",
    "avg_interval": 10.6,
    "span": 34,
    "note_density": 0.0,
    "register": "bass",
    "complexity": 0.6277777777777778
  },
  {
    "events": [
      {
        "pitch": 41,
        "duration": 1.6666666666666667,
        "velocity": 120
      },
      {
        "pitch": 41,
        "duration": 1.75,
        "velocity": 100
      },
      {
        "pitch": 57,
        "duration": 0.75,
        "velocity": 105
      },
      {
        "pitch": 60,
        "duration": 0.6666666666666666,
        "velocity": 105
      },
      {
        "pitch": 58,
        "duration": 0.08333333333333333,
        "velocity": 105
      },
      {
        "pitch": 64,
        "duration": 0.75,
        "velocity": 112
      },
      {
        "pitch": 69,
        "duration": 0.08333333333333333,
        "velocity": 112
      },
      {
        "pitch": 60,
        "duration": 0.25,
        "velocity": 112
      },
      {
        "pitch": 65,
        "duration": 0.75,
        "velocity": 112
      },
      {
        "pitch": 41,
        "duration": 0.3333333333333333,
        "velocity": 120
      },
      {
        "pitch": 41,
        "duration": 0.3333333333333333,
        "velocity": 100
      },
      {
        "pitch": 52,
        "duration": 0.3333333333333333,
        "velocity": 105
      },
      {
        "pitch": 60,
        "duration": 0.3333333333333333,
        "velocity": 112
      },
      {
        "pitch": 43,
        "duration": 1.75,
        "velocity": 120
      },
      {
        "pitch": 43,
        "duration": 2.0,
        "velocity": 100
      },
      {
        "pitch": 53,
        "duration": 2.0,
        "velocity": 105
      }
    ],
    "key": "F major",
    "tempo": 120,
    "name": "8fb42fb300d91015af9a6c173f5e60e6_1.mid_seg54",
    "avg_interval": 7.733333333333333,
    "span": 28,
    "note_density": 0.13541666666666674,
    "register": "bass",
    "complexity": 0.593287037037037
  },
  {
    "events": [
      {
        "pitch": 58,
        "duration": 0.6666666666666666,
        "velocity": 105
      },
      {
        "pitch": 67,
        "duration": 0.75,
        "velocity": 112
      },
      {
        "pitch": 60,
        "duration": 0.75,
        "velocity": 112
      },
      {
        "pitch": 65,
        "duration": 0.6666666666666666,
        "velocity": 112
      },
      {
        "pitch": 45,
        "duration": 1.6666666666666667,
        "velocity": 120
      },
      {
        "pitch": 45,
        "duration": 1.75,
        "velocity": 100
      },
      {
        "pitch": 51,
        "duration": 1.75,
        "velocity": 105
      },
      {
        "pitch": 55,
        "duration": 1.75,
        "velocity": 105
      },
      {
        "pitch": 65,
        "duration": 0.08333333333333333,
        "velocity": 112
      },
      {
        "pitch": 69,
        "duration": 0.75,
        "velocity": 112
      },
      {
        "pitch": 64,
        "duration": 0.6666666666666666,
        "velocity": 112
      },
      {
        "pitch": 45,
        "duration": 0.3333333333333333,
        "velocity": 120
      },
      {
        "pitch": 45,
        "duration": 0.3333333333333333,
        "velocity": 100
      },
      {
        "pitch": 60,
        "duration": 2.0,
        "velocity": 105
      },
      {
        "pitch": 66,
        "duration": 2.0,
        "velocity": 112
      },
      {
        "pitch": 38,
        "duration": 1.0,
        "velocity": 120
      }
    ],
    "key": "F major",
    "tempo": 120,
    "name": "8fb42fb300d91015af9a6c173f5e60e6_1.mid_seg55",
    "avg_interval": 9.2,
    "span": 31,
    "note_density": 0.0,
    "register": "middle",
    "complexity": 0.5888888888888889
  },
  {
    "events": [
      {
        "pitch": 38,
        "duration": 1.0,
        "velocity": 100
      },
      {
        "pitch": 44,
        "duration": 1.0,
        "velocity": 120
      },
      {
        "pitch": 44,
        "duration": 1.0,
        "velocity": 100
      },
      {
        "pitch": 58,
        "duration": 0.25,
        "velocity": 105
      },
      {
        "pitch": 62,
        "duration": 0.25,
        "velocity": 105
      },
      {
        "pitch": 65,
        "duration": 0.3333333333333333,
        "velocity": 112
      },
      {
        "pitch": 43,
        "duration": 1.0,
        "velocity": 120
      },
      {
        "pitch": 43,
        "duration": 1.0,
        "velocity": 100
      },
      {
        "pitch": 67,
        "duration": 0.3333333333333333,
        "velocity": 112
      },
      {
        "pitch": 47,
        "duration": 1.0,
        "velocity": 120
      },
      {
        "pitch": 47,
        "duration": 1.0,
        "velocity": 100
      },
      {
        "pitch": 69,
        "duration": 1.0,
        "velocity": 112
      },
      {
        "pitch": 48,
        "duration": 1.6666666666666667,
        "velocity": 120
      },
      {
        "pitch": 48,
        "duration": 1.75,
        "velocity": 100
      },
      {
        "pitch": 70,
        "duration": 1.0,
        "velocity": 112
      },
      {
        "pitch": 64,
        "duration": 1.0,
        "velocity": 112
      }
    ],
    "key": "F major",
    "tempo": 120,
    "name": "8fb42fb300d91015af9a6c173f5e60e6_1.mid_seg56",
    "avg_interval": 10.933333333333334,
    "span": 32,
    "note_density": 0.08854166666666663,
    "register": "bass",
    "complexity": 0.6665509259259258
  },
  {
    "events": [
      {
        "pitch": 48,
        "duration": 0.3333333333333333,
        "velocity": 120
      },
      {
        "pitch": 48,
        "duration": 0.25,
        "velocity": 100
      },
      {
        "pitch": 41,
        "duration": 1.6666666666666667,
        "velocity": 120
      },
      {
        "pitch": 41,
        "duration": 1.75,
        "velocity": 100
      },
      {
        "pitch": 57,
        "duration": 0.75,
        "velocity": 112
      },
      {
        "pitch": 60,
        "duration": 1.0,
        "velocity": 112
      },
      {
        "pitch": 48,
        "duration": 0.3333333333333333,
        "velocity": 120
      },
      {
        "pitch": 48,
        "duration": 0.25,
        "velocity": 100
      },
      {
        "pitch": 58,
        "duration": 1.3333333333333333,
        "velocity": 105
      },
      {
        "pitch": 61,
        "duration": 1.3333333333333333,
        "velocity": 105
      },
      {
        "pitch": 64,
        "duration": 1.3333333333333333,
        "velocity": 105
      },
      {
        "pitch": 69,
        "duration": 1.25,
        "velocity": 112
      },
      {
        "pitch": 45,
        "duration": 1.0,
        "velocity": 120
      },
      {
        "pitch": 45,
        "duration": 1.0,
        "velocity": 100
      },
      {
        "pitch": 43,
        "duration": 1.0,
        "velocity": 120
      },
      {
        "pitch": 43,
        "duration": 1.0,
        "velocity": 100
      }
    ],
    "key": "F major",
    "tempo": 120,
    "name": "8fb42fb300d91015af9a6c173f5e60e6_1.mid_seg57",
    "avg_interval": 5.666666666666667,
    "span": 28,
    "note_density": 0.02604166666666663,
    "register": "bass",
    "complexity": 0.4994212962962963
  },
  {
    "events": [
      {
        "pitch": 60,
        "duration": 1.0,
        "velocity": 112
      },
      {
        "pitch": 41,
        "duration": 1.75,
        "velocity": 120
      },
      {
        "pitch": 41,
        "duration": 2.0,
        "velocity": 100
      },
      {
        "pitch": 57,
        "duration": 2.0,
        "velocity": 105
      },
      {
        "pitch": 65,
        "duration": 3.75,
        "velocity": 112
      },
      {
        "pitch": 43,
        "duration": 1.75,
        "velocity": 120
      },
      {
        "pitch": 43,
        "duration": 2.0,
        "velocity": 100
      },
      {
        "pitch": 58,
        "duration": 0.75,
        "velocity": 105
      },
      {
        "pitch": 60,
        "duration": 0.3333333333333333,
        "velocity": 105
      },
      {
        "pitch": 67,
        "duration": 0.3333333333333333,
        "velocity": 112
      },
      {
        "pitch": 45,
        "duration": 1.6666666666666667,
        "velocity": 120
      },
      {
        "pitch": 45,
        "duration": 1.75,
        "velocity": 100
      },
      {
        "pitch": 69,
        "duration": 4.0,
        "velocity": 112
      },
      {
        "pitch": 55,
        "duration": 1.0,
        "velocity": 105
      },
      {
        "pitch": 61,
        "duration": 1.0,
        "velocity": 105
      },
      {
        "pitch": 65,
        "duration": 1.0,
        "velocity": 105
      }
    ],
    "key": "F major",
    "tempo": 120,
    "name": "8fb42fb300d91015af9a6c173f5e60e6_1.mid_seg58",
    "avg_interval": 10.6,
    "span": 28,
    "note_density": 0.0,
    "register": "bass",
    "complexity": 0.6277777777777778
  },
  {
    "events": [
      {
        "pitch": 45,
        "duration": 0.3333333333333333,
        "velocity": 120
      },
      {
        "pitch": 45,
        "duration": 0.3333333333333333,
        "velocity": 100
      },
      {
        "pitch": 38,
        "duration": 1.3333333333333333,
        "velocity": 120
      },
      {
        "pitch": 38,
        "duration": 1.3333333333333333,
        "velocity": 100
      },
      {
        "pitch": 54,
        "duration": 2.0,
        "velocity": 105
      },
      {
        "pitch": 60,
        "duration": 2.0,
        "velocity": 105
      },
      {
        "pitch": 63,
        "duration": 2.0,
        "velocity": 105
      },
      {
        "pitch": 44,
        "duration": 0.3333333333333333,
        "velocity": 120
      },
      {
        "pitch": 44,
        "duration": 0.3333333333333333,
        "velocity": 100
      },
      {
        "pitch": 38,
        "duration": 0.3333333333333333,
        "velocity": 120
      },
      {
        "pitch": 38,
        "duration": 0.3333333333333333,
        "velocity": 100
      },
      {
        "pitch": 43,
        "duration": 1.6666666666666667,
        "velocity": 120
      },
      {
        "pitch": 43,
        "duration": 1.75,
        "velocity": 100
      },
      {
        "pitch": 58,
        "duration": 0.75,
        "velocity": 105
      },
      {
        "pitch": 62,
        "duration": 0.75,
        "velocity": 105
      },
      {
        "pitch": 65,
        "duration": 0.75,
        "velocity": 112
      }
    ],
    "key": "F major",
    "tempo": 120,
    "name": "8fb42fb300d91015af9a6c173f5e60e6_1.mid_seg59",
    "avg_interval": 5.6,
    "span": 27,
    "note_density": 0.0,
    "register": "bass",
    "complexity": 0.4888888888888889
  },
  {
    "events": [
      {
        "pitch": 67,
        "duration": 0.6666666666666666,
        "velocity": 112
      },
      {
        "pitch": 69,
        "duration": 0.75,
        "velocity": 112
      },
      {
        "pitch": 43,
        "duration": 0.3333333333333333,
        "velocity": 120
      },
      {
        "pitch": 43,
        "duration": 0.3333333333333333,
        "velocity": 100
      },
      {
        "pitch": 36,
        "duration": 1.75,
        "velocity": 120
      },
      {
        "pitch": 36,
        "duration": 2.0,
        "velocity": 95
      },
      {
        "pitch": 58,
        "duration": 1.0,
        "velocity": 105
      },
      {
        "pitch": 61,
        "duration": 1.0,
        "velocity": 105
      },
      {
        "pitch": 70,
        "duration": 1.0,
        "velocity": 112
      },
      {
        "pitch": 64,
        "duration": 0.6666666666666666,
        "velocity": 112
      },
      {
        "pitch": 57,
        "duration": 0.3333333333333333,
        "velocity": 105
      },
      {
        "pitch": 60,
        "duration": 0.3333333333333333,
        "velocity": 105
      },
      {
        "pitch": 66,
        "duration": 0.25,
        "velocity": 112
      },
      {
        "pitch": 67,
        "duration": 0.25,
        "velocity": 112
      },
      {
        "pitch": 41,
        "duration": 0.6666666666666666,
        "velocity": 120
      },
      {
        "pitch": 41,
        "duration": 0.75,
        "velocity": 100
      }
    ],
    "key": "F major",
    "tempo": 120,
    "name": "8fb42fb300d91015af9a6c173f5e60e6_1.mid_seg60",
    "avg_interval": 7.866666666666666,
    "span": 34,
    "note_density": 0.24479166666666674,
    "register": "bass",
    "complexity": 0.633449074074074
  },
  {
    "events": [
      {
        "pitch": 57,
        "duration": 0.6666666666666666,
        "velocity": 105
      },
      {
        "pitch": 60,
        "duration": 0.6666666666666666,
        "velocity": 105
      },
      {
        "pitch": 67,
        "duration": 0.75,
        "velocity": 112
      },
      {
        "pitch": 46,
        "duration": 1.0,
        "velocity": 120
      },
      {
        "pitch": 46,
        "duration": 1.0,
        "velocity": 100
      },
      {
        "pitch": 65,
        "duration": 1.0,
        "velocity": 112
      },
      {
        "pitch": 46,
        "duration": 0.3333333333333333,
        "velocity": 120
      },
      {
        "pitch": 46,
        "duration": 0.3333333333333333,
        "velocity": 100
      },
      {
        "pitch": 58,
        "duration": 2.25,
        "velocity": 105
      },
      {
        "pitch": 61,
        "duration": 2.25,
        "velocity": 105
      },
      {
        "pitch": 64,
        "duration": 2.3333333333333335,
        "velocity": 105
      },
      {
        "pitch": 69,
        "duration": 2.3333333333333335,
        "velocity": 112
      },
      {
        "pitch": 45,
        "duration": 1.0,
        "velocity": 120
      },
      {
        "pitch": 45,
        "duration": 1.0,
        "velocity": 100
      },
      {
        "pitch": 43,
        "duration": 1.0,
        "velocity": 120
      },
      {
        "pitch": 43,
        "duration": 1.0,
        "velocity": 100
      }
    ],
    "key": "F major",
    "tempo": 120,
    "name": "8fb42fb300d91015af9a6c173f5e60e6_1.mid_seg61",
    "avg_interval": 7.866666666666666,
    "span": 26,
    "note_density": 0.0,
    "register": "bass",
    "complexity": 0.5518518518518518
  },
  {
    "events": [
      {
        "pitch": 41,
        "duration": 1.6666666666666667,
        "velocity": 120
      },
      {
        "pitch": 41,
        "duration": 1.75,
        "velocity": 100
      },
      {
        "pitch": 57,
        "duration": 0.75,
        "velocity": 112
      },
      {
        "pitch": 60,
        "duration": 0.25,
        "velocity": 112
      },
      {
        "pitch": 65,
        "duration": 0.6666666666666666,
        "velocity": 112
      },
      {
        "pitch": 36,
        "duration": 0.3333333333333333,
        "velocity": 120
      },
      {
        "pitch": 36,
        "duration": 0.3333333333333333,
        "velocity": 95
      },
      {
        "pitch": 55,
        "duration": 1.0,
        "velocity": 105
      },
      {
        "pitch": 60,
        "duration": 0.3333333333333333,
        "velocity": 105
      },
      {
        "pitch": 61,
        "duration": 1.0,
        "velocity": 105
      },
      {
        "pitch": 65,
        "duration": 1.0,
        "velocity": 112
      },
      {
        "pitch": 34,
        "duration": 1.75,
        "velocity": 120
      },
      {
        "pitch": 34,
        "duration": 2.0,
        "velocity": 95
      },
      {
        "pitch": 60,
        "duration": 0.75,
        "velocity": 105
      },
      {
        "pitch": 65,
        "duration": 0.75,
        "velocity": 112
      },
      {
        "pitch": 61,
        "duration": 0.6666666666666666,
        "velocity": 105
      }
    ],
    "key": "F major",
    "tempo": 120,
    "name": "8fb42fb300d91015af9a6c173f5e60e6_1.mid_seg62",
    "avg_interval": 9.866666666666667,
    "span": 31,
    "note_density": 0.06250000000000011,
    "register": "bass",
    "complexity": 0.6282407407407408
  },
  {
    "events": [
      {
        "pitch": 67,
        "duration": 0.6666666666666666,
        "velocity": 112
      },
      {
        "pitch": 33,
        "duration": 1.3333333333333333,
        "velocity": 120
      },
      {
        "pitch": 33,
        "duration": 1.3333333333333333,
        "velocity": 95
      },
      {
        "pitch": 61,
        "duration": 0.08333333333333333,
        "velocity": 105
      },
      {
        "pitch": 69,
        "duration": 3.0,
        "velocity": 112
      },
      {
        "pitch": 55,
        "duration": 1.0,
        "velocity": 105
      },
      {
        "pitch": 61,
        "duration": 1.0,
        "velocity": 105
      },
      {
        "pitch": 65,
        "duration": 1.0,
        "velocity": 105
      },
      {
        "pitch": 36,
        "duration": 0.3333333333333333,
        "velocity": 120
      },
      {
        "pitch": 36,
        "duration": 0.3333333333333333,
        "velocity": 95
      },
      {
        "pitch": 37,
        "duration": 0.3333333333333333,
        "velocity": 120
      },
      {
        "pitch": 37,
        "duration": 0.3333333333333333,
        "velocity": 95
      },
      {
        "pitch": 38,
        "duration": 0.6666666666666666,
        "velocity": 120
      },
      {
        "pitch": 38,
        "duration": 0.75,
        "velocity": 100
      },
      {
        "pitch": 54,
        "duration": 1.0,
        "velocity": 105
      },
      {
        "pitch": 60,
        "duration": 1.0,
        "velocity": 105
      }
    ],
    "key": "F major",
    "tempo": 120,
    "name": "8fb42fb300d91015af9a6c173f5e60e6_1.mid_seg63",
    "avg_interval": 9.8,
    "span": 36,
    "note_density": 0.11458333333333326,
    "register": "bass",
    "complexity": 0.64375
  },
  {
    "events": [
      {
        "pitch": 63,
        "duration": 1.0,
        "velocity": 105
      },
      {
        "pitch": 33,
        "duration": 0.3333333333333333,
        "velocity": 120
      },
      {
        "pitch": 33,
        "duration": 0.3333333333333333,
        "velocity": 95
      },
      {
        "pitch": 30,
        "duration": 1.0,
        "velocity": 120
      },
      {
        "pitch": 30,
        "duration": 1.0,
        "velocity": 95
      },
      {
        "pitch": 62,
        "duration": 1.0,
        "velocity": 112
      },
      {
        "pitch": 31,
        "duration": 1.6666666666666667,
        "velocity": 120
      },
      {
        "pitch": 31,
        "duration": 1.75,
        "velocity": 95
      },
      {
        "pitch": 58,
        "duration": 2.0,
        "velocity": 105
      },
      {
        "pitch": 62,
        "duration": 0.75,
        "velocity": 112
      },
      {
        "pitch": 65,
        "duration": 2.0,
        "velocity": 105
      },
      {
        "pitch": 67,
        "duration": 0.6666666666666666,
        "velocity": 112
      },
      {
        "pitch": 69,
        "duration": 0.75,
        "velocity": 112
      },
      {
        "pitch": 38,
        "duration": 0.3333333333333333,
        "velocity": 120
      },
      {
        "pitch": 38,
        "duration": 0.3333333333333333,
        "velocity": 100
      },
      {
        "pitch": 36,
        "duration": 1.75,
        "velocity": 120
      }
    ],
    "key": "F major",
    "tempo": 120,
    "name": "8fb42fb300d91015af9a6c173f5e60e6_1.mid_seg64",
    "avg_interval": 11.133333333333333,
    "span": 39,
    "note_density": 0.0,
    "register": "bass",
    "complexity": 0.6425925925925925
  },
  {
    "events": [
      {
        "pitch": 36,
        "duration": 2.0,
        "velocity": 95
      },
      {
        "pitch": 70,
        "duration": 1.0,
        "velocity": 112
      },
      {
        "pitch": 64,
        "duration": 0.6666666666666666,
        "velocity": 112
      },
      {
        "pitch": 66,
        "duration": 0.25,
        "velocity": 112
      },
      {
        "pitch": 67,
        "duration": 0.25,
        "velocity": 112
      },
      {
        "pitch": 41,
        "duration": 1.6666666666666667,
        "velocity": 120
      },
      {
        "pitch": 41,
        "duration": 1.75,
        "velocity": 100
      },
      {
        "pitch": 67,
        "duration": 0.75,
        "velocity": 112
      },
      {
        "pitch": 65,
        "duration": 1.3333333333333333,
        "velocity": 112
      },
      {
        "pitch": 36,
        "duration": 0.3333333333333333,
        "velocity": 120
      },
      {
        "pitch": 36,
        "duration": 0.3333333333333333,
        "velocity": 95
      },
      {
        "pitch": 34,
        "duration": 0.6666666666666666,
        "velocity": 120
      },
      {
        "pitch": 34,
        "duration": 0.75,
        "velocity": 95
      },
      {
        "pitch": 33,
        "duration": 1.0,
        "velocity": 120
      },
      {
        "pitch": 33,
        "duration": 1.0,
        "velocity": 95
      },
      {
        "pitch": 72,
        "duration": 0.6666666666666666,
        "velocity": 112
      }
    ],
    "key": "F major",
    "tempo": 120,
    "name": "8fb42fb300d91015af9a6c173f5e60e6_1.mid_seg65",
    "avg_interval": 11.2,
    "span": 39,
    "note_density": 0.09895833333333337,
    "register": "bass",
    "complexity": 0.6774305555555555
  },
  {
    "events": [
      {
        "pitch": 74,
        "duration": 0.25,
        "velocity": 112
      },
      {
        "pitch": 72,
        "duration": 0.25,
        "velocity": 112
      },
      {
        "pitch": 31,
        "duration": 0.3333333333333333,
        "velocity": 120
      },
      {
        "pitch": 31,
        "duration": 0.3333333333333333,
        "velocity": 95
      },
      {
        "pitch": 69,
        "duration": 0.25,
        "velocity": 112
      },
      {
        "pitch": 29,
        "duration": 1.6666666666666667,
        "velocity": 120
      },
      {
        "pitch": 29,
        "duration": 1.75,
        "velocity": 95
      },
      {
        "pitch": 69,
        "duration": 0.08333333333333333,
        "velocity": 112
      },
      {
        "pitch": 72,
        "duration": 1.75,
        "velocity": 112
      },
      {
        "pitch": 57,
        "duration": 1.75,
        "velocity": 105
      },
      {
        "pitch": 60,
        "duration": 1.75,
        "velocity": 105
      },
      {
        "pitch": 64,
        "duration": 1.75,
        "velocity": 105
      },
      {
        "pitch": 67,
        "duration": 1.6666666666666667,
        "velocity": 105
      },
      {
        "pitch": 53,
        "duration": 0.3333333333333333,
        "velocity": 120
      },
      {
        "pitch": 53,
        "duration": 0.3333333333333333,
        "velocity": 100
      },
      {
        "pitch": 69,
        "duration": 0.25,
        "velocity": 112
      }
    ],
    "key": "F major",
    "tempo": 120,
    "name": "8fb42fb300d91015af9a6c173f5e60e6_1.mid_seg66",
    "avg_interval": 14.6,
    "span": 45,
    "note_density": 0.09375,
    "register": "middle",
    "complexity": 0.6979166666666666
  },
  {
    "events": [
      {
        "pitch": 54,
        "duration": 1.0,
        "velocity": 120
      },
      {
        "pitch": 54,
        "duration": 1.0,
        "velocity": 100
      },
      {
        "pitch": 60,
        "duration": 1.75,
        "velocity": 105
      },
      {
        "pitch": 65,
        "duration": 1.75,
        "velocity": 105
      },
      {
        "pitch": 73,
        "duration": 0.25,
        "velocity": 112
      },
      {
        "pitch": 74,
        "duration": 1.5,
        "velocity": 112
      },
      {
        "pitch": 42,
        "duration": 1.0,
        "velocity": 120
      },
      {
        "pitch": 42,
        "duration": 1.0,
        "velocity": 100
      },
      {
        "pitch": 62,
        "duration": 0.3333333333333333,
        "velocity": 105
      },
      {
        "pitch": 65,
        "duration": 0.3333333333333333,
        "velocity": 105
      },
      {
        "pitch": 67,
        "duration": 0.3333333333333333,
        "velocity": 105
      },
      {
        "pitch": 72,
        "duration": 0.3333333333333333,
        "velocity": 112
      },
      {
        "pitch": 43,
        "duration": 1.0,
        "velocity": 120
      },
      {
        "pitch": 43,
        "duration": 1.0,
        "velocity": 100
      },
      {
        "pitch": 62,
        "duration": 3.9166666666666665,
        "velocity": 105
      },
      {
        "pitch": 65,
        "duration": 3.9166666666666665,
        "velocity": 105
      }
    ],
    "key": "F major",
    "tempo": 120,
    "name": "8fb42fb300d91015af9a6c173f5e60e6_1.mid_seg67",
    "avg_interval": 8.866666666666667,
    "span": 32,
    "note_density": 0.0,
    "register": "middle",
    "complexity": 0.5796296296296296
  },
  {
    "events": [
      {
        "pitch": 67,
        "duration": 3.9166666666666665,
        "velocity": 105
      },
      {
        "pitch": 72,
        "duration": 0.6666666666666666,
        "velocity": 112
      },
      {
        "pitch": 70,
        "duration": 0.6666666666666666,
        "velocity": 112
      },
      {
        "pitch": 38,
        "duration": 1.0,
        "velocity": 120
      },
      {
        "pitch": 38,
        "duration": 1.0,
        "velocity": 100
      },
      {
        "pitch": 70,
        "duration": 2.6666666666666665,
        "velocity": 112
      },
      {
        "pitch": 45,
        "duration": 1.0,
        "velocity": 120
      },
      {
        "pitch": 45,
        "duration": 1.0,
        "velocity": 100
      },
      {
        "pitch": 44,
        "duration": 1.0,
        "velocity": 120
      },
      {
        "pitch": 44,
        "duration": 1.0,
        "velocity": 100
      },
      {
        "pitch": 43,
        "duration": 1.6666666666666667,
        "velocity": 120
      },
      {
        "pitch": 43,
        "duration": 1.75,
        "velocity": 100
      },
      {
        "pitch": 70,
        "duration": 0.08333333333333333,
        "velocity": 112
      },
      {
        "pitch": 58,
        "duration": 0.6666666666666666,
        "velocity": 105
      },
      {
        "pitch": 62,
        "duration": 0.6666666666666666,
        "velocity": 105
      },
      {
        "pitch": 65,
        "duration": 0.6666666666666666,
        "velocity": 105
      }
    ],
    "key": "F major",
    "tempo": 120,
    "name": "8fb42fb300d91015af9a6c173f5e60e6_1.mid_seg68",
    "avg_interval": 9.6,
    "span": 34,
    "note_density": 0.0,
    "register": "bass",
    "complexity": 0.6
  },
  {
    "events": [
      {
        "pitch": 67,
        "duration": 0.6666666666666666,
        "velocity": 105
      },
      {
        "pitch": 70,
        "duration": 0.75,
        "velocity": 112
      },
      {
        "pitch": 58,
        "duration": 0.6666666666666666,
        "velocity": 105
      },
      {
        "pitch": 62,
        "duration": 0.6666666666666666,
        "velocity": 105
      },
      {
        "pitch": 65,
        "duration": 0.6666666666666666,
        "velocity": 105
      },
      {
        "pitch": 67,
        "duration": 0.6666666666666666,
        "velocity": 112
      },
      {
        "pitch": 43,
        "duration": 0.3333333333333333,
        "velocity": 120
      },
      {
        "pitch": 43,
        "duration": 0.25,
        "velocity": 100
      },
      {
        "pitch": 48,
        "duration": 1.0,
        "velocity": 120
      },
      {
        "pitch": 48,
        "duration": 1.0,
        "velocity": 100
      },
      {
        "pitch": 58,
        "duration": 1.0,
        "velocity": 105
      },
      {
        "pitch": 62,
        "duration": 1.75,
        "velocity": 105
      },
      {
        "pitch": 64,
        "duration": 1.75,
        "velocity": 105
      },
      {
        "pitch": 67,
        "duration": 1.75,
        "velocity": 105
      },
      {
        "pitch": 74,
        "duration": 1.75,
        "velocity": 112
      },
      {
        "pitch": 36,
        "duration": 1.0,
        "velocity": 120
      }
    ],
    "key": "F major",
    "tempo": 120,
    "name": "8fb42fb300d91015af9a6c173f5e60e6_1.mid_seg69",
    "avg_interval": 7.8,
    "span": 38,
    "note_density": 0.02083333333333337,
    "register": "middle",
    "complexity": 0.5569444444444445
  },
  {
    "events": [
      {
        "pitch": 36,
        "duration": 1.0,
        "velocity": 95
      },
      {
        "pitch": 72,
        "duration": 0.3333333333333333,
        "velocity": 112
      },
      {
        "pitch": 48,
        "duration": 0.6666666666666666,
        "velocity": 120
      },
      {
        "pitch": 48,
        "duration": 0.75,
        "velocity": 100
      },
      {
        "pitch": 57,
        "duration": 0.75,
        "velocity": 105
      },
      {
        "pitch": 60,
        "duration": 4.0,
        "velocity": 105
      },
      {
        "pitch": 64,
        "duration": 4.0,
        "velocity": 105
      },
      {
        "pitch": 67,
        "duration": 4.0,
        "velocity": 105
      },
      {
        "pitch": 72,
        "duration": 1.75,
        "velocity": 112
      },
      {
        "pitch": 45,
        "duration": 1.6666666666666667,
        "velocity": 120
      },
      {
        "pitch": 45,
        "duration": 1.75,
        "velocity": 100
      },
      {
        "pitch": 69,
        "duration": 0.3333333333333333,
        "velocity": 112
      },
      {
        "pitch": 69,
        "duration": 1.75,
        "velocity": 112
      },
      {
        "pitch": 43,
        "duration": 0.3333333333333333,
        "velocity": 120
      },
      {
        "pitch": 43,
        "duration": 0.3333333333333333,
        "velocity": 100
      },
      {
        "pitch": 36,
        "duration": 0.3333333333333333,
        "velocity": 120
      }
    ],
    "key": "F major",
    "tempo": 120,
    "name": "8fb42fb300d91015af9a6c173f5e60e6_1.mid_seg70",
    "avg_interval": 11.2,
    "span": 36,
    "note_density": 0.0,
    "register": "bass",
    "complexity": 0.6444444444444444
  },
  {
    "events": [
      {
        "pitch": 36,
        "duration": 0.25,
        "velocity": 95
      },
      {
        "pitch": 40,
        "duration": 1.0,
        "velocity": 120
      },
      {
        "pitch": 40,
        "duration": 1.0,
        "velocity": 100
      },
      {
        "pitch": 60,
        "duration": 0.3333333333333333,
        "velocity": 112
      },
      {
        "pitch": 41,
        "duration": 1.6666666666666667,
        "velocity": 120
      },
      {
        "pitch": 41,
        "duration": 1.75,
        "velocity": 100
      },
      {
        "pitch": 57,
        "duration": 2.0,
        "velocity": 105
      },
      {
        "pitch": 65,
        "duration": 3.0,
        "velocity": 112
      },
      {
        "pitch": 41,
        "duration": 0.3333333333333333,
        "velocity": 120
      },
      {
        "pitch": 41,
        "duration": 0.3333333333333333,
        "velocity": 100
      },
      {
        "pitch": 43,
        "duration": 1.6666666666666667,
        "velocity": 120
      },
      {
        "pitch": 43,
        "duration": 1.75,
        "velocity": 100
      },
      {
        "pitch": 58,
        "duration": 2.0,
        "velocity": 105
      },
      {
        "pitch": 67,
        "duration": 1.0,
        "velocity": 112
      },
      {
        "pitch": 43,
        "duration": 0.3333333333333333,
        "velocity": 120
      },
      {
        "pitch": 43,
        "duration": 0.3333333333333333,
        "velocity": 100
      }
    ],
    "key": "F major",
    "tempo": 120,
    "name": "8fb42fb300d91015af9a6c173f5e60e6_1.mid_seg71",
    "avg_interval": 9.4,
    "span": 31,
    "note_density": 0.0,
    "register": "bass",
    "complexity": 0.5944444444444444
  },
  {
    "events": [
      {
        "pitch": 45,
        "duration": 1.0,
        "velocity": 120
      },
      {
        "pitch": 45,
        "duration": 1.0,
        "velocity": 100
      },
      {
        "pitch": 60,
        "duration": 1.0,
        "velocity": 105
      },
      {
        "pitch": 63,
        "duration": 1.0,
        "velocity": 105
      },
      {
        "pitch": 69,
        "duration": 1.0,
        "velocity": 112
      },
      {
        "pitch": 51,
        "duration": 1.0,
        "velocity": 120
      },
      {
        "pitch": 51,
        "duration": 1.0,
        "velocity": 100
      },
      {
        "pitch": 55,
        "duration": 1.0,
        "velocity": 105
      },
      {
        "pitch": 61,
        "duration": 1.0,
        "velocity": 105
      },
      {
        "pitch": 65,
        "duration": 1.0,
        "velocity": 105
      },
      {
        "pitch": 69,
        "duration": 1.0,
        "velocity": 112
      },
      {
        "pitch": 50,
        "duration": 1.0,
        "velocity": 120
      },
      {
        "pitch": 50,
        "duration": 1.0,
        "velocity": 100
      },
      {
        "pitch": 54,
        "duration": 2.0,
        "velocity": 105
      },
      {
        "pitch": 60,
        "duration": 2.0,
        "velocity": 105
      },
      {
        "pitch": 62,
        "duration": 2.0,
        "velocity": 112
      }
    ],
    "key": "F major",
    "tempo": 120,
    "name": "8fb42fb300d91015af9a6c173f5e60e6_1.mid_seg72",
    "avg_interval": 6.066666666666666,
    "span": 24,
    "note_density": 0.0,
    "register": "middle",
    "complexity": 0.5018518518518519
  },
  {
    "events": [
      {
        "pitch": 44,
        "duration": 1.0,
        "velocity": 120
      },
      {
        "pitch": 44,
        "duration": 1.0,
        "velocity": 100
      },
      {
        "pitch": 43,
        "duration": 1.3333333333333333,
        "velocity": 120
      },
      {
        "pitch": 43,
        "duration": 1.25,
        "velocity": 100
      },
      {
        "pitch": 58,
        "duration": 2.0,
        "velocity": 105
      },
      {
        "pitch": 67,
        "duration": 0.6666666666666666,
        "velocity": 112
      },
      {
        "pitch": 38,
        "duration": 0.3333333333333333,
        "velocity": 120
      },
      {
        "pitch": 38,
        "duration": 0.3333333333333333,
        "velocity": 100
      },
      {
        "pitch": 69,
        "duration": 0.6666666666666666,
        "velocity": 112
      },
      {
        "pitch": 37,
        "duration": 0.3333333333333333,
        "velocity": 120
      },
      {
        "pitch": 37,
        "duration": 0.3333333333333333,
        "velocity": 95
      },
      {
        "pitch": 36,
        "duration": 1.6666666666666667,
        "velocity": 120
      },
      {
        "pitch": 36,
        "duration": 1.75,
        "velocity": 95
      },
      {
        "pitch": 62,
        "duration": 1.0,
        "velocity": 105
      },
      {
        "pitch": 65,
        "duration": 1.0,
        "velocity": 105
      },
      {
        "pitch": 70,
        "duration": 1.0,
        "velocity": 112
      }
    ],
    "key": "F major",
    "tempo": 120,
    "name": "8fb42fb300d91015af9a6c173f5e60e6_1.mid_seg73",
    "avg_interval": 10.133333333333333,
    "span": 34,
    "note_density": 0.02083333333333337,
    "register": "bass",
    "complexity": 0.6217592592592593
  },
  {
    "events": [
      {
        "pitch": 62,
        "duration": 1.0,
        "velocity": 112
      },
      {
        "pitch": 48,
        "duration": 0.3333333333333333,
        "velocity": 120
      },
      {
        "pitch": 48,
        "duration": 0.25,
        "velocity": 100
      },
      {
        "pitch": 41,
        "duration": 1.6666666666666667,
        "velocity": 120
      },
      {
        "pitch": 41,
        "duration": 1.75,
        "velocity": 100
      },
      {
        "pitch": 57,
        "duration": 4.0,
        "velocity": 105
      },
      {
        "pitch": 60,
        "duration": 4.0,
        "velocity": 105
      },
      {
        "pitch": 62,
        "duration": 4.0,
        "velocity": 105
      },
      {
        "pitch": 67,
        "duration": 1.75,
        "velocity": 112
      },
      {
        "pitch": 48,
        "duration": 0.3333333333333333,
        "velocity": 120
      },
      {
        "pitch": 48,
        "duration": 0.3333333333333333,
        "velocity": 100
      },
      {
        "pitch": 65,
        "duration": 0.3333333333333333,
        "velocity": 112
      },
      {
        "pitch": 41,
        "duration": 1.6666666666666667,
        "velocity": 120
      },
      {
        "pitch": 41,
        "duration": 1.75,
        "velocity": 100
      },
      {
        "pitch": 50,
        "duration": 1.75,
        "velocity": 105
      },
      {
        "pitch": 65,
        "duration": 2.0,
        "velocity": 112
      }
    ],
    "key": "F major",
    "tempo": 120,
    "name": "8fb42fb300d91015af9a6c173f5e60e6_1.mid_seg74",
    "avg_interval": 8.733333333333333,
    "span": 26,
    "note_density": 0.0,
    "register": "bass",
    "complexity": 0.575925925925926
  },
  {
    "events": [
      {
        "pitch": 48,
        "duration": 0.3333333333333333,
        "velocity": 120
      },
      {
        "pitch": 48,
        "duration": 0.3333333333333333,
        "velocity": 100
      },
      {
        "pitch": 43,
        "duration": 1.75,
        "velocity": 120
      },
      {
        "pitch": 43,
        "duration": 2.0,
        "velocity": 100
      },
      {
        "pitch": 50,
        "duration": 2.0,
        "velocity": 105
      },
      {
        "pitch": 58,
        "duration": 0.6666666666666666,
        "velocity": 105
      },
      {
        "pitch": 65,
        "duration": 0.6666666666666666,
        "velocity": 112
      },
      {
        "pitch": 58,
        "duration": 0.6666666666666666,
        "velocity": 105
      },
      {
        "pitch": 65,
        "duration": 0.6666666666666666,
        "velocity": 112
      },
      {
        "pitch": 36,
        "duration": 1.75,
        "velocity": 120
      },
      {
        "pitch": 36,
        "duration": 2.0,
        "velocity": 95
      },
      {
        "pitch": 43,
        "duration": 2.0,
        "velocity": 105
      },
      {
        "pitch": 50,
        "duration": 2.0,
        "velocity": 105
      },
      {
        "pitch": 58,
        "duration": 2.0,
        "velocity": 105
      },
      {
        "pitch": 65,
        "duration": 2.0,
        "velocity": 112
      },
      {
        "pitch": 41,
        "duration": 1.75,
        "velocity": 120
      }
    ],
    "key": "F major",
    "tempo": 120,
    "name": "8fb42fb300d91015af9a6c173f5e60e6_1.mid_seg75",
    "avg_interval": 8.2,
    "span": 29,
    "note_density": 0.0,
    "register": "bass",
    "complexity": 0.561111111111111
  },
  {
    "events": [
      {
        "pitch": 41,
        "duration": 2.0,
        "velocity": 100
      },
      {
        "pitch": 48,
        "duration": 2.0,
        "velocity": 105
      },
      {
        "pitch": 57,
        "duration": 0.6666666666666666,
        "velocity": 105
      },
      {
        "pitch": 62,
        "duration": 0.6666666666666666,
        "velocity": 105
      },
      {
        "pitch": 67,
        "duration": 0.6666666666666666,
        "velocity": 112
      },
      {
        "pitch": 57,
        "duration": 0.6666666666666666,
        "velocity": 105
      },
      {
        "pitch": 62,
        "duration": 0.6666666666666666,
        "velocity": 105
      },
      {
        "pitch": 67,
        "duration": 0.6666666666666666,
        "velocity": 112
      },
      {
        "pitch": 41,
        "duration": 1.6666666666666667,
        "velocity": 120
      },
      {
        "pitch": 41,
        "duration": 1.75,
        "velocity": 100
      },
      {
        "pitch": 48,
        "duration": 1.75,
        "velocity": 105
      },
      {
        "pitch": 57,
        "duration": 2.0,
        "velocity": 105
      },
      {
        "pitch": 62,
        "duration": 2.0,
        "velocity": 105
      },
      {
        "pitch": 67,
        "duration": 2.0,
        "velocity": 112
      },
      {
        "pitch": 41,
        "duration": 0.3333333333333333,
        "velocity": 120
      },
      {
        "pitch": 41,
        "duration": 0.3333333333333333,
        "velocity": 100
      }
    ],
    "key": "F major",
    "tempo": 120,
    "name": "8fb42fb300d91015af9a6c173f5e60e6_1.mid_seg76",
    "avg_interval": 8.266666666666667,
    "span": 26,
    "note_density": 0.0,
    "register": "bass",
    "complexity": 0.562962962962963
  },
  {
    "events": [
      {
        "pitch": 48,
        "duration": 0.3333333333333333,
        "velocity": 105
      },
      {
        "pitch": 43,
        "duration": 1.75,
        "velocity": 120
      },
      {
        "pitch": 43,
        "duration": 2.0,
        "velocity": 100
      },
      {
        "pitch": 50,
        "duration": 2.0,
        "velocity": 105
      },
      {
        "pitch": 58,
        "duration": 0.6666666666666666,
        "velocity": 105
      },
      {
        "pitch": 65,
        "duration": 0.6666666666666666,
        "velocity": 112
      },
      {
        "pitch": 58,
        "duration": 0.6666666666666666,
        "velocity": 105
      },
      {
        "pitch": 65,
        "duration": 0.6666666666666666,
        "velocity": 112
      },
      {
        "pitch": 36,
        "duration": 1.75,
        "velocity": 120
      },
      {
        "pitch": 36,
        "duration": 2.0,
        "velocity": 95
      },
      {
        "pitch": 43,
        "duration": 2.0,
        "velocity": 105
      },
      {
        "pitch": 50,
        "duration": 2.0,
        "velocity": 105
      },
      {
        "pitch": 58,
        "duration": 2.0,
        "velocity": 105
      },
      {
        "pitch": 65,
        "duration": 2.0,
        "velocity": 112
      },
      {
        "pitch": 41,
        "duration": 1.0,
        "velocity": 120
      },
      {
        "pitch": 41,
        "duration": 1.0,
        "velocity": 100
      }
    ],
    "key": "F major",
    "tempo": 120,
    "name": "8fb42fb300d91015af9a6c173f5e60e6_1.mid_seg77",
    "avg_interval": 8.2,
    "span": 29,
    "note_density": 0.0,
    "register": "bass",
    "complexity": 0.561111111111111
  },
  {
    "events": [
      {
        "pitch": 48,
        "duration": 1.0,
        "velocity": 105
      },
      {
        "pitch": 53,
        "duration": 1.0,
        "velocity": 105
      },
      {
        "pitch": 57,
        "duration": 1.0,
        "velocity": 105
      },
      {
        "pitch": 60,
        "duration": 1.0,
        "velocity": 105
      },
      {
        "pitch": 65,
        "duration": 1.0,
        "velocity": 112
      },
      {
        "pitch": 41,
        "duration": 2.3333333333333335,
        "velocity": 120
      },
      {
        "pitch": 41,
        "duration": 2.3333333333333335,
        "velocity": 100
      },
      {
        "pitch": 48,
        "duration": 2.3333333333333335,
        "velocity": 105
      },
      {
        "pitch": 57,
        "duration": 0.5,
        "velocity": 105
      },
      {
        "pitch": 60,
        "duration": 1.3333333333333333,
        "velocity": 105
      },
      {
        "pitch": 65,
        "duration": 1.3333333333333333,
        "velocity": 105
      },
      {
        "pitch": 59,
        "duration": 0.25,
        "velocity": 112
      },
      {
        "pitch": 57,
        "duration": 0.25,
        "velocity": 112
      },
      {
        "pitch": 62,
        "duration": 0.25,
        "velocity": 112
      },
      {
        "pitch": 67,
        "duration": 0.25,
        "velocity": 112
      },
      {
        "pitch": 71,
        "duration": 0.25,
        "velocity": 112
      }
    ],
    "key": "F major",
    "tempo": 120,
    "name": "8fb42fb300d91015af9a6c173f5e60e6_1.mid_seg78",
    "avg_interval": 5.8,
    "span": 30,
    "note_density": 0.0,
    "register": "middle",
    "complexity": 0.49444444444444446
  },
  {
    "events": [
      {
        "pitch": 74,
        "duration": 0.25,
        "velocity": 112
      },
      {
        "pitch": 79,
        "duration": 0.25,
        "velocity": 112
      },
      {
        "pitch": 83,
        "duration": 0.25,
        "velocity": 112
      },
      {
        "pitch": 88,
        "duration": 0.25,
        "velocity": 112
      },
      {
        "pitch": 41,
        "duration": 4.0,
        "velocity": 120
      },
      {
        "pitch": 41,
        "duration": 4.0,
        "velocity": 100
      },
      {
        "pitch": 48,
        "duration": 4.0,
        "velocity": 105
      },
      {
        "pitch": 95,
        "duration": 0.6666666666666666,
        "velocity": 80
      },
      {
        "pitch": 95,
        "duration": 0.3333333333333333,
        "velocity": 80
      },
      {
        "pitch": 95,
        "duration": 1.0,
        "velocity": 80
      },
      {
        "pitch": 98,
        "duration": 0.6666666666666666,
        "velocity": 80
      },
      {
        "pitch": 93,
        "duration": 1.0,
        "velocity": 80
      },
      {
        "pitch": 98,
        "duration": 0.3333333333333333,
        "velocity": 80
      },
      {
        "pitch": 41,
        "duration": 4.0,
        "velocity": 120
      },
      {
        "pitch": 41,
        "duration": 4.0,
        "velocity": 100
      },
      {
        "pitch": 48,
        "duration": 4.0,
        "velocity": 105
      }
    ],
    "key": "F major",
    "tempo": 120,
    "name": "8fb42fb300d91015af9a6c173f5e60e6_1.mid_seg79",
    "avg_interval": 12.8,
    "span": 57,
    "note_density": 0.0,
    "register": "treble",
    "complexity": 0.6666666666666666
  },
  {
    "events": [
      {
        "pitch": 91,
        "duration": 1.0,
        "velocity": 80
      },
      {
        "pitch": 93,
        "duration": 0.6666666666666666,
        "velocity": 80
      },
      {
        "pitch": 95,
        "duration": 1.0,
        "velocity": 80
      },
      {
        "pitch": 98,
        "duration": 0.3333333333333333,
        "velocity": 80
      },
      {
        "pitch": 91,
        "duration": 1.0,
        "velocity": 80
      },
      {
        "pitch": 41,
        "duration": 0.9166666666666666,
        "velocity": 120
      },
      {
        "pitch": 41,
        "duration": 1.6666666666666667,
        "velocity": 100
      },
      {
        "pitch": 48,
        "duration": 1.6666666666666667,
        "velocity": 105
      },
      {
        "pitch": 93,
        "duration": 0.6666666666666666,
        "velocity": 80
      },
      {
        "pitch": 95,
        "duration": 3.3333333333333335,
        "velocity": 80
      },
      {
        "pitch": 29,
        "duration": 2.25,
        "velocity": 120
      },
      {
        "pitch": 29,
        "duration": 2.3333333333333335,
        "velocity": 95
      },
      {
        "pitch": 41,
        "duration": 2.3333333333333335,
        "velocity": 105
      },
      {
        "pitch": 95,
        "duration": 4.0,
        "velocity": 80
      }
    ],
    "key": "F major",
    "tempo": 120,
    "name": "8fb42fb300d91015af9a6c173f5e60e6_1.mid_seg80",
    "avg_interval": 19.23076923076923,
    "span": 69,
    "note_density": 0.0,
    "register": "treble",
    "complexity": 0.6666666666666666
  },
  {
    "events": [
      {
        "pitch": 87,
        "duration": 1.0,
        "velocity": 110
      },
      {
        "pitch": 87,
        "duration": 1.0,
        "velocity": 95
      },
      {
        "pitch": 68,
        "duration": 7.5,
        "velocity": 110
      },
      {
        "pitch": 70,
        "duration": 7.0,
        "velocity": 110
      },
      {
        "pitch": 75,
        "duration": 0.5,
        "velocity": 110
      },
      {
        "pitch": 75,
        "duration": 0.5,
        "velocity": 95
      },
      {
        "pitch": 80,
        "duration": 1.0,
        "velocity": 110
      },
      {
        "pitch": 80,
        "duration": 1.0,
        "velocity": 95
      },
      {
        "pitch": 75,
        "duration": 0.5,
        "velocity": 110
      },
      {
        "pitch": 75,
        "duration": 0.5,
        "velocity": 95
      },
      {
        "pitch": 82,
        "duration": 4.5,
        "velocity": 110
      },
      {
        "pitch": 82,
        "duration": 4.5,
        "velocity": 95
      },
      {
        "pitch": 87,
        "duration": 1.5,
        "velocity": 110
      },
      {
        "pitch": 87,
        "duration": 1.5,
        "velocity": 95
      },
      {
        "pitch": 61,
        "duration": 7.5,
        "velocity": 110
      },
      {
        "pitch": 68,
        "duration": 0.5,
        "velocity": 110
      }
    ],
    "key": "A- major",
    "tempo": 120,
    "name": "036eec23c193d281227d7f2df45f6a57_1.mid_seg0",
    "avg_interval": 5.4,
    "span": 26,
    "note_density": 0.0,
    "register": "treble",
    "complexity": 0.48333333333333334
  },
  {
    "events": [
      {
        "pitch": 70,
        "duration": 6.5,
        "velocity": 110
      },
      {
        "pitch": 75,
        "duration": 0.5,
        "velocity": 110
      },
      {
        "pitch": 75,
        "duration": 0.5,
        "velocity": 95
      },
      {
        "pitch": 80,
        "duration": 1.5,
        "velocity": 110
      },
      {
        "pitch": 80,
        "duration": 1.5,
        "velocity": 95
      },
      {
        "pitch": 82,
        "duration": 1.0,
        "velocity": 110
      },
      {
        "pitch": 82,
        "duration": 1.0,
        "velocity": 95
      },
      {
        "pitch": 75,
        "duration": 0.5,
        "velocity": 110
      },
      {
        "pitch": 75,
        "duration": 0.5,
        "velocity": 95
      },
      {
        "pitch": 80,
        "duration": 1.75,
        "velocity": 110
      },
      {
        "pitch": 80,
        "duration": 1.75,
        "velocity": 95
      },
      {
        "pitch": 87,
        "duration": 1.5,
        "velocity": 110
      },
      {
        "pitch": 87,
        "duration": 1.5,
        "velocity": 95
      },
      {
        "pitch": 65,
        "duration": 7.5,
        "velocity": 110
      },
      {
        "pitch": 67,
        "duration": 0.5,
        "velocity": 110
      },
      {
        "pitch": 68,
        "duration": 0.5,
        "velocity": 110
      }
    ],
    "key": "A- major",
    "tempo": 120,
    "name": "036eec23c193d281227d7f2df45f6a57_1.mid_seg1",
    "avg_interval": 3.7333333333333334,
    "span": 22,
    "note_density": 0.0,
    "register": "treble",
    "complexity": 0.40925925925925927
  },
  {
    "events": [
      {
        "pitch": 70,
        "duration": 0.5,
        "velocity": 110
      },
      {
        "pitch": 72,
        "duration": 5.5,
        "velocity": 110
      },
      {
        "pitch": 84,
        "duration": 0.5,
        "velocity": 110
      },
      {
        "pitch": 84,
        "duration": 0.5,
        "velocity": 95
      },
      {
        "pitch": 75,
        "duration": 1.5,
        "velocity": 110
      },
      {
        "pitch": 75,
        "duration": 1.5,
        "velocity": 95
      },
      {
        "pitch": 61,
        "duration": 7.5,
        "velocity": 110
      },
      {
        "pitch": 63,
        "duration": 0.5,
        "velocity": 110
      },
      {
        "pitch": 68,
        "duration": 6.5,
        "velocity": 110
      },
      {
        "pitch": 80,
        "duration": 2.25,
        "velocity": 110
      },
      {
        "pitch": 80,
        "duration": 2.25,
        "velocity": 95
      },
      {
        "pitch": 68,
        "duration": 3.5,
        "velocity": 110
      },
      {
        "pitch": 70,
        "duration": 0.5,
        "velocity": 110
      },
      {
        "pitch": 75,
        "duration": 2.75,
        "velocity": 110
      },
      {
        "pitch": 82,
        "duration": 2.25,
        "velocity": 110
      },
      {
        "pitch": 82,
        "duration": 2.25,
        "velocity": 95
      }
    ],
    "key": "A- major",
    "tempo": 120,
    "name": "036eec23c193d281227d7f2df45f6a57_1.mid_seg2",
    "avg_interval": 5.466666666666667,
    "span": 23,
    "note_density": 0.0,
    "register": "treble",
    "complexity": 0.4712962962962963
  },
  {
    "events": [
      {
        "pitch": 68,
        "duration": 0.5,
        "velocity": 121
      },
      {
        "pitch": 80,
        "duration": 0.5,
        "velocity": 110
      },
      {
        "pitch": 70,
        "duration": 0.5,
        "velocity": 110
      },
      {
        "pitch": 82,
        "duration": 0.5,
        "velocity": 110
      },
      {
        "pitch": 72,
        "duration": 1.0,
        "velocity": 127
      },
      {
        "pitch": 84,
        "duration": 1.0,
        "velocity": 110
      },
      {
        "pitch": 72,
        "duration": 1.5,
        "velocity": 127
      },
      {
        "pitch": 84,
        "duration": 1.5,
        "velocity": 110
      },
      {
        "pitch": 82,
        "duration": 1.5,
        "velocity": 110
      },
      {
        "pitch": 82,
        "duration": 1.5,
        "velocity": 95
      },
      {
        "pitch": 67,
        "duration": 3.5,
        "velocity": 110
      },
      {
        "pitch": 70,
        "duration": 0.5,
        "velocity": 110
      },
      {
        "pitch": 75,
        "duration": 2.75,
        "velocity": 110
      },
      {
        "pitch": 60,
        "duration": 0.5,
        "velocity": 123
      },
      {
        "pitch": 72,
        "duration": 0.5,
        "velocity": 110
      },
      {
        "pitch": 77,
        "duration": 2.25,
        "velocity": 110
      }
    ],
    "key": "A- major",
    "tempo": 120,
    "name": "036eec23c193d281227d7f2df45f6a57_1.mid_seg3",
    "avg_interval": 9.133333333333333,
    "span": 24,
    "note_density": 0.0,
    "register": "treble",
    "complexity": 0.587037037037037
  },
  {
    "events": [
      {
        "pitch": 77,
        "duration": 2.25,
        "velocity": 95
      },
      {
        "pitch": 70,
        "duration": 1.0,
        "velocity": 127
      },
      {
        "pitch": 82,
        "duration": 1.0,
        "velocity": 110
      },
      {
        "pitch": 68,
        "duration": 1.0,
        "velocity": 127
      },
      {
        "pitch": 80,
        "duration": 1.0,
        "velocity": 110
      },
      {
        "pitch": 68,
        "duration": 1.0,
        "velocity": 127
      },
      {
        "pitch": 80,
        "duration": 1.0,
        "velocity": 110
      },
      {
        "pitch": 80,
        "duration": 1.5,
        "velocity": 110
      },
      {
        "pitch": 80,
        "duration": 1.5,
        "velocity": 95
      },
      {
        "pitch": 65,
        "duration": 3.5,
        "velocity": 110
      },
      {
        "pitch": 72,
        "duration": 2.75,
        "velocity": 110
      },
      {
        "pitch": 79,
        "duration": 2.25,
        "velocity": 110
      },
      {
        "pitch": 79,
        "duration": 2.25,
        "velocity": 95
      },
      {
        "pitch": 68,
        "duration": 0.5,
        "velocity": 127
      },
      {
        "pitch": 80,
        "duration": 0.5,
        "velocity": 110
      },
      {
        "pitch": 70,
        "duration": 0.5,
        "velocity": 110
      }
    ],
    "key": "A- major",
    "tempo": 120,
    "name": "036eec23c193d281227d7f2df45f6a57_1.mid_seg4",
    "avg_interval": 8.733333333333333,
    "span": 17,
    "note_density": 0.0,
    "register": "treble",
    "complexity": 0.4787037037037037
  },
  {
    "events": [
      {
        "pitch": 82,
        "duration": 0.5,
        "velocity": 110
      },
      {
        "pitch": 72,
        "duration": 0.5,
        "velocity": 127
      },
      {
        "pitch": 84,
        "duration": 0.5,
        "velocity": 110
      },
      {
        "pitch": 72,
        "duration": 0.5,
        "velocity": 98
      },
      {
        "pitch": 84,
        "duration": 0.5,
        "velocity": 110
      },
      {
        "pitch": 72,
        "duration": 1.0,
        "velocity": 110
      },
      {
        "pitch": 84,
        "duration": 1.0,
        "velocity": 110
      },
      {
        "pitch": 70,
        "duration": 1.0,
        "velocity": 102
      },
      {
        "pitch": 82,
        "duration": 1.0,
        "velocity": 110
      },
      {
        "pitch": 84,
        "duration": 1.75,
        "velocity": 110
      },
      {
        "pitch": 84,
        "duration": 1.75,
        "velocity": 95
      },
      {
        "pitch": 68,
        "duration": 0.6666666666666666,
        "velocity": 108
      },
      {
        "pitch": 80,
        "duration": 0.6666666666666666,
        "velocity": 110
      },
      {
        "pitch": 67,
        "duration": 0.6666666666666666,
        "velocity": 111
      },
      {
        "pitch": 79,
        "duration": 0.6666666666666666,
        "velocity": 110
      },
      {
        "pitch": 65,
        "duration": 1.75,
        "velocity": 125
      }
    ],
    "key": "A- major",
    "tempo": 120,
    "name": "036eec23c193d281227d7f2df45f6a57_1.mid_seg5",
    "avg_interval": 11.0,
    "span": 19,
    "note_density": 0.09895833333333348,
    "register": "treble",
    "complexity": 0.6024305555555556
  },
  {
    "events": [
      {
        "pitch": 77,
        "duration": 1.75,
        "velocity": 110
      },
      {
        "pitch": 61,
        "duration": 7.5,
        "velocity": 110
      },
      {
        "pitch": 63,
        "duration": 0.5,
        "velocity": 110
      },
      {
        "pitch": 68,
        "duration": 6.5,
        "velocity": 110
      },
      {
        "pitch": 75,
        "duration": 6.0,
        "velocity": 110
      },
      {
        "pitch": 75,
        "duration": 6.0,
        "velocity": 95
      },
      {
        "pitch": 65,
        "duration": 0.5,
        "velocity": 127
      },
      {
        "pitch": 77,
        "duration": 0.5,
        "velocity": 110
      },
      {
        "pitch": 68,
        "duration": 1.0,
        "velocity": 121
      },
      {
        "pitch": 80,
        "duration": 1.0,
        "velocity": 110
      },
      {
        "pitch": 68,
        "duration": 0.5,
        "velocity": 121
      },
      {
        "pitch": 80,
        "duration": 0.5,
        "velocity": 110
      },
      {
        "pitch": 68,
        "duration": 1.5,
        "velocity": 127
      },
      {
        "pitch": 80,
        "duration": 1.5,
        "velocity": 110
      },
      {
        "pitch": 61,
        "duration": 0.5,
        "velocity": 121
      },
      {
        "pitch": 73,
        "duration": 0.5,
        "velocity": 110
      }
    ],
    "key": "A- major",
    "tempo": 120,
    "name": "036eec23c193d281227d7f2df45f6a57_1.mid_seg6",
    "avg_interval": 10.133333333333333,
    "span": 19,
    "note_density": 0.0,
    "register": "treble",
    "complexity": 0.5453703703703704
  },
  {
    "events": [
      {
        "pitch": 63,
        "duration": 1.0,
        "velocity": 127
      },
      {
        "pitch": 75,
        "duration": 1.0,
        "velocity": 110
      },
      {
        "pitch": 56,
        "duration": 3.5,
        "velocity": 110
      },
      {
        "pitch": 58,
        "duration": 0.5,
        "velocity": 110
      },
      {
        "pitch": 63,
        "duration": 2.75,
        "velocity": 110
      },
      {
        "pitch": 63,
        "duration": 0.5,
        "velocity": 116
      },
      {
        "pitch": 75,
        "duration": 0.5,
        "velocity": 110
      },
      {
        "pitch": 75,
        "duration": 2.25,
        "velocity": 110
      },
      {
        "pitch": 75,
        "duration": 2.25,
        "velocity": 95
      },
      {
        "pitch": 68,
        "duration": 0.5,
        "velocity": 127
      },
      {
        "pitch": 80,
        "duration": 0.5,
        "velocity": 110
      },
      {
        "pitch": 70,
        "duration": 0.5,
        "velocity": 119
      },
      {
        "pitch": 82,
        "duration": 0.5,
        "velocity": 110
      },
      {
        "pitch": 72,
        "duration": 1.0,
        "velocity": 127
      },
      {
        "pitch": 84,
        "duration": 1.0,
        "velocity": 110
      },
      {
        "pitch": 72,
        "duration": 1.0,
        "velocity": 123
      }
    ],
    "key": "A- major",
    "tempo": 120,
    "name": "036eec23c193d281227d7f2df45f6a57_1.mid_seg7",
    "avg_interval": 8.333333333333334,
    "span": 28,
    "note_density": 0.0,
    "register": "treble",
    "complexity": 0.5648148148148149
  },
  {
    "events": [
      {
        "pitch": 84,
        "duration": 1.0,
        "velocity": 110
      },
      {
        "pitch": 65,
        "duration": 1.75,
        "velocity": 110
      },
      {
        "pitch": 55,
        "duration": 3.5,
        "velocity": 110
      },
      {
        "pitch": 70,
        "duration": 0.5,
        "velocity": 121
      },
      {
        "pitch": 82,
        "duration": 0.5,
        "velocity": 110
      },
      {
        "pitch": 70,
        "duration": 2.0,
        "velocity": 94
      },
      {
        "pitch": 82,
        "duration": 2.0,
        "velocity": 110
      },
      {
        "pitch": 70,
        "duration": 1.75,
        "velocity": 110
      },
      {
        "pitch": 70,
        "duration": 1.75,
        "velocity": 95
      },
      {
        "pitch": 63,
        "duration": 1.75,
        "velocity": 110
      },
      {
        "pitch": 68,
        "duration": 0.5,
        "velocity": 102
      },
      {
        "pitch": 80,
        "duration": 0.5,
        "velocity": 110
      },
      {
        "pitch": 68,
        "duration": 1.0,
        "velocity": 101
      },
      {
        "pitch": 80,
        "duration": 1.0,
        "velocity": 110
      },
      {
        "pitch": 68,
        "duration": 1.75,
        "velocity": 110
      },
      {
        "pitch": 68,
        "duration": 1.75,
        "velocity": 95
      }
    ],
    "key": "A- major",
    "tempo": 120,
    "name": "036eec23c193d281227d7f2df45f6a57_1.mid_seg8",
    "avg_interval": 10.133333333333333,
    "span": 29,
    "note_density": 0.0,
    "register": "treble",
    "complexity": 0.6148148148148148
  },
  {
    "events": [
      {
        "pitch": 68,
        "duration": 0.5,
        "velocity": 121
      },
      {
        "pitch": 80,
        "duration": 0.5,
        "velocity": 110
      },
      {
        "pitch": 67,
        "duration": 1.75,
        "velocity": 110
      },
      {
        "pitch": 67,
        "duration": 1.75,
        "velocity": 95
      },
      {
        "pitch": 70,
        "duration": 0.5,
        "velocity": 113
      },
      {
        "pitch": 82,
        "duration": 0.5,
        "velocity": 110
      },
      {
        "pitch": 72,
        "duration": 1.0,
        "velocity": 127
      },
      {
        "pitch": 84,
        "duration": 1.0,
        "velocity": 110
      },
      {
        "pitch": 72,
        "duration": 1.5,
        "velocity": 127
      },
      {
        "pitch": 84,
        "duration": 1.5,
        "velocity": 110
      },
      {
        "pitch": 65,
        "duration": 1.75,
        "velocity": 110
      },
      {
        "pitch": 65,
        "duration": 1.75,
        "velocity": 95
      },
      {
        "pitch": 70,
        "duration": 0.5,
        "velocity": 122
      },
      {
        "pitch": 82,
        "duration": 0.5,
        "velocity": 110
      },
      {
        "pitch": 68,
        "duration": 0.5,
        "velocity": 127
      },
      {
        "pitch": 80,
        "duration": 0.5,
        "velocity": 110
      }
    ],
    "key": "A- major",
    "tempo": 120,
    "name": "036eec23c193d281227d7f2df45f6a57_1.mid_seg9",
    "avg_interval": 9.866666666666667,
    "span": 19,
    "note_density": 0.0,
    "register": "treble",
    "complexity": 0.537962962962963
  },
  {
    "events": [
      {
        "pitch": 67,
        "duration": 1.5,
        "velocity": 122
      },
      {
        "pitch": 79,
        "duration": 1.5,
        "velocity": 110
      },
      {
        "pitch": 65,
        "duration": 1.75,
        "velocity": 127
      },
      {
        "pitch": 77,
        "duration": 1.75,
        "velocity": 110
      },
      {
        "pitch": 65,
        "duration": 0.5,
        "velocity": 127
      },
      {
        "pitch": 77,
        "duration": 0.5,
        "velocity": 110
      },
      {
        "pitch": 68,
        "duration": 1.5,
        "velocity": 122
      },
      {
        "pitch": 80,
        "duration": 1.5,
        "velocity": 110
      },
      {
        "pitch": 68,
        "duration": 1.5,
        "velocity": 107
      },
      {
        "pitch": 80,
        "duration": 1.5,
        "velocity": 110
      },
      {
        "pitch": 61,
        "duration": 0.5,
        "velocity": 88
      },
      {
        "pitch": 73,
        "duration": 0.5,
        "velocity": 110
      },
      {
        "pitch": 63,
        "duration": 1.75,
        "velocity": 103
      },
      {
        "pitch": 75,
        "duration": 1.75,
        "velocity": 110
      },
      {
        "pitch": 56,
        "duration": 1.0,
        "velocity": 110
      },
      {
        "pitch": 56,
        "duration": 1.0,
        "velocity": 95
      }
    ],
    "key": "A- major",
    "tempo": 120,
    "name": "036eec23c193d281227d7f2df45f6a57_1.mid_seg10",
    "avg_interval": 11.933333333333334,
    "span": 24,
    "note_density": 0.0,
    "register": "treble",
    "complexity": 0.6648148148148149
  },
  {
    "events": [
      {
        "pitch": 51,
        "duration": 0.5,
        "velocity": 110
      },
      {
        "pitch": 68,
        "duration": 0.5,
        "velocity": 122
      },
      {
        "pitch": 80,
        "duration": 0.5,
        "velocity": 110
      },
      {
        "pitch": 68,
        "duration": 1.0,
        "velocity": 127
      },
      {
        "pitch": 80,
        "duration": 1.0,
        "velocity": 110
      },
      {
        "pitch": 44,
        "duration": 0.5,
        "velocity": 110
      },
      {
        "pitch": 46,
        "duration": 0.5,
        "velocity": 110
      },
      {
        "pitch": 75,
        "duration": 1.0,
        "velocity": 127
      },
      {
        "pitch": 87,
        "duration": 1.0,
        "velocity": 110
      },
      {
        "pitch": 48,
        "duration": 3.5,
        "velocity": 110
      },
      {
        "pitch": 55,
        "duration": 0.5,
        "velocity": 110
      },
      {
        "pitch": 68,
        "duration": 1.0,
        "velocity": 127
      },
      {
        "pitch": 80,
        "duration": 1.0,
        "velocity": 110
      },
      {
        "pitch": 56,
        "duration": 2.75,
        "velocity": 110
      },
      {
        "pitch": 63,
        "duration": 0.5,
        "velocity": 110
      },
      {
        "pitch": 63,
        "duration": 0.5,
        "velocity": 95
      }
    ],
    "key": "A- major",
    "tempo": 120,
    "name": "036eec23c193d281227d7f2df45f6a57_1.mid_seg11",
    "avg_interval": 15.6,
    "span": 43,
    "note_density": 0.0,
    "register": "middle",
    "complexity": 0.6666666666666666
  },
  {
    "events": [
      {
        "pitch": 68,
        "duration": 1.0,
        "velocity": 118
      },
      {
        "pitch": 80,
        "duration": 1.0,
        "velocity": 110
      },
      {
        "pitch": 68,
        "duration": 1.75,
        "velocity": 110
      },
      {
        "pitch": 68,
        "duration": 1.75,
        "velocity": 95
      },
      {
        "pitch": 67,
        "duration": 1.0,
        "velocity": 113
      },
      {
        "pitch": 79,
        "duration": 1.0,
        "velocity": 110
      },
      {
        "pitch": 68,
        "duration": 1.75,
        "velocity": 110
      },
      {
        "pitch": 80,
        "duration": 1.75,
        "velocity": 110
      },
      {
        "pitch": 67,
        "duration": 0.5,
        "velocity": 111
      },
      {
        "pitch": 79,
        "duration": 0.5,
        "velocity": 110
      },
      {
        "pitch": 68,
        "duration": 1.0,
        "velocity": 120
      },
      {
        "pitch": 80,
        "duration": 1.0,
        "velocity": 110
      },
      {
        "pitch": 53,
        "duration": 1.0,
        "velocity": 110
      },
      {
        "pitch": 75,
        "duration": 1.0,
        "velocity": 127
      },
      {
        "pitch": 87,
        "duration": 1.0,
        "velocity": 110
      },
      {
        "pitch": 68,
        "duration": 2.0,
        "velocity": 127
      }
    ],
    "key": "A- major",
    "tempo": 120,
    "name": "036eec23c193d281227d7f2df45f6a57_1.mid_seg12",
    "avg_interval": 12.533333333333333,
    "span": 34,
    "note_density": 0.0,
    "register": "treble",
    "complexity": 0.6666666666666666
  },
  {
    "events": [
      {
        "pitch": 80,
        "duration": 2.0,
        "velocity": 110
      },
      {
        "pitch": 68,
        "duration": 0.5,
        "velocity": 127
      },
      {
        "pitch": 80,
        "duration": 0.5,
        "velocity": 110
      },
      {
        "pitch": 55,
        "duration": 1.0,
        "velocity": 110
      },
      {
        "pitch": 70,
        "duration": 0.5,
        "velocity": 122
      },
      {
        "pitch": 82,
        "duration": 0.5,
        "velocity": 110
      },
      {
        "pitch": 70,
        "duration": 1.0,
        "velocity": 127
      },
      {
        "pitch": 82,
        "duration": 1.0,
        "velocity": 110
      },
      {
        "pitch": 68,
        "duration": 1.5,
        "velocity": 127
      },
      {
        "pitch": 80,
        "duration": 1.5,
        "velocity": 110
      },
      {
        "pitch": 68,
        "duration": 0.5,
        "velocity": 120
      },
      {
        "pitch": 80,
        "duration": 0.5,
        "velocity": 110
      },
      {
        "pitch": 70,
        "duration": 1.0,
        "velocity": 127
      },
      {
        "pitch": 82,
        "duration": 1.0,
        "velocity": 110
      },
      {
        "pitch": 49,
        "duration": 0.5,
        "velocity": 110
      },
      {
        "pitch": 72,
        "duration": 1.5,
        "velocity": 127
      }
    ],
    "key": "A- major",
    "tempo": 120,
    "name": "036eec23c193d281227d7f2df45f6a57_1.mid_seg13",
    "avg_interval": 15.2,
    "span": 33,
    "note_density": 0.0625,
    "register": "treble",
    "complexity": 0.6875
  },
  {
    "events": [
      {
        "pitch": 84,
        "duration": 1.5,
        "velocity": 110
      },
      {
        "pitch": 72,
        "duration": 0.5,
        "velocity": 109
      },
      {
        "pitch": 84,
        "duration": 0.5,
        "velocity": 110
      },
      {
        "pitch": 72,
        "duration": 1.5,
        "velocity": 127
      },
      {
        "pitch": 84,
        "duration": 1.5,
        "velocity": 110
      },
      {
        "pitch": 72,
        "duration": 0.5,
        "velocity": 99
      },
      {
        "pitch": 84,
        "duration": 0.5,
        "velocity": 110
      },
      {
        "pitch": 73,
        "duration": 1.0,
        "velocity": 116
      },
      {
        "pitch": 85,
        "duration": 1.0,
        "velocity": 110
      },
      {
        "pitch": 52,
        "duration": 1.75,
        "velocity": 110
      },
      {
        "pitch": 58,
        "duration": 3.5,
        "velocity": 110
      },
      {
        "pitch": 72,
        "duration": 0.5,
        "velocity": 117
      },
      {
        "pitch": 84,
        "duration": 0.5,
        "velocity": 110
      },
      {
        "pitch": 72,
        "duration": 1.5,
        "velocity": 98
      },
      {
        "pitch": 84,
        "duration": 1.5,
        "velocity": 110
      },
      {
        "pitch": 55,
        "duration": 1.75,
        "velocity": 110
      }
    ],
    "key": "A- major",
    "tempo": 120,
    "name": "036eec23c193d281227d7f2df45f6a57_1.mid_seg14",
    "avg_interval": 14.2,
    "span": 33,
    "note_density": 0.0,
    "register": "treble",
    "complexity": 0.6666666666666666
  },
  {
    "events": [
      {
        "pitch": 70,
        "duration": 1.0,
        "velocity": 118
      },
      {
        "pitch": 82,
        "duration": 1.0,
        "velocity": 110
      },
      {
        "pitch": 68,
        "duration": 3.5,
        "velocity": 122
      },
      {
        "pitch": 80,
        "duration": 3.5,
        "velocity": 110
      },
      {
        "pitch": 53,
        "duration": 2.6666666666666665,
        "velocity": 110
      },
      {
        "pitch": 60,
        "duration": 7.5,
        "velocity": 110
      },
      {
        "pitch": 55,
        "duration": 0.6666666666666666,
        "velocity": 110
      },
      {
        "pitch": 56,
        "duration": 0.6666666666666666,
        "velocity": 110
      },
      {
        "pitch": 51,
        "duration": 3.5,
        "velocity": 110
      },
      {
        "pitch": 68,
        "duration": 0.5,
        "velocity": 121
      },
      {
        "pitch": 80,
        "duration": 0.5,
        "velocity": 110
      },
      {
        "pitch": 68,
        "duration": 0.5,
        "velocity": 127
      },
      {
        "pitch": 80,
        "duration": 0.5,
        "velocity": 110
      },
      {
        "pitch": 79,
        "duration": 1.75,
        "velocity": 110
      },
      {
        "pitch": 79,
        "duration": 1.75,
        "velocity": 95
      },
      {
        "pitch": 70,
        "duration": 0.5,
        "velocity": 121
      }
    ],
    "key": "A- major",
    "tempo": 120,
    "name": "036eec23c193d281227d7f2df45f6a57_1.mid_seg15",
    "avg_interval": 9.733333333333333,
    "span": 31,
    "note_density": 0.0,
    "register": "treble",
    "complexity": 0.6037037037037036
  },
  {
    "events": [
      {
        "pitch": 82,
        "duration": 0.5,
        "velocity": 110
      },
      {
        "pitch": 72,
        "duration": 1.0,
        "velocity": 127
      },
      {
        "pitch": 84,
        "duration": 1.0,
        "velocity": 110
      },
      {
        "pitch": 70,
        "duration": 1.75,
        "velocity": 127
      },
      {
        "pitch": 82,
        "duration": 1.75,
        "velocity": 110
      },
      {
        "pitch": 68,
        "duration": 1.75,
        "velocity": 127
      },
      {
        "pitch": 80,
        "duration": 1.75,
        "velocity": 110
      },
      {
        "pitch": 68,
        "duration": 0.5,
        "velocity": 127
      },
      {
        "pitch": 80,
        "duration": 0.5,
        "velocity": 110
      },
      {
        "pitch": 72,
        "duration": 1.0,
        "velocity": 118
      },
      {
        "pitch": 84,
        "duration": 1.0,
        "velocity": 110
      },
      {
        "pitch": 70,
        "duration": 2.0,
        "velocity": 110
      },
      {
        "pitch": 82,
        "duration": 2.0,
        "velocity": 110
      },
      {
        "pitch": 68,
        "duration": 0.5,
        "velocity": 111
      },
      {
        "pitch": 80,
        "duration": 0.5,
        "velocity": 110
      },
      {
        "pitch": 68,
        "duration": 3.25,
        "velocity": 109
      }
    ],
    "key": "A- major",
    "tempo": 120,
    "name": "036eec23c193d281227d7f2df45f6a57_1.mid_seg16",
    "avg_interval": 12.133333333333333,
    "span": 16,
    "note_density": 0.0,
    "register": "treble",
    "complexity": 0.5555555555555555
  },
  {
    "events": [
      {
        "pitch": 80,
        "duration": 3.5,
        "velocity": 110
      },
      {
        "pitch": 75,
        "duration": 0.5,
        "velocity": 110
      },
      {
        "pitch": 75,
        "duration": 0.5,
        "velocity": 95
      },
      {
        "pitch": 80,
        "duration": 0.5,
        "velocity": 110
      },
      {
        "pitch": 80,
        "duration": 0.5,
        "velocity": 95
      },
      {
        "pitch": 82,
        "duration": 1.0,
        "velocity": 127
      },
      {
        "pitch": 82,
        "duration": 1.0,
        "velocity": 112
      },
      {
        "pitch": 75,
        "duration": 0.5,
        "velocity": 110
      },
      {
        "pitch": 75,
        "duration": 0.5,
        "velocity": 95
      },
      {
        "pitch": 87,
        "duration": 2.5,
        "velocity": 127
      },
      {
        "pitch": 87,
        "duration": 2.5,
        "velocity": 112
      },
      {
        "pitch": 75,
        "duration": 0.5,
        "velocity": 110
      },
      {
        "pitch": 75,
        "duration": 0.5,
        "velocity": 95
      },
      {
        "pitch": 85,
        "duration": 0.5,
        "velocity": 110
      },
      {
        "pitch": 85,
        "duration": 0.5,
        "velocity": 95
      },
      {
        "pitch": 84,
        "duration": 0.5,
        "velocity": 110
      }
    ],
    "key": "A- major",
    "tempo": 120,
    "name": "036eec23c193d281227d7f2df45f6a57_1.mid_seg17",
    "avg_interval": 3.6,
    "span": 12,
    "note_density": 0.0,
    "register": "treble",
    "complexity": 0.26666666666666666
  },
  {
    "events": [
      {
        "pitch": 84,
        "duration": 0.5,
        "velocity": 95
      },
      {
        "pitch": 82,
        "duration": 0.5,
        "velocity": 110
      },
      {
        "pitch": 82,
        "duration": 0.5,
        "velocity": 95
      },
      {
        "pitch": 80,
        "duration": 0.5,
        "velocity": 110
      },
      {
        "pitch": 80,
        "duration": 0.5,
        "velocity": 95
      },
      {
        "pitch": 75,
        "duration": 0.5,
        "velocity": 110
      },
      {
        "pitch": 75,
        "duration": 0.5,
        "velocity": 95
      },
      {
        "pitch": 63,
        "duration": 0.5,
        "velocity": 110
      },
      {
        "pitch": 63,
        "duration": 0.5,
        "velocity": 95
      },
      {
        "pitch": 68,
        "duration": 0.5,
        "velocity": 110
      },
      {
        "pitch": 68,
        "duration": 0.5,
        "velocity": 95
      },
      {
        "pitch": 70,
        "duration": 1.0,
        "velocity": 127
      },
      {
        "pitch": 70,
        "duration": 1.0,
        "velocity": 112
      },
      {
        "pitch": 63,
        "duration": 0.5,
        "velocity": 110
      },
      {
        "pitch": 63,
        "duration": 0.5,
        "velocity": 95
      },
      {
        "pitch": 75,
        "duration": 2.75,
        "velocity": 110
      }
    ],
    "key": "A- major",
    "tempo": 120,
    "name": "036eec23c193d281227d7f2df45f6a57_1.mid_seg18",
    "avg_interval": 3.1333333333333333,
    "span": 21,
    "note_density": 0.296875,
    "register": "treble",
    "complexity": 0.477662037037037
  },
  {
    "events": [
      {
        "pitch": 75,
        "duration": 2.75,
        "velocity": 95
      },
      {
        "pitch": 68,
        "duration": 1.0,
        "velocity": 110
      },
      {
        "pitch": 68,
        "duration": 1.0,
        "velocity": 95
      },
      {
        "pitch": 51,
        "duration": 1.0,
        "velocity": 110
      },
      {
        "pitch": 68,
        "duration": 0.5,
        "velocity": 121
      },
      {
        "pitch": 80,
        "duration": 0.5,
        "velocity": 110
      },
      {
        "pitch": 68,
        "duration": 0.5,
        "velocity": 110
      },
      {
        "pitch": 68,
        "duration": 0.5,
        "velocity": 95
      },
      {
        "pitch": 56,
        "duration": 1.75,
        "velocity": 110
      },
      {
        "pitch": 70,
        "duration": 0.5,
        "velocity": 110
      },
      {
        "pitch": 82,
        "duration": 0.5,
        "velocity": 110
      },
      {
        "pitch": 70,
        "duration": 0.5,
        "velocity": 110
      },
      {
        "pitch": 70,
        "duration": 0.5,
        "velocity": 95
      },
      {
        "pitch": 72,
        "duration": 1.0,
        "velocity": 127
      },
      {
        "pitch": 84,
        "duration": 1.0,
        "velocity": 110
      },
      {
        "pitch": 72,
        "duration": 1.0,
        "velocity": 110
      }
    ],
    "key": "A- major",
    "tempo": 120,
    "name": "036eec23c193d281227d7f2df45f6a57_1.mid_seg19",
    "avg_interval": 9.4,
    "span": 33,
    "note_density": 0.09375,
    "register": "treble",
    "complexity": 0.6256944444444444
  },
  {
    "events": [
      {
        "pitch": 72,
        "duration": 1.0,
        "velocity": 95
      },
      {
        "pitch": 72,
        "duration": 1.0,
        "velocity": 127
      },
      {
        "pitch": 84,
        "duration": 1.0,
        "velocity": 110
      },
      {
        "pitch": 70,
        "duration": 1.5,
        "velocity": 127
      },
      {
        "pitch": 82,
        "duration": 1.5,
        "velocity": 110
      },
      {
        "pitch": 70,
        "duration": 1.5,
        "velocity": 110
      },
      {
        "pitch": 70,
        "duration": 1.5,
        "velocity": 95
      },
      {
        "pitch": 55,
        "duration": 1.75,
        "velocity": 110
      },
      {
        "pitch": 70,
        "duration": 1.0,
        "velocity": 123
      },
      {
        "pitch": 82,
        "duration": 1.0,
        "velocity": 110
      },
      {
        "pitch": 70,
        "duration": 1.0,
        "velocity": 110
      },
      {
        "pitch": 70,
        "duration": 1.0,
        "velocity": 95
      },
      {
        "pitch": 68,
        "duration": 0.5,
        "velocity": 123
      },
      {
        "pitch": 80,
        "duration": 0.5,
        "velocity": 110
      },
      {
        "pitch": 68,
        "duration": 0.5,
        "velocity": 110
      },
      {
        "pitch": 68,
        "duration": 0.5,
        "velocity": 95
      }
    ],
    "key": "A- major",
    "tempo": 120,
    "name": "036eec23c193d281227d7f2df45f6a57_1.mid_seg20",
    "avg_interval": 8.666666666666666,
    "span": 29,
    "note_density": 0.0,
    "register": "treble",
    "complexity": 0.5740740740740741
  },
  {
    "events": [
      {
        "pitch": 68,
        "duration": 1.0,
        "velocity": 127
      },
      {
        "pitch": 80,
        "duration": 1.0,
        "velocity": 110
      },
      {
        "pitch": 63,
        "duration": 0.5,
        "velocity": 121
      },
      {
        "pitch": 75,
        "duration": 0.5,
        "velocity": 110
      },
      {
        "pitch": 63,
        "duration": 0.5,
        "velocity": 110
      },
      {
        "pitch": 63,
        "duration": 0.5,
        "velocity": 95
      },
      {
        "pitch": 68,
        "duration": 0.5,
        "velocity": 127
      },
      {
        "pitch": 80,
        "duration": 0.5,
        "velocity": 110
      },
      {
        "pitch": 68,
        "duration": 0.5,
        "velocity": 110
      },
      {
        "pitch": 68,
        "duration": 0.5,
        "velocity": 95
      },
      {
        "pitch": 53,
        "duration": 1.75,
        "velocity": 110
      },
      {
        "pitch": 70,
        "duration": 0.5,
        "velocity": 121
      },
      {
        "pitch": 82,
        "duration": 0.5,
        "velocity": 110
      },
      {
        "pitch": 70,
        "duration": 0.5,
        "velocity": 110
      },
      {
        "pitch": 70,
        "duration": 0.5,
        "velocity": 95
      },
      {
        "pitch": 72,
        "duration": 1.0,
        "velocity": 127
      }
    ],
    "key": "A- major",
    "tempo": 120,
    "name": "036eec23c193d281227d7f2df45f6a57_1.mid_seg21",
    "avg_interval": 9.333333333333334,
    "span": 29,
    "note_density": 0.328125,
    "register": "treble",
    "complexity": 0.7019675925925926
  },
  {
    "events": [
      {
        "pitch": 84,
        "duration": 1.0,
        "velocity": 110
      },
      {
        "pitch": 72,
        "duration": 1.0,
        "velocity": 110
      },
      {
        "pitch": 72,
        "duration": 1.0,
        "velocity": 95
      },
      {
        "pitch": 72,
        "duration": 1.0,
        "velocity": 127
      },
      {
        "pitch": 84,
        "duration": 1.0,
        "velocity": 110
      },
      {
        "pitch": 70,
        "duration": 1.75,
        "velocity": 122
      },
      {
        "pitch": 82,
        "duration": 1.75,
        "velocity": 110
      },
      {
        "pitch": 70,
        "duration": 1.75,
        "velocity": 110
      },
      {
        "pitch": 70,
        "duration": 1.75,
        "velocity": 95
      },
      {
        "pitch": 51,
        "duration": 1.75,
        "velocity": 110
      },
      {
        "pitch": 68,
        "duration": 0.6666666666666666,
        "velocity": 92
      },
      {
        "pitch": 80,
        "duration": 0.6666666666666666,
        "velocity": 110
      },
      {
        "pitch": 68,
        "duration": 0.6666666666666666,
        "velocity": 110
      },
      {
        "pitch": 68,
        "duration": 0.6666666666666666,
        "velocity": 95
      },
      {
        "pitch": 67,
        "duration": 0.6666666666666666,
        "velocity": 94
      },
      {
        "pitch": 79,
        "duration": 0.6666666666666666,
        "velocity": 110
      }
    ],
    "key": "A- major",
    "tempo": 120,
    "name": "036eec23c193d281227d7f2df45f6a57_1.mid_seg22",
    "avg_interval": 9.0,
    "span": 33,
    "note_density": 0.0,
    "register": "treble",
    "complexity": 0.5833333333333334
  },
  {
    "events": [
      {
        "pitch": 67,
        "duration": 0.6666666666666666,
        "velocity": 110
      },
      {
        "pitch": 67,
        "duration": 0.6666666666666666,
        "velocity": 95
      },
      {
        "pitch": 65,
        "duration": 1.75,
        "velocity": 101
      },
      {
        "pitch": 77,
        "duration": 1.75,
        "velocity": 110
      },
      {
        "pitch": 44,
        "duration": 0.5,
        "velocity": 110
      },
      {
        "pitch": 65,
        "duration": 0.5,
        "velocity": 127
      },
      {
        "pitch": 77,
        "duration": 0.5,
        "velocity": 110
      },
      {
        "pitch": 68,
        "duration": 1.0,
        "velocity": 121
      },
      {
        "pitch": 80,
        "duration": 1.0,
        "velocity": 110
      },
      {
        "pitch": 68,
        "duration": 1.0,
        "velocity": 110
      },
      {
        "pitch": 68,
        "duration": 1.0,
        "velocity": 95
      },
      {
        "pitch": 68,
        "duration": 2.0,
        "velocity": 120
      },
      {
        "pitch": 80,
        "duration": 2.0,
        "velocity": 110
      },
      {
        "pitch": 49,
        "duration": 1.75,
        "velocity": 110
      },
      {
        "pitch": 61,
        "duration": 0.5,
        "velocity": 121
      },
      {
        "pitch": 73,
        "duration": 0.5,
        "velocity": 110
      }
    ],
    "key": "A- major",
    "tempo": 120,
    "name": "036eec23c193d281227d7f2df45f6a57_1.mid_seg23",
    "avg_interval": 12.0,
    "span": 36,
    "note_density": 0.0,
    "register": "treble",
    "complexity": 0.6666666666666666
  },
  {
    "events": [
      {
        "pitch": 61,
        "duration": 0.5,
        "velocity": 110
      },
      {
        "pitch": 61,
        "duration": 0.5,
        "velocity": 95
      },
      {
        "pitch": 63,
        "duration": 1.0,
        "velocity": 127
      },
      {
        "pitch": 75,
        "duration": 1.0,
        "velocity": 110
      },
      {
        "pitch": 63,
        "duration": 0.5,
        "velocity": 123
      },
      {
        "pitch": 75,
        "duration": 0.5,
        "velocity": 110
      },
      {
        "pitch": 63,
        "duration": 0.5,
        "velocity": 110
      },
      {
        "pitch": 63,
        "duration": 0.5,
        "velocity": 95
      },
      {
        "pitch": 68,
        "duration": 0.5,
        "velocity": 127
      },
      {
        "pitch": 80,
        "duration": 0.5,
        "velocity": 110
      },
      {
        "pitch": 68,
        "duration": 0.5,
        "velocity": 110
      },
      {
        "pitch": 68,
        "duration": 0.5,
        "velocity": 95
      },
      {
        "pitch": 56,
        "duration": 1.75,
        "velocity": 110
      },
      {
        "pitch": 70,
        "duration": 0.5,
        "velocity": 123
      },
      {
        "pitch": 82,
        "duration": 0.5,
        "velocity": 110
      },
      {
        "pitch": 70,
        "duration": 0.5,
        "velocity": 110
      }
    ],
    "key": "A- major",
    "tempo": 120,
    "name": "036eec23c193d281227d7f2df45f6a57_1.mid_seg24",
    "avg_interval": 8.6,
    "span": 26,
    "note_density": 0.359375,
    "register": "treble",
    "complexity": 0.6920138888888889
  },
  {
    "events": [
      {
        "pitch": 70,
        "duration": 0.5,
        "velocity": 95
      },
      {
        "pitch": 72,
        "duration": 0.5,
        "velocity": 127
      },
      {
        "pitch": 84,
        "duration": 0.5,
        "velocity": 110
      },
      {
        "pitch": 72,
        "duration": 0.5,
        "velocity": 110
      },
      {
        "pitch": 72,
        "duration": 0.5,
        "velocity": 95
      },
      {
        "pitch": 72,
        "duration": 1.5,
        "velocity": 118
      },
      {
        "pitch": 84,
        "duration": 1.5,
        "velocity": 110
      },
      {
        "pitch": 70,
        "duration": 1.0,
        "velocity": 127
      },
      {
        "pitch": 82,
        "duration": 1.0,
        "velocity": 110
      },
      {
        "pitch": 70,
        "duration": 1.0,
        "velocity": 110
      },
      {
        "pitch": 70,
        "duration": 1.0,
        "velocity": 95
      },
      {
        "pitch": 70,
        "duration": 1.0,
        "velocity": 109
      },
      {
        "pitch": 82,
        "duration": 1.0,
        "velocity": 110
      },
      {
        "pitch": 70,
        "duration": 1.0,
        "velocity": 110
      },
      {
        "pitch": 70,
        "duration": 1.0,
        "velocity": 95
      },
      {
        "pitch": 55,
        "duration": 1.75,
        "velocity": 110
      }
    ],
    "key": "A- major",
    "tempo": 120,
    "name": "036eec23c193d281227d7f2df45f6a57_1.mid_seg25",
    "avg_interval": 7.666666666666667,
    "span": 29,
    "note_density": 0.046875,
    "register": "treble",
    "complexity": 0.5619212962962963
  },
  {
    "events": [
      {
        "pitch": 68,
        "duration": 1.0,
        "velocity": 111
      },
      {
        "pitch": 80,
        "duration": 1.0,
        "velocity": 110
      },
      {
        "pitch": 68,
        "duration": 1.0,
        "velocity": 110
      },
      {
        "pitch": 68,
        "duration": 1.0,
        "velocity": 95
      },
      {
        "pitch": 68,
        "duration": 1.0,
        "velocity": 102
      },
      {
        "pitch": 80,
        "duration": 1.0,
        "velocity": 110
      },
      {
        "pitch": 63,
        "duration": 0.5,
        "velocity": 109
      },
      {
        "pitch": 75,
        "duration": 0.5,
        "velocity": 110
      },
      {
        "pitch": 63,
        "duration": 0.5,
        "velocity": 110
      },
      {
        "pitch": 63,
        "duration": 0.5,
        "velocity": 95
      },
      {
        "pitch": 68,
        "duration": 0.5,
        "velocity": 121
      },
      {
        "pitch": 80,
        "duration": 0.5,
        "velocity": 110
      },
      {
        "pitch": 68,
        "duration": 0.5,
        "velocity": 110
      },
      {
        "pitch": 68,
        "duration": 0.5,
        "velocity": 95
      },
      {
        "pitch": 53,
        "duration": 1.75,
        "velocity": 110
      },
      {
        "pitch": 70,
        "duration": 0.5,
        "velocity": 115
      }
    ],
    "key": "A- major",
    "tempo": 120,
    "name": "036eec23c193d281227d7f2df45f6a57_1.mid_seg26",
    "avg_interval": 9.2,
    "span": 27,
    "note_density": 0.234375,
    "register": "treble",
    "complexity": 0.6670138888888889
  },
  {
    "events": [
      {
        "pitch": 82,
        "duration": 0.5,
        "velocity": 110
      },
      {
        "pitch": 70,
        "duration": 0.5,
        "velocity": 110
      },
      {
        "pitch": 70,
        "duration": 0.5,
        "velocity": 95
      },
      {
        "pitch": 72,
        "duration": 1.0,
        "velocity": 127
      },
      {
        "pitch": 84,
        "duration": 1.0,
        "velocity": 110
      },
      {
        "pitch": 72,
        "duration": 1.0,
        "velocity": 110
      },
      {
        "pitch": 72,
        "duration": 1.0,
        "velocity": 95
      },
      {
        "pitch": 75,
        "duration": 1.0,
        "velocity": 127
      },
      {
        "pitch": 87,
        "duration": 1.0,
        "velocity": 110
      },
      {
        "pitch": 72,
        "duration": 1.0,
        "velocity": 127
      },
      {
        "pitch": 84,
        "duration": 1.0,
        "velocity": 110
      },
      {
        "pitch": 72,
        "duration": 1.0,
        "velocity": 110
      },
      {
        "pitch": 72,
        "duration": 1.0,
        "velocity": 95
      },
      {
        "pitch": 68,
        "duration": 1.0,
        "velocity": 127
      },
      {
        "pitch": 80,
        "duration": 1.0,
        "velocity": 110
      },
      {
        "pitch": 51,
        "duration": 1.75,
        "velocity": 110
      }
    ],
    "key": "A- major",
    "tempo": 120,
    "name": "036eec23c193d281227d7f2df45f6a57_1.mid_seg27",
    "avg_interval": 9.133333333333333,
    "span": 36,
    "note_density": 0.046875,
    "register": "treble",
    "complexity": 0.602662037037037
  },
  {
    "events": [
      {
        "pitch": 67,
        "duration": 1.0,
        "velocity": 127
      },
      {
        "pitch": 79,
        "duration": 1.0,
        "velocity": 110
      },
      {
        "pitch": 67,
        "duration": 1.0,
        "velocity": 110
      },
      {
        "pitch": 67,
        "duration": 1.0,
        "velocity": 95
      },
      {
        "pitch": 65,
        "duration": 1.75,
        "velocity": 127
      },
      {
        "pitch": 77,
        "duration": 1.75,
        "velocity": 110
      },
      {
        "pitch": 44,
        "duration": 0.5,
        "velocity": 110
      },
      {
        "pitch": 65,
        "duration": 0.5,
        "velocity": 126
      },
      {
        "pitch": 77,
        "duration": 0.5,
        "velocity": 110
      },
      {
        "pitch": 68,
        "duration": 1.5,
        "velocity": 122
      },
      {
        "pitch": 80,
        "duration": 1.5,
        "velocity": 110
      },
      {
        "pitch": 68,
        "duration": 1.5,
        "velocity": 110
      },
      {
        "pitch": 68,
        "duration": 1.5,
        "velocity": 95
      },
      {
        "pitch": 68,
        "duration": 1.5,
        "velocity": 107
      },
      {
        "pitch": 80,
        "duration": 1.5,
        "velocity": 110
      },
      {
        "pitch": 49,
        "duration": 1.75,
        "velocity": 110
      }
    ],
    "key": "A- major",
    "tempo": 120,
    "name": "036eec23c193d281227d7f2df45f6a57_1.mid_seg28",
    "avg_interval": 12.0,
    "span": 36,
    "note_density": 0.0,
    "register": "treble",
    "complexity": 0.6666666666666666
  },
  {
    "events": [
      {
        "pitch": 61,
        "duration": 0.5,
        "velocity": 88
      },
      {
        "pitch": 73,
        "duration": 0.5,
        "velocity": 110
      },
      {
        "pitch": 61,
        "duration": 0.5,
        "velocity": 110
      },
      {
        "pitch": 61,
        "duration": 0.5,
        "velocity": 95
      },
      {
        "pitch": 63,
        "duration": 1.75,
        "velocity": 103
      },
      {
        "pitch": 75,
        "duration": 1.75,
        "velocity": 110
      },
      {
        "pitch": 51,
        "duration": 0.5,
        "velocity": 110
      },
      {
        "pitch": 56,
        "duration": 1.0,
        "velocity": 110
      },
      {
        "pitch": 68,
        "duration": 0.5,
        "velocity": 122
      },
      {
        "pitch": 80,
        "duration": 0.5,
        "velocity": 110
      },
      {
        "pitch": 68,
        "duration": 0.5,
        "velocity": 110
      },
      {
        "pitch": 68,
        "duration": 0.5,
        "velocity": 95
      },
      {
        "pitch": 68,
        "duration": 1.0,
        "velocity": 127
      },
      {
        "pitch": 80,
        "duration": 1.0,
        "velocity": 110
      },
      {
        "pitch": 68,
        "duration": 1.0,
        "velocity": 110
      },
      {
        "pitch": 68,
        "duration": 1.0,
        "velocity": 95
      }
    ],
    "key": "A- major",
    "tempo": 120,
    "name": "036eec23c193d281227d7f2df45f6a57_1.mid_seg29",
    "avg_interval": 8.466666666666667,
    "span": 29,
    "note_density": 0.1875,
    "register": "middle",
    "complexity": 0.6310185185185185
  },
  {
    "events": [
      {
        "pitch": 44,
        "duration": 0.5,
        "velocity": 110
      },
      {
        "pitch": 46,
        "duration": 0.5,
        "velocity": 110
      },
      {
        "pitch": 75,
        "duration": 1.5,
        "velocity": 127
      },
      {
        "pitch": 87,
        "duration": 1.5,
        "velocity": 110
      },
      {
        "pitch": 68,
        "duration": 0.5,
        "velocity": 123
      },
      {
        "pitch": 80,
        "duration": 0.5,
        "velocity": 110
      },
      {
        "pitch": 68,
        "duration": 0.5,
        "velocity": 110
      },
      {
        "pitch": 68,
        "duration": 0.5,
        "velocity": 95
      },
      {
        "pitch": 68,
        "duration": 1.0,
        "velocity": 118
      },
      {
        "pitch": 80,
        "duration": 1.0,
        "velocity": 110
      },
      {
        "pitch": 56,
        "duration": 1.75,
        "velocity": 110
      },
      {
        "pitch": 67,
        "duration": 0.5,
        "velocity": 116
      },
      {
        "pitch": 79,
        "duration": 0.5,
        "velocity": 110
      },
      {
        "pitch": 67,
        "duration": 0.5,
        "velocity": 110
      },
      {
        "pitch": 67,
        "duration": 0.5,
        "velocity": 95
      },
      {
        "pitch": 68,
        "duration": 2.25,
        "velocity": 103
      }
    ],
    "key": "A- major",
    "tempo": 120,
    "name": "036eec23c193d281227d7f2df45f6a57_1.mid_seg30",
    "avg_interval": 10.533333333333333,
    "span": 43,
    "note_density": 0.125,
    "register": "treble",
    "complexity": 0.6675925925925926
  },
  {
    "events": [
      {
        "pitch": 80,
        "duration": 2.25,
        "velocity": 110
      },
      {
        "pitch": 61,
        "duration": 0.5,
        "velocity": 110
      },
      {
        "pitch": 61,
        "duration": 0.5,
        "velocity": 95
      },
      {
        "pitch": 58,
        "duration": 1.75,
        "velocity": 110
      },
      {
        "pitch": 67,
        "duration": 0.5,
        "velocity": 111
      },
      {
        "pitch": 79,
        "duration": 0.5,
        "velocity": 110
      },
      {
        "pitch": 67,
        "duration": 0.5,
        "velocity": 110
      },
      {
        "pitch": 67,
        "duration": 0.5,
        "velocity": 95
      },
      {
        "pitch": 68,
        "duration": 1.0,
        "velocity": 120
      },
      {
        "pitch": 80,
        "duration": 1.0,
        "velocity": 110
      },
      {
        "pitch": 68,
        "duration": 1.0,
        "velocity": 110
      },
      {
        "pitch": 68,
        "duration": 1.0,
        "velocity": 95
      },
      {
        "pitch": 75,
        "duration": 1.0,
        "velocity": 127
      },
      {
        "pitch": 87,
        "duration": 1.0,
        "velocity": 110
      },
      {
        "pitch": 68,
        "duration": 1.0,
        "velocity": 127
      },
      {
        "pitch": 80,
        "duration": 1.0,
        "velocity": 110
      }
    ],
    "key": "A- major",
    "tempo": 120,
    "name": "036eec23c193d281227d7f2df45f6a57_1.mid_seg31",
    "avg_interval": 8.666666666666666,
    "span": 29,
    "note_density": 0.0625,
    "register": "treble",
    "complexity": 0.5949074074074074
  },
  {
    "events": [
      {
        "pitch": 68,
        "duration": 1.0,
        "velocity": 110
      },
      {
        "pitch": 68,
        "duration": 1.0,
        "velocity": 95
      },
      {
        "pitch": 68,
        "duration": 1.0,
        "velocity": 127
      },
      {
        "pitch": 80,
        "duration": 1.0,
        "velocity": 110
      },
      {
        "pitch": 68,
        "duration": 1.0,
        "velocity": 110
      },
      {
        "pitch": 68,
        "duration": 1.0,
        "velocity": 95
      },
      {
        "pitch": 60,
        "duration": 1.75,
        "velocity": 110
      },
      {
        "pitch": 67,
        "duration": 1.0,
        "velocity": 127
      },
      {
        "pitch": 79,
        "duration": 1.0,
        "velocity": 110
      },
      {
        "pitch": 67,
        "duration": 1.0,
        "velocity": 110
      },
      {
        "pitch": 67,
        "duration": 1.0,
        "velocity": 95
      },
      {
        "pitch": 68,
        "duration": 1.75,
        "velocity": 127
      },
      {
        "pitch": 80,
        "duration": 1.75,
        "velocity": 110
      },
      {
        "pitch": 68,
        "duration": 1.75,
        "velocity": 110
      },
      {
        "pitch": 68,
        "duration": 1.75,
        "velocity": 95
      },
      {
        "pitch": 58,
        "duration": 1.75,
        "velocity": 110
      }
    ],
    "key": "A- major",
    "tempo": 120,
    "name": "036eec23c193d281227d7f2df45f6a57_1.mid_seg32",
    "avg_interval": 6.533333333333333,
    "span": 22,
    "note_density": 0.0,
    "register": "treble",
    "complexity": 0.487037037037037
  },
  {
    "events": [
      {
        "pitch": 70,
        "duration": 0.5,
        "velocity": 122
      },
      {
        "pitch": 82,
        "duration": 0.5,
        "velocity": 110
      },
      {
        "pitch": 70,
        "duration": 0.5,
        "velocity": 110
      },
      {
        "pitch": 70,
        "duration": 0.5,
        "velocity": 95
      },
      {
        "pitch": 72,
        "duration": 1.0,
        "velocity": 127
      },
      {
        "pitch": 84,
        "duration": 1.0,
        "velocity": 110
      },
      {
        "pitch": 72,
        "duration": 1.0,
        "velocity": 122
      },
      {
        "pitch": 84,
        "duration": 1.0,
        "velocity": 110
      },
      {
        "pitch": 72,
        "duration": 1.0,
        "velocity": 110
      },
      {
        "pitch": 72,
        "duration": 1.0,
        "velocity": 95
      },
      {
        "pitch": 72,
        "duration": 1.5,
        "velocity": 127
      },
      {
        "pitch": 84,
        "duration": 1.5,
        "velocity": 110
      },
      {
        "pitch": 72,
        "duration": 1.5,
        "velocity": 110
      },
      {
        "pitch": 72,
        "duration": 1.5,
        "velocity": 95
      },
      {
        "pitch": 60,
        "duration": 1.75,
        "velocity": 110
      },
      {
        "pitch": 72,
        "duration": 0.5,
        "velocity": 98
      }
    ],
    "key": "A- major",
    "tempo": 120,
    "name": "036eec23c193d281227d7f2df45f6a57_1.mid_seg33",
    "avg_interval": 8.133333333333333,
    "span": 24,
    "note_density": 0.0,
    "register": "treble",
    "complexity": 0.5592592592592592
  },
  {
    "events": [
      {
        "pitch": 84,
        "duration": 0.5,
        "velocity": 110
      },
      {
        "pitch": 72,
        "duration": 0.5,
        "velocity": 110
      },
      {
        "pitch": 72,
        "duration": 0.5,
        "velocity": 95
      },
      {
        "pitch": 73,
        "duration": 1.0,
        "velocity": 114
      },
      {
        "pitch": 85,
        "duration": 1.0,
        "velocity": 110
      },
      {
        "pitch": 72,
        "duration": 0.5,
        "velocity": 117
      },
      {
        "pitch": 84,
        "duration": 0.5,
        "velocity": 110
      },
      {
        "pitch": 72,
        "duration": 0.5,
        "velocity": 110
      },
      {
        "pitch": 72,
        "duration": 0.5,
        "velocity": 95
      },
      {
        "pitch": 72,
        "duration": 1.5,
        "velocity": 98
      },
      {
        "pitch": 84,
        "duration": 1.5,
        "velocity": 110
      },
      {
        "pitch": 72,
        "duration": 1.5,
        "velocity": 110
      },
      {
        "pitch": 72,
        "duration": 1.5,
        "velocity": 95
      },
      {
        "pitch": 61,
        "duration": 1.75,
        "velocity": 110
      },
      {
        "pitch": 70,
        "duration": 1.0,
        "velocity": 118
      },
      {
        "pitch": 82,
        "duration": 1.0,
        "velocity": 110
      }
    ],
    "key": "A- major",
    "tempo": 120,
    "name": "036eec23c193d281227d7f2df45f6a57_1.mid_seg34",
    "avg_interval": 7.866666666666666,
    "span": 24,
    "note_density": 0.046875,
    "register": "treble",
    "complexity": 0.5674768518518518
  },
  {
    "events": [
      {
        "pitch": 70,
        "duration": 1.0,
        "velocity": 110
      },
      {
        "pitch": 70,
        "duration": 1.0,
        "velocity": 95
      },
      {
        "pitch": 68,
        "duration": 3.5,
        "velocity": 123
      },
      {
        "pitch": 80,
        "duration": 3.5,
        "velocity": 110
      },
      {
        "pitch": 48,
        "duration": 1.0,
        "velocity": 110
      },
      {
        "pitch": 41,
        "duration": 1.0,
        "velocity": 110
      },
      {
        "pitch": 68,
        "duration": 0.5,
        "velocity": 121
      },
      {
        "pitch": 80,
        "duration": 0.5,
        "velocity": 110
      },
      {
        "pitch": 68,
        "duration": 0.5,
        "velocity": 110
      },
      {
        "pitch": 68,
        "duration": 0.5,
        "velocity": 95
      },
      {
        "pitch": 68,
        "duration": 0.5,
        "velocity": 127
      },
      {
        "pitch": 80,
        "duration": 0.5,
        "velocity": 110
      },
      {
        "pitch": 68,
        "duration": 0.5,
        "velocity": 110
      },
      {
        "pitch": 68,
        "duration": 0.5,
        "velocity": 95
      },
      {
        "pitch": 70,
        "duration": 0.5,
        "velocity": 121
      },
      {
        "pitch": 82,
        "duration": 0.5,
        "velocity": 110
      }
    ],
    "key": "A- major",
    "tempo": 120,
    "name": "036eec23c193d281227d7f2df45f6a57_1.mid_seg35",
    "avg_interval": 9.466666666666667,
    "span": 41,
    "note_density": 0.0,
    "register": "treble",
    "complexity": 0.5962962962962962
  },
  {
    "events": [
      {
        "pitch": 70,
        "duration": 0.5,
        "velocity": 110
      },
      {
        "pitch": 70,
        "duration": 0.5,
        "velocity": 95
      },
      {
        "pitch": 72,
        "duration": 1.0,
        "velocity": 127
      },
      {
        "pitch": 84,
        "duration": 1.0,
        "velocity": 110
      },
      {
        "pitch": 72,
        "duration": 1.0,
        "velocity": 110
      },
      {
        "pitch": 72,
        "duration": 1.0,
        "velocity": 95
      },
      {
        "pitch": 70,
        "duration": 1.75,
        "velocity": 127
      },
      {
        "pitch": 82,
        "duration": 1.75,
        "velocity": 110
      },
      {
        "pitch": 68,
        "duration": 1.0,
        "velocity": 123
      },
      {
        "pitch": 80,
        "duration": 1.0,
        "velocity": 110
      },
      {
        "pitch": 44,
        "duration": 1.0,
        "velocity": 110
      },
      {
        "pitch": 68,
        "duration": 0.5,
        "velocity": 114
      },
      {
        "pitch": 80,
        "duration": 0.5,
        "velocity": 110
      },
      {
        "pitch": 49,
        "duration": 3.5,
        "velocity": 110
      },
      {
        "pitch": 72,
        "duration": 1.5,
        "velocity": 107
      },
      {
        "pitch": 84,
        "duration": 1.5,
        "velocity": 110
      }
    ],
    "key": "A- major",
    "tempo": 120,
    "name": "036eec23c193d281227d7f2df45f6a57_1.mid_seg36",
    "avg_interval": 13.6,
    "span": 40,
    "note_density": 0.0,
    "register": "treble",
    "complexity": 0.6666666666666666
  },
  {
    "events": [
      {
        "pitch": 72,
        "duration": 1.5,
        "velocity": 110
      },
      {
        "pitch": 72,
        "duration": 1.5,
        "velocity": 95
      },
      {
        "pitch": 70,
        "duration": 1.5,
        "velocity": 115
      },
      {
        "pitch": 82,
        "duration": 1.5,
        "velocity": 110
      },
      {
        "pitch": 68,
        "duration": 0.5,
        "velocity": 117
      },
      {
        "pitch": 80,
        "duration": 0.5,
        "velocity": 110
      },
      {
        "pitch": 68,
        "duration": 0.5,
        "velocity": 110
      },
      {
        "pitch": 68,
        "duration": 0.5,
        "velocity": 95
      },
      {
        "pitch": 68,
        "duration": 3.5,
        "velocity": 119
      },
      {
        "pitch": 80,
        "duration": 3.5,
        "velocity": 110
      },
      {
        "pitch": 44,
        "duration": 7.5,
        "velocity": 110
      },
      {
        "pitch": 63,
        "duration": 0.5,
        "velocity": 110
      },
      {
        "pitch": 63,
        "duration": 0.5,
        "velocity": 95
      },
      {
        "pitch": 72,
        "duration": 0.5,
        "velocity": 110
      },
      {
        "pitch": 72,
        "duration": 0.5,
        "velocity": 95
      },
      {
        "pitch": 63,
        "duration": 1.0,
        "velocity": 110
      }
    ],
    "key": "A- major",
    "tempo": 120,
    "name": "036eec23c193d281227d7f2df45f6a57_1.mid_seg37",
    "avg_interval": 9.133333333333333,
    "span": 38,
    "note_density": 0.0,
    "register": "treble",
    "complexity": 0.587037037037037
  },
  {
    "events": [
      {
        "pitch": 63,
        "duration": 1.0,
        "velocity": 95
      },
      {
        "pitch": 63,
        "duration": 1.0,
        "velocity": 110
      },
      {
        "pitch": 63,
        "duration": 1.0,
        "velocity": 95
      },
      {
        "pitch": 44,
        "duration": 0.5,
        "velocity": 110
      },
      {
        "pitch": 70,
        "duration": 1.0,
        "velocity": 127
      },
      {
        "pitch": 82,
        "duration": 1.0,
        "velocity": 110
      },
      {
        "pitch": 37,
        "duration": 1.75,
        "velocity": 110
      },
      {
        "pitch": 72,
        "duration": 0.5,
        "velocity": 127
      },
      {
        "pitch": 84,
        "duration": 0.5,
        "velocity": 110
      },
      {
        "pitch": 72,
        "duration": 0.5,
        "velocity": 110
      },
      {
        "pitch": 72,
        "duration": 0.5,
        "velocity": 95
      },
      {
        "pitch": 68,
        "duration": 2.25,
        "velocity": 113
      },
      {
        "pitch": 80,
        "duration": 2.25,
        "velocity": 110
      },
      {
        "pitch": 49,
        "duration": 1.5,
        "velocity": 110
      },
      {
        "pitch": 44,
        "duration": 0.5,
        "velocity": 110
      },
      {
        "pitch": 70,
        "duration": 1.0,
        "velocity": 119
      }
    ],
    "key": "A- major",
    "tempo": 120,
    "name": "036eec23c193d281227d7f2df45f6a57_1.mid_seg38",
    "avg_interval": 15.933333333333334,
    "span": 47,
    "note_density": 0.0,
    "register": "middle",
    "complexity": 0.6666666666666666
  },
  {
    "events": [
      {
        "pitch": 82,
        "duration": 1.0,
        "velocity": 110
      },
      {
        "pitch": 37,
        "duration": 1.75,
        "velocity": 110
      },
      {
        "pitch": 72,
        "duration": 0.5,
        "velocity": 108
      },
      {
        "pitch": 84,
        "duration": 0.5,
        "velocity": 110
      },
      {
        "pitch": 72,
        "duration": 0.5,
        "velocity": 110
      },
      {
        "pitch": 72,
        "duration": 0.5,
        "velocity": 95
      },
      {
        "pitch": 68,
        "duration": 1.5,
        "velocity": 99
      },
      {
        "pitch": 80,
        "duration": 1.5,
        "velocity": 110
      },
      {
        "pitch": 49,
        "duration": 1.5,
        "velocity": 110
      },
      {
        "pitch": 65,
        "duration": 1.0,
        "velocity": 115
      },
      {
        "pitch": 77,
        "duration": 1.0,
        "velocity": 110
      },
      {
        "pitch": 65,
        "duration": 1.0,
        "velocity": 110
      },
      {
        "pitch": 65,
        "duration": 1.0,
        "velocity": 95
      },
      {
        "pitch": 39,
        "duration": 0.5,
        "velocity": 110
      },
      {
        "pitch": 63,
        "duration": 1.0,
        "velocity": 122
      },
      {
        "pitch": 75,
        "duration": 1.0,
        "velocity": 110
      }
    ],
    "key": "A- major",
    "tempo": 120,
    "name": "036eec23c193d281227d7f2df45f6a57_1.mid_seg39",
    "avg_interval": 16.866666666666667,
    "span": 47,
    "note_density": 0.015625,
    "register": "middle",
    "complexity": 0.671875
  },
  {
    "events": [
      {
        "pitch": 41,
        "duration": 1.75,
        "velocity": 110
      },
      {
        "pitch": 72,
        "duration": 1.0,
        "velocity": 127
      },
      {
        "pitch": 84,
        "duration": 1.0,
        "velocity": 110
      },
      {
        "pitch": 72,
        "duration": 1.0,
        "velocity": 110
      },
      {
        "pitch": 72,
        "duration": 1.0,
        "velocity": 95
      },
      {
        "pitch": 72,
        "duration": 3.6666666666666665,
        "velocity": 127
      },
      {
        "pitch": 84,
        "duration": 3.6666666666666665,
        "velocity": 110
      },
      {
        "pitch": 53,
        "duration": 1.5,
        "velocity": 110
      },
      {
        "pitch": 48,
        "duration": 0.5,
        "velocity": 110
      },
      {
        "pitch": 41,
        "duration": 1.75,
        "velocity": 110
      },
      {
        "pitch": 53,
        "duration": 1.3333333333333333,
        "velocity": 110
      },
      {
        "pitch": 65,
        "duration": 0.6666666666666666,
        "velocity": 118
      },
      {
        "pitch": 77,
        "duration": 0.6666666666666666,
        "velocity": 110
      },
      {
        "pitch": 65,
        "duration": 0.6666666666666666,
        "velocity": 110
      },
      {
        "pitch": 65,
        "duration": 0.6666666666666666,
        "velocity": 95
      },
      {
        "pitch": 68,
        "duration": 0.6666666666666666,
        "velocity": 126
      }
    ],
    "key": "A- major",
    "tempo": 120,
    "name": "036eec23c193d281227d7f2df45f6a57_1.mid_seg40",
    "avg_interval": 10.733333333333333,
    "span": 43,
    "note_density": 0.0,
    "register": "middle",
    "complexity": 0.6314814814814814
  },
  {
    "events": [
      {
        "pitch": 80,
        "duration": 0.6666666666666666,
        "velocity": 110
      },
      {
        "pitch": 68,
        "duration": 0.6666666666666666,
        "velocity": 110
      },
      {
        "pitch": 68,
        "duration": 0.6666666666666666,
        "velocity": 95
      },
      {
        "pitch": 39,
        "duration": 0.6666666666666666,
        "velocity": 110
      },
      {
        "pitch": 70,
        "duration": 1.0,
        "velocity": 127
      },
      {
        "pitch": 82,
        "duration": 1.0,
        "velocity": 110
      },
      {
        "pitch": 37,
        "duration": 1.75,
        "velocity": 110
      },
      {
        "pitch": 72,
        "duration": 0.5,
        "velocity": 127
      },
      {
        "pitch": 84,
        "duration": 0.5,
        "velocity": 110
      },
      {
        "pitch": 72,
        "duration": 0.5,
        "velocity": 110
      },
      {
        "pitch": 72,
        "duration": 0.5,
        "velocity": 95
      },
      {
        "pitch": 68,
        "duration": 1.5,
        "velocity": 117
      },
      {
        "pitch": 80,
        "duration": 1.5,
        "velocity": 110
      },
      {
        "pitch": 49,
        "duration": 1.5,
        "velocity": 110
      },
      {
        "pitch": 65,
        "duration": 0.5,
        "velocity": 109
      },
      {
        "pitch": 77,
        "duration": 0.5,
        "velocity": 110
      }
    ],
    "key": "A- major",
    "tempo": 120,
    "name": "036eec23c193d281227d7f2df45f6a57_1.mid_seg41",
    "avg_interval": 17.533333333333335,
    "span": 47,
    "note_density": 0.13020833333333337,
    "register": "treble",
    "complexity": 0.7100694444444445
  },
  {
    "events": [
      {
        "pitch": 65,
        "duration": 0.5,
        "velocity": 110
      },
      {
        "pitch": 65,
        "duration": 0.5,
        "velocity": 95
      },
      {
        "pitch": 68,
        "duration": 0.5,
        "velocity": 100
      },
      {
        "pitch": 80,
        "duration": 0.5,
        "velocity": 110
      },
      {
        "pitch": 68,
        "duration": 0.5,
        "velocity": 110
      },
      {
        "pitch": 68,
        "duration": 0.5,
        "velocity": 95
      },
      {
        "pitch": 44,
        "duration": 0.5,
        "velocity": 110
      },
      {
        "pitch": 70,
        "duration": 1.0,
        "velocity": 117
      },
      {
        "pitch": 82,
        "duration": 1.0,
        "velocity": 110
      },
      {
        "pitch": 37,
        "duration": 1.75,
        "velocity": 110
      },
      {
        "pitch": 72,
        "duration": 0.5,
        "velocity": 110
      },
      {
        "pitch": 84,
        "duration": 0.5,
        "velocity": 110
      },
      {
        "pitch": 72,
        "duration": 0.5,
        "velocity": 110
      },
      {
        "pitch": 72,
        "duration": 0.5,
        "velocity": 95
      },
      {
        "pitch": 68,
        "duration": 1.5,
        "velocity": 103
      },
      {
        "pitch": 80,
        "duration": 1.5,
        "velocity": 110
      }
    ],
    "key": "A- major",
    "tempo": 120,
    "name": "036eec23c193d281227d7f2df45f6a57_1.mid_seg42",
    "avg_interval": 13.933333333333334,
    "span": 47,
    "note_density": 0.234375,
    "register": "treble",
    "complexity": 0.7447916666666666
  },
  {
    "events": [
      {
        "pitch": 49,
        "duration": 1.5,
        "velocity": 110
      },
      {
        "pitch": 61,
        "duration": 1.0,
        "velocity": 111
      },
      {
        "pitch": 73,
        "duration": 1.0,
        "velocity": 110
      },
      {
        "pitch": 61,
        "duration": 1.0,
        "velocity": 110
      },
      {
        "pitch": 61,
        "duration": 1.0,
        "velocity": 95
      },
      {
        "pitch": 39,
        "duration": 0.5,
        "velocity": 110
      },
      {
        "pitch": 63,
        "duration": 5.5,
        "velocity": 119
      },
      {
        "pitch": 75,
        "duration": 5.5,
        "velocity": 110
      },
      {
        "pitch": 44,
        "duration": 1.75,
        "velocity": 110
      },
      {
        "pitch": 56,
        "duration": 1.5,
        "velocity": 110
      },
      {
        "pitch": 51,
        "duration": 0.5,
        "velocity": 110
      },
      {
        "pitch": 44,
        "duration": 1.75,
        "velocity": 110
      },
      {
        "pitch": 73,
        "duration": 0.5,
        "velocity": 110
      },
      {
        "pitch": 73,
        "duration": 0.5,
        "velocity": 95
      },
      {
        "pitch": 75,
        "duration": 1.75,
        "velocity": 127
      },
      {
        "pitch": 87,
        "duration": 1.75,
        "velocity": 110
      }
    ],
    "key": "A- major",
    "tempo": 120,
    "name": "036eec23c193d281227d7f2df45f6a57_1.mid_seg43",
    "avg_interval": 12.8,
    "span": 48,
    "note_density": 0.0,
    "register": "middle",
    "complexity": 0.6666666666666666
  },
  {
    "events": [
      {
        "pitch": 68,
        "duration": 1.0,
        "velocity": 124
      },
      {
        "pitch": 80,
        "duration": 1.0,
        "velocity": 110
      },
      {
        "pitch": 53,
        "duration": 1.5,
        "velocity": 110
      },
      {
        "pitch": 67,
        "duration": 1.0,
        "velocity": 113
      },
      {
        "pitch": 79,
        "duration": 1.0,
        "velocity": 110
      },
      {
        "pitch": 67,
        "duration": 1.0,
        "velocity": 110
      },
      {
        "pitch": 67,
        "duration": 1.0,
        "velocity": 95
      },
      {
        "pitch": 68,
        "duration": 1.0,
        "velocity": 111
      },
      {
        "pitch": 80,
        "duration": 1.0,
        "velocity": 110
      },
      {
        "pitch": 65,
        "duration": 1.5,
        "velocity": 110
      },
      {
        "pitch": 77,
        "duration": 1.5,
        "velocity": 110
      },
      {
        "pitch": 49,
        "duration": 1.75,
        "velocity": 110
      },
      {
        "pitch": 68,
        "duration": 0.5,
        "velocity": 107
      },
      {
        "pitch": 80,
        "duration": 0.5,
        "velocity": 110
      },
      {
        "pitch": 68,
        "duration": 0.5,
        "velocity": 110
      },
      {
        "pitch": 68,
        "duration": 0.5,
        "velocity": 95
      }
    ],
    "key": "A- major",
    "tempo": 120,
    "name": "036eec23c193d281227d7f2df45f6a57_1.mid_seg44",
    "avg_interval": 12.533333333333333,
    "span": 31,
    "note_density": 0.0,
    "register": "treble",
    "complexity": 0.6666666666666666
  },
  {
    "events": [
      {
        "pitch": 70,
        "duration": 1.5,
        "velocity": 127
      },
      {
        "pitch": 82,
        "duration": 1.5,
        "velocity": 110
      },
      {
        "pitch": 72,
        "duration": 4.0,
        "velocity": 120
      },
      {
        "pitch": 84,
        "duration": 4.0,
        "velocity": 110
      },
      {
        "pitch": 53,
        "duration": 1.5,
        "velocity": 110
      },
      {
        "pitch": 48,
        "duration": 0.5,
        "velocity": 110
      },
      {
        "pitch": 53,
        "duration": 1.75,
        "velocity": 110
      },
      {
        "pitch": 70,
        "duration": 0.6666666666666666,
        "velocity": 123
      },
      {
        "pitch": 82,
        "duration": 0.6666666666666666,
        "velocity": 110
      },
      {
        "pitch": 70,
        "duration": 0.6666666666666666,
        "velocity": 110
      },
      {
        "pitch": 70,
        "duration": 0.6666666666666666,
        "velocity": 95
      },
      {
        "pitch": 72,
        "duration": 0.6666666666666666,
        "velocity": 127
      },
      {
        "pitch": 84,
        "duration": 0.6666666666666666,
        "velocity": 110
      },
      {
        "pitch": 72,
        "duration": 0.6666666666666666,
        "velocity": 110
      },
      {
        "pitch": 72,
        "duration": 0.6666666666666666,
        "velocity": 95
      },
      {
        "pitch": 73,
        "duration": 1.0,
        "velocity": 127
      }
    ],
    "key": "A- major",
    "tempo": 120,
    "name": "036eec23c193d281227d7f2df45f6a57_1.mid_seg45",
    "avg_interval": 9.533333333333333,
    "span": 36,
    "note_density": 0.0,
    "register": "treble",
    "complexity": 0.5981481481481481
  },
  {
    "events": [
      {
        "pitch": 85,
        "duration": 1.0,
        "velocity": 110
      },
      {
        "pitch": 42,
        "duration": 1.5,
        "velocity": 110
      },
      {
        "pitch": 73,
        "duration": 0.5,
        "velocity": 127
      },
      {
        "pitch": 85,
        "duration": 0.5,
        "velocity": 110
      },
      {
        "pitch": 73,
        "duration": 0.5,
        "velocity": 110
      },
      {
        "pitch": 73,
        "duration": 0.5,
        "velocity": 95
      },
      {
        "pitch": 73,
        "duration": 1.5,
        "velocity": 122
      },
      {
        "pitch": 85,
        "duration": 1.5,
        "velocity": 110
      },
      {
        "pitch": 49,
        "duration": 0.5,
        "velocity": 110
      },
      {
        "pitch": 58,
        "duration": 1.75,
        "velocity": 110
      },
      {
        "pitch": 73,
        "duration": 0.5,
        "velocity": 118
      },
      {
        "pitch": 85,
        "duration": 0.5,
        "velocity": 110
      },
      {
        "pitch": 73,
        "duration": 0.5,
        "velocity": 110
      },
      {
        "pitch": 73,
        "duration": 0.5,
        "velocity": 95
      },
      {
        "pitch": 73,
        "duration": 1.0,
        "velocity": 115
      },
      {
        "pitch": 85,
        "duration": 1.0,
        "velocity": 110
      }
    ],
    "key": "A- major",
    "tempo": 120,
    "name": "036eec23c193d281227d7f2df45f6a57_1.mid_seg46",
    "avg_interval": 13.733333333333333,
    "span": 43,
    "note_density": 0.140625,
    "register": "treble",
    "complexity": 0.7135416666666666
  },
  {
    "events": [
      {
        "pitch": 72,
        "duration": 1.0,
        "velocity": 107
      },
      {
        "pitch": 84,
        "duration": 1.0,
        "velocity": 110
      },
      {
        "pitch": 72,
        "duration": 1.0,
        "velocity": 110
      },
      {
        "pitch": 72,
        "duration": 1.0,
        "velocity": 95
      },
      {
        "pitch": 70,
        "duration": 1.0,
        "velocity": 110
      },
      {
        "pitch": 82,
        "duration": 1.0,
        "velocity": 110
      },
      {
        "pitch": 53,
        "duration": 1.0,
        "velocity": 110
      },
      {
        "pitch": 68,
        "duration": 1.0,
        "velocity": 109
      },
      {
        "pitch": 80,
        "duration": 1.0,
        "velocity": 110
      },
      {
        "pitch": 68,
        "duration": 1.0,
        "velocity": 110
      },
      {
        "pitch": 68,
        "duration": 1.0,
        "velocity": 95
      },
      {
        "pitch": 70,
        "duration": 5.5,
        "velocity": 120
      },
      {
        "pitch": 82,
        "duration": 5.5,
        "velocity": 110
      },
      {
        "pitch": 51,
        "duration": 1.5,
        "velocity": 110
      },
      {
        "pitch": 56,
        "duration": 1.0,
        "velocity": 110
      },
      {
        "pitch": 56,
        "duration": 1.0,
        "velocity": 95
      }
    ],
    "key": "A- major",
    "tempo": 120,
    "name": "036eec23c193d281227d7f2df45f6a57_1.mid_seg47",
    "avg_interval": 10.4,
    "span": 33,
    "note_density": 0.0,
    "register": "treble",
    "complexity": 0.6222222222222222
  },
  {
    "events": [
      {
        "pitch": 46,
        "duration": 0.5,
        "velocity": 110
      },
      {
        "pitch": 70,
        "duration": 0.5,
        "velocity": 127
      },
      {
        "pitch": 82,
        "duration": 0.5,
        "velocity": 110
      },
      {
        "pitch": 70,
        "duration": 0.5,
        "velocity": 110
      },
      {
        "pitch": 70,
        "duration": 0.5,
        "velocity": 95
      },
      {
        "pitch": 58,
        "duration": 1.75,
        "velocity": 110
      },
      {
        "pitch": 72,
        "duration": 0.5,
        "velocity": 122
      },
      {
        "pitch": 84,
        "duration": 0.5,
        "velocity": 110
      },
      {
        "pitch": 72,
        "duration": 0.5,
        "velocity": 110
      },
      {
        "pitch": 72,
        "duration": 0.5,
        "velocity": 95
      },
      {
        "pitch": 74,
        "duration": 1.0,
        "velocity": 127
      },
      {
        "pitch": 86,
        "duration": 1.0,
        "velocity": 110
      },
      {
        "pitch": 74,
        "duration": 1.0,
        "velocity": 110
      },
      {
        "pitch": 74,
        "duration": 1.0,
        "velocity": 95
      },
      {
        "pitch": 74,
        "duration": 1.0,
        "velocity": 127
      },
      {
        "pitch": 86,
        "duration": 1.0,
        "velocity": 110
      }
    ],
    "key": "A- major",
    "tempo": 120,
    "name": "036eec23c193d281227d7f2df45f6a57_1.mid_seg48",
    "avg_interval": 9.066666666666666,
    "span": 40,
    "note_density": 0.234375,
    "register": "treble",
    "complexity": 0.6633101851851851
  },
  {
    "events": [
      {
        "pitch": 72,
        "duration": 1.5,
        "velocity": 126
      },
      {
        "pitch": 84,
        "duration": 1.5,
        "velocity": 110
      },
      {
        "pitch": 72,
        "duration": 1.5,
        "velocity": 110
      },
      {
        "pitch": 72,
        "duration": 1.5,
        "velocity": 95
      },
      {
        "pitch": 57,
        "duration": 1.75,
        "velocity": 110
      },
      {
        "pitch": 72,
        "duration": 1.0,
        "velocity": 98
      },
      {
        "pitch": 84,
        "duration": 1.0,
        "velocity": 110
      },
      {
        "pitch": 72,
        "duration": 1.0,
        "velocity": 110
      },
      {
        "pitch": 72,
        "duration": 1.0,
        "velocity": 95
      },
      {
        "pitch": 70,
        "duration": 0.5,
        "velocity": 109
      },
      {
        "pitch": 82,
        "duration": 0.5,
        "velocity": 110
      },
      {
        "pitch": 70,
        "duration": 0.5,
        "velocity": 110
      },
      {
        "pitch": 70,
        "duration": 0.5,
        "velocity": 95
      },
      {
        "pitch": 70,
        "duration": 1.0,
        "velocity": 110
      },
      {
        "pitch": 82,
        "duration": 1.0,
        "velocity": 110
      },
      {
        "pitch": 65,
        "duration": 0.5,
        "velocity": 110
      }
    ],
    "key": "A- major",
    "tempo": 120,
    "name": "036eec23c193d281227d7f2df45f6a57_1.mid_seg49",
    "avg_interval": 8.866666666666667,
    "span": 27,
    "note_density": 0.0,
    "register": "treble",
    "complexity": 0.5796296296296296
  },
  {
    "events": [
      {
        "pitch": 77,
        "duration": 0.5,
        "velocity": 110
      },
      {
        "pitch": 65,
        "duration": 0.5,
        "velocity": 110
      },
      {
        "pitch": 65,
        "duration": 0.5,
        "velocity": 95
      },
      {
        "pitch": 70,
        "duration": 0.5,
        "velocity": 124
      },
      {
        "pitch": 82,
        "duration": 0.5,
        "velocity": 110
      },
      {
        "pitch": 70,
        "duration": 0.5,
        "velocity": 110
      },
      {
        "pitch": 70,
        "duration": 0.5,
        "velocity": 95
      },
      {
        "pitch": 55,
        "duration": 1.75,
        "velocity": 110
      },
      {
        "pitch": 72,
        "duration": 0.5,
        "velocity": 114
      },
      {
        "pitch": 84,
        "duration": 0.5,
        "velocity": 110
      },
      {
        "pitch": 72,
        "duration": 0.5,
        "velocity": 110
      },
      {
        "pitch": 72,
        "duration": 0.5,
        "velocity": 95
      },
      {
        "pitch": 74,
        "duration": 1.0,
        "velocity": 127
      },
      {
        "pitch": 86,
        "duration": 1.0,
        "velocity": 110
      },
      {
        "pitch": 74,
        "duration": 1.0,
        "velocity": 110
      },
      {
        "pitch": 74,
        "duration": 1.0,
        "velocity": 95
      }
    ],
    "key": "A- major",
    "tempo": 120,
    "name": "036eec23c193d281227d7f2df45f6a57_1.mid_seg50",
    "avg_interval": 8.2,
    "span": 31,
    "note_density": 0.296875,
    "register": "treble",
    "complexity": 0.6600694444444444
  },
  {
    "events": [
      {
        "pitch": 74,
        "duration": 1.0,
        "velocity": 127
      },
      {
        "pitch": 86,
        "duration": 1.0,
        "velocity": 110
      },
      {
        "pitch": 72,
        "duration": 1.0,
        "velocity": 127
      },
      {
        "pitch": 84,
        "duration": 1.0,
        "velocity": 110
      },
      {
        "pitch": 72,
        "duration": 1.0,
        "velocity": 110
      },
      {
        "pitch": 72,
        "duration": 1.0,
        "velocity": 95
      },
      {
        "pitch": 70,
        "duration": 1.0,
        "velocity": 127
      },
      {
        "pitch": 82,
        "duration": 1.0,
        "velocity": 110
      },
      {
        "pitch": 53,
        "duration": 1.75,
        "velocity": 110
      },
      {
        "pitch": 69,
        "duration": 1.0,
        "velocity": 127
      },
      {
        "pitch": 81,
        "duration": 1.0,
        "velocity": 110
      },
      {
        "pitch": 69,
        "duration": 1.0,
        "velocity": 110
      },
      {
        "pitch": 69,
        "duration": 1.0,
        "velocity": 95
      },
      {
        "pitch": 67,
        "duration": 1.75,
        "velocity": 127
      },
      {
        "pitch": 79,
        "duration": 1.75,
        "velocity": 110
      },
      {
        "pitch": 46,
        "duration": 0.5,
        "velocity": 110
      }
    ],
    "key": "A- major",
    "tempo": 120,
    "name": "036eec23c193d281227d7f2df45f6a57_1.mid_seg51",
    "avg_interval": 12.0,
    "span": 40,
    "note_density": 0.0,
    "register": "treble",
    "complexity": 0.6666666666666666
  },
  {
    "events": [
      {
        "pitch": 67,
        "duration": 0.5,
        "velocity": 121
      },
      {
        "pitch": 79,
        "duration": 0.5,
        "velocity": 110
      },
      {
        "pitch": 70,
        "duration": 1.0,
        "velocity": 123
      },
      {
        "pitch": 82,
        "duration": 1.0,
        "velocity": 110
      },
      {
        "pitch": 70,
        "duration": 1.0,
        "velocity": 110
      },
      {
        "pitch": 70,
        "duration": 1.0,
        "velocity": 95
      },
      {
        "pitch": 70,
        "duration": 1.5,
        "velocity": 103
      },
      {
        "pitch": 82,
        "duration": 1.5,
        "velocity": 110
      },
      {
        "pitch": 51,
        "duration": 1.75,
        "velocity": 110
      },
      {
        "pitch": 63,
        "duration": 1.0,
        "velocity": 103
      },
      {
        "pitch": 75,
        "duration": 1.0,
        "velocity": 110
      },
      {
        "pitch": 63,
        "duration": 1.0,
        "velocity": 110
      },
      {
        "pitch": 63,
        "duration": 1.0,
        "velocity": 95
      },
      {
        "pitch": 65,
        "duration": 1.0,
        "velocity": 123
      },
      {
        "pitch": 77,
        "duration": 1.0,
        "velocity": 110
      },
      {
        "pitch": 65,
        "duration": 0.5,
        "velocity": 105
      }
    ],
    "key": "A- major",
    "tempo": 120,
    "name": "036eec23c193d281227d7f2df45f6a57_1.mid_seg52",
    "avg_interval": 10.0,
    "span": 31,
    "note_density": 0.0,
    "register": "treble",
    "complexity": 0.6111111111111112
  },
  {
    "events": [
      {
        "pitch": 77,
        "duration": 0.5,
        "velocity": 110
      },
      {
        "pitch": 65,
        "duration": 0.5,
        "velocity": 110
      },
      {
        "pitch": 65,
        "duration": 0.5,
        "velocity": 95
      },
      {
        "pitch": 70,
        "duration": 0.5,
        "velocity": 122
      },
      {
        "pitch": 82,
        "duration": 0.5,
        "velocity": 110
      },
      {
        "pitch": 70,
        "duration": 0.5,
        "velocity": 110
      },
      {
        "pitch": 70,
        "duration": 0.5,
        "velocity": 95
      },
      {
        "pitch": 58,
        "duration": 1.75,
        "velocity": 110
      },
      {
        "pitch": 72,
        "duration": 0.5,
        "velocity": 115
      },
      {
        "pitch": 84,
        "duration": 0.5,
        "velocity": 110
      },
      {
        "pitch": 72,
        "duration": 0.5,
        "velocity": 110
      },
      {
        "pitch": 72,
        "duration": 0.5,
        "velocity": 95
      },
      {
        "pitch": 74,
        "duration": 0.5,
        "velocity": 127
      },
      {
        "pitch": 86,
        "duration": 0.5,
        "velocity": 110
      },
      {
        "pitch": 74,
        "duration": 0.5,
        "velocity": 110
      },
      {
        "pitch": 74,
        "duration": 0.5,
        "velocity": 95
      }
    ],
    "key": "A- major",
    "tempo": 120,
    "name": "036eec23c193d281227d7f2df45f6a57_1.mid_seg53",
    "avg_interval": 7.8,
    "span": 28,
    "note_density": 0.421875,
    "register": "treble",
    "complexity": 0.6906249999999999
  },
  {
    "events": [
      {
        "pitch": 74,
        "duration": 1.5,
        "velocity": 116
      },
      {
        "pitch": 86,
        "duration": 1.5,
        "velocity": 110
      },
      {
        "pitch": 72,
        "duration": 1.5,
        "velocity": 127
      },
      {
        "pitch": 84,
        "duration": 1.5,
        "velocity": 110
      },
      {
        "pitch": 72,
        "duration": 1.5,
        "velocity": 110
      },
      {
        "pitch": 72,
        "duration": 1.5,
        "velocity": 95
      },
      {
        "pitch": 57,
        "duration": 1.75,
        "velocity": 110
      },
      {
        "pitch": 72,
        "duration": 1.0,
        "velocity": 123
      },
      {
        "pitch": 84,
        "duration": 1.0,
        "velocity": 110
      },
      {
        "pitch": 72,
        "duration": 1.0,
        "velocity": 110
      },
      {
        "pitch": 72,
        "duration": 1.0,
        "velocity": 95
      },
      {
        "pitch": 70,
        "duration": 0.5,
        "velocity": 123
      },
      {
        "pitch": 82,
        "duration": 0.5,
        "velocity": 110
      },
      {
        "pitch": 70,
        "duration": 0.5,
        "velocity": 110
      },
      {
        "pitch": 70,
        "duration": 0.5,
        "velocity": 95
      },
      {
        "pitch": 70,
        "duration": 1.0,
        "velocity": 127
      }
    ],
    "key": "A- major",
    "tempo": 120,
    "name": "036eec23c193d281227d7f2df45f6a57_1.mid_seg54",
    "avg_interval": 8.666666666666666,
    "span": 29,
    "note_density": 0.0,
    "register": "treble",
    "complexity": 0.5740740740740741
  },
  {
    "events": [
      {
        "pitch": 82,
        "duration": 1.0,
        "velocity": 110
      },
      {
        "pitch": 65,
        "duration": 0.5,
        "velocity": 122
      },
      {
        "pitch": 77,
        "duration": 0.5,
        "velocity": 110
      },
      {
        "pitch": 65,
        "duration": 0.5,
        "velocity": 110
      },
      {
        "pitch": 65,
        "duration": 0.5,
        "velocity": 95
      },
      {
        "pitch": 70,
        "duration": 0.5,
        "velocity": 127
      },
      {
        "pitch": 82,
        "duration": 0.5,
        "velocity": 110
      },
      {
        "pitch": 70,
        "duration": 0.5,
        "velocity": 110
      },
      {
        "pitch": 70,
        "duration": 0.5,
        "velocity": 95
      },
      {
        "pitch": 55,
        "duration": 1.75,
        "velocity": 110
      },
      {
        "pitch": 72,
        "duration": 0.5,
        "velocity": 122
      },
      {
        "pitch": 84,
        "duration": 0.5,
        "velocity": 110
      },
      {
        "pitch": 72,
        "duration": 0.5,
        "velocity": 110
      },
      {
        "pitch": 72,
        "duration": 0.5,
        "velocity": 95
      },
      {
        "pitch": 74,
        "duration": 1.0,
        "velocity": 127
      },
      {
        "pitch": 86,
        "duration": 1.0,
        "velocity": 110
      }
    ],
    "key": "A- major",
    "tempo": 120,
    "name": "036eec23c193d281227d7f2df45f6a57_1.mid_seg55",
    "avg_interval": 9.333333333333334,
    "span": 31,
    "note_density": 0.328125,
    "register": "treble",
    "complexity": 0.7019675925925926
  },
  {
    "events": [
      {
        "pitch": 74,
        "duration": 1.0,
        "velocity": 110
      },
      {
        "pitch": 74,
        "duration": 1.0,
        "velocity": 95
      },
      {
        "pitch": 74,
        "duration": 1.0,
        "velocity": 127
      },
      {
        "pitch": 86,
        "duration": 1.0,
        "velocity": 110
      },
      {
        "pitch": 72,
        "duration": 1.0,
        "velocity": 121
      },
      {
        "pitch": 84,
        "duration": 1.0,
        "velocity": 110
      },
      {
        "pitch": 72,
        "duration": 1.0,
        "velocity": 110
      },
      {
        "pitch": 72,
        "duration": 1.0,
        "velocity": 95
      },
      {
        "pitch": 70,
        "duration": 1.0,
        "velocity": 112
      },
      {
        "pitch": 82,
        "duration": 1.0,
        "velocity": 110
      },
      {
        "pitch": 53,
        "duration": 1.75,
        "velocity": 110
      },
      {
        "pitch": 69,
        "duration": 1.0,
        "velocity": 102
      },
      {
        "pitch": 81,
        "duration": 1.0,
        "velocity": 110
      },
      {
        "pitch": 69,
        "duration": 1.0,
        "velocity": 110
      },
      {
        "pitch": 69,
        "duration": 1.0,
        "velocity": 95
      },
      {
        "pitch": 67,
        "duration": 1.75,
        "velocity": 107
      }
    ],
    "key": "A- major",
    "tempo": 120,
    "name": "036eec23c193d281227d7f2df45f6a57_1.mid_seg56",
    "avg_interval": 9.0,
    "span": 33,
    "note_density": 0.0,
    "register": "treble",
    "complexity": 0.5833333333333334
  },
  {
    "events": [
      {
        "pitch": 79,
        "duration": 1.75,
        "velocity": 110
      },
      {
        "pitch": 46,
        "duration": 0.5,
        "velocity": 110
      },
      {
        "pitch": 67,
        "duration": 0.5,
        "velocity": 127
      },
      {
        "pitch": 79,
        "duration": 0.5,
        "velocity": 110
      },
      {
        "pitch": 70,
        "duration": 1.0,
        "velocity": 121
      },
      {
        "pitch": 82,
        "duration": 1.0,
        "velocity": 110
      },
      {
        "pitch": 70,
        "duration": 1.0,
        "velocity": 110
      },
      {
        "pitch": 70,
        "duration": 1.0,
        "velocity": 95
      },
      {
        "pitch": 70,
        "duration": 1.5,
        "velocity": 121
      },
      {
        "pitch": 82,
        "duration": 1.5,
        "velocity": 110
      },
      {
        "pitch": 70,
        "duration": 1.5,
        "velocity": 110
      },
      {
        "pitch": 70,
        "duration": 1.5,
        "velocity": 95
      },
      {
        "pitch": 51,
        "duration": 1.75,
        "velocity": 110
      },
      {
        "pitch": 63,
        "duration": 1.0,
        "velocity": 127
      },
      {
        "pitch": 75,
        "duration": 1.0,
        "velocity": 110
      },
      {
        "pitch": 63,
        "duration": 1.0,
        "velocity": 110
      }
    ],
    "key": "A- major",
    "tempo": 120,
    "name": "036eec23c193d281227d7f2df45f6a57_1.mid_seg57",
    "avg_interval": 11.866666666666667,
    "span": 36,
    "note_density": 0.0,
    "register": "treble",
    "complexity": 0.662962962962963
  },
  {
    "events": [
      {
        "pitch": 63,
        "duration": 1.0,
        "velocity": 95
      },
      {
        "pitch": 65,
        "duration": 1.75,
        "velocity": 127
      },
      {
        "pitch": 77,
        "duration": 1.75,
        "velocity": 110
      },
      {
        "pitch": 58,
        "duration": 1.75,
        "velocity": 110
      },
      {
        "pitch": 77,
        "duration": 0.5,
        "velocity": 110
      },
      {
        "pitch": 77,
        "duration": 0.5,
        "velocity": 95
      },
      {
        "pitch": 72,
        "duration": 1.0,
        "velocity": 110
      },
      {
        "pitch": 72,
        "duration": 1.0,
        "velocity": 95
      },
      {
        "pitch": 46,
        "duration": 1.75,
        "velocity": 110
      },
      {
        "pitch": 58,
        "duration": 1.0,
        "velocity": 110
      },
      {
        "pitch": 69,
        "duration": 0.5,
        "velocity": 108
      },
      {
        "pitch": 81,
        "duration": 0.5,
        "velocity": 110
      },
      {
        "pitch": 69,
        "duration": 0.5,
        "velocity": 110
      },
      {
        "pitch": 69,
        "duration": 0.5,
        "velocity": 95
      },
      {
        "pitch": 70,
        "duration": 1.0,
        "velocity": 120
      },
      {
        "pitch": 82,
        "duration": 1.0,
        "velocity": 110
      }
    ],
    "key": "A- major",
    "tempo": 120,
    "name": "036eec23c193d281227d7f2df45f6a57_1.mid_seg58",
    "avg_interval": 9.533333333333333,
    "span": 36,
    "note_density": 0.0,
    "register": "treble",
    "complexity": 0.5981481481481481
  },
  {
    "events": [
      {
        "pitch": 70,
        "duration": 1.0,
        "velocity": 110
      },
      {
        "pitch": 70,
        "duration": 1.0,
        "velocity": 95
      },
      {
        "pitch": 46,
        "duration": 0.5,
        "velocity": 110
      },
      {
        "pitch": 48,
        "duration": 0.5,
        "velocity": 110
      },
      {
        "pitch": 77,
        "duration": 1.0,
        "velocity": 127
      },
      {
        "pitch": 89,
        "duration": 1.0,
        "velocity": 110
      },
      {
        "pitch": 70,
        "duration": 0.5,
        "velocity": 127
      },
      {
        "pitch": 82,
        "duration": 0.5,
        "velocity": 110
      },
      {
        "pitch": 70,
        "duration": 0.5,
        "velocity": 110
      },
      {
        "pitch": 70,
        "duration": 0.5,
        "velocity": 95
      },
      {
        "pitch": 70,
        "duration": 1.5,
        "velocity": 123
      },
      {
        "pitch": 82,
        "duration": 1.5,
        "velocity": 110
      },
      {
        "pitch": 58,
        "duration": 1.75,
        "velocity": 110
      },
      {
        "pitch": 69,
        "duration": 0.5,
        "velocity": 127
      },
      {
        "pitch": 81,
        "duration": 0.5,
        "velocity": 110
      },
      {
        "pitch": 69,
        "duration": 0.5,
        "velocity": 110
      }
    ],
    "key": "A- major",
    "tempo": 120,
    "name": "036eec23c193d281227d7f2df45f6a57_1.mid_seg59",
    "avg_interval": 12.066666666666666,
    "span": 43,
    "note_density": 0.171875,
    "register": "treble",
    "complexity": 0.7239583333333334
  },
  {
    "events": [
      {
        "pitch": 69,
        "duration": 0.5,
        "velocity": 95
      },
      {
        "pitch": 70,
        "duration": 2.25,
        "velocity": 123
      },
      {
        "pitch": 82,
        "duration": 2.25,
        "velocity": 110
      },
      {
        "pitch": 63,
        "duration": 0.5,
        "velocity": 110
      },
      {
        "pitch": 63,
        "duration": 0.5,
        "velocity": 95
      },
      {
        "pitch": 60,
        "duration": 1.75,
        "velocity": 110
      },
      {
        "pitch": 69,
        "duration": 0.5,
        "velocity": 121
      },
      {
        "pitch": 81,
        "duration": 0.5,
        "velocity": 110
      },
      {
        "pitch": 69,
        "duration": 0.5,
        "velocity": 110
      },
      {
        "pitch": 69,
        "duration": 0.5,
        "velocity": 95
      },
      {
        "pitch": 70,
        "duration": 1.0,
        "velocity": 127
      },
      {
        "pitch": 82,
        "duration": 1.0,
        "velocity": 110
      },
      {
        "pitch": 70,
        "duration": 1.0,
        "velocity": 110
      },
      {
        "pitch": 70,
        "duration": 1.0,
        "velocity": 95
      },
      {
        "pitch": 77,
        "duration": 1.5,
        "velocity": 127
      },
      {
        "pitch": 89,
        "duration": 1.5,
        "velocity": 110
      }
    ],
    "key": "A- major",
    "tempo": 120,
    "name": "036eec23c193d281227d7f2df45f6a57_1.mid_seg60",
    "avg_interval": 7.466666666666667,
    "span": 29,
    "note_density": 0.0,
    "register": "treble",
    "complexity": 0.5407407407407407
  },
  {
    "events": [
      {
        "pitch": 70,
        "duration": 0.5,
        "velocity": 121
      },
      {
        "pitch": 82,
        "duration": 0.5,
        "velocity": 110
      },
      {
        "pitch": 70,
        "duration": 0.5,
        "velocity": 110
      },
      {
        "pitch": 70,
        "duration": 0.5,
        "velocity": 95
      },
      {
        "pitch": 70,
        "duration": 1.0,
        "velocity": 114
      },
      {
        "pitch": 82,
        "duration": 1.0,
        "velocity": 110
      },
      {
        "pitch": 70,
        "duration": 1.0,
        "velocity": 110
      },
      {
        "pitch": 70,
        "duration": 1.0,
        "velocity": 95
      },
      {
        "pitch": 62,
        "duration": 1.75,
        "velocity": 110
      },
      {
        "pitch": 72,
        "duration": 1.0,
        "velocity": 117
      },
      {
        "pitch": 84,
        "duration": 1.0,
        "velocity": 110
      },
      {
        "pitch": 72,
        "duration": 1.0,
        "velocity": 110
      },
      {
        "pitch": 72,
        "duration": 1.0,
        "velocity": 95
      },
      {
        "pitch": 72,
        "duration": 0.5,
        "velocity": 103
      },
      {
        "pitch": 84,
        "duration": 0.5,
        "velocity": 110
      },
      {
        "pitch": 70,
        "duration": 1.5,
        "velocity": 93
      }
    ],
    "key": "A- major",
    "tempo": 120,
    "name": "036eec23c193d281227d7f2df45f6a57_1.mid_seg61",
    "avg_interval": 7.733333333333333,
    "span": 22,
    "note_density": 0.109375,
    "register": "treble",
    "complexity": 0.5568287037037037
  },
  {
    "events": [
      {
        "pitch": 82,
        "duration": 1.5,
        "velocity": 110
      },
      {
        "pitch": 70,
        "duration": 1.5,
        "velocity": 110
      },
      {
        "pitch": 70,
        "duration": 1.5,
        "velocity": 95
      },
      {
        "pitch": 60,
        "duration": 1.75,
        "velocity": 110
      },
      {
        "pitch": 70,
        "duration": 0.6666666666666666,
        "velocity": 108
      },
      {
        "pitch": 82,
        "duration": 0.6666666666666666,
        "velocity": 110
      },
      {
        "pitch": 70,
        "duration": 0.6666666666666666,
        "velocity": 110
      },
      {
        "pitch": 70,
        "duration": 0.6666666666666666,
        "velocity": 95
      },
      {
        "pitch": 72,
        "duration": 0.6666666666666666,
        "velocity": 120
      },
      {
        "pitch": 84,
        "duration": 0.6666666666666666,
        "velocity": 110
      },
      {
        "pitch": 72,
        "duration": 0.6666666666666666,
        "velocity": 110
      },
      {
        "pitch": 72,
        "duration": 0.6666666666666666,
        "velocity": 95
      },
      {
        "pitch": 74,
        "duration": 1.0,
        "velocity": 127
      },
      {
        "pitch": 86,
        "duration": 1.0,
        "velocity": 110
      },
      {
        "pitch": 74,
        "duration": 1.0,
        "velocity": 123
      },
      {
        "pitch": 86,
        "duration": 1.0,
        "velocity": 110
      }
    ],
    "key": "A- major",
    "tempo": 120,
    "name": "036eec23c193d281227d7f2df45f6a57_1.mid_seg62",
    "avg_interval": 8.0,
    "span": 26,
    "note_density": 0.02604166666666685,
    "register": "treble",
    "complexity": 0.5642361111111112
  },
  {
    "events": [
      {
        "pitch": 74,
        "duration": 1.0,
        "velocity": 110
      },
      {
        "pitch": 74,
        "duration": 1.0,
        "velocity": 95
      },
      {
        "pitch": 74,
        "duration": 1.5,
        "velocity": 127
      },
      {
        "pitch": 86,
        "duration": 1.5,
        "velocity": 110
      },
      {
        "pitch": 62,
        "duration": 1.75,
        "velocity": 110
      },
      {
        "pitch": 74,
        "duration": 0.5,
        "velocity": 120
      },
      {
        "pitch": 86,
        "duration": 0.5,
        "velocity": 110
      },
      {
        "pitch": 74,
        "duration": 0.5,
        "velocity": 110
      },
      {
        "pitch": 74,
        "duration": 0.5,
        "velocity": 95
      },
      {
        "pitch": 75,
        "duration": 1.0,
        "velocity": 127
      },
      {
        "pitch": 87,
        "duration": 1.0,
        "velocity": 110
      },
      {
        "pitch": 74,
        "duration": 1.0,
        "velocity": 127
      },
      {
        "pitch": 86,
        "duration": 1.0,
        "velocity": 110
      },
      {
        "pitch": 74,
        "duration": 1.0,
        "velocity": 110
      },
      {
        "pitch": 74,
        "duration": 1.0,
        "velocity": 95
      },
      {
        "pitch": 74,
        "duration": 1.0,
        "velocity": 127
      }
    ],
    "key": "A- major",
    "tempo": 120,
    "name": "036eec23c193d281227d7f2df45f6a57_1.mid_seg63",
    "avg_interval": 8.133333333333333,
    "span": 25,
    "note_density": 0.015625,
    "register": "treble",
    "complexity": 0.5644675925925925
  },
  {
    "events": [
      {
        "pitch": 86,
        "duration": 1.0,
        "velocity": 110
      },
      {
        "pitch": 63,
        "duration": 1.75,
        "velocity": 110
      },
      {
        "pitch": 72,
        "duration": 1.0,
        "velocity": 127
      },
      {
        "pitch": 84,
        "duration": 1.0,
        "velocity": 110
      },
      {
        "pitch": 72,
        "duration": 1.0,
        "velocity": 110
      },
      {
        "pitch": 72,
        "duration": 1.0,
        "velocity": 95
      },
      {
        "pitch": 70,
        "duration": 3.5,
        "velocity": 127
      },
      {
        "pitch": 82,
        "duration": 3.5,
        "velocity": 110
      },
      {
        "pitch": 50,
        "duration": 1.0,
        "velocity": 110
      },
      {
        "pitch": 43,
        "duration": 1.0,
        "velocity": 110
      },
      {
        "pitch": 70,
        "duration": 0.5,
        "velocity": 127
      },
      {
        "pitch": 82,
        "duration": 0.5,
        "velocity": 110
      },
      {
        "pitch": 70,
        "duration": 0.5,
        "velocity": 110
      },
      {
        "pitch": 70,
        "duration": 0.5,
        "velocity": 95
      },
      {
        "pitch": 53,
        "duration": 1.75,
        "velocity": 110
      },
      {
        "pitch": 72,
        "duration": 0.5,
        "velocity": 123
      }
    ],
    "key": "A- major",
    "tempo": 120,
    "name": "036eec23c193d281227d7f2df45f6a57_1.mid_seg64",
    "avg_interval": 13.066666666666666,
    "span": 43,
    "note_density": 0.0,
    "register": "treble",
    "complexity": 0.6666666666666666
  },
  {
    "events": [
      {
        "pitch": 84,
        "duration": 0.5,
        "velocity": 110
      },
      {
        "pitch": 72,
        "duration": 0.5,
        "velocity": 110
      },
      {
        "pitch": 72,
        "duration": 0.5,
        "velocity": 95
      },
      {
        "pitch": 74,
        "duration": 1.0,
        "velocity": 127
      },
      {
        "pitch": 86,
        "duration": 1.0,
        "velocity": 110
      },
      {
        "pitch": 74,
        "duration": 1.0,
        "velocity": 110
      },
      {
        "pitch": 74,
        "duration": 1.0,
        "velocity": 95
      },
      {
        "pitch": 72,
        "duration": 1.75,
        "velocity": 127
      },
      {
        "pitch": 84,
        "duration": 1.75,
        "velocity": 110
      },
      {
        "pitch": 70,
        "duration": 1.0,
        "velocity": 124
      },
      {
        "pitch": 82,
        "duration": 1.0,
        "velocity": 110
      },
      {
        "pitch": 70,
        "duration": 0.5,
        "velocity": 117
      },
      {
        "pitch": 82,
        "duration": 0.5,
        "velocity": 110
      },
      {
        "pitch": 51,
        "duration": 3.5,
        "velocity": 110
      },
      {
        "pitch": 74,
        "duration": 1.5,
        "velocity": 111
      },
      {
        "pitch": 86,
        "duration": 1.5,
        "velocity": 110
      }
    ],
    "key": "A- major",
    "tempo": 120,
    "name": "036eec23c193d281227d7f2df45f6a57_1.mid_seg65",
    "avg_interval": 11.2,
    "span": 35,
    "note_density": 0.0,
    "register": "treble",
    "complexity": 0.6444444444444444
  },
  {
    "events": [
      {
        "pitch": 74,
        "duration": 1.5,
        "velocity": 110
      },
      {
        "pitch": 74,
        "duration": 1.5,
        "velocity": 95
      },
      {
        "pitch": 72,
        "duration": 1.5,
        "velocity": 113
      },
      {
        "pitch": 84,
        "duration": 1.5,
        "velocity": 110
      },
      {
        "pitch": 70,
        "duration": 0.5,
        "velocity": 107
      },
      {
        "pitch": 82,
        "duration": 0.5,
        "velocity": 110
      },
      {
        "pitch": 70,
        "duration": 0.5,
        "velocity": 110
      },
      {
        "pitch": 70,
        "duration": 0.5,
        "velocity": 95
      },
      {
        "pitch": 70,
        "duration": 3.5,
        "velocity": 108
      },
      {
        "pitch": 82,
        "duration": 3.5,
        "velocity": 110
      },
      {
        "pitch": 46,
        "duration": 3.5,
        "velocity": 110
      },
      {
        "pitch": 70,
        "duration": 0.5,
        "velocity": 110
      },
      {
        "pitch": 70,
        "duration": 0.5,
        "velocity": 95
      },
      {
        "pitch": 72,
        "duration": 0.5,
        "velocity": 110
      },
      {
        "pitch": 72,
        "duration": 0.5,
        "velocity": 95
      },
      {
        "pitch": 74,
        "duration": 1.0,
        "velocity": 110
      }
    ],
    "key": "A- major",
    "tempo": 120,
    "name": "036eec23c193d281227d7f2df45f6a57_1.mid_seg66",
    "avg_interval": 8.533333333333333,
    "span": 38,
    "note_density": 0.0,
    "register": "treble",
    "complexity": 0.5703703703703704
  },
  {
    "events": [
      {
        "pitch": 74,
        "duration": 1.0,
        "velocity": 95
      },
      {
        "pitch": 45,
        "duration": 1.75,
        "velocity": 110
      },
      {
        "pitch": 72,
        "duration": 2.0,
        "velocity": 110
      },
      {
        "pitch": 72,
        "duration": 2.0,
        "velocity": 95
      },
      {
        "pitch": 57,
        "duration": 1.75,
        "velocity": 110
      },
      {
        "pitch": 70,
        "duration": 0.5,
        "velocity": 110
      },
      {
        "pitch": 70,
        "duration": 0.5,
        "velocity": 95
      },
      {
        "pitch": 69,
        "duration": 0.5,
        "velocity": 110
      },
      {
        "pitch": 69,
        "duration": 0.5,
        "velocity": 95
      },
      {
        "pitch": 43,
        "duration": 1.75,
        "velocity": 110
      },
      {
        "pitch": 70,
        "duration": 0.5,
        "velocity": 110
      },
      {
        "pitch": 70,
        "duration": 0.5,
        "velocity": 95
      },
      {
        "pitch": 55,
        "duration": 1.75,
        "velocity": 110
      },
      {
        "pitch": 72,
        "duration": 0.5,
        "velocity": 110
      },
      {
        "pitch": 72,
        "duration": 0.5,
        "velocity": 95
      },
      {
        "pitch": 74,
        "duration": 1.0,
        "velocity": 110
      }
    ],
    "key": "A- major",
    "tempo": 120,
    "name": "036eec23c193d281227d7f2df45f6a57_1.mid_seg67",
    "avg_interval": 11.466666666666667,
    "span": 31,
    "note_density": 0.0,
    "register": "middle",
    "complexity": 0.6518518518518519
  },
  {
    "events": [
      {
        "pitch": 74,
        "duration": 1.0,
        "velocity": 95
      },
      {
        "pitch": 41,
        "duration": 1.75,
        "velocity": 110
      },
      {
        "pitch": 74,
        "duration": 1.0,
        "velocity": 110
      },
      {
        "pitch": 74,
        "duration": 1.0,
        "velocity": 95
      },
      {
        "pitch": 70,
        "duration": 0.6666666666666666,
        "velocity": 125
      },
      {
        "pitch": 82,
        "duration": 0.6666666666666666,
        "velocity": 110
      },
      {
        "pitch": 53,
        "duration": 1.75,
        "velocity": 110
      },
      {
        "pitch": 72,
        "duration": 0.6666666666666666,
        "velocity": 116
      },
      {
        "pitch": 84,
        "duration": 0.6666666666666666,
        "velocity": 110
      },
      {
        "pitch": 69,
        "duration": 1.0,
        "velocity": 110
      },
      {
        "pitch": 69,
        "duration": 1.0,
        "velocity": 95
      },
      {
        "pitch": 74,
        "duration": 0.6666666666666666,
        "velocity": 126
      },
      {
        "pitch": 86,
        "duration": 0.6666666666666666,
        "velocity": 110
      },
      {
        "pitch": 72,
        "duration": 1.75,
        "velocity": 127
      },
      {
        "pitch": 84,
        "duration": 1.75,
        "velocity": 110
      },
      {
        "pitch": 70,
        "duration": 5.5,
        "velocity": 127
      }
    ],
    "key": "A- major",
    "tempo": 120,
    "name": "036eec23c193d281227d7f2df45f6a57_1.mid_seg68",
    "avg_interval": 14.266666666666667,
    "span": 45,
    "note_density": 0.0,
    "register": "treble",
    "complexity": 0.6666666666666666
  },
  {
    "events": [
      {
        "pitch": 82,
        "duration": 5.5,
        "velocity": 110
      },
      {
        "pitch": 48,
        "duration": 0.5,
        "velocity": 110
      },
      {
        "pitch": 46,
        "duration": 0.5,
        "velocity": 110
      },
      {
        "pitch": 77,
        "duration": 1.75,
        "velocity": 110
      },
      {
        "pitch": 77,
        "duration": 1.75,
        "velocity": 95
      },
      {
        "pitch": 39,
        "duration": 7.5,
        "velocity": 110
      },
      {
        "pitch": 54,
        "duration": 3.5,
        "velocity": 110
      },
      {
        "pitch": 75,
        "duration": 5.5,
        "velocity": 110
      },
      {
        "pitch": 75,
        "duration": 5.5,
        "velocity": 95
      },
      {
        "pitch": 70,
        "duration": 1.0,
        "velocity": 127
      },
      {
        "pitch": 82,
        "duration": 1.0,
        "velocity": 110
      },
      {
        "pitch": 70,
        "duration": 1.0,
        "velocity": 110
      },
      {
        "pitch": 70,
        "duration": 1.0,
        "velocity": 95
      },
      {
        "pitch": 53,
        "duration": 1.75,
        "velocity": 110
      },
      {
        "pitch": 74,
        "duration": 0.5,
        "velocity": 122
      },
      {
        "pitch": 86,
        "duration": 0.5,
        "velocity": 110
      }
    ],
    "key": "A- major",
    "tempo": 120,
    "name": "036eec23c193d281227d7f2df45f6a57_1.mid_seg69",
    "avg_interval": 14.666666666666666,
    "span": 47,
    "note_density": 0.0,
    "register": "treble",
    "complexity": 0.6666666666666666
  },
  {
    "events": [
      {
        "pitch": 74,
        "duration": 0.5,
        "velocity": 110
      },
      {
        "pitch": 74,
        "duration": 0.5,
        "velocity": 95
      },
      {
        "pitch": 72,
        "duration": 1.5,
        "velocity": 113
      },
      {
        "pitch": 84,
        "duration": 1.5,
        "velocity": 110
      },
      {
        "pitch": 72,
        "duration": 1.5,
        "velocity": 110
      },
      {
        "pitch": 72,
        "duration": 1.5,
        "velocity": 95
      },
      {
        "pitch": 51,
        "duration": 1.75,
        "velocity": 110
      },
      {
        "pitch": 70,
        "duration": 1.0,
        "velocity": 127
      },
      {
        "pitch": 82,
        "duration": 1.0,
        "velocity": 110
      },
      {
        "pitch": 70,
        "duration": 1.0,
        "velocity": 110
      },
      {
        "pitch": 70,
        "duration": 1.0,
        "velocity": 95
      },
      {
        "pitch": 70,
        "duration": 3.25,
        "velocity": 120
      },
      {
        "pitch": 82,
        "duration": 3.5,
        "velocity": 110
      },
      {
        "pitch": 43,
        "duration": 1.75,
        "velocity": 110
      },
      {
        "pitch": 70,
        "duration": 0.5,
        "velocity": 110
      },
      {
        "pitch": 70,
        "duration": 0.5,
        "velocity": 95
      }
    ],
    "key": "A- major",
    "tempo": 120,
    "name": "036eec23c193d281227d7f2df45f6a57_1.mid_seg70",
    "avg_interval": 11.2,
    "span": 41,
    "note_density": 0.0,
    "register": "treble",
    "complexity": 0.6444444444444444
  },
  {
    "events": [
      {
        "pitch": 55,
        "duration": 1.75,
        "velocity": 110
      },
      {
        "pitch": 72,
        "duration": 0.5,
        "velocity": 110
      },
      {
        "pitch": 72,
        "duration": 0.5,
        "velocity": 95
      },
      {
        "pitch": 74,
        "duration": 1.0,
        "velocity": 110
      },
      {
        "pitch": 74,
        "duration": 1.0,
        "velocity": 95
      },
      {
        "pitch": 41,
        "duration": 1.75,
        "velocity": 110
      },
      {
        "pitch": 74,
        "duration": 1.0,
        "velocity": 110
      },
      {
        "pitch": 74,
        "duration": 1.0,
        "velocity": 95
      },
      {
        "pitch": 53,
        "duration": 1.75,
        "velocity": 110
      },
      {
        "pitch": 69,
        "duration": 1.0,
        "velocity": 110
      },
      {
        "pitch": 69,
        "duration": 1.0,
        "velocity": 95
      },
      {
        "pitch": 48,
        "duration": 0.5,
        "velocity": 110
      },
      {
        "pitch": 46,
        "duration": 0.5,
        "velocity": 110
      },
      {
        "pitch": 77,
        "duration": 1.75,
        "velocity": 110
      },
      {
        "pitch": 77,
        "duration": 1.75,
        "velocity": 95
      },
      {
        "pitch": 54,
        "duration": 3.5,
        "velocity": 110
      }
    ],
    "key": "A- major",
    "tempo": 120,
    "name": "036eec23c193d281227d7f2df45f6a57_1.mid_seg71",
    "avg_interval": 13.266666666666667,
    "span": 36,
    "note_density": 0.0,
    "register": "middle",
    "complexity": 0.6666666666666666
  },
  {
    "events": [
      {
        "pitch": 39,
        "duration": 7.5,
        "velocity": 110
      },
      {
        "pitch": 75,
        "duration": 5.5,
        "velocity": 110
      },
      {
        "pitch": 75,
        "duration": 5.5,
        "velocity": 95
      },
      {
        "pitch": 70,
        "duration": 1.0,
        "velocity": 125
      },
      {
        "pitch": 82,
        "duration": 1.0,
        "velocity": 110
      },
      {
        "pitch": 70,
        "duration": 1.0,
        "velocity": 110
      },
      {
        "pitch": 70,
        "duration": 1.0,
        "velocity": 95
      },
      {
        "pitch": 53,
        "duration": 1.75,
        "velocity": 110
      },
      {
        "pitch": 74,
        "duration": 0.5,
        "velocity": 122
      },
      {
        "pitch": 86,
        "duration": 0.5,
        "velocity": 110
      },
      {
        "pitch": 74,
        "duration": 0.5,
        "velocity": 110
      },
      {
        "pitch": 74,
        "duration": 0.5,
        "velocity": 95
      },
      {
        "pitch": 72,
        "duration": 1.5,
        "velocity": 114
      },
      {
        "pitch": 84,
        "duration": 1.5,
        "velocity": 110
      },
      {
        "pitch": 72,
        "duration": 1.5,
        "velocity": 110
      },
      {
        "pitch": 72,
        "duration": 1.5,
        "velocity": 95
      }
    ],
    "key": "A- major",
    "tempo": 120,
    "name": "036eec23c193d281227d7f2df45f6a57_1.mid_seg72",
    "avg_interval": 10.2,
    "span": 47,
    "note_density": 0.0,
    "register": "treble",
    "complexity": 0.6166666666666667
  },
  {
    "events": [
      {
        "pitch": 51,
        "duration": 1.75,
        "velocity": 110
      },
      {
        "pitch": 70,
        "duration": 1.0,
        "velocity": 127
      },
      {
        "pitch": 82,
        "duration": 1.0,
        "velocity": 110
      },
      {
        "pitch": 70,
        "duration": 1.0,
        "velocity": 110
      },
      {
        "pitch": 70,
        "duration": 1.0,
        "velocity": 95
      },
      {
        "pitch": 70,
        "duration": 3.5,
        "velocity": 125
      },
      {
        "pitch": 82,
        "duration": 3.5,
        "velocity": 110
      },
      {
        "pitch": 43,
        "duration": 1.0,
        "velocity": 110
      },
      {
        "pitch": 65,
        "duration": 1.75,
        "velocity": 110
      },
      {
        "pitch": 58,
        "duration": 3.5,
        "velocity": 110
      },
      {
        "pitch": 58,
        "duration": 3.5,
        "velocity": 95
      },
      {
        "pitch": 65,
        "duration": 1.75,
        "velocity": 95
      },
      {
        "pitch": 63,
        "duration": 1.75,
        "velocity": 110
      },
      {
        "pitch": 63,
        "duration": 1.75,
        "velocity": 95
      }
    ],
    "key": "A- major",
    "tempo": 120,
    "name": "036eec23c193d281227d7f2df45f6a57_1.mid_seg73",
    "avg_interval": 10.153846153846153,
    "span": 39,
    "note_density": 0.0,
    "register": "middle",
    "complexity": 0.6153846153846154
  },
  {
    "events": [
      {
        "pitch": 57,
        "duration": 0.5,
        "velocity": 103
      },
      {
        "pitch": 62,
        "duration": 0.5,
        "velocity": 101
      },
      {
        "pitch": 66,
        "duration": 0.5,
        "velocity": 99
      },
      {
        "pitch": 69,
        "duration": 1.0,
        "velocity": 105
      },
      {
        "pitch": 33,
        "duration": 3.0,
        "velocity": 93
      },
      {
        "pitch": 62,
        "duration": 0.3333333333333333,
        "velocity": 104
      },
      {
        "pitch": 31,
        "duration": 3.0,
        "velocity": 91
      },
      {
        "pitch": 71,
        "duration": 1.0,
        "velocity": 109
      },
      {
        "pitch": 69,
        "duration": 0.3333333333333333,
        "velocity": 101
      },
      {
        "pitch": 30,
        "duration": 3.0,
        "velocity": 87
      },
      {
        "pitch": 69,
        "duration": 1.4166666666666667,
        "velocity": 101
      },
      {
        "pitch": 62,
        "duration": 0.5,
        "velocity": 101
      },
      {
        "pitch": 35,
        "duration": 3.0,
        "velocity": 88
      },
      {
        "pitch": 71,
        "duration": 0.75,
        "velocity": 104
      },
      {
        "pitch": 73,
        "duration": 0.5,
        "velocity": 104
      },
      {
        "pitch": 31,
        "duration": 3.0,
        "velocity": 89
      }
    ],
    "key": "D major",
    "tempo": 120,
    "name": "92212b5a7122795d6759e200241ea992_1.mid_seg0",
    "avg_interval": 22.8,
    "span": 43,
    "note_density": 0.0,
    "register": "middle",
    "complexity": 0.6666666666666666
  },
  {
    "events": [
      {
        "pitch": 73,
        "duration": 0.25,
        "velocity": 104
      },
      {
        "pitch": 71,
        "duration": 1.0,
        "velocity": 101
      },
      {
        "pitch": 66,
        "duration": 0.3333333333333333,
        "velocity": 92
      },
      {
        "pitch": 30,
        "duration": 3.0,
        "velocity": 91
      },
      {
        "pitch": 66,
        "duration": 0.4166666666666667,
        "velocity": 92
      },
      {
        "pitch": 69,
        "duration": 1.75,
        "velocity": 99
      },
      {
        "pitch": 62,
        "duration": 0.5,
        "velocity": 99
      },
      {
        "pitch": 35,
        "duration": 3.0,
        "velocity": 89
      },
      {
        "pitch": 71,
        "duration": 0.5,
        "velocity": 97
      },
      {
        "pitch": 71,
        "duration": 1.25,
        "velocity": 102
      },
      {
        "pitch": 73,
        "duration": 0.5,
        "velocity": 104
      },
      {
        "pitch": 73,
        "duration": 0.25,
        "velocity": 104
      },
      {
        "pitch": 71,
        "duration": 1.3333333333333333,
        "velocity": 104
      },
      {
        "pitch": 67,
        "duration": 0.25,
        "velocity": 94
      },
      {
        "pitch": 69,
        "duration": 1.0,
        "velocity": 96
      },
      {
        "pitch": 66,
        "duration": 0.5,
        "velocity": 102
      }
    ],
    "key": "D major",
    "tempo": 120,
    "name": "92212b5a7122795d6759e200241ea992_1.mid_seg1",
    "avg_interval": 11.0,
    "span": 43,
    "note_density": 0.01041666666666663,
    "register": "middle",
    "complexity": 0.642361111111111
  },
  {
    "events": [
      {
        "pitch": 30,
        "duration": 3.0,
        "velocity": 90
      },
      {
        "pitch": 66,
        "duration": 0.25,
        "velocity": 102
      },
      {
        "pitch": 69,
        "duration": 2.3333333333333335,
        "velocity": 102
      },
      {
        "pitch": 67,
        "duration": 0.5,
        "velocity": 106
      },
      {
        "pitch": 31,
        "duration": 3.0,
        "velocity": 87
      },
      {
        "pitch": 67,
        "duration": 1.25,
        "velocity": 107
      },
      {
        "pitch": 66,
        "duration": 0.5,
        "velocity": 105
      },
      {
        "pitch": 64,
        "duration": 0.75,
        "velocity": 104
      },
      {
        "pitch": 64,
        "duration": 1.0,
        "velocity": 113
      },
      {
        "pitch": 66,
        "duration": 0.6666666666666666,
        "velocity": 105
      },
      {
        "pitch": 64,
        "duration": 0.3333333333333333,
        "velocity": 104
      },
      {
        "pitch": 64,
        "duration": 2.1666666666666665,
        "velocity": 104
      },
      {
        "pitch": 28,
        "duration": 3.0,
        "velocity": 85
      },
      {
        "pitch": 33,
        "duration": 3.0,
        "velocity": 88
      },
      {
        "pitch": 33,
        "duration": 3.0,
        "velocity": 87
      },
      {
        "pitch": 71,
        "duration": 1.5,
        "velocity": 105
      }
    ],
    "key": "D major",
    "tempo": 120,
    "name": "92212b5a7122795d6759e200241ea992_1.mid_seg2",
    "avg_interval": 13.266666666666667,
    "span": 43,
    "note_density": 0.0,
    "register": "middle",
    "complexity": 0.6666666666666666
  },
  {
    "events": [
      {
        "pitch": 71,
        "duration": 0.5,
        "velocity": 101
      },
      {
        "pitch": 31,
        "duration": 3.0,
        "velocity": 87
      },
      {
        "pitch": 71,
        "duration": 1.0,
        "velocity": 110
      },
      {
        "pitch": 71,
        "duration": 1.0,
        "velocity": 105
      },
      {
        "pitch": 67,
        "duration": 1.0,
        "velocity": 101
      },
      {
        "pitch": 69,
        "duration": 0.5,
        "velocity": 106
      },
      {
        "pitch": 69,
        "duration": 1.75,
        "velocity": 106
      },
      {
        "pitch": 35,
        "duration": 3.0,
        "velocity": 89
      },
      {
        "pitch": 71,
        "duration": 0.5,
        "velocity": 114
      },
      {
        "pitch": 71,
        "duration": 0.75,
        "velocity": 114
      },
      {
        "pitch": 31,
        "duration": 3.0,
        "velocity": 83
      },
      {
        "pitch": 73,
        "duration": 0.5,
        "velocity": 117
      },
      {
        "pitch": 71,
        "duration": 1.3333333333333333,
        "velocity": 107
      },
      {
        "pitch": 69,
        "duration": 0.5,
        "velocity": 104
      },
      {
        "pitch": 64,
        "duration": 2.25,
        "velocity": 104
      },
      {
        "pitch": 62,
        "duration": 0.5,
        "velocity": 104
      }
    ],
    "key": "D major",
    "tempo": 120,
    "name": "92212b5a7122795d6759e200241ea992_1.mid_seg3",
    "avg_interval": 16.6,
    "span": 42,
    "note_density": 0.0,
    "register": "middle",
    "complexity": 0.6666666666666666
  },
  {
    "events": [
      {
        "pitch": 71,
        "duration": 1.5,
        "velocity": 107
      },
      {
        "pitch": 71,
        "duration": 0.3333333333333333,
        "velocity": 89
      },
      {
        "pitch": 71,
        "duration": 0.5,
        "velocity": 95
      },
      {
        "pitch": 71,
        "duration": 0.5,
        "velocity": 114
      },
      {
        "pitch": 71,
        "duration": 0.5,
        "velocity": 114
      },
      {
        "pitch": 69,
        "duration": 0.5,
        "velocity": 107
      },
      {
        "pitch": 71,
        "duration": 0.5,
        "velocity": 114
      },
      {
        "pitch": 71,
        "duration": 0.25,
        "velocity": 114
      },
      {
        "pitch": 69,
        "duration": 1.25,
        "velocity": 109
      },
      {
        "pitch": 69,
        "duration": 0.5,
        "velocity": 101
      },
      {
        "pitch": 69,
        "duration": 1.75,
        "velocity": 101
      },
      {
        "pitch": 71,
        "duration": 0.75,
        "velocity": 107
      },
      {
        "pitch": 35,
        "duration": 3.0,
        "velocity": 88
      },
      {
        "pitch": 73,
        "duration": 0.5,
        "velocity": 108
      },
      {
        "pitch": 31,
        "duration": 3.0,
        "velocity": 85
      },
      {
        "pitch": 73,
        "duration": 0.5,
        "velocity": 108
      }
    ],
    "key": "D major",
    "tempo": 120,
    "name": "92212b5a7122795d6759e200241ea992_1.mid_seg4",
    "avg_interval": 11.066666666666666,
    "span": 42,
    "note_density": 0.01041666666666674,
    "register": "middle",
    "complexity": 0.6442129629629629
  },
  {
    "events": [
      {
        "pitch": 71,
        "duration": 0.5,
        "velocity": 105
      },
      {
        "pitch": 38,
        "duration": 3.0,
        "velocity": 88
      },
      {
        "pitch": 69,
        "duration": 0.75,
        "velocity": 107
      },
      {
        "pitch": 66,
        "duration": 0.5,
        "velocity": 104
      },
      {
        "pitch": 66,
        "duration": 0.5,
        "velocity": 85
      },
      {
        "pitch": 64,
        "duration": 0.5,
        "velocity": 78
      },
      {
        "pitch": 66,
        "duration": 0.3333333333333333,
        "velocity": 99
      },
      {
        "pitch": 66,
        "duration": 1.3333333333333333,
        "velocity": 99
      },
      {
        "pitch": 66,
        "duration": 0.25,
        "velocity": 79
      },
      {
        "pitch": 62,
        "duration": 0.5,
        "velocity": 111
      },
      {
        "pitch": 59,
        "duration": 2.25,
        "velocity": 79
      },
      {
        "pitch": 64,
        "duration": 0.75,
        "velocity": 109
      },
      {
        "pitch": 57,
        "duration": 1.0,
        "velocity": 75
      },
      {
        "pitch": 64,
        "duration": 1.25,
        "velocity": 71
      },
      {
        "pitch": 64,
        "duration": 0.25,
        "velocity": 97
      },
      {
        "pitch": 64,
        "duration": 0.5,
        "velocity": 105
      }
    ],
    "key": "D major",
    "tempo": 120,
    "name": "92212b5a7122795d6759e200241ea992_1.mid_seg5",
    "avg_interval": 6.466666666666667,
    "span": 33,
    "note_density": 0.11458333333333337,
    "register": "middle",
    "complexity": 0.5511574074074074
  },
  {
    "events": [
      {
        "pitch": 64,
        "duration": 0.25,
        "velocity": 105
      },
      {
        "pitch": 64,
        "duration": 1.25,
        "velocity": 101
      },
      {
        "pitch": 66,
        "duration": 0.5,
        "velocity": 111
      },
      {
        "pitch": 64,
        "duration": 0.5,
        "velocity": 102
      },
      {
        "pitch": 64,
        "duration": 1.75,
        "velocity": 102
      },
      {
        "pitch": 64,
        "duration": 0.5,
        "velocity": 71
      },
      {
        "pitch": 57,
        "duration": 1.0,
        "velocity": 75
      },
      {
        "pitch": 69,
        "duration": 0.6666666666666666,
        "velocity": 80
      },
      {
        "pitch": 66,
        "duration": 0.75,
        "velocity": 115
      },
      {
        "pitch": 66,
        "duration": 1.5,
        "velocity": 112
      },
      {
        "pitch": 67,
        "duration": 0.3333333333333333,
        "velocity": 107
      },
      {
        "pitch": 67,
        "duration": 2.0,
        "velocity": 111
      },
      {
        "pitch": 64,
        "duration": 2.0,
        "velocity": 110
      },
      {
        "pitch": 66,
        "duration": 1.0,
        "velocity": 110
      },
      {
        "pitch": 66,
        "duration": 0.5,
        "velocity": 110
      },
      {
        "pitch": 69,
        "duration": 0.5,
        "velocity": 85
      }
    ],
    "key": "D major",
    "tempo": 120,
    "name": "92212b5a7122795d6759e200241ea992_1.mid_seg6",
    "avg_interval": 2.3333333333333335,
    "span": 12,
    "note_density": 0.06249999999999989,
    "register": "middle",
    "complexity": 0.25231481481481477
  },
  {
    "events": [
      {
        "pitch": 62,
        "duration": 1.3333333333333333,
        "velocity": 75
      },
      {
        "pitch": 66,
        "duration": 1.75,
        "velocity": 75
      },
      {
        "pitch": 71,
        "duration": 0.75,
        "velocity": 124
      },
      {
        "pitch": 59,
        "duration": 2.25,
        "velocity": 90
      },
      {
        "pitch": 71,
        "duration": 1.25,
        "velocity": 120
      },
      {
        "pitch": 71,
        "duration": 0.75,
        "velocity": 109
      },
      {
        "pitch": 67,
        "duration": 2.3333333333333335,
        "velocity": 80
      },
      {
        "pitch": 71,
        "duration": 0.75,
        "velocity": 114
      },
      {
        "pitch": 69,
        "duration": 0.5,
        "velocity": 109
      },
      {
        "pitch": 69,
        "duration": 0.5,
        "velocity": 112
      },
      {
        "pitch": 38,
        "duration": 2.25,
        "velocity": 85
      },
      {
        "pitch": 38,
        "duration": 3.0,
        "velocity": 104
      },
      {
        "pitch": 69,
        "duration": 2.0,
        "velocity": 112
      },
      {
        "pitch": 64,
        "duration": 1.0,
        "velocity": 104
      },
      {
        "pitch": 62,
        "duration": 1.25,
        "velocity": 76
      },
      {
        "pitch": 71,
        "duration": 0.75,
        "velocity": 107
      }
    ],
    "key": "D major",
    "tempo": 120,
    "name": "92212b5a7122795d6759e200241ea992_1.mid_seg7",
    "avg_interval": 8.066666666666666,
    "span": 33,
    "note_density": 0.0,
    "register": "middle",
    "complexity": 0.5574074074074074
  },
  {
    "events": [
      {
        "pitch": 66,
        "duration": 1.0,
        "velocity": 77
      },
      {
        "pitch": 71,
        "duration": 1.0,
        "velocity": 112
      },
      {
        "pitch": 69,
        "duration": 0.5,
        "velocity": 107
      },
      {
        "pitch": 69,
        "duration": 0.5,
        "velocity": 109
      },
      {
        "pitch": 69,
        "duration": 0.25,
        "velocity": 109
      },
      {
        "pitch": 66,
        "duration": 0.75,
        "velocity": 110
      },
      {
        "pitch": 62,
        "duration": 0.6666666666666666,
        "velocity": 102
      },
      {
        "pitch": 64,
        "duration": 0.3333333333333333,
        "velocity": 77
      },
      {
        "pitch": 62,
        "duration": 0.5833333333333334,
        "velocity": 102
      },
      {
        "pitch": 54,
        "duration": 1.3333333333333333,
        "velocity": 93
      },
      {
        "pitch": 62,
        "duration": 2.25,
        "velocity": 72
      },
      {
        "pitch": 64,
        "duration": 0.75,
        "velocity": 117
      },
      {
        "pitch": 64,
        "duration": 0.75,
        "velocity": 116
      },
      {
        "pitch": 64,
        "duration": 0.5,
        "velocity": 115
      },
      {
        "pitch": 64,
        "duration": 0.5,
        "velocity": 115
      },
      {
        "pitch": 64,
        "duration": 0.5,
        "velocity": 119
      }
    ],
    "key": "D major",
    "tempo": 120,
    "name": "92212b5a7122795d6759e200241ea992_1.mid_seg8",
    "avg_interval": 2.4,
    "span": 17,
    "note_density": 0.23958333333333337,
    "register": "middle",
    "complexity": 0.3826388888888889
  },
  {
    "events": [
      {
        "pitch": 66,
        "duration": 0.75,
        "velocity": 114
      },
      {
        "pitch": 64,
        "duration": 0.5,
        "velocity": 108
      },
      {
        "pitch": 45,
        "duration": 1.3333333333333333,
        "velocity": 106
      },
      {
        "pitch": 64,
        "duration": 1.1666666666666667,
        "velocity": 108
      },
      {
        "pitch": 62,
        "duration": 1.0,
        "velocity": 84
      },
      {
        "pitch": 45,
        "duration": 0.3333333333333333,
        "velocity": 99
      },
      {
        "pitch": 45,
        "duration": 1.9166666666666667,
        "velocity": 99
      },
      {
        "pitch": 67,
        "duration": 0.5,
        "velocity": 109
      },
      {
        "pitch": 67,
        "duration": 1.25,
        "velocity": 115
      },
      {
        "pitch": 64,
        "duration": 0.75,
        "velocity": 114
      },
      {
        "pitch": 62,
        "duration": 1.25,
        "velocity": 114
      },
      {
        "pitch": 62,
        "duration": 0.25,
        "velocity": 105
      },
      {
        "pitch": 67,
        "duration": 0.25,
        "velocity": 91
      },
      {
        "pitch": 62,
        "duration": 2.75,
        "velocity": 105
      },
      {
        "pitch": 62,
        "duration": 0.3333333333333333,
        "velocity": 103
      },
      {
        "pitch": 62,
        "duration": 0.3333333333333333,
        "velocity": 102
      }
    ],
    "key": "D major",
    "tempo": 120,
    "name": "92212b5a7122795d6759e200241ea992_1.mid_seg9",
    "avg_interval": 6.4,
    "span": 22,
    "note_density": 0.08333333333333326,
    "register": "middle",
    "complexity": 0.5111111111111111
  },
  {
    "events": [
      {
        "pitch": 62,
        "duration": 0.6666666666666666,
        "velocity": 109
      },
      {
        "pitch": 66,
        "duration": 0.75,
        "velocity": 104
      },
      {
        "pitch": 69,
        "duration": 0.5,
        "velocity": 109
      },
      {
        "pitch": 69,
        "duration": 1.0,
        "velocity": 98
      },
      {
        "pitch": 62,
        "duration": 0.5,
        "velocity": 98
      },
      {
        "pitch": 71,
        "duration": 1.0,
        "velocity": 107
      },
      {
        "pitch": 69,
        "duration": 0.6666666666666666,
        "velocity": 105
      },
      {
        "pitch": 67,
        "duration": 0.75,
        "velocity": 93
      },
      {
        "pitch": 69,
        "duration": 0.5,
        "velocity": 105
      },
      {
        "pitch": 30,
        "duration": 3.0,
        "velocity": 110
      },
      {
        "pitch": 69,
        "duration": 1.0,
        "velocity": 105
      },
      {
        "pitch": 71,
        "duration": 0.75,
        "velocity": 112
      },
      {
        "pitch": 35,
        "duration": 3.0,
        "velocity": 110
      },
      {
        "pitch": 73,
        "duration": 0.3333333333333333,
        "velocity": 120
      },
      {
        "pitch": 31,
        "duration": 3.0,
        "velocity": 109
      },
      {
        "pitch": 73,
        "duration": 0.3333333333333333,
        "velocity": 120
      }
    ],
    "key": "D major",
    "tempo": 120,
    "name": "92212b5a7122795d6759e200241ea992_1.mid_seg10",
    "avg_interval": 17.8,
    "span": 43,
    "note_density": 0.0,
    "register": "middle",
    "complexity": 0.6666666666666666
  },
  {
    "events": [
      {
        "pitch": 71,
        "duration": 0.75,
        "velocity": 110
      },
      {
        "pitch": 69,
        "duration": 0.75,
        "velocity": 109
      },
      {
        "pitch": 66,
        "duration": 0.5,
        "velocity": 103
      },
      {
        "pitch": 30,
        "duration": 3.0,
        "velocity": 105
      },
      {
        "pitch": 66,
        "duration": 0.25,
        "velocity": 103
      },
      {
        "pitch": 69,
        "duration": 1.25,
        "velocity": 102
      },
      {
        "pitch": 69,
        "duration": 0.5,
        "velocity": 102
      },
      {
        "pitch": 69,
        "duration": 0.5,
        "velocity": 98
      },
      {
        "pitch": 35,
        "duration": 3.0,
        "velocity": 106
      },
      {
        "pitch": 71,
        "duration": 0.75,
        "velocity": 110
      },
      {
        "pitch": 71,
        "duration": 0.75,
        "velocity": 107
      },
      {
        "pitch": 31,
        "duration": 3.0,
        "velocity": 108
      },
      {
        "pitch": 73,
        "duration": 0.75,
        "velocity": 106
      },
      {
        "pitch": 71,
        "duration": 0.75,
        "velocity": 103
      },
      {
        "pitch": 69,
        "duration": 0.3333333333333333,
        "velocity": 98
      },
      {
        "pitch": 69,
        "duration": 0.5,
        "velocity": 109
      }
    ],
    "key": "D major",
    "tempo": 120,
    "name": "92212b5a7122795d6759e200241ea992_1.mid_seg11",
    "avg_interval": 15.733333333333333,
    "span": 43,
    "note_density": 0.0,
    "register": "middle",
    "complexity": 0.6666666666666666
  },
  {
    "events": [
      {
        "pitch": 38,
        "duration": 3.0,
        "velocity": 105
      },
      {
        "pitch": 66,
        "duration": 0.75,
        "velocity": 97
      },
      {
        "pitch": 62,
        "duration": 0.75,
        "velocity": 97
      },
      {
        "pitch": 66,
        "duration": 0.5,
        "velocity": 101
      },
      {
        "pitch": 66,
        "duration": 0.16666666666666666,
        "velocity": 101
      },
      {
        "pitch": 69,
        "duration": 0.75,
        "velocity": 102
      },
      {
        "pitch": 67,
        "duration": 0.75,
        "velocity": 104
      },
      {
        "pitch": 31,
        "duration": 3.0,
        "velocity": 104
      },
      {
        "pitch": 66,
        "duration": 0.5,
        "velocity": 98
      },
      {
        "pitch": 66,
        "duration": 0.5,
        "velocity": 104
      },
      {
        "pitch": 66,
        "duration": 0.25,
        "velocity": 104
      },
      {
        "pitch": 62,
        "duration": 0.75,
        "velocity": 101
      },
      {
        "pitch": 66,
        "duration": 1.0,
        "velocity": 108
      },
      {
        "pitch": 67,
        "duration": 0.5,
        "velocity": 101
      },
      {
        "pitch": 64,
        "duration": 1.5,
        "velocity": 99
      },
      {
        "pitch": 67,
        "duration": 2.75,
        "velocity": 84
      }
    ],
    "key": "D major",
    "tempo": 120,
    "name": "92212b5a7122795d6759e200241ea992_1.mid_seg12",
    "avg_interval": 8.466666666666667,
    "span": 38,
    "note_density": 0.0,
    "register": "middle",
    "complexity": 0.5685185185185185
  },
  {
    "events": [
      {
        "pitch": 64,
        "duration": 0.5,
        "velocity": 99
      },
      {
        "pitch": 66,
        "duration": 0.5,
        "velocity": 109
      },
      {
        "pitch": 33,
        "duration": 3.0,
        "velocity": 105
      },
      {
        "pitch": 73,
        "duration": 2.3333333333333335,
        "velocity": 70
      },
      {
        "pitch": 64,
        "duration": 2.6666666666666665,
        "velocity": 68
      },
      {
        "pitch": 33,
        "duration": 3.0,
        "velocity": 105
      },
      {
        "pitch": 69,
        "duration": 0.6666666666666666,
        "velocity": 108
      },
      {
        "pitch": 69,
        "duration": 0.3333333333333333,
        "velocity": 102
      },
      {
        "pitch": 43,
        "duration": 2.5,
        "velocity": 72
      },
      {
        "pitch": 71,
        "duration": 0.75,
        "velocity": 107
      },
      {
        "pitch": 71,
        "duration": 0.5,
        "velocity": 96
      },
      {
        "pitch": 71,
        "duration": 1.25,
        "velocity": 109
      },
      {
        "pitch": 43,
        "duration": 0.3333333333333333,
        "velocity": 85
      },
      {
        "pitch": 71,
        "duration": 1.0,
        "velocity": 104
      },
      {
        "pitch": 43,
        "duration": 3.0,
        "velocity": 85
      },
      {
        "pitch": 71,
        "duration": 0.6666666666666666,
        "velocity": 105
      }
    ],
    "key": "D major",
    "tempo": 120,
    "name": "92212b5a7122795d6759e200241ea992_1.mid_seg13",
    "avg_interval": 21.133333333333333,
    "span": 40,
    "note_density": 0.0,
    "register": "middle",
    "complexity": 0.6666666666666666
  },
  {
    "events": [
      {
        "pitch": 55,
        "duration": 2.25,
        "velocity": 61
      },
      {
        "pitch": 64,
        "duration": 2.0,
        "velocity": 68
      },
      {
        "pitch": 71,
        "duration": 1.0,
        "velocity": 111
      },
      {
        "pitch": 66,
        "duration": 0.6666666666666666,
        "velocity": 102
      },
      {
        "pitch": 69,
        "duration": 1.0,
        "velocity": 102
      },
      {
        "pitch": 71,
        "duration": 1.3333333333333333,
        "velocity": 115
      },
      {
        "pitch": 71,
        "duration": 1.0,
        "velocity": 111
      },
      {
        "pitch": 69,
        "duration": 1.0,
        "velocity": 110
      },
      {
        "pitch": 62,
        "duration": 0.5,
        "velocity": 102
      },
      {
        "pitch": 64,
        "duration": 0.5,
        "velocity": 105
      },
      {
        "pitch": 45,
        "duration": 2.0,
        "velocity": 80
      },
      {
        "pitch": 59,
        "duration": 0.5,
        "velocity": 99
      },
      {
        "pitch": 64,
        "duration": 0.8333333333333334,
        "velocity": 105
      },
      {
        "pitch": 62,
        "duration": 0.5,
        "velocity": 107
      },
      {
        "pitch": 71,
        "duration": 1.3333333333333333,
        "velocity": 114
      },
      {
        "pitch": 71,
        "duration": 0.3333333333333333,
        "velocity": 94
      }
    ],
    "key": "D major",
    "tempo": 120,
    "name": "92212b5a7122795d6759e200241ea992_1.mid_seg14",
    "avg_interval": 5.733333333333333,
    "span": 26,
    "note_density": 0.0,
    "register": "middle",
    "complexity": 0.49259259259259264
  },
  {
    "events": [
      {
        "pitch": 31,
        "duration": 3.0,
        "velocity": 105
      },
      {
        "pitch": 69,
        "duration": 0.75,
        "velocity": 107
      },
      {
        "pitch": 69,
        "duration": 0.3333333333333333,
        "velocity": 109
      },
      {
        "pitch": 66,
        "duration": 0.6666666666666666,
        "velocity": 99
      },
      {
        "pitch": 69,
        "duration": 1.0,
        "velocity": 109
      },
      {
        "pitch": 69,
        "duration": 0.3333333333333333,
        "velocity": 86
      },
      {
        "pitch": 35,
        "duration": 3.0,
        "velocity": 106
      },
      {
        "pitch": 71,
        "duration": 0.5,
        "velocity": 104
      },
      {
        "pitch": 71,
        "duration": 2.6666666666666665,
        "velocity": 79
      },
      {
        "pitch": 71,
        "duration": 1.5,
        "velocity": 107
      },
      {
        "pitch": 73,
        "duration": 0.25,
        "velocity": 100
      },
      {
        "pitch": 73,
        "duration": 0.5,
        "velocity": 107
      },
      {
        "pitch": 31,
        "duration": 3.0,
        "velocity": 106
      },
      {
        "pitch": 67,
        "duration": 2.5,
        "velocity": 80
      },
      {
        "pitch": 73,
        "duration": 0.5,
        "velocity": 107
      },
      {
        "pitch": 71,
        "duration": 1.25,
        "velocity": 102
      }
    ],
    "key": "D major",
    "tempo": 120,
    "name": "92212b5a7122795d6759e200241ea992_1.mid_seg15",
    "avg_interval": 13.466666666666667,
    "span": 42,
    "note_density": 0.0,
    "register": "middle",
    "complexity": 0.6666666666666666
  },
  {
    "events": [
      {
        "pitch": 69,
        "duration": 0.5,
        "velocity": 112
      },
      {
        "pitch": 43,
        "duration": 1.0,
        "velocity": 91
      },
      {
        "pitch": 66,
        "duration": 0.5,
        "velocity": 89
      },
      {
        "pitch": 69,
        "duration": 1.0,
        "velocity": 113
      },
      {
        "pitch": 66,
        "duration": 1.0,
        "velocity": 66
      },
      {
        "pitch": 66,
        "duration": 0.5,
        "velocity": 110
      },
      {
        "pitch": 62,
        "duration": 0.6666666666666666,
        "velocity": 84
      },
      {
        "pitch": 66,
        "duration": 1.0,
        "velocity": 99
      },
      {
        "pitch": 50,
        "duration": 2.0,
        "velocity": 87
      },
      {
        "pitch": 66,
        "duration": 0.25,
        "velocity": 99
      },
      {
        "pitch": 66,
        "duration": 2.0,
        "velocity": 91
      },
      {
        "pitch": 62,
        "duration": 1.6666666666666667,
        "velocity": 76
      },
      {
        "pitch": 66,
        "duration": 2.75,
        "velocity": 81
      },
      {
        "pitch": 64,
        "duration": 0.5,
        "velocity": 111
      },
      {
        "pitch": 64,
        "duration": 0.75,
        "velocity": 113
      },
      {
        "pitch": 64,
        "duration": 0.75,
        "velocity": 108
      }
    ],
    "key": "D major",
    "tempo": 120,
    "name": "92212b5a7122795d6759e200241ea992_1.mid_seg16",
    "avg_interval": 7.0,
    "span": 26,
    "note_density": 0.0,
    "register": "middle",
    "complexity": 0.5277777777777778
  },
  {
    "events": [
      {
        "pitch": 71,
        "duration": 0.6666666666666666,
        "velocity": 102
      },
      {
        "pitch": 64,
        "duration": 0.5,
        "velocity": 106
      },
      {
        "pitch": 64,
        "duration": 0.25,
        "velocity": 106
      },
      {
        "pitch": 64,
        "duration": 1.25,
        "velocity": 113
      },
      {
        "pitch": 66,
        "duration": 0.3333333333333333,
        "velocity": 111
      },
      {
        "pitch": 64,
        "duration": 0.3333333333333333,
        "velocity": 107
      },
      {
        "pitch": 61,
        "duration": 1.0,
        "velocity": 84
      },
      {
        "pitch": 33,
        "duration": 2.0,
        "velocity": 99
      },
      {
        "pitch": 64,
        "duration": 4.333333333333333,
        "velocity": 107
      },
      {
        "pitch": 55,
        "duration": 0.25,
        "velocity": 80
      },
      {
        "pitch": 55,
        "duration": 0.6666666666666666,
        "velocity": 74
      },
      {
        "pitch": 61,
        "duration": 1.25,
        "velocity": 78
      },
      {
        "pitch": 33,
        "duration": 2.75,
        "velocity": 99
      },
      {
        "pitch": 55,
        "duration": 0.25,
        "velocity": 69
      },
      {
        "pitch": 61,
        "duration": 0.25,
        "velocity": 91
      },
      {
        "pitch": 33,
        "duration": 2.25,
        "velocity": 102
      }
    ],
    "key": "D major",
    "tempo": 120,
    "name": "92212b5a7122795d6759e200241ea992_1.mid_seg17",
    "avg_interval": 11.466666666666667,
    "span": 38,
    "note_density": 0.0,
    "register": "middle",
    "complexity": 0.6518518518518519
  },
  {
    "events": [
      {
        "pitch": 61,
        "duration": 0.75,
        "velocity": 91
      },
      {
        "pitch": 52,
        "duration": 0.5,
        "velocity": 77
      },
      {
        "pitch": 33,
        "duration": 3.0,
        "velocity": 101
      },
      {
        "pitch": 66,
        "duration": 0.6666666666666666,
        "velocity": 109
      },
      {
        "pitch": 66,
        "duration": 1.0,
        "velocity": 109
      },
      {
        "pitch": 43,
        "duration": 0.75,
        "velocity": 76
      },
      {
        "pitch": 67,
        "duration": 1.75,
        "velocity": 113
      },
      {
        "pitch": 43,
        "duration": 0.5,
        "velocity": 59
      },
      {
        "pitch": 64,
        "duration": 2.6666666666666665,
        "velocity": 116
      },
      {
        "pitch": 45,
        "duration": 1.0,
        "velocity": 72
      },
      {
        "pitch": 66,
        "duration": 0.3333333333333333,
        "velocity": 111
      },
      {
        "pitch": 66,
        "duration": 0.6666666666666666,
        "velocity": 107
      },
      {
        "pitch": 66,
        "duration": 1.6666666666666667,
        "velocity": 111
      },
      {
        "pitch": 69,
        "duration": 0.3333333333333333,
        "velocity": 92
      },
      {
        "pitch": 35,
        "duration": 3.0,
        "velocity": 108
      },
      {
        "pitch": 71,
        "duration": 0.5,
        "velocity": 106
      }
    ],
    "key": "D major",
    "tempo": 120,
    "name": "92212b5a7122795d6759e200241ea992_1.mid_seg18",
    "avg_interval": 17.733333333333334,
    "span": 38,
    "note_density": 0.0,
    "register": "middle",
    "complexity": 0.6666666666666666
  },
  {
    "events": [
      {
        "pitch": 71,
        "duration": 1.0,
        "velocity": 111
      },
      {
        "pitch": 71,
        "duration": 1.25,
        "velocity": 116
      },
      {
        "pitch": 47,
        "duration": 1.0,
        "velocity": 90
      },
      {
        "pitch": 71,
        "duration": 0.75,
        "velocity": 115
      },
      {
        "pitch": 31,
        "duration": 3.0,
        "velocity": 102
      },
      {
        "pitch": 71,
        "duration": 1.0,
        "velocity": 118
      },
      {
        "pitch": 69,
        "duration": 0.3333333333333333,
        "velocity": 107
      },
      {
        "pitch": 69,
        "duration": 0.3333333333333333,
        "velocity": 114
      },
      {
        "pitch": 69,
        "duration": 1.6666666666666667,
        "velocity": 114
      },
      {
        "pitch": 64,
        "duration": 0.5,
        "velocity": 62
      },
      {
        "pitch": 57,
        "duration": 1.0,
        "velocity": 80
      },
      {
        "pitch": 38,
        "duration": 3.0,
        "velocity": 108
      },
      {
        "pitch": 66,
        "duration": 1.6666666666666667,
        "velocity": 89
      },
      {
        "pitch": 64,
        "duration": 0.6666666666666666,
        "velocity": 70
      },
      {
        "pitch": 64,
        "duration": 1.0,
        "velocity": 83
      },
      {
        "pitch": 71,
        "duration": 0.75,
        "velocity": 114
      }
    ],
    "key": "D major",
    "tempo": 120,
    "name": "92212b5a7122795d6759e200241ea992_1.mid_seg19",
    "avg_interval": 13.2,
    "span": 40,
    "note_density": 0.0,
    "register": "middle",
    "complexity": 0.6666666666666666
  },
  {
    "events": [
      {
        "pitch": 71,
        "duration": 0.75,
        "velocity": 113
      },
      {
        "pitch": 71,
        "duration": 1.25,
        "velocity": 111
      },
      {
        "pitch": 69,
        "duration": 0.5,
        "velocity": 95
      },
      {
        "pitch": 69,
        "duration": 0.6666666666666666,
        "velocity": 113
      },
      {
        "pitch": 66,
        "duration": 1.0,
        "velocity": 104
      },
      {
        "pitch": 64,
        "duration": 0.3333333333333333,
        "velocity": 80
      },
      {
        "pitch": 62,
        "duration": 0.5,
        "velocity": 102
      },
      {
        "pitch": 62,
        "duration": 1.0,
        "velocity": 102
      },
      {
        "pitch": 64,
        "duration": 0.5,
        "velocity": 98
      },
      {
        "pitch": 64,
        "duration": 3.0,
        "velocity": 73
      },
      {
        "pitch": 64,
        "duration": 0.25,
        "velocity": 105
      },
      {
        "pitch": 64,
        "duration": 1.0,
        "velocity": 107
      },
      {
        "pitch": 64,
        "duration": 0.75,
        "velocity": 106
      },
      {
        "pitch": 64,
        "duration": 0.5,
        "velocity": 108
      },
      {
        "pitch": 64,
        "duration": 0.75,
        "velocity": 108
      },
      {
        "pitch": 64,
        "duration": 2.0,
        "velocity": 73
      }
    ],
    "key": "D major",
    "tempo": 120,
    "name": "92212b5a7122795d6759e200241ea992_1.mid_seg20",
    "avg_interval": 0.7333333333333333,
    "span": 9,
    "note_density": 0.078125,
    "register": "middle",
    "complexity": 0.17141203703703703
  },
  {
    "events": [
      {
        "pitch": 64,
        "duration": 0.6666666666666666,
        "velocity": 116
      },
      {
        "pitch": 66,
        "duration": 1.0,
        "velocity": 115
      },
      {
        "pitch": 64,
        "duration": 0.5,
        "velocity": 110
      },
      {
        "pitch": 45,
        "duration": 0.75,
        "velocity": 101
      },
      {
        "pitch": 64,
        "duration": 1.0,
        "velocity": 110
      },
      {
        "pitch": 45,
        "duration": 0.3333333333333333,
        "velocity": 90
      },
      {
        "pitch": 67,
        "duration": 0.3333333333333333,
        "velocity": 114
      },
      {
        "pitch": 31,
        "duration": 3.0,
        "velocity": 102
      },
      {
        "pitch": 43,
        "duration": 1.0,
        "velocity": 80
      },
      {
        "pitch": 67,
        "duration": 1.25,
        "velocity": 116
      },
      {
        "pitch": 43,
        "duration": 0.5,
        "velocity": 101
      },
      {
        "pitch": 43,
        "duration": 0.3333333333333333,
        "velocity": 91
      },
      {
        "pitch": 43,
        "duration": 0.16666666666666666,
        "velocity": 91
      },
      {
        "pitch": 62,
        "duration": 0.3333333333333333,
        "velocity": 105
      },
      {
        "pitch": 62,
        "duration": 4.416666666666667,
        "velocity": 105
      },
      {
        "pitch": 38,
        "duration": 3.0,
        "velocity": 92
      }
    ],
    "key": "D major",
    "tempo": 120,
    "name": "92212b5a7122795d6759e200241ea992_1.mid_seg21",
    "avg_interval": 14.8,
    "span": 36,
    "note_density": 0.0,
    "register": "bass",
    "complexity": 0.6666666666666666
  },
  {
    "events": [
      {
        "pitch": 38,
        "duration": 2.3333333333333335,
        "velocity": 92
      }
    ],
    "key": "D major",
    "tempo": 120,
    "name": "92212b5a7122795d6759e200241ea992_1.mid_seg22",
    "avg_interval": 0.0,
    "span": 0,
    "note_density": 0.0,
    "register": "bass",
    "complexity": 0.0
  },
  {
    "events": [
      {
        "pitch": 39,
        "duration": 0.75,
        "velocity": 100
      },
      {
        "pitch": 37,
        "duration": 0.5,
        "velocity": 100
      },
      {
        "pitch": 34,
        "duration": 0.5,
        "velocity": 100
      },
      {
        "pitch": 30,
        "duration": 0.25,
        "velocity": 100
      },
      {
        "pitch": 30,
        "duration": 0.5,
        "velocity": 100
      },
      {
        "pitch": 30,
        "duration": 0.25,
        "velocity": 100
      },
      {
        "pitch": 66,
        "duration": 0.25,
        "velocity": 100
      },
      {
        "pitch": 30,
        "duration": 0.25,
        "velocity": 100
      },
      {
        "pitch": 32,
        "duration": 0.25,
        "velocity": 100
      },
      {
        "pitch": 39,
        "duration": 0.75,
        "velocity": 100
      },
      {
        "pitch": 37,
        "duration": 0.5,
        "velocity": 100
      },
      {
        "pitch": 34,
        "duration": 0.5,
        "velocity": 100
      },
      {
        "pitch": 30,
        "duration": 0.25,
        "velocity": 100
      },
      {
        "pitch": 30,
        "duration": 0.5,
        "velocity": 100
      },
      {
        "pitch": 30,
        "duration": 0.25,
        "velocity": 100
      },
      {
        "pitch": 30,
        "duration": 0.25,
        "velocity": 100
      }
    ],
    "key": "G# minor",
    "tempo": 120,
    "name": "74c4313bdb65ea800399f5dbe7527d7a.mid_seg0",
    "avg_interval": 6.6,
    "span": 36,
    "note_density": 0.59375,
    "register": "bass",
    "complexity": 0.7145833333333332
  },
  {
    "events": [
      {
        "pitch": 32,
        "duration": 0.25,
        "velocity": 100
      },
      {
        "pitch": 39,
        "duration": 0.75,
        "velocity": 100
      },
      {
        "pitch": 37,
        "duration": 0.5,
        "velocity": 100
      },
      {
        "pitch": 34,
        "duration": 0.5,
        "velocity": 100
      },
      {
        "pitch": 30,
        "duration": 0.25,
        "velocity": 100
      },
      {
        "pitch": 30,
        "duration": 0.5,
        "velocity": 100
      },
      {
        "pitch": 30,
        "duration": 0.25,
        "velocity": 100
      },
      {
        "pitch": 30,
        "duration": 0.25,
        "velocity": 100
      },
      {
        "pitch": 32,
        "duration": 0.25,
        "velocity": 100
      },
      {
        "pitch": 39,
        "duration": 0.75,
        "velocity": 100
      },
      {
        "pitch": 37,
        "duration": 0.5,
        "velocity": 100
      },
      {
        "pitch": 34,
        "duration": 0.25,
        "velocity": 100
      },
      {
        "pitch": 28,
        "duration": 0.25,
        "velocity": 100
      },
      {
        "pitch": 28,
        "duration": 0.25,
        "velocity": 100
      },
      {
        "pitch": 28,
        "duration": 0.25,
        "velocity": 100
      },
      {
        "pitch": 28,
        "duration": 0.75,
        "velocity": 100
      }
    ],
    "key": "G# minor",
    "tempo": 120,
    "name": "74c4313bdb65ea800399f5dbe7527d7a.mid_seg1",
    "avg_interval": 2.4,
    "span": 11,
    "note_density": 0.59375,
    "register": "bass",
    "complexity": 0.41736111111111107
  },
  {
    "events": [
      {
        "pitch": 39,
        "duration": 0.5,
        "velocity": 100
      },
      {
        "pitch": 87,
        "duration": 4.0,
        "velocity": 122
      },
      {
        "pitch": 37,
        "duration": 0.25,
        "velocity": 100
      },
      {
        "pitch": 39,
        "duration": 0.5,
        "velocity": 100
      },
      {
        "pitch": 63,
        "duration": 0.25,
        "velocity": 100
      },
      {
        "pitch": 63,
        "duration": 0.25,
        "velocity": 100
      },
      {
        "pitch": 51,
        "duration": 0.25,
        "velocity": 100
      },
      {
        "pitch": 51,
        "duration": 0.25,
        "velocity": 100
      },
      {
        "pitch": 32,
        "duration": 0.3333333333333333,
        "velocity": 100
      },
      {
        "pitch": 51,
        "duration": 0.25,
        "velocity": 100
      },
      {
        "pitch": 51,
        "duration": 0.25,
        "velocity": 100
      },
      {
        "pitch": 37,
        "duration": 0.25,
        "velocity": 100
      },
      {
        "pitch": 39,
        "duration": 0.25,
        "velocity": 100
      },
      {
        "pitch": 63,
        "duration": 0.25,
        "velocity": 100
      },
      {
        "pitch": 63,
        "duration": 0.25,
        "velocity": 100
      },
      {
        "pitch": 39,
        "duration": 0.25,
        "velocity": 100
      }
    ],
    "key": "G# minor",
    "tempo": 120,
    "name": "74c4313bdb65ea800399f5dbe7527d7a.mid_seg2",
    "avg_interval": 15.866666666666667,
    "span": 55,
    "note_density": 0.47916666666666674,
    "register": "bass",
    "complexity": 0.826388888888889
  },
  {
    "events": [
      {
        "pitch": 39,
        "duration": 0.5,
        "velocity": 100
      },
      {
        "pitch": 51,
        "duration": 0.5,
        "velocity": 100
      },
      {
        "pitch": 51,
        "duration": 0.5,
        "velocity": 100
      },
      {
        "pitch": 37,
        "duration": 0.25,
        "velocity": 100
      },
      {
        "pitch": 61,
        "duration": 0.25,
        "velocity": 100
      },
      {
        "pitch": 66,
        "duration": 0.25,
        "velocity": 100
      },
      {
        "pitch": 39,
        "duration": 0.5,
        "velocity": 100
      },
      {
        "pitch": 87,
        "duration": 4.0,
        "velocity": 122
      },
      {
        "pitch": 37,
        "duration": 0.25,
        "velocity": 100
      },
      {
        "pitch": 39,
        "duration": 0.5,
        "velocity": 100
      },
      {
        "pitch": 63,
        "duration": 0.25,
        "velocity": 100
      },
      {
        "pitch": 63,
        "duration": 0.25,
        "velocity": 100
      },
      {
        "pitch": 51,
        "duration": 0.25,
        "velocity": 100
      },
      {
        "pitch": 51,
        "duration": 0.25,
        "velocity": 100
      },
      {
        "pitch": 32,
        "duration": 0.3333333333333333,
        "velocity": 100
      },
      {
        "pitch": 51,
        "duration": 0.25,
        "velocity": 100
      }
    ],
    "key": "G# minor",
    "tempo": 120,
    "name": "74c4313bdb65ea800399f5dbe7527d7a.mid_seg3",
    "avg_interval": 17.066666666666666,
    "span": 55,
    "note_density": 0.43229166666666663,
    "register": "bass",
    "complexity": 0.8107638888888888
  },
  {
    "events": [
      {
        "pitch": 51,
        "duration": 0.25,
        "velocity": 100
      },
      {
        "pitch": 37,
        "duration": 0.25,
        "velocity": 100
      },
      {
        "pitch": 39,
        "duration": 0.25,
        "velocity": 100
      },
      {
        "pitch": 63,
        "duration": 0.25,
        "velocity": 100
      },
      {
        "pitch": 63,
        "duration": 0.25,
        "velocity": 100
      },
      {
        "pitch": 39,
        "duration": 0.25,
        "velocity": 100
      },
      {
        "pitch": 39,
        "duration": 0.5,
        "velocity": 100
      },
      {
        "pitch": 51,
        "duration": 0.5,
        "velocity": 100
      },
      {
        "pitch": 51,
        "duration": 0.5,
        "velocity": 100
      },
      {
        "pitch": 37,
        "duration": 0.25,
        "velocity": 100
      },
      {
        "pitch": 61,
        "duration": 0.25,
        "velocity": 100
      },
      {
        "pitch": 66,
        "duration": 0.25,
        "velocity": 100
      },
      {
        "pitch": 39,
        "duration": 0.5,
        "velocity": 100
      },
      {
        "pitch": 87,
        "duration": 4.0,
        "velocity": 122
      },
      {
        "pitch": 37,
        "duration": 0.25,
        "velocity": 100
      },
      {
        "pitch": 39,
        "duration": 0.5,
        "velocity": 100
      }
    ],
    "key": "G# minor",
    "tempo": 120,
    "name": "74c4313bdb65ea800399f5dbe7527d7a.mid_seg4",
    "avg_interval": 16.4,
    "span": 50,
    "note_density": 0.4375,
    "register": "bass",
    "complexity": 0.8125
  },
  {
    "events": [
      {
        "pitch": 63,
        "duration": 0.25,
        "velocity": 100
      },
      {
        "pitch": 63,
        "duration": 0.25,
        "velocity": 100
      },
      {
        "pitch": 51,
        "duration": 0.25,
        "velocity": 100
      },
      {
        "pitch": 51,
        "duration": 0.25,
        "velocity": 100
      },
      {
        "pitch": 32,
        "duration": 0.3333333333333333,
        "velocity": 100
      },
      {
        "pitch": 51,
        "duration": 0.25,
        "velocity": 100
      },
      {
        "pitch": 51,
        "duration": 0.25,
        "velocity": 100
      },
      {
        "pitch": 37,
        "duration": 0.25,
        "velocity": 100
      },
      {
        "pitch": 39,
        "duration": 0.25,
        "velocity": 100
      },
      {
        "pitch": 63,
        "duration": 0.25,
        "velocity": 100
      },
      {
        "pitch": 63,
        "duration": 0.25,
        "velocity": 100
      },
      {
        "pitch": 39,
        "duration": 0.25,
        "velocity": 100
      },
      {
        "pitch": 39,
        "duration": 0.5,
        "velocity": 100
      },
      {
        "pitch": 51,
        "duration": 0.5,
        "velocity": 100
      },
      {
        "pitch": 51,
        "duration": 0.5,
        "velocity": 100
      },
      {
        "pitch": 37,
        "duration": 0.25,
        "velocity": 100
      }
    ],
    "key": "G# minor",
    "tempo": 120,
    "name": "74c4313bdb65ea800399f5dbe7527d7a.mid_seg5",
    "avg_interval": 9.333333333333334,
    "span": 31,
    "note_density": 0.6979166666666667,
    "register": "bass",
    "complexity": 0.8252314814814815
  },
  {
    "events": [
      {
        "pitch": 61,
        "duration": 0.25,
        "velocity": 100
      },
      {
        "pitch": 66,
        "duration": 0.25,
        "velocity": 100
      },
      {
        "pitch": 39,
        "duration": 0.5,
        "velocity": 100
      },
      {
        "pitch": 87,
        "duration": 4.0,
        "velocity": 122
      },
      {
        "pitch": 37,
        "duration": 0.25,
        "velocity": 100
      },
      {
        "pitch": 39,
        "duration": 0.5,
        "velocity": 100
      },
      {
        "pitch": 63,
        "duration": 0.25,
        "velocity": 100
      },
      {
        "pitch": 63,
        "duration": 0.25,
        "velocity": 100
      },
      {
        "pitch": 51,
        "duration": 0.25,
        "velocity": 100
      },
      {
        "pitch": 51,
        "duration": 0.25,
        "velocity": 100
      },
      {
        "pitch": 32,
        "duration": 0.3333333333333333,
        "velocity": 100
      },
      {
        "pitch": 51,
        "duration": 0.25,
        "velocity": 100
      },
      {
        "pitch": 51,
        "duration": 0.25,
        "velocity": 100
      },
      {
        "pitch": 37,
        "duration": 0.25,
        "velocity": 100
      },
      {
        "pitch": 39,
        "duration": 0.25,
        "velocity": 100
      },
      {
        "pitch": 63,
        "duration": 0.25,
        "velocity": 100
      }
    ],
    "key": "G# minor",
    "tempo": 120,
    "name": "74c4313bdb65ea800399f5dbe7527d7a.mid_seg6",
    "avg_interval": 16.4,
    "span": 55,
    "note_density": 0.47916666666666674,
    "register": "bass",
    "complexity": 0.826388888888889
  },
  {
    "events": [
      {
        "pitch": 63,
        "duration": 0.25,
        "velocity": 100
      },
      {
        "pitch": 39,
        "duration": 0.25,
        "velocity": 100
      },
      {
        "pitch": 39,
        "duration": 0.5,
        "velocity": 100
      },
      {
        "pitch": 51,
        "duration": 0.5,
        "velocity": 100
      },
      {
        "pitch": 51,
        "duration": 0.5,
        "velocity": 100
      },
      {
        "pitch": 37,
        "duration": 0.25,
        "velocity": 100
      },
      {
        "pitch": 61,
        "duration": 0.25,
        "velocity": 100
      },
      {
        "pitch": 66,
        "duration": 0.25,
        "velocity": 100
      },
      {
        "pitch": 39,
        "duration": 0.5,
        "velocity": 100
      },
      {
        "pitch": 87,
        "duration": 4.0,
        "velocity": 122
      },
      {
        "pitch": 37,
        "duration": 0.25,
        "velocity": 100
      },
      {
        "pitch": 39,
        "duration": 0.5,
        "velocity": 100
      },
      {
        "pitch": 63,
        "duration": 0.25,
        "velocity": 100
      },
      {
        "pitch": 63,
        "duration": 0.25,
        "velocity": 100
      },
      {
        "pitch": 51,
        "duration": 0.25,
        "velocity": 100
      },
      {
        "pitch": 51,
        "duration": 0.25,
        "velocity": 100
      }
    ],
    "key": "G# minor",
    "tempo": 120,
    "name": "74c4313bdb65ea800399f5dbe7527d7a.mid_seg7",
    "avg_interval": 16.133333333333333,
    "span": 50,
    "note_density": 0.4375,
    "register": "bass",
    "complexity": 0.8125
  },
  {
    "events": [
      {
        "pitch": 32,
        "duration": 0.3333333333333333,
        "velocity": 100
      },
      {
        "pitch": 51,
        "duration": 0.25,
        "velocity": 100
      },
      {
        "pitch": 51,
        "duration": 0.25,
        "velocity": 100
      },
      {
        "pitch": 37,
        "duration": 0.25,
        "velocity": 100
      },
      {
        "pitch": 39,
        "duration": 0.25,
        "velocity": 100
      },
      {
        "pitch": 63,
        "duration": 0.25,
        "velocity": 100
      },
      {
        "pitch": 63,
        "duration": 0.25,
        "velocity": 100
      },
      {
        "pitch": 39,
        "duration": 0.25,
        "velocity": 100
      },
      {
        "pitch": 39,
        "duration": 0.5,
        "velocity": 100
      },
      {
        "pitch": 51,
        "duration": 0.5,
        "velocity": 100
      },
      {
        "pitch": 51,
        "duration": 0.5,
        "velocity": 100
      },
      {
        "pitch": 37,
        "duration": 0.25,
        "velocity": 100
      },
      {
        "pitch": 61,
        "duration": 0.25,
        "velocity": 100
      },
      {
        "pitch": 66,
        "duration": 0.25,
        "velocity": 100
      },
      {
        "pitch": 39,
        "duration": 0.5,
        "velocity": 100
      },
      {
        "pitch": 87,
        "duration": 4.0,
        "velocity": 122
      }
    ],
    "key": "G# minor",
    "tempo": 120,
    "name": "74c4313bdb65ea800399f5dbe7527d7a.mid_seg8",
    "avg_interval": 14.2,
    "span": 55,
    "note_density": 0.44791666666666674,
    "register": "bass",
    "complexity": 0.8159722222222223
  },
  {
    "events": [
      {
        "pitch": 37,
        "duration": 0.25,
        "velocity": 100
      },
      {
        "pitch": 39,
        "duration": 0.5,
        "velocity": 100
      },
      {
        "pitch": 63,
        "duration": 0.25,
        "velocity": 100
      },
      {
        "pitch": 63,
        "duration": 0.25,
        "velocity": 100
      },
      {
        "pitch": 51,
        "duration": 0.25,
        "velocity": 100
      },
      {
        "pitch": 51,
        "duration": 0.25,
        "velocity": 100
      },
      {
        "pitch": 32,
        "duration": 0.3333333333333333,
        "velocity": 100
      },
      {
        "pitch": 51,
        "duration": 0.25,
        "velocity": 100
      },
      {
        "pitch": 51,
        "duration": 0.25,
        "velocity": 100
      },
      {
        "pitch": 37,
        "duration": 0.25,
        "velocity": 100
      },
      {
        "pitch": 39,
        "duration": 0.25,
        "velocity": 100
      },
      {
        "pitch": 63,
        "duration": 0.25,
        "velocity": 100
      },
      {
        "pitch": 63,
        "duration": 0.25,
        "velocity": 100
      },
      {
        "pitch": 39,
        "duration": 0.25,
        "velocity": 100
      },
      {
        "pitch": 39,
        "duration": 0.5,
        "velocity": 100
      },
      {
        "pitch": 51,
        "duration": 0.5,
        "velocity": 100
      }
    ],
    "key": "G# minor",
    "tempo": 120,
    "name": "74c4313bdb65ea800399f5dbe7527d7a.mid_seg9",
    "avg_interval": 10.133333333333333,
    "span": 31,
    "note_density": 0.6979166666666666,
    "register": "bass",
    "complexity": 0.8474537037037037
  },
  {
    "events": [
      {
        "pitch": 51,
        "duration": 0.5,
        "velocity": 100
      },
      {
        "pitch": 37,
        "duration": 0.25,
        "velocity": 100
      },
      {
        "pitch": 61,
        "duration": 0.25,
        "velocity": 100
      },
      {
        "pitch": 66,
        "duration": 0.25,
        "velocity": 100
      },
      {
        "pitch": 32,
        "duration": 1.5,
        "velocity": 100
      },
      {
        "pitch": 68,
        "duration": 4.0,
        "velocity": 103
      },
      {
        "pitch": 87,
        "duration": 4.0,
        "velocity": 122
      },
      {
        "pitch": 72,
        "duration": 2.5,
        "velocity": 103
      },
      {
        "pitch": 32,
        "duration": 1.5,
        "velocity": 100
      },
      {
        "pitch": 75,
        "duration": 2.5,
        "velocity": 103
      },
      {
        "pitch": 32,
        "duration": 0.25,
        "velocity": 100
      },
      {
        "pitch": 30,
        "duration": 1.5,
        "velocity": 100
      },
      {
        "pitch": 73,
        "duration": 3.25,
        "velocity": 103
      },
      {
        "pitch": 87,
        "duration": 3.75,
        "velocity": 122
      },
      {
        "pitch": 70,
        "duration": 2.75,
        "velocity": 103
      },
      {
        "pitch": 68,
        "duration": 2.3333333333333335,
        "velocity": 103
      }
    ],
    "key": "G# minor",
    "tempo": 120,
    "name": "74c4313bdb65ea800399f5dbe7527d7a.mid_seg10",
    "avg_interval": 23.4,
    "span": 57,
    "note_density": 0.0,
    "register": "middle",
    "complexity": 0.6666666666666666
  },
  {
    "events": [
      {
        "pitch": 30,
        "duration": 0.75,
        "velocity": 100
      },
      {
        "pitch": 64,
        "duration": 1.75,
        "velocity": 103
      },
      {
        "pitch": 30,
        "duration": 0.5,
        "velocity": 100
      },
      {
        "pitch": 30,
        "duration": 0.25,
        "velocity": 100
      },
      {
        "pitch": 30,
        "duration": 0.5,
        "velocity": 100
      },
      {
        "pitch": 61,
        "duration": 0.25,
        "velocity": 103
      },
      {
        "pitch": 39,
        "duration": 0.5,
        "velocity": 100
      },
      {
        "pitch": 61,
        "duration": 0.25,
        "velocity": 103
      },
      {
        "pitch": 63,
        "duration": 0.3333333333333333,
        "velocity": 103
      },
      {
        "pitch": 37,
        "duration": 0.25,
        "velocity": 100
      },
      {
        "pitch": 61,
        "duration": 0.25,
        "velocity": 103
      },
      {
        "pitch": 39,
        "duration": 0.5,
        "velocity": 100
      },
      {
        "pitch": 63,
        "duration": 0.25,
        "velocity": 103
      },
      {
        "pitch": 63,
        "duration": 0.25,
        "velocity": 100
      },
      {
        "pitch": 63,
        "duration": 0.25,
        "velocity": 100
      },
      {
        "pitch": 51,
        "duration": 0.25,
        "velocity": 100
      }
    ],
    "key": "G# minor",
    "tempo": 120,
    "name": "74c4313bdb65ea800399f5dbe7527d7a.mid_seg11",
    "avg_interval": 16.866666666666667,
    "span": 34,
    "note_density": 0.5572916666666667,
    "register": "bass",
    "complexity": 0.8524305555555557
  },
  {
    "events": [
      {
        "pitch": 51,
        "duration": 0.25,
        "velocity": 100
      },
      {
        "pitch": 32,
        "duration": 0.3333333333333333,
        "velocity": 100
      },
      {
        "pitch": 51,
        "duration": 0.25,
        "velocity": 100
      },
      {
        "pitch": 51,
        "duration": 0.25,
        "velocity": 100
      },
      {
        "pitch": 37,
        "duration": 0.25,
        "velocity": 100
      },
      {
        "pitch": 61,
        "duration": 0.25,
        "velocity": 103
      },
      {
        "pitch": 39,
        "duration": 0.25,
        "velocity": 100
      },
      {
        "pitch": 63,
        "duration": 0.3333333333333333,
        "velocity": 103
      },
      {
        "pitch": 63,
        "duration": 0.25,
        "velocity": 100
      },
      {
        "pitch": 63,
        "duration": 0.25,
        "velocity": 100
      },
      {
        "pitch": 39,
        "duration": 0.25,
        "velocity": 100
      },
      {
        "pitch": 61,
        "duration": 0.25,
        "velocity": 103
      },
      {
        "pitch": 39,
        "duration": 0.5,
        "velocity": 100
      },
      {
        "pitch": 63,
        "duration": 0.25,
        "velocity": 103
      },
      {
        "pitch": 51,
        "duration": 0.5,
        "velocity": 100
      },
      {
        "pitch": 51,
        "duration": 0.5,
        "velocity": 100
      }
    ],
    "key": "G# minor",
    "tempo": 120,
    "name": "74c4313bdb65ea800399f5dbe7527d7a.mid_seg12",
    "avg_interval": 15.066666666666666,
    "span": 31,
    "note_density": 0.6927083333333334,
    "register": "bass",
    "complexity": 0.8975694444444445
  },
  {
    "events": [
      {
        "pitch": 37,
        "duration": 0.25,
        "velocity": 100
      },
      {
        "pitch": 61,
        "duration": 0.25,
        "velocity": 100
      },
      {
        "pitch": 61,
        "duration": 0.25,
        "velocity": 103
      },
      {
        "pitch": 66,
        "duration": 0.25,
        "velocity": 100
      },
      {
        "pitch": 39,
        "duration": 0.5,
        "velocity": 100
      },
      {
        "pitch": 61,
        "duration": 0.5,
        "velocity": 103
      },
      {
        "pitch": 63,
        "duration": 0.25,
        "velocity": 103
      },
      {
        "pitch": 37,
        "duration": 0.25,
        "velocity": 100
      },
      {
        "pitch": 61,
        "duration": 0.25,
        "velocity": 103
      },
      {
        "pitch": 39,
        "duration": 0.5,
        "velocity": 100
      },
      {
        "pitch": 63,
        "duration": 0.25,
        "velocity": 103
      },
      {
        "pitch": 63,
        "duration": 0.25,
        "velocity": 100
      },
      {
        "pitch": 63,
        "duration": 0.25,
        "velocity": 100
      },
      {
        "pitch": 51,
        "duration": 0.25,
        "velocity": 100
      },
      {
        "pitch": 51,
        "duration": 0.25,
        "velocity": 100
      },
      {
        "pitch": 32,
        "duration": 0.3333333333333333,
        "velocity": 100
      }
    ],
    "key": "G# minor",
    "tempo": 120,
    "name": "74c4313bdb65ea800399f5dbe7527d7a.mid_seg13",
    "avg_interval": 13.8,
    "span": 34,
    "note_density": 0.6979166666666667,
    "register": "bass",
    "complexity": 0.8993055555555557
  },
  {
    "events": [
      {
        "pitch": 51,
        "duration": 0.25,
        "velocity": 100
      },
      {
        "pitch": 51,
        "duration": 0.25,
        "velocity": 100
      },
      {
        "pitch": 37,
        "duration": 0.25,
        "velocity": 100
      },
      {
        "pitch": 61,
        "duration": 0.25,
        "velocity": 103
      },
      {
        "pitch": 39,
        "duration": 0.25,
        "velocity": 100
      },
      {
        "pitch": 63,
        "duration": 0.25,
        "velocity": 103
      },
      {
        "pitch": 63,
        "duration": 0.25,
        "velocity": 100
      },
      {
        "pitch": 63,
        "duration": 0.25,
        "velocity": 100
      },
      {
        "pitch": 39,
        "duration": 0.25,
        "velocity": 100
      },
      {
        "pitch": 39,
        "duration": 0.5,
        "velocity": 100
      },
      {
        "pitch": 51,
        "duration": 0.5,
        "velocity": 100
      },
      {
        "pitch": 51,
        "duration": 0.5,
        "velocity": 100
      },
      {
        "pitch": 37,
        "duration": 0.25,
        "velocity": 100
      },
      {
        "pitch": 61,
        "duration": 0.25,
        "velocity": 100
      },
      {
        "pitch": 63,
        "duration": 0.25,
        "velocity": 103
      },
      {
        "pitch": 66,
        "duration": 0.25,
        "velocity": 100
      }
    ],
    "key": "G# minor",
    "tempo": 120,
    "name": "74c4313bdb65ea800399f5dbe7527d7a.mid_seg14",
    "avg_interval": 10.866666666666667,
    "span": 29,
    "note_density": 0.703125,
    "register": "bass",
    "complexity": 0.8695601851851852
  },
  {
    "events": [
      {
        "pitch": 39,
        "duration": 0.5,
        "velocity": 100
      },
      {
        "pitch": 87,
        "duration": 4.0,
        "velocity": 107
      },
      {
        "pitch": 37,
        "duration": 0.25,
        "velocity": 100
      },
      {
        "pitch": 39,
        "duration": 0.5,
        "velocity": 100
      },
      {
        "pitch": 63,
        "duration": 0.25,
        "velocity": 100
      },
      {
        "pitch": 63,
        "duration": 0.25,
        "velocity": 100
      },
      {
        "pitch": 51,
        "duration": 0.25,
        "velocity": 100
      },
      {
        "pitch": 51,
        "duration": 0.25,
        "velocity": 100
      },
      {
        "pitch": 32,
        "duration": 0.3333333333333333,
        "velocity": 100
      },
      {
        "pitch": 51,
        "duration": 0.25,
        "velocity": 100
      },
      {
        "pitch": 51,
        "duration": 0.25,
        "velocity": 100
      },
      {
        "pitch": 37,
        "duration": 0.25,
        "velocity": 100
      },
      {
        "pitch": 39,
        "duration": 0.25,
        "velocity": 100
      },
      {
        "pitch": 63,
        "duration": 0.25,
        "velocity": 100
      },
      {
        "pitch": 63,
        "duration": 0.25,
        "velocity": 100
      },
      {
        "pitch": 39,
        "duration": 0.25,
        "velocity": 100
      }
    ],
    "key": "G# minor",
    "tempo": 120,
    "name": "74c4313bdb65ea800399f5dbe7527d7a.mid_seg15",
    "avg_interval": 15.866666666666667,
    "span": 55,
    "note_density": 0.47916666666666674,
    "register": "bass",
    "complexity": 0.826388888888889
  },
  {
    "events": [
      {
        "pitch": 39,
        "duration": 0.5,
        "velocity": 100
      },
      {
        "pitch": 51,
        "duration": 0.5,
        "velocity": 100
      },
      {
        "pitch": 51,
        "duration": 0.5,
        "velocity": 100
      },
      {
        "pitch": 37,
        "duration": 0.25,
        "velocity": 100
      },
      {
        "pitch": 61,
        "duration": 0.25,
        "velocity": 100
      },
      {
        "pitch": 66,
        "duration": 0.25,
        "velocity": 100
      },
      {
        "pitch": 39,
        "duration": 0.5,
        "velocity": 100
      },
      {
        "pitch": 87,
        "duration": 4.0,
        "velocity": 107
      },
      {
        "pitch": 37,
        "duration": 0.25,
        "velocity": 100
      },
      {
        "pitch": 39,
        "duration": 0.5,
        "velocity": 100
      },
      {
        "pitch": 63,
        "duration": 0.25,
        "velocity": 100
      },
      {
        "pitch": 63,
        "duration": 0.25,
        "velocity": 100
      },
      {
        "pitch": 51,
        "duration": 0.25,
        "velocity": 100
      },
      {
        "pitch": 51,
        "duration": 0.25,
        "velocity": 100
      },
      {
        "pitch": 32,
        "duration": 0.3333333333333333,
        "velocity": 100
      },
      {
        "pitch": 51,
        "duration": 0.25,
        "velocity": 100
      }
    ],
    "key": "G# minor",
    "tempo": 120,
    "name": "74c4313bdb65ea800399f5dbe7527d7a.mid_seg16",
    "avg_interval": 17.066666666666666,
    "span": 55,
    "note_density": 0.43229166666666663,
    "register": "bass",
    "complexity": 0.8107638888888888
  },
  {
    "events": [
      {
        "pitch": 51,
        "duration": 0.25,
        "velocity": 100
      },
      {
        "pitch": 37,
        "duration": 0.25,
        "velocity": 100
      },
      {
        "pitch": 39,
        "duration": 0.25,
        "velocity": 100
      },
      {
        "pitch": 63,
        "duration": 0.25,
        "velocity": 100
      },
      {
        "pitch": 63,
        "duration": 0.25,
        "velocity": 100
      },
      {
        "pitch": 39,
        "duration": 0.25,
        "velocity": 100
      },
      {
        "pitch": 39,
        "duration": 0.5,
        "velocity": 100
      },
      {
        "pitch": 51,
        "duration": 0.5,
        "velocity": 100
      },
      {
        "pitch": 51,
        "duration": 0.5,
        "velocity": 100
      },
      {
        "pitch": 37,
        "duration": 0.25,
        "velocity": 100
      },
      {
        "pitch": 61,
        "duration": 0.25,
        "velocity": 100
      },
      {
        "pitch": 66,
        "duration": 0.25,
        "velocity": 100
      },
      {
        "pitch": 39,
        "duration": 0.5,
        "velocity": 100
      },
      {
        "pitch": 87,
        "duration": 4.0,
        "velocity": 107
      },
      {
        "pitch": 37,
        "duration": 0.25,
        "velocity": 100
      },
      {
        "pitch": 39,
        "duration": 0.5,
        "velocity": 100
      }
    ],
    "key": "G# minor",
    "tempo": 120,
    "name": "74c4313bdb65ea800399f5dbe7527d7a.mid_seg17",
    "avg_interval": 16.4,
    "span": 50,
    "note_density": 0.4375,
    "register": "bass",
    "complexity": 0.8125
  },
  {
    "events": [
      {
        "pitch": 63,
        "duration": 0.25,
        "velocity": 100
      },
      {
        "pitch": 63,
        "duration": 0.25,
        "velocity": 100
      },
      {
        "pitch": 51,
        "duration": 0.25,
        "velocity": 100
      },
      {
        "pitch": 51,
        "duration": 0.25,
        "velocity": 100
      },
      {
        "pitch": 32,
        "duration": 0.3333333333333333,
        "velocity": 100
      },
      {
        "pitch": 51,
        "duration": 0.25,
        "velocity": 100
      },
      {
        "pitch": 51,
        "duration": 0.25,
        "velocity": 100
      },
      {
        "pitch": 37,
        "duration": 0.25,
        "velocity": 100
      },
      {
        "pitch": 39,
        "duration": 0.25,
        "velocity": 100
      },
      {
        "pitch": 63,
        "duration": 0.25,
        "velocity": 100
      },
      {
        "pitch": 63,
        "duration": 0.25,
        "velocity": 100
      },
      {
        "pitch": 39,
        "duration": 0.25,
        "velocity": 100
      },
      {
        "pitch": 39,
        "duration": 0.5,
        "velocity": 100
      },
      {
        "pitch": 51,
        "duration": 0.5,
        "velocity": 100
      },
      {
        "pitch": 51,
        "duration": 0.5,
        "velocity": 100
      },
      {
        "pitch": 37,
        "duration": 0.25,
        "velocity": 100
      }
    ],
    "key": "G# minor",
    "tempo": 120,
    "name": "74c4313bdb65ea800399f5dbe7527d7a.mid_seg18",
    "avg_interval": 9.333333333333334,
    "span": 31,
    "note_density": 0.6979166666666667,
    "register": "bass",
    "complexity": 0.8252314814814815
  },
  {
    "events": [
      {
        "pitch": 61,
        "duration": 0.25,
        "velocity": 100
      },
      {
        "pitch": 66,
        "duration": 0.25,
        "velocity": 100
      },
      {
        "pitch": 39,
        "duration": 0.5,
        "velocity": 100
      },
      {
        "pitch": 87,
        "duration": 4.0,
        "velocity": 107
      },
      {
        "pitch": 37,
        "duration": 0.25,
        "velocity": 100
      },
      {
        "pitch": 39,
        "duration": 0.5,
        "velocity": 100
      },
      {
        "pitch": 63,
        "duration": 0.25,
        "velocity": 100
      },
      {
        "pitch": 63,
        "duration": 0.25,
        "velocity": 100
      },
      {
        "pitch": 51,
        "duration": 0.25,
        "velocity": 100
      },
      {
        "pitch": 51,
        "duration": 0.25,
        "velocity": 100
      },
      {
        "pitch": 32,
        "duration": 0.3333333333333333,
        "velocity": 100
      },
      {
        "pitch": 51,
        "duration": 0.25,
        "velocity": 100
      },
      {
        "pitch": 51,
        "duration": 0.25,
        "velocity": 100
      },
      {
        "pitch": 37,
        "duration": 0.25,
        "velocity": 100
      },
      {
        "pitch": 39,
        "duration": 0.25,
        "velocity": 100
      },
      {
        "pitch": 63,
        "duration": 0.25,
        "velocity": 100
      }
    ],
    "key": "G# minor",
    "tempo": 120,
    "name": "74c4313bdb65ea800399f5dbe7527d7a.mid_seg19",
    "avg_interval": 16.4,
    "span": 55,
    "note_density": 0.47916666666666674,
    "register": "bass",
    "complexity": 0.826388888888889
  },
  {
    "events": [
      {
        "pitch": 63,
        "duration": 0.25,
        "velocity": 100
      },
      {
        "pitch": 39,
        "duration": 0.25,
        "velocity": 100
      },
      {
        "pitch": 39,
        "duration": 0.5,
        "velocity": 100
      },
      {
        "pitch": 51,
        "duration": 0.5,
        "velocity": 100
      },
      {
        "pitch": 51,
        "duration": 0.5,
        "velocity": 100
      },
      {
        "pitch": 37,
        "duration": 0.25,
        "velocity": 100
      },
      {
        "pitch": 61,
        "duration": 0.25,
        "velocity": 100
      },
      {
        "pitch": 66,
        "duration": 0.25,
        "velocity": 100
      },
      {
        "pitch": 32,
        "duration": 1.5,
        "velocity": 100
      },
      {
        "pitch": 68,
        "duration": 4.0,
        "velocity": 104
      },
      {
        "pitch": 87,
        "duration": 0.5,
        "velocity": 107
      },
      {
        "pitch": 75,
        "duration": 0.5,
        "velocity": 100
      },
      {
        "pitch": 72,
        "duration": 3.0,
        "velocity": 104
      },
      {
        "pitch": 75,
        "duration": 0.25,
        "velocity": 100
      },
      {
        "pitch": 75,
        "duration": 2.5,
        "velocity": 104
      },
      {
        "pitch": 75,
        "duration": 0.25,
        "velocity": 100
      }
    ],
    "key": "G# minor",
    "tempo": 120,
    "name": "74c4313bdb65ea800399f5dbe7527d7a.mid_seg20",
    "avg_interval": 12.4,
    "span": 55,
    "note_density": 0.046875,
    "register": "middle",
    "complexity": 0.6822916666666666
  },
  {
    "events": [
      {
        "pitch": 32,
        "duration": 1.5,
        "velocity": 100
      },
      {
        "pitch": 75,
        "duration": 0.25,
        "velocity": 100
      },
      {
        "pitch": 32,
        "duration": 1.0,
        "velocity": 100
      },
      {
        "pitch": 75,
        "duration": 0.5,
        "velocity": 100
      },
      {
        "pitch": 75,
        "duration": 0.25,
        "velocity": 100
      },
      {
        "pitch": 30,
        "duration": 1.5,
        "velocity": 100
      },
      {
        "pitch": 73,
        "duration": 3.3333333333333335,
        "velocity": 104
      },
      {
        "pitch": 75,
        "duration": 0.5,
        "velocity": 100
      },
      {
        "pitch": 70,
        "duration": 2.75,
        "velocity": 105
      },
      {
        "pitch": 68,
        "duration": 2.5,
        "velocity": 105
      },
      {
        "pitch": 75,
        "duration": 0.25,
        "velocity": 100
      },
      {
        "pitch": 75,
        "duration": 0.25,
        "velocity": 100
      },
      {
        "pitch": 30,
        "duration": 0.25,
        "velocity": 100
      },
      {
        "pitch": 64,
        "duration": 2.0,
        "velocity": 105
      },
      {
        "pitch": 75,
        "duration": 0.25,
        "velocity": 100
      },
      {
        "pitch": 30,
        "duration": 0.5,
        "velocity": 100
      }
    ],
    "key": "G# minor",
    "tempo": 120,
    "name": "74c4313bdb65ea800399f5dbe7527d7a.mid_seg21",
    "avg_interval": 24.533333333333335,
    "span": 45,
    "note_density": 0.0,
    "register": "middle",
    "complexity": 0.6666666666666666
  },
  {
    "events": [
      {
        "pitch": 30,
        "duration": 0.25,
        "velocity": 100
      },
      {
        "pitch": 30,
        "duration": 0.5,
        "velocity": 100
      },
      {
        "pitch": 71,
        "duration": 0.25,
        "velocity": 100
      },
      {
        "pitch": 39,
        "duration": 0.5,
        "velocity": 100
      },
      {
        "pitch": 61,
        "duration": 0.3333333333333333,
        "velocity": 105
      },
      {
        "pitch": 63,
        "duration": 0.3333333333333333,
        "velocity": 105
      },
      {
        "pitch": 37,
        "duration": 0.25,
        "velocity": 100
      },
      {
        "pitch": 61,
        "duration": 0.25,
        "velocity": 105
      },
      {
        "pitch": 39,
        "duration": 0.5,
        "velocity": 100
      },
      {
        "pitch": 63,
        "duration": 0.25,
        "velocity": 105
      },
      {
        "pitch": 63,
        "duration": 0.25,
        "velocity": 100
      },
      {
        "pitch": 63,
        "duration": 0.25,
        "velocity": 100
      },
      {
        "pitch": 51,
        "duration": 0.25,
        "velocity": 100
      },
      {
        "pitch": 51,
        "duration": 0.25,
        "velocity": 100
      },
      {
        "pitch": 32,
        "duration": 0.3333333333333333,
        "velocity": 100
      },
      {
        "pitch": 61,
        "duration": 0.25,
        "velocity": 105
      }
    ],
    "key": "G# minor",
    "tempo": 120,
    "name": "74c4313bdb65ea800399f5dbe7527d7a.mid_seg22",
    "avg_interval": 16.866666666666667,
    "span": 41,
    "note_density": 0.6875,
    "register": "bass",
    "complexity": 0.8958333333333334
  },
  {
    "events": [
      {
        "pitch": 51,
        "duration": 0.25,
        "velocity": 100
      },
      {
        "pitch": 51,
        "duration": 0.25,
        "velocity": 100
      },
      {
        "pitch": 37,
        "duration": 0.25,
        "velocity": 100
      },
      {
        "pitch": 63,
        "duration": 0.3333333333333333,
        "velocity": 105
      },
      {
        "pitch": 39,
        "duration": 0.25,
        "velocity": 100
      },
      {
        "pitch": 63,
        "duration": 0.25,
        "velocity": 100
      },
      {
        "pitch": 63,
        "duration": 0.25,
        "velocity": 100
      },
      {
        "pitch": 39,
        "duration": 0.25,
        "velocity": 100
      },
      {
        "pitch": 61,
        "duration": 0.25,
        "velocity": 105
      },
      {
        "pitch": 39,
        "duration": 0.5,
        "velocity": 100
      },
      {
        "pitch": 63,
        "duration": 0.25,
        "velocity": 105
      },
      {
        "pitch": 51,
        "duration": 0.5,
        "velocity": 100
      },
      {
        "pitch": 51,
        "duration": 0.5,
        "velocity": 100
      },
      {
        "pitch": 37,
        "duration": 0.25,
        "velocity": 100
      },
      {
        "pitch": 61,
        "duration": 0.25,
        "velocity": 100
      },
      {
        "pitch": 66,
        "duration": 0.25,
        "velocity": 100
      }
    ],
    "key": "G# minor",
    "tempo": 120,
    "name": "74c4313bdb65ea800399f5dbe7527d7a.mid_seg23",
    "avg_interval": 15.666666666666666,
    "span": 29,
    "note_density": 0.6979166666666667,
    "register": "bass",
    "complexity": 0.8993055555555557
  },
  {
    "events": [
      {
        "pitch": 39,
        "duration": 0.5,
        "velocity": 100
      },
      {
        "pitch": 61,
        "duration": 0.3333333333333333,
        "velocity": 105
      },
      {
        "pitch": 63,
        "duration": 0.3333333333333333,
        "velocity": 105
      },
      {
        "pitch": 37,
        "duration": 0.25,
        "velocity": 100
      },
      {
        "pitch": 61,
        "duration": 0.25,
        "velocity": 105
      },
      {
        "pitch": 39,
        "duration": 0.5,
        "velocity": 100
      },
      {
        "pitch": 63,
        "duration": 0.25,
        "velocity": 105
      },
      {
        "pitch": 63,
        "duration": 0.25,
        "velocity": 100
      },
      {
        "pitch": 63,
        "duration": 0.25,
        "velocity": 100
      },
      {
        "pitch": 51,
        "duration": 0.25,
        "velocity": 100
      },
      {
        "pitch": 51,
        "duration": 0.25,
        "velocity": 100
      },
      {
        "pitch": 32,
        "duration": 0.3333333333333333,
        "velocity": 100
      },
      {
        "pitch": 61,
        "duration": 0.25,
        "velocity": 105
      },
      {
        "pitch": 51,
        "duration": 0.25,
        "velocity": 100
      },
      {
        "pitch": 51,
        "duration": 0.25,
        "velocity": 100
      },
      {
        "pitch": 37,
        "duration": 0.25,
        "velocity": 100
      }
    ],
    "key": "G# minor",
    "tempo": 120,
    "name": "74c4313bdb65ea800399f5dbe7527d7a.mid_seg24",
    "avg_interval": 13.6,
    "span": 31,
    "note_density": 0.703125,
    "register": "bass",
    "complexity": 0.9010416666666666
  },
  {
    "events": [
      {
        "pitch": 63,
        "duration": 0.25,
        "velocity": 105
      },
      {
        "pitch": 39,
        "duration": 0.25,
        "velocity": 100
      },
      {
        "pitch": 63,
        "duration": 0.25,
        "velocity": 100
      },
      {
        "pitch": 63,
        "duration": 0.25,
        "velocity": 100
      },
      {
        "pitch": 39,
        "duration": 0.25,
        "velocity": 100
      },
      {
        "pitch": 39,
        "duration": 0.5,
        "velocity": 100
      },
      {
        "pitch": 51,
        "duration": 0.5,
        "velocity": 100
      },
      {
        "pitch": 51,
        "duration": 0.5,
        "velocity": 100
      },
      {
        "pitch": 37,
        "duration": 0.25,
        "velocity": 100
      },
      {
        "pitch": 61,
        "duration": 0.25,
        "velocity": 100
      },
      {
        "pitch": 63,
        "duration": 0.25,
        "velocity": 105
      },
      {
        "pitch": 66,
        "duration": 0.25,
        "velocity": 100
      },
      {
        "pitch": 34,
        "duration": 0.75,
        "velocity": 100
      },
      {
        "pitch": 63,
        "duration": 0.5,
        "velocity": 105
      },
      {
        "pitch": 62,
        "duration": 0.5,
        "velocity": 105
      },
      {
        "pitch": 60,
        "duration": 0.5,
        "velocity": 105
      }
    ],
    "key": "G# minor",
    "tempo": 120,
    "name": "74c4313bdb65ea800399f5dbe7527d7a.mid_seg25",
    "avg_interval": 12.733333333333333,
    "span": 32,
    "note_density": 0.625,
    "register": "bass",
    "complexity": 0.875
  },
  {
    "events": [
      {
        "pitch": 32,
        "duration": 1.0,
        "velocity": 100
      },
      {
        "pitch": 62,
        "duration": 1.0,
        "velocity": 105
      },
      {
        "pitch": 44,
        "duration": 2.25,
        "velocity": 105
      },
      {
        "pitch": 56,
        "duration": 1.75,
        "velocity": 105
      },
      {
        "pitch": 32,
        "duration": 0.25,
        "velocity": 100
      },
      {
        "pitch": 63,
        "duration": 1.5,
        "velocity": 105
      },
      {
        "pitch": 28,
        "duration": 0.75,
        "velocity": 100
      },
      {
        "pitch": 59,
        "duration": 0.5,
        "velocity": 105
      },
      {
        "pitch": 61,
        "duration": 0.5,
        "velocity": 105
      },
      {
        "pitch": 28,
        "duration": 0.25,
        "velocity": 100
      },
      {
        "pitch": 59,
        "duration": 0.5,
        "velocity": 105
      },
      {
        "pitch": 30,
        "duration": 1.0,
        "velocity": 100
      },
      {
        "pitch": 59,
        "duration": 1.0,
        "velocity": 109
      },
      {
        "pitch": 30,
        "duration": 0.25,
        "velocity": 100
      },
      {
        "pitch": 58,
        "duration": 0.5,
        "velocity": 105
      },
      {
        "pitch": 58,
        "duration": 1.0,
        "velocity": 108
      }
    ],
    "key": "G# minor",
    "tempo": 120,
    "name": "74c4313bdb65ea800399f5dbe7527d7a.mid_seg26",
    "avg_interval": 24.133333333333333,
    "span": 35,
    "note_density": 0.125,
    "register": "bass",
    "complexity": 0.7083333333333334
  },
  {
    "events": [
      {
        "pitch": 34,
        "duration": 0.75,
        "velocity": 100
      },
      {
        "pitch": 75,
        "duration": 0.5,
        "velocity": 106
      },
      {
        "pitch": 63,
        "duration": 0.5,
        "velocity": 106
      },
      {
        "pitch": 62,
        "duration": 0.5,
        "velocity": 106
      },
      {
        "pitch": 74,
        "duration": 0.25,
        "velocity": 106
      },
      {
        "pitch": 72,
        "duration": 0.5,
        "velocity": 106
      },
      {
        "pitch": 60,
        "duration": 0.5,
        "velocity": 106
      },
      {
        "pitch": 32,
        "duration": 1.0,
        "velocity": 100
      },
      {
        "pitch": 74,
        "duration": 1.0,
        "velocity": 106
      },
      {
        "pitch": 62,
        "duration": 1.0,
        "velocity": 106
      },
      {
        "pitch": 56,
        "duration": 2.0,
        "velocity": 106
      },
      {
        "pitch": 44,
        "duration": 2.25,
        "velocity": 106
      },
      {
        "pitch": 75,
        "duration": 1.5,
        "velocity": 106
      },
      {
        "pitch": 32,
        "duration": 0.25,
        "velocity": 100
      },
      {
        "pitch": 63,
        "duration": 1.0,
        "velocity": 105
      },
      {
        "pitch": 28,
        "duration": 0.75,
        "velocity": 100
      }
    ],
    "key": "G# minor",
    "tempo": 120,
    "name": "74c4313bdb65ea800399f5dbe7527d7a.mid_seg27",
    "avg_interval": 21.333333333333332,
    "span": 47,
    "note_density": 0.109375,
    "register": "middle",
    "complexity": 0.703125
  },
  {
    "events": [
      {
        "pitch": 71,
        "duration": 0.25,
        "velocity": 106
      },
      {
        "pitch": 59,
        "duration": 0.5,
        "velocity": 106
      },
      {
        "pitch": 71,
        "duration": 0.25,
        "velocity": 106
      },
      {
        "pitch": 61,
        "duration": 0.5,
        "velocity": 106
      },
      {
        "pitch": 73,
        "duration": 0.3333333333333333,
        "velocity": 106
      },
      {
        "pitch": 28,
        "duration": 0.25,
        "velocity": 100
      },
      {
        "pitch": 71,
        "duration": 0.3333333333333333,
        "velocity": 106
      },
      {
        "pitch": 59,
        "duration": 0.5,
        "velocity": 105
      },
      {
        "pitch": 71,
        "duration": 1.25,
        "velocity": 106
      },
      {
        "pitch": 30,
        "duration": 1.0,
        "velocity": 100
      },
      {
        "pitch": 59,
        "duration": 1.0,
        "velocity": 105
      },
      {
        "pitch": 30,
        "duration": 0.25,
        "velocity": 100
      },
      {
        "pitch": 70,
        "duration": 1.25,
        "velocity": 106
      },
      {
        "pitch": 58,
        "duration": 0.5,
        "velocity": 105
      },
      {
        "pitch": 58,
        "duration": 1.0,
        "velocity": 106
      },
      {
        "pitch": 34,
        "duration": 0.75,
        "velocity": 100
      }
    ],
    "key": "G# minor",
    "tempo": 120,
    "name": "74c4313bdb65ea800399f5dbe7527d7a.mid_seg28",
    "avg_interval": 22.2,
    "span": 45,
    "note_density": 0.38020833333333337,
    "register": "middle",
    "complexity": 0.7934027777777778
  },
  {
    "events": [
      {
        "pitch": 75,
        "duration": 0.5,
        "velocity": 106
      },
      {
        "pitch": 63,
        "duration": 0.5,
        "velocity": 106
      },
      {
        "pitch": 62,
        "duration": 0.5,
        "velocity": 105
      },
      {
        "pitch": 74,
        "duration": 0.25,
        "velocity": 106
      },
      {
        "pitch": 72,
        "duration": 0.5,
        "velocity": 106
      },
      {
        "pitch": 60,
        "duration": 0.5,
        "velocity": 106
      },
      {
        "pitch": 32,
        "duration": 1.0,
        "velocity": 100
      },
      {
        "pitch": 74,
        "duration": 1.0,
        "velocity": 106
      },
      {
        "pitch": 62,
        "duration": 1.0,
        "velocity": 106
      },
      {
        "pitch": 44,
        "duration": 2.25,
        "velocity": 106
      },
      {
        "pitch": 56,
        "duration": 1.75,
        "velocity": 106
      },
      {
        "pitch": 75,
        "duration": 1.5,
        "velocity": 106
      },
      {
        "pitch": 32,
        "duration": 0.25,
        "velocity": 100
      },
      {
        "pitch": 63,
        "duration": 0.5,
        "velocity": 105
      },
      {
        "pitch": 63,
        "duration": 0.25,
        "velocity": 107
      },
      {
        "pitch": 71,
        "duration": 0.25,
        "velocity": 106
      }
    ],
    "key": "G# minor",
    "tempo": 120,
    "name": "74c4313bdb65ea800399f5dbe7527d7a.mid_seg29",
    "avg_interval": 16.8,
    "span": 43,
    "note_density": 0.21875,
    "register": "middle",
    "complexity": 0.7395833333333334
  },
  {
    "events": [
      {
        "pitch": 28,
        "duration": 0.75,
        "velocity": 100
      },
      {
        "pitch": 71,
        "duration": 0.25,
        "velocity": 106
      },
      {
        "pitch": 59,
        "duration": 0.5,
        "velocity": 106
      },
      {
        "pitch": 73,
        "duration": 0.5,
        "velocity": 106
      },
      {
        "pitch": 61,
        "duration": 0.5,
        "velocity": 106
      },
      {
        "pitch": 28,
        "duration": 0.25,
        "velocity": 100
      },
      {
        "pitch": 71,
        "duration": 0.25,
        "velocity": 106
      },
      {
        "pitch": 59,
        "duration": 0.5,
        "velocity": 105
      },
      {
        "pitch": 30,
        "duration": 1.0,
        "velocity": 100
      },
      {
        "pitch": 71,
        "duration": 0.75,
        "velocity": 106
      },
      {
        "pitch": 59,
        "duration": 1.0,
        "velocity": 105
      },
      {
        "pitch": 30,
        "duration": 0.25,
        "velocity": 100
      },
      {
        "pitch": 71,
        "duration": 0.25,
        "velocity": 106
      },
      {
        "pitch": 58,
        "duration": 0.5,
        "velocity": 105
      },
      {
        "pitch": 70,
        "duration": 1.25,
        "velocity": 106
      },
      {
        "pitch": 58,
        "duration": 1.0,
        "velocity": 109
      }
    ],
    "key": "G# minor",
    "tempo": 120,
    "name": "74c4313bdb65ea800399f5dbe7527d7a.mid_seg30",
    "avg_interval": 23.866666666666667,
    "span": 45,
    "note_density": 0.40625,
    "register": "middle",
    "complexity": 0.8020833333333334
  },
  {
    "events": [
      {
        "pitch": 34,
        "duration": 0.75,
        "velocity": 100
      },
      {
        "pitch": 75,
        "duration": 0.5,
        "velocity": 106
      },
      {
        "pitch": 63,
        "duration": 0.5,
        "velocity": 106
      },
      {
        "pitch": 62,
        "duration": 0.5,
        "velocity": 105
      },
      {
        "pitch": 74,
        "duration": 0.25,
        "velocity": 106
      },
      {
        "pitch": 72,
        "duration": 0.5,
        "velocity": 106
      },
      {
        "pitch": 60,
        "duration": 0.5,
        "velocity": 106
      },
      {
        "pitch": 32,
        "duration": 1.0,
        "velocity": 100
      },
      {
        "pitch": 74,
        "duration": 1.0,
        "velocity": 106
      },
      {
        "pitch": 62,
        "duration": 0.75,
        "velocity": 106
      },
      {
        "pitch": 75,
        "duration": 1.6666666666666667,
        "velocity": 106
      },
      {
        "pitch": 32,
        "duration": 0.25,
        "velocity": 100
      },
      {
        "pitch": 63,
        "duration": 1.25,
        "velocity": 106
      },
      {
        "pitch": 28,
        "duration": 1.5,
        "velocity": 100
      },
      {
        "pitch": 71,
        "duration": 0.5,
        "velocity": 106
      },
      {
        "pitch": 59,
        "duration": 0.5,
        "velocity": 107
      }
    ],
    "key": "G# minor",
    "tempo": 120,
    "name": "74c4313bdb65ea800399f5dbe7527d7a.mid_seg31",
    "avg_interval": 22.6,
    "span": 47,
    "note_density": 0.25520833333333326,
    "register": "middle",
    "complexity": 0.751736111111111
  },
  {
    "events": [
      {
        "pitch": 73,
        "duration": 0.5,
        "velocity": 107
      },
      {
        "pitch": 61,
        "duration": 0.5,
        "velocity": 105
      },
      {
        "pitch": 71,
        "duration": 0.25,
        "velocity": 107
      },
      {
        "pitch": 59,
        "duration": 0.5,
        "velocity": 105
      },
      {
        "pitch": 30,
        "duration": 1.5,
        "velocity": 100
      },
      {
        "pitch": 73,
        "duration": 2.25,
        "velocity": 107
      },
      {
        "pitch": 59,
        "duration": 1.0,
        "velocity": 105
      },
      {
        "pitch": 58,
        "duration": 0.5,
        "velocity": 105
      },
      {
        "pitch": 30,
        "duration": 1.0,
        "velocity": 100
      },
      {
        "pitch": 58,
        "duration": 1.0,
        "velocity": 105
      },
      {
        "pitch": 39,
        "duration": 0.5,
        "velocity": 100
      },
      {
        "pitch": 61,
        "duration": 0.25,
        "velocity": 107
      },
      {
        "pitch": 63,
        "duration": 0.25,
        "velocity": 107
      },
      {
        "pitch": 37,
        "duration": 0.25,
        "velocity": 100
      },
      {
        "pitch": 61,
        "duration": 0.25,
        "velocity": 107
      },
      {
        "pitch": 39,
        "duration": 0.5,
        "velocity": 100
      }
    ],
    "key": "G# minor",
    "tempo": 120,
    "name": "74c4313bdb65ea800399f5dbe7527d7a.mid_seg32",
    "avg_interval": 19.466666666666665,
    "span": 43,
    "note_density": 0.3125,
    "register": "bass",
    "complexity": 0.7708333333333334
  },
  {
    "events": [
      {
        "pitch": 63,
        "duration": 0.25,
        "velocity": 107
      },
      {
        "pitch": 63,
        "duration": 0.25,
        "velocity": 100
      },
      {
        "pitch": 63,
        "duration": 0.25,
        "velocity": 100
      },
      {
        "pitch": 51,
        "duration": 0.25,
        "velocity": 100
      },
      {
        "pitch": 51,
        "duration": 0.25,
        "velocity": 100
      },
      {
        "pitch": 32,
        "duration": 0.3333333333333333,
        "velocity": 100
      },
      {
        "pitch": 61,
        "duration": 0.25,
        "velocity": 107
      },
      {
        "pitch": 51,
        "duration": 0.25,
        "velocity": 100
      },
      {
        "pitch": 51,
        "duration": 0.25,
        "velocity": 100
      },
      {
        "pitch": 37,
        "duration": 0.25,
        "velocity": 100
      },
      {
        "pitch": 61,
        "duration": 0.25,
        "velocity": 107
      },
      {
        "pitch": 39,
        "duration": 0.25,
        "velocity": 100
      },
      {
        "pitch": 63,
        "duration": 0.25,
        "velocity": 100
      },
      {
        "pitch": 63,
        "duration": 0.25,
        "velocity": 100
      },
      {
        "pitch": 39,
        "duration": 0.25,
        "velocity": 100
      },
      {
        "pitch": 39,
        "duration": 0.5,
        "velocity": 100
      }
    ],
    "key": "G# minor",
    "tempo": 120,
    "name": "74c4313bdb65ea800399f5dbe7527d7a.mid_seg33",
    "avg_interval": 11.866666666666667,
    "span": 31,
    "note_density": 0.7291666666666667,
    "register": "bass",
    "complexity": 0.9060185185185187
  },
  {
    "events": [
      {
        "pitch": 63,
        "duration": 0.25,
        "velocity": 107
      },
      {
        "pitch": 51,
        "duration": 0.5,
        "velocity": 100
      },
      {
        "pitch": 51,
        "duration": 0.5,
        "velocity": 100
      },
      {
        "pitch": 37,
        "duration": 0.25,
        "velocity": 100
      },
      {
        "pitch": 61,
        "duration": 0.25,
        "velocity": 107
      },
      {
        "pitch": 61,
        "duration": 0.25,
        "velocity": 100
      },
      {
        "pitch": 61,
        "duration": 0.25,
        "velocity": 107
      },
      {
        "pitch": 61,
        "duration": 0.25,
        "velocity": 107
      },
      {
        "pitch": 66,
        "duration": 0.25,
        "velocity": 100
      },
      {
        "pitch": 39,
        "duration": 0.5,
        "velocity": 100
      },
      {
        "pitch": 63,
        "duration": 0.25,
        "velocity": 107
      },
      {
        "pitch": 63,
        "duration": 0.25,
        "velocity": 107
      },
      {
        "pitch": 61,
        "duration": 0.25,
        "velocity": 107
      },
      {
        "pitch": 37,
        "duration": 0.25,
        "velocity": 100
      },
      {
        "pitch": 39,
        "duration": 0.5,
        "velocity": 100
      },
      {
        "pitch": 63,
        "duration": 0.3333333333333333,
        "velocity": 107
      }
    ],
    "key": "G# minor",
    "tempo": 120,
    "name": "74c4313bdb65ea800399f5dbe7527d7a.mid_seg34",
    "avg_interval": 10.533333333333333,
    "span": 29,
    "note_density": 0.6822916666666667,
    "register": "bass",
    "complexity": 0.8533564814814815
  },
  {
    "events": [
      {
        "pitch": 63,
        "duration": 0.25,
        "velocity": 100
      },
      {
        "pitch": 63,
        "duration": 0.25,
        "velocity": 100
      },
      {
        "pitch": 51,
        "duration": 0.25,
        "velocity": 100
      },
      {
        "pitch": 51,
        "duration": 0.25,
        "velocity": 100
      },
      {
        "pitch": 32,
        "duration": 0.3333333333333333,
        "velocity": 100
      },
      {
        "pitch": 61,
        "duration": 0.3333333333333333,
        "velocity": 107
      },
      {
        "pitch": 51,
        "duration": 0.25,
        "velocity": 100
      },
      {
        "pitch": 51,
        "duration": 0.25,
        "velocity": 100
      },
      {
        "pitch": 37,
        "duration": 0.25,
        "velocity": 100
      },
      {
        "pitch": 63,
        "duration": 0.25,
        "velocity": 107
      },
      {
        "pitch": 39,
        "duration": 0.25,
        "velocity": 100
      },
      {
        "pitch": 61,
        "duration": 0.25,
        "velocity": 107
      },
      {
        "pitch": 63,
        "duration": 0.25,
        "velocity": 100
      },
      {
        "pitch": 63,
        "duration": 0.25,
        "velocity": 100
      },
      {
        "pitch": 39,
        "duration": 0.25,
        "velocity": 100
      },
      {
        "pitch": 63,
        "duration": 0.25,
        "velocity": 107
      }
    ],
    "key": "G# minor",
    "tempo": 120,
    "name": "74c4313bdb65ea800399f5dbe7527d7a.mid_seg35",
    "avg_interval": 13.733333333333333,
    "span": 31,
    "note_density": 0.7395833333333334,
    "register": "bass",
    "complexity": 0.9131944444444445
  },
  {
    "events": [
      {
        "pitch": 39,
        "duration": 0.5,
        "velocity": 100
      },
      {
        "pitch": 51,
        "duration": 0.5,
        "velocity": 100
      },
      {
        "pitch": 51,
        "duration": 0.5,
        "velocity": 100
      },
      {
        "pitch": 63,
        "duration": 0.25,
        "velocity": 107
      },
      {
        "pitch": 37,
        "duration": 0.25,
        "velocity": 100
      },
      {
        "pitch": 61,
        "duration": 0.25,
        "velocity": 100
      },
      {
        "pitch": 63,
        "duration": 0.25,
        "velocity": 107
      },
      {
        "pitch": 66,
        "duration": 0.25,
        "velocity": 100
      },
      {
        "pitch": 39,
        "duration": 0.5,
        "velocity": 100
      },
      {
        "pitch": 61,
        "duration": 0.25,
        "velocity": 107
      },
      {
        "pitch": 63,
        "duration": 0.25,
        "velocity": 107
      },
      {
        "pitch": 37,
        "duration": 0.25,
        "velocity": 100
      },
      {
        "pitch": 61,
        "duration": 0.25,
        "velocity": 107
      },
      {
        "pitch": 39,
        "duration": 0.5,
        "velocity": 100
      },
      {
        "pitch": 63,
        "duration": 0.25,
        "velocity": 107
      },
      {
        "pitch": 63,
        "duration": 0.25,
        "velocity": 100
      }
    ],
    "key": "G# minor",
    "tempo": 120,
    "name": "74c4313bdb65ea800399f5dbe7527d7a.mid_seg36",
    "avg_interval": 15.066666666666666,
    "span": 29,
    "note_density": 0.671875,
    "register": "bass",
    "complexity": 0.890625
  },
  {
    "events": [
      {
        "pitch": 63,
        "duration": 0.25,
        "velocity": 100
      },
      {
        "pitch": 51,
        "duration": 0.25,
        "velocity": 100
      },
      {
        "pitch": 51,
        "duration": 0.25,
        "velocity": 100
      },
      {
        "pitch": 32,
        "duration": 0.3333333333333333,
        "velocity": 100
      },
      {
        "pitch": 61,
        "duration": 0.25,
        "velocity": 107
      },
      {
        "pitch": 51,
        "duration": 0.25,
        "velocity": 100
      },
      {
        "pitch": 51,
        "duration": 0.25,
        "velocity": 100
      },
      {
        "pitch": 37,
        "duration": 0.25,
        "velocity": 100
      },
      {
        "pitch": 61,
        "duration": 0.25,
        "velocity": 107
      },
      {
        "pitch": 39,
        "duration": 0.25,
        "velocity": 100
      },
      {
        "pitch": 63,
        "duration": 0.25,
        "velocity": 107
      },
      {
        "pitch": 63,
        "duration": 0.25,
        "velocity": 100
      },
      {
        "pitch": 63,
        "duration": 0.25,
        "velocity": 100
      },
      {
        "pitch": 39,
        "duration": 0.25,
        "velocity": 100
      },
      {
        "pitch": 61,
        "duration": 0.25,
        "velocity": 107
      },
      {
        "pitch": 39,
        "duration": 0.5,
        "velocity": 100
      }
    ],
    "key": "G# minor",
    "tempo": 120,
    "name": "74c4313bdb65ea800399f5dbe7527d7a.mid_seg37",
    "avg_interval": 14.8,
    "span": 31,
    "note_density": 0.7291666666666667,
    "register": "bass",
    "complexity": 0.9097222222222223
  },
  {
    "events": [
      {
        "pitch": 63,
        "duration": 0.3333333333333333,
        "velocity": 107
      },
      {
        "pitch": 51,
        "duration": 0.5,
        "velocity": 100
      },
      {
        "pitch": 51,
        "duration": 0.5,
        "velocity": 100
      },
      {
        "pitch": 37,
        "duration": 0.25,
        "velocity": 100
      },
      {
        "pitch": 61,
        "duration": 0.25,
        "velocity": 100
      },
      {
        "pitch": 63,
        "duration": 0.3333333333333333,
        "velocity": 107
      },
      {
        "pitch": 66,
        "duration": 0.25,
        "velocity": 100
      },
      {
        "pitch": 39,
        "duration": 0.5,
        "velocity": 100
      },
      {
        "pitch": 63,
        "duration": 0.25,
        "velocity": 107
      },
      {
        "pitch": 63,
        "duration": 0.25,
        "velocity": 107
      },
      {
        "pitch": 37,
        "duration": 0.25,
        "velocity": 100
      },
      {
        "pitch": 61,
        "duration": 0.25,
        "velocity": 107
      },
      {
        "pitch": 39,
        "duration": 0.5,
        "velocity": 100
      },
      {
        "pitch": 63,
        "duration": 0.25,
        "velocity": 107
      },
      {
        "pitch": 63,
        "duration": 0.25,
        "velocity": 100
      },
      {
        "pitch": 63,
        "duration": 0.25,
        "velocity": 100
      }
    ],
    "key": "G# minor",
    "tempo": 120,
    "name": "74c4313bdb65ea800399f5dbe7527d7a.mid_seg38",
    "avg_interval": 13.466666666666667,
    "span": 29,
    "note_density": 0.6770833333333334,
    "register": "middle",
    "complexity": 0.8923611111111112
  },
  {
    "events": [
      {
        "pitch": 51,
        "duration": 0.25,
        "velocity": 100
      },
      {
        "pitch": 51,
        "duration": 0.25,
        "velocity": 100
      },
      {
        "pitch": 32,
        "duration": 0.3333333333333333,
        "velocity": 100
      },
      {
        "pitch": 61,
        "duration": 0.25,
        "velocity": 107
      },
      {
        "pitch": 51,
        "duration": 0.25,
        "velocity": 100
      },
      {
        "pitch": 51,
        "duration": 0.25,
        "velocity": 100
      },
      {
        "pitch": 37,
        "duration": 0.25,
        "velocity": 100
      },
      {
        "pitch": 61,
        "duration": 0.25,
        "velocity": 107
      },
      {
        "pitch": 39,
        "duration": 0.25,
        "velocity": 100
      },
      {
        "pitch": 63,
        "duration": 0.25,
        "velocity": 107
      },
      {
        "pitch": 63,
        "duration": 0.25,
        "velocity": 100
      },
      {
        "pitch": 63,
        "duration": 0.25,
        "velocity": 100
      },
      {
        "pitch": 39,
        "duration": 0.25,
        "velocity": 100
      },
      {
        "pitch": 61,
        "duration": 0.25,
        "velocity": 107
      },
      {
        "pitch": 39,
        "duration": 0.5,
        "velocity": 100
      },
      {
        "pitch": 63,
        "duration": 0.25,
        "velocity": 107
      }
    ],
    "key": "G# minor",
    "tempo": 120,
    "name": "74c4313bdb65ea800399f5dbe7527d7a.mid_seg39",
    "avg_interval": 15.6,
    "span": 31,
    "note_density": 0.7291666666666667,
    "register": "bass",
    "complexity": 0.9097222222222223
  },
  {
    "events": [
      {
        "pitch": 51,
        "duration": 0.5,
        "velocity": 100
      },
      {
        "pitch": 51,
        "duration": 0.5,
        "velocity": 100
      },
      {
        "pitch": 37,
        "duration": 0.25,
        "velocity": 100
      },
      {
        "pitch": 61,
        "duration": 0.25,
        "velocity": 100
      },
      {
        "pitch": 63,
        "duration": 0.25,
        "velocity": 107
      },
      {
        "pitch": 66,
        "duration": 0.25,
        "velocity": 100
      },
      {
        "pitch": 39,
        "duration": 0.5,
        "velocity": 100
      },
      {
        "pitch": 37,
        "duration": 0.25,
        "velocity": 100
      },
      {
        "pitch": 39,
        "duration": 0.5,
        "velocity": 100
      },
      {
        "pitch": 63,
        "duration": 0.25,
        "velocity": 100
      },
      {
        "pitch": 63,
        "duration": 0.25,
        "velocity": 100
      },
      {
        "pitch": 51,
        "duration": 0.25,
        "velocity": 100
      },
      {
        "pitch": 51,
        "duration": 0.25,
        "velocity": 100
      },
      {
        "pitch": 32,
        "duration": 0.3333333333333333,
        "velocity": 100
      },
      {
        "pitch": 51,
        "duration": 0.25,
        "velocity": 100
      },
      {
        "pitch": 51,
        "duration": 0.25,
        "velocity": 100
      }
    ],
    "key": "G# minor",
    "tempo": 120,
    "name": "74c4313bdb65ea800399f5dbe7527d7a.mid_seg40",
    "avg_interval": 9.866666666666667,
    "span": 34,
    "note_density": 0.6822916666666667,
    "register": "bass",
    "complexity": 0.834837962962963
  },
  {
    "events": [
      {
        "pitch": 37,
        "duration": 0.25,
        "velocity": 100
      },
      {
        "pitch": 39,
        "duration": 0.25,
        "velocity": 100
      },
      {
        "pitch": 63,
        "duration": 0.25,
        "velocity": 100
      },
      {
        "pitch": 63,
        "duration": 0.25,
        "velocity": 100
      },
      {
        "pitch": 39,
        "duration": 0.25,
        "velocity": 100
      },
      {
        "pitch": 39,
        "duration": 0.5,
        "velocity": 100
      },
      {
        "pitch": 51,
        "duration": 0.5,
        "velocity": 100
      },
      {
        "pitch": 51,
        "duration": 0.5,
        "velocity": 100
      },
      {
        "pitch": 37,
        "duration": 0.25,
        "velocity": 100
      },
      {
        "pitch": 61,
        "duration": 0.25,
        "velocity": 100
      },
      {
        "pitch": 66,
        "duration": 0.25,
        "velocity": 100
      },
      {
        "pitch": 39,
        "duration": 0.5,
        "velocity": 100
      },
      {
        "pitch": 37,
        "duration": 0.25,
        "velocity": 100
      },
      {
        "pitch": 39,
        "duration": 0.5,
        "velocity": 100
      },
      {
        "pitch": 63,
        "duration": 0.25,
        "velocity": 100
      },
      {
        "pitch": 63,
        "duration": 0.25,
        "velocity": 100
      }
    ],
    "key": "G# minor",
    "tempo": 120,
    "name": "74c4313bdb65ea800399f5dbe7527d7a.mid_seg41",
    "avg_interval": 10.666666666666666,
    "span": 29,
    "note_density": 0.671875,
    "register": "bass",
    "complexity": 0.8535879629629629
  },
  {
    "events": [
      {
        "pitch": 51,
        "duration": 0.25,
        "velocity": 100
      },
      {
        "pitch": 51,
        "duration": 0.25,
        "velocity": 100
      },
      {
        "pitch": 32,
        "duration": 0.3333333333333333,
        "velocity": 100
      },
      {
        "pitch": 51,
        "duration": 0.25,
        "velocity": 100
      },
      {
        "pitch": 51,
        "duration": 0.25,
        "velocity": 100
      },
      {
        "pitch": 37,
        "duration": 0.25,
        "velocity": 100
      },
      {
        "pitch": 39,
        "duration": 0.25,
        "velocity": 100
      },
      {
        "pitch": 63,
        "duration": 0.25,
        "velocity": 100
      },
      {
        "pitch": 63,
        "duration": 0.25,
        "velocity": 100
      },
      {
        "pitch": 39,
        "duration": 0.25,
        "velocity": 100
      },
      {
        "pitch": 39,
        "duration": 0.5,
        "velocity": 100
      },
      {
        "pitch": 51,
        "duration": 0.5,
        "velocity": 100
      },
      {
        "pitch": 51,
        "duration": 0.5,
        "velocity": 100
      },
      {
        "pitch": 37,
        "duration": 0.25,
        "velocity": 100
      },
      {
        "pitch": 61,
        "duration": 0.25,
        "velocity": 100
      },
      {
        "pitch": 66,
        "duration": 0.25,
        "velocity": 100
      }
    ],
    "key": "G# minor",
    "tempo": 120,
    "name": "74c4313bdb65ea800399f5dbe7527d7a.mid_seg42",
    "avg_interval": 10.466666666666667,
    "span": 34,
    "note_density": 0.6979166666666667,
    "register": "bass",
    "complexity": 0.856712962962963
  },
  {
    "events": [
      {
        "pitch": 39,
        "duration": 0.5,
        "velocity": 100
      },
      {
        "pitch": 37,
        "duration": 0.25,
        "velocity": 100
      },
      {
        "pitch": 39,
        "duration": 0.5,
        "velocity": 100
      },
      {
        "pitch": 63,
        "duration": 0.25,
        "velocity": 100
      },
      {
        "pitch": 63,
        "duration": 0.25,
        "velocity": 100
      },
      {
        "pitch": 51,
        "duration": 0.25,
        "velocity": 100
      },
      {
        "pitch": 51,
        "duration": 0.25,
        "velocity": 100
      },
      {
        "pitch": 32,
        "duration": 0.3333333333333333,
        "velocity": 100
      },
      {
        "pitch": 51,
        "duration": 0.25,
        "velocity": 100
      },
      {
        "pitch": 51,
        "duration": 0.25,
        "velocity": 100
      },
      {
        "pitch": 37,
        "duration": 0.25,
        "velocity": 100
      },
      {
        "pitch": 39,
        "duration": 0.25,
        "velocity": 100
      },
      {
        "pitch": 63,
        "duration": 0.25,
        "velocity": 100
      },
      {
        "pitch": 63,
        "duration": 0.25,
        "velocity": 100
      },
      {
        "pitch": 39,
        "duration": 0.25,
        "velocity": 100
      },
      {
        "pitch": 39,
        "duration": 0.5,
        "velocity": 100
      }
    ],
    "key": "G# minor",
    "tempo": 120,
    "name": "74c4313bdb65ea800399f5dbe7527d7a.mid_seg43",
    "avg_interval": 9.466666666666667,
    "span": 31,
    "note_density": 0.6979166666666666,
    "register": "bass",
    "complexity": 0.828935185185185
  },
  {
    "events": [
      {
        "pitch": 51,
        "duration": 0.5,
        "velocity": 100
      },
      {
        "pitch": 51,
        "duration": 0.5,
        "velocity": 100
      },
      {
        "pitch": 37,
        "duration": 0.25,
        "velocity": 100
      },
      {
        "pitch": 61,
        "duration": 0.25,
        "velocity": 100
      },
      {
        "pitch": 66,
        "duration": 0.25,
        "velocity": 100
      },
      {
        "pitch": 39,
        "duration": 0.5,
        "velocity": 100
      },
      {
        "pitch": 37,
        "duration": 0.25,
        "velocity": 100
      },
      {
        "pitch": 39,
        "duration": 0.5,
        "velocity": 100
      },
      {
        "pitch": 63,
        "duration": 0.25,
        "velocity": 100
      },
      {
        "pitch": 63,
        "duration": 0.25,
        "velocity": 100
      },
      {
        "pitch": 51,
        "duration": 0.25,
        "velocity": 100
      },
      {
        "pitch": 51,
        "duration": 0.25,
        "velocity": 100
      },
      {
        "pitch": 32,
        "duration": 0.3333333333333333,
        "velocity": 100
      },
      {
        "pitch": 51,
        "duration": 0.25,
        "velocity": 100
      },
      {
        "pitch": 51,
        "duration": 0.25,
        "velocity": 100
      },
      {
        "pitch": 37,
        "duration": 0.25,
        "velocity": 100
      }
    ],
    "key": "G# minor",
    "tempo": 120,
    "name": "74c4313bdb65ea800399f5dbe7527d7a.mid_seg44",
    "avg_interval": 10.8,
    "span": 34,
    "note_density": 0.6822916666666667,
    "register": "bass",
    "complexity": 0.8607638888888888
  },
  {
    "events": [
      {
        "pitch": 39,
        "duration": 0.25,
        "velocity": 100
      },
      {
        "pitch": 63,
        "duration": 0.25,
        "velocity": 100
      },
      {
        "pitch": 63,
        "duration": 0.25,
        "velocity": 100
      },
      {
        "pitch": 39,
        "duration": 0.25,
        "velocity": 100
      },
      {
        "pitch": 39,
        "duration": 0.5,
        "velocity": 100
      },
      {
        "pitch": 51,
        "duration": 0.5,
        "velocity": 100
      },
      {
        "pitch": 51,
        "duration": 0.5,
        "velocity": 100
      },
      {
        "pitch": 37,
        "duration": 0.25,
        "velocity": 100
      },
      {
        "pitch": 61,
        "duration": 0.25,
        "velocity": 100
      },
      {
        "pitch": 66,
        "duration": 0.25,
        "velocity": 100
      },
      {
        "pitch": 32,
        "duration": 1.5,
        "velocity": 100
      },
      {
        "pitch": 68,
        "duration": 4.0,
        "velocity": 108
      },
      {
        "pitch": 39,
        "duration": 0.75,
        "velocity": 108
      },
      {
        "pitch": 51,
        "duration": 4.0,
        "velocity": 108
      },
      {
        "pitch": 72,
        "duration": 3.0,
        "velocity": 108
      },
      {
        "pitch": 75,
        "duration": 0.25,
        "velocity": 100
      }
    ],
    "key": "G# minor",
    "tempo": 120,
    "name": "74c4313bdb65ea800399f5dbe7527d7a.mid_seg45",
    "avg_interval": 15.866666666666667,
    "span": 43,
    "note_density": 0.0,
    "register": "bass",
    "complexity": 0.6666666666666666
  },
  {
    "events": [
      {
        "pitch": 75,
        "duration": 2.75,
        "velocity": 108
      },
      {
        "pitch": 68,
        "duration": 0.25,
        "velocity": 100
      },
      {
        "pitch": 44,
        "duration": 3.0,
        "velocity": 108
      },
      {
        "pitch": 75,
        "duration": 0.25,
        "velocity": 100
      },
      {
        "pitch": 32,
        "duration": 0.25,
        "velocity": 100
      },
      {
        "pitch": 75,
        "duration": 0.25,
        "velocity": 100
      },
      {
        "pitch": 32,
        "duration": 1.0,
        "velocity": 100
      },
      {
        "pitch": 75,
        "duration": 0.5,
        "velocity": 100
      },
      {
        "pitch": 63,
        "duration": 0.25,
        "velocity": 100
      },
      {
        "pitch": 56,
        "duration": 1.0,
        "velocity": 100
      },
      {
        "pitch": 75,
        "duration": 0.25,
        "velocity": 100
      },
      {
        "pitch": 30,
        "duration": 1.5,
        "velocity": 100
      },
      {
        "pitch": 49,
        "duration": 1.5,
        "velocity": 109
      },
      {
        "pitch": 42,
        "duration": 3.75,
        "velocity": 109
      },
      {
        "pitch": 73,
        "duration": 3.0,
        "velocity": 109
      },
      {
        "pitch": 70,
        "duration": 2.5,
        "velocity": 109
      }
    ],
    "key": "G# minor",
    "tempo": 120,
    "name": "74c4313bdb65ea800399f5dbe7527d7a.mid_seg46",
    "avg_interval": 25.133333333333333,
    "span": 45,
    "note_density": 0.0,
    "register": "middle",
    "complexity": 0.6666666666666666
  },
  {
    "events": [
      {
        "pitch": 75,
        "duration": 0.25,
        "velocity": 100
      },
      {
        "pitch": 30,
        "duration": 0.75,
        "velocity": 100
      },
      {
        "pitch": 68,
        "duration": 2.0,
        "velocity": 109
      },
      {
        "pitch": 49,
        "duration": 2.25,
        "velocity": 109
      },
      {
        "pitch": 64,
        "duration": 1.5,
        "velocity": 109
      },
      {
        "pitch": 75,
        "duration": 0.25,
        "velocity": 100
      },
      {
        "pitch": 30,
        "duration": 0.5,
        "velocity": 100
      },
      {
        "pitch": 30,
        "duration": 0.25,
        "velocity": 100
      },
      {
        "pitch": 30,
        "duration": 0.5,
        "velocity": 100
      },
      {
        "pitch": 61,
        "duration": 1.0,
        "velocity": 100
      },
      {
        "pitch": 71,
        "duration": 0.25,
        "velocity": 100
      },
      {
        "pitch": 39,
        "duration": 0.5,
        "velocity": 100
      },
      {
        "pitch": 61,
        "duration": 0.25,
        "velocity": 109
      },
      {
        "pitch": 63,
        "duration": 0.25,
        "velocity": 109
      },
      {
        "pitch": 37,
        "duration": 0.25,
        "velocity": 100
      },
      {
        "pitch": 61,
        "duration": 0.25,
        "velocity": 109
      }
    ],
    "key": "G# minor",
    "tempo": 120,
    "name": "74c4313bdb65ea800399f5dbe7527d7a.mid_seg47",
    "avg_interval": 21.333333333333332,
    "span": 45,
    "note_density": 0.3125,
    "register": "bass",
    "complexity": 0.7708333333333334
  },
  {
    "events": [
      {
        "pitch": 51,
        "duration": 0.75,
        "velocity": 109
      },
      {
        "pitch": 39,
        "duration": 0.5,
        "velocity": 100
      },
      {
        "pitch": 63,
        "duration": 0.25,
        "velocity": 109
      },
      {
        "pitch": 39,
        "duration": 0.5,
        "velocity": 109
      },
      {
        "pitch": 63,
        "duration": 0.25,
        "velocity": 100
      },
      {
        "pitch": 63,
        "duration": 0.25,
        "velocity": 100
      },
      {
        "pitch": 51,
        "duration": 0.25,
        "velocity": 100
      },
      {
        "pitch": 51,
        "duration": 0.25,
        "velocity": 100
      },
      {
        "pitch": 32,
        "duration": 0.3333333333333333,
        "velocity": 100
      },
      {
        "pitch": 51,
        "duration": 0.25,
        "velocity": 100
      },
      {
        "pitch": 51,
        "duration": 0.25,
        "velocity": 100
      },
      {
        "pitch": 37,
        "duration": 0.25,
        "velocity": 100
      },
      {
        "pitch": 61,
        "duration": 0.25,
        "velocity": 109
      },
      {
        "pitch": 39,
        "duration": 0.25,
        "velocity": 100
      },
      {
        "pitch": 63,
        "duration": 0.25,
        "velocity": 109
      },
      {
        "pitch": 63,
        "duration": 0.25,
        "velocity": 100
      }
    ],
    "key": "G# minor",
    "tempo": 120,
    "name": "74c4313bdb65ea800399f5dbe7527d7a.mid_seg48",
    "avg_interval": 14.533333333333333,
    "span": 31,
    "note_density": 0.6822916666666666,
    "register": "bass",
    "complexity": 0.8940972222222222
  },
  {
    "events": [
      {
        "pitch": 63,
        "duration": 0.25,
        "velocity": 100
      },
      {
        "pitch": 39,
        "duration": 0.25,
        "velocity": 100
      },
      {
        "pitch": 39,
        "duration": 0.5,
        "velocity": 100
      },
      {
        "pitch": 61,
        "duration": 0.25,
        "velocity": 109
      },
      {
        "pitch": 51,
        "duration": 0.5,
        "velocity": 100
      },
      {
        "pitch": 51,
        "duration": 0.5,
        "velocity": 100
      },
      {
        "pitch": 63,
        "duration": 0.25,
        "velocity": 109
      },
      {
        "pitch": 37,
        "duration": 0.25,
        "velocity": 100
      },
      {
        "pitch": 61,
        "duration": 0.25,
        "velocity": 100
      },
      {
        "pitch": 63,
        "duration": 0.25,
        "velocity": 109
      },
      {
        "pitch": 66,
        "duration": 0.25,
        "velocity": 100
      },
      {
        "pitch": 39,
        "duration": 0.5,
        "velocity": 100
      },
      {
        "pitch": 61,
        "duration": 0.5,
        "velocity": 109
      },
      {
        "pitch": 63,
        "duration": 0.3333333333333333,
        "velocity": 109
      },
      {
        "pitch": 37,
        "duration": 0.25,
        "velocity": 100
      },
      {
        "pitch": 61,
        "duration": 0.25,
        "velocity": 109
      }
    ],
    "key": "G# minor",
    "tempo": 120,
    "name": "74c4313bdb65ea800399f5dbe7527d7a.mid_seg49",
    "avg_interval": 14.933333333333334,
    "span": 29,
    "note_density": 0.6666666666666667,
    "register": "bass",
    "complexity": 0.888888888888889
  },
  {
    "events": [
      {
        "pitch": 39,
        "duration": 0.5,
        "velocity": 100
      },
      {
        "pitch": 63,
        "duration": 0.25,
        "velocity": 109
      },
      {
        "pitch": 63,
        "duration": 0.25,
        "velocity": 100
      },
      {
        "pitch": 63,
        "duration": 0.25,
        "velocity": 100
      },
      {
        "pitch": 51,
        "duration": 0.25,
        "velocity": 100
      },
      {
        "pitch": 51,
        "duration": 0.25,
        "velocity": 100
      },
      {
        "pitch": 32,
        "duration": 0.3333333333333333,
        "velocity": 100
      },
      {
        "pitch": 61,
        "duration": 0.25,
        "velocity": 109
      },
      {
        "pitch": 51,
        "duration": 0.25,
        "velocity": 100
      },
      {
        "pitch": 51,
        "duration": 0.25,
        "velocity": 100
      },
      {
        "pitch": 37,
        "duration": 0.25,
        "velocity": 100
      },
      {
        "pitch": 61,
        "duration": 0.25,
        "velocity": 109
      },
      {
        "pitch": 39,
        "duration": 0.25,
        "velocity": 100
      },
      {
        "pitch": 63,
        "duration": 0.25,
        "velocity": 109
      },
      {
        "pitch": 63,
        "duration": 0.25,
        "velocity": 100
      },
      {
        "pitch": 63,
        "duration": 0.25,
        "velocity": 100
      }
    ],
    "key": "G# minor",
    "tempo": 120,
    "name": "74c4313bdb65ea800399f5dbe7527d7a.mid_seg50",
    "avg_interval": 11.866666666666667,
    "span": 31,
    "note_density": 0.7291666666666666,
    "register": "bass",
    "complexity": 0.9060185185185184
  },
  {
    "events": [
      {
        "pitch": 39,
        "duration": 0.25,
        "velocity": 100
      },
      {
        "pitch": 61,
        "duration": 0.25,
        "velocity": 109
      },
      {
        "pitch": 39,
        "duration": 0.5,
        "velocity": 100
      },
      {
        "pitch": 51,
        "duration": 0.5,
        "velocity": 100
      },
      {
        "pitch": 51,
        "duration": 0.5,
        "velocity": 100
      },
      {
        "pitch": 63,
        "duration": 0.25,
        "velocity": 109
      },
      {
        "pitch": 37,
        "duration": 0.25,
        "velocity": 100
      },
      {
        "pitch": 61,
        "duration": 0.25,
        "velocity": 100
      },
      {
        "pitch": 63,
        "duration": 0.25,
        "velocity": 109
      },
      {
        "pitch": 49,
        "duration": 0.25,
        "velocity": 109
      },
      {
        "pitch": 66,
        "duration": 0.25,
        "velocity": 100
      },
      {
        "pitch": 34,
        "duration": 0.75,
        "velocity": 100
      },
      {
        "pitch": 75,
        "duration": 0.5,
        "velocity": 109
      },
      {
        "pitch": 62,
        "duration": 0.5,
        "velocity": 105
      },
      {
        "pitch": 74,
        "duration": 0.25,
        "velocity": 109
      },
      {
        "pitch": 72,
        "duration": 0.5,
        "velocity": 109
      }
    ],
    "key": "G# minor",
    "tempo": 120,
    "name": "74c4313bdb65ea800399f5dbe7527d7a.mid_seg51",
    "avg_interval": 16.733333333333334,
    "span": 41,
    "note_density": 0.625,
    "register": "middle",
    "complexity": 0.875
  },
  {
    "events": [
      {
        "pitch": 60,
        "duration": 0.5,
        "velocity": 105
      },
      {
        "pitch": 32,
        "duration": 1.0,
        "velocity": 100
      },
      {
        "pitch": 74,
        "duration": 1.0,
        "velocity": 109
      },
      {
        "pitch": 56,
        "duration": 1.75,
        "velocity": 109
      },
      {
        "pitch": 44,
        "duration": 2.0,
        "velocity": 109
      },
      {
        "pitch": 75,
        "duration": 1.6666666666666667,
        "velocity": 109
      },
      {
        "pitch": 32,
        "duration": 0.25,
        "velocity": 100
      },
      {
        "pitch": 32,
        "duration": 0.25,
        "velocity": 100
      },
      {
        "pitch": 63,
        "duration": 1.5,
        "velocity": 105
      },
      {
        "pitch": 28,
        "duration": 0.75,
        "velocity": 100
      },
      {
        "pitch": 71,
        "duration": 0.5,
        "velocity": 109
      },
      {
        "pitch": 73,
        "duration": 0.5,
        "velocity": 109
      },
      {
        "pitch": 61,
        "duration": 0.5,
        "velocity": 105
      },
      {
        "pitch": 28,
        "duration": 0.25,
        "velocity": 100
      },
      {
        "pitch": 28,
        "duration": 0.25,
        "velocity": 100
      },
      {
        "pitch": 71,
        "duration": 0.3333333333333333,
        "velocity": 109
      }
    ],
    "key": "G# minor",
    "tempo": 120,
    "name": "74c4313bdb65ea800399f5dbe7527d7a.mid_seg52",
    "avg_interval": 24.866666666666667,
    "span": 47,
    "note_density": 0.1874999999999999,
    "register": "bass",
    "complexity": 0.7291666666666666
  },
  {
    "events": [
      {
        "pitch": 59,
        "duration": 0.5,
        "velocity": 105
      },
      {
        "pitch": 71,
        "duration": 1.0,
        "velocity": 109
      },
      {
        "pitch": 30,
        "duration": 1.0,
        "velocity": 100
      },
      {
        "pitch": 70,
        "duration": 1.6666666666666667,
        "velocity": 109
      },
      {
        "pitch": 30,
        "duration": 0.25,
        "velocity": 100
      },
      {
        "pitch": 58,
        "duration": 1.0,
        "velocity": 108
      },
      {
        "pitch": 34,
        "duration": 0.75,
        "velocity": 100
      },
      {
        "pitch": 75,
        "duration": 0.5,
        "velocity": 109
      },
      {
        "pitch": 62,
        "duration": 0.5,
        "velocity": 106
      },
      {
        "pitch": 74,
        "duration": 0.25,
        "velocity": 110
      },
      {
        "pitch": 72,
        "duration": 0.5,
        "velocity": 110
      },
      {
        "pitch": 60,
        "duration": 0.5,
        "velocity": 106
      },
      {
        "pitch": 32,
        "duration": 1.0,
        "velocity": 100
      },
      {
        "pitch": 74,
        "duration": 1.0,
        "velocity": 110
      },
      {
        "pitch": 75,
        "duration": 1.6666666666666667,
        "velocity": 110
      },
      {
        "pitch": 32,
        "duration": 0.25,
        "velocity": 100
      }
    ],
    "key": "G# minor",
    "tempo": 120,
    "name": "74c4313bdb65ea800399f5dbe7527d7a.mid_seg53",
    "avg_interval": 25.266666666666666,
    "span": 45,
    "note_density": 0.22916666666666663,
    "register": "middle",
    "complexity": 0.7430555555555555
  },
  {
    "events": [
      {
        "pitch": 32,
        "duration": 0.25,
        "velocity": 100
      },
      {
        "pitch": 63,
        "duration": 1.0,
        "velocity": 105
      },
      {
        "pitch": 28,
        "duration": 0.75,
        "velocity": 100
      },
      {
        "pitch": 71,
        "duration": 0.5,
        "velocity": 110
      },
      {
        "pitch": 73,
        "duration": 0.25,
        "velocity": 110
      },
      {
        "pitch": 61,
        "duration": 0.5,
        "velocity": 106
      },
      {
        "pitch": 28,
        "duration": 0.25,
        "velocity": 100
      },
      {
        "pitch": 28,
        "duration": 0.25,
        "velocity": 100
      },
      {
        "pitch": 71,
        "duration": 0.25,
        "velocity": 110
      },
      {
        "pitch": 59,
        "duration": 0.5,
        "velocity": 105
      },
      {
        "pitch": 30,
        "duration": 1.0,
        "velocity": 100
      },
      {
        "pitch": 71,
        "duration": 1.0,
        "velocity": 110
      },
      {
        "pitch": 30,
        "duration": 0.25,
        "velocity": 100
      },
      {
        "pitch": 70,
        "duration": 1.5,
        "velocity": 110
      },
      {
        "pitch": 58,
        "duration": 1.0,
        "velocity": 106
      },
      {
        "pitch": 34,
        "duration": 0.75,
        "velocity": 100
      }
    ],
    "key": "G# minor",
    "tempo": 120,
    "name": "74c4313bdb65ea800399f5dbe7527d7a.mid_seg54",
    "avg_interval": 26.533333333333335,
    "span": 45,
    "note_density": 0.375,
    "register": "bass",
    "complexity": 0.7916666666666666
  },
  {
    "events": [
      {
        "pitch": 75,
        "duration": 0.5,
        "velocity": 110
      },
      {
        "pitch": 74,
        "duration": 0.25,
        "velocity": 110
      },
      {
        "pitch": 62,
        "duration": 0.5,
        "velocity": 105
      },
      {
        "pitch": 72,
        "duration": 0.5,
        "velocity": 110
      },
      {
        "pitch": 60,
        "duration": 0.5,
        "velocity": 106
      },
      {
        "pitch": 32,
        "duration": 1.0,
        "velocity": 100
      },
      {
        "pitch": 74,
        "duration": 1.0,
        "velocity": 110
      },
      {
        "pitch": 32,
        "duration": 0.25,
        "velocity": 100
      },
      {
        "pitch": 75,
        "duration": 1.5,
        "velocity": 110
      },
      {
        "pitch": 32,
        "duration": 0.25,
        "velocity": 100
      },
      {
        "pitch": 63,
        "duration": 0.5,
        "velocity": 105
      },
      {
        "pitch": 28,
        "duration": 0.75,
        "velocity": 100
      },
      {
        "pitch": 71,
        "duration": 0.5,
        "velocity": 110
      },
      {
        "pitch": 73,
        "duration": 0.25,
        "velocity": 110
      },
      {
        "pitch": 61,
        "duration": 0.5,
        "velocity": 106
      },
      {
        "pitch": 28,
        "duration": 0.25,
        "velocity": 100
      }
    ],
    "key": "G# minor",
    "tempo": 120,
    "name": "74c4313bdb65ea800399f5dbe7527d7a.mid_seg55",
    "avg_interval": 25.933333333333334,
    "span": 47,
    "note_density": 0.4375,
    "register": "middle",
    "complexity": 0.8125
  },
  {
    "events": [
      {
        "pitch": 28,
        "duration": 0.25,
        "velocity": 100
      },
      {
        "pitch": 71,
        "duration": 0.25,
        "velocity": 110
      },
      {
        "pitch": 59,
        "duration": 0.5,
        "velocity": 105
      },
      {
        "pitch": 30,
        "duration": 1.0,
        "velocity": 100
      },
      {
        "pitch": 71,
        "duration": 1.0,
        "velocity": 110
      },
      {
        "pitch": 70,
        "duration": 1.6666666666666667,
        "velocity": 110
      },
      {
        "pitch": 30,
        "duration": 0.25,
        "velocity": 100
      },
      {
        "pitch": 30,
        "duration": 0.25,
        "velocity": 100
      },
      {
        "pitch": 30,
        "duration": 0.25,
        "velocity": 100
      },
      {
        "pitch": 58,
        "duration": 1.0,
        "velocity": 109
      },
      {
        "pitch": 34,
        "duration": 0.75,
        "velocity": 100
      },
      {
        "pitch": 75,
        "duration": 0.5,
        "velocity": 110
      },
      {
        "pitch": 74,
        "duration": 0.5,
        "velocity": 110
      },
      {
        "pitch": 62,
        "duration": 0.5,
        "velocity": 105
      },
      {
        "pitch": 72,
        "duration": 0.5,
        "velocity": 110
      },
      {
        "pitch": 60,
        "duration": 0.5,
        "velocity": 106
      }
    ],
    "key": "G# minor",
    "tempo": 120,
    "name": "74c4313bdb65ea800399f5dbe7527d7a.mid_seg56",
    "avg_interval": 19.6,
    "span": 47,
    "note_density": 0.39583333333333326,
    "register": "bass",
    "complexity": 0.798611111111111
  },
  {
    "events": [
      {
        "pitch": 44,
        "duration": 2.25,
        "velocity": 110
      },
      {
        "pitch": 32,
        "duration": 1.0,
        "velocity": 100
      },
      {
        "pitch": 74,
        "duration": 1.0,
        "velocity": 110
      },
      {
        "pitch": 56,
        "duration": 1.5,
        "velocity": 110
      },
      {
        "pitch": 32,
        "duration": 0.25,
        "velocity": 100
      },
      {
        "pitch": 75,
        "duration": 1.5,
        "velocity": 110
      },
      {
        "pitch": 32,
        "duration": 0.25,
        "velocity": 100
      },
      {
        "pitch": 63,
        "duration": 1.25,
        "velocity": 106
      },
      {
        "pitch": 28,
        "duration": 1.5,
        "velocity": 100
      },
      {
        "pitch": 71,
        "duration": 0.5,
        "velocity": 110
      },
      {
        "pitch": 59,
        "duration": 0.5,
        "velocity": 107
      },
      {
        "pitch": 28,
        "duration": 1.5,
        "velocity": 100
      },
      {
        "pitch": 73,
        "duration": 0.5,
        "velocity": 111
      },
      {
        "pitch": 61,
        "duration": 0.5,
        "velocity": 105
      },
      {
        "pitch": 71,
        "duration": 0.25,
        "velocity": 111
      },
      {
        "pitch": 59,
        "duration": 0.5,
        "velocity": 105
      }
    ],
    "key": "G# minor",
    "tempo": 120,
    "name": "74c4313bdb65ea800399f5dbe7527d7a.mid_seg57",
    "avg_interval": 27.533333333333335,
    "span": 47,
    "note_density": 0.078125,
    "register": "bass",
    "complexity": 0.6927083333333334
  },
  {
    "events": [
      {
        "pitch": 30,
        "duration": 1.5,
        "velocity": 100
      },
      {
        "pitch": 73,
        "duration": 2.25,
        "velocity": 111
      },
      {
        "pitch": 30,
        "duration": 1.5,
        "velocity": 100
      },
      {
        "pitch": 59,
        "duration": 1.0,
        "velocity": 105
      },
      {
        "pitch": 58,
        "duration": 0.5,
        "velocity": 105
      },
      {
        "pitch": 30,
        "duration": 1.0,
        "velocity": 100
      },
      {
        "pitch": 39,
        "duration": 0.5,
        "velocity": 100
      },
      {
        "pitch": 37,
        "duration": 0.25,
        "velocity": 100
      },
      {
        "pitch": 51,
        "duration": 0.75,
        "velocity": 111
      },
      {
        "pitch": 39,
        "duration": 0.5,
        "velocity": 100
      },
      {
        "pitch": 39,
        "duration": 0.5,
        "velocity": 111
      },
      {
        "pitch": 63,
        "duration": 0.25,
        "velocity": 100
      },
      {
        "pitch": 63,
        "duration": 0.25,
        "velocity": 100
      },
      {
        "pitch": 51,
        "duration": 0.25,
        "velocity": 100
      },
      {
        "pitch": 51,
        "duration": 0.25,
        "velocity": 100
      },
      {
        "pitch": 32,
        "duration": 0.3333333333333333,
        "velocity": 100
      }
    ],
    "key": "G# minor",
    "tempo": 120,
    "name": "74c4313bdb65ea800399f5dbe7527d7a.mid_seg58",
    "avg_interval": 15.733333333333333,
    "span": 43,
    "note_density": 0.27604166666666663,
    "register": "bass",
    "complexity": 0.7586805555555555
  },
  {
    "events": [
      {
        "pitch": 51,
        "duration": 0.75,
        "velocity": 111
      },
      {
        "pitch": 51,
        "duration": 0.25,
        "velocity": 100
      },
      {
        "pitch": 51,
        "duration": 0.25,
        "velocity": 100
      },
      {
        "pitch": 37,
        "duration": 0.25,
        "velocity": 100
      },
      {
        "pitch": 39,
        "duration": 0.5,
        "velocity": 111
      },
      {
        "pitch": 39,
        "duration": 0.25,
        "velocity": 100
      },
      {
        "pitch": 63,
        "duration": 0.25,
        "velocity": 100
      },
      {
        "pitch": 63,
        "duration": 0.25,
        "velocity": 100
      },
      {
        "pitch": 39,
        "duration": 0.25,
        "velocity": 100
      },
      {
        "pitch": 39,
        "duration": 0.5,
        "velocity": 100
      },
      {
        "pitch": 51,
        "duration": 0.5,
        "velocity": 100
      },
      {
        "pitch": 51,
        "duration": 0.5,
        "velocity": 100
      },
      {
        "pitch": 37,
        "duration": 0.25,
        "velocity": 100
      },
      {
        "pitch": 61,
        "duration": 0.25,
        "velocity": 100
      },
      {
        "pitch": 66,
        "duration": 0.25,
        "velocity": 100
      },
      {
        "pitch": 39,
        "duration": 0.5,
        "velocity": 100
      }
    ],
    "key": "G# minor",
    "tempo": 120,
    "name": "74c4313bdb65ea800399f5dbe7527d7a.mid_seg59",
    "avg_interval": 9.733333333333333,
    "span": 29,
    "note_density": 0.640625,
    "register": "bass",
    "complexity": 0.8172453703703703
  },
  {
    "events": [
      {
        "pitch": 37,
        "duration": 0.25,
        "velocity": 100
      },
      {
        "pitch": 39,
        "duration": 0.5,
        "velocity": 100
      },
      {
        "pitch": 63,
        "duration": 0.25,
        "velocity": 100
      },
      {
        "pitch": 63,
        "duration": 0.25,
        "velocity": 100
      },
      {
        "pitch": 51,
        "duration": 0.25,
        "velocity": 100
      },
      {
        "pitch": 51,
        "duration": 0.25,
        "velocity": 100
      },
      {
        "pitch": 32,
        "duration": 0.3333333333333333,
        "velocity": 100
      },
      {
        "pitch": 51,
        "duration": 0.25,
        "velocity": 100
      },
      {
        "pitch": 51,
        "duration": 0.25,
        "velocity": 100
      },
      {
        "pitch": 37,
        "duration": 0.25,
        "velocity": 100
      },
      {
        "pitch": 39,
        "duration": 0.25,
        "velocity": 100
      },
      {
        "pitch": 63,
        "duration": 0.25,
        "velocity": 100
      },
      {
        "pitch": 63,
        "duration": 0.25,
        "velocity": 100
      },
      {
        "pitch": 39,
        "duration": 0.25,
        "velocity": 100
      },
      {
        "pitch": 39,
        "duration": 0.5,
        "velocity": 100
      },
      {
        "pitch": 51,
        "duration": 0.5,
        "velocity": 100
      }
    ],
    "key": "G# minor",
    "tempo": 120,
    "name": "74c4313bdb65ea800399f5dbe7527d7a.mid_seg60",
    "avg_interval": 10.133333333333333,
    "span": 31,
    "note_density": 0.6979166666666666,
    "register": "bass",
    "complexity": 0.8474537037037037
  },
  {
    "events": [
      {
        "pitch": 51,
        "duration": 0.5,
        "velocity": 100
      },
      {
        "pitch": 37,
        "duration": 0.25,
        "velocity": 100
      },
      {
        "pitch": 61,
        "duration": 0.25,
        "velocity": 100
      },
      {
        "pitch": 66,
        "duration": 0.25,
        "velocity": 100
      },
      {
        "pitch": 39,
        "duration": 0.75,
        "velocity": 100
      },
      {
        "pitch": 37,
        "duration": 0.5,
        "velocity": 100
      },
      {
        "pitch": 34,
        "duration": 0.5,
        "velocity": 100
      },
      {
        "pitch": 30,
        "duration": 0.25,
        "velocity": 100
      },
      {
        "pitch": 30,
        "duration": 0.5,
        "velocity": 100
      },
      {
        "pitch": 30,
        "duration": 0.25,
        "velocity": 100
      },
      {
        "pitch": 66,
        "duration": 0.25,
        "velocity": 100
      },
      {
        "pitch": 30,
        "duration": 0.25,
        "velocity": 100
      },
      {
        "pitch": 32,
        "duration": 0.25,
        "velocity": 100
      },
      {
        "pitch": 39,
        "duration": 0.75,
        "velocity": 100
      },
      {
        "pitch": 37,
        "duration": 0.5,
        "velocity": 100
      },
      {
        "pitch": 34,
        "duration": 0.5,
        "velocity": 100
      }
    ],
    "key": "G# minor",
    "tempo": 120,
    "name": "74c4313bdb65ea800399f5dbe7527d7a.mid_seg61",
    "avg_interval": 11.0,
    "span": 36,
    "note_density": 0.59375,
    "register": "bass",
    "complexity": 0.8368055555555555
  },
  {
    "events": [
      {
        "pitch": 30,
        "duration": 0.25,
        "velocity": 100
      },
      {
        "pitch": 30,
        "duration": 0.5,
        "velocity": 100
      },
      {
        "pitch": 30,
        "duration": 0.25,
        "velocity": 100
      },
      {
        "pitch": 30,
        "duration": 0.25,
        "velocity": 100
      },
      {
        "pitch": 32,
        "duration": 0.25,
        "velocity": 100
      },
      {
        "pitch": 39,
        "duration": 0.75,
        "velocity": 100
      },
      {
        "pitch": 37,
        "duration": 0.5,
        "velocity": 100
      },
      {
        "pitch": 34,
        "duration": 0.5,
        "velocity": 100
      },
      {
        "pitch": 30,
        "duration": 0.25,
        "velocity": 100
      },
      {
        "pitch": 30,
        "duration": 0.5,
        "velocity": 100
      },
      {
        "pitch": 30,
        "duration": 0.25,
        "velocity": 100
      },
      {
        "pitch": 30,
        "duration": 0.25,
        "velocity": 100
      },
      {
        "pitch": 32,
        "duration": 0.25,
        "velocity": 100
      },
      {
        "pitch": 39,
        "duration": 0.75,
        "velocity": 100
      },
      {
        "pitch": 37,
        "duration": 0.5,
        "velocity": 100
      },
      {
        "pitch": 34,
        "duration": 0.25,
        "velocity": 100
      }
    ],
    "key": "G# minor",
    "tempo": 120,
    "name": "74c4313bdb65ea800399f5dbe7527d7a.mid_seg62",
    "avg_interval": 2.1333333333333333,
    "span": 9,
    "note_density": 0.609375,
    "register": "bass",
    "complexity": 0.3873842592592593
  },
  {
    "events": [
      {
        "pitch": 28,
        "duration": 0.25,
        "velocity": 100
      },
      {
        "pitch": 28,
        "duration": 0.25,
        "velocity": 100
      },
      {
        "pitch": 28,
        "duration": 0.25,
        "velocity": 100
      },
      {
        "pitch": 28,
        "duration": 0.75,
        "velocity": 100
      },
      {
        "pitch": 63,
        "duration": 0.25,
        "velocity": 100
      },
      {
        "pitch": 63,
        "duration": 0.25,
        "velocity": 100
      },
      {
        "pitch": 51,
        "duration": 0.25,
        "velocity": 100
      },
      {
        "pitch": 51,
        "duration": 0.25,
        "velocity": 100
      },
      {
        "pitch": 51,
        "duration": 0.25,
        "velocity": 100
      },
      {
        "pitch": 51,
        "duration": 0.25,
        "velocity": 100
      },
      {
        "pitch": 63,
        "duration": 0.25,
        "velocity": 100
      },
      {
        "pitch": 63,
        "duration": 0.25,
        "velocity": 100
      },
      {
        "pitch": 51,
        "duration": 0.5,
        "velocity": 100
      },
      {
        "pitch": 51,
        "duration": 0.5,
        "velocity": 100
      },
      {
        "pitch": 61,
        "duration": 0.25,
        "velocity": 100
      },
      {
        "pitch": 66,
        "duration": 0.25,
        "velocity": 100
      }
    ],
    "key": "G# minor",
    "tempo": 120,
    "name": "74c4313bdb65ea800399f5dbe7527d7a.mid_seg63",
    "avg_interval": 5.733333333333333,
    "span": 38,
    "note_density": 0.6875,
    "register": "bass",
    "complexity": 0.7217592592592593
  },
  {
    "events": [
      {
        "pitch": 63,
        "duration": 0.25,
        "velocity": 100
      },
      {
        "pitch": 63,
        "duration": 0.25,
        "velocity": 100
      },
      {
        "pitch": 51,
        "duration": 0.25,
        "velocity": 100
      },
      {
        "pitch": 51,
        "duration": 0.25,
        "velocity": 100
      },
      {
        "pitch": 51,
        "duration": 0.25,
        "velocity": 100
      },
      {
        "pitch": 51,
        "duration": 0.25,
        "velocity": 100
      },
      {
        "pitch": 63,
        "duration": 0.25,
        "velocity": 100
      },
      {
        "pitch": 63,
        "duration": 0.25,
        "velocity": 100
      },
      {
        "pitch": 51,
        "duration": 0.5,
        "velocity": 100
      },
      {
        "pitch": 51,
        "duration": 0.5,
        "velocity": 100
      },
      {
        "pitch": 61,
        "duration": 0.25,
        "velocity": 100
      },
      {
        "pitch": 66,
        "duration": 0.25,
        "velocity": 100
      },
      {
        "pitch": 63,
        "duration": 0.25,
        "velocity": 100
      },
      {
        "pitch": 63,
        "duration": 0.25,
        "velocity": 100
      },
      {
        "pitch": 51,
        "duration": 0.25,
        "velocity": 100
      },
      {
        "pitch": 51,
        "duration": 0.25,
        "velocity": 100
      }
    ],
    "key": "G# minor",
    "tempo": 120,
    "name": "74c4313bdb65ea800399f5dbe7527d7a.mid_seg64",
    "avg_interval": 4.4,
    "span": 15,
    "note_density": 0.71875,
    "register": "middle",
    "complexity": 0.5701388888888889
  },
  {
    "events": [
      {
        "pitch": 51,
        "duration": 0.25,
        "velocity": 100
      },
      {
        "pitch": 51,
        "duration": 0.25,
        "velocity": 100
      },
      {
        "pitch": 63,
        "duration": 0.25,
        "velocity": 100
      },
      {
        "pitch": 63,
        "duration": 0.25,
        "velocity": 100
      },
      {
        "pitch": 51,
        "duration": 0.5,
        "velocity": 100
      },
      {
        "pitch": 51,
        "duration": 0.5,
        "velocity": 100
      },
      {
        "pitch": 61,
        "duration": 0.25,
        "velocity": 100
      },
      {
        "pitch": 66,
        "duration": 0.25,
        "velocity": 100
      },
      {
        "pitch": 63,
        "duration": 0.25,
        "velocity": 100
      },
      {
        "pitch": 63,
        "duration": 0.25,
        "velocity": 100
      },
      {
        "pitch": 51,
        "duration": 0.25,
        "velocity": 100
      },
      {
        "pitch": 51,
        "duration": 0.25,
        "velocity": 100
      },
      {
        "pitch": 51,
        "duration": 0.25,
        "velocity": 100
      },
      {
        "pitch": 51,
        "duration": 0.25,
        "velocity": 100
      },
      {
        "pitch": 63,
        "duration": 0.25,
        "velocity": 100
      },
      {
        "pitch": 63,
        "duration": 0.25,
        "velocity": 100
      }
    ],
    "key": "G# minor",
    "tempo": 120,
    "name": "74c4313bdb65ea800399f5dbe7527d7a.mid_seg65",
    "avg_interval": 4.4,
    "span": 15,
    "note_density": 0.71875,
    "register": "middle",
    "complexity": 0.5701388888888889
  },
  {
    "events": [
      {
        "pitch": 51,
        "duration": 0.5,
        "velocity": 100
      },
      {
        "pitch": 51,
        "duration": 0.5,
        "velocity": 100
      },
      {
        "pitch": 61,
        "duration": 0.25,
        "velocity": 100
      },
      {
        "pitch": 66,
        "duration": 0.25,
        "velocity": 100
      },
      {
        "pitch": 63,
        "duration": 0.25,
        "velocity": 100
      },
      {
        "pitch": 63,
        "duration": 0.25,
        "velocity": 100
      },
      {
        "pitch": 51,
        "duration": 0.25,
        "velocity": 100
      },
      {
        "pitch": 51,
        "duration": 0.25,
        "velocity": 100
      },
      {
        "pitch": 51,
        "duration": 0.25,
        "velocity": 100
      },
      {
        "pitch": 51,
        "duration": 0.25,
        "velocity": 100
      },
      {
        "pitch": 63,
        "duration": 0.25,
        "velocity": 100
      },
      {
        "pitch": 63,
        "duration": 0.25,
        "velocity": 100
      },
      {
        "pitch": 51,
        "duration": 0.5,
        "velocity": 100
      },
      {
        "pitch": 51,
        "duration": 0.5,
        "velocity": 100
      },
      {
        "pitch": 61,
        "duration": 0.25,
        "velocity": 100
      },
      {
        "pitch": 66,
        "duration": 0.25,
        "velocity": 100
      }
    ],
    "key": "G# minor",
    "tempo": 120,
    "name": "74c4313bdb65ea800399f5dbe7527d7a.mid_seg66",
    "avg_interval": 4.6,
    "span": 15,
    "note_density": 0.6875,
    "register": "middle",
    "complexity": 0.5652777777777778
  },
  {
    "events": [
      {
        "pitch": 63,
        "duration": 0.25,
        "velocity": 100
      },
      {
        "pitch": 63,
        "duration": 0.25,
        "velocity": 100
      },
      {
        "pitch": 51,
        "duration": 0.25,
        "velocity": 100
      },
      {
        "pitch": 51,
        "duration": 0.25,
        "velocity": 100
      },
      {
        "pitch": 51,
        "duration": 0.25,
        "velocity": 100
      },
      {
        "pitch": 51,
        "duration": 0.25,
        "velocity": 100
      },
      {
        "pitch": 63,
        "duration": 0.25,
        "velocity": 100
      },
      {
        "pitch": 63,
        "duration": 0.25,
        "velocity": 100
      },
      {
        "pitch": 51,
        "duration": 0.5,
        "velocity": 100
      },
      {
        "pitch": 51,
        "duration": 0.5,
        "velocity": 100
      },
      {
        "pitch": 61,
        "duration": 0.25,
        "velocity": 100
      },
      {
        "pitch": 66,
        "duration": 0.25,
        "velocity": 100
      },
      {
        "pitch": 63,
        "duration": 0.25,
        "velocity": 100
      },
      {
        "pitch": 63,
        "duration": 0.25,
        "velocity": 100
      },
      {
        "pitch": 51,
        "duration": 0.25,
        "velocity": 100
      },
      {
        "pitch": 51,
        "duration": 0.25,
        "velocity": 100
      }
    ],
    "key": "G# minor",
    "tempo": 120,
    "name": "74c4313bdb65ea800399f5dbe7527d7a.mid_seg67",
    "avg_interval": 4.4,
    "span": 15,
    "note_density": 0.71875,
    "register": "middle",
    "complexity": 0.5701388888888889
  },
  {
    "events": [
      {
        "pitch": 51,
        "duration": 0.25,
        "velocity": 100
      },
      {
        "pitch": 51,
        "duration": 0.25,
        "velocity": 100
      },
      {
        "pitch": 63,
        "duration": 0.25,
        "velocity": 100
      },
      {
        "pitch": 63,
        "duration": 0.25,
        "velocity": 100
      },
      {
        "pitch": 51,
        "duration": 0.5,
        "velocity": 100
      },
      {
        "pitch": 51,
        "duration": 0.5,
        "velocity": 100
      },
      {
        "pitch": 61,
        "duration": 0.25,
        "velocity": 100
      },
      {
        "pitch": 66,
        "duration": 0.25,
        "velocity": 100
      },
      {
        "pitch": 63,
        "duration": 0.25,
        "velocity": 100
      },
      {
        "pitch": 63,
        "duration": 0.25,
        "velocity": 100
      },
      {
        "pitch": 51,
        "duration": 0.25,
        "velocity": 100
      },
      {
        "pitch": 51,
        "duration": 0.25,
        "velocity": 100
      },
      {
        "pitch": 51,
        "duration": 0.25,
        "velocity": 100
      },
      {
        "pitch": 51,
        "duration": 0.25,
        "velocity": 100
      },
      {
        "pitch": 63,
        "duration": 0.25,
        "velocity": 100
      },
      {
        "pitch": 63,
        "duration": 0.25,
        "velocity": 100
      }
    ],
    "key": "G# minor",
    "tempo": 120,
    "name": "74c4313bdb65ea800399f5dbe7527d7a.mid_seg68",
    "avg_interval": 4.4,
    "span": 15,
    "note_density": 0.71875,
    "register": "middle",
    "complexity": 0.5701388888888889
  },
  {
    "events": [
      {
        "pitch": 51,
        "duration": 0.5,
        "velocity": 100
      },
      {
        "pitch": 51,
        "duration": 0.5,
        "velocity": 100
      },
      {
        "pitch": 61,
        "duration": 0.25,
        "velocity": 100
      },
      {
        "pitch": 66,
        "duration": 0.25,
        "velocity": 100
      },
      {
        "pitch": 32,
        "duration": 1.5,
        "velocity": 100
      },
      {
        "pitch": 68,
        "duration": 4.0,
        "velocity": 100
      },
      {
        "pitch": 75,
        "duration": 0.5,
        "velocity": 100
      },
      {
        "pitch": 75,
        "duration": 0.25,
        "velocity": 100
      },
      {
        "pitch": 72,
        "duration": 3.0,
        "velocity": 114
      },
      {
        "pitch": 75,
        "duration": 0.25,
        "velocity": 100
      },
      {
        "pitch": 32,
        "duration": 0.25,
        "velocity": 100
      },
      {
        "pitch": 75,
        "duration": 2.3333333333333335,
        "velocity": 114
      },
      {
        "pitch": 75,
        "duration": 0.25,
        "velocity": 100
      },
      {
        "pitch": 32,
        "duration": 1.0,
        "velocity": 100
      },
      {
        "pitch": 75,
        "duration": 0.5,
        "velocity": 100
      },
      {
        "pitch": 75,
        "duration": 0.25,
        "velocity": 100
      }
    ],
    "key": "G# minor",
    "tempo": 120,
    "name": "74c4313bdb65ea800399f5dbe7527d7a.mid_seg69",
    "avg_interval": 18.0,
    "span": 43,
    "note_density": 0.02604166666666663,
    "register": "middle",
    "complexity": 0.6753472222222222
  },
  {
    "events": [
      {
        "pitch": 30,
        "duration": 1.5,
        "velocity": 100
      },
      {
        "pitch": 66,
        "duration": 4.0,
        "velocity": 100
      },
      {
        "pitch": 75,
        "duration": 0.5,
        "velocity": 100
      },
      {
        "pitch": 73,
        "duration": 3.25,
        "velocity": 114
      },
      {
        "pitch": 75,
        "duration": 0.25,
        "velocity": 100
      },
      {
        "pitch": 75,
        "duration": 0.25,
        "velocity": 100
      },
      {
        "pitch": 30,
        "duration": 0.25,
        "velocity": 100
      },
      {
        "pitch": 68,
        "duration": 2.3333333333333335,
        "velocity": 114
      },
      {
        "pitch": 64,
        "duration": 1.75,
        "velocity": 114
      },
      {
        "pitch": 75,
        "duration": 0.25,
        "velocity": 100
      },
      {
        "pitch": 30,
        "duration": 0.25,
        "velocity": 100
      },
      {
        "pitch": 30,
        "duration": 0.5,
        "velocity": 100
      },
      {
        "pitch": 30,
        "duration": 0.25,
        "velocity": 100
      },
      {
        "pitch": 71,
        "duration": 0.25,
        "velocity": 100
      },
      {
        "pitch": 63,
        "duration": 0.25,
        "velocity": 100
      },
      {
        "pitch": 63,
        "duration": 0.25,
        "velocity": 100
      }
    ],
    "key": "G# minor",
    "tempo": 120,
    "name": "74c4313bdb65ea800399f5dbe7527d7a.mid_seg70",
    "avg_interval": 16.066666666666666,
    "span": 45,
    "note_density": 0.0,
    "register": "middle",
    "complexity": 0.6666666666666666
  },
  {
    "events": [
      {
        "pitch": 51,
        "duration": 0.25,
        "velocity": 100
      },
      {
        "pitch": 51,
        "duration": 0.25,
        "velocity": 100
      },
      {
        "pitch": 51,
        "duration": 0.25,
        "velocity": 100
      },
      {
        "pitch": 51,
        "duration": 0.25,
        "velocity": 100
      },
      {
        "pitch": 63,
        "duration": 0.25,
        "velocity": 100
      },
      {
        "pitch": 63,
        "duration": 0.25,
        "velocity": 100
      },
      {
        "pitch": 51,
        "duration": 0.5,
        "velocity": 100
      },
      {
        "pitch": 51,
        "duration": 0.5,
        "velocity": 100
      },
      {
        "pitch": 61,
        "duration": 0.25,
        "velocity": 100
      },
      {
        "pitch": 66,
        "duration": 0.25,
        "velocity": 100
      },
      {
        "pitch": 63,
        "duration": 0.25,
        "velocity": 100
      },
      {
        "pitch": 63,
        "duration": 0.25,
        "velocity": 100
      },
      {
        "pitch": 51,
        "duration": 0.25,
        "velocity": 100
      },
      {
        "pitch": 51,
        "duration": 0.25,
        "velocity": 100
      },
      {
        "pitch": 51,
        "duration": 0.25,
        "velocity": 100
      },
      {
        "pitch": 51,
        "duration": 0.25,
        "velocity": 100
      }
    ],
    "key": "G# minor",
    "tempo": 120,
    "name": "74c4313bdb65ea800399f5dbe7527d7a.mid_seg71",
    "avg_interval": 3.6,
    "span": 15,
    "note_density": 0.71875,
    "register": "middle",
    "complexity": 0.5479166666666667
  },
  {
    "events": [
      {
        "pitch": 63,
        "duration": 0.25,
        "velocity": 100
      },
      {
        "pitch": 63,
        "duration": 0.25,
        "velocity": 100
      },
      {
        "pitch": 51,
        "duration": 0.5,
        "velocity": 100
      },
      {
        "pitch": 51,
        "duration": 0.5,
        "velocity": 100
      },
      {
        "pitch": 61,
        "duration": 0.25,
        "velocity": 100
      },
      {
        "pitch": 66,
        "duration": 0.25,
        "velocity": 100
      },
      {
        "pitch": 34,
        "duration": 0.75,
        "velocity": 100
      },
      {
        "pitch": 75,
        "duration": 0.5,
        "velocity": 114
      },
      {
        "pitch": 74,
        "duration": 0.5,
        "velocity": 114
      },
      {
        "pitch": 62,
        "duration": 0.5,
        "velocity": 105
      },
      {
        "pitch": 72,
        "duration": 0.5,
        "velocity": 114
      },
      {
        "pitch": 60,
        "duration": 0.5,
        "velocity": 105
      },
      {
        "pitch": 32,
        "duration": 1.0,
        "velocity": 100
      },
      {
        "pitch": 74,
        "duration": 1.0,
        "velocity": 114
      },
      {
        "pitch": 32,
        "duration": 0.25,
        "velocity": 100
      },
      {
        "pitch": 75,
        "duration": 1.5,
        "velocity": 114
      }
    ],
    "key": "G# minor",
    "tempo": 120,
    "name": "74c4313bdb65ea800399f5dbe7527d7a.mid_seg72",
    "avg_interval": 19.333333333333332,
    "span": 43,
    "note_density": 0.4375,
    "register": "middle",
    "complexity": 0.8125
  },
  {
    "events": [
      {
        "pitch": 32,
        "duration": 0.25,
        "velocity": 100
      },
      {
        "pitch": 63,
        "duration": 1.5,
        "velocity": 105
      },
      {
        "pitch": 28,
        "duration": 0.75,
        "velocity": 100
      },
      {
        "pitch": 71,
        "duration": 0.5,
        "velocity": 115
      },
      {
        "pitch": 73,
        "duration": 0.25,
        "velocity": 115
      },
      {
        "pitch": 61,
        "duration": 0.5,
        "velocity": 105
      },
      {
        "pitch": 28,
        "duration": 0.25,
        "velocity": 100
      },
      {
        "pitch": 28,
        "duration": 0.25,
        "velocity": 100
      },
      {
        "pitch": 71,
        "duration": 0.3333333333333333,
        "velocity": 115
      },
      {
        "pitch": 59,
        "duration": 0.5,
        "velocity": 105
      },
      {
        "pitch": 71,
        "duration": 0.75,
        "velocity": 115
      },
      {
        "pitch": 30,
        "duration": 1.0,
        "velocity": 100
      },
      {
        "pitch": 70,
        "duration": 1.6666666666666667,
        "velocity": 115
      },
      {
        "pitch": 30,
        "duration": 0.25,
        "velocity": 100
      },
      {
        "pitch": 58,
        "duration": 1.0,
        "velocity": 108
      },
      {
        "pitch": 34,
        "duration": 0.75,
        "velocity": 100
      }
    ],
    "key": "G# minor",
    "tempo": 120,
    "name": "74c4313bdb65ea800399f5dbe7527d7a.mid_seg73",
    "avg_interval": 26.4,
    "span": 45,
    "note_density": 0.34375,
    "register": "bass",
    "complexity": 0.78125
  },
  {
    "events": [
      {
        "pitch": 75,
        "duration": 0.5,
        "velocity": 115
      },
      {
        "pitch": 74,
        "duration": 0.5,
        "velocity": 115
      },
      {
        "pitch": 62,
        "duration": 0.5,
        "velocity": 106
      },
      {
        "pitch": 72,
        "duration": 0.5,
        "velocity": 115
      },
      {
        "pitch": 60,
        "duration": 0.5,
        "velocity": 106
      },
      {
        "pitch": 32,
        "duration": 1.0,
        "velocity": 100
      },
      {
        "pitch": 74,
        "duration": 1.0,
        "velocity": 115
      },
      {
        "pitch": 32,
        "duration": 0.25,
        "velocity": 100
      },
      {
        "pitch": 75,
        "duration": 1.5,
        "velocity": 115
      },
      {
        "pitch": 32,
        "duration": 0.25,
        "velocity": 100
      },
      {
        "pitch": 63,
        "duration": 1.0,
        "velocity": 105
      },
      {
        "pitch": 28,
        "duration": 0.75,
        "velocity": 100
      },
      {
        "pitch": 71,
        "duration": 0.5,
        "velocity": 115
      },
      {
        "pitch": 73,
        "duration": 0.5,
        "velocity": 115
      },
      {
        "pitch": 61,
        "duration": 0.5,
        "velocity": 106
      },
      {
        "pitch": 28,
        "duration": 0.25,
        "velocity": 100
      }
    ],
    "key": "G# minor",
    "tempo": 120,
    "name": "74c4313bdb65ea800399f5dbe7527d7a.mid_seg74",
    "avg_interval": 25.933333333333334,
    "span": 47,
    "note_density": 0.375,
    "register": "middle",
    "complexity": 0.7916666666666666
  },
  {
    "events": [
      {
        "pitch": 28,
        "duration": 0.25,
        "velocity": 100
      },
      {
        "pitch": 71,
        "duration": 0.25,
        "velocity": 115
      },
      {
        "pitch": 59,
        "duration": 0.5,
        "velocity": 105
      },
      {
        "pitch": 30,
        "duration": 1.0,
        "velocity": 100
      },
      {
        "pitch": 71,
        "duration": 1.0,
        "velocity": 115
      },
      {
        "pitch": 70,
        "duration": 1.5,
        "velocity": 115
      },
      {
        "pitch": 30,
        "duration": 0.25,
        "velocity": 100
      },
      {
        "pitch": 58,
        "duration": 1.0,
        "velocity": 106
      },
      {
        "pitch": 34,
        "duration": 0.75,
        "velocity": 100
      },
      {
        "pitch": 75,
        "duration": 0.5,
        "velocity": 115
      },
      {
        "pitch": 74,
        "duration": 0.5,
        "velocity": 115
      },
      {
        "pitch": 62,
        "duration": 0.5,
        "velocity": 105
      },
      {
        "pitch": 72,
        "duration": 0.5,
        "velocity": 115
      },
      {
        "pitch": 60,
        "duration": 0.5,
        "velocity": 106
      },
      {
        "pitch": 32,
        "duration": 1.0,
        "velocity": 100
      },
      {
        "pitch": 74,
        "duration": 1.0,
        "velocity": 115
      }
    ],
    "key": "G# minor",
    "tempo": 120,
    "name": "74c4313bdb65ea800399f5dbe7527d7a.mid_seg75",
    "avg_interval": 24.266666666666666,
    "span": 47,
    "note_density": 0.3125,
    "register": "middle",
    "complexity": 0.7708333333333334
  },
  {
    "events": [
      {
        "pitch": 32,
        "duration": 0.25,
        "velocity": 100
      },
      {
        "pitch": 75,
        "duration": 1.5,
        "velocity": 115
      },
      {
        "pitch": 32,
        "duration": 0.25,
        "velocity": 100
      },
      {
        "pitch": 63,
        "duration": 0.5,
        "velocity": 105
      },
      {
        "pitch": 28,
        "duration": 0.75,
        "velocity": 100
      },
      {
        "pitch": 71,
        "duration": 0.5,
        "velocity": 115
      },
      {
        "pitch": 73,
        "duration": 0.5,
        "velocity": 115
      },
      {
        "pitch": 61,
        "duration": 0.5,
        "velocity": 106
      },
      {
        "pitch": 28,
        "duration": 0.25,
        "velocity": 100
      },
      {
        "pitch": 28,
        "duration": 0.25,
        "velocity": 100
      },
      {
        "pitch": 71,
        "duration": 0.3333333333333333,
        "velocity": 115
      },
      {
        "pitch": 59,
        "duration": 0.5,
        "velocity": 105
      },
      {
        "pitch": 71,
        "duration": 1.0,
        "velocity": 115
      },
      {
        "pitch": 30,
        "duration": 1.0,
        "velocity": 100
      },
      {
        "pitch": 70,
        "duration": 1.6666666666666667,
        "velocity": 115
      },
      {
        "pitch": 30,
        "duration": 0.25,
        "velocity": 100
      }
    ],
    "key": "G# minor",
    "tempo": 120,
    "name": "74c4313bdb65ea800399f5dbe7527d7a.mid_seg76",
    "avg_interval": 28.666666666666668,
    "span": 47,
    "note_density": 0.3750000000000001,
    "register": "bass",
    "complexity": 0.7916666666666666
  },
  {
    "events": [
      {
        "pitch": 30,
        "duration": 0.25,
        "velocity": 100
      },
      {
        "pitch": 30,
        "duration": 0.25,
        "velocity": 100
      },
      {
        "pitch": 58,
        "duration": 1.0,
        "velocity": 109
      },
      {
        "pitch": 34,
        "duration": 0.75,
        "velocity": 100
      },
      {
        "pitch": 75,
        "duration": 0.5,
        "velocity": 116
      },
      {
        "pitch": 74,
        "duration": 0.5,
        "velocity": 116
      },
      {
        "pitch": 62,
        "duration": 0.5,
        "velocity": 105
      },
      {
        "pitch": 72,
        "duration": 0.5,
        "velocity": 116
      },
      {
        "pitch": 60,
        "duration": 0.5,
        "velocity": 106
      },
      {
        "pitch": 32,
        "duration": 1.0,
        "velocity": 100
      },
      {
        "pitch": 74,
        "duration": 1.0,
        "velocity": 116
      },
      {
        "pitch": 32,
        "duration": 0.25,
        "velocity": 100
      },
      {
        "pitch": 75,
        "duration": 1.25,
        "velocity": 116
      },
      {
        "pitch": 32,
        "duration": 0.25,
        "velocity": 100
      },
      {
        "pitch": 63,
        "duration": 1.25,
        "velocity": 106
      },
      {
        "pitch": 28,
        "duration": 1.5,
        "velocity": 100
      }
    ],
    "key": "G# minor",
    "tempo": 120,
    "name": "74c4313bdb65ea800399f5dbe7527d7a.mid_seg77",
    "avg_interval": 26.133333333333333,
    "span": 47,
    "note_density": 0.296875,
    "register": "bass",
    "complexity": 0.765625
  },
  {
    "events": [
      {
        "pitch": 71,
        "duration": 0.5,
        "velocity": 116
      },
      {
        "pitch": 59,
        "duration": 0.5,
        "velocity": 107
      },
      {
        "pitch": 28,
        "duration": 1.5,
        "velocity": 100
      },
      {
        "pitch": 73,
        "duration": 0.25,
        "velocity": 116
      },
      {
        "pitch": 61,
        "duration": 0.5,
        "velocity": 105
      },
      {
        "pitch": 71,
        "duration": 0.5,
        "velocity": 116
      },
      {
        "pitch": 59,
        "duration": 0.5,
        "velocity": 105
      },
      {
        "pitch": 30,
        "duration": 1.5,
        "velocity": 100
      },
      {
        "pitch": 73,
        "duration": 2.25,
        "velocity": 116
      },
      {
        "pitch": 30,
        "duration": 1.5,
        "velocity": 100
      },
      {
        "pitch": 59,
        "duration": 1.0,
        "velocity": 105
      },
      {
        "pitch": 58,
        "duration": 0.5,
        "velocity": 105
      },
      {
        "pitch": 30,
        "duration": 1.0,
        "velocity": 100
      },
      {
        "pitch": 39,
        "duration": 0.5,
        "velocity": 100
      },
      {
        "pitch": 61,
        "duration": 0.25,
        "velocity": 116
      },
      {
        "pitch": 63,
        "duration": 0.25,
        "velocity": 116
      }
    ],
    "key": "G# minor",
    "tempo": 120,
    "name": "74c4313bdb65ea800399f5dbe7527d7a.mid_seg78",
    "avg_interval": 21.866666666666667,
    "span": 45,
    "note_density": 0.1875,
    "register": "bass",
    "complexity": 0.7291666666666666
  },
  {
    "events": [
      {
        "pitch": 37,
        "duration": 0.25,
        "velocity": 100
      },
      {
        "pitch": 61,
        "duration": 0.25,
        "velocity": 116
      },
      {
        "pitch": 51,
        "duration": 0.75,
        "velocity": 116
      },
      {
        "pitch": 39,
        "duration": 0.5,
        "velocity": 100
      },
      {
        "pitch": 63,
        "duration": 0.25,
        "velocity": 116
      },
      {
        "pitch": 39,
        "duration": 0.5,
        "velocity": 116
      },
      {
        "pitch": 63,
        "duration": 0.25,
        "velocity": 100
      },
      {
        "pitch": 63,
        "duration": 0.25,
        "velocity": 100
      },
      {
        "pitch": 51,
        "duration": 0.25,
        "velocity": 100
      },
      {
        "pitch": 51,
        "duration": 0.25,
        "velocity": 100
      },
      {
        "pitch": 32,
        "duration": 0.3333333333333333,
        "velocity": 100
      },
      {
        "pitch": 51,
        "duration": 0.25,
        "velocity": 100
      },
      {
        "pitch": 51,
        "duration": 0.25,
        "velocity": 100
      },
      {
        "pitch": 37,
        "duration": 0.25,
        "velocity": 100
      },
      {
        "pitch": 61,
        "duration": 0.25,
        "velocity": 116
      },
      {
        "pitch": 61,
        "duration": 0.25,
        "velocity": 116
      }
    ],
    "key": "G# minor",
    "tempo": 120,
    "name": "74c4313bdb65ea800399f5dbe7527d7a.mid_seg79",
    "avg_interval": 13.733333333333333,
    "span": 31,
    "note_density": 0.6822916666666666,
    "register": "bass",
    "complexity": 0.8940972222222222
  },
  {
    "events": [
      {
        "pitch": 39,
        "duration": 0.25,
        "velocity": 100
      },
      {
        "pitch": 63,
        "duration": 0.3333333333333333,
        "velocity": 116
      },
      {
        "pitch": 63,
        "duration": 0.25,
        "velocity": 100
      },
      {
        "pitch": 63,
        "duration": 0.25,
        "velocity": 100
      },
      {
        "pitch": 39,
        "duration": 0.25,
        "velocity": 100
      },
      {
        "pitch": 51,
        "duration": 0.75,
        "velocity": 116
      },
      {
        "pitch": 61,
        "duration": 0.25,
        "velocity": 116
      },
      {
        "pitch": 39,
        "duration": 0.5,
        "velocity": 100
      },
      {
        "pitch": 63,
        "duration": 0.25,
        "velocity": 116
      },
      {
        "pitch": 39,
        "duration": 0.5,
        "velocity": 116
      },
      {
        "pitch": 51,
        "duration": 0.5,
        "velocity": 100
      },
      {
        "pitch": 51,
        "duration": 0.5,
        "velocity": 100
      },
      {
        "pitch": 37,
        "duration": 0.25,
        "velocity": 100
      },
      {
        "pitch": 64,
        "duration": 0.25,
        "velocity": 116
      },
      {
        "pitch": 61,
        "duration": 0.25,
        "velocity": 100
      },
      {
        "pitch": 61,
        "duration": 0.25,
        "velocity": 116
      }
    ],
    "key": "G# minor",
    "tempo": 120,
    "name": "74c4313bdb65ea800399f5dbe7527d7a.mid_seg80",
    "avg_interval": 13.066666666666666,
    "span": 27,
    "note_density": 0.6510416666666667,
    "register": "bass",
    "complexity": 0.8836805555555557
  },
  {
    "events": [
      {
        "pitch": 73,
        "duration": 0.25,
        "velocity": 116
      },
      {
        "pitch": 66,
        "duration": 0.25,
        "velocity": 100
      },
      {
        "pitch": 39,
        "duration": 0.5,
        "velocity": 100
      },
      {
        "pitch": 61,
        "duration": 0.25,
        "velocity": 116
      },
      {
        "pitch": 75,
        "duration": 0.5,
        "velocity": 116
      },
      {
        "pitch": 76,
        "duration": 0.25,
        "velocity": 116
      },
      {
        "pitch": 63,
        "duration": 0.25,
        "velocity": 116
      },
      {
        "pitch": 76,
        "duration": 0.25,
        "velocity": 116
      },
      {
        "pitch": 37,
        "duration": 0.25,
        "velocity": 100
      },
      {
        "pitch": 61,
        "duration": 0.25,
        "velocity": 116
      },
      {
        "pitch": 76,
        "duration": 0.25,
        "velocity": 116
      },
      {
        "pitch": 39,
        "duration": 0.5,
        "velocity": 100
      },
      {
        "pitch": 63,
        "duration": 0.25,
        "velocity": 116
      },
      {
        "pitch": 63,
        "duration": 0.25,
        "velocity": 100
      },
      {
        "pitch": 63,
        "duration": 0.25,
        "velocity": 100
      },
      {
        "pitch": 51,
        "duration": 0.25,
        "velocity": 100
      }
    ],
    "key": "G# minor",
    "tempo": 120,
    "name": "74c4313bdb65ea800399f5dbe7527d7a.mid_seg81",
    "avg_interval": 16.533333333333335,
    "span": 39,
    "note_density": 0.703125,
    "register": "middle",
    "complexity": 0.9010416666666666
  },
  {
    "events": [
      {
        "pitch": 51,
        "duration": 0.25,
        "velocity": 100
      },
      {
        "pitch": 32,
        "duration": 0.3333333333333333,
        "velocity": 100
      },
      {
        "pitch": 76,
        "duration": 0.25,
        "velocity": 116
      },
      {
        "pitch": 51,
        "duration": 0.25,
        "velocity": 100
      },
      {
        "pitch": 51,
        "duration": 0.25,
        "velocity": 100
      },
      {
        "pitch": 37,
        "duration": 0.25,
        "velocity": 100
      },
      {
        "pitch": 61,
        "duration": 0.25,
        "velocity": 116
      },
      {
        "pitch": 39,
        "duration": 0.25,
        "velocity": 100
      },
      {
        "pitch": 63,
        "duration": 0.25,
        "velocity": 116
      },
      {
        "pitch": 63,
        "duration": 0.25,
        "velocity": 100
      },
      {
        "pitch": 63,
        "duration": 0.25,
        "velocity": 100
      },
      {
        "pitch": 39,
        "duration": 0.25,
        "velocity": 100
      },
      {
        "pitch": 76,
        "duration": 0.25,
        "velocity": 116
      },
      {
        "pitch": 39,
        "duration": 0.5,
        "velocity": 100
      },
      {
        "pitch": 61,
        "duration": 0.25,
        "velocity": 116
      },
      {
        "pitch": 80,
        "duration": 0.25,
        "velocity": 116
      }
    ],
    "key": "G# minor",
    "tempo": 120,
    "name": "74c4313bdb65ea800399f5dbe7527d7a.mid_seg82",
    "avg_interval": 20.733333333333334,
    "span": 48,
    "note_density": 0.7291666666666667,
    "register": "middle",
    "complexity": 0.9097222222222223
  },
  {
    "events": [
      {
        "pitch": 51,
        "duration": 0.5,
        "velocity": 100
      },
      {
        "pitch": 51,
        "duration": 0.5,
        "velocity": 100
      },
      {
        "pitch": 63,
        "duration": 0.25,
        "velocity": 116
      },
      {
        "pitch": 82,
        "duration": 0.25,
        "velocity": 116
      },
      {
        "pitch": 37,
        "duration": 0.25,
        "velocity": 100
      },
      {
        "pitch": 61,
        "duration": 0.25,
        "velocity": 100
      },
      {
        "pitch": 63,
        "duration": 0.25,
        "velocity": 116
      },
      {
        "pitch": 82,
        "duration": 0.25,
        "velocity": 116
      },
      {
        "pitch": 88,
        "duration": 0.25,
        "velocity": 116
      },
      {
        "pitch": 66,
        "duration": 0.25,
        "velocity": 100
      },
      {
        "pitch": 39,
        "duration": 0.5,
        "velocity": 100
      },
      {
        "pitch": 61,
        "duration": 0.25,
        "velocity": 116
      },
      {
        "pitch": 63,
        "duration": 0.25,
        "velocity": 116
      },
      {
        "pitch": 37,
        "duration": 0.25,
        "velocity": 100
      },
      {
        "pitch": 61,
        "duration": 0.25,
        "velocity": 116
      },
      {
        "pitch": 82,
        "duration": 0.25,
        "velocity": 116
      }
    ],
    "key": "G# minor",
    "tempo": 120,
    "name": "74c4313bdb65ea800399f5dbe7527d7a.mid_seg83",
    "avg_interval": 18.066666666666666,
    "span": 51,
    "note_density": 0.703125,
    "register": "middle",
    "complexity": 0.9010416666666666
  },
  {
    "events": [
      {
        "pitch": 39,
        "duration": 0.5,
        "velocity": 100
      },
      {
        "pitch": 63,
        "duration": 0.25,
        "velocity": 116
      },
      {
        "pitch": 76,
        "duration": 0.25,
        "velocity": 116
      },
      {
        "pitch": 63,
        "duration": 0.25,
        "velocity": 100
      },
      {
        "pitch": 63,
        "duration": 0.25,
        "velocity": 100
      },
      {
        "pitch": 80,
        "duration": 0.25,
        "velocity": 116
      },
      {
        "pitch": 51,
        "duration": 0.25,
        "velocity": 100
      },
      {
        "pitch": 51,
        "duration": 0.25,
        "velocity": 100
      },
      {
        "pitch": 32,
        "duration": 0.3333333333333333,
        "velocity": 100
      },
      {
        "pitch": 61,
        "duration": 0.25,
        "velocity": 116
      },
      {
        "pitch": 51,
        "duration": 0.25,
        "velocity": 100
      },
      {
        "pitch": 51,
        "duration": 0.25,
        "velocity": 100
      },
      {
        "pitch": 37,
        "duration": 0.25,
        "velocity": 100
      },
      {
        "pitch": 82,
        "duration": 0.3333333333333333,
        "velocity": 116
      },
      {
        "pitch": 39,
        "duration": 0.25,
        "velocity": 100
      },
      {
        "pitch": 63,
        "duration": 0.25,
        "velocity": 116
      }
    ],
    "key": "G# minor",
    "tempo": 120,
    "name": "74c4313bdb65ea800399f5dbe7527d7a.mid_seg84",
    "avg_interval": 18.666666666666668,
    "span": 50,
    "note_density": 0.7239583333333333,
    "register": "middle",
    "complexity": 0.907986111111111
  },
  {
    "events": [
      {
        "pitch": 63,
        "duration": 0.25,
        "velocity": 100
      },
      {
        "pitch": 63,
        "duration": 0.25,
        "velocity": 100
      },
      {
        "pitch": 83,
        "duration": 0.25,
        "velocity": 116
      },
      {
        "pitch": 39,
        "duration": 0.25,
        "velocity": 100
      },
      {
        "pitch": 39,
        "duration": 0.5,
        "velocity": 100
      },
      {
        "pitch": 61,
        "duration": 0.25,
        "velocity": 116
      },
      {
        "pitch": 51,
        "duration": 0.5,
        "velocity": 100
      },
      {
        "pitch": 51,
        "duration": 0.5,
        "velocity": 100
      },
      {
        "pitch": 63,
        "duration": 0.25,
        "velocity": 116
      },
      {
        "pitch": 37,
        "duration": 0.25,
        "velocity": 100
      },
      {
        "pitch": 61,
        "duration": 0.25,
        "velocity": 100
      },
      {
        "pitch": 66,
        "duration": 0.25,
        "velocity": 100
      },
      {
        "pitch": 39,
        "duration": 0.5,
        "velocity": 100
      },
      {
        "pitch": 61,
        "duration": 0.5,
        "velocity": 116
      },
      {
        "pitch": 63,
        "duration": 0.25,
        "velocity": 117
      },
      {
        "pitch": 37,
        "duration": 0.25,
        "velocity": 100
      }
    ],
    "key": "G# minor",
    "tempo": 120,
    "name": "74c4313bdb65ea800399f5dbe7527d7a.mid_seg85",
    "avg_interval": 16.0,
    "span": 46,
    "note_density": 0.671875,
    "register": "bass",
    "complexity": 0.890625
  },
  {
    "events": [
      {
        "pitch": 61,
        "duration": 0.25,
        "velocity": 117
      },
      {
        "pitch": 39,
        "duration": 0.5,
        "velocity": 100
      },
      {
        "pitch": 63,
        "duration": 0.25,
        "velocity": 117
      },
      {
        "pitch": 63,
        "duration": 0.25,
        "velocity": 100
      },
      {
        "pitch": 63,
        "duration": 0.25,
        "velocity": 100
      },
      {
        "pitch": 82,
        "duration": 0.25,
        "velocity": 117
      },
      {
        "pitch": 51,
        "duration": 0.25,
        "velocity": 100
      },
      {
        "pitch": 51,
        "duration": 0.25,
        "velocity": 100
      },
      {
        "pitch": 32,
        "duration": 0.3333333333333333,
        "velocity": 100
      },
      {
        "pitch": 83,
        "duration": 0.3333333333333333,
        "velocity": 117
      },
      {
        "pitch": 51,
        "duration": 0.25,
        "velocity": 100
      },
      {
        "pitch": 51,
        "duration": 0.25,
        "velocity": 100
      },
      {
        "pitch": 37,
        "duration": 0.25,
        "velocity": 100
      },
      {
        "pitch": 61,
        "duration": 0.25,
        "velocity": 117
      },
      {
        "pitch": 39,
        "duration": 0.25,
        "velocity": 100
      },
      {
        "pitch": 63,
        "duration": 0.25,
        "velocity": 117
      }
    ],
    "key": "G# minor",
    "tempo": 120,
    "name": "74c4313bdb65ea800399f5dbe7527d7a.mid_seg86",
    "avg_interval": 18.8,
    "span": 51,
    "note_density": 0.7239583333333333,
    "register": "middle",
    "complexity": 0.907986111111111
  },
  {
    "events": [
      {
        "pitch": 85,
        "duration": 0.25,
        "velocity": 117
      },
      {
        "pitch": 63,
        "duration": 0.25,
        "velocity": 100
      },
      {
        "pitch": 63,
        "duration": 0.25,
        "velocity": 100
      },
      {
        "pitch": 39,
        "duration": 0.25,
        "velocity": 100
      },
      {
        "pitch": 39,
        "duration": 0.5,
        "velocity": 100
      },
      {
        "pitch": 51,
        "duration": 0.5,
        "velocity": 100
      },
      {
        "pitch": 51,
        "duration": 0.5,
        "velocity": 100
      },
      {
        "pitch": 37,
        "duration": 0.25,
        "velocity": 100
      },
      {
        "pitch": 61,
        "duration": 0.25,
        "velocity": 100
      },
      {
        "pitch": 63,
        "duration": 0.25,
        "velocity": 117
      },
      {
        "pitch": 87,
        "duration": 0.25,
        "velocity": 117
      },
      {
        "pitch": 83,
        "duration": 0.25,
        "velocity": 117
      },
      {
        "pitch": 66,
        "duration": 0.25,
        "velocity": 100
      },
      {
        "pitch": 39,
        "duration": 0.75,
        "velocity": 100
      },
      {
        "pitch": 87,
        "duration": 4.0,
        "velocity": 100
      },
      {
        "pitch": 37,
        "duration": 0.5,
        "velocity": 100
      }
    ],
    "key": "G# minor",
    "tempo": 120,
    "name": "74c4313bdb65ea800399f5dbe7527d7a.mid_seg87",
    "avg_interval": 17.866666666666667,
    "span": 50,
    "note_density": 0.421875,
    "register": "middle",
    "complexity": 0.8072916666666666
  },
  {
    "events": [
      {
        "pitch": 34,
        "duration": 0.5,
        "velocity": 100
      },
      {
        "pitch": 30,
        "duration": 0.25,
        "velocity": 100
      },
      {
        "pitch": 30,
        "duration": 0.5,
        "velocity": 100
      },
      {
        "pitch": 30,
        "duration": 0.25,
        "velocity": 100
      },
      {
        "pitch": 66,
        "duration": 0.25,
        "velocity": 100
      },
      {
        "pitch": 30,
        "duration": 0.25,
        "velocity": 100
      },
      {
        "pitch": 32,
        "duration": 0.25,
        "velocity": 100
      },
      {
        "pitch": 39,
        "duration": 0.75,
        "velocity": 100
      },
      {
        "pitch": 37,
        "duration": 0.5,
        "velocity": 100
      },
      {
        "pitch": 34,
        "duration": 0.5,
        "velocity": 100
      },
      {
        "pitch": 30,
        "duration": 0.25,
        "velocity": 100
      },
      {
        "pitch": 30,
        "duration": 0.5,
        "velocity": 100
      },
      {
        "pitch": 30,
        "duration": 0.25,
        "velocity": 100
      },
      {
        "pitch": 66,
        "duration": 0.25,
        "velocity": 100
      },
      {
        "pitch": 73,
        "duration": 0.25,
        "velocity": 117
      },
      {
        "pitch": 30,
        "duration": 0.25,
        "velocity": 100
      }
    ],
    "key": "G# minor",
    "tempo": 120,
    "name": "74c4313bdb65ea800399f5dbe7527d7a.mid_seg88",
    "avg_interval": 12.0,
    "span": 43,
    "note_density": 0.640625,
    "register": "bass",
    "complexity": 0.8802083333333334
  },
  {
    "events": [
      {
        "pitch": 32,
        "duration": 0.25,
        "velocity": 100
      },
      {
        "pitch": 75,
        "duration": 0.25,
        "velocity": 117
      },
      {
        "pitch": 39,
        "duration": 0.75,
        "velocity": 100
      },
      {
        "pitch": 75,
        "duration": 1.0,
        "velocity": 117
      },
      {
        "pitch": 37,
        "duration": 0.5,
        "velocity": 100
      },
      {
        "pitch": 34,
        "duration": 0.5,
        "velocity": 100
      },
      {
        "pitch": 73,
        "duration": 0.25,
        "velocity": 117
      },
      {
        "pitch": 30,
        "duration": 0.25,
        "velocity": 100
      },
      {
        "pitch": 75,
        "duration": 0.25,
        "velocity": 117
      },
      {
        "pitch": 30,
        "duration": 0.5,
        "velocity": 100
      },
      {
        "pitch": 76,
        "duration": 0.3333333333333333,
        "velocity": 117
      },
      {
        "pitch": 75,
        "duration": 0.25,
        "velocity": 117
      },
      {
        "pitch": 30,
        "duration": 0.25,
        "velocity": 100
      },
      {
        "pitch": 66,
        "duration": 0.25,
        "velocity": 100
      },
      {
        "pitch": 30,
        "duration": 0.25,
        "velocity": 100
      },
      {
        "pitch": 76,
        "duration": 0.3333333333333333,
        "velocity": 117
      }
    ],
    "key": "G# minor",
    "tempo": 120,
    "name": "74c4313bdb65ea800399f5dbe7527d7a.mid_seg89",
    "avg_interval": 35.86666666666667,
    "span": 46,
    "note_density": 0.6145833333333334,
    "register": "bass",
    "complexity": 0.8715277777777778
  },
  {
    "events": [
      {
        "pitch": 32,
        "duration": 0.25,
        "velocity": 100
      },
      {
        "pitch": 75,
        "duration": 0.25,
        "velocity": 117
      },
      {
        "pitch": 39,
        "duration": 0.75,
        "velocity": 100
      },
      {
        "pitch": 75,
        "duration": 1.0,
        "velocity": 117
      },
      {
        "pitch": 37,
        "duration": 0.5,
        "velocity": 100
      },
      {
        "pitch": 34,
        "duration": 0.5,
        "velocity": 100
      },
      {
        "pitch": 30,
        "duration": 0.25,
        "velocity": 100
      },
      {
        "pitch": 30,
        "duration": 0.5,
        "velocity": 100
      },
      {
        "pitch": 76,
        "duration": 0.3333333333333333,
        "velocity": 117
      },
      {
        "pitch": 30,
        "duration": 0.25,
        "velocity": 100
      },
      {
        "pitch": 66,
        "duration": 0.25,
        "velocity": 100
      },
      {
        "pitch": 75,
        "duration": 0.25,
        "velocity": 117
      },
      {
        "pitch": 30,
        "duration": 0.25,
        "velocity": 100
      },
      {
        "pitch": 76,
        "duration": 0.25,
        "velocity": 117
      },
      {
        "pitch": 32,
        "duration": 0.25,
        "velocity": 100
      },
      {
        "pitch": 39,
        "duration": 0.75,
        "velocity": 100
      }
    ],
    "key": "G# minor",
    "tempo": 120,
    "name": "74c4313bdb65ea800399f5dbe7527d7a.mid_seg90",
    "avg_interval": 29.266666666666666,
    "span": 46,
    "note_density": 0.5885416666666667,
    "register": "bass",
    "complexity": 0.8628472222222223
  },
  {
    "events": [
      {
        "pitch": 85,
        "duration": 0.5,
        "velocity": 100
      },
      {
        "pitch": 87,
        "duration": 1.75,
        "velocity": 100
      },
      {
        "pitch": 37,
        "duration": 0.5,
        "velocity": 100
      },
      {
        "pitch": 34,
        "duration": 0.25,
        "velocity": 100
      },
      {
        "pitch": 28,
        "duration": 0.25,
        "velocity": 100
      },
      {
        "pitch": 28,
        "duration": 0.25,
        "velocity": 100
      },
      {
        "pitch": 76,
        "duration": 0.25,
        "velocity": 100
      },
      {
        "pitch": 28,
        "duration": 0.25,
        "velocity": 100
      },
      {
        "pitch": 75,
        "duration": 1.25,
        "velocity": 67
      },
      {
        "pitch": 87,
        "duration": 1.25,
        "velocity": 60
      },
      {
        "pitch": 88,
        "duration": 0.25,
        "velocity": 100
      },
      {
        "pitch": 28,
        "duration": 0.75,
        "velocity": 100
      },
      {
        "pitch": 87,
        "duration": 0.25,
        "velocity": 100
      },
      {
        "pitch": 82,
        "duration": 0.25,
        "velocity": 100
      },
      {
        "pitch": 76,
        "duration": 0.25,
        "velocity": 100
      },
      {
        "pitch": 39,
        "duration": 0.75,
        "velocity": 100
      }
    ],
    "key": "G# minor",
    "tempo": 120,
    "name": "74c4313bdb65ea800399f5dbe7527d7a.mid_seg91",
    "avg_interval": 25.6,
    "span": 60,
    "note_density": 0.4375,
    "register": "middle",
    "complexity": 0.8125
  },
  {
    "events": [
      {
        "pitch": 75,
        "duration": 4.0,
        "velocity": 67
      },
      {
        "pitch": 87,
        "duration": 4.0,
        "velocity": 60
      },
      {
        "pitch": 75,
        "duration": 0.5,
        "velocity": 100
      },
      {
        "pitch": 73,
        "duration": 2.5,
        "velocity": 100
      },
      {
        "pitch": 37,
        "duration": 0.5,
        "velocity": 100
      },
      {
        "pitch": 34,
        "duration": 0.25,
        "velocity": 100
      },
      {
        "pitch": 28,
        "duration": 0.25,
        "velocity": 100
      },
      {
        "pitch": 28,
        "duration": 0.25,
        "velocity": 100
      },
      {
        "pitch": 28,
        "duration": 0.25,
        "velocity": 100
      },
      {
        "pitch": 28,
        "duration": 0.75,
        "velocity": 100
      },
      {
        "pitch": 82,
        "duration": 0.25,
        "velocity": 100
      },
      {
        "pitch": 76,
        "duration": 0.25,
        "velocity": 100
      },
      {
        "pitch": 39,
        "duration": 0.75,
        "velocity": 100
      },
      {
        "pitch": 75,
        "duration": 0.25,
        "velocity": 67
      },
      {
        "pitch": 87,
        "duration": 3.25,
        "velocity": 60
      },
      {
        "pitch": 73,
        "duration": 0.5,
        "velocity": 100
      }
    ],
    "key": "G# minor",
    "tempo": 120,
    "name": "74c4313bdb65ea800399f5dbe7527d7a.mid_seg92",
    "avg_interval": 15.333333333333334,
    "span": 59,
    "note_density": 0.0,
    "register": "middle",
    "complexity": 0.6666666666666666
  },
  {
    "events": [
      {
        "pitch": 75,
        "duration": 3.0,
        "velocity": 102
      },
      {
        "pitch": 66,
        "duration": 1.75,
        "velocity": 100
      },
      {
        "pitch": 37,
        "duration": 0.5,
        "velocity": 100
      },
      {
        "pitch": 34,
        "duration": 0.25,
        "velocity": 100
      },
      {
        "pitch": 28,
        "duration": 0.25,
        "velocity": 100
      },
      {
        "pitch": 28,
        "duration": 0.25,
        "velocity": 100
      },
      {
        "pitch": 64,
        "duration": 0.25,
        "velocity": 100
      },
      {
        "pitch": 28,
        "duration": 0.25,
        "velocity": 100
      },
      {
        "pitch": 76,
        "duration": 0.25,
        "velocity": 100
      },
      {
        "pitch": 28,
        "duration": 0.75,
        "velocity": 100
      },
      {
        "pitch": 75,
        "duration": 0.25,
        "velocity": 100
      },
      {
        "pitch": 70,
        "duration": 0.25,
        "velocity": 100
      },
      {
        "pitch": 64,
        "duration": 0.25,
        "velocity": 100
      },
      {
        "pitch": 39,
        "duration": 0.75,
        "velocity": 100
      },
      {
        "pitch": 63,
        "duration": 0.5,
        "velocity": 100
      },
      {
        "pitch": 61,
        "duration": 1.5,
        "velocity": 100
      }
    ],
    "key": "G# minor",
    "tempo": 120,
    "name": "74c4313bdb65ea800399f5dbe7527d7a.mid_seg93",
    "avg_interval": 21.6,
    "span": 48,
    "note_density": 0.3125,
    "register": "bass",
    "complexity": 0.7708333333333334
  },
  {
    "events": [
      {
        "pitch": 37,
        "duration": 0.5,
        "velocity": 100
      },
      {
        "pitch": 34,
        "duration": 0.25,
        "velocity": 100
      },
      {
        "pitch": 28,
        "duration": 0.25,
        "velocity": 100
      },
      {
        "pitch": 64,
        "duration": 0.25,
        "velocity": 100
      },
      {
        "pitch": 28,
        "duration": 0.25,
        "velocity": 100
      },
      {
        "pitch": 70,
        "duration": 0.25,
        "velocity": 100
      },
      {
        "pitch": 28,
        "duration": 0.25,
        "velocity": 100
      },
      {
        "pitch": 76,
        "duration": 0.3333333333333333,
        "velocity": 100
      },
      {
        "pitch": 28,
        "duration": 0.75,
        "velocity": 100
      },
      {
        "pitch": 88,
        "duration": 0.25,
        "velocity": 100
      },
      {
        "pitch": 39,
        "duration": 0.75,
        "velocity": 100
      },
      {
        "pitch": 85,
        "duration": 0.5,
        "velocity": 100
      },
      {
        "pitch": 87,
        "duration": 1.75,
        "velocity": 100
      },
      {
        "pitch": 37,
        "duration": 0.5,
        "velocity": 100
      },
      {
        "pitch": 34,
        "duration": 0.25,
        "velocity": 100
      },
      {
        "pitch": 28,
        "duration": 0.25,
        "velocity": 100
      }
    ],
    "key": "G# minor",
    "tempo": 120,
    "name": "74c4313bdb65ea800399f5dbe7527d7a.mid_seg94",
    "avg_interval": 31.8,
    "span": 60,
    "note_density": 0.5416666666666666,
    "register": "bass",
    "complexity": 0.8472222222222222
  },
  {
    "events": [
      {
        "pitch": 28,
        "duration": 0.25,
        "velocity": 100
      },
      {
        "pitch": 76,
        "duration": 0.25,
        "velocity": 100
      },
      {
        "pitch": 28,
        "duration": 0.25,
        "velocity": 100
      },
      {
        "pitch": 88,
        "duration": 0.25,
        "velocity": 100
      },
      {
        "pitch": 28,
        "duration": 0.75,
        "velocity": 100
      },
      {
        "pitch": 87,
        "duration": 0.25,
        "velocity": 100
      },
      {
        "pitch": 82,
        "duration": 0.25,
        "velocity": 100
      },
      {
        "pitch": 76,
        "duration": 0.25,
        "velocity": 100
      },
      {
        "pitch": 39,
        "duration": 0.75,
        "velocity": 100
      },
      {
        "pitch": 75,
        "duration": 0.5,
        "velocity": 100
      },
      {
        "pitch": 73,
        "duration": 2.5,
        "velocity": 100
      },
      {
        "pitch": 37,
        "duration": 0.5,
        "velocity": 100
      },
      {
        "pitch": 34,
        "duration": 0.25,
        "velocity": 100
      },
      {
        "pitch": 28,
        "duration": 0.25,
        "velocity": 100
      },
      {
        "pitch": 28,
        "duration": 0.25,
        "velocity": 100
      },
      {
        "pitch": 28,
        "duration": 0.25,
        "velocity": 100
      }
    ],
    "key": "G# minor",
    "tempo": 120,
    "name": "74c4313bdb65ea800399f5dbe7527d7a.mid_seg95",
    "avg_interval": 27.066666666666666,
    "span": 60,
    "note_density": 0.515625,
    "register": "bass",
    "complexity": 0.8385416666666666
  },
  {
    "events": [
      {
        "pitch": 28,
        "duration": 0.75,
        "velocity": 100
      },
      {
        "pitch": 82,
        "duration": 0.25,
        "velocity": 100
      },
      {
        "pitch": 76,
        "duration": 0.25,
        "velocity": 100
      },
      {
        "pitch": 39,
        "duration": 0.75,
        "velocity": 100
      },
      {
        "pitch": 73,
        "duration": 0.5,
        "velocity": 100
      },
      {
        "pitch": 66,
        "duration": 1.75,
        "velocity": 100
      },
      {
        "pitch": 37,
        "duration": 0.5,
        "velocity": 100
      },
      {
        "pitch": 34,
        "duration": 0.25,
        "velocity": 100
      },
      {
        "pitch": 28,
        "duration": 0.25,
        "velocity": 100
      },
      {
        "pitch": 28,
        "duration": 0.25,
        "velocity": 100
      },
      {
        "pitch": 64,
        "duration": 0.25,
        "velocity": 100
      },
      {
        "pitch": 28,
        "duration": 0.25,
        "velocity": 100
      },
      {
        "pitch": 76,
        "duration": 0.25,
        "velocity": 100
      },
      {
        "pitch": 28,
        "duration": 0.75,
        "velocity": 100
      },
      {
        "pitch": 75,
        "duration": 0.25,
        "velocity": 100
      },
      {
        "pitch": 70,
        "duration": 0.25,
        "velocity": 100
      }
    ],
    "key": "G# minor",
    "tempo": 120,
    "name": "74c4313bdb65ea800399f5dbe7527d7a.mid_seg96",
    "avg_interval": 26.4,
    "span": 54,
    "note_density": 0.53125,
    "register": "bass",
    "complexity": 0.84375
  },
  {
    "events": [
      {
        "pitch": 64,
        "duration": 0.25,
        "velocity": 100
      },
      {
        "pitch": 39,
        "duration": 0.75,
        "velocity": 100
      },
      {
        "pitch": 63,
        "duration": 0.5,
        "velocity": 100
      },
      {
        "pitch": 61,
        "duration": 1.5,
        "velocity": 100
      },
      {
        "pitch": 37,
        "duration": 0.5,
        "velocity": 100
      },
      {
        "pitch": 34,
        "duration": 0.25,
        "velocity": 100
      },
      {
        "pitch": 28,
        "duration": 0.25,
        "velocity": 100
      },
      {
        "pitch": 64,
        "duration": 0.25,
        "velocity": 100
      },
      {
        "pitch": 28,
        "duration": 0.25,
        "velocity": 100
      },
      {
        "pitch": 70,
        "duration": 0.25,
        "velocity": 100
      },
      {
        "pitch": 28,
        "duration": 0.25,
        "velocity": 100
      },
      {
        "pitch": 76,
        "duration": 0.3333333333333333,
        "velocity": 100
      },
      {
        "pitch": 28,
        "duration": 0.75,
        "velocity": 100
      },
      {
        "pitch": 88,
        "duration": 0.25,
        "velocity": 100
      },
      {
        "pitch": 85,
        "duration": 0.5,
        "velocity": 100
      },
      {
        "pitch": 87,
        "duration": 1.75,
        "velocity": 100
      }
    ],
    "key": "G# minor",
    "tempo": 120,
    "name": "74c4313bdb65ea800399f5dbe7527d7a.mid_seg97",
    "avg_interval": 26.733333333333334,
    "span": 60,
    "note_density": 0.46354166666666674,
    "register": "middle",
    "complexity": 0.8211805555555557
  },
  {
    "events": [
      {
        "pitch": 76,
        "duration": 0.25,
        "velocity": 100
      },
      {
        "pitch": 88,
        "duration": 0.25,
        "velocity": 100
      },
      {
        "pitch": 87,
        "duration": 0.25,
        "velocity": 100
      },
      {
        "pitch": 82,
        "duration": 0.25,
        "velocity": 100
      },
      {
        "pitch": 76,
        "duration": 0.25,
        "velocity": 100
      },
      {
        "pitch": 75,
        "duration": 0.5,
        "velocity": 100
      },
      {
        "pitch": 73,
        "duration": 2.5,
        "velocity": 100
      },
      {
        "pitch": 82,
        "duration": 0.25,
        "velocity": 100
      },
      {
        "pitch": 76,
        "duration": 0.25,
        "velocity": 100
      },
      {
        "pitch": 73,
        "duration": 0.5,
        "velocity": 100
      },
      {
        "pitch": 66,
        "duration": 1.75,
        "velocity": 100
      },
      {
        "pitch": 64,
        "duration": 0.25,
        "velocity": 100
      },
      {
        "pitch": 76,
        "duration": 0.25,
        "velocity": 100
      },
      {
        "pitch": 75,
        "duration": 0.25,
        "velocity": 100
      },
      {
        "pitch": 70,
        "duration": 0.25,
        "velocity": 100
      },
      {
        "pitch": 64,
        "duration": 0.25,
        "velocity": 100
      }
    ],
    "key": "G# minor",
    "tempo": 120,
    "name": "74c4313bdb65ea800399f5dbe7527d7a.mid_seg98",
    "avg_interval": 5.2,
    "span": 24,
    "note_density": 0.484375,
    "register": "treble",
    "complexity": 0.6392361111111111
  },
  {
    "events": [
      {
        "pitch": 63,
        "duration": 0.5,
        "velocity": 100
      },
      {
        "pitch": 61,
        "duration": 1.5,
        "velocity": 100
      },
      {
        "pitch": 64,
        "duration": 0.25,
        "velocity": 100
      },
      {
        "pitch": 70,
        "duration": 0.25,
        "velocity": 100
      },
      {
        "pitch": 64,
        "duration": 0.25,
        "velocity": 117
      },
      {
        "pitch": 76,
        "duration": 0.3333333333333333,
        "velocity": 100
      },
      {
        "pitch": 88,
        "duration": 0.25,
        "velocity": 100
      },
      {
        "pitch": 87,
        "duration": 0.25,
        "velocity": 120
      },
      {
        "pitch": 88,
        "duration": 0.25,
        "velocity": 120
      },
      {
        "pitch": 82,
        "duration": 0.25,
        "velocity": 120
      },
      {
        "pitch": 82,
        "duration": 0.25,
        "velocity": 120
      },
      {
        "pitch": 87,
        "duration": 0.25,
        "velocity": 120
      },
      {
        "pitch": 88,
        "duration": 0.25,
        "velocity": 120
      },
      {
        "pitch": 82,
        "duration": 0.25,
        "velocity": 120
      },
      {
        "pitch": 87,
        "duration": 0.25,
        "velocity": 120
      },
      {
        "pitch": 88,
        "duration": 0.25,
        "velocity": 120
      }
    ],
    "key": "G# minor",
    "tempo": 120,
    "name": "74c4313bdb65ea800399f5dbe7527d7a.mid_seg99",
    "avg_interval": 4.466666666666667,
    "span": 27,
    "note_density": 0.6510416666666666,
    "register": "treble",
    "complexity": 0.6744212962962962
  },
  {
    "events": [
      {
        "pitch": 82,
        "duration": 0.25,
        "velocity": 120
      },
      {
        "pitch": 87,
        "duration": 0.25,
        "velocity": 120
      },
      {
        "pitch": 88,
        "duration": 0.25,
        "velocity": 100
      },
      {
        "pitch": 82,
        "duration": 0.25,
        "velocity": 100
      },
      {
        "pitch": 87,
        "duration": 0.25,
        "velocity": 100
      },
      {
        "pitch": 88,
        "duration": 0.25,
        "velocity": 100
      },
      {
        "pitch": 82,
        "duration": 0.25,
        "velocity": 100
      },
      {
        "pitch": 87,
        "duration": 0.25,
        "velocity": 100
      },
      {
        "pitch": 88,
        "duration": 0.25,
        "velocity": 100
      },
      {
        "pitch": 82,
        "duration": 0.25,
        "velocity": 100
      },
      {
        "pitch": 87,
        "duration": 0.25,
        "velocity": 100
      },
      {
        "pitch": 88,
        "duration": 0.25,
        "velocity": 100
      },
      {
        "pitch": 82,
        "duration": 0.25,
        "velocity": 100
      },
      {
        "pitch": 87,
        "duration": 0.25,
        "velocity": 100
      },
      {
        "pitch": 88,
        "duration": 0.25,
        "velocity": 100
      },
      {
        "pitch": 82,
        "duration": 0.25,
        "velocity": 100
      }
    ],
    "key": "G# minor",
    "tempo": 120,
    "name": "74c4313bdb65ea800399f5dbe7527d7a.mid_seg100",
    "avg_interval": 4.0,
    "span": 6,
    "note_density": 0.75,
    "register": "treble",
    "complexity": 0.4444444444444444
  },
  {
    "events": [
      {
        "pitch": 87,
        "duration": 0.25,
        "velocity": 100
      },
      {
        "pitch": 88,
        "duration": 0.25,
        "velocity": 100
      },
      {
        "pitch": 82,
        "duration": 0.25,
        "velocity": 100
      }
    ],
    "key": "G# minor",
    "tempo": 120,
    "name": "74c4313bdb65ea800399f5dbe7527d7a.mid_seg101",
    "avg_interval": 3.5,
    "span": 6,
    "note_density": 0.75,
    "register": "treble",
    "complexity": 0.4305555555555556
  },
  {
    "events": [
      {
        "pitch": 72,
        "duration": 0.25,
        "velocity": 72
      },
      {
        "pitch": 77,
        "duration": 0.25,
        "velocity": 95
      },
      {
        "pitch": 72,
        "duration": 0.25,
        "velocity": 79
      },
      {
        "pitch": 77,
        "duration": 0.25,
        "velocity": 92
      },
      {
        "pitch": 72,
        "duration": 0.25,
        "velocity": 81
      },
      {
        "pitch": 77,
        "duration": 0.25,
        "velocity": 98
      },
      {
        "pitch": 72,
        "duration": 0.25,
        "velocity": 71
      },
      {
        "pitch": 69,
        "duration": 0.5,
        "velocity": 85
      },
      {
        "pitch": 72,
        "duration": 0.3333333333333333,
        "velocity": 109
      },
      {
        "pitch": 72,
        "duration": 0.3333333333333333,
        "velocity": 88
      },
      {
        "pitch": 72,
        "duration": 0.3333333333333333,
        "velocity": 85
      },
      {
        "pitch": 72,
        "duration": 0.3333333333333333,
        "velocity": 88
      },
      {
        "pitch": 69,
        "duration": 0.3333333333333333,
        "velocity": 71
      },
      {
        "pitch": 72,
        "duration": 0.3333333333333333,
        "velocity": 75
      },
      {
        "pitch": 69,
        "duration": 0.75,
        "velocity": 92
      },
      {
        "pitch": 72,
        "duration": 0.25,
        "velocity": 81
      }
    ],
    "key": "F major",
    "tempo": 120,
    "name": "c266f0303cedb5f3bf10ab3d4d403400.mid_seg0",
    "avg_interval": 3.2,
    "span": 8,
    "note_density": 0.671875,
    "register": "treble",
    "complexity": 0.4239583333333334
  },
  {
    "events": [
      {
        "pitch": 77,
        "duration": 0.25,
        "velocity": 98
      },
      {
        "pitch": 72,
        "duration": 0.25,
        "velocity": 82
      },
      {
        "pitch": 77,
        "duration": 0.3333333333333333,
        "velocity": 92
      },
      {
        "pitch": 72,
        "duration": 0.3333333333333333,
        "velocity": 72
      },
      {
        "pitch": 77,
        "duration": 0.3333333333333333,
        "velocity": 92
      },
      {
        "pitch": 72,
        "duration": 0.3333333333333333,
        "velocity": 75
      },
      {
        "pitch": 69,
        "duration": 0.5,
        "velocity": 92
      },
      {
        "pitch": 81,
        "duration": 0.3333333333333333,
        "velocity": 92
      },
      {
        "pitch": 81,
        "duration": 0.25,
        "velocity": 92
      },
      {
        "pitch": 79,
        "duration": 0.25,
        "velocity": 81
      },
      {
        "pitch": 81,
        "duration": 0.25,
        "velocity": 82
      },
      {
        "pitch": 79,
        "duration": 0.25,
        "velocity": 82
      },
      {
        "pitch": 77,
        "duration": 0.75,
        "velocity": 92
      },
      {
        "pitch": 76,
        "duration": 0.3333333333333333,
        "velocity": 92
      },
      {
        "pitch": 74,
        "duration": 0.3333333333333333,
        "velocity": 88
      },
      {
        "pitch": 72,
        "duration": 1.3333333333333333,
        "velocity": 92
      }
    ],
    "key": "F major",
    "tempo": 120,
    "name": "c266f0303cedb5f3bf10ab3d4d403400.mid_seg1",
    "avg_interval": 3.533333333333333,
    "span": 12,
    "note_density": 0.5989583333333335,
    "register": "treble",
    "complexity": 0.4644675925925927
  },
  {
    "events": [
      {
        "pitch": 69,
        "duration": 0.3333333333333333,
        "velocity": 103
      },
      {
        "pitch": 64,
        "duration": 0.3333333333333333,
        "velocity": 68
      },
      {
        "pitch": 69,
        "duration": 0.25,
        "velocity": 98
      },
      {
        "pitch": 48,
        "duration": 0.75,
        "velocity": 83
      },
      {
        "pitch": 69,
        "duration": 0.25,
        "velocity": 103
      },
      {
        "pitch": 72,
        "duration": 1.25,
        "velocity": 103
      },
      {
        "pitch": 48,
        "duration": 1.5,
        "velocity": 83
      },
      {
        "pitch": 53,
        "duration": 0.25,
        "velocity": 68
      },
      {
        "pitch": 69,
        "duration": 0.25,
        "velocity": 92
      },
      {
        "pitch": 53,
        "duration": 0.3333333333333333,
        "velocity": 62
      },
      {
        "pitch": 65,
        "duration": 0.25,
        "velocity": 92
      },
      {
        "pitch": 70,
        "duration": 0.75,
        "velocity": 116
      },
      {
        "pitch": 48,
        "duration": 0.3333333333333333,
        "velocity": 65
      },
      {
        "pitch": 67,
        "duration": 0.3333333333333333,
        "velocity": 95
      },
      {
        "pitch": 48,
        "duration": 0.3333333333333333,
        "velocity": 58
      },
      {
        "pitch": 64,
        "duration": 0.3333333333333333,
        "velocity": 92
      }
    ],
    "key": "F major",
    "tempo": 120,
    "name": "c266f0303cedb5f3bf10ab3d4d403400.mid_seg2",
    "avg_interval": 13.933333333333334,
    "span": 24,
    "note_density": 0.5104166666666667,
    "register": "middle",
    "complexity": 0.8368055555555557
  },
  {
    "events": [
      {
        "pitch": 65,
        "duration": 1.75,
        "velocity": 116
      },
      {
        "pitch": 53,
        "duration": 0.5,
        "velocity": 54
      },
      {
        "pitch": 53,
        "duration": 0.5,
        "velocity": 54
      },
      {
        "pitch": 69,
        "duration": 0.25,
        "velocity": 62
      },
      {
        "pitch": 69,
        "duration": 0.25,
        "velocity": 109
      },
      {
        "pitch": 65,
        "duration": 0.25,
        "velocity": 56
      },
      {
        "pitch": 69,
        "duration": 0.25,
        "velocity": 103
      },
      {
        "pitch": 53,
        "duration": 0.5,
        "velocity": 58
      },
      {
        "pitch": 69,
        "duration": 0.25,
        "velocity": 98
      },
      {
        "pitch": 72,
        "duration": 1.0,
        "velocity": 95
      },
      {
        "pitch": 69,
        "duration": 0.25,
        "velocity": 98
      },
      {
        "pitch": 53,
        "duration": 0.5,
        "velocity": 63
      },
      {
        "pitch": 65,
        "duration": 0.25,
        "velocity": 92
      },
      {
        "pitch": 70,
        "duration": 0.75,
        "velocity": 116
      },
      {
        "pitch": 48,
        "duration": 0.5,
        "velocity": 48
      },
      {
        "pitch": 48,
        "duration": 0.6666666666666666,
        "velocity": 42
      }
    ],
    "key": "F major",
    "tempo": 120,
    "name": "c266f0303cedb5f3bf10ab3d4d403400.mid_seg3",
    "avg_interval": 8.6,
    "span": 24,
    "note_density": 0.47395833333333337,
    "register": "middle",
    "complexity": 0.7302083333333335
  },
  {
    "events": [
      {
        "pitch": 67,
        "duration": 0.25,
        "velocity": 98
      },
      {
        "pitch": 64,
        "duration": 0.25,
        "velocity": 92
      },
      {
        "pitch": 65,
        "duration": 2.0,
        "velocity": 95
      },
      {
        "pitch": 53,
        "duration": 0.5,
        "velocity": 58
      },
      {
        "pitch": 65,
        "duration": 0.5,
        "velocity": 63
      },
      {
        "pitch": 53,
        "duration": 0.5,
        "velocity": 62
      },
      {
        "pitch": 65,
        "duration": 0.5,
        "velocity": 63
      },
      {
        "pitch": 69,
        "duration": 0.5,
        "velocity": 95
      },
      {
        "pitch": 70,
        "duration": 0.5,
        "velocity": 98
      },
      {
        "pitch": 53,
        "duration": 0.5,
        "velocity": 60
      },
      {
        "pitch": 69,
        "duration": 0.25,
        "velocity": 85
      },
      {
        "pitch": 67,
        "duration": 0.25,
        "velocity": 88
      },
      {
        "pitch": 43,
        "duration": 0.75,
        "velocity": 80
      },
      {
        "pitch": 31,
        "duration": 0.25,
        "velocity": 48
      },
      {
        "pitch": 67,
        "duration": 0.5,
        "velocity": 88
      },
      {
        "pitch": 70,
        "duration": 0.25,
        "velocity": 95
      }
    ],
    "key": "F major",
    "tempo": 120,
    "name": "c266f0303cedb5f3bf10ab3d4d403400.mid_seg4",
    "avg_interval": 11.133333333333333,
    "span": 39,
    "note_density": 0.484375,
    "register": "middle",
    "complexity": 0.8040509259259259
  },
  {
    "events": [
      {
        "pitch": 48,
        "duration": 0.5,
        "velocity": 60
      },
      {
        "pitch": 69,
        "duration": 0.5,
        "velocity": 85
      },
      {
        "pitch": 67,
        "duration": 0.25,
        "velocity": 85
      },
      {
        "pitch": 48,
        "duration": 0.6666666666666666,
        "velocity": 56
      },
      {
        "pitch": 67,
        "duration": 0.5,
        "velocity": 85
      },
      {
        "pitch": 69,
        "duration": 0.3333333333333333,
        "velocity": 92
      },
      {
        "pitch": 48,
        "duration": 0.6666666666666666,
        "velocity": 50
      },
      {
        "pitch": 70,
        "duration": 0.3333333333333333,
        "velocity": 98
      },
      {
        "pitch": 74,
        "duration": 0.25,
        "velocity": 98
      },
      {
        "pitch": 72,
        "duration": 0.75,
        "velocity": 95
      },
      {
        "pitch": 53,
        "duration": 0.5,
        "velocity": 58
      },
      {
        "pitch": 69,
        "duration": 0.3333333333333333,
        "velocity": 98
      },
      {
        "pitch": 69,
        "duration": 0.25,
        "velocity": 92
      },
      {
        "pitch": 53,
        "duration": 0.5,
        "velocity": 60
      },
      {
        "pitch": 69,
        "duration": 0.5,
        "velocity": 92
      },
      {
        "pitch": 24,
        "duration": 1.0,
        "velocity": 80
      }
    ],
    "key": "F major",
    "tempo": 120,
    "name": "c266f0303cedb5f3bf10ab3d4d403400.mid_seg5",
    "avg_interval": 14.933333333333334,
    "span": 50,
    "note_density": 0.5104166666666667,
    "register": "middle",
    "complexity": 0.8368055555555557
  },
  {
    "events": [
      {
        "pitch": 36,
        "duration": 0.5,
        "velocity": 72
      },
      {
        "pitch": 70,
        "duration": 0.5,
        "velocity": 103
      },
      {
        "pitch": 53,
        "duration": 0.5,
        "velocity": 58
      },
      {
        "pitch": 69,
        "duration": 0.25,
        "velocity": 82
      },
      {
        "pitch": 67,
        "duration": 0.25,
        "velocity": 88
      },
      {
        "pitch": 67,
        "duration": 0.25,
        "velocity": 88
      },
      {
        "pitch": 70,
        "duration": 0.25,
        "velocity": 95
      },
      {
        "pitch": 48,
        "duration": 0.5,
        "velocity": 63
      },
      {
        "pitch": 69,
        "duration": 0.25,
        "velocity": 82
      },
      {
        "pitch": 67,
        "duration": 0.25,
        "velocity": 78
      },
      {
        "pitch": 48,
        "duration": 0.5,
        "velocity": 65
      },
      {
        "pitch": 67,
        "duration": 0.5,
        "velocity": 92
      },
      {
        "pitch": 69,
        "duration": 0.3333333333333333,
        "velocity": 92
      },
      {
        "pitch": 48,
        "duration": 0.6666666666666666,
        "velocity": 68
      },
      {
        "pitch": 70,
        "duration": 0.3333333333333333,
        "velocity": 103
      },
      {
        "pitch": 74,
        "duration": 0.5,
        "velocity": 98
      }
    ],
    "key": "F major",
    "tempo": 120,
    "name": "c266f0303cedb5f3bf10ab3d4d403400.mid_seg6",
    "avg_interval": 13.6,
    "span": 38,
    "note_density": 0.6041666666666667,
    "register": "middle",
    "complexity": 0.8680555555555557
  },
  {
    "events": [
      {
        "pitch": 72,
        "duration": 0.75,
        "velocity": 98
      },
      {
        "pitch": 53,
        "duration": 0.5,
        "velocity": 58
      },
      {
        "pitch": 53,
        "duration": 0.5,
        "velocity": 58
      },
      {
        "pitch": 69,
        "duration": 0.3333333333333333,
        "velocity": 103
      },
      {
        "pitch": 69,
        "duration": 0.25,
        "velocity": 95
      },
      {
        "pitch": 53,
        "duration": 0.5,
        "velocity": 63
      },
      {
        "pitch": 69,
        "duration": 0.25,
        "velocity": 88
      },
      {
        "pitch": 72,
        "duration": 1.0,
        "velocity": 103
      },
      {
        "pitch": 69,
        "duration": 0.3333333333333333,
        "velocity": 92
      },
      {
        "pitch": 53,
        "duration": 0.5,
        "velocity": 72
      },
      {
        "pitch": 65,
        "duration": 0.3333333333333333,
        "velocity": 81
      },
      {
        "pitch": 70,
        "duration": 1.0,
        "velocity": 116
      },
      {
        "pitch": 48,
        "duration": 0.5,
        "velocity": 63
      },
      {
        "pitch": 67,
        "duration": 0.3333333333333333,
        "velocity": 85
      },
      {
        "pitch": 48,
        "duration": 0.5,
        "velocity": 62
      },
      {
        "pitch": 64,
        "duration": 0.3333333333333333,
        "velocity": 85
      }
    ],
    "key": "F major",
    "tempo": 120,
    "name": "c266f0303cedb5f3bf10ab3d4d403400.mid_seg7",
    "avg_interval": 12.133333333333333,
    "span": 24,
    "note_density": 0.5052083333333334,
    "register": "middle",
    "complexity": 0.8350694444444445
  },
  {
    "events": [
      {
        "pitch": 65,
        "duration": 1.75,
        "velocity": 98
      },
      {
        "pitch": 69,
        "duration": 0.3333333333333333,
        "velocity": 71
      },
      {
        "pitch": 53,
        "duration": 0.25,
        "velocity": 68
      },
      {
        "pitch": 53,
        "duration": 0.6666666666666666,
        "velocity": 62
      },
      {
        "pitch": 69,
        "duration": 0.3333333333333333,
        "velocity": 103
      },
      {
        "pitch": 69,
        "duration": 0.25,
        "velocity": 95
      },
      {
        "pitch": 69,
        "duration": 0.25,
        "velocity": 88
      },
      {
        "pitch": 72,
        "duration": 1.0,
        "velocity": 103
      },
      {
        "pitch": 69,
        "duration": 0.3333333333333333,
        "velocity": 92
      },
      {
        "pitch": 65,
        "duration": 0.3333333333333333,
        "velocity": 81
      },
      {
        "pitch": 70,
        "duration": 1.0,
        "velocity": 116
      },
      {
        "pitch": 48,
        "duration": 0.25,
        "velocity": 66
      },
      {
        "pitch": 67,
        "duration": 0.25,
        "velocity": 65
      },
      {
        "pitch": 67,
        "duration": 0.3333333333333333,
        "velocity": 85
      },
      {
        "pitch": 64,
        "duration": 0.3333333333333333,
        "velocity": 85
      },
      {
        "pitch": 65,
        "duration": 1.75,
        "velocity": 98
      }
    ],
    "key": "F major",
    "tempo": 120,
    "name": "c266f0303cedb5f3bf10ab3d4d403400.mid_seg8",
    "avg_interval": 6.4,
    "span": 24,
    "note_density": 0.41145833333333337,
    "register": "middle",
    "complexity": 0.6482638888888889
  },
  {
    "events": [
      {
        "pitch": 53,
        "duration": 0.25,
        "velocity": 69
      },
      {
        "pitch": 53,
        "duration": 0.5,
        "velocity": 65
      },
      {
        "pitch": 69,
        "duration": 1.0,
        "velocity": 123
      },
      {
        "pitch": 53,
        "duration": 0.5,
        "velocity": 66
      },
      {
        "pitch": 72,
        "duration": 0.75,
        "velocity": 103
      },
      {
        "pitch": 72,
        "duration": 1.0,
        "velocity": 109
      },
      {
        "pitch": 53,
        "duration": 0.5,
        "velocity": 68
      },
      {
        "pitch": 69,
        "duration": 1.0,
        "velocity": 116
      },
      {
        "pitch": 53,
        "duration": 0.5,
        "velocity": 69
      },
      {
        "pitch": 65,
        "duration": 1.0,
        "velocity": 98
      },
      {
        "pitch": 53,
        "duration": 0.6666666666666666,
        "velocity": 71
      },
      {
        "pitch": 69,
        "duration": 0.6666666666666666,
        "velocity": 66
      },
      {
        "pitch": 62,
        "duration": 0.75,
        "velocity": 116
      },
      {
        "pitch": 62,
        "duration": 1.0,
        "velocity": 88
      },
      {
        "pitch": 50,
        "duration": 0.6666666666666666,
        "velocity": 65
      },
      {
        "pitch": 62,
        "duration": 0.25,
        "velocity": 88
      }
    ],
    "key": "F major",
    "tempo": 120,
    "name": "c266f0303cedb5f3bf10ab3d4d403400.mid_seg9",
    "avg_interval": 11.533333333333333,
    "span": 22,
    "note_density": 0.3125,
    "register": "middle",
    "complexity": 0.7300925925925926
  },
  {
    "events": [
      {
        "pitch": 50,
        "duration": 0.5,
        "velocity": 65
      },
      {
        "pitch": 69,
        "duration": 0.25,
        "velocity": 78
      },
      {
        "pitch": 67,
        "duration": 0.5,
        "velocity": 81
      },
      {
        "pitch": 65,
        "duration": 0.5,
        "velocity": 95
      },
      {
        "pitch": 67,
        "duration": 0.75,
        "velocity": 92
      },
      {
        "pitch": 69,
        "duration": 0.25,
        "velocity": 88
      },
      {
        "pitch": 67,
        "duration": 0.75,
        "velocity": 92
      },
      {
        "pitch": 55,
        "duration": 0.6666666666666666,
        "velocity": 63
      },
      {
        "pitch": 65,
        "duration": 0.25,
        "velocity": 92
      },
      {
        "pitch": 67,
        "duration": 0.5,
        "velocity": 103
      },
      {
        "pitch": 69,
        "duration": 0.5,
        "velocity": 92
      },
      {
        "pitch": 48,
        "duration": 0.5,
        "velocity": 37
      },
      {
        "pitch": 67,
        "duration": 0.5,
        "velocity": 88
      },
      {
        "pitch": 48,
        "duration": 0.5,
        "velocity": 66
      },
      {
        "pitch": 65,
        "duration": 0.5,
        "velocity": 92
      },
      {
        "pitch": 72,
        "duration": 0.5,
        "velocity": 116
      }
    ],
    "key": "F major",
    "tempo": 120,
    "name": "c266f0303cedb5f3bf10ab3d4d403400.mid_seg10",
    "avg_interval": 9.2,
    "span": 24,
    "note_density": 0.5052083333333333,
    "register": "middle",
    "complexity": 0.7572916666666666
  },
  {
    "events": [
      {
        "pitch": 72,
        "duration": 0.25,
        "velocity": 103
      },
      {
        "pitch": 72,
        "duration": 0.5,
        "velocity": 123
      },
      {
        "pitch": 72,
        "duration": 0.25,
        "velocity": 109
      },
      {
        "pitch": 72,
        "duration": 0.75,
        "velocity": 116
      },
      {
        "pitch": 72,
        "duration": 0.25,
        "velocity": 98
      },
      {
        "pitch": 72,
        "duration": 0.5,
        "velocity": 98
      },
      {
        "pitch": 69,
        "duration": 0.5,
        "velocity": 92
      },
      {
        "pitch": 67,
        "duration": 0.5,
        "velocity": 81
      },
      {
        "pitch": 65,
        "duration": 0.25,
        "velocity": 88
      },
      {
        "pitch": 69,
        "duration": 2.0,
        "velocity": 116
      },
      {
        "pitch": 53,
        "duration": 0.3333333333333333,
        "velocity": 66
      },
      {
        "pitch": 69,
        "duration": 1.25,
        "velocity": 116
      },
      {
        "pitch": 53,
        "duration": 0.5,
        "velocity": 66
      },
      {
        "pitch": 53,
        "duration": 0.5,
        "velocity": 58
      },
      {
        "pitch": 65,
        "duration": 1.0,
        "velocity": 116
      },
      {
        "pitch": 60,
        "duration": 0.5,
        "velocity": 98
      }
    ],
    "key": "F major",
    "tempo": 120,
    "name": "c266f0303cedb5f3bf10ab3d4d403400.mid_seg11",
    "avg_interval": 5.066666666666666,
    "span": 19,
    "note_density": 0.38541666666666674,
    "register": "middle",
    "complexity": 0.5331018518518519
  },
  {
    "events": [
      {
        "pitch": 53,
        "duration": 0.5,
        "velocity": 68
      },
      {
        "pitch": 65,
        "duration": 0.5,
        "velocity": 116
      },
      {
        "pitch": 65,
        "duration": 0.5,
        "velocity": 116
      },
      {
        "pitch": 53,
        "duration": 0.5,
        "velocity": 63
      },
      {
        "pitch": 60,
        "duration": 0.5,
        "velocity": 103
      },
      {
        "pitch": 65,
        "duration": 0.5,
        "velocity": 103
      },
      {
        "pitch": 53,
        "duration": 0.6666666666666666,
        "velocity": 71
      },
      {
        "pitch": 60,
        "duration": 0.25,
        "velocity": 92
      },
      {
        "pitch": 65,
        "duration": 2.0,
        "velocity": 116
      },
      {
        "pitch": 65,
        "duration": 0.25,
        "velocity": 65
      },
      {
        "pitch": 53,
        "duration": 0.5,
        "velocity": 66
      },
      {
        "pitch": 65,
        "duration": 1.0,
        "velocity": 116
      },
      {
        "pitch": 53,
        "duration": 0.5,
        "velocity": 65
      },
      {
        "pitch": 53,
        "duration": 0.6666666666666666,
        "velocity": 68
      },
      {
        "pitch": 65,
        "duration": 0.3333333333333333,
        "velocity": 60
      },
      {
        "pitch": 69,
        "duration": 1.0,
        "velocity": 116
      }
    ],
    "key": "F major",
    "tempo": 120,
    "name": "c266f0303cedb5f3bf10ab3d4d403400.mid_seg12",
    "avg_interval": 7.466666666666667,
    "span": 16,
    "note_density": 0.36458333333333337,
    "register": "middle",
    "complexity": 0.5511574074074074
  },
  {
    "events": [
      {
        "pitch": 53,
        "duration": 0.75,
        "velocity": 71
      },
      {
        "pitch": 65,
        "duration": 0.3333333333333333,
        "velocity": 103
      },
      {
        "pitch": 53,
        "duration": 0.5,
        "velocity": 66
      },
      {
        "pitch": 69,
        "duration": 0.3333333333333333,
        "velocity": 109
      },
      {
        "pitch": 69,
        "duration": 0.6666666666666666,
        "velocity": 109
      },
      {
        "pitch": 53,
        "duration": 0.6666666666666666,
        "velocity": 66
      },
      {
        "pitch": 65,
        "duration": 0.25,
        "velocity": 103
      },
      {
        "pitch": 69,
        "duration": 0.5,
        "velocity": 116
      },
      {
        "pitch": 53,
        "duration": 0.5,
        "velocity": 60
      },
      {
        "pitch": 65,
        "duration": 0.25,
        "velocity": 88
      },
      {
        "pitch": 69,
        "duration": 1.25,
        "velocity": 123
      },
      {
        "pitch": 53,
        "duration": 0.75,
        "velocity": 68
      },
      {
        "pitch": 53,
        "duration": 0.6666666666666666,
        "velocity": 60
      },
      {
        "pitch": 72,
        "duration": 0.3333333333333333,
        "velocity": 66
      },
      {
        "pitch": 53,
        "duration": 0.5,
        "velocity": 63
      },
      {
        "pitch": 60,
        "duration": 1.0,
        "velocity": 109
      }
    ],
    "key": "F major",
    "tempo": 120,
    "name": "c266f0303cedb5f3bf10ab3d4d403400.mid_seg13",
    "avg_interval": 11.0,
    "span": 19,
    "note_density": 0.421875,
    "register": "middle",
    "complexity": 0.7100694444444443
  },
  {
    "events": [
      {
        "pitch": 53,
        "duration": 0.75,
        "velocity": 72
      },
      {
        "pitch": 65,
        "duration": 0.3333333333333333,
        "velocity": 62
      },
      {
        "pitch": 72,
        "duration": 2.0,
        "velocity": 116
      },
      {
        "pitch": 48,
        "duration": 0.5,
        "velocity": 69
      },
      {
        "pitch": 72,
        "duration": 0.5,
        "velocity": 116
      },
      {
        "pitch": 48,
        "duration": 0.5,
        "velocity": 68
      },
      {
        "pitch": 74,
        "duration": 0.5,
        "velocity": 103
      },
      {
        "pitch": 70,
        "duration": 0.25,
        "velocity": 109
      },
      {
        "pitch": 48,
        "duration": 0.6666666666666666,
        "velocity": 71
      },
      {
        "pitch": 70,
        "duration": 0.75,
        "velocity": 77
      },
      {
        "pitch": 67,
        "duration": 0.5,
        "velocity": 92
      },
      {
        "pitch": 65,
        "duration": 2.0,
        "velocity": 95
      },
      {
        "pitch": 65,
        "duration": 0.3333333333333333,
        "velocity": 74
      },
      {
        "pitch": 53,
        "duration": 0.5,
        "velocity": 71
      },
      {
        "pitch": 65,
        "duration": 0.25,
        "velocity": 58
      },
      {
        "pitch": 65,
        "duration": 0.3333333333333333,
        "velocity": 95
      }
    ],
    "key": "F major",
    "tempo": 120,
    "name": "c266f0303cedb5f3bf10ab3d4d403400.mid_seg14",
    "avg_interval": 12.933333333333334,
    "span": 26,
    "note_density": 0.33333333333333326,
    "register": "middle",
    "complexity": 0.7777777777777777
  },
  {
    "events": [
      {
        "pitch": 53,
        "duration": 0.6666666666666666,
        "velocity": 72
      },
      {
        "pitch": 69,
        "duration": 0.3333333333333333,
        "velocity": 103
      },
      {
        "pitch": 69,
        "duration": 0.25,
        "velocity": 98
      },
      {
        "pitch": 53,
        "duration": 0.5,
        "velocity": 72
      },
      {
        "pitch": 69,
        "duration": 0.6666666666666666,
        "velocity": 80
      },
      {
        "pitch": 69,
        "duration": 0.25,
        "velocity": 103
      },
      {
        "pitch": 72,
        "duration": 1.25,
        "velocity": 103
      },
      {
        "pitch": 69,
        "duration": 0.25,
        "velocity": 92
      },
      {
        "pitch": 53,
        "duration": 0.6666666666666666,
        "velocity": 71
      },
      {
        "pitch": 65,
        "duration": 0.5,
        "velocity": 92
      },
      {
        "pitch": 65,
        "duration": 0.5,
        "velocity": 74
      },
      {
        "pitch": 70,
        "duration": 1.0,
        "velocity": 116
      },
      {
        "pitch": 48,
        "duration": 0.5,
        "velocity": 71
      },
      {
        "pitch": 65,
        "duration": 0.25,
        "velocity": 74
      },
      {
        "pitch": 67,
        "duration": 0.3333333333333333,
        "velocity": 95
      },
      {
        "pitch": 48,
        "duration": 0.6666666666666666,
        "velocity": 80
      }
    ],
    "key": "F major",
    "tempo": 120,
    "name": "c266f0303cedb5f3bf10ab3d4d403400.mid_seg15",
    "avg_interval": 9.8,
    "span": 24,
    "note_density": 0.46354166666666674,
    "register": "middle",
    "complexity": 0.7600694444444445
  },
  {
    "events": [
      {
        "pitch": 64,
        "duration": 0.3333333333333333,
        "velocity": 92
      },
      {
        "pitch": 65,
        "duration": 1.75,
        "velocity": 116
      },
      {
        "pitch": 69,
        "duration": 0.25,
        "velocity": 72
      },
      {
        "pitch": 53,
        "duration": 0.6666666666666666,
        "velocity": 71
      },
      {
        "pitch": 53,
        "duration": 0.5,
        "velocity": 71
      },
      {
        "pitch": 69,
        "duration": 0.25,
        "velocity": 109
      },
      {
        "pitch": 69,
        "duration": 0.25,
        "velocity": 103
      },
      {
        "pitch": 53,
        "duration": 0.5,
        "velocity": 68
      },
      {
        "pitch": 69,
        "duration": 0.25,
        "velocity": 98
      },
      {
        "pitch": 72,
        "duration": 1.0,
        "velocity": 95
      },
      {
        "pitch": 69,
        "duration": 0.25,
        "velocity": 98
      },
      {
        "pitch": 53,
        "duration": 0.6666666666666666,
        "velocity": 66
      },
      {
        "pitch": 65,
        "duration": 0.25,
        "velocity": 92
      },
      {
        "pitch": 70,
        "duration": 0.75,
        "velocity": 116
      },
      {
        "pitch": 48,
        "duration": 0.6666666666666666,
        "velocity": 69
      },
      {
        "pitch": 67,
        "duration": 0.25,
        "velocity": 98
      }
    ],
    "key": "F major",
    "tempo": 120,
    "name": "c266f0303cedb5f3bf10ab3d4d403400.mid_seg16",
    "avg_interval": 9.933333333333334,
    "span": 24,
    "note_density": 0.46354166666666663,
    "register": "middle",
    "complexity": 0.7637731481481481
  },
  {
    "events": [
      {
        "pitch": 48,
        "duration": 0.5,
        "velocity": 66
      },
      {
        "pitch": 64,
        "duration": 0.25,
        "velocity": 92
      },
      {
        "pitch": 65,
        "duration": 2.0,
        "velocity": 95
      },
      {
        "pitch": 67,
        "duration": 0.25,
        "velocity": 10
      },
      {
        "pitch": 53,
        "duration": 0.5,
        "velocity": 66
      },
      {
        "pitch": 53,
        "duration": 0.6666666666666666,
        "velocity": 66
      },
      {
        "pitch": 53,
        "duration": 0.6666666666666666,
        "velocity": 52
      },
      {
        "pitch": 72,
        "duration": 0.5,
        "velocity": 123
      },
      {
        "pitch": 36,
        "duration": 0.5,
        "velocity": 107
      },
      {
        "pitch": 71,
        "duration": 0.25,
        "velocity": 109
      },
      {
        "pitch": 35,
        "duration": 0.25,
        "velocity": 95
      },
      {
        "pitch": 74,
        "duration": 0.5,
        "velocity": 116
      },
      {
        "pitch": 38,
        "duration": 0.5,
        "velocity": 101
      },
      {
        "pitch": 72,
        "duration": 0.25,
        "velocity": 92
      },
      {
        "pitch": 36,
        "duration": 0.25,
        "velocity": 80
      },
      {
        "pitch": 69,
        "duration": 0.5,
        "velocity": 103
      }
    ],
    "key": "F major",
    "tempo": 120,
    "name": "c266f0303cedb5f3bf10ab3d4d403400.mid_seg17",
    "avg_interval": 22.466666666666665,
    "span": 39,
    "note_density": 0.47916666666666663,
    "register": "middle",
    "complexity": 0.8263888888888888
  },
  {
    "events": [
      {
        "pitch": 33,
        "duration": 0.5,
        "velocity": 90
      },
      {
        "pitch": 65,
        "duration": 0.5,
        "velocity": 123
      },
      {
        "pitch": 29,
        "duration": 0.5,
        "velocity": 107
      },
      {
        "pitch": 77,
        "duration": 0.75,
        "velocity": 109
      },
      {
        "pitch": 29,
        "duration": 0.75,
        "velocity": 95
      }
    ],
    "key": "F major",
    "tempo": 120,
    "name": "c266f0303cedb5f3bf10ab3d4d403400.mid_seg18",
    "avg_interval": 41.0,
    "span": 48,
    "note_density": 0.4,
    "register": "bass",
    "complexity": 0.7999999999999999
  },
  {
    "events": [
      {
        "pitch": 29,
        "duration": 0.25,
        "velocity": 104
      },
      {
        "pitch": 41,
        "duration": 0.25,
        "velocity": 109
      },
      {
        "pitch": 29,
        "duration": 0.25,
        "velocity": 105
      },
      {
        "pitch": 41,
        "duration": 0.25,
        "velocity": 109
      },
      {
        "pitch": 29,
        "duration": 0.25,
        "velocity": 105
      },
      {
        "pitch": 41,
        "duration": 0.25,
        "velocity": 109
      },
      {
        "pitch": 29,
        "duration": 0.25,
        "velocity": 105
      },
      {
        "pitch": 41,
        "duration": 0.25,
        "velocity": 109
      },
      {
        "pitch": 29,
        "duration": 0.25,
        "velocity": 100
      },
      {
        "pitch": 41,
        "duration": 0.25,
        "velocity": 109
      },
      {
        "pitch": 29,
        "duration": 0.25,
        "velocity": 105
      },
      {
        "pitch": 41,
        "duration": 0.25,
        "velocity": 109
      },
      {
        "pitch": 29,
        "duration": 0.5,
        "velocity": 105
      },
      {
        "pitch": 41,
        "duration": 0.25,
        "velocity": 109
      },
      {
        "pitch": 29,
        "duration": 0.25,
        "velocity": 104
      },
      {
        "pitch": 41,
        "duration": 0.25,
        "velocity": 109
      }
    ],
    "key": "F major",
    "tempo": 120,
    "name": "1d7ff7f2b6b4001449960fc8529ba468.mid_seg0",
    "avg_interval": 12.0,
    "span": 12,
    "note_density": 0.734375,
    "register": "bass",
    "complexity": 0.7447916666666666
  },
  {
    "events": [
      {
        "pitch": 29,
        "duration": 0.25,
        "velocity": 105
      },
      {
        "pitch": 41,
        "duration": 0.25,
        "velocity": 109
      },
      {
        "pitch": 60,
        "duration": 0.5,
        "velocity": 97
      },
      {
        "pitch": 60,
        "duration": 0.25,
        "velocity": 95
      },
      {
        "pitch": 29,
        "duration": 0.25,
        "velocity": 105
      },
      {
        "pitch": 41,
        "duration": 0.25,
        "velocity": 109
      },
      {
        "pitch": 60,
        "duration": 0.25,
        "velocity": 91
      },
      {
        "pitch": 60,
        "duration": 0.3333333333333333,
        "velocity": 86
      },
      {
        "pitch": 62,
        "duration": 0.5,
        "velocity": 89
      },
      {
        "pitch": 62,
        "duration": 0.25,
        "velocity": 93
      },
      {
        "pitch": 62,
        "duration": 0.25,
        "velocity": 91
      },
      {
        "pitch": 62,
        "duration": 0.25,
        "velocity": 91
      },
      {
        "pitch": 29,
        "duration": 0.25,
        "velocity": 105
      },
      {
        "pitch": 41,
        "duration": 0.25,
        "velocity": 109
      },
      {
        "pitch": 64,
        "duration": 0.75,
        "velocity": 96
      },
      {
        "pitch": 64,
        "duration": 0.5,
        "velocity": 93
      }
    ],
    "key": "F major",
    "tempo": 120,
    "name": "1d7ff7f2b6b4001449960fc8529ba468.mid_seg1",
    "avg_interval": 10.866666666666667,
    "span": 35,
    "note_density": 0.6666666666666666,
    "register": "bass",
    "complexity": 0.8574074074074073
  },
  {
    "events": [
      {
        "pitch": 29,
        "duration": 0.25,
        "velocity": 105
      },
      {
        "pitch": 41,
        "duration": 0.25,
        "velocity": 109
      },
      {
        "pitch": 65,
        "duration": 1.0,
        "velocity": 102
      },
      {
        "pitch": 62,
        "duration": 0.25,
        "velocity": 84
      },
      {
        "pitch": 60,
        "duration": 0.75,
        "velocity": 79
      },
      {
        "pitch": 29,
        "duration": 0.25,
        "velocity": 105
      },
      {
        "pitch": 41,
        "duration": 0.25,
        "velocity": 99
      },
      {
        "pitch": 29,
        "duration": 0.25,
        "velocity": 105
      },
      {
        "pitch": 41,
        "duration": 0.25,
        "velocity": 105
      },
      {
        "pitch": 29,
        "duration": 0.25,
        "velocity": 105
      },
      {
        "pitch": 41,
        "duration": 0.25,
        "velocity": 93
      },
      {
        "pitch": 29,
        "duration": 0.25,
        "velocity": 105
      },
      {
        "pitch": 41,
        "duration": 0.25,
        "velocity": 109
      },
      {
        "pitch": 29,
        "duration": 0.25,
        "velocity": 105
      },
      {
        "pitch": 41,
        "duration": 0.25,
        "velocity": 109
      },
      {
        "pitch": 60,
        "duration": 0.75,
        "velocity": 107
      }
    ],
    "key": "F major",
    "tempo": 120,
    "name": "1d7ff7f2b6b4001449960fc8529ba468.mid_seg2",
    "avg_interval": 13.266666666666667,
    "span": 36,
    "note_density": 0.640625,
    "register": "bass",
    "complexity": 0.8802083333333334
  },
  {
    "events": [
      {
        "pitch": 60,
        "duration": 0.25,
        "velocity": 93
      },
      {
        "pitch": 29,
        "duration": 0.25,
        "velocity": 105
      },
      {
        "pitch": 41,
        "duration": 0.25,
        "velocity": 109
      },
      {
        "pitch": 60,
        "duration": 0.5,
        "velocity": 96
      },
      {
        "pitch": 62,
        "duration": 0.75,
        "velocity": 104
      },
      {
        "pitch": 62,
        "duration": 0.25,
        "velocity": 91
      },
      {
        "pitch": 62,
        "duration": 0.25,
        "velocity": 99
      },
      {
        "pitch": 29,
        "duration": 0.5,
        "velocity": 105
      },
      {
        "pitch": 41,
        "duration": 0.25,
        "velocity": 109
      },
      {
        "pitch": 64,
        "duration": 0.75,
        "velocity": 105
      },
      {
        "pitch": 64,
        "duration": 0.25,
        "velocity": 104
      },
      {
        "pitch": 29,
        "duration": 0.25,
        "velocity": 105
      },
      {
        "pitch": 41,
        "duration": 0.25,
        "velocity": 109
      },
      {
        "pitch": 65,
        "duration": 1.0,
        "velocity": 101
      },
      {
        "pitch": 62,
        "duration": 0.25,
        "velocity": 82
      },
      {
        "pitch": 60,
        "duration": 1.0,
        "velocity": 75
      }
    ],
    "key": "F major",
    "tempo": 120,
    "name": "1d7ff7f2b6b4001449960fc8529ba468.mid_seg3",
    "avg_interval": 13.866666666666667,
    "span": 36,
    "note_density": 0.5625,
    "register": "bass",
    "complexity": 0.8541666666666666
  },
  {
    "events": [
      {
        "pitch": 29,
        "duration": 0.5,
        "velocity": 105
      },
      {
        "pitch": 41,
        "duration": 0.25,
        "velocity": 109
      },
      {
        "pitch": 29,
        "duration": 0.25,
        "velocity": 105
      },
      {
        "pitch": 41,
        "duration": 0.25,
        "velocity": 109
      },
      {
        "pitch": 29,
        "duration": 0.25,
        "velocity": 105
      },
      {
        "pitch": 41,
        "duration": 0.25,
        "velocity": 109
      },
      {
        "pitch": 29,
        "duration": 0.25,
        "velocity": 105
      },
      {
        "pitch": 41,
        "duration": 0.25,
        "velocity": 109
      },
      {
        "pitch": 65,
        "duration": 0.25,
        "velocity": 93
      },
      {
        "pitch": 65,
        "duration": 0.25,
        "velocity": 101
      },
      {
        "pitch": 65,
        "duration": 0.25,
        "velocity": 108
      },
      {
        "pitch": 26,
        "duration": 0.25,
        "velocity": 105
      },
      {
        "pitch": 38,
        "duration": 0.5,
        "velocity": 88
      },
      {
        "pitch": 50,
        "duration": 4.0,
        "velocity": 93
      },
      {
        "pitch": 65,
        "duration": 0.75,
        "velocity": 114
      },
      {
        "pitch": 53,
        "duration": 3.5,
        "velocity": 85
      }
    ],
    "key": "F major",
    "tempo": 120,
    "name": "1d7ff7f2b6b4001449960fc8529ba468.mid_seg4",
    "avg_interval": 13.2,
    "span": 39,
    "note_density": 0.25,
    "register": "bass",
    "complexity": 0.75
  },
  {
    "events": [
      {
        "pitch": 57,
        "duration": 3.0,
        "velocity": 82
      },
      {
        "pitch": 26,
        "duration": 0.25,
        "velocity": 105
      },
      {
        "pitch": 38,
        "duration": 1.0,
        "velocity": 99
      },
      {
        "pitch": 62,
        "duration": 2.5,
        "velocity": 102
      },
      {
        "pitch": 26,
        "duration": 0.25,
        "velocity": 104
      },
      {
        "pitch": 38,
        "duration": 0.25,
        "velocity": 109
      },
      {
        "pitch": 53,
        "duration": 3.5,
        "velocity": 85
      },
      {
        "pitch": 50,
        "duration": 3.6666666666666665,
        "velocity": 93
      },
      {
        "pitch": 57,
        "duration": 3.5,
        "velocity": 82
      },
      {
        "pitch": 62,
        "duration": 3.5,
        "velocity": 102
      },
      {
        "pitch": 69,
        "duration": 0.5,
        "velocity": 111
      },
      {
        "pitch": 26,
        "duration": 0.25,
        "velocity": 105
      },
      {
        "pitch": 38,
        "duration": 0.25,
        "velocity": 109
      },
      {
        "pitch": 67,
        "duration": 0.25,
        "velocity": 101
      },
      {
        "pitch": 67,
        "duration": 0.6666666666666666,
        "velocity": 111
      },
      {
        "pitch": 65,
        "duration": 0.25,
        "velocity": 103
      }
    ],
    "key": "F major",
    "tempo": 120,
    "name": "1d7ff7f2b6b4001449960fc8529ba468.mid_seg5",
    "avg_interval": 15.866666666666667,
    "span": 43,
    "note_density": 0.0,
    "register": "bass",
    "complexity": 0.6666666666666666
  },
  {
    "events": [
      {
        "pitch": 65,
        "duration": 0.5,
        "velocity": 116
      },
      {
        "pitch": 57,
        "duration": 0.5,
        "velocity": 107
      },
      {
        "pitch": 34,
        "duration": 0.25,
        "velocity": 105
      },
      {
        "pitch": 34,
        "duration": 0.5,
        "velocity": 109
      },
      {
        "pitch": 50,
        "duration": 4.0,
        "velocity": 109
      },
      {
        "pitch": 58,
        "duration": 1.0,
        "velocity": 109
      },
      {
        "pitch": 53,
        "duration": 3.5,
        "velocity": 105
      },
      {
        "pitch": 58,
        "duration": 3.0,
        "velocity": 89
      },
      {
        "pitch": 34,
        "duration": 0.25,
        "velocity": 105
      },
      {
        "pitch": 34,
        "duration": 0.5,
        "velocity": 109
      },
      {
        "pitch": 62,
        "duration": 2.5,
        "velocity": 108
      },
      {
        "pitch": 34,
        "duration": 3.5,
        "velocity": 81
      },
      {
        "pitch": 34,
        "duration": 0.25,
        "velocity": 101
      },
      {
        "pitch": 53,
        "duration": 3.5,
        "velocity": 105
      },
      {
        "pitch": 50,
        "duration": 3.5,
        "velocity": 109
      },
      {
        "pitch": 58,
        "duration": 3.3333333333333335,
        "velocity": 89
      }
    ],
    "key": "F major",
    "tempo": 120,
    "name": "1d7ff7f2b6b4001449960fc8529ba468.mid_seg6",
    "avg_interval": 11.666666666666666,
    "span": 31,
    "note_density": 0.0,
    "register": "bass",
    "complexity": 0.6574074074074074
  },
  {
    "events": [
      {
        "pitch": 62,
        "duration": 3.25,
        "velocity": 108
      },
      {
        "pitch": 29,
        "duration": 0.25,
        "velocity": 87
      },
      {
        "pitch": 41,
        "duration": 0.25,
        "velocity": 109
      },
      {
        "pitch": 60,
        "duration": 0.5,
        "velocity": 100
      },
      {
        "pitch": 29,
        "duration": 0.25,
        "velocity": 62
      },
      {
        "pitch": 60,
        "duration": 0.25,
        "velocity": 95
      },
      {
        "pitch": 65,
        "duration": 0.25,
        "velocity": 67
      },
      {
        "pitch": 29,
        "duration": 0.25,
        "velocity": 69
      },
      {
        "pitch": 29,
        "duration": 0.25,
        "velocity": 105
      },
      {
        "pitch": 41,
        "duration": 0.25,
        "velocity": 109
      },
      {
        "pitch": 60,
        "duration": 0.25,
        "velocity": 93
      },
      {
        "pitch": 60,
        "duration": 0.3333333333333333,
        "velocity": 86
      },
      {
        "pitch": 65,
        "duration": 0.25,
        "velocity": 61
      },
      {
        "pitch": 29,
        "duration": 0.25,
        "velocity": 64
      },
      {
        "pitch": 62,
        "duration": 0.5,
        "velocity": 89
      },
      {
        "pitch": 29,
        "duration": 0.25,
        "velocity": 59
      }
    ],
    "key": "F major",
    "tempo": 120,
    "name": "1d7ff7f2b6b4001449960fc8529ba468.mid_seg7",
    "avg_interval": 20.333333333333332,
    "span": 36,
    "note_density": 0.5260416666666667,
    "register": "bass",
    "complexity": 0.842013888888889
  },
  {
    "events": [
      {
        "pitch": 62,
        "duration": 0.25,
        "velocity": 93
      },
      {
        "pitch": 65,
        "duration": 0.25,
        "velocity": 61
      },
      {
        "pitch": 29,
        "duration": 0.25,
        "velocity": 80
      },
      {
        "pitch": 29,
        "duration": 0.25,
        "velocity": 59
      },
      {
        "pitch": 65,
        "duration": 0.25,
        "velocity": 67
      },
      {
        "pitch": 29,
        "duration": 0.25,
        "velocity": 105
      },
      {
        "pitch": 41,
        "duration": 0.25,
        "velocity": 109
      },
      {
        "pitch": 64,
        "duration": 0.75,
        "velocity": 99
      },
      {
        "pitch": 29,
        "duration": 0.25,
        "velocity": 59
      },
      {
        "pitch": 65,
        "duration": 0.25,
        "velocity": 61
      },
      {
        "pitch": 29,
        "duration": 0.25,
        "velocity": 83
      },
      {
        "pitch": 64,
        "duration": 0.5,
        "velocity": 92
      },
      {
        "pitch": 29,
        "duration": 0.25,
        "velocity": 105
      },
      {
        "pitch": 41,
        "duration": 0.25,
        "velocity": 109
      },
      {
        "pitch": 65,
        "duration": 1.0,
        "velocity": 102
      },
      {
        "pitch": 65,
        "duration": 0.25,
        "velocity": 29
      }
    ],
    "key": "F major",
    "tempo": 120,
    "name": "1d7ff7f2b6b4001449960fc8529ba468.mid_seg8",
    "avg_interval": 23.933333333333334,
    "span": 36,
    "note_density": 0.65625,
    "register": "bass",
    "complexity": 0.8854166666666666
  },
  {
    "events": [
      {
        "pitch": 29,
        "duration": 0.25,
        "velocity": 73
      },
      {
        "pitch": 29,
        "duration": 0.25,
        "velocity": 69
      },
      {
        "pitch": 62,
        "duration": 0.25,
        "velocity": 84
      },
      {
        "pitch": 60,
        "duration": 0.75,
        "velocity": 77
      },
      {
        "pitch": 65,
        "duration": 0.25,
        "velocity": 52
      },
      {
        "pitch": 29,
        "duration": 0.25,
        "velocity": 104
      },
      {
        "pitch": 29,
        "duration": 0.25,
        "velocity": 69
      },
      {
        "pitch": 65,
        "duration": 0.25,
        "velocity": 59
      },
      {
        "pitch": 29,
        "duration": 0.25,
        "velocity": 105
      },
      {
        "pitch": 41,
        "duration": 0.75,
        "velocity": 108
      },
      {
        "pitch": 29,
        "duration": 0.25,
        "velocity": 73
      },
      {
        "pitch": 65,
        "duration": 0.25,
        "velocity": 59
      },
      {
        "pitch": 29,
        "duration": 0.25,
        "velocity": 87
      },
      {
        "pitch": 29,
        "duration": 0.25,
        "velocity": 105
      },
      {
        "pitch": 41,
        "duration": 0.5,
        "velocity": 109
      },
      {
        "pitch": 41,
        "duration": 2.5,
        "velocity": 71
      }
    ],
    "key": "F major",
    "tempo": 120,
    "name": "1d7ff7f2b6b4001449960fc8529ba468.mid_seg9",
    "avg_interval": 17.066666666666666,
    "span": 36,
    "note_density": 0.53125,
    "register": "bass",
    "complexity": 0.84375
  },
  {
    "events": [
      {
        "pitch": 65,
        "duration": 0.25,
        "velocity": 61
      },
      {
        "pitch": 29,
        "duration": 0.25,
        "velocity": 72
      },
      {
        "pitch": 29,
        "duration": 0.25,
        "velocity": 76
      },
      {
        "pitch": 65,
        "duration": 0.25,
        "velocity": 52
      },
      {
        "pitch": 29,
        "duration": 0.25,
        "velocity": 93
      },
      {
        "pitch": 29,
        "duration": 0.25,
        "velocity": 80
      },
      {
        "pitch": 65,
        "duration": 0.25,
        "velocity": 57
      },
      {
        "pitch": 29,
        "duration": 0.25,
        "velocity": 105
      },
      {
        "pitch": 41,
        "duration": 0.5,
        "velocity": 109
      },
      {
        "pitch": 41,
        "duration": 3.75,
        "velocity": 71
      },
      {
        "pitch": 29,
        "duration": 0.25,
        "velocity": 73
      },
      {
        "pitch": 65,
        "duration": 0.25,
        "velocity": 57
      },
      {
        "pitch": 29,
        "duration": 0.25,
        "velocity": 80
      },
      {
        "pitch": 29,
        "duration": 0.25,
        "velocity": 105
      },
      {
        "pitch": 41,
        "duration": 0.5,
        "velocity": 109
      },
      {
        "pitch": 65,
        "duration": 0.25,
        "velocity": 54
      }
    ],
    "key": "F major",
    "tempo": 120,
    "name": "1d7ff7f2b6b4001449960fc8529ba468.mid_seg10",
    "avg_interval": 20.8,
    "span": 36,
    "note_density": 0.5,
    "register": "bass",
    "complexity": 0.8333333333333334
  },
  {
    "events": [
      {
        "pitch": 29,
        "duration": 0.25,
        "velocity": 70
      },
      {
        "pitch": 29,
        "duration": 0.25,
        "velocity": 85
      },
      {
        "pitch": 65,
        "duration": 0.25,
        "velocity": 59
      },
      {
        "pitch": 29,
        "duration": 0.25,
        "velocity": 98
      },
      {
        "pitch": 29,
        "duration": 0.25,
        "velocity": 83
      },
      {
        "pitch": 65,
        "duration": 0.25,
        "velocity": 64
      },
      {
        "pitch": 29,
        "duration": 0.25,
        "velocity": 105
      },
      {
        "pitch": 41,
        "duration": 0.25,
        "velocity": 109
      },
      {
        "pitch": 60,
        "duration": 0.75,
        "velocity": 102
      },
      {
        "pitch": 29,
        "duration": 0.25,
        "velocity": 69
      },
      {
        "pitch": 65,
        "duration": 0.25,
        "velocity": 59
      },
      {
        "pitch": 29,
        "duration": 0.25,
        "velocity": 98
      },
      {
        "pitch": 60,
        "duration": 0.25,
        "velocity": 86
      },
      {
        "pitch": 29,
        "duration": 0.25,
        "velocity": 105
      },
      {
        "pitch": 41,
        "duration": 0.25,
        "velocity": 109
      },
      {
        "pitch": 60,
        "duration": 0.25,
        "velocity": 91
      }
    ],
    "key": "F major",
    "tempo": 120,
    "name": "1d7ff7f2b6b4001449960fc8529ba468.mid_seg11",
    "avg_interval": 24.733333333333334,
    "span": 36,
    "note_density": 0.71875,
    "register": "bass",
    "complexity": 0.90625
  },
  {
    "events": [
      {
        "pitch": 65,
        "duration": 0.25,
        "velocity": 57
      },
      {
        "pitch": 29,
        "duration": 0.25,
        "velocity": 83
      },
      {
        "pitch": 62,
        "duration": 0.75,
        "velocity": 104
      },
      {
        "pitch": 29,
        "duration": 0.25,
        "velocity": 83
      },
      {
        "pitch": 65,
        "duration": 0.25,
        "velocity": 57
      },
      {
        "pitch": 29,
        "duration": 0.25,
        "velocity": 105
      },
      {
        "pitch": 62,
        "duration": 0.25,
        "velocity": 100
      },
      {
        "pitch": 29,
        "duration": 0.25,
        "velocity": 78
      },
      {
        "pitch": 62,
        "duration": 0.25,
        "velocity": 99
      },
      {
        "pitch": 65,
        "duration": 0.25,
        "velocity": 64
      },
      {
        "pitch": 29,
        "duration": 0.25,
        "velocity": 105
      },
      {
        "pitch": 41,
        "duration": 0.25,
        "velocity": 109
      },
      {
        "pitch": 64,
        "duration": 0.75,
        "velocity": 107
      },
      {
        "pitch": 29,
        "duration": 0.25,
        "velocity": 78
      },
      {
        "pitch": 65,
        "duration": 0.25,
        "velocity": 59
      },
      {
        "pitch": 29,
        "duration": 0.25,
        "velocity": 83
      }
    ],
    "key": "F major",
    "tempo": 120,
    "name": "1d7ff7f2b6b4001449960fc8529ba468.mid_seg12",
    "avg_interval": 30.266666666666666,
    "span": 36,
    "note_density": 0.6875,
    "register": "bass",
    "complexity": 0.8958333333333334
  },
  {
    "events": [
      {
        "pitch": 64,
        "duration": 0.5,
        "velocity": 104
      },
      {
        "pitch": 29,
        "duration": 0.25,
        "velocity": 105
      },
      {
        "pitch": 41,
        "duration": 0.5,
        "velocity": 109
      },
      {
        "pitch": 67,
        "duration": 0.5,
        "velocity": 101
      },
      {
        "pitch": 65,
        "duration": 0.25,
        "velocity": 50
      },
      {
        "pitch": 29,
        "duration": 0.25,
        "velocity": 78
      },
      {
        "pitch": 65,
        "duration": 1.5,
        "velocity": 100
      },
      {
        "pitch": 29,
        "duration": 0.25,
        "velocity": 80
      },
      {
        "pitch": 65,
        "duration": 0.25,
        "velocity": 57
      },
      {
        "pitch": 29,
        "duration": 0.25,
        "velocity": 100
      },
      {
        "pitch": 29,
        "duration": 0.25,
        "velocity": 83
      },
      {
        "pitch": 65,
        "duration": 0.25,
        "velocity": 72
      },
      {
        "pitch": 29,
        "duration": 0.25,
        "velocity": 105
      },
      {
        "pitch": 41,
        "duration": 0.5,
        "velocity": 109
      },
      {
        "pitch": 29,
        "duration": 0.25,
        "velocity": 69
      },
      {
        "pitch": 65,
        "duration": 0.25,
        "velocity": 61
      }
    ],
    "key": "F major",
    "tempo": 120,
    "name": "1d7ff7f2b6b4001449960fc8529ba468.mid_seg13",
    "avg_interval": 25.8,
    "span": 38,
    "note_density": 0.609375,
    "register": "bass",
    "complexity": 0.8697916666666666
  },
  {
    "events": [
      {
        "pitch": 29,
        "duration": 0.25,
        "velocity": 83
      },
      {
        "pitch": 29,
        "duration": 0.25,
        "velocity": 105
      },
      {
        "pitch": 41,
        "duration": 0.25,
        "velocity": 109
      },
      {
        "pitch": 65,
        "duration": 0.25,
        "velocity": 67
      },
      {
        "pitch": 29,
        "duration": 0.25,
        "velocity": 70
      },
      {
        "pitch": 29,
        "duration": 0.25,
        "velocity": 85
      },
      {
        "pitch": 65,
        "duration": 0.25,
        "velocity": 61
      },
      {
        "pitch": 29,
        "duration": 0.25,
        "velocity": 93
      },
      {
        "pitch": 29,
        "duration": 0.25,
        "velocity": 90
      },
      {
        "pitch": 65,
        "duration": 0.25,
        "velocity": 59
      },
      {
        "pitch": 29,
        "duration": 0.25,
        "velocity": 105
      },
      {
        "pitch": 41,
        "duration": 0.5,
        "velocity": 109
      },
      {
        "pitch": 29,
        "duration": 0.25,
        "velocity": 83
      },
      {
        "pitch": 65,
        "duration": 0.25,
        "velocity": 67
      },
      {
        "pitch": 29,
        "duration": 0.25,
        "velocity": 95
      },
      {
        "pitch": 29,
        "duration": 0.25,
        "velocity": 105
      }
    ],
    "key": "F major",
    "tempo": 120,
    "name": "1d7ff7f2b6b4001449960fc8529ba468.mid_seg14",
    "avg_interval": 20.8,
    "span": 36,
    "note_density": 0.734375,
    "register": "bass",
    "complexity": 0.9114583333333334
  },
  {
    "events": [
      {
        "pitch": 41,
        "duration": 0.5,
        "velocity": 109
      },
      {
        "pitch": 65,
        "duration": 0.25,
        "velocity": 67
      },
      {
        "pitch": 29,
        "duration": 0.25,
        "velocity": 100
      },
      {
        "pitch": 29,
        "duration": 0.25,
        "velocity": 93
      },
      {
        "pitch": 65,
        "duration": 0.25,
        "velocity": 93
      },
      {
        "pitch": 65,
        "duration": 0.25,
        "velocity": 54
      },
      {
        "pitch": 29,
        "duration": 0.5,
        "velocity": 105
      },
      {
        "pitch": 65,
        "duration": 0.25,
        "velocity": 101
      },
      {
        "pitch": 36,
        "duration": 0.5,
        "velocity": 104
      },
      {
        "pitch": 65,
        "duration": 0.25,
        "velocity": 108
      },
      {
        "pitch": 65,
        "duration": 0.25,
        "velocity": 72
      },
      {
        "pitch": 38,
        "duration": 0.25,
        "velocity": 100
      },
      {
        "pitch": 38,
        "duration": 0.25,
        "velocity": 108
      },
      {
        "pitch": 50,
        "duration": 4.0,
        "velocity": 109
      },
      {
        "pitch": 65,
        "duration": 0.75,
        "velocity": 118
      },
      {
        "pitch": 50,
        "duration": 4.0,
        "velocity": 79
      }
    ],
    "key": "F major",
    "tempo": 120,
    "name": "1d7ff7f2b6b4001449960fc8529ba468.mid_seg15",
    "avg_interval": 19.666666666666668,
    "span": 36,
    "note_density": 0.203125,
    "register": "bass",
    "complexity": 0.734375
  },
  {
    "events": [
      {
        "pitch": 38,
        "duration": 0.25,
        "velocity": 73
      },
      {
        "pitch": 53,
        "duration": 3.5,
        "velocity": 82
      },
      {
        "pitch": 38,
        "duration": 0.25,
        "velocity": 80
      },
      {
        "pitch": 57,
        "duration": 3.0,
        "velocity": 82
      },
      {
        "pitch": 38,
        "duration": 0.25,
        "velocity": 105
      },
      {
        "pitch": 38,
        "duration": 0.25,
        "velocity": 95
      },
      {
        "pitch": 62,
        "duration": 2.5,
        "velocity": 105
      },
      {
        "pitch": 38,
        "duration": 0.25,
        "velocity": 67
      },
      {
        "pitch": 38,
        "duration": 0.25,
        "velocity": 72
      },
      {
        "pitch": 38,
        "duration": 0.25,
        "velocity": 90
      },
      {
        "pitch": 38,
        "duration": 0.25,
        "velocity": 80
      },
      {
        "pitch": 38,
        "duration": 0.25,
        "velocity": 104
      },
      {
        "pitch": 38,
        "duration": 0.25,
        "velocity": 109
      },
      {
        "pitch": 53,
        "duration": 3.5,
        "velocity": 82
      },
      {
        "pitch": 50,
        "duration": 3.5,
        "velocity": 109
      },
      {
        "pitch": 57,
        "duration": 3.5,
        "velocity": 82
      }
    ],
    "key": "F major",
    "tempo": 120,
    "name": "1d7ff7f2b6b4001449960fc8529ba468.mid_seg16",
    "avg_interval": 9.4,
    "span": 24,
    "note_density": 0.0,
    "register": "bass",
    "complexity": 0.5944444444444444
  },
  {
    "events": [
      {
        "pitch": 62,
        "duration": 3.5,
        "velocity": 105
      },
      {
        "pitch": 50,
        "duration": 4.0,
        "velocity": 79
      },
      {
        "pitch": 38,
        "duration": 0.25,
        "velocity": 67
      },
      {
        "pitch": 38,
        "duration": 0.25,
        "velocity": 87
      },
      {
        "pitch": 69,
        "duration": 0.5,
        "velocity": 111
      },
      {
        "pitch": 38,
        "duration": 0.25,
        "velocity": 105
      },
      {
        "pitch": 38,
        "duration": 0.25,
        "velocity": 109
      },
      {
        "pitch": 67,
        "duration": 0.25,
        "velocity": 101
      },
      {
        "pitch": 38,
        "duration": 0.25,
        "velocity": 87
      },
      {
        "pitch": 67,
        "duration": 0.6666666666666666,
        "velocity": 109
      },
      {
        "pitch": 38,
        "duration": 0.25,
        "velocity": 73
      },
      {
        "pitch": 65,
        "duration": 0.25,
        "velocity": 110
      },
      {
        "pitch": 38,
        "duration": 0.25,
        "velocity": 105
      },
      {
        "pitch": 65,
        "duration": 0.5,
        "velocity": 114
      },
      {
        "pitch": 38,
        "duration": 0.5,
        "velocity": 95
      },
      {
        "pitch": 57,
        "duration": 0.5,
        "velocity": 107
      }
    ],
    "key": "F major",
    "tempo": 120,
    "name": "1d7ff7f2b6b4001449960fc8529ba468.mid_seg17",
    "avg_interval": 21.933333333333334,
    "span": 31,
    "note_density": 0.22395833333333337,
    "register": "bass",
    "complexity": 0.7413194444444445
  },
  {
    "events": [
      {
        "pitch": 34,
        "duration": 0.25,
        "velocity": 105
      },
      {
        "pitch": 34,
        "duration": 0.5,
        "velocity": 109
      },
      {
        "pitch": 50,
        "duration": 3.0,
        "velocity": 109
      },
      {
        "pitch": 58,
        "duration": 1.0,
        "velocity": 107
      },
      {
        "pitch": 46,
        "duration": 4.0,
        "velocity": 86
      },
      {
        "pitch": 34,
        "duration": 0.25,
        "velocity": 83
      },
      {
        "pitch": 53,
        "duration": 2.6666666666666665,
        "velocity": 99
      },
      {
        "pitch": 34,
        "duration": 0.25,
        "velocity": 105
      },
      {
        "pitch": 58,
        "duration": 2.0,
        "velocity": 78
      },
      {
        "pitch": 34,
        "duration": 0.25,
        "velocity": 98
      },
      {
        "pitch": 34,
        "duration": 0.25,
        "velocity": 109
      },
      {
        "pitch": 62,
        "duration": 1.75,
        "velocity": 105
      },
      {
        "pitch": 34,
        "duration": 0.25,
        "velocity": 105
      },
      {
        "pitch": 34,
        "duration": 0.25,
        "velocity": 102
      },
      {
        "pitch": 34,
        "duration": 0.25,
        "velocity": 105
      },
      {
        "pitch": 34,
        "duration": 0.5,
        "velocity": 94
      }
    ],
    "key": "F major",
    "tempo": 120,
    "name": "1d7ff7f2b6b4001449960fc8529ba468.mid_seg18",
    "avg_interval": 12.666666666666666,
    "span": 28,
    "note_density": 0.0,
    "register": "bass",
    "complexity": 0.6666666666666666
  },
  {
    "events": [
      {
        "pitch": 36,
        "duration": 0.25,
        "velocity": 105
      },
      {
        "pitch": 36,
        "duration": 0.25,
        "velocity": 105
      },
      {
        "pitch": 36,
        "duration": 0.25,
        "velocity": 105
      },
      {
        "pitch": 60,
        "duration": 0.5,
        "velocity": 120
      },
      {
        "pitch": 70,
        "duration": 0.5,
        "velocity": 120
      },
      {
        "pitch": 70,
        "duration": 0.25,
        "velocity": 116
      },
      {
        "pitch": 70,
        "duration": 0.5,
        "velocity": 120
      },
      {
        "pitch": 69,
        "duration": 0.5,
        "velocity": 119
      },
      {
        "pitch": 29,
        "duration": 0.25,
        "velocity": 105
      },
      {
        "pitch": 69,
        "duration": 0.25,
        "velocity": 119
      },
      {
        "pitch": 41,
        "duration": 4.0,
        "velocity": 86
      },
      {
        "pitch": 41,
        "duration": 4.0,
        "velocity": 71
      },
      {
        "pitch": 29,
        "duration": 0.25,
        "velocity": 87
      },
      {
        "pitch": 29,
        "duration": 0.25,
        "velocity": 105
      },
      {
        "pitch": 29,
        "duration": 0.25,
        "velocity": 95
      },
      {
        "pitch": 29,
        "duration": 0.25,
        "velocity": 105
      }
    ],
    "key": "F major",
    "tempo": 120,
    "name": "1d7ff7f2b6b4001449960fc8529ba468.mid_seg19",
    "avg_interval": 10.333333333333334,
    "span": 41,
    "note_density": 0.21875,
    "register": "bass",
    "complexity": 0.6932870370370371
  },
  {
    "events": [
      {
        "pitch": 29,
        "duration": 0.25,
        "velocity": 105
      },
      {
        "pitch": 29,
        "duration": 0.25,
        "velocity": 105
      },
      {
        "pitch": 29,
        "duration": 0.25,
        "velocity": 105
      },
      {
        "pitch": 29,
        "duration": 0.25,
        "velocity": 105
      },
      {
        "pitch": 41,
        "duration": 3.75,
        "velocity": 86
      },
      {
        "pitch": 41,
        "duration": 4.0,
        "velocity": 71
      },
      {
        "pitch": 29,
        "duration": 0.25,
        "velocity": 93
      },
      {
        "pitch": 29,
        "duration": 0.25,
        "velocity": 105
      },
      {
        "pitch": 29,
        "duration": 0.25,
        "velocity": 104
      },
      {
        "pitch": 29,
        "duration": 0.25,
        "velocity": 104
      },
      {
        "pitch": 67,
        "duration": 0.25,
        "velocity": 120
      },
      {
        "pitch": 29,
        "duration": 0.25,
        "velocity": 105
      },
      {
        "pitch": 67,
        "duration": 0.25,
        "velocity": 116
      },
      {
        "pitch": 29,
        "duration": 0.25,
        "velocity": 105
      },
      {
        "pitch": 67,
        "duration": 0.75,
        "velocity": 120
      },
      {
        "pitch": 29,
        "duration": 0.25,
        "velocity": 104
      }
    ],
    "key": "F major",
    "tempo": 120,
    "name": "1d7ff7f2b6b4001449960fc8529ba468.mid_seg20",
    "avg_interval": 16.8,
    "span": 38,
    "note_density": 0.265625,
    "register": "bass",
    "complexity": 0.7552083333333334
  },
  {
    "events": [
      {
        "pitch": 29,
        "duration": 0.25,
        "velocity": 105
      },
      {
        "pitch": 67,
        "duration": 1.0,
        "velocity": 120
      },
      {
        "pitch": 41,
        "duration": 4.0,
        "velocity": 86
      },
      {
        "pitch": 41,
        "duration": 4.0,
        "velocity": 71
      },
      {
        "pitch": 29,
        "duration": 0.25,
        "velocity": 95
      },
      {
        "pitch": 29,
        "duration": 0.25,
        "velocity": 105
      },
      {
        "pitch": 65,
        "duration": 0.25,
        "velocity": 111
      },
      {
        "pitch": 29,
        "duration": 0.25,
        "velocity": 90
      },
      {
        "pitch": 65,
        "duration": 1.0,
        "velocity": 118
      },
      {
        "pitch": 29,
        "duration": 0.25,
        "velocity": 105
      },
      {
        "pitch": 29,
        "duration": 0.25,
        "velocity": 100
      },
      {
        "pitch": 29,
        "duration": 0.25,
        "velocity": 105
      },
      {
        "pitch": 29,
        "duration": 0.25,
        "velocity": 95
      },
      {
        "pitch": 29,
        "duration": 0.25,
        "velocity": 105
      },
      {
        "pitch": 41,
        "duration": 3.6666666666666665,
        "velocity": 86
      },
      {
        "pitch": 41,
        "duration": 4.0,
        "velocity": 71
      }
    ],
    "key": "F major",
    "tempo": 120,
    "name": "1d7ff7f2b6b4001449960fc8529ba468.mid_seg21",
    "avg_interval": 15.466666666666667,
    "span": 38,
    "note_density": 0.0,
    "register": "bass",
    "complexity": 0.6666666666666666
  },
  {
    "events": [
      {
        "pitch": 29,
        "duration": 0.25,
        "velocity": 100
      },
      {
        "pitch": 29,
        "duration": 0.25,
        "velocity": 105
      },
      {
        "pitch": 29,
        "duration": 0.25,
        "velocity": 105
      },
      {
        "pitch": 29,
        "duration": 0.25,
        "velocity": 105
      },
      {
        "pitch": 67,
        "duration": 0.25,
        "velocity": 120
      },
      {
        "pitch": 29,
        "duration": 0.5,
        "velocity": 105
      },
      {
        "pitch": 67,
        "duration": 0.25,
        "velocity": 119
      },
      {
        "pitch": 33,
        "duration": 0.5,
        "velocity": 105
      },
      {
        "pitch": 67,
        "duration": 0.75,
        "velocity": 120
      },
      {
        "pitch": 36,
        "duration": 0.5,
        "velocity": 105
      },
      {
        "pitch": 38,
        "duration": 0.25,
        "velocity": 80
      },
      {
        "pitch": 67,
        "duration": 1.0,
        "velocity": 120
      },
      {
        "pitch": 38,
        "duration": 4.0,
        "velocity": 86
      },
      {
        "pitch": 38,
        "duration": 4.0,
        "velocity": 71
      },
      {
        "pitch": 38,
        "duration": 0.25,
        "velocity": 95
      },
      {
        "pitch": 38,
        "duration": 0.25,
        "velocity": 104
      }
    ],
    "key": "F major",
    "tempo": 120,
    "name": "1d7ff7f2b6b4001449960fc8529ba468.mid_seg22",
    "avg_interval": 18.2,
    "span": 38,
    "note_density": 0.15625,
    "register": "bass",
    "complexity": 0.71875
  },
  {
    "events": [
      {
        "pitch": 65,
        "duration": 0.25,
        "velocity": 113
      },
      {
        "pitch": 38,
        "duration": 0.25,
        "velocity": 91
      },
      {
        "pitch": 65,
        "duration": 1.0,
        "velocity": 116
      },
      {
        "pitch": 38,
        "duration": 0.25,
        "velocity": 95
      },
      {
        "pitch": 38,
        "duration": 0.25,
        "velocity": 90
      },
      {
        "pitch": 38,
        "duration": 0.25,
        "velocity": 104
      },
      {
        "pitch": 38,
        "duration": 0.25,
        "velocity": 90
      },
      {
        "pitch": 38,
        "duration": 0.25,
        "velocity": 105
      },
      {
        "pitch": 38,
        "duration": 3.75,
        "velocity": 86
      },
      {
        "pitch": 38,
        "duration": 4.0,
        "velocity": 71
      },
      {
        "pitch": 38,
        "duration": 0.25,
        "velocity": 90
      },
      {
        "pitch": 38,
        "duration": 0.25,
        "velocity": 100
      },
      {
        "pitch": 38,
        "duration": 0.25,
        "velocity": 98
      },
      {
        "pitch": 38,
        "duration": 0.25,
        "velocity": 104
      },
      {
        "pitch": 65,
        "duration": 0.5,
        "velocity": 111
      },
      {
        "pitch": 38,
        "duration": 0.25,
        "velocity": 98
      }
    ],
    "key": "F major",
    "tempo": 120,
    "name": "1d7ff7f2b6b4001449960fc8529ba468.mid_seg23",
    "avg_interval": 9.0,
    "span": 27,
    "note_density": 0.234375,
    "register": "bass",
    "complexity": 0.6614583333333334
  },
  {
    "events": [
      {
        "pitch": 65,
        "duration": 0.5,
        "velocity": 120
      },
      {
        "pitch": 38,
        "duration": 0.25,
        "velocity": 105
      },
      {
        "pitch": 65,
        "duration": 0.5,
        "velocity": 120
      },
      {
        "pitch": 38,
        "duration": 0.5,
        "velocity": 100
      },
      {
        "pitch": 65,
        "duration": 0.5,
        "velocity": 120
      },
      {
        "pitch": 36,
        "duration": 0.25,
        "velocity": 98
      },
      {
        "pitch": 65,
        "duration": 0.5,
        "velocity": 120
      },
      {
        "pitch": 36,
        "duration": 4.0,
        "velocity": 86
      },
      {
        "pitch": 36,
        "duration": 0.25,
        "velocity": 95
      },
      {
        "pitch": 60,
        "duration": 0.5,
        "velocity": 120
      },
      {
        "pitch": 36,
        "duration": 0.25,
        "velocity": 105
      },
      {
        "pitch": 60,
        "duration": 0.5,
        "velocity": 108
      },
      {
        "pitch": 36,
        "duration": 0.25,
        "velocity": 98
      },
      {
        "pitch": 36,
        "duration": 0.25,
        "velocity": 105
      },
      {
        "pitch": 60,
        "duration": 1.25,
        "velocity": 120
      },
      {
        "pitch": 36,
        "duration": 0.25,
        "velocity": 104
      }
    ],
    "key": "F major",
    "tempo": 120,
    "name": "1d7ff7f2b6b4001449960fc8529ba468.mid_seg24",
    "avg_interval": 22.6,
    "span": 29,
    "note_density": 0.34375,
    "register": "bass",
    "complexity": 0.78125
  },
  {
    "events": [
      {
        "pitch": 36,
        "duration": 0.25,
        "velocity": 105
      },
      {
        "pitch": 36,
        "duration": 0.25,
        "velocity": 98
      },
      {
        "pitch": 48,
        "duration": 0.5,
        "velocity": 86
      },
      {
        "pitch": 36,
        "duration": 0.25,
        "velocity": 105
      },
      {
        "pitch": 50,
        "duration": 0.5,
        "velocity": 86
      },
      {
        "pitch": 36,
        "duration": 3.6666666666666665,
        "velocity": 86
      },
      {
        "pitch": 36,
        "duration": 0.25,
        "velocity": 98
      },
      {
        "pitch": 48,
        "duration": 0.5,
        "velocity": 86
      },
      {
        "pitch": 36,
        "duration": 0.25,
        "velocity": 100
      },
      {
        "pitch": 55,
        "duration": 0.5,
        "velocity": 86
      },
      {
        "pitch": 36,
        "duration": 0.25,
        "velocity": 87
      },
      {
        "pitch": 60,
        "duration": 0.5,
        "velocity": 120
      },
      {
        "pitch": 48,
        "duration": 2.5,
        "velocity": 86
      },
      {
        "pitch": 36,
        "duration": 0.25,
        "velocity": 105
      },
      {
        "pitch": 70,
        "duration": 0.25,
        "velocity": 120
      },
      {
        "pitch": 36,
        "duration": 0.5,
        "velocity": 105
      }
    ],
    "key": "F major",
    "tempo": 120,
    "name": "1d7ff7f2b6b4001449960fc8529ba468.mid_seg25",
    "avg_interval": 15.333333333333334,
    "span": 34,
    "note_density": 0.30208333333333337,
    "register": "bass",
    "complexity": 0.7673611111111112
  },
  {
    "events": [
      {
        "pitch": 70,
        "duration": 0.25,
        "velocity": 120
      },
      {
        "pitch": 38,
        "duration": 0.5,
        "velocity": 104
      },
      {
        "pitch": 70,
        "duration": 0.5,
        "velocity": 120
      },
      {
        "pitch": 41,
        "duration": 0.5,
        "velocity": 105
      },
      {
        "pitch": 69,
        "duration": 0.5,
        "velocity": 119
      },
      {
        "pitch": 29,
        "duration": 0.25,
        "velocity": 105
      },
      {
        "pitch": 69,
        "duration": 0.75,
        "velocity": 119
      },
      {
        "pitch": 41,
        "duration": 4.0,
        "velocity": 86
      },
      {
        "pitch": 29,
        "duration": 0.25,
        "velocity": 85
      },
      {
        "pitch": 29,
        "duration": 0.25,
        "velocity": 105
      },
      {
        "pitch": 29,
        "duration": 0.25,
        "velocity": 98
      },
      {
        "pitch": 29,
        "duration": 0.25,
        "velocity": 105
      },
      {
        "pitch": 29,
        "duration": 0.25,
        "velocity": 98
      },
      {
        "pitch": 67,
        "duration": 1.5,
        "velocity": 109
      },
      {
        "pitch": 29,
        "duration": 0.25,
        "velocity": 105
      },
      {
        "pitch": 29,
        "duration": 0.25,
        "velocity": 100
      }
    ],
    "key": "F major",
    "tempo": 120,
    "name": "1d7ff7f2b6b4001449960fc8529ba468.mid_seg26",
    "avg_interval": 21.133333333333333,
    "span": 41,
    "note_density": 0.34375,
    "register": "bass",
    "complexity": 0.78125
  },
  {
    "events": [
      {
        "pitch": 41,
        "duration": 4.0,
        "velocity": 71
      },
      {
        "pitch": 29,
        "duration": 0.25,
        "velocity": 105
      },
      {
        "pitch": 41,
        "duration": 3.75,
        "velocity": 86
      },
      {
        "pitch": 29,
        "duration": 0.25,
        "velocity": 95
      },
      {
        "pitch": 29,
        "duration": 0.25,
        "velocity": 105
      },
      {
        "pitch": 29,
        "duration": 0.25,
        "velocity": 100
      },
      {
        "pitch": 67,
        "duration": 0.25,
        "velocity": 116
      },
      {
        "pitch": 29,
        "duration": 0.25,
        "velocity": 105
      },
      {
        "pitch": 67,
        "duration": 0.25,
        "velocity": 119
      },
      {
        "pitch": 29,
        "duration": 0.25,
        "velocity": 100
      },
      {
        "pitch": 67,
        "duration": 0.25,
        "velocity": 110
      },
      {
        "pitch": 29,
        "duration": 0.25,
        "velocity": 105
      },
      {
        "pitch": 67,
        "duration": 0.25,
        "velocity": 119
      },
      {
        "pitch": 29,
        "duration": 0.25,
        "velocity": 100
      },
      {
        "pitch": 67,
        "duration": 0.25,
        "velocity": 119
      },
      {
        "pitch": 41,
        "duration": 4.0,
        "velocity": 71
      }
    ],
    "key": "F major",
    "tempo": 120,
    "name": "1d7ff7f2b6b4001449960fc8529ba468.mid_seg27",
    "avg_interval": 26.933333333333334,
    "span": 38,
    "note_density": 0.0625,
    "register": "bass",
    "complexity": 0.6875
  },
  {
    "events": [
      {
        "pitch": 29,
        "duration": 0.25,
        "velocity": 105
      },
      {
        "pitch": 67,
        "duration": 1.0,
        "velocity": 120
      },
      {
        "pitch": 41,
        "duration": 4.0,
        "velocity": 86
      },
      {
        "pitch": 29,
        "duration": 0.25,
        "velocity": 105
      },
      {
        "pitch": 29,
        "duration": 0.25,
        "velocity": 105
      },
      {
        "pitch": 65,
        "duration": 0.25,
        "velocity": 112
      },
      {
        "pitch": 29,
        "duration": 0.25,
        "velocity": 105
      },
      {
        "pitch": 65,
        "duration": 0.75,
        "velocity": 114
      },
      {
        "pitch": 29,
        "duration": 0.25,
        "velocity": 105
      },
      {
        "pitch": 29,
        "duration": 0.25,
        "velocity": 105
      },
      {
        "pitch": 29,
        "duration": 0.25,
        "velocity": 105
      },
      {
        "pitch": 29,
        "duration": 0.25,
        "velocity": 104
      },
      {
        "pitch": 41,
        "duration": 4.0,
        "velocity": 71
      },
      {
        "pitch": 29,
        "duration": 0.25,
        "velocity": 105
      },
      {
        "pitch": 41,
        "duration": 3.6666666666666665,
        "velocity": 86
      },
      {
        "pitch": 29,
        "duration": 0.25,
        "velocity": 100
      }
    ],
    "key": "F major",
    "tempo": 120,
    "name": "1d7ff7f2b6b4001449960fc8529ba468.mid_seg28",
    "avg_interval": 17.866666666666667,
    "span": 38,
    "note_density": 0.0,
    "register": "bass",
    "complexity": 0.6666666666666666
  },
  {
    "events": [
      {
        "pitch": 29,
        "duration": 0.25,
        "velocity": 105
      },
      {
        "pitch": 29,
        "duration": 0.25,
        "velocity": 100
      },
      {
        "pitch": 29,
        "duration": 0.25,
        "velocity": 104
      },
      {
        "pitch": 29,
        "duration": 0.25,
        "velocity": 105
      },
      {
        "pitch": 65,
        "duration": 0.5,
        "velocity": 120
      },
      {
        "pitch": 29,
        "duration": 0.25,
        "velocity": 83
      },
      {
        "pitch": 33,
        "duration": 0.5,
        "velocity": 105
      },
      {
        "pitch": 65,
        "duration": 0.25,
        "velocity": 120
      },
      {
        "pitch": 36,
        "duration": 0.5,
        "velocity": 105
      },
      {
        "pitch": 65,
        "duration": 0.25,
        "velocity": 120
      },
      {
        "pitch": 41,
        "duration": 4.0,
        "velocity": 71
      },
      {
        "pitch": 38,
        "duration": 0.25,
        "velocity": 90
      },
      {
        "pitch": 65,
        "duration": 1.25,
        "velocity": 120
      },
      {
        "pitch": 38,
        "duration": 4.0,
        "velocity": 86
      },
      {
        "pitch": 38,
        "duration": 0.25,
        "velocity": 85
      },
      {
        "pitch": 38,
        "duration": 0.25,
        "velocity": 105
      }
    ],
    "key": "F major",
    "tempo": 120,
    "name": "1d7ff7f2b6b4001449960fc8529ba468.mid_seg29",
    "avg_interval": 16.466666666666665,
    "span": 36,
    "note_density": 0.171875,
    "register": "bass",
    "complexity": 0.7239583333333334
  },
  {
    "events": [
      {
        "pitch": 38,
        "duration": 0.25,
        "velocity": 93
      },
      {
        "pitch": 38,
        "duration": 0.25,
        "velocity": 98
      },
      {
        "pitch": 38,
        "duration": 0.25,
        "velocity": 93
      },
      {
        "pitch": 38,
        "duration": 0.25,
        "velocity": 105
      },
      {
        "pitch": 38,
        "duration": 0.25,
        "velocity": 93
      },
      {
        "pitch": 38,
        "duration": 4.0,
        "velocity": 71
      },
      {
        "pitch": 38,
        "duration": 0.25,
        "velocity": 105
      },
      {
        "pitch": 38,
        "duration": 3.6666666666666665,
        "velocity": 86
      },
      {
        "pitch": 38,
        "duration": 0.25,
        "velocity": 85
      },
      {
        "pitch": 38,
        "duration": 0.25,
        "velocity": 105
      },
      {
        "pitch": 38,
        "duration": 0.25,
        "velocity": 100
      },
      {
        "pitch": 38,
        "duration": 0.25,
        "velocity": 105
      },
      {
        "pitch": 65,
        "duration": 0.5,
        "velocity": 120
      },
      {
        "pitch": 38,
        "duration": 0.25,
        "velocity": 104
      },
      {
        "pitch": 65,
        "duration": 0.5,
        "velocity": 115
      },
      {
        "pitch": 38,
        "duration": 0.25,
        "velocity": 105
      }
    ],
    "key": "F major",
    "tempo": 120,
    "name": "1d7ff7f2b6b4001449960fc8529ba468.mid_seg30",
    "avg_interval": 7.2,
    "span": 27,
    "note_density": 0.27083333333333337,
    "register": "bass",
    "complexity": 0.6236111111111112
  },
  {
    "events": [
      {
        "pitch": 65,
        "duration": 0.5,
        "velocity": 120
      },
      {
        "pitch": 38,
        "duration": 0.5,
        "velocity": 98
      },
      {
        "pitch": 65,
        "duration": 0.5,
        "velocity": 114
      },
      {
        "pitch": 38,
        "duration": 4.0,
        "velocity": 71
      },
      {
        "pitch": 36,
        "duration": 0.25,
        "velocity": 105
      },
      {
        "pitch": 65,
        "duration": 0.5,
        "velocity": 120
      },
      {
        "pitch": 36,
        "duration": 4.0,
        "velocity": 86
      },
      {
        "pitch": 36,
        "duration": 0.25,
        "velocity": 93
      },
      {
        "pitch": 60,
        "duration": 0.75,
        "velocity": 114
      },
      {
        "pitch": 36,
        "duration": 0.25,
        "velocity": 105
      },
      {
        "pitch": 36,
        "duration": 0.25,
        "velocity": 93
      },
      {
        "pitch": 60,
        "duration": 0.25,
        "velocity": 110
      },
      {
        "pitch": 36,
        "duration": 0.25,
        "velocity": 105
      },
      {
        "pitch": 60,
        "duration": 1.5,
        "velocity": 110
      },
      {
        "pitch": 36,
        "duration": 0.25,
        "velocity": 98
      },
      {
        "pitch": 36,
        "duration": 0.25,
        "velocity": 105
      }
    ],
    "key": "F major",
    "tempo": 120,
    "name": "1d7ff7f2b6b4001449960fc8529ba468.mid_seg31",
    "avg_interval": 19.0,
    "span": 29,
    "note_density": 0.109375,
    "register": "bass",
    "complexity": 0.703125
  },
  {
    "events": [
      {
        "pitch": 36,
        "duration": 0.25,
        "velocity": 105
      },
      {
        "pitch": 48,
        "duration": 0.5,
        "velocity": 86
      },
      {
        "pitch": 36,
        "duration": 0.75,
        "velocity": 71
      },
      {
        "pitch": 36,
        "duration": 0.25,
        "velocity": 105
      },
      {
        "pitch": 50,
        "duration": 0.5,
        "velocity": 86
      },
      {
        "pitch": 36,
        "duration": 4.0,
        "velocity": 86
      },
      {
        "pitch": 36,
        "duration": 0.25,
        "velocity": 85
      },
      {
        "pitch": 48,
        "duration": 0.5,
        "velocity": 86
      },
      {
        "pitch": 36,
        "duration": 3.0,
        "velocity": 71
      },
      {
        "pitch": 36,
        "duration": 0.25,
        "velocity": 104
      },
      {
        "pitch": 55,
        "duration": 0.5,
        "velocity": 86
      },
      {
        "pitch": 36,
        "duration": 0.5,
        "velocity": 105
      },
      {
        "pitch": 48,
        "duration": 2.5,
        "velocity": 86
      },
      {
        "pitch": 38,
        "duration": 0.5,
        "velocity": 93
      },
      {
        "pitch": 41,
        "duration": 0.5,
        "velocity": 105
      },
      {
        "pitch": 38,
        "duration": 0.5,
        "velocity": 105
      }
    ],
    "key": "F major",
    "tempo": 120,
    "name": "1d7ff7f2b6b4001449960fc8529ba468.mid_seg32",
    "avg_interval": 9.466666666666667,
    "span": 19,
    "note_density": 0.046875,
    "register": "bass",
    "complexity": 0.5424768518518518
  },
  {
    "events": [
      {
        "pitch": 36,
        "duration": 0.5,
        "velocity": 104
      },
      {
        "pitch": 36,
        "duration": 4.0,
        "velocity": 71
      },
      {
        "pitch": 29,
        "duration": 0.25,
        "velocity": 87
      },
      {
        "pitch": 41,
        "duration": 0.25,
        "velocity": 109
      },
      {
        "pitch": 60,
        "duration": 0.5,
        "velocity": 100
      },
      {
        "pitch": 29,
        "duration": 0.25,
        "velocity": 62
      },
      {
        "pitch": 60,
        "duration": 0.25,
        "velocity": 95
      },
      {
        "pitch": 65,
        "duration": 0.25,
        "velocity": 57
      },
      {
        "pitch": 29,
        "duration": 0.25,
        "velocity": 69
      },
      {
        "pitch": 29,
        "duration": 0.25,
        "velocity": 105
      },
      {
        "pitch": 41,
        "duration": 0.25,
        "velocity": 109
      },
      {
        "pitch": 60,
        "duration": 0.25,
        "velocity": 93
      },
      {
        "pitch": 60,
        "duration": 0.3333333333333333,
        "velocity": 86
      },
      {
        "pitch": 65,
        "duration": 0.25,
        "velocity": 54
      },
      {
        "pitch": 29,
        "duration": 0.25,
        "velocity": 64
      },
      {
        "pitch": 62,
        "duration": 0.5,
        "velocity": 89
      }
    ],
    "key": "F major",
    "tempo": 120,
    "name": "1d7ff7f2b6b4001449960fc8529ba468.mid_seg33",
    "avg_interval": 16.4,
    "span": 36,
    "note_density": 0.46354166666666674,
    "register": "bass",
    "complexity": 0.8211805555555557
  },
  {
    "events": [
      {
        "pitch": 29,
        "duration": 0.25,
        "velocity": 59
      },
      {
        "pitch": 62,
        "duration": 0.25,
        "velocity": 89
      },
      {
        "pitch": 65,
        "duration": 0.25,
        "velocity": 61
      },
      {
        "pitch": 29,
        "duration": 0.25,
        "velocity": 80
      },
      {
        "pitch": 29,
        "duration": 0.25,
        "velocity": 59
      },
      {
        "pitch": 65,
        "duration": 0.25,
        "velocity": 67
      },
      {
        "pitch": 29,
        "duration": 0.25,
        "velocity": 105
      },
      {
        "pitch": 41,
        "duration": 0.25,
        "velocity": 109
      },
      {
        "pitch": 64,
        "duration": 0.5,
        "velocity": 102
      },
      {
        "pitch": 29,
        "duration": 0.25,
        "velocity": 59
      },
      {
        "pitch": 65,
        "duration": 0.25,
        "velocity": 57
      },
      {
        "pitch": 29,
        "duration": 0.25,
        "velocity": 83
      },
      {
        "pitch": 64,
        "duration": 0.5,
        "velocity": 92
      },
      {
        "pitch": 29,
        "duration": 0.25,
        "velocity": 105
      },
      {
        "pitch": 41,
        "duration": 0.25,
        "velocity": 109
      },
      {
        "pitch": 65,
        "duration": 1.0,
        "velocity": 102
      }
    ],
    "key": "F major",
    "tempo": 120,
    "name": "1d7ff7f2b6b4001449960fc8529ba468.mid_seg34",
    "avg_interval": 26.133333333333333,
    "span": 36,
    "note_density": 0.671875,
    "register": "bass",
    "complexity": 0.890625
  },
  {
    "events": [
      {
        "pitch": 65,
        "duration": 0.25,
        "velocity": 59
      },
      {
        "pitch": 29,
        "duration": 0.25,
        "velocity": 73
      },
      {
        "pitch": 29,
        "duration": 0.25,
        "velocity": 69
      },
      {
        "pitch": 62,
        "duration": 0.25,
        "velocity": 84
      },
      {
        "pitch": 60,
        "duration": 0.75,
        "velocity": 76
      },
      {
        "pitch": 65,
        "duration": 0.25,
        "velocity": 61
      },
      {
        "pitch": 29,
        "duration": 0.25,
        "velocity": 104
      },
      {
        "pitch": 29,
        "duration": 0.25,
        "velocity": 69
      },
      {
        "pitch": 65,
        "duration": 0.25,
        "velocity": 59
      },
      {
        "pitch": 29,
        "duration": 0.25,
        "velocity": 105
      },
      {
        "pitch": 41,
        "duration": 0.75,
        "velocity": 108
      },
      {
        "pitch": 29,
        "duration": 0.25,
        "velocity": 73
      },
      {
        "pitch": 65,
        "duration": 0.25,
        "velocity": 57
      },
      {
        "pitch": 29,
        "duration": 0.25,
        "velocity": 87
      },
      {
        "pitch": 29,
        "duration": 0.25,
        "velocity": 105
      },
      {
        "pitch": 41,
        "duration": 0.5,
        "velocity": 109
      }
    ],
    "key": "F major",
    "tempo": 120,
    "name": "1d7ff7f2b6b4001449960fc8529ba468.mid_seg35",
    "avg_interval": 19.466666666666665,
    "span": 36,
    "note_density": 0.671875,
    "register": "bass",
    "complexity": 0.890625
  },
  {
    "events": [
      {
        "pitch": 65,
        "duration": 0.25,
        "velocity": 67
      },
      {
        "pitch": 29,
        "duration": 0.25,
        "velocity": 72
      },
      {
        "pitch": 29,
        "duration": 0.25,
        "velocity": 76
      },
      {
        "pitch": 65,
        "duration": 0.25,
        "velocity": 64
      },
      {
        "pitch": 29,
        "duration": 0.25,
        "velocity": 93
      },
      {
        "pitch": 29,
        "duration": 0.25,
        "velocity": 80
      },
      {
        "pitch": 57,
        "duration": 3.75,
        "velocity": 71
      },
      {
        "pitch": 65,
        "duration": 0.25,
        "velocity": 64
      },
      {
        "pitch": 29,
        "duration": 0.25,
        "velocity": 105
      },
      {
        "pitch": 41,
        "duration": 0.5,
        "velocity": 109
      },
      {
        "pitch": 29,
        "duration": 0.25,
        "velocity": 73
      },
      {
        "pitch": 65,
        "duration": 0.25,
        "velocity": 61
      },
      {
        "pitch": 29,
        "duration": 0.25,
        "velocity": 80
      },
      {
        "pitch": 29,
        "duration": 0.25,
        "velocity": 105
      },
      {
        "pitch": 41,
        "duration": 0.5,
        "velocity": 109
      },
      {
        "pitch": 65,
        "duration": 0.25,
        "velocity": 57
      }
    ],
    "key": "F major",
    "tempo": 120,
    "name": "1d7ff7f2b6b4001449960fc8529ba468.mid_seg36",
    "avg_interval": 20.8,
    "span": 36,
    "note_density": 0.5,
    "register": "bass",
    "complexity": 0.8333333333333334
  },
  {
    "events": [
      {
        "pitch": 29,
        "duration": 0.25,
        "velocity": 70
      },
      {
        "pitch": 29,
        "duration": 0.25,
        "velocity": 85
      },
      {
        "pitch": 65,
        "duration": 0.25,
        "velocity": 59
      },
      {
        "pitch": 29,
        "duration": 0.25,
        "velocity": 98
      },
      {
        "pitch": 29,
        "duration": 0.25,
        "velocity": 83
      },
      {
        "pitch": 57,
        "duration": 4.0,
        "velocity": 71
      },
      {
        "pitch": 65,
        "duration": 0.25,
        "velocity": 64
      },
      {
        "pitch": 29,
        "duration": 0.25,
        "velocity": 105
      },
      {
        "pitch": 41,
        "duration": 0.25,
        "velocity": 109
      },
      {
        "pitch": 60,
        "duration": 0.75,
        "velocity": 104
      },
      {
        "pitch": 29,
        "duration": 0.25,
        "velocity": 69
      },
      {
        "pitch": 65,
        "duration": 0.25,
        "velocity": 61
      },
      {
        "pitch": 29,
        "duration": 0.25,
        "velocity": 98
      },
      {
        "pitch": 60,
        "duration": 0.25,
        "velocity": 86
      },
      {
        "pitch": 65,
        "duration": 2.5,
        "velocity": 71
      },
      {
        "pitch": 29,
        "duration": 0.25,
        "velocity": 105
      }
    ],
    "key": "F major",
    "tempo": 120,
    "name": "1d7ff7f2b6b4001449960fc8529ba468.mid_seg37",
    "avg_interval": 23.333333333333332,
    "span": 36,
    "note_density": 0.34375,
    "register": "bass",
    "complexity": 0.78125
  },
  {
    "events": [
      {
        "pitch": 41,
        "duration": 0.25,
        "velocity": 109
      },
      {
        "pitch": 60,
        "duration": 0.25,
        "velocity": 91
      },
      {
        "pitch": 65,
        "duration": 0.25,
        "velocity": 57
      },
      {
        "pitch": 29,
        "duration": 0.25,
        "velocity": 83
      },
      {
        "pitch": 62,
        "duration": 0.75,
        "velocity": 100
      },
      {
        "pitch": 29,
        "duration": 0.25,
        "velocity": 83
      },
      {
        "pitch": 65,
        "duration": 0.25,
        "velocity": 67
      },
      {
        "pitch": 29,
        "duration": 0.25,
        "velocity": 105
      },
      {
        "pitch": 62,
        "duration": 0.25,
        "velocity": 100
      },
      {
        "pitch": 29,
        "duration": 0.25,
        "velocity": 78
      },
      {
        "pitch": 62,
        "duration": 0.25,
        "velocity": 95
      },
      {
        "pitch": 65,
        "duration": 0.25,
        "velocity": 72
      },
      {
        "pitch": 29,
        "duration": 0.25,
        "velocity": 105
      },
      {
        "pitch": 41,
        "duration": 0.25,
        "velocity": 109
      },
      {
        "pitch": 64,
        "duration": 0.75,
        "velocity": 102
      },
      {
        "pitch": 29,
        "duration": 0.25,
        "velocity": 78
      }
    ],
    "key": "F major",
    "tempo": 120,
    "name": "1d7ff7f2b6b4001449960fc8529ba468.mid_seg38",
    "avg_interval": 27.066666666666666,
    "span": 36,
    "note_density": 0.6875,
    "register": "bass",
    "complexity": 0.8958333333333334
  },
  {
    "events": [
      {
        "pitch": 65,
        "duration": 0.25,
        "velocity": 64
      },
      {
        "pitch": 29,
        "duration": 0.25,
        "velocity": 83
      },
      {
        "pitch": 64,
        "duration": 0.25,
        "velocity": 104
      },
      {
        "pitch": 29,
        "duration": 0.25,
        "velocity": 105
      },
      {
        "pitch": 41,
        "duration": 0.5,
        "velocity": 109
      },
      {
        "pitch": 65,
        "duration": 1.0,
        "velocity": 101
      },
      {
        "pitch": 65,
        "duration": 0.25,
        "velocity": 69
      },
      {
        "pitch": 29,
        "duration": 0.25,
        "velocity": 78
      },
      {
        "pitch": 29,
        "duration": 0.25,
        "velocity": 80
      },
      {
        "pitch": 62,
        "duration": 0.25,
        "velocity": 82
      },
      {
        "pitch": 60,
        "duration": 1.0,
        "velocity": 77
      },
      {
        "pitch": 65,
        "duration": 0.25,
        "velocity": 57
      },
      {
        "pitch": 29,
        "duration": 0.25,
        "velocity": 100
      },
      {
        "pitch": 29,
        "duration": 0.25,
        "velocity": 83
      },
      {
        "pitch": 65,
        "duration": 0.25,
        "velocity": 72
      },
      {
        "pitch": 29,
        "duration": 0.25,
        "velocity": 105
      }
    ],
    "key": "F major",
    "tempo": 120,
    "name": "1d7ff7f2b6b4001449960fc8529ba468.mid_seg39",
    "avg_interval": 21.733333333333334,
    "span": 36,
    "note_density": 0.640625,
    "register": "bass",
    "complexity": 0.8802083333333334
  },
  {
    "events": [
      {
        "pitch": 41,
        "duration": 0.5,
        "velocity": 109
      },
      {
        "pitch": 29,
        "duration": 0.25,
        "velocity": 69
      },
      {
        "pitch": 65,
        "duration": 0.25,
        "velocity": 59
      },
      {
        "pitch": 29,
        "duration": 0.25,
        "velocity": 83
      },
      {
        "pitch": 29,
        "duration": 0.25,
        "velocity": 105
      },
      {
        "pitch": 41,
        "duration": 0.25,
        "velocity": 109
      },
      {
        "pitch": 65,
        "duration": 0.25,
        "velocity": 78
      },
      {
        "pitch": 29,
        "duration": 0.25,
        "velocity": 70
      },
      {
        "pitch": 29,
        "duration": 0.25,
        "velocity": 85
      },
      {
        "pitch": 65,
        "duration": 0.25,
        "velocity": 69
      },
      {
        "pitch": 29,
        "duration": 0.25,
        "velocity": 93
      },
      {
        "pitch": 29,
        "duration": 0.25,
        "velocity": 90
      },
      {
        "pitch": 65,
        "duration": 0.25,
        "velocity": 72
      },
      {
        "pitch": 29,
        "duration": 0.25,
        "velocity": 105
      },
      {
        "pitch": 41,
        "duration": 0.5,
        "velocity": 109
      },
      {
        "pitch": 29,
        "duration": 0.25,
        "velocity": 83
      }
    ],
    "key": "F major",
    "tempo": 120,
    "name": "1d7ff7f2b6b4001449960fc8529ba468.mid_seg40",
    "avg_interval": 21.6,
    "span": 36,
    "note_density": 0.71875,
    "register": "bass",
    "complexity": 0.90625
  },
  {
    "events": [
      {
        "pitch": 65,
        "duration": 0.25,
        "velocity": 74
      },
      {
        "pitch": 29,
        "duration": 0.25,
        "velocity": 95
      },
      {
        "pitch": 29,
        "duration": 0.25,
        "velocity": 105
      },
      {
        "pitch": 41,
        "duration": 0.5,
        "velocity": 109
      },
      {
        "pitch": 65,
        "duration": 0.25,
        "velocity": 72
      },
      {
        "pitch": 29,
        "duration": 0.25,
        "velocity": 100
      },
      {
        "pitch": 29,
        "duration": 0.25,
        "velocity": 93
      },
      {
        "pitch": 65,
        "duration": 0.25,
        "velocity": 74
      },
      {
        "pitch": 29,
        "duration": 0.5,
        "velocity": 105
      },
      {
        "pitch": 69,
        "duration": 0.25,
        "velocity": 120
      },
      {
        "pitch": 36,
        "duration": 0.5,
        "velocity": 104
      },
      {
        "pitch": 69,
        "duration": 0.25,
        "velocity": 120
      },
      {
        "pitch": 65,
        "duration": 0.25,
        "velocity": 78
      },
      {
        "pitch": 38,
        "duration": 0.25,
        "velocity": 100
      },
      {
        "pitch": 38,
        "duration": 0.25,
        "velocity": 108
      },
      {
        "pitch": 50,
        "duration": 4.0,
        "velocity": 109
      }
    ],
    "key": "F major",
    "tempo": 120,
    "name": "1d7ff7f2b6b4001449960fc8529ba468.mid_seg41",
    "avg_interval": 21.933333333333334,
    "span": 40,
    "note_density": 0.46875,
    "register": "bass",
    "complexity": 0.8229166666666666
  },
  {
    "events": [
      {
        "pitch": 69,
        "duration": 0.6666666666666666,
        "velocity": 116
      },
      {
        "pitch": 50,
        "duration": 4.0,
        "velocity": 79
      },
      {
        "pitch": 38,
        "duration": 0.25,
        "velocity": 73
      },
      {
        "pitch": 53,
        "duration": 3.5,
        "velocity": 82
      },
      {
        "pitch": 67,
        "duration": 0.3333333333333333,
        "velocity": 105
      },
      {
        "pitch": 38,
        "duration": 0.25,
        "velocity": 80
      },
      {
        "pitch": 57,
        "duration": 3.0,
        "velocity": 82
      },
      {
        "pitch": 67,
        "duration": 0.3333333333333333,
        "velocity": 110
      },
      {
        "pitch": 38,
        "duration": 0.25,
        "velocity": 105
      },
      {
        "pitch": 38,
        "duration": 0.25,
        "velocity": 95
      },
      {
        "pitch": 62,
        "duration": 2.5,
        "velocity": 105
      },
      {
        "pitch": 38,
        "duration": 0.25,
        "velocity": 67
      },
      {
        "pitch": 67,
        "duration": 0.6666666666666666,
        "velocity": 120
      },
      {
        "pitch": 38,
        "duration": 0.25,
        "velocity": 72
      },
      {
        "pitch": 65,
        "duration": 0.5,
        "velocity": 105
      },
      {
        "pitch": 38,
        "duration": 0.25,
        "velocity": 90
      }
    ],
    "key": "F major",
    "tempo": 120,
    "name": "1d7ff7f2b6b4001449960fc8529ba468.mid_seg42",
    "avg_interval": 20.466666666666665,
    "span": 31,
    "note_density": 0.0,
    "register": "bass",
    "complexity": 0.6666666666666666
  },
  {
    "events": [
      {
        "pitch": 65,
        "duration": 0.5,
        "velocity": 104
      },
      {
        "pitch": 38,
        "duration": 0.25,
        "velocity": 80
      },
      {
        "pitch": 38,
        "duration": 0.25,
        "velocity": 104
      },
      {
        "pitch": 38,
        "duration": 0.25,
        "velocity": 109
      },
      {
        "pitch": 53,
        "duration": 3.5,
        "velocity": 82
      },
      {
        "pitch": 50,
        "duration": 3.5,
        "velocity": 109
      },
      {
        "pitch": 57,
        "duration": 3.5,
        "velocity": 82
      },
      {
        "pitch": 62,
        "duration": 3.5,
        "velocity": 105
      },
      {
        "pitch": 65,
        "duration": 0.3333333333333333,
        "velocity": 112
      },
      {
        "pitch": 50,
        "duration": 4.0,
        "velocity": 79
      },
      {
        "pitch": 38,
        "duration": 0.25,
        "velocity": 67
      },
      {
        "pitch": 65,
        "duration": 0.3333333333333333,
        "velocity": 105
      },
      {
        "pitch": 38,
        "duration": 0.25,
        "velocity": 87
      },
      {
        "pitch": 65,
        "duration": 0.3333333333333333,
        "velocity": 103
      },
      {
        "pitch": 38,
        "duration": 0.25,
        "velocity": 105
      },
      {
        "pitch": 38,
        "duration": 0.25,
        "velocity": 109
      }
    ],
    "key": "F major",
    "tempo": 120,
    "name": "1d7ff7f2b6b4001449960fc8529ba468.mid_seg43",
    "avg_interval": 13.0,
    "span": 27,
    "note_density": 0.0,
    "register": "bass",
    "complexity": 0.6666666666666666
  },
  {
    "events": [
      {
        "pitch": 38,
        "duration": 0.25,
        "velocity": 87
      },
      {
        "pitch": 65,
        "duration": 0.3333333333333333,
        "velocity": 116
      },
      {
        "pitch": 38,
        "duration": 0.25,
        "velocity": 73
      },
      {
        "pitch": 65,
        "duration": 0.3333333333333333,
        "velocity": 105
      },
      {
        "pitch": 38,
        "duration": 0.25,
        "velocity": 105
      },
      {
        "pitch": 65,
        "duration": 0.3333333333333333,
        "velocity": 104
      },
      {
        "pitch": 38,
        "duration": 0.5,
        "velocity": 95
      },
      {
        "pitch": 34,
        "duration": 0.25,
        "velocity": 105
      },
      {
        "pitch": 34,
        "duration": 0.5,
        "velocity": 109
      },
      {
        "pitch": 50,
        "duration": 3.0,
        "velocity": 109
      },
      {
        "pitch": 65,
        "duration": 0.3333333333333333,
        "velocity": 110
      },
      {
        "pitch": 46,
        "duration": 4.0,
        "velocity": 86
      },
      {
        "pitch": 57,
        "duration": 0.25,
        "velocity": 96
      },
      {
        "pitch": 34,
        "duration": 0.25,
        "velocity": 83
      },
      {
        "pitch": 53,
        "duration": 2.6666666666666665,
        "velocity": 99
      },
      {
        "pitch": 58,
        "duration": 2.5,
        "velocity": 104
      }
    ],
    "key": "F major",
    "tempo": 120,
    "name": "1d7ff7f2b6b4001449960fc8529ba468.mid_seg44",
    "avg_interval": 18.266666666666666,
    "span": 31,
    "note_density": 1.1102230246251565e-16,
    "register": "bass",
    "complexity": 0.6666666666666666
  },
  {
    "events": [
      {
        "pitch": 34,
        "duration": 0.25,
        "velocity": 105
      },
      {
        "pitch": 58,
        "duration": 2.0,
        "velocity": 78
      },
      {
        "pitch": 34,
        "duration": 0.25,
        "velocity": 98
      },
      {
        "pitch": 34,
        "duration": 0.25,
        "velocity": 109
      },
      {
        "pitch": 62,
        "duration": 1.75,
        "velocity": 105
      },
      {
        "pitch": 34,
        "duration": 0.25,
        "velocity": 105
      },
      {
        "pitch": 34,
        "duration": 0.25,
        "velocity": 102
      },
      {
        "pitch": 34,
        "duration": 0.25,
        "velocity": 105
      },
      {
        "pitch": 34,
        "duration": 0.5,
        "velocity": 94
      },
      {
        "pitch": 36,
        "duration": 0.25,
        "velocity": 105
      },
      {
        "pitch": 36,
        "duration": 0.25,
        "velocity": 105
      },
      {
        "pitch": 36,
        "duration": 0.25,
        "velocity": 105
      },
      {
        "pitch": 60,
        "duration": 0.5,
        "velocity": 120
      },
      {
        "pitch": 70,
        "duration": 0.5,
        "velocity": 120
      },
      {
        "pitch": 70,
        "duration": 0.25,
        "velocity": 118
      },
      {
        "pitch": 70,
        "duration": 0.5,
        "velocity": 120
      }
    ],
    "key": "F major",
    "tempo": 120,
    "name": "1d7ff7f2b6b4001449960fc8529ba468.mid_seg45",
    "avg_interval": 9.333333333333334,
    "span": 36,
    "note_density": 0.484375,
    "register": "bass",
    "complexity": 0.7540509259259259
  },
  {
    "events": [
      {
        "pitch": 69,
        "duration": 0.5,
        "velocity": 108
      },
      {
        "pitch": 29,
        "duration": 0.25,
        "velocity": 105
      },
      {
        "pitch": 69,
        "duration": 0.25,
        "velocity": 108
      },
      {
        "pitch": 41,
        "duration": 4.0,
        "velocity": 86
      },
      {
        "pitch": 29,
        "duration": 0.25,
        "velocity": 87
      },
      {
        "pitch": 29,
        "duration": 0.25,
        "velocity": 105
      },
      {
        "pitch": 29,
        "duration": 0.25,
        "velocity": 95
      },
      {
        "pitch": 29,
        "duration": 0.25,
        "velocity": 105
      },
      {
        "pitch": 29,
        "duration": 0.25,
        "velocity": 105
      },
      {
        "pitch": 29,
        "duration": 0.25,
        "velocity": 105
      },
      {
        "pitch": 29,
        "duration": 0.25,
        "velocity": 105
      },
      {
        "pitch": 41,
        "duration": 4.0,
        "velocity": 71
      },
      {
        "pitch": 29,
        "duration": 0.25,
        "velocity": 105
      },
      {
        "pitch": 41,
        "duration": 3.75,
        "velocity": 86
      },
      {
        "pitch": 29,
        "duration": 0.25,
        "velocity": 93
      },
      {
        "pitch": 29,
        "duration": 0.25,
        "velocity": 105
      }
    ],
    "key": "F major",
    "tempo": 120,
    "name": "1d7ff7f2b6b4001449960fc8529ba468.mid_seg46",
    "avg_interval": 11.2,
    "span": 40,
    "note_density": 0.046875,
    "register": "bass",
    "complexity": 0.6600694444444444
  },
  {
    "events": [
      {
        "pitch": 29,
        "duration": 0.25,
        "velocity": 104
      },
      {
        "pitch": 29,
        "duration": 0.25,
        "velocity": 104
      },
      {
        "pitch": 67,
        "duration": 0.25,
        "velocity": 120
      },
      {
        "pitch": 29,
        "duration": 0.25,
        "velocity": 105
      },
      {
        "pitch": 67,
        "duration": 0.25,
        "velocity": 116
      },
      {
        "pitch": 29,
        "duration": 0.25,
        "velocity": 105
      },
      {
        "pitch": 67,
        "duration": 0.75,
        "velocity": 120
      },
      {
        "pitch": 29,
        "duration": 0.25,
        "velocity": 104
      },
      {
        "pitch": 41,
        "duration": 4.0,
        "velocity": 71
      },
      {
        "pitch": 29,
        "duration": 0.25,
        "velocity": 105
      },
      {
        "pitch": 67,
        "duration": 1.0,
        "velocity": 120
      },
      {
        "pitch": 41,
        "duration": 4.0,
        "velocity": 86
      },
      {
        "pitch": 29,
        "duration": 0.25,
        "velocity": 95
      },
      {
        "pitch": 29,
        "duration": 0.25,
        "velocity": 105
      },
      {
        "pitch": 65,
        "duration": 0.25,
        "velocity": 101
      },
      {
        "pitch": 29,
        "duration": 0.25,
        "velocity": 90
      }
    ],
    "key": "F major",
    "tempo": 120,
    "name": "1d7ff7f2b6b4001449960fc8529ba468.mid_seg47",
    "avg_interval": 26.666666666666668,
    "span": 38,
    "note_density": 0.203125,
    "register": "bass",
    "complexity": 0.734375
  },
  {
    "events": [
      {
        "pitch": 65,
        "duration": 1.0,
        "velocity": 116
      },
      {
        "pitch": 29,
        "duration": 0.25,
        "velocity": 105
      },
      {
        "pitch": 29,
        "duration": 0.25,
        "velocity": 100
      },
      {
        "pitch": 29,
        "duration": 0.25,
        "velocity": 105
      },
      {
        "pitch": 29,
        "duration": 0.25,
        "velocity": 95
      },
      {
        "pitch": 41,
        "duration": 4.0,
        "velocity": 71
      },
      {
        "pitch": 29,
        "duration": 0.25,
        "velocity": 105
      },
      {
        "pitch": 41,
        "duration": 3.6666666666666665,
        "velocity": 86
      },
      {
        "pitch": 29,
        "duration": 0.25,
        "velocity": 100
      },
      {
        "pitch": 29,
        "duration": 0.25,
        "velocity": 105
      },
      {
        "pitch": 29,
        "duration": 0.25,
        "velocity": 105
      },
      {
        "pitch": 29,
        "duration": 0.25,
        "velocity": 105
      },
      {
        "pitch": 67,
        "duration": 0.25,
        "velocity": 120
      },
      {
        "pitch": 29,
        "duration": 0.5,
        "velocity": 105
      },
      {
        "pitch": 67,
        "duration": 0.25,
        "velocity": 119
      },
      {
        "pitch": 33,
        "duration": 0.5,
        "velocity": 105
      }
    ],
    "key": "F major",
    "tempo": 120,
    "name": "1d7ff7f2b6b4001449960fc8529ba468.mid_seg48",
    "avg_interval": 15.466666666666667,
    "span": 38,
    "note_density": 0.22395833333333337,
    "register": "bass",
    "complexity": 0.7413194444444445
  },
  {
    "events": [
      {
        "pitch": 67,
        "duration": 0.75,
        "velocity": 120
      },
      {
        "pitch": 36,
        "duration": 0.5,
        "velocity": 105
      },
      {
        "pitch": 41,
        "duration": 4.0,
        "velocity": 71
      },
      {
        "pitch": 38,
        "duration": 0.25,
        "velocity": 80
      },
      {
        "pitch": 67,
        "duration": 1.0,
        "velocity": 120
      },
      {
        "pitch": 38,
        "duration": 4.0,
        "velocity": 86
      },
      {
        "pitch": 38,
        "duration": 0.25,
        "velocity": 95
      },
      {
        "pitch": 38,
        "duration": 0.25,
        "velocity": 104
      },
      {
        "pitch": 65,
        "duration": 0.25,
        "velocity": 113
      },
      {
        "pitch": 38,
        "duration": 0.25,
        "velocity": 91
      },
      {
        "pitch": 65,
        "duration": 1.0,
        "velocity": 114
      },
      {
        "pitch": 38,
        "duration": 0.25,
        "velocity": 95
      },
      {
        "pitch": 38,
        "duration": 0.25,
        "velocity": 90
      },
      {
        "pitch": 38,
        "duration": 0.25,
        "velocity": 104
      },
      {
        "pitch": 38,
        "duration": 0.25,
        "velocity": 90
      },
      {
        "pitch": 38,
        "duration": 4.0,
        "velocity": 71
      }
    ],
    "key": "F major",
    "tempo": 120,
    "name": "1d7ff7f2b6b4001449960fc8529ba468.mid_seg49",
    "avg_interval": 13.666666666666666,
    "span": 31,
    "note_density": 0.0,
    "register": "bass",
    "complexity": 0.6666666666666666
  },
  {
    "events": [
      {
        "pitch": 38,
        "duration": 0.25,
        "velocity": 105
      },
      {
        "pitch": 38,
        "duration": 3.75,
        "velocity": 86
      },
      {
        "pitch": 38,
        "duration": 0.25,
        "velocity": 90
      },
      {
        "pitch": 38,
        "duration": 0.25,
        "velocity": 100
      },
      {
        "pitch": 38,
        "duration": 0.25,
        "velocity": 98
      },
      {
        "pitch": 38,
        "duration": 0.25,
        "velocity": 104
      },
      {
        "pitch": 65,
        "duration": 0.5,
        "velocity": 114
      },
      {
        "pitch": 38,
        "duration": 0.25,
        "velocity": 98
      },
      {
        "pitch": 65,
        "duration": 0.5,
        "velocity": 120
      },
      {
        "pitch": 38,
        "duration": 0.25,
        "velocity": 105
      },
      {
        "pitch": 65,
        "duration": 0.5,
        "velocity": 120
      },
      {
        "pitch": 38,
        "duration": 0.5,
        "velocity": 100
      },
      {
        "pitch": 65,
        "duration": 0.5,
        "velocity": 120
      },
      {
        "pitch": 38,
        "duration": 4.0,
        "velocity": 71
      },
      {
        "pitch": 36,
        "duration": 0.25,
        "velocity": 98
      },
      {
        "pitch": 65,
        "duration": 0.5,
        "velocity": 120
      }
    ],
    "key": "F major",
    "tempo": 120,
    "name": "1d7ff7f2b6b4001449960fc8529ba468.mid_seg50",
    "avg_interval": 16.466666666666665,
    "span": 29,
    "note_density": 0.203125,
    "register": "bass",
    "complexity": 0.734375
  },
  {
    "events": [
      {
        "pitch": 36,
        "duration": 4.0,
        "velocity": 86
      },
      {
        "pitch": 36,
        "duration": 0.25,
        "velocity": 95
      },
      {
        "pitch": 60,
        "duration": 0.5,
        "velocity": 120
      },
      {
        "pitch": 36,
        "duration": 0.25,
        "velocity": 105
      },
      {
        "pitch": 60,
        "duration": 0.5,
        "velocity": 108
      },
      {
        "pitch": 36,
        "duration": 0.25,
        "velocity": 98
      },
      {
        "pitch": 36,
        "duration": 0.25,
        "velocity": 105
      },
      {
        "pitch": 60,
        "duration": 1.25,
        "velocity": 120
      },
      {
        "pitch": 36,
        "duration": 0.25,
        "velocity": 104
      },
      {
        "pitch": 36,
        "duration": 0.25,
        "velocity": 105
      },
      {
        "pitch": 36,
        "duration": 0.25,
        "velocity": 98
      },
      {
        "pitch": 48,
        "duration": 0.5,
        "velocity": 86
      },
      {
        "pitch": 36,
        "duration": 4.0,
        "velocity": 71
      },
      {
        "pitch": 36,
        "duration": 0.25,
        "velocity": 105
      },
      {
        "pitch": 50,
        "duration": 0.5,
        "velocity": 86
      },
      {
        "pitch": 36,
        "duration": 3.6666666666666665,
        "velocity": 86
      }
    ],
    "key": "F major",
    "tempo": 120,
    "name": "1d7ff7f2b6b4001449960fc8529ba468.mid_seg51",
    "avg_interval": 13.066666666666666,
    "span": 24,
    "note_density": 0.0,
    "register": "bass",
    "complexity": 0.6666666666666666
  },
  {
    "events": [
      {
        "pitch": 36,
        "duration": 0.25,
        "velocity": 98
      },
      {
        "pitch": 48,
        "duration": 0.5,
        "velocity": 86
      },
      {
        "pitch": 36,
        "duration": 0.25,
        "velocity": 100
      },
      {
        "pitch": 55,
        "duration": 0.5,
        "velocity": 86
      },
      {
        "pitch": 36,
        "duration": 0.25,
        "velocity": 87
      },
      {
        "pitch": 60,
        "duration": 0.5,
        "velocity": 120
      },
      {
        "pitch": 48,
        "duration": 2.5,
        "velocity": 86
      },
      {
        "pitch": 36,
        "duration": 0.25,
        "velocity": 105
      },
      {
        "pitch": 70,
        "duration": 0.25,
        "velocity": 120
      },
      {
        "pitch": 36,
        "duration": 0.5,
        "velocity": 105
      },
      {
        "pitch": 70,
        "duration": 0.25,
        "velocity": 120
      },
      {
        "pitch": 38,
        "duration": 0.5,
        "velocity": 104
      },
      {
        "pitch": 70,
        "duration": 0.5,
        "velocity": 120
      },
      {
        "pitch": 41,
        "duration": 0.5,
        "velocity": 105
      },
      {
        "pitch": 69,
        "duration": 0.5,
        "velocity": 114
      },
      {
        "pitch": 36,
        "duration": 4.0,
        "velocity": 71
      }
    ],
    "key": "F major",
    "tempo": 120,
    "name": "1d7ff7f2b6b4001449960fc8529ba468.mid_seg52",
    "avg_interval": 24.4,
    "span": 34,
    "note_density": 0.25,
    "register": "bass",
    "complexity": 0.75
  },
  {
    "events": [
      {
        "pitch": 29,
        "duration": 0.25,
        "velocity": 105
      },
      {
        "pitch": 69,
        "duration": 0.75,
        "velocity": 114
      },
      {
        "pitch": 41,
        "duration": 4.0,
        "velocity": 86
      },
      {
        "pitch": 29,
        "duration": 0.25,
        "velocity": 85
      },
      {
        "pitch": 29,
        "duration": 0.25,
        "velocity": 105
      },
      {
        "pitch": 29,
        "duration": 0.25,
        "velocity": 98
      },
      {
        "pitch": 29,
        "duration": 0.25,
        "velocity": 105
      },
      {
        "pitch": 29,
        "duration": 0.25,
        "velocity": 98
      },
      {
        "pitch": 67,
        "duration": 1.5,
        "velocity": 109
      },
      {
        "pitch": 29,
        "duration": 0.25,
        "velocity": 105
      },
      {
        "pitch": 29,
        "duration": 0.25,
        "velocity": 100
      },
      {
        "pitch": 41,
        "duration": 4.0,
        "velocity": 71
      },
      {
        "pitch": 29,
        "duration": 0.25,
        "velocity": 105
      },
      {
        "pitch": 41,
        "duration": 3.75,
        "velocity": 86
      },
      {
        "pitch": 29,
        "duration": 0.25,
        "velocity": 95
      },
      {
        "pitch": 29,
        "duration": 0.25,
        "velocity": 105
      }
    ],
    "key": "F major",
    "tempo": 120,
    "name": "1d7ff7f2b6b4001449960fc8529ba468.mid_seg53",
    "avg_interval": 13.6,
    "span": 40,
    "note_density": 0.0,
    "register": "bass",
    "complexity": 0.6666666666666666
  },
  {
    "events": [
      {
        "pitch": 29,
        "duration": 0.25,
        "velocity": 100
      },
      {
        "pitch": 67,
        "duration": 0.25,
        "velocity": 116
      },
      {
        "pitch": 29,
        "duration": 0.25,
        "velocity": 105
      },
      {
        "pitch": 67,
        "duration": 0.25,
        "velocity": 119
      },
      {
        "pitch": 29,
        "duration": 0.25,
        "velocity": 100
      },
      {
        "pitch": 67,
        "duration": 0.25,
        "velocity": 110
      },
      {
        "pitch": 29,
        "duration": 0.25,
        "velocity": 105
      },
      {
        "pitch": 67,
        "duration": 0.25,
        "velocity": 119
      },
      {
        "pitch": 29,
        "duration": 0.25,
        "velocity": 100
      },
      {
        "pitch": 67,
        "duration": 0.25,
        "velocity": 119
      },
      {
        "pitch": 41,
        "duration": 4.0,
        "velocity": 71
      },
      {
        "pitch": 29,
        "duration": 0.25,
        "velocity": 105
      },
      {
        "pitch": 67,
        "duration": 1.0,
        "velocity": 120
      },
      {
        "pitch": 41,
        "duration": 4.0,
        "velocity": 86
      },
      {
        "pitch": 29,
        "duration": 0.25,
        "velocity": 105
      },
      {
        "pitch": 29,
        "duration": 0.25,
        "velocity": 105
      }
    ],
    "key": "F major",
    "tempo": 120,
    "name": "1d7ff7f2b6b4001449960fc8529ba468.mid_seg54",
    "avg_interval": 30.4,
    "span": 38,
    "note_density": 0.234375,
    "register": "bass",
    "complexity": 0.7447916666666666
  },
  {
    "events": [
      {
        "pitch": 65,
        "duration": 0.25,
        "velocity": 112
      },
      {
        "pitch": 29,
        "duration": 0.25,
        "velocity": 105
      },
      {
        "pitch": 65,
        "duration": 0.75,
        "velocity": 114
      },
      {
        "pitch": 29,
        "duration": 0.25,
        "velocity": 105
      },
      {
        "pitch": 29,
        "duration": 0.25,
        "velocity": 105
      },
      {
        "pitch": 29,
        "duration": 0.25,
        "velocity": 105
      },
      {
        "pitch": 29,
        "duration": 0.25,
        "velocity": 104
      },
      {
        "pitch": 41,
        "duration": 4.0,
        "velocity": 71
      },
      {
        "pitch": 29,
        "duration": 0.25,
        "velocity": 105
      },
      {
        "pitch": 41,
        "duration": 3.6666666666666665,
        "velocity": 86
      },
      {
        "pitch": 29,
        "duration": 0.25,
        "velocity": 100
      },
      {
        "pitch": 29,
        "duration": 0.25,
        "velocity": 105
      },
      {
        "pitch": 29,
        "duration": 0.25,
        "velocity": 100
      },
      {
        "pitch": 29,
        "duration": 0.25,
        "velocity": 104
      },
      {
        "pitch": 29,
        "duration": 0.25,
        "velocity": 105
      },
      {
        "pitch": 65,
        "duration": 0.5,
        "velocity": 120
      }
    ],
    "key": "F major",
    "tempo": 120,
    "name": "1d7ff7f2b6b4001449960fc8529ba468.mid_seg55",
    "avg_interval": 12.8,
    "span": 36,
    "note_density": 0.25520833333333337,
    "register": "bass",
    "complexity": 0.7517361111111112
  },
  {
    "events": [
      {
        "pitch": 29,
        "duration": 0.25,
        "velocity": 83
      },
      {
        "pitch": 33,
        "duration": 0.5,
        "velocity": 105
      },
      {
        "pitch": 65,
        "duration": 0.25,
        "velocity": 120
      },
      {
        "pitch": 36,
        "duration": 0.5,
        "velocity": 105
      },
      {
        "pitch": 65,
        "duration": 0.25,
        "velocity": 120
      },
      {
        "pitch": 41,
        "duration": 4.0,
        "velocity": 71
      },
      {
        "pitch": 38,
        "duration": 0.25,
        "velocity": 90
      },
      {
        "pitch": 65,
        "duration": 1.25,
        "velocity": 120
      },
      {
        "pitch": 38,
        "duration": 4.0,
        "velocity": 86
      },
      {
        "pitch": 38,
        "duration": 0.25,
        "velocity": 85
      },
      {
        "pitch": 38,
        "duration": 0.25,
        "velocity": 105
      },
      {
        "pitch": 38,
        "duration": 0.25,
        "velocity": 93
      },
      {
        "pitch": 38,
        "duration": 0.25,
        "velocity": 98
      },
      {
        "pitch": 38,
        "duration": 0.25,
        "velocity": 93
      },
      {
        "pitch": 38,
        "duration": 0.25,
        "velocity": 105
      },
      {
        "pitch": 38,
        "duration": 0.25,
        "velocity": 93
      }
    ],
    "key": "F major",
    "tempo": 120,
    "name": "1d7ff7f2b6b4001449960fc8529ba468.mid_seg56",
    "avg_interval": 11.666666666666666,
    "span": 36,
    "note_density": 0.1875,
    "register": "bass",
    "complexity": 0.7199074074074074
  },
  {
    "events": [
      {
        "pitch": 38,
        "duration": 4.0,
        "velocity": 71
      },
      {
        "pitch": 38,
        "duration": 0.25,
        "velocity": 105
      },
      {
        "pitch": 38,
        "duration": 3.6666666666666665,
        "velocity": 86
      },
      {
        "pitch": 38,
        "duration": 0.25,
        "velocity": 85
      },
      {
        "pitch": 38,
        "duration": 0.25,
        "velocity": 105
      },
      {
        "pitch": 38,
        "duration": 0.25,
        "velocity": 100
      },
      {
        "pitch": 38,
        "duration": 0.25,
        "velocity": 105
      },
      {
        "pitch": 65,
        "duration": 0.5,
        "velocity": 120
      },
      {
        "pitch": 38,
        "duration": 0.25,
        "velocity": 104
      },
      {
        "pitch": 65,
        "duration": 0.5,
        "velocity": 115
      },
      {
        "pitch": 38,
        "duration": 0.25,
        "velocity": 105
      },
      {
        "pitch": 65,
        "duration": 0.5,
        "velocity": 120
      },
      {
        "pitch": 38,
        "duration": 0.5,
        "velocity": 98
      },
      {
        "pitch": 65,
        "duration": 0.5,
        "velocity": 114
      },
      {
        "pitch": 38,
        "duration": 4.0,
        "velocity": 71
      },
      {
        "pitch": 36,
        "duration": 0.25,
        "velocity": 105
      }
    ],
    "key": "F major",
    "tempo": 120,
    "name": "1d7ff7f2b6b4001449960fc8529ba468.mid_seg57",
    "avg_interval": 14.533333333333333,
    "span": 29,
    "note_density": 0.0,
    "register": "bass",
    "complexity": 0.6666666666666666
  },
  {
    "events": [
      {
        "pitch": 65,
        "duration": 0.5,
        "velocity": 120
      },
      {
        "pitch": 36,
        "duration": 4.0,
        "velocity": 86
      },
      {
        "pitch": 36,
        "duration": 0.25,
        "velocity": 93
      },
      {
        "pitch": 60,
        "duration": 0.75,
        "velocity": 114
      },
      {
        "pitch": 36,
        "duration": 0.25,
        "velocity": 105
      },
      {
        "pitch": 36,
        "duration": 0.25,
        "velocity": 93
      },
      {
        "pitch": 60,
        "duration": 0.25,
        "velocity": 110
      },
      {
        "pitch": 36,
        "duration": 0.25,
        "velocity": 105
      },
      {
        "pitch": 60,
        "duration": 1.5,
        "velocity": 110
      },
      {
        "pitch": 36,
        "duration": 0.25,
        "velocity": 98
      },
      {
        "pitch": 36,
        "duration": 0.25,
        "velocity": 105
      },
      {
        "pitch": 36,
        "duration": 0.25,
        "velocity": 105
      },
      {
        "pitch": 48,
        "duration": 0.5,
        "velocity": 86
      },
      {
        "pitch": 74,
        "duration": 0.25,
        "velocity": 71
      },
      {
        "pitch": 36,
        "duration": 0.25,
        "velocity": 105
      },
      {
        "pitch": 50,
        "duration": 0.5,
        "velocity": 86
      }
    ],
    "key": "F major",
    "tempo": 120,
    "name": "1d7ff7f2b6b4001449960fc8529ba468.mid_seg58",
    "avg_interval": 17.533333333333335,
    "span": 38,
    "note_density": 0.359375,
    "register": "bass",
    "complexity": 0.7864583333333334
  },
  {
    "events": [
      {
        "pitch": 36,
        "duration": 4.0,
        "velocity": 86
      },
      {
        "pitch": 36,
        "duration": 0.25,
        "velocity": 85
      },
      {
        "pitch": 48,
        "duration": 0.5,
        "velocity": 86
      },
      {
        "pitch": 36,
        "duration": 0.25,
        "velocity": 104
      },
      {
        "pitch": 55,
        "duration": 0.5,
        "velocity": 86
      },
      {
        "pitch": 36,
        "duration": 0.5,
        "velocity": 105
      },
      {
        "pitch": 48,
        "duration": 2.5,
        "velocity": 86
      },
      {
        "pitch": 36,
        "duration": 0.5,
        "velocity": 93
      },
      {
        "pitch": 36,
        "duration": 0.5,
        "velocity": 105
      },
      {
        "pitch": 31,
        "duration": 0.5,
        "velocity": 105
      },
      {
        "pitch": 36,
        "duration": 0.5,
        "velocity": 104
      },
      {
        "pitch": 34,
        "duration": 0.25,
        "velocity": 105
      },
      {
        "pitch": 82,
        "duration": 0.5,
        "velocity": 109
      },
      {
        "pitch": 34,
        "duration": 0.25,
        "velocity": 105
      },
      {
        "pitch": 77,
        "duration": 0.5,
        "velocity": 99
      },
      {
        "pitch": 70,
        "duration": 0.25,
        "velocity": 118
      }
    ],
    "key": "F major",
    "tempo": 120,
    "name": "1d7ff7f2b6b4001449960fc8529ba468.mid_seg59",
    "avg_interval": 16.266666666666666,
    "span": 51,
    "note_density": 0.234375,
    "register": "bass",
    "complexity": 0.7447916666666666
  },
  {
    "events": [
      {
        "pitch": 34,
        "duration": 0.25,
        "velocity": 105
      },
      {
        "pitch": 74,
        "duration": 0.5,
        "velocity": 78
      },
      {
        "pitch": 70,
        "duration": 0.25,
        "velocity": 115
      },
      {
        "pitch": 34,
        "duration": 0.25,
        "velocity": 105
      },
      {
        "pitch": 82,
        "duration": 0.5,
        "velocity": 109
      },
      {
        "pitch": 70,
        "duration": 0.25,
        "velocity": 120
      },
      {
        "pitch": 34,
        "duration": 0.25,
        "velocity": 105
      },
      {
        "pitch": 77,
        "duration": 0.5,
        "velocity": 105
      },
      {
        "pitch": 70,
        "duration": 0.25,
        "velocity": 120
      },
      {
        "pitch": 34,
        "duration": 0.25,
        "velocity": 105
      },
      {
        "pitch": 74,
        "duration": 0.5,
        "velocity": 93
      },
      {
        "pitch": 70,
        "duration": 0.25,
        "velocity": 120
      },
      {
        "pitch": 34,
        "duration": 0.25,
        "velocity": 105
      },
      {
        "pitch": 82,
        "duration": 0.5,
        "velocity": 107
      },
      {
        "pitch": 70,
        "duration": 0.5,
        "velocity": 108
      },
      {
        "pitch": 34,
        "duration": 0.25,
        "velocity": 105
      }
    ],
    "key": "F major",
    "tempo": 120,
    "name": "1d7ff7f2b6b4001449960fc8529ba468.mid_seg60",
    "avg_interval": 29.2,
    "span": 48,
    "note_density": 0.65625,
    "register": "middle",
    "complexity": 0.8854166666666666
  },
  {
    "events": [
      {
        "pitch": 77,
        "duration": 0.5,
        "velocity": 105
      },
      {
        "pitch": 70,
        "duration": 0.25,
        "velocity": 110
      },
      {
        "pitch": 34,
        "duration": 0.25,
        "velocity": 105
      },
      {
        "pitch": 82,
        "duration": 0.5,
        "velocity": 109
      },
      {
        "pitch": 70,
        "duration": 0.5,
        "velocity": 120
      },
      {
        "pitch": 34,
        "duration": 0.25,
        "velocity": 105
      },
      {
        "pitch": 77,
        "duration": 0.5,
        "velocity": 105
      },
      {
        "pitch": 69,
        "duration": 0.5,
        "velocity": 111
      },
      {
        "pitch": 34,
        "duration": 0.25,
        "velocity": 105
      },
      {
        "pitch": 74,
        "duration": 0.5,
        "velocity": 99
      },
      {
        "pitch": 67,
        "duration": 0.5,
        "velocity": 120
      },
      {
        "pitch": 34,
        "duration": 0.25,
        "velocity": 105
      },
      {
        "pitch": 82,
        "duration": 0.5,
        "velocity": 109
      },
      {
        "pitch": 70,
        "duration": 0.75,
        "velocity": 118
      },
      {
        "pitch": 34,
        "duration": 0.25,
        "velocity": 105
      },
      {
        "pitch": 77,
        "duration": 0.5,
        "velocity": 105
      }
    ],
    "key": "F major",
    "tempo": 120,
    "name": "1d7ff7f2b6b4001449960fc8529ba468.mid_seg61",
    "avg_interval": 29.6,
    "span": 48,
    "note_density": 0.578125,
    "register": "middle",
    "complexity": 0.859375
  },
  {
    "events": [
      {
        "pitch": 69,
        "duration": 0.25,
        "velocity": 104
      },
      {
        "pitch": 34,
        "duration": 0.25,
        "velocity": 105
      },
      {
        "pitch": 74,
        "duration": 0.5,
        "velocity": 90
      },
      {
        "pitch": 67,
        "duration": 0.5,
        "velocity": 116
      },
      {
        "pitch": 34,
        "duration": 0.5,
        "velocity": 105
      },
      {
        "pitch": 82,
        "duration": 0.5,
        "velocity": 109
      },
      {
        "pitch": 36,
        "duration": 0.5,
        "velocity": 100
      },
      {
        "pitch": 77,
        "duration": 0.5,
        "velocity": 108
      },
      {
        "pitch": 38,
        "duration": 0.25,
        "velocity": 95
      },
      {
        "pitch": 81,
        "duration": 0.5,
        "velocity": 108
      },
      {
        "pitch": 38,
        "duration": 0.25,
        "velocity": 100
      },
      {
        "pitch": 77,
        "duration": 0.5,
        "velocity": 99
      },
      {
        "pitch": 67,
        "duration": 0.25,
        "velocity": 120
      },
      {
        "pitch": 38,
        "duration": 0.25,
        "velocity": 105
      },
      {
        "pitch": 74,
        "duration": 0.5,
        "velocity": 85
      },
      {
        "pitch": 67,
        "duration": 0.25,
        "velocity": 120
      }
    ],
    "key": "F major",
    "tempo": 120,
    "name": "1d7ff7f2b6b4001449960fc8529ba468.mid_seg62",
    "avg_interval": 33.06666666666667,
    "span": 48,
    "note_density": 0.609375,
    "register": "middle",
    "complexity": 0.8697916666666666
  },
  {
    "events": [
      {
        "pitch": 38,
        "duration": 0.25,
        "velocity": 90
      },
      {
        "pitch": 81,
        "duration": 0.5,
        "velocity": 105
      },
      {
        "pitch": 67,
        "duration": 0.25,
        "velocity": 120
      },
      {
        "pitch": 38,
        "duration": 0.25,
        "velocity": 100
      },
      {
        "pitch": 77,
        "duration": 0.5,
        "velocity": 109
      },
      {
        "pitch": 67,
        "duration": 0.75,
        "velocity": 120
      },
      {
        "pitch": 38,
        "duration": 0.25,
        "velocity": 87
      },
      {
        "pitch": 74,
        "duration": 0.5,
        "velocity": 82
      },
      {
        "pitch": 38,
        "duration": 0.25,
        "velocity": 104
      },
      {
        "pitch": 81,
        "duration": 0.5,
        "velocity": 109
      },
      {
        "pitch": 67,
        "duration": 0.5,
        "velocity": 120
      },
      {
        "pitch": 38,
        "duration": 0.25,
        "velocity": 93
      },
      {
        "pitch": 77,
        "duration": 0.5,
        "velocity": 108
      },
      {
        "pitch": 65,
        "duration": 0.25,
        "velocity": 110
      },
      {
        "pitch": 38,
        "duration": 0.25,
        "velocity": 105
      },
      {
        "pitch": 81,
        "duration": 0.5,
        "velocity": 109
      }
    ],
    "key": "F major",
    "tempo": 120,
    "name": "1d7ff7f2b6b4001449960fc8529ba468.mid_seg63",
    "avg_interval": 29.533333333333335,
    "span": 43,
    "note_density": 0.609375,
    "register": "middle",
    "complexity": 0.8697916666666666
  },
  {
    "events": [
      {
        "pitch": 67,
        "duration": 0.25,
        "velocity": 120
      },
      {
        "pitch": 38,
        "duration": 0.25,
        "velocity": 94
      },
      {
        "pitch": 77,
        "duration": 0.5,
        "velocity": 95
      },
      {
        "pitch": 67,
        "duration": 0.5,
        "velocity": 114
      },
      {
        "pitch": 38,
        "duration": 0.25,
        "velocity": 100
      },
      {
        "pitch": 74,
        "duration": 0.5,
        "velocity": 93
      },
      {
        "pitch": 65,
        "duration": 0.25,
        "velocity": 119
      },
      {
        "pitch": 38,
        "duration": 0.25,
        "velocity": 104
      },
      {
        "pitch": 81,
        "duration": 0.5,
        "velocity": 102
      },
      {
        "pitch": 67,
        "duration": 1.25,
        "velocity": 112
      },
      {
        "pitch": 38,
        "duration": 0.25,
        "velocity": 105
      },
      {
        "pitch": 77,
        "duration": 0.5,
        "velocity": 109
      },
      {
        "pitch": 38,
        "duration": 0.25,
        "velocity": 105
      },
      {
        "pitch": 74,
        "duration": 0.5,
        "velocity": 90
      },
      {
        "pitch": 65,
        "duration": 0.5,
        "velocity": 92
      },
      {
        "pitch": 38,
        "duration": 0.5,
        "velocity": 105
      }
    ],
    "key": "F major",
    "tempo": 120,
    "name": "1d7ff7f2b6b4001449960fc8529ba468.mid_seg64",
    "avg_interval": 27.666666666666668,
    "span": 43,
    "note_density": 0.5625,
    "register": "middle",
    "complexity": 0.8541666666666666
  },
  {
    "events": [
      {
        "pitch": 81,
        "duration": 0.5,
        "velocity": 105
      },
      {
        "pitch": 36,
        "duration": 0.5,
        "velocity": 104
      },
      {
        "pitch": 77,
        "duration": 0.5,
        "velocity": 109
      },
      {
        "pitch": 34,
        "duration": 0.25,
        "velocity": 105
      },
      {
        "pitch": 82,
        "duration": 0.5,
        "velocity": 109
      },
      {
        "pitch": 34,
        "duration": 0.25,
        "velocity": 98
      },
      {
        "pitch": 77,
        "duration": 0.5,
        "velocity": 90
      },
      {
        "pitch": 70,
        "duration": 0.25,
        "velocity": 120
      },
      {
        "pitch": 34,
        "duration": 0.25,
        "velocity": 105
      },
      {
        "pitch": 74,
        "duration": 0.5,
        "velocity": 93
      },
      {
        "pitch": 70,
        "duration": 0.25,
        "velocity": 120
      },
      {
        "pitch": 34,
        "duration": 0.25,
        "velocity": 91
      },
      {
        "pitch": 82,
        "duration": 0.5,
        "velocity": 107
      },
      {
        "pitch": 70,
        "duration": 0.25,
        "velocity": 120
      },
      {
        "pitch": 34,
        "duration": 0.25,
        "velocity": 105
      },
      {
        "pitch": 77,
        "duration": 0.5,
        "velocity": 109
      }
    ],
    "key": "F major",
    "tempo": 120,
    "name": "1d7ff7f2b6b4001449960fc8529ba468.mid_seg65",
    "avg_interval": 35.333333333333336,
    "span": 48,
    "note_density": 0.625,
    "register": "middle",
    "complexity": 0.875
  },
  {
    "events": [
      {
        "pitch": 70,
        "duration": 0.75,
        "velocity": 120
      },
      {
        "pitch": 34,
        "duration": 0.25,
        "velocity": 105
      },
      {
        "pitch": 74,
        "duration": 0.5,
        "velocity": 95
      },
      {
        "pitch": 34,
        "duration": 0.25,
        "velocity": 105
      },
      {
        "pitch": 82,
        "duration": 0.5,
        "velocity": 104
      },
      {
        "pitch": 69,
        "duration": 0.5,
        "velocity": 120
      },
      {
        "pitch": 74,
        "duration": 4.0,
        "velocity": 71
      },
      {
        "pitch": 34,
        "duration": 0.25,
        "velocity": 102
      },
      {
        "pitch": 77,
        "duration": 0.5,
        "velocity": 102
      },
      {
        "pitch": 67,
        "duration": 0.25,
        "velocity": 113
      },
      {
        "pitch": 34,
        "duration": 0.25,
        "velocity": 105
      },
      {
        "pitch": 82,
        "duration": 0.5,
        "velocity": 109
      },
      {
        "pitch": 70,
        "duration": 0.5,
        "velocity": 120
      },
      {
        "pitch": 34,
        "duration": 0.25,
        "velocity": 105
      },
      {
        "pitch": 77,
        "duration": 0.5,
        "velocity": 102
      },
      {
        "pitch": 69,
        "duration": 0.5,
        "velocity": 113
      }
    ],
    "key": "F major",
    "tempo": 120,
    "name": "1d7ff7f2b6b4001449960fc8529ba468.mid_seg66",
    "avg_interval": 30.333333333333332,
    "span": 48,
    "note_density": 0.359375,
    "register": "middle",
    "complexity": 0.7864583333333334
  },
  {
    "events": [
      {
        "pitch": 34,
        "duration": 0.25,
        "velocity": 105
      },
      {
        "pitch": 74,
        "duration": 0.5,
        "velocity": 95
      },
      {
        "pitch": 67,
        "duration": 0.25,
        "velocity": 116
      },
      {
        "pitch": 34,
        "duration": 0.25,
        "velocity": 105
      },
      {
        "pitch": 82,
        "duration": 0.5,
        "velocity": 107
      },
      {
        "pitch": 70,
        "duration": 0.75,
        "velocity": 120
      },
      {
        "pitch": 34,
        "duration": 0.25,
        "velocity": 105
      },
      {
        "pitch": 77,
        "duration": 0.5,
        "velocity": 105
      },
      {
        "pitch": 69,
        "duration": 0.25,
        "velocity": 105
      },
      {
        "pitch": 34,
        "duration": 0.25,
        "velocity": 105
      },
      {
        "pitch": 74,
        "duration": 0.5,
        "velocity": 99
      },
      {
        "pitch": 67,
        "duration": 0.5,
        "velocity": 113
      },
      {
        "pitch": 34,
        "duration": 0.25,
        "velocity": 105
      },
      {
        "pitch": 82,
        "duration": 0.5,
        "velocity": 109
      },
      {
        "pitch": 34,
        "duration": 0.5,
        "velocity": 105
      },
      {
        "pitch": 77,
        "duration": 0.5,
        "velocity": 105
      }
    ],
    "key": "F major",
    "tempo": 120,
    "name": "1d7ff7f2b6b4001449960fc8529ba468.mid_seg67",
    "avg_interval": 32.06666666666667,
    "span": 48,
    "note_density": 0.59375,
    "register": "middle",
    "complexity": 0.8645833333333334
  },
  {
    "events": [
      {
        "pitch": 36,
        "duration": 0.25,
        "velocity": 105
      },
      {
        "pitch": 84,
        "duration": 0.5,
        "velocity": 108
      },
      {
        "pitch": 36,
        "duration": 0.25,
        "velocity": 98
      },
      {
        "pitch": 79,
        "duration": 0.5,
        "velocity": 102
      },
      {
        "pitch": 70,
        "duration": 0.75,
        "velocity": 120
      },
      {
        "pitch": 36,
        "duration": 0.25,
        "velocity": 105
      },
      {
        "pitch": 76,
        "duration": 0.5,
        "velocity": 105
      },
      {
        "pitch": 36,
        "duration": 0.25,
        "velocity": 104
      },
      {
        "pitch": 84,
        "duration": 0.5,
        "velocity": 95
      },
      {
        "pitch": 70,
        "duration": 1.0,
        "velocity": 120
      },
      {
        "pitch": 36,
        "duration": 0.25,
        "velocity": 105
      },
      {
        "pitch": 79,
        "duration": 0.5,
        "velocity": 108
      },
      {
        "pitch": 36,
        "duration": 0.25,
        "velocity": 105
      },
      {
        "pitch": 76,
        "duration": 0.5,
        "velocity": 99
      },
      {
        "pitch": 70,
        "duration": 0.5,
        "velocity": 120
      },
      {
        "pitch": 36,
        "duration": 0.25,
        "velocity": 105
      }
    ],
    "key": "F major",
    "tempo": 120,
    "name": "1d7ff7f2b6b4001449960fc8529ba468.mid_seg68",
    "avg_interval": 34.93333333333333,
    "span": 48,
    "note_density": 0.5625,
    "register": "middle",
    "complexity": 0.8541666666666666
  },
  {
    "events": [
      {
        "pitch": 84,
        "duration": 0.5,
        "velocity": 102
      },
      {
        "pitch": 74,
        "duration": 3.75,
        "velocity": 71
      },
      {
        "pitch": 36,
        "duration": 0.25,
        "velocity": 105
      },
      {
        "pitch": 79,
        "duration": 0.5,
        "velocity": 102
      },
      {
        "pitch": 36,
        "duration": 0.25,
        "velocity": 105
      },
      {
        "pitch": 84,
        "duration": 0.5,
        "velocity": 108
      },
      {
        "pitch": 36,
        "duration": 0.25,
        "velocity": 105
      },
      {
        "pitch": 79,
        "duration": 0.5,
        "velocity": 99
      },
      {
        "pitch": 72,
        "duration": 0.25,
        "velocity": 120
      },
      {
        "pitch": 36,
        "duration": 0.25,
        "velocity": 105
      },
      {
        "pitch": 76,
        "duration": 0.5,
        "velocity": 95
      },
      {
        "pitch": 72,
        "duration": 0.25,
        "velocity": 120
      },
      {
        "pitch": 38,
        "duration": 0.75,
        "velocity": 105
      },
      {
        "pitch": 86,
        "duration": 0.6666666666666666,
        "velocity": 99
      },
      {
        "pitch": 72,
        "duration": 2.5,
        "velocity": 120
      },
      {
        "pitch": 81,
        "duration": 0.5,
        "velocity": 87
      }
    ],
    "key": "F major",
    "tempo": 120,
    "name": "1d7ff7f2b6b4001449960fc8529ba468.mid_seg69",
    "avg_interval": 31.0,
    "span": 50,
    "note_density": 0.23958333333333337,
    "register": "middle",
    "complexity": 0.7465277777777778
  },
  {
    "events": [
      {
        "pitch": 38,
        "duration": 0.25,
        "velocity": 100
      },
      {
        "pitch": 78,
        "duration": 0.5,
        "velocity": 97
      },
      {
        "pitch": 63,
        "duration": 0.25,
        "velocity": 120
      },
      {
        "pitch": 64,
        "duration": 0.25,
        "velocity": 120
      },
      {
        "pitch": 38,
        "duration": 0.25,
        "velocity": 105
      },
      {
        "pitch": 86,
        "duration": 0.5,
        "velocity": 102
      },
      {
        "pitch": 67,
        "duration": 0.25,
        "velocity": 120
      },
      {
        "pitch": 38,
        "duration": 0.25,
        "velocity": 105
      },
      {
        "pitch": 81,
        "duration": 0.5,
        "velocity": 102
      },
      {
        "pitch": 73,
        "duration": 0.25,
        "velocity": 120
      },
      {
        "pitch": 74,
        "duration": 0.5,
        "velocity": 120
      },
      {
        "pitch": 31,
        "duration": 0.25,
        "velocity": 105
      },
      {
        "pitch": 43,
        "duration": 4.0,
        "velocity": 86
      },
      {
        "pitch": 74,
        "duration": 2.5,
        "velocity": 120
      },
      {
        "pitch": 31,
        "duration": 0.25,
        "velocity": 87
      },
      {
        "pitch": 31,
        "duration": 0.25,
        "velocity": 105
      }
    ],
    "key": "F major",
    "tempo": 120,
    "name": "1d7ff7f2b6b4001449960fc8529ba468.mid_seg70",
    "avg_interval": 23.933333333333334,
    "span": 55,
    "note_density": 0.3125,
    "register": "middle",
    "complexity": 0.7708333333333334
  },
  {
    "events": [
      {
        "pitch": 31,
        "duration": 0.25,
        "velocity": 98
      },
      {
        "pitch": 31,
        "duration": 0.25,
        "velocity": 105
      },
      {
        "pitch": 31,
        "duration": 0.25,
        "velocity": 100
      },
      {
        "pitch": 69,
        "duration": 1.5,
        "velocity": 109
      },
      {
        "pitch": 70,
        "duration": 0.25,
        "velocity": 120
      },
      {
        "pitch": 71,
        "duration": 0.5,
        "velocity": 120
      },
      {
        "pitch": 31,
        "duration": 0.25,
        "velocity": 105
      },
      {
        "pitch": 69,
        "duration": 0.25,
        "velocity": 120
      },
      {
        "pitch": 31,
        "duration": 0.25,
        "velocity": 100
      },
      {
        "pitch": 67,
        "duration": 0.5,
        "velocity": 120
      },
      {
        "pitch": 31,
        "duration": 0.25,
        "velocity": 100
      },
      {
        "pitch": 43,
        "duration": 3.75,
        "velocity": 86
      },
      {
        "pitch": 67,
        "duration": 0.5,
        "velocity": 120
      },
      {
        "pitch": 31,
        "duration": 0.25,
        "velocity": 98
      },
      {
        "pitch": 64,
        "duration": 0.25,
        "velocity": 120
      },
      {
        "pitch": 31,
        "duration": 0.25,
        "velocity": 104
      }
    ],
    "key": "F major",
    "tempo": 120,
    "name": "1d7ff7f2b6b4001449960fc8529ba468.mid_seg71",
    "avg_interval": 24.4,
    "span": 40,
    "note_density": 0.40625,
    "register": "bass",
    "complexity": 0.8020833333333334
  },
  {
    "events": [
      {
        "pitch": 31,
        "duration": 0.25,
        "velocity": 98
      },
      {
        "pitch": 31,
        "duration": 0.25,
        "velocity": 100
      },
      {
        "pitch": 70,
        "duration": 0.25,
        "velocity": 120
      },
      {
        "pitch": 71,
        "duration": 0.25,
        "velocity": 120
      },
      {
        "pitch": 31,
        "duration": 0.25,
        "velocity": 104
      },
      {
        "pitch": 71,
        "duration": 0.25,
        "velocity": 120
      },
      {
        "pitch": 31,
        "duration": 0.25,
        "velocity": 100
      },
      {
        "pitch": 71,
        "duration": 0.25,
        "velocity": 120
      },
      {
        "pitch": 31,
        "duration": 0.25,
        "velocity": 104
      },
      {
        "pitch": 71,
        "duration": 0.25,
        "velocity": 120
      },
      {
        "pitch": 31,
        "duration": 0.25,
        "velocity": 105
      },
      {
        "pitch": 43,
        "duration": 4.0,
        "velocity": 86
      },
      {
        "pitch": 70,
        "duration": 0.25,
        "velocity": 120
      },
      {
        "pitch": 71,
        "duration": 0.5,
        "velocity": 120
      },
      {
        "pitch": 31,
        "duration": 0.25,
        "velocity": 98
      },
      {
        "pitch": 69,
        "duration": 0.5,
        "velocity": 120
      }
    ],
    "key": "F major",
    "tempo": 120,
    "name": "1d7ff7f2b6b4001449960fc8529ba468.mid_seg72",
    "avg_interval": 29.2,
    "span": 40,
    "note_density": 0.484375,
    "register": "bass",
    "complexity": 0.828125
  },
  {
    "events": [
      {
        "pitch": 31,
        "duration": 0.25,
        "velocity": 105
      },
      {
        "pitch": 67,
        "duration": 0.25,
        "velocity": 120
      },
      {
        "pitch": 31,
        "duration": 0.25,
        "velocity": 95
      },
      {
        "pitch": 67,
        "duration": 1.0,
        "velocity": 120
      },
      {
        "pitch": 31,
        "duration": 0.25,
        "velocity": 104
      },
      {
        "pitch": 31,
        "duration": 0.25,
        "velocity": 93
      },
      {
        "pitch": 64,
        "duration": 0.5,
        "velocity": 120
      },
      {
        "pitch": 31,
        "duration": 0.25,
        "velocity": 105
      },
      {
        "pitch": 62,
        "duration": 0.25,
        "velocity": 120
      },
      {
        "pitch": 31,
        "duration": 0.25,
        "velocity": 93
      },
      {
        "pitch": 31,
        "duration": 0.25,
        "velocity": 105
      },
      {
        "pitch": 43,
        "duration": 3.6666666666666665,
        "velocity": 86
      },
      {
        "pitch": 31,
        "duration": 0.25,
        "velocity": 83
      },
      {
        "pitch": 70,
        "duration": 0.25,
        "velocity": 120
      },
      {
        "pitch": 71,
        "duration": 0.5,
        "velocity": 120
      },
      {
        "pitch": 31,
        "duration": 0.25,
        "velocity": 105
      }
    ],
    "key": "F major",
    "tempo": 120,
    "name": "1d7ff7f2b6b4001449960fc8529ba468.mid_seg73",
    "avg_interval": 25.066666666666666,
    "span": 40,
    "note_density": 0.45833333333333337,
    "register": "bass",
    "complexity": 0.8194444444444445
  },
  {
    "events": [
      {
        "pitch": 71,
        "duration": 0.25,
        "velocity": 120
      },
      {
        "pitch": 31,
        "duration": 0.5,
        "velocity": 98
      },
      {
        "pitch": 71,
        "duration": 0.25,
        "velocity": 120
      },
      {
        "pitch": 35,
        "duration": 0.6666666666666666,
        "velocity": 98
      },
      {
        "pitch": 70,
        "duration": 0.25,
        "velocity": 120
      },
      {
        "pitch": 71,
        "duration": 0.25,
        "velocity": 120
      },
      {
        "pitch": 38,
        "duration": 0.5,
        "velocity": 104
      },
      {
        "pitch": 71,
        "duration": 0.25,
        "velocity": 120
      },
      {
        "pitch": 40,
        "duration": 0.5,
        "velocity": 104
      },
      {
        "pitch": 71,
        "duration": 0.25,
        "velocity": 120
      },
      {
        "pitch": 38,
        "duration": 0.5,
        "velocity": 100
      },
      {
        "pitch": 71,
        "duration": 0.5,
        "velocity": 120
      },
      {
        "pitch": 28,
        "duration": 0.25,
        "velocity": 105
      },
      {
        "pitch": 40,
        "duration": 4.0,
        "velocity": 86
      },
      {
        "pitch": 70,
        "duration": 0.5,
        "velocity": 108
      },
      {
        "pitch": 28,
        "duration": 0.25,
        "velocity": 100
      }
    ],
    "key": "F major",
    "tempo": 120,
    "name": "1d7ff7f2b6b4001449960fc8529ba468.mid_seg74",
    "avg_interval": 31.533333333333335,
    "span": 43,
    "note_density": 0.39583333333333337,
    "register": "bass",
    "complexity": 0.7986111111111112
  },
  {
    "events": [
      {
        "pitch": 69,
        "duration": 0.5,
        "velocity": 120
      },
      {
        "pitch": 28,
        "duration": 0.25,
        "velocity": 105
      },
      {
        "pitch": 67,
        "duration": 0.25,
        "velocity": 120
      },
      {
        "pitch": 28,
        "duration": 0.25,
        "velocity": 100
      },
      {
        "pitch": 64,
        "duration": 1.0,
        "velocity": 120
      },
      {
        "pitch": 28,
        "duration": 0.25,
        "velocity": 105
      },
      {
        "pitch": 28,
        "duration": 0.25,
        "velocity": 100
      },
      {
        "pitch": 62,
        "duration": 0.5,
        "velocity": 115
      },
      {
        "pitch": 28,
        "duration": 0.25,
        "velocity": 104
      },
      {
        "pitch": 59,
        "duration": 0.25,
        "velocity": 120
      },
      {
        "pitch": 28,
        "duration": 0.25,
        "velocity": 93
      },
      {
        "pitch": 59,
        "duration": 0.5,
        "velocity": 120
      },
      {
        "pitch": 28,
        "duration": 0.25,
        "velocity": 105
      },
      {
        "pitch": 40,
        "duration": 3.75,
        "velocity": 86
      },
      {
        "pitch": 59,
        "duration": 0.5,
        "velocity": 120
      },
      {
        "pitch": 31,
        "duration": 4.0,
        "velocity": 71
      }
    ],
    "key": "F major",
    "tempo": 120,
    "name": "1d7ff7f2b6b4001449960fc8529ba468.mid_seg75",
    "avg_interval": 29.466666666666665,
    "span": 41,
    "note_density": 0.1875,
    "register": "bass",
    "complexity": 0.7291666666666666
  },
  {
    "events": [
      {
        "pitch": 28,
        "duration": 0.25,
        "velocity": 95
      },
      {
        "pitch": 62,
        "duration": 0.75,
        "velocity": 120
      },
      {
        "pitch": 28,
        "duration": 0.25,
        "velocity": 105
      },
      {
        "pitch": 28,
        "duration": 0.25,
        "velocity": 98
      },
      {
        "pitch": 28,
        "duration": 0.25,
        "velocity": 100
      },
      {
        "pitch": 62,
        "duration": 1.0,
        "velocity": 120
      },
      {
        "pitch": 28,
        "duration": 0.25,
        "velocity": 98
      },
      {
        "pitch": 28,
        "duration": 0.25,
        "velocity": 105
      },
      {
        "pitch": 28,
        "duration": 0.5,
        "velocity": 100
      },
      {
        "pitch": 38,
        "duration": 0.25,
        "velocity": 90
      },
      {
        "pitch": 38,
        "duration": 4.0,
        "velocity": 86
      },
      {
        "pitch": 74,
        "duration": 0.75,
        "velocity": 120
      },
      {
        "pitch": 31,
        "duration": 4.0,
        "velocity": 71
      },
      {
        "pitch": 38,
        "duration": 0.25,
        "velocity": 93
      },
      {
        "pitch": 38,
        "duration": 0.25,
        "velocity": 105
      },
      {
        "pitch": 38,
        "duration": 0.25,
        "velocity": 98
      }
    ],
    "key": "F major",
    "tempo": 120,
    "name": "1d7ff7f2b6b4001449960fc8529ba468.mid_seg76",
    "avg_interval": 15.466666666666667,
    "span": 46,
    "note_density": 0.15625,
    "register": "bass",
    "complexity": 0.71875
  },
  {
    "events": [
      {
        "pitch": 38,
        "duration": 0.25,
        "velocity": 105
      },
      {
        "pitch": 74,
        "duration": 0.75,
        "velocity": 120
      },
      {
        "pitch": 38,
        "duration": 0.25,
        "velocity": 90
      },
      {
        "pitch": 38,
        "duration": 0.25,
        "velocity": 100
      },
      {
        "pitch": 70,
        "duration": 0.25,
        "velocity": 120
      },
      {
        "pitch": 71,
        "duration": 0.5,
        "velocity": 120
      },
      {
        "pitch": 38,
        "duration": 0.25,
        "velocity": 70
      },
      {
        "pitch": 50,
        "duration": 0.5,
        "velocity": 86
      },
      {
        "pitch": 74,
        "duration": 0.5,
        "velocity": 120
      },
      {
        "pitch": 38,
        "duration": 0.25,
        "velocity": 100
      },
      {
        "pitch": 52,
        "duration": 0.5,
        "velocity": 86
      },
      {
        "pitch": 38,
        "duration": 3.6666666666666665,
        "velocity": 86
      },
      {
        "pitch": 31,
        "duration": 4.0,
        "velocity": 71
      },
      {
        "pitch": 38,
        "duration": 0.25,
        "velocity": 90
      },
      {
        "pitch": 50,
        "duration": 0.5,
        "velocity": 86
      },
      {
        "pitch": 84,
        "duration": 3.5,
        "velocity": 120
      }
    ],
    "key": "F major",
    "tempo": 120,
    "name": "1d7ff7f2b6b4001449960fc8529ba468.mid_seg77",
    "avg_interval": 19.866666666666667,
    "span": 53,
    "note_density": 0.0,
    "register": "bass",
    "complexity": 0.6666666666666666
  },
  {
    "events": [
      {
        "pitch": 38,
        "duration": 0.25,
        "velocity": 104
      },
      {
        "pitch": 74,
        "duration": 1.5,
        "velocity": 124
      },
      {
        "pitch": 57,
        "duration": 0.5,
        "velocity": 86
      },
      {
        "pitch": 38,
        "duration": 0.25,
        "velocity": 105
      },
      {
        "pitch": 50,
        "duration": 2.5,
        "velocity": 86
      },
      {
        "pitch": 38,
        "duration": 0.25,
        "velocity": 104
      },
      {
        "pitch": 38,
        "duration": 0.25,
        "velocity": 105
      },
      {
        "pitch": 72,
        "duration": 0.25,
        "velocity": 124
      },
      {
        "pitch": 38,
        "duration": 0.5,
        "velocity": 100
      },
      {
        "pitch": 72,
        "duration": 0.5,
        "velocity": 124
      },
      {
        "pitch": 35,
        "duration": 0.5,
        "velocity": 95
      },
      {
        "pitch": 71,
        "duration": 0.5,
        "velocity": 124
      },
      {
        "pitch": 31,
        "duration": 0.25,
        "velocity": 105
      },
      {
        "pitch": 71,
        "duration": 0.25,
        "velocity": 124
      },
      {
        "pitch": 43,
        "duration": 4.0,
        "velocity": 86
      },
      {
        "pitch": 84,
        "duration": 0.16666666666666666,
        "velocity": 120
      }
    ],
    "key": "F major",
    "tempo": 120,
    "name": "1d7ff7f2b6b4001449960fc8529ba468.mid_seg78",
    "avg_interval": 28.0,
    "span": 53,
    "note_density": 0.22395833333333337,
    "register": "bass",
    "complexity": 0.7413194444444445
  },
  {
    "events": [
      {
        "pitch": 31,
        "duration": 4.0,
        "velocity": 71
      },
      {
        "pitch": 31,
        "duration": 0.25,
        "velocity": 95
      },
      {
        "pitch": 31,
        "duration": 0.25,
        "velocity": 105
      },
      {
        "pitch": 31,
        "duration": 0.25,
        "velocity": 85
      },
      {
        "pitch": 31,
        "duration": 0.25,
        "velocity": 104
      },
      {
        "pitch": 31,
        "duration": 0.25,
        "velocity": 104
      },
      {
        "pitch": 69,
        "duration": 1.5,
        "velocity": 109
      },
      {
        "pitch": 31,
        "duration": 0.25,
        "velocity": 100
      },
      {
        "pitch": 31,
        "duration": 0.25,
        "velocity": 98
      },
      {
        "pitch": 31,
        "duration": 0.25,
        "velocity": 105
      },
      {
        "pitch": 43,
        "duration": 3.75,
        "velocity": 86
      },
      {
        "pitch": 40,
        "duration": 4.0,
        "velocity": 71
      },
      {
        "pitch": 31,
        "duration": 0.25,
        "velocity": 100
      },
      {
        "pitch": 31,
        "duration": 0.25,
        "velocity": 105
      },
      {
        "pitch": 31,
        "duration": 0.25,
        "velocity": 100
      },
      {
        "pitch": 31,
        "duration": 0.25,
        "velocity": 98
      }
    ],
    "key": "F major",
    "tempo": 120,
    "name": "1d7ff7f2b6b4001449960fc8529ba468.mid_seg79",
    "avg_interval": 6.666666666666667,
    "span": 38,
    "note_density": 0.0,
    "register": "bass",
    "complexity": 0.5185185185185185
  },
  {
    "events": [
      {
        "pitch": 69,
        "duration": 0.25,
        "velocity": 124
      },
      {
        "pitch": 31,
        "duration": 0.25,
        "velocity": 95
      },
      {
        "pitch": 69,
        "duration": 0.25,
        "velocity": 121
      },
      {
        "pitch": 31,
        "duration": 0.25,
        "velocity": 104
      },
      {
        "pitch": 69,
        "duration": 0.75,
        "velocity": 124
      },
      {
        "pitch": 31,
        "duration": 0.25,
        "velocity": 87
      },
      {
        "pitch": 31,
        "duration": 0.25,
        "velocity": 104
      },
      {
        "pitch": 69,
        "duration": 1.0,
        "velocity": 124
      },
      {
        "pitch": 43,
        "duration": 4.0,
        "velocity": 86
      },
      {
        "pitch": 40,
        "duration": 4.0,
        "velocity": 71
      },
      {
        "pitch": 31,
        "duration": 0.25,
        "velocity": 95
      },
      {
        "pitch": 31,
        "duration": 0.25,
        "velocity": 105
      },
      {
        "pitch": 67,
        "duration": 0.25,
        "velocity": 106
      },
      {
        "pitch": 31,
        "duration": 0.25,
        "velocity": 98
      },
      {
        "pitch": 67,
        "duration": 1.0,
        "velocity": 124
      },
      {
        "pitch": 31,
        "duration": 0.25,
        "velocity": 105
      }
    ],
    "key": "F major",
    "tempo": 120,
    "name": "1d7ff7f2b6b4001449960fc8529ba468.mid_seg80",
    "avg_interval": 27.333333333333332,
    "span": 38,
    "note_density": 0.15625,
    "register": "bass",
    "complexity": 0.71875
  },
  {
    "events": [
      {
        "pitch": 31,
        "duration": 0.25,
        "velocity": 105
      },
      {
        "pitch": 31,
        "duration": 0.25,
        "velocity": 105
      },
      {
        "pitch": 31,
        "duration": 0.25,
        "velocity": 104
      },
      {
        "pitch": 31,
        "duration": 0.25,
        "velocity": 105
      },
      {
        "pitch": 43,
        "duration": 3.6666666666666665,
        "velocity": 86
      },
      {
        "pitch": 38,
        "duration": 4.0,
        "velocity": 71
      },
      {
        "pitch": 31,
        "duration": 0.25,
        "velocity": 104
      },
      {
        "pitch": 31,
        "duration": 0.25,
        "velocity": 105
      },
      {
        "pitch": 31,
        "duration": 0.25,
        "velocity": 105
      },
      {
        "pitch": 31,
        "duration": 0.25,
        "velocity": 105
      },
      {
        "pitch": 69,
        "duration": 0.25,
        "velocity": 124
      },
      {
        "pitch": 31,
        "duration": 0.5,
        "velocity": 98
      },
      {
        "pitch": 69,
        "duration": 0.25,
        "velocity": 124
      },
      {
        "pitch": 35,
        "duration": 0.5,
        "velocity": 105
      },
      {
        "pitch": 69,
        "duration": 0.75,
        "velocity": 124
      },
      {
        "pitch": 38,
        "duration": 0.5,
        "velocity": 95
      }
    ],
    "key": "F major",
    "tempo": 120,
    "name": "1d7ff7f2b6b4001449960fc8529ba468.mid_seg81",
    "avg_interval": 15.8,
    "span": 38,
    "note_density": 0.22395833333333337,
    "register": "bass",
    "complexity": 0.7413194444444445
  },
  {
    "events": [
      {
        "pitch": 40,
        "duration": 0.25,
        "velocity": 100
      },
      {
        "pitch": 69,
        "duration": 1.0,
        "velocity": 124
      },
      {
        "pitch": 40,
        "duration": 4.0,
        "velocity": 86
      },
      {
        "pitch": 38,
        "duration": 4.0,
        "velocity": 71
      },
      {
        "pitch": 40,
        "duration": 0.25,
        "velocity": 104
      },
      {
        "pitch": 40,
        "duration": 0.25,
        "velocity": 105
      },
      {
        "pitch": 67,
        "duration": 0.25,
        "velocity": 118
      },
      {
        "pitch": 40,
        "duration": 0.25,
        "velocity": 95
      },
      {
        "pitch": 67,
        "duration": 1.0,
        "velocity": 124
      },
      {
        "pitch": 40,
        "duration": 0.25,
        "velocity": 105
      },
      {
        "pitch": 40,
        "duration": 0.25,
        "velocity": 105
      },
      {
        "pitch": 40,
        "duration": 0.25,
        "velocity": 100
      },
      {
        "pitch": 40,
        "duration": 0.25,
        "velocity": 98
      },
      {
        "pitch": 40,
        "duration": 0.25,
        "velocity": 104
      },
      {
        "pitch": 40,
        "duration": 3.6666666666666665,
        "velocity": 86
      },
      {
        "pitch": 43,
        "duration": 4.0,
        "velocity": 71
      }
    ],
    "key": "F major",
    "tempo": 120,
    "name": "1d7ff7f2b6b4001449960fc8529ba468.mid_seg82",
    "avg_interval": 11.533333333333333,
    "span": 31,
    "note_density": 0.0,
    "register": "bass",
    "complexity": 0.6537037037037038
  },
  {
    "events": [
      {
        "pitch": 40,
        "duration": 0.25,
        "velocity": 98
      },
      {
        "pitch": 40,
        "duration": 0.25,
        "velocity": 105
      },
      {
        "pitch": 40,
        "duration": 0.25,
        "velocity": 105
      },
      {
        "pitch": 40,
        "duration": 0.25,
        "velocity": 100
      },
      {
        "pitch": 67,
        "duration": 0.5,
        "velocity": 116
      },
      {
        "pitch": 40,
        "duration": 0.25,
        "velocity": 90
      },
      {
        "pitch": 67,
        "duration": 0.5,
        "velocity": 124
      },
      {
        "pitch": 40,
        "duration": 0.25,
        "velocity": 105
      },
      {
        "pitch": 67,
        "duration": 0.5,
        "velocity": 124
      },
      {
        "pitch": 40,
        "duration": 0.5,
        "velocity": 100
      },
      {
        "pitch": 67,
        "duration": 0.5,
        "velocity": 124
      },
      {
        "pitch": 38,
        "duration": 0.25,
        "velocity": 100
      },
      {
        "pitch": 67,
        "duration": 0.5,
        "velocity": 124
      },
      {
        "pitch": 38,
        "duration": 4.0,
        "velocity": 86
      },
      {
        "pitch": 43,
        "duration": 4.0,
        "velocity": 71
      },
      {
        "pitch": 38,
        "duration": 0.25,
        "velocity": 90
      }
    ],
    "key": "F major",
    "tempo": 120,
    "name": "1d7ff7f2b6b4001449960fc8529ba468.mid_seg83",
    "avg_interval": 19.066666666666666,
    "span": 29,
    "note_density": 0.1875,
    "register": "bass",
    "complexity": 0.7291666666666666
  },
  {
    "events": [
      {
        "pitch": 62,
        "duration": 0.5,
        "velocity": 124
      },
      {
        "pitch": 38,
        "duration": 0.25,
        "velocity": 100
      },
      {
        "pitch": 62,
        "duration": 0.5,
        "velocity": 113
      },
      {
        "pitch": 38,
        "duration": 0.25,
        "velocity": 85
      },
      {
        "pitch": 38,
        "duration": 0.25,
        "velocity": 95
      },
      {
        "pitch": 62,
        "duration": 1.25,
        "velocity": 124
      },
      {
        "pitch": 38,
        "duration": 0.25,
        "velocity": 83
      },
      {
        "pitch": 38,
        "duration": 0.25,
        "velocity": 100
      },
      {
        "pitch": 38,
        "duration": 0.25,
        "velocity": 90
      },
      {
        "pitch": 50,
        "duration": 0.5,
        "velocity": 86
      },
      {
        "pitch": 38,
        "duration": 0.25,
        "velocity": 93
      },
      {
        "pitch": 52,
        "duration": 0.5,
        "velocity": 86
      },
      {
        "pitch": 38,
        "duration": 4.0,
        "velocity": 86
      },
      {
        "pitch": 43,
        "duration": 4.0,
        "velocity": 71
      },
      {
        "pitch": 38,
        "duration": 0.25,
        "velocity": 98
      },
      {
        "pitch": 50,
        "duration": 0.5,
        "velocity": 86
      }
    ],
    "key": "F major",
    "tempo": 120,
    "name": "1d7ff7f2b6b4001449960fc8529ba468.mid_seg84",
    "avg_interval": 12.933333333333334,
    "span": 24,
    "note_density": 0.140625,
    "register": "bass",
    "complexity": 0.7135416666666666
  },
  {
    "events": [
      {
        "pitch": 38,
        "duration": 0.25,
        "velocity": 104
      },
      {
        "pitch": 57,
        "duration": 0.5,
        "velocity": 86
      },
      {
        "pitch": 38,
        "duration": 0.25,
        "velocity": 105
      },
      {
        "pitch": 62,
        "duration": 0.5,
        "velocity": 124
      },
      {
        "pitch": 50,
        "duration": 2.5,
        "velocity": 86
      },
      {
        "pitch": 38,
        "duration": 0.25,
        "velocity": 105
      },
      {
        "pitch": 72,
        "duration": 0.25,
        "velocity": 124
      },
      {
        "pitch": 38,
        "duration": 0.25,
        "velocity": 105
      },
      {
        "pitch": 72,
        "duration": 0.25,
        "velocity": 124
      },
      {
        "pitch": 38,
        "duration": 0.25,
        "velocity": 105
      },
      {
        "pitch": 72,
        "duration": 0.5,
        "velocity": 124
      },
      {
        "pitch": 38,
        "duration": 0.5,
        "velocity": 105
      },
      {
        "pitch": 71,
        "duration": 0.5,
        "velocity": 124
      },
      {
        "pitch": 31,
        "duration": 0.25,
        "velocity": 105
      },
      {
        "pitch": 71,
        "duration": 0.75,
        "velocity": 124
      },
      {
        "pitch": 43,
        "duration": 4.0,
        "velocity": 86
      }
    ],
    "key": "F major",
    "tempo": 120,
    "name": "1d7ff7f2b6b4001449960fc8529ba468.mid_seg85",
    "avg_interval": 28.733333333333334,
    "span": 41,
    "note_density": 0.265625,
    "register": "bass",
    "complexity": 0.7552083333333334
  },
  {
    "events": [
      {
        "pitch": 43,
        "duration": 4.0,
        "velocity": 71
      },
      {
        "pitch": 31,
        "duration": 0.25,
        "velocity": 104
      },
      {
        "pitch": 31,
        "duration": 0.25,
        "velocity": 105
      },
      {
        "pitch": 31,
        "duration": 0.25,
        "velocity": 105
      },
      {
        "pitch": 31,
        "duration": 0.25,
        "velocity": 105
      },
      {
        "pitch": 31,
        "duration": 0.25,
        "velocity": 100
      },
      {
        "pitch": 69,
        "duration": 1.5,
        "velocity": 109
      },
      {
        "pitch": 31,
        "duration": 0.25,
        "velocity": 105
      },
      {
        "pitch": 31,
        "duration": 0.25,
        "velocity": 98
      },
      {
        "pitch": 31,
        "duration": 0.25,
        "velocity": 105
      },
      {
        "pitch": 43,
        "duration": 3.75,
        "velocity": 86
      },
      {
        "pitch": 40,
        "duration": 4.0,
        "velocity": 71
      },
      {
        "pitch": 31,
        "duration": 0.25,
        "velocity": 90
      },
      {
        "pitch": 31,
        "duration": 0.25,
        "velocity": 100
      },
      {
        "pitch": 31,
        "duration": 0.25,
        "velocity": 100
      },
      {
        "pitch": 69,
        "duration": 0.25,
        "velocity": 121
      }
    ],
    "key": "F major",
    "tempo": 120,
    "name": "1d7ff7f2b6b4001449960fc8529ba468.mid_seg86",
    "avg_interval": 10.0,
    "span": 38,
    "note_density": 0.0,
    "register": "bass",
    "complexity": 0.6111111111111112
  },
  {
    "events": [
      {
        "pitch": 31,
        "duration": 0.25,
        "velocity": 105
      },
      {
        "pitch": 69,
        "duration": 0.25,
        "velocity": 124
      },
      {
        "pitch": 31,
        "duration": 0.25,
        "velocity": 98
      },
      {
        "pitch": 69,
        "duration": 0.25,
        "velocity": 115
      },
      {
        "pitch": 31,
        "duration": 0.25,
        "velocity": 105
      },
      {
        "pitch": 69,
        "duration": 0.25,
        "velocity": 124
      },
      {
        "pitch": 31,
        "duration": 0.25,
        "velocity": 104
      },
      {
        "pitch": 69,
        "duration": 0.25,
        "velocity": 124
      },
      {
        "pitch": 31,
        "duration": 0.25,
        "velocity": 105
      },
      {
        "pitch": 69,
        "duration": 1.0,
        "velocity": 124
      },
      {
        "pitch": 43,
        "duration": 4.0,
        "velocity": 86
      },
      {
        "pitch": 40,
        "duration": 4.0,
        "velocity": 71
      },
      {
        "pitch": 31,
        "duration": 0.25,
        "velocity": 100
      },
      {
        "pitch": 31,
        "duration": 0.25,
        "velocity": 105
      },
      {
        "pitch": 67,
        "duration": 0.25,
        "velocity": 117
      },
      {
        "pitch": 31,
        "duration": 0.25,
        "velocity": 104
      }
    ],
    "key": "F major",
    "tempo": 120,
    "name": "1d7ff7f2b6b4001449960fc8529ba468.mid_seg87",
    "avg_interval": 30.133333333333333,
    "span": 38,
    "note_density": 0.234375,
    "register": "bass",
    "complexity": 0.7447916666666666
  },
  {
    "events": [
      {
        "pitch": 67,
        "duration": 0.75,
        "velocity": 124
      },
      {
        "pitch": 31,
        "duration": 0.25,
        "velocity": 105
      },
      {
        "pitch": 31,
        "duration": 0.25,
        "velocity": 100
      },
      {
        "pitch": 31,
        "duration": 0.25,
        "velocity": 105
      },
      {
        "pitch": 31,
        "duration": 0.25,
        "velocity": 105
      },
      {
        "pitch": 31,
        "duration": 0.25,
        "velocity": 105
      },
      {
        "pitch": 43,
        "duration": 3.6666666666666665,
        "velocity": 86
      },
      {
        "pitch": 31,
        "duration": 0.25,
        "velocity": 98
      },
      {
        "pitch": 31,
        "duration": 0.25,
        "velocity": 105
      },
      {
        "pitch": 31,
        "duration": 0.25,
        "velocity": 105
      },
      {
        "pitch": 31,
        "duration": 0.25,
        "velocity": 105
      },
      {
        "pitch": 71,
        "duration": 0.5,
        "velocity": 124
      },
      {
        "pitch": 31,
        "duration": 0.5,
        "velocity": 104
      },
      {
        "pitch": 69,
        "duration": 0.5,
        "velocity": 124
      },
      {
        "pitch": 35,
        "duration": 0.5,
        "velocity": 105
      },
      {
        "pitch": 67,
        "duration": 0.5,
        "velocity": 124
      }
    ],
    "key": "F major",
    "tempo": 120,
    "name": "1d7ff7f2b6b4001449960fc8529ba468.mid_seg88",
    "avg_interval": 16.266666666666666,
    "span": 40,
    "note_density": 0.42708333333333337,
    "register": "bass",
    "complexity": 0.8090277777777778
  },
  {
    "events": [
      {
        "pitch": 38,
        "duration": 0.5,
        "velocity": 87
      },
      {
        "pitch": 67,
        "duration": 0.5,
        "velocity": 124
      },
      {
        "pitch": 28,
        "duration": 0.25,
        "velocity": 105
      },
      {
        "pitch": 67,
        "duration": 0.5,
        "velocity": 124
      },
      {
        "pitch": 40,
        "duration": 4.0,
        "velocity": 86
      },
      {
        "pitch": 28,
        "duration": 0.25,
        "velocity": 105
      },
      {
        "pitch": 28,
        "duration": 0.25,
        "velocity": 105
      },
      {
        "pitch": 28,
        "duration": 0.25,
        "velocity": 104
      },
      {
        "pitch": 28,
        "duration": 0.25,
        "velocity": 105
      },
      {
        "pitch": 28,
        "duration": 0.25,
        "velocity": 95
      },
      {
        "pitch": 28,
        "duration": 0.25,
        "velocity": 105
      },
      {
        "pitch": 28,
        "duration": 0.25,
        "velocity": 98
      },
      {
        "pitch": 28,
        "duration": 0.25,
        "velocity": 105
      },
      {
        "pitch": 40,
        "duration": 3.75,
        "velocity": 86
      },
      {
        "pitch": 28,
        "duration": 0.25,
        "velocity": 104
      },
      {
        "pitch": 28,
        "duration": 0.25,
        "velocity": 105
      }
    ],
    "key": "F major",
    "tempo": 120,
    "name": "1d7ff7f2b6b4001449960fc8529ba468.mid_seg89",
    "avg_interval": 11.333333333333334,
    "span": 39,
    "note_density": 0.25,
    "register": "bass",
    "complexity": 0.7314814814814815
  },
  {
    "events": [
      {
        "pitch": 28,
        "duration": 0.25,
        "velocity": 100
      },
      {
        "pitch": 28,
        "duration": 0.25,
        "velocity": 105
      },
      {
        "pitch": 67,
        "duration": 0.5,
        "velocity": 124
      },
      {
        "pitch": 28,
        "duration": 0.25,
        "velocity": 105
      },
      {
        "pitch": 67,
        "duration": 0.5,
        "velocity": 120
      },
      {
        "pitch": 28,
        "duration": 0.5,
        "velocity": 105
      },
      {
        "pitch": 67,
        "duration": 0.5,
        "velocity": 124
      },
      {
        "pitch": 40,
        "duration": 0.5,
        "velocity": 105
      },
      {
        "pitch": 67,
        "duration": 0.5,
        "velocity": 119
      },
      {
        "pitch": 43,
        "duration": 4.0,
        "velocity": 71
      },
      {
        "pitch": 38,
        "duration": 0.25,
        "velocity": 104
      },
      {
        "pitch": 67,
        "duration": 0.5,
        "velocity": 124
      },
      {
        "pitch": 38,
        "duration": 4.0,
        "velocity": 86
      },
      {
        "pitch": 38,
        "duration": 0.25,
        "velocity": 95
      },
      {
        "pitch": 62,
        "duration": 0.75,
        "velocity": 124
      },
      {
        "pitch": 38,
        "duration": 0.25,
        "velocity": 105
      }
    ],
    "key": "F major",
    "tempo": 120,
    "name": "1d7ff7f2b6b4001449960fc8529ba468.mid_seg90",
    "avg_interval": 25.6,
    "span": 39,
    "note_density": 0.140625,
    "register": "bass",
    "complexity": 0.7135416666666666
  },
  {
    "events": [
      {
        "pitch": 38,
        "duration": 0.25,
        "velocity": 95
      },
      {
        "pitch": 62,
        "duration": 0.25,
        "velocity": 110
      },
      {
        "pitch": 38,
        "duration": 0.25,
        "velocity": 105
      },
      {
        "pitch": 62,
        "duration": 1.5,
        "velocity": 115
      },
      {
        "pitch": 38,
        "duration": 0.25,
        "velocity": 100
      },
      {
        "pitch": 38,
        "duration": 0.25,
        "velocity": 100
      },
      {
        "pitch": 38,
        "duration": 0.25,
        "velocity": 90
      },
      {
        "pitch": 50,
        "duration": 0.5,
        "velocity": 86
      },
      {
        "pitch": 43,
        "duration": 4.0,
        "velocity": 71
      },
      {
        "pitch": 38,
        "duration": 0.25,
        "velocity": 100
      },
      {
        "pitch": 52,
        "duration": 0.5,
        "velocity": 86
      },
      {
        "pitch": 38,
        "duration": 3.6666666666666665,
        "velocity": 86
      },
      {
        "pitch": 38,
        "duration": 0.25,
        "velocity": 93
      },
      {
        "pitch": 50,
        "duration": 0.5,
        "velocity": 86
      },
      {
        "pitch": 38,
        "duration": 0.25,
        "velocity": 104
      },
      {
        "pitch": 57,
        "duration": 0.5,
        "velocity": 86
      }
    ],
    "key": "F major",
    "tempo": 120,
    "name": "1d7ff7f2b6b4001449960fc8529ba468.mid_seg91",
    "avg_interval": 12.733333333333333,
    "span": 24,
    "note_density": 0.16145833333333337,
    "register": "bass",
    "complexity": 0.7204861111111112
  },
  {
    "events": [
      {
        "pitch": 38,
        "duration": 0.25,
        "velocity": 104
      },
      {
        "pitch": 72,
        "duration": 0.75,
        "velocity": 124
      },
      {
        "pitch": 50,
        "duration": 2.5,
        "velocity": 86
      },
      {
        "pitch": 38,
        "duration": 0.25,
        "velocity": 105
      },
      {
        "pitch": 38,
        "duration": 0.25,
        "velocity": 105
      },
      {
        "pitch": 72,
        "duration": 0.25,
        "velocity": 124
      },
      {
        "pitch": 38,
        "duration": 0.25,
        "velocity": 105
      },
      {
        "pitch": 72,
        "duration": 0.6666666666666666,
        "velocity": 124
      },
      {
        "pitch": 38,
        "duration": 0.5,
        "velocity": 105
      },
      {
        "pitch": 71,
        "duration": 0.5,
        "velocity": 120
      },
      {
        "pitch": 43,
        "duration": 4.0,
        "velocity": 71
      },
      {
        "pitch": 31,
        "duration": 4.0,
        "velocity": 105
      },
      {
        "pitch": 71,
        "duration": 4.0,
        "velocity": 120
      },
      {
        "pitch": 43,
        "duration": 4.0,
        "velocity": 86
      },
      {
        "pitch": 43,
        "duration": 4.0,
        "velocity": 71
      },
      {
        "pitch": 31,
        "duration": 3.0,
        "velocity": 105
      }
    ],
    "key": "F major",
    "tempo": 120,
    "name": "1d7ff7f2b6b4001449960fc8529ba468.mid_seg92",
    "avg_interval": 23.8,
    "span": 41,
    "note_density": 0.0,
    "register": "bass",
    "complexity": 0.6666666666666666
  },
  {
    "events": [
      {
        "pitch": 71,
        "duration": 1.75,
        "velocity": 120
      },
      {
        "pitch": 43,
        "duration": 3.0,
        "velocity": 86
      },
      {
        "pitch": 40,
        "duration": 4.0,
        "velocity": 71
      },
      {
        "pitch": 40,
        "duration": 4.0,
        "velocity": 71
      },
      {
        "pitch": 38,
        "duration": 4.0,
        "velocity": 71
      },
      {
        "pitch": 38,
        "duration": 4.0,
        "velocity": 71
      }
    ],
    "key": "F major",
    "tempo": 120,
    "name": "1d7ff7f2b6b4001449960fc8529ba468.mid_seg93",
    "avg_interval": 6.6,
    "span": 33,
    "note_density": 0.0,
    "register": "bass",
    "complexity": 0.5166666666666666
  },
  {
    "events": [
      {
        "pitch": 48,
        "duration": 0.5,
        "velocity": 63
      },
      {
        "pitch": 52,
        "duration": 0.5,
        "velocity": 72
      },
      {
        "pitch": 55,
        "duration": 0.5,
        "velocity": 70
      },
      {
        "pitch": 60,
        "duration": 0.5,
        "velocity": 69
      },
      {
        "pitch": 64,
        "duration": 0.5,
        "velocity": 71
      },
      {
        "pitch": 55,
        "duration": 0.5,
        "velocity": 66
      },
      {
        "pitch": 60,
        "duration": 0.5,
        "velocity": 67
      },
      {
        "pitch": 64,
        "duration": 0.5,
        "velocity": 69
      },
      {
        "pitch": 48,
        "duration": 0.5,
        "velocity": 66
      },
      {
        "pitch": 52,
        "duration": 0.5,
        "velocity": 73
      },
      {
        "pitch": 55,
        "duration": 0.5,
        "velocity": 72
      },
      {
        "pitch": 60,
        "duration": 0.5,
        "velocity": 65
      },
      {
        "pitch": 64,
        "duration": 0.5,
        "velocity": 69
      },
      {
        "pitch": 55,
        "duration": 0.5,
        "velocity": 66
      },
      {
        "pitch": 60,
        "duration": 0.5,
        "velocity": 67
      },
      {
        "pitch": 64,
        "duration": 0.5,
        "velocity": 70
      }
    ],
    "key": "C major",
    "tempo": 120,
    "name": "123e90585867a157fbb2c21319a8a2a4_3.mid_seg0",
    "avg_interval": 5.6,
    "span": 16,
    "note_density": 0.5,
    "register": "middle",
    "complexity": 0.5444444444444444
  },
  {
    "events": [
      {
        "pitch": 48,
        "duration": 0.5,
        "velocity": 66
      },
      {
        "pitch": 50,
        "duration": 0.5,
        "velocity": 70
      },
      {
        "pitch": 57,
        "duration": 0.5,
        "velocity": 70
      },
      {
        "pitch": 62,
        "duration": 0.5,
        "velocity": 62
      },
      {
        "pitch": 65,
        "duration": 0.5,
        "velocity": 74
      },
      {
        "pitch": 57,
        "duration": 0.5,
        "velocity": 73
      },
      {
        "pitch": 62,
        "duration": 0.5,
        "velocity": 69
      },
      {
        "pitch": 65,
        "duration": 0.5,
        "velocity": 72
      },
      {
        "pitch": 48,
        "duration": 0.5,
        "velocity": 67
      },
      {
        "pitch": 50,
        "duration": 0.5,
        "velocity": 73
      },
      {
        "pitch": 57,
        "duration": 0.5,
        "velocity": 75
      },
      {
        "pitch": 62,
        "duration": 0.5,
        "velocity": 66
      },
      {
        "pitch": 65,
        "duration": 0.5,
        "velocity": 72
      },
      {
        "pitch": 57,
        "duration": 0.5,
        "velocity": 72
      },
      {
        "pitch": 62,
        "duration": 0.5,
        "velocity": 65
      },
      {
        "pitch": 65,
        "duration": 0.5,
        "velocity": 70
      }
    ],
    "key": "C major",
    "tempo": 120,
    "name": "123e90585867a157fbb2c21319a8a2a4_3.mid_seg1",
    "avg_interval": 5.533333333333333,
    "span": 17,
    "note_density": 0.5,
    "register": "middle",
    "complexity": 0.5564814814814815
  },
  {
    "events": [
      {
        "pitch": 47,
        "duration": 0.5,
        "velocity": 73
      },
      {
        "pitch": 50,
        "duration": 0.5,
        "velocity": 70
      },
      {
        "pitch": 55,
        "duration": 0.5,
        "velocity": 75
      },
      {
        "pitch": 62,
        "duration": 0.5,
        "velocity": 65
      },
      {
        "pitch": 65,
        "duration": 0.5,
        "velocity": 71
      },
      {
        "pitch": 55,
        "duration": 0.5,
        "velocity": 71
      },
      {
        "pitch": 62,
        "duration": 0.5,
        "velocity": 64
      },
      {
        "pitch": 65,
        "duration": 0.5,
        "velocity": 73
      },
      {
        "pitch": 47,
        "duration": 0.5,
        "velocity": 76
      },
      {
        "pitch": 50,
        "duration": 0.5,
        "velocity": 73
      },
      {
        "pitch": 55,
        "duration": 0.5,
        "velocity": 66
      },
      {
        "pitch": 62,
        "duration": 0.5,
        "velocity": 71
      },
      {
        "pitch": 65,
        "duration": 0.5,
        "velocity": 73
      },
      {
        "pitch": 55,
        "duration": 0.5,
        "velocity": 71
      },
      {
        "pitch": 62,
        "duration": 0.5,
        "velocity": 67
      },
      {
        "pitch": 65,
        "duration": 0.5,
        "velocity": 68
      }
    ],
    "key": "C major",
    "tempo": 120,
    "name": "123e90585867a157fbb2c21319a8a2a4_3.mid_seg2",
    "avg_interval": 6.266666666666667,
    "span": 18,
    "note_density": 0.5,
    "register": "middle",
    "complexity": 0.5907407407407407
  },
  {
    "events": [
      {
        "pitch": 48,
        "duration": 0.5,
        "velocity": 64
      },
      {
        "pitch": 52,
        "duration": 0.5,
        "velocity": 74
      },
      {
        "pitch": 55,
        "duration": 0.5,
        "velocity": 71
      },
      {
        "pitch": 60,
        "duration": 0.5,
        "velocity": 72
      },
      {
        "pitch": 64,
        "duration": 0.5,
        "velocity": 72
      },
      {
        "pitch": 55,
        "duration": 0.5,
        "velocity": 64
      },
      {
        "pitch": 60,
        "duration": 0.5,
        "velocity": 68
      },
      {
        "pitch": 64,
        "duration": 0.5,
        "velocity": 69
      },
      {
        "pitch": 48,
        "duration": 0.5,
        "velocity": 69
      },
      {
        "pitch": 52,
        "duration": 0.5,
        "velocity": 75
      },
      {
        "pitch": 55,
        "duration": 0.5,
        "velocity": 69
      },
      {
        "pitch": 60,
        "duration": 0.5,
        "velocity": 68
      },
      {
        "pitch": 64,
        "duration": 0.5,
        "velocity": 74
      },
      {
        "pitch": 55,
        "duration": 0.5,
        "velocity": 69
      },
      {
        "pitch": 60,
        "duration": 0.5,
        "velocity": 68
      },
      {
        "pitch": 64,
        "duration": 0.5,
        "velocity": 71
      }
    ],
    "key": "C major",
    "tempo": 120,
    "name": "123e90585867a157fbb2c21319a8a2a4_3.mid_seg3",
    "avg_interval": 5.6,
    "span": 16,
    "note_density": 0.5,
    "register": "middle",
    "complexity": 0.5444444444444444
  },
  {
    "events": [
      {
        "pitch": 48,
        "duration": 0.5,
        "velocity": 66
      },
      {
        "pitch": 52,
        "duration": 0.5,
        "velocity": 75
      },
      {
        "pitch": 55,
        "duration": 0.5,
        "velocity": 70
      },
      {
        "pitch": 60,
        "duration": 0.5,
        "velocity": 71
      },
      {
        "pitch": 64,
        "duration": 0.5,
        "velocity": 67
      },
      {
        "pitch": 55,
        "duration": 0.5,
        "velocity": 67
      },
      {
        "pitch": 60,
        "duration": 0.5,
        "velocity": 73
      },
      {
        "pitch": 64,
        "duration": 0.5,
        "velocity": 71
      },
      {
        "pitch": 48,
        "duration": 0.5,
        "velocity": 64
      },
      {
        "pitch": 52,
        "duration": 0.5,
        "velocity": 78
      },
      {
        "pitch": 55,
        "duration": 0.5,
        "velocity": 71
      },
      {
        "pitch": 60,
        "duration": 0.5,
        "velocity": 68
      },
      {
        "pitch": 64,
        "duration": 0.5,
        "velocity": 73
      },
      {
        "pitch": 55,
        "duration": 0.5,
        "velocity": 67
      },
      {
        "pitch": 60,
        "duration": 0.5,
        "velocity": 72
      },
      {
        "pitch": 64,
        "duration": 0.5,
        "velocity": 66
      }
    ],
    "key": "C major",
    "tempo": 120,
    "name": "123e90585867a157fbb2c21319a8a2a4_3.mid_seg4",
    "avg_interval": 5.6,
    "span": 16,
    "note_density": 0.5,
    "register": "middle",
    "complexity": 0.5444444444444444
  },
  {
    "events": [
      {
        "pitch": 48,
        "duration": 0.5,
        "velocity": 73
      },
      {
        "pitch": 50,
        "duration": 0.5,
        "velocity": 64
      },
      {
        "pitch": 57,
        "duration": 0.5,
        "velocity": 71
      },
      {
        "pitch": 62,
        "duration": 0.5,
        "velocity": 66
      },
      {
        "pitch": 65,
        "duration": 0.5,
        "velocity": 74
      },
      {
        "pitch": 57,
        "duration": 0.5,
        "velocity": 75
      },
      {
        "pitch": 62,
        "duration": 0.5,
        "velocity": 68
      },
      {
        "pitch": 65,
        "duration": 0.5,
        "velocity": 70
      },
      {
        "pitch": 48,
        "duration": 0.5,
        "velocity": 71
      },
      {
        "pitch": 50,
        "duration": 0.5,
        "velocity": 72
      },
      {
        "pitch": 57,
        "duration": 0.5,
        "velocity": 76
      },
      {
        "pitch": 62,
        "duration": 0.5,
        "velocity": 67
      },
      {
        "pitch": 65,
        "duration": 0.5,
        "velocity": 71
      },
      {
        "pitch": 57,
        "duration": 0.5,
        "velocity": 75
      },
      {
        "pitch": 62,
        "duration": 0.5,
        "velocity": 71
      },
      {
        "pitch": 65,
        "duration": 0.5,
        "velocity": 71
      }
    ],
    "key": "C major",
    "tempo": 120,
    "name": "123e90585867a157fbb2c21319a8a2a4_3.mid_seg5",
    "avg_interval": 5.533333333333333,
    "span": 17,
    "note_density": 0.5,
    "register": "middle",
    "complexity": 0.5564814814814815
  },
  {
    "events": [
      {
        "pitch": 47,
        "duration": 0.5,
        "velocity": 73
      },
      {
        "pitch": 50,
        "duration": 0.5,
        "velocity": 73
      },
      {
        "pitch": 55,
        "duration": 0.5,
        "velocity": 74
      },
      {
        "pitch": 62,
        "duration": 0.5,
        "velocity": 66
      },
      {
        "pitch": 65,
        "duration": 0.5,
        "velocity": 71
      },
      {
        "pitch": 55,
        "duration": 0.5,
        "velocity": 74
      },
      {
        "pitch": 62,
        "duration": 0.5,
        "velocity": 69
      },
      {
        "pitch": 65,
        "duration": 0.5,
        "velocity": 73
      },
      {
        "pitch": 47,
        "duration": 0.5,
        "velocity": 72
      },
      {
        "pitch": 50,
        "duration": 0.5,
        "velocity": 71
      },
      {
        "pitch": 55,
        "duration": 0.5,
        "velocity": 72
      },
      {
        "pitch": 62,
        "duration": 0.5,
        "velocity": 70
      },
      {
        "pitch": 65,
        "duration": 0.5,
        "velocity": 72
      },
      {
        "pitch": 55,
        "duration": 0.5,
        "velocity": 61
      },
      {
        "pitch": 62,
        "duration": 0.5,
        "velocity": 73
      },
      {
        "pitch": 65,
        "duration": 0.5,
        "velocity": 69
      }
    ],
    "key": "C major",
    "tempo": 120,
    "name": "123e90585867a157fbb2c21319a8a2a4_3.mid_seg6",
    "avg_interval": 6.266666666666667,
    "span": 18,
    "note_density": 0.5,
    "register": "middle",
    "complexity": 0.5907407407407407
  },
  {
    "events": [
      {
        "pitch": 48,
        "duration": 0.5,
        "velocity": 74
      },
      {
        "pitch": 52,
        "duration": 0.5,
        "velocity": 76
      },
      {
        "pitch": 55,
        "duration": 0.5,
        "velocity": 69
      },
      {
        "pitch": 60,
        "duration": 0.5,
        "velocity": 71
      },
      {
        "pitch": 64,
        "duration": 0.5,
        "velocity": 71
      },
      {
        "pitch": 55,
        "duration": 0.5,
        "velocity": 72
      },
      {
        "pitch": 60,
        "duration": 0.5,
        "velocity": 68
      },
      {
        "pitch": 64,
        "duration": 0.5,
        "velocity": 70
      },
      {
        "pitch": 48,
        "duration": 0.5,
        "velocity": 71
      },
      {
        "pitch": 52,
        "duration": 0.5,
        "velocity": 74
      },
      {
        "pitch": 55,
        "duration": 0.5,
        "velocity": 70
      },
      {
        "pitch": 60,
        "duration": 0.5,
        "velocity": 69
      },
      {
        "pitch": 64,
        "duration": 0.5,
        "velocity": 73
      },
      {
        "pitch": 55,
        "duration": 0.5,
        "velocity": 68
      },
      {
        "pitch": 60,
        "duration": 0.5,
        "velocity": 70
      },
      {
        "pitch": 64,
        "duration": 0.5,
        "velocity": 70
      }
    ],
    "key": "C major",
    "tempo": 120,
    "name": "123e90585867a157fbb2c21319a8a2a4_3.mid_seg7",
    "avg_interval": 5.6,
    "span": 16,
    "note_density": 0.5,
    "register": "middle",
    "complexity": 0.5444444444444444
  },
  {
    "events": [
      {
        "pitch": 48,
        "duration": 0.5,
        "velocity": 71
      },
      {
        "pitch": 52,
        "duration": 0.5,
        "velocity": 78
      },
      {
        "pitch": 57,
        "duration": 0.5,
        "velocity": 72
      },
      {
        "pitch": 64,
        "duration": 0.5,
        "velocity": 61
      },
      {
        "pitch": 69,
        "duration": 0.5,
        "velocity": 72
      },
      {
        "pitch": 57,
        "duration": 0.6666666666666666,
        "velocity": 71
      },
      {
        "pitch": 64,
        "duration": 0.5,
        "velocity": 76
      },
      {
        "pitch": 69,
        "duration": 0.5,
        "velocity": 72
      },
      {
        "pitch": 48,
        "duration": 0.5,
        "velocity": 71
      },
      {
        "pitch": 52,
        "duration": 0.5,
        "velocity": 75
      },
      {
        "pitch": 57,
        "duration": 0.5,
        "velocity": 75
      },
      {
        "pitch": 69,
        "duration": 3.0,
        "velocity": 64
      },
      {
        "pitch": 64,
        "duration": 0.5,
        "velocity": 66
      },
      {
        "pitch": 69,
        "duration": 0.5,
        "velocity": 59
      },
      {
        "pitch": 57,
        "duration": 0.5,
        "velocity": 73
      },
      {
        "pitch": 64,
        "duration": 0.5,
        "velocity": 69
      }
    ],
    "key": "C major",
    "tempo": 120,
    "name": "123e90585867a157fbb2c21319a8a2a4_3.mid_seg8",
    "avg_interval": 7.733333333333333,
    "span": 21,
    "note_density": 0.33333333333333337,
    "register": "middle",
    "complexity": 0.6175925925925926
  },
  {
    "events": [
      {
        "pitch": 69,
        "duration": 0.5,
        "velocity": 66
      },
      {
        "pitch": 48,
        "duration": 0.5,
        "velocity": 71
      },
      {
        "pitch": 50,
        "duration": 0.5,
        "velocity": 75
      },
      {
        "pitch": 54,
        "duration": 0.5,
        "velocity": 78
      },
      {
        "pitch": 57,
        "duration": 0.5,
        "velocity": 70
      },
      {
        "pitch": 62,
        "duration": 0.5,
        "velocity": 74
      },
      {
        "pitch": 54,
        "duration": 0.5,
        "velocity": 74
      },
      {
        "pitch": 57,
        "duration": 0.5,
        "velocity": 71
      },
      {
        "pitch": 48,
        "duration": 0.5,
        "velocity": 71
      },
      {
        "pitch": 50,
        "duration": 0.5,
        "velocity": 72
      },
      {
        "pitch": 54,
        "duration": 0.5,
        "velocity": 73
      },
      {
        "pitch": 57,
        "duration": 0.5,
        "velocity": 71
      },
      {
        "pitch": 62,
        "duration": 0.5,
        "velocity": 69
      },
      {
        "pitch": 54,
        "duration": 0.5,
        "velocity": 74
      },
      {
        "pitch": 57,
        "duration": 0.5,
        "velocity": 75
      },
      {
        "pitch": 62,
        "duration": 0.5,
        "velocity": 63
      }
    ],
    "key": "C major",
    "tempo": 120,
    "name": "123e90585867a157fbb2c21319a8a2a4_3.mid_seg9",
    "avg_interval": 5.666666666666667,
    "span": 21,
    "note_density": 0.5,
    "register": "middle",
    "complexity": 0.6157407407407408
  },
  {
    "events": [
      {
        "pitch": 47,
        "duration": 0.5,
        "velocity": 73
      },
      {
        "pitch": 50,
        "duration": 0.5,
        "velocity": 74
      },
      {
        "pitch": 55,
        "duration": 0.5,
        "velocity": 69
      },
      {
        "pitch": 62,
        "duration": 0.5,
        "velocity": 68
      },
      {
        "pitch": 67,
        "duration": 0.5,
        "velocity": 72
      },
      {
        "pitch": 55,
        "duration": 0.5,
        "velocity": 66
      },
      {
        "pitch": 62,
        "duration": 0.5,
        "velocity": 68
      },
      {
        "pitch": 67,
        "duration": 0.5,
        "velocity": 76
      },
      {
        "pitch": 47,
        "duration": 0.5,
        "velocity": 71
      },
      {
        "pitch": 50,
        "duration": 0.5,
        "velocity": 74
      },
      {
        "pitch": 55,
        "duration": 0.5,
        "velocity": 71
      },
      {
        "pitch": 62,
        "duration": 0.5,
        "velocity": 70
      },
      {
        "pitch": 67,
        "duration": 0.5,
        "velocity": 70
      },
      {
        "pitch": 55,
        "duration": 0.5,
        "velocity": 71
      },
      {
        "pitch": 62,
        "duration": 0.5,
        "velocity": 73
      },
      {
        "pitch": 67,
        "duration": 0.5,
        "velocity": 73
      }
    ],
    "key": "C major",
    "tempo": 120,
    "name": "123e90585867a157fbb2c21319a8a2a4_3.mid_seg10",
    "avg_interval": 7.2,
    "span": 20,
    "note_density": 0.5,
    "register": "middle",
    "complexity": 0.6444444444444445
  },
  {
    "events": [
      {
        "pitch": 47,
        "duration": 0.5,
        "velocity": 63
      },
      {
        "pitch": 48,
        "duration": 0.5,
        "velocity": 72
      },
      {
        "pitch": 52,
        "duration": 0.5,
        "velocity": 70
      },
      {
        "pitch": 55,
        "duration": 0.5,
        "velocity": 69
      },
      {
        "pitch": 60,
        "duration": 0.5,
        "velocity": 71
      },
      {
        "pitch": 52,
        "duration": 0.5,
        "velocity": 66
      },
      {
        "pitch": 55,
        "duration": 0.5,
        "velocity": 67
      },
      {
        "pitch": 47,
        "duration": 0.5,
        "velocity": 66
      },
      {
        "pitch": 48,
        "duration": 0.5,
        "velocity": 73
      },
      {
        "pitch": 52,
        "duration": 0.5,
        "velocity": 72
      },
      {
        "pitch": 55,
        "duration": 0.5,
        "velocity": 65
      },
      {
        "pitch": 60,
        "duration": 0.5,
        "velocity": 69
      },
      {
        "pitch": 52,
        "duration": 0.5,
        "velocity": 66
      },
      {
        "pitch": 55,
        "duration": 0.5,
        "velocity": 67
      },
      {
        "pitch": 60,
        "duration": 0.5,
        "velocity": 70
      },
      {
        "pitch": 45,
        "duration": 0.5,
        "velocity": 66
      }
    ],
    "key": "C major",
    "tempo": 120,
    "name": "123e90585867a157fbb2c21319a8a2a4_3.mid_seg11",
    "avg_interval": 5.066666666666666,
    "span": 15,
    "note_density": 0.5,
    "register": "bass",
    "complexity": 0.5157407407407407
  },
  {
    "events": [
      {
        "pitch": 48,
        "duration": 0.5,
        "velocity": 70
      },
      {
        "pitch": 52,
        "duration": 0.5,
        "velocity": 70
      },
      {
        "pitch": 55,
        "duration": 0.5,
        "velocity": 62
      },
      {
        "pitch": 60,
        "duration": 0.5,
        "velocity": 74
      },
      {
        "pitch": 52,
        "duration": 0.5,
        "velocity": 73
      },
      {
        "pitch": 55,
        "duration": 0.5,
        "velocity": 69
      },
      {
        "pitch": 60,
        "duration": 0.5,
        "velocity": 72
      },
      {
        "pitch": 45,
        "duration": 0.5,
        "velocity": 67
      },
      {
        "pitch": 48,
        "duration": 0.5,
        "velocity": 73
      },
      {
        "pitch": 52,
        "duration": 0.5,
        "velocity": 75
      },
      {
        "pitch": 55,
        "duration": 0.5,
        "velocity": 66
      },
      {
        "pitch": 60,
        "duration": 0.5,
        "velocity": 72
      },
      {
        "pitch": 52,
        "duration": 0.5,
        "velocity": 72
      },
      {
        "pitch": 55,
        "duration": 0.5,
        "velocity": 65
      },
      {
        "pitch": 60,
        "duration": 0.5,
        "velocity": 70
      },
      {
        "pitch": 50,
        "duration": 0.5,
        "velocity": 73
      }
    ],
    "key": "C major",
    "tempo": 120,
    "name": "123e90585867a157fbb2c21319a8a2a4_3.mid_seg12",
    "avg_interval": 5.6,
    "span": 15,
    "note_density": 0.5,
    "register": "bass",
    "complexity": 0.5305555555555556
  },
  {
    "events": [
      {
        "pitch": 57,
        "duration": 0.5,
        "velocity": 70
      },
      {
        "pitch": 62,
        "duration": 0.5,
        "velocity": 75
      },
      {
        "pitch": 66,
        "duration": 0.5,
        "velocity": 65
      },
      {
        "pitch": 72,
        "duration": 0.5,
        "velocity": 63
      },
      {
        "pitch": 62,
        "duration": 0.5,
        "velocity": 71
      },
      {
        "pitch": 66,
        "duration": 0.5,
        "velocity": 64
      },
      {
        "pitch": 72,
        "duration": 0.5,
        "velocity": 66
      },
      {
        "pitch": 66,
        "duration": 4.0,
        "velocity": 64
      },
      {
        "pitch": 50,
        "duration": 0.5,
        "velocity": 76
      },
      {
        "pitch": 57,
        "duration": 0.5,
        "velocity": 73
      },
      {
        "pitch": 62,
        "duration": 0.5,
        "velocity": 66
      },
      {
        "pitch": 66,
        "duration": 0.5,
        "velocity": 71
      },
      {
        "pitch": 72,
        "duration": 0.5,
        "velocity": 66
      },
      {
        "pitch": 62,
        "duration": 0.5,
        "velocity": 71
      },
      {
        "pitch": 66,
        "duration": 0.5,
        "velocity": 67
      },
      {
        "pitch": 72,
        "duration": 0.5,
        "velocity": 64
      }
    ],
    "key": "C major",
    "tempo": 120,
    "name": "123e90585867a157fbb2c21319a8a2a4_3.mid_seg13",
    "avg_interval": 6.6,
    "span": 22,
    "note_density": 0.28125,
    "register": "middle",
    "complexity": 0.5826388888888888
  },
  {
    "events": [
      {
        "pitch": 55,
        "duration": 0.5,
        "velocity": 64
      },
      {
        "pitch": 59,
        "duration": 0.5,
        "velocity": 74
      },
      {
        "pitch": 62,
        "duration": 0.5,
        "velocity": 71
      },
      {
        "pitch": 67,
        "duration": 0.5,
        "velocity": 72
      },
      {
        "pitch": 71,
        "duration": 0.5,
        "velocity": 66
      },
      {
        "pitch": 62,
        "duration": 0.5,
        "velocity": 64
      },
      {
        "pitch": 67,
        "duration": 0.5,
        "velocity": 68
      },
      {
        "pitch": 71,
        "duration": 0.5,
        "velocity": 58
      },
      {
        "pitch": 55,
        "duration": 0.5,
        "velocity": 69
      },
      {
        "pitch": 59,
        "duration": 0.5,
        "velocity": 75
      },
      {
        "pitch": 62,
        "duration": 0.5,
        "velocity": 69
      },
      {
        "pitch": 67,
        "duration": 0.5,
        "velocity": 68
      },
      {
        "pitch": 71,
        "duration": 0.5,
        "velocity": 64
      },
      {
        "pitch": 62,
        "duration": 0.5,
        "velocity": 69
      },
      {
        "pitch": 67,
        "duration": 0.5,
        "velocity": 68
      },
      {
        "pitch": 71,
        "duration": 0.5,
        "velocity": 65
      }
    ],
    "key": "C major",
    "tempo": 120,
    "name": "123e90585867a157fbb2c21319a8a2a4_3.mid_seg14",
    "avg_interval": 5.6,
    "span": 16,
    "note_density": 0.5,
    "register": "middle",
    "complexity": 0.5444444444444444
  },
  {
    "events": [
      {
        "pitch": 55,
        "duration": 0.5,
        "velocity": 66
      },
      {
        "pitch": 58,
        "duration": 0.5,
        "velocity": 75
      },
      {
        "pitch": 64,
        "duration": 0.5,
        "velocity": 70
      },
      {
        "pitch": 67,
        "duration": 0.5,
        "velocity": 71
      },
      {
        "pitch": 73,
        "duration": 0.5,
        "velocity": 60
      },
      {
        "pitch": 64,
        "duration": 0.5,
        "velocity": 67
      },
      {
        "pitch": 67,
        "duration": 0.5,
        "velocity": 73
      },
      {
        "pitch": 73,
        "duration": 0.5,
        "velocity": 63
      },
      {
        "pitch": 55,
        "duration": 0.5,
        "velocity": 64
      },
      {
        "pitch": 58,
        "duration": 0.5,
        "velocity": 78
      },
      {
        "pitch": 64,
        "duration": 0.5,
        "velocity": 71
      },
      {
        "pitch": 67,
        "duration": 0.5,
        "velocity": 68
      },
      {
        "pitch": 73,
        "duration": 0.5,
        "velocity": 64
      },
      {
        "pitch": 64,
        "duration": 0.5,
        "velocity": 67
      },
      {
        "pitch": 67,
        "duration": 0.5,
        "velocity": 72
      },
      {
        "pitch": 73,
        "duration": 0.5,
        "velocity": 62
      }
    ],
    "key": "C major",
    "tempo": 120,
    "name": "123e90585867a157fbb2c21319a8a2a4_3.mid_seg15",
    "avg_interval": 6.0,
    "span": 18,
    "note_density": 0.5,
    "register": "middle",
    "complexity": 0.5833333333333334
  },
  {
    "events": [
      {
        "pitch": 53,
        "duration": 0.5,
        "velocity": 73
      },
      {
        "pitch": 57,
        "duration": 0.5,
        "velocity": 64
      },
      {
        "pitch": 62,
        "duration": 0.5,
        "velocity": 71
      },
      {
        "pitch": 69,
        "duration": 0.5,
        "velocity": 66
      },
      {
        "pitch": 74,
        "duration": 0.6666666666666666,
        "velocity": 67
      },
      {
        "pitch": 62,
        "duration": 0.5,
        "velocity": 75
      },
      {
        "pitch": 69,
        "duration": 0.5,
        "velocity": 68
      },
      {
        "pitch": 74,
        "duration": 0.5,
        "velocity": 63
      },
      {
        "pitch": 53,
        "duration": 0.5,
        "velocity": 71
      },
      {
        "pitch": 57,
        "duration": 0.5,
        "velocity": 72
      },
      {
        "pitch": 62,
        "duration": 0.5,
        "velocity": 76
      },
      {
        "pitch": 69,
        "duration": 0.5,
        "velocity": 67
      },
      {
        "pitch": 74,
        "duration": 0.5,
        "velocity": 66
      },
      {
        "pitch": 62,
        "duration": 0.5,
        "velocity": 75
      },
      {
        "pitch": 69,
        "duration": 0.5,
        "velocity": 71
      },
      {
        "pitch": 74,
        "duration": 0.5,
        "velocity": 65
      }
    ],
    "key": "C major",
    "tempo": 120,
    "name": "123e90585867a157fbb2c21319a8a2a4_3.mid_seg16",
    "avg_interval": 7.4,
    "span": 21,
    "note_density": 0.48958333333333337,
    "register": "middle",
    "complexity": 0.6604166666666668
  },
  {
    "events": [
      {
        "pitch": 53,
        "duration": 0.5,
        "velocity": 73
      },
      {
        "pitch": 56,
        "duration": 0.5,
        "velocity": 73
      },
      {
        "pitch": 62,
        "duration": 0.5,
        "velocity": 74
      },
      {
        "pitch": 65,
        "duration": 0.5,
        "velocity": 66
      },
      {
        "pitch": 71,
        "duration": 0.5,
        "velocity": 65
      },
      {
        "pitch": 62,
        "duration": 0.5,
        "velocity": 74
      },
      {
        "pitch": 65,
        "duration": 0.5,
        "velocity": 69
      },
      {
        "pitch": 71,
        "duration": 0.5,
        "velocity": 67
      },
      {
        "pitch": 53,
        "duration": 0.5,
        "velocity": 72
      },
      {
        "pitch": 56,
        "duration": 0.5,
        "velocity": 71
      },
      {
        "pitch": 62,
        "duration": 0.5,
        "velocity": 72
      },
      {
        "pitch": 65,
        "duration": 0.5,
        "velocity": 70
      },
      {
        "pitch": 71,
        "duration": 0.5,
        "velocity": 65
      },
      {
        "pitch": 62,
        "duration": 0.5,
        "velocity": 61
      },
      {
        "pitch": 65,
        "duration": 0.5,
        "velocity": 73
      },
      {
        "pitch": 71,
        "duration": 0.5,
        "velocity": 64
      }
    ],
    "key": "C major",
    "tempo": 120,
    "name": "123e90585867a157fbb2c21319a8a2a4_3.mid_seg17",
    "avg_interval": 6.0,
    "span": 18,
    "note_density": 0.5,
    "register": "middle",
    "complexity": 0.5833333333333334
  },
  {
    "events": [
      {
        "pitch": 52,
        "duration": 0.5,
        "velocity": 74
      },
      {
        "pitch": 55,
        "duration": 0.5,
        "velocity": 76
      },
      {
        "pitch": 60,
        "duration": 0.5,
        "velocity": 69
      },
      {
        "pitch": 67,
        "duration": 0.5,
        "velocity": 71
      },
      {
        "pitch": 72,
        "duration": 0.5,
        "velocity": 63
      },
      {
        "pitch": 60,
        "duration": 0.5,
        "velocity": 72
      },
      {
        "pitch": 67,
        "duration": 0.5,
        "velocity": 68
      },
      {
        "pitch": 72,
        "duration": 0.5,
        "velocity": 63
      },
      {
        "pitch": 52,
        "duration": 0.5,
        "velocity": 71
      },
      {
        "pitch": 55,
        "duration": 0.5,
        "velocity": 74
      },
      {
        "pitch": 60,
        "duration": 0.5,
        "velocity": 70
      },
      {
        "pitch": 67,
        "duration": 0.5,
        "velocity": 69
      },
      {
        "pitch": 72,
        "duration": 0.5,
        "velocity": 66
      },
      {
        "pitch": 60,
        "duration": 0.5,
        "velocity": 68
      },
      {
        "pitch": 67,
        "duration": 0.5,
        "velocity": 70
      },
      {
        "pitch": 72,
        "duration": 0.5,
        "velocity": 62
      }
    ],
    "key": "C major",
    "tempo": 120,
    "name": "123e90585867a157fbb2c21319a8a2a4_3.mid_seg18",
    "avg_interval": 7.2,
    "span": 20,
    "note_density": 0.5,
    "register": "middle",
    "complexity": 0.6444444444444445
  },
  {
    "events": [
      {
        "pitch": 52,
        "duration": 0.5,
        "velocity": 71
      },
      {
        "pitch": 53,
        "duration": 0.5,
        "velocity": 78
      },
      {
        "pitch": 57,
        "duration": 0.5,
        "velocity": 72
      },
      {
        "pitch": 60,
        "duration": 0.5,
        "velocity": 61
      },
      {
        "pitch": 65,
        "duration": 0.5,
        "velocity": 72
      },
      {
        "pitch": 57,
        "duration": 0.5,
        "velocity": 71
      },
      {
        "pitch": 60,
        "duration": 0.5,
        "velocity": 76
      },
      {
        "pitch": 65,
        "duration": 0.5,
        "velocity": 72
      },
      {
        "pitch": 52,
        "duration": 0.5,
        "velocity": 71
      },
      {
        "pitch": 53,
        "duration": 0.5,
        "velocity": 75
      },
      {
        "pitch": 57,
        "duration": 0.5,
        "velocity": 75
      },
      {
        "pitch": 60,
        "duration": 0.5,
        "velocity": 66
      },
      {
        "pitch": 65,
        "duration": 0.5,
        "velocity": 67
      },
      {
        "pitch": 57,
        "duration": 0.5,
        "velocity": 73
      },
      {
        "pitch": 60,
        "duration": 0.5,
        "velocity": 69
      },
      {
        "pitch": 65,
        "duration": 0.5,
        "velocity": 66
      }
    ],
    "key": "C major",
    "tempo": 120,
    "name": "123e90585867a157fbb2c21319a8a2a4_3.mid_seg19",
    "avg_interval": 4.733333333333333,
    "span": 13,
    "note_density": 0.5,
    "register": "middle",
    "complexity": 0.4787037037037037
  },
  {
    "events": [
      {
        "pitch": 50,
        "duration": 0.5,
        "velocity": 71
      },
      {
        "pitch": 53,
        "duration": 0.5,
        "velocity": 75
      },
      {
        "pitch": 57,
        "duration": 0.5,
        "velocity": 78
      },
      {
        "pitch": 60,
        "duration": 0.5,
        "velocity": 70
      },
      {
        "pitch": 65,
        "duration": 0.5,
        "velocity": 74
      },
      {
        "pitch": 57,
        "duration": 0.5,
        "velocity": 74
      },
      {
        "pitch": 60,
        "duration": 0.5,
        "velocity": 71
      },
      {
        "pitch": 65,
        "duration": 0.5,
        "velocity": 71
      },
      {
        "pitch": 50,
        "duration": 0.5,
        "velocity": 71
      },
      {
        "pitch": 53,
        "duration": 0.5,
        "velocity": 72
      },
      {
        "pitch": 57,
        "duration": 0.5,
        "velocity": 73
      },
      {
        "pitch": 60,
        "duration": 0.5,
        "velocity": 71
      },
      {
        "pitch": 65,
        "duration": 0.5,
        "velocity": 69
      },
      {
        "pitch": 57,
        "duration": 0.5,
        "velocity": 74
      },
      {
        "pitch": 60,
        "duration": 0.5,
        "velocity": 75
      },
      {
        "pitch": 65,
        "duration": 0.5,
        "velocity": 63
      }
    ],
    "key": "C major",
    "tempo": 120,
    "name": "123e90585867a157fbb2c21319a8a2a4_3.mid_seg20",
    "avg_interval": 5.133333333333334,
    "span": 15,
    "note_density": 0.5,
    "register": "middle",
    "complexity": 0.5175925925925926
  },
  {
    "events": [
      {
        "pitch": 43,
        "duration": 0.5,
        "velocity": 73
      },
      {
        "pitch": 50,
        "duration": 0.5,
        "velocity": 74
      },
      {
        "pitch": 55,
        "duration": 0.5,
        "velocity": 69
      },
      {
        "pitch": 59,
        "duration": 0.5,
        "velocity": 68
      },
      {
        "pitch": 65,
        "duration": 0.5,
        "velocity": 72
      },
      {
        "pitch": 55,
        "duration": 0.5,
        "velocity": 66
      },
      {
        "pitch": 59,
        "duration": 0.5,
        "velocity": 68
      },
      {
        "pitch": 65,
        "duration": 0.5,
        "velocity": 76
      },
      {
        "pitch": 43,
        "duration": 0.5,
        "velocity": 71
      },
      {
        "pitch": 50,
        "duration": 0.5,
        "velocity": 74
      },
      {
        "pitch": 55,
        "duration": 0.5,
        "velocity": 71
      },
      {
        "pitch": 59,
        "duration": 0.5,
        "velocity": 70
      },
      {
        "pitch": 65,
        "duration": 0.5,
        "velocity": 70
      },
      {
        "pitch": 55,
        "duration": 0.5,
        "velocity": 71
      },
      {
        "pitch": 59,
        "duration": 0.5,
        "velocity": 73
      },
      {
        "pitch": 65,
        "duration": 0.5,
        "velocity": 73
      }
    ],
    "key": "C major",
    "tempo": 120,
    "name": "123e90585867a157fbb2c21319a8a2a4_3.mid_seg21",
    "avg_interval": 7.066666666666666,
    "span": 22,
    "note_density": 0.5,
    "register": "middle",
    "complexity": 0.6685185185185185
  },
  {
    "events": [
      {
        "pitch": 48,
        "duration": 0.5,
        "velocity": 63
      },
      {
        "pitch": 52,
        "duration": 0.5,
        "velocity": 72
      },
      {
        "pitch": 55,
        "duration": 0.5,
        "velocity": 70
      },
      {
        "pitch": 60,
        "duration": 0.5,
        "velocity": 69
      },
      {
        "pitch": 64,
        "duration": 0.5,
        "velocity": 71
      },
      {
        "pitch": 55,
        "duration": 0.5,
        "velocity": 66
      },
      {
        "pitch": 60,
        "duration": 0.5,
        "velocity": 67
      },
      {
        "pitch": 64,
        "duration": 0.5,
        "velocity": 69
      },
      {
        "pitch": 48,
        "duration": 0.5,
        "velocity": 66
      },
      {
        "pitch": 52,
        "duration": 0.5,
        "velocity": 73
      },
      {
        "pitch": 55,
        "duration": 0.5,
        "velocity": 72
      },
      {
        "pitch": 60,
        "duration": 0.5,
        "velocity": 65
      },
      {
        "pitch": 64,
        "duration": 0.5,
        "velocity": 69
      },
      {
        "pitch": 55,
        "duration": 0.5,
        "velocity": 66
      },
      {
        "pitch": 60,
        "duration": 0.5,
        "velocity": 67
      },
      {
        "pitch": 48,
        "duration": 0.5,
        "velocity": 66
      }
    ],
    "key": "C major",
    "tempo": 120,
    "name": "123e90585867a157fbb2c21319a8a2a4_3.mid_seg22",
    "avg_interval": 6.133333333333334,
    "span": 16,
    "note_density": 0.5,
    "register": "middle",
    "complexity": 0.5592592592592592
  },
  {
    "events": [
      {
        "pitch": 55,
        "duration": 0.5,
        "velocity": 70
      },
      {
        "pitch": 58,
        "duration": 0.5,
        "velocity": 70
      },
      {
        "pitch": 60,
        "duration": 0.5,
        "velocity": 62
      },
      {
        "pitch": 64,
        "duration": 0.5,
        "velocity": 74
      },
      {
        "pitch": 58,
        "duration": 0.5,
        "velocity": 73
      },
      {
        "pitch": 60,
        "duration": 0.5,
        "velocity": 69
      },
      {
        "pitch": 64,
        "duration": 0.5,
        "velocity": 72
      },
      {
        "pitch": 48,
        "duration": 0.5,
        "velocity": 67
      },
      {
        "pitch": 55,
        "duration": 0.5,
        "velocity": 73
      },
      {
        "pitch": 58,
        "duration": 0.5,
        "velocity": 75
      },
      {
        "pitch": 60,
        "duration": 0.5,
        "velocity": 66
      },
      {
        "pitch": 64,
        "duration": 0.5,
        "velocity": 72
      },
      {
        "pitch": 58,
        "duration": 0.5,
        "velocity": 72
      },
      {
        "pitch": 60,
        "duration": 0.5,
        "velocity": 65
      },
      {
        "pitch": 41,
        "duration": 0.5,
        "velocity": 73
      },
      {
        "pitch": 53,
        "duration": 0.5,
        "velocity": 70
      }
    ],
    "key": "C major",
    "tempo": 120,
    "name": "123e90585867a157fbb2c21319a8a2a4_3.mid_seg23",
    "avg_interval": 6.133333333333334,
    "span": 23,
    "note_density": 0.5,
    "register": "middle",
    "complexity": 0.6564814814814816
  },
  {
    "events": [
      {
        "pitch": 57,
        "duration": 0.5,
        "velocity": 75
      },
      {
        "pitch": 60,
        "duration": 0.5,
        "velocity": 65
      },
      {
        "pitch": 64,
        "duration": 0.5,
        "velocity": 71
      },
      {
        "pitch": 57,
        "duration": 0.5,
        "velocity": 71
      },
      {
        "pitch": 60,
        "duration": 0.5,
        "velocity": 64
      },
      {
        "pitch": 64,
        "duration": 0.5,
        "velocity": 73
      },
      {
        "pitch": 41,
        "duration": 0.5,
        "velocity": 76
      },
      {
        "pitch": 53,
        "duration": 0.5,
        "velocity": 73
      },
      {
        "pitch": 57,
        "duration": 0.5,
        "velocity": 66
      },
      {
        "pitch": 60,
        "duration": 0.5,
        "velocity": 71
      },
      {
        "pitch": 64,
        "duration": 0.5,
        "velocity": 73
      },
      {
        "pitch": 57,
        "duration": 0.5,
        "velocity": 71
      },
      {
        "pitch": 60,
        "duration": 0.5,
        "velocity": 67
      },
      {
        "pitch": 42,
        "duration": 0.5,
        "velocity": 64
      },
      {
        "pitch": 48,
        "duration": 0.5,
        "velocity": 74
      },
      {
        "pitch": 57,
        "duration": 0.5,
        "velocity": 71
      }
    ],
    "key": "C major",
    "tempo": 120,
    "name": "123e90585867a157fbb2c21319a8a2a4_3.mid_seg24",
    "avg_interval": 7.333333333333333,
    "span": 23,
    "note_density": 0.5,
    "register": "middle",
    "complexity": 0.6898148148148149
  },
  {
    "events": [
      {
        "pitch": 60,
        "duration": 0.5,
        "velocity": 72
      },
      {
        "pitch": 63,
        "duration": 0.5,
        "velocity": 72
      },
      {
        "pitch": 57,
        "duration": 0.5,
        "velocity": 64
      },
      {
        "pitch": 60,
        "duration": 0.5,
        "velocity": 68
      },
      {
        "pitch": 63,
        "duration": 0.5,
        "velocity": 69
      },
      {
        "pitch": 42,
        "duration": 0.5,
        "velocity": 69
      },
      {
        "pitch": 48,
        "duration": 0.5,
        "velocity": 75
      },
      {
        "pitch": 57,
        "duration": 0.5,
        "velocity": 69
      },
      {
        "pitch": 60,
        "duration": 0.5,
        "velocity": 68
      },
      {
        "pitch": 63,
        "duration": 0.5,
        "velocity": 74
      },
      {
        "pitch": 57,
        "duration": 0.5,
        "velocity": 69
      },
      {
        "pitch": 60,
        "duration": 0.5,
        "velocity": 68
      },
      {
        "pitch": 63,
        "duration": 0.5,
        "velocity": 71
      },
      {
        "pitch": 43,
        "duration": 0.5,
        "velocity": 66
      },
      {
        "pitch": 55,
        "duration": 0.5,
        "velocity": 75
      },
      {
        "pitch": 59,
        "duration": 0.5,
        "velocity": 70
      }
    ],
    "key": "C major",
    "tempo": 120,
    "name": "123e90585867a157fbb2c21319a8a2a4_3.mid_seg25",
    "avg_interval": 7.0,
    "span": 21,
    "note_density": 0.5,
    "register": "middle",
    "complexity": 0.6527777777777778
  },
  {
    "events": [
      {
        "pitch": 60,
        "duration": 0.5,
        "velocity": 71
      },
      {
        "pitch": 63,
        "duration": 0.5,
        "velocity": 67
      },
      {
        "pitch": 59,
        "duration": 0.5,
        "velocity": 67
      },
      {
        "pitch": 60,
        "duration": 0.5,
        "velocity": 73
      },
      {
        "pitch": 63,
        "duration": 0.5,
        "velocity": 71
      },
      {
        "pitch": 43,
        "duration": 0.5,
        "velocity": 64
      },
      {
        "pitch": 55,
        "duration": 0.5,
        "velocity": 78
      },
      {
        "pitch": 59,
        "duration": 0.5,
        "velocity": 71
      },
      {
        "pitch": 60,
        "duration": 0.5,
        "velocity": 68
      },
      {
        "pitch": 63,
        "duration": 0.5,
        "velocity": 73
      },
      {
        "pitch": 59,
        "duration": 0.5,
        "velocity": 67
      },
      {
        "pitch": 60,
        "duration": 0.5,
        "velocity": 72
      },
      {
        "pitch": 44,
        "duration": 0.5,
        "velocity": 66
      },
      {
        "pitch": 62,
        "duration": 4.0,
        "velocity": 64
      },
      {
        "pitch": 53,
        "duration": 0.5,
        "velocity": 75
      },
      {
        "pitch": 59,
        "duration": 0.5,
        "velocity": 70
      }
    ],
    "key": "C major",
    "tempo": 120,
    "name": "123e90585867a157fbb2c21319a8a2a4_3.mid_seg26",
    "avg_interval": 7.0,
    "span": 20,
    "note_density": 0.28125,
    "register": "middle",
    "complexity": 0.5659722222222222
  },
  {
    "events": [
      {
        "pitch": 60,
        "duration": 0.5,
        "velocity": 71
      },
      {
        "pitch": 62,
        "duration": 0.5,
        "velocity": 67
      },
      {
        "pitch": 59,
        "duration": 0.5,
        "velocity": 67
      },
      {
        "pitch": 60,
        "duration": 0.5,
        "velocity": 73
      },
      {
        "pitch": 62,
        "duration": 0.5,
        "velocity": 71
      },
      {
        "pitch": 44,
        "duration": 0.5,
        "velocity": 64
      },
      {
        "pitch": 53,
        "duration": 0.5,
        "velocity": 78
      },
      {
        "pitch": 59,
        "duration": 0.5,
        "velocity": 71
      },
      {
        "pitch": 60,
        "duration": 0.5,
        "velocity": 68
      },
      {
        "pitch": 62,
        "duration": 0.5,
        "velocity": 73
      },
      {
        "pitch": 59,
        "duration": 0.5,
        "velocity": 67
      },
      {
        "pitch": 60,
        "duration": 0.5,
        "velocity": 72
      },
      {
        "pitch": 43,
        "duration": 0.5,
        "velocity": 73
      },
      {
        "pitch": 53,
        "duration": 0.5,
        "velocity": 64
      },
      {
        "pitch": 55,
        "duration": 0.5,
        "velocity": 71
      },
      {
        "pitch": 59,
        "duration": 0.5,
        "velocity": 66
      }
    ],
    "key": "C major",
    "tempo": 120,
    "name": "123e90585867a157fbb2c21319a8a2a4_3.mid_seg27",
    "avg_interval": 5.4,
    "span": 19,
    "note_density": 0.5,
    "register": "middle",
    "complexity": 0.5805555555555556
  },
  {
    "events": [
      {
        "pitch": 62,
        "duration": 0.5,
        "velocity": 74
      },
      {
        "pitch": 55,
        "duration": 0.5,
        "velocity": 75
      },
      {
        "pitch": 59,
        "duration": 0.5,
        "velocity": 68
      },
      {
        "pitch": 62,
        "duration": 0.5,
        "velocity": 70
      },
      {
        "pitch": 43,
        "duration": 0.5,
        "velocity": 71
      },
      {
        "pitch": 53,
        "duration": 0.5,
        "velocity": 72
      },
      {
        "pitch": 55,
        "duration": 0.5,
        "velocity": 76
      },
      {
        "pitch": 59,
        "duration": 0.5,
        "velocity": 67
      },
      {
        "pitch": 62,
        "duration": 0.5,
        "velocity": 71
      },
      {
        "pitch": 55,
        "duration": 0.5,
        "velocity": 75
      },
      {
        "pitch": 59,
        "duration": 0.5,
        "velocity": 71
      },
      {
        "pitch": 62,
        "duration": 0.5,
        "velocity": 71
      },
      {
        "pitch": 43,
        "duration": 0.5,
        "velocity": 73
      },
      {
        "pitch": 60,
        "duration": 4.0,
        "velocity": 64
      },
      {
        "pitch": 52,
        "duration": 0.5,
        "velocity": 73
      },
      {
        "pitch": 55,
        "duration": 0.5,
        "velocity": 74
      }
    ],
    "key": "C major",
    "tempo": 120,
    "name": "123e90585867a157fbb2c21319a8a2a4_3.mid_seg28",
    "avg_interval": 7.533333333333333,
    "span": 19,
    "note_density": 0.28125,
    "register": "middle",
    "complexity": 0.5668981481481481
  },
  {
    "events": [
      {
        "pitch": 60,
        "duration": 0.5,
        "velocity": 66
      },
      {
        "pitch": 64,
        "duration": 0.5,
        "velocity": 71
      },
      {
        "pitch": 55,
        "duration": 0.5,
        "velocity": 74
      },
      {
        "pitch": 60,
        "duration": 0.5,
        "velocity": 69
      },
      {
        "pitch": 64,
        "duration": 0.5,
        "velocity": 73
      },
      {
        "pitch": 43,
        "duration": 0.5,
        "velocity": 72
      },
      {
        "pitch": 52,
        "duration": 0.5,
        "velocity": 71
      },
      {
        "pitch": 55,
        "duration": 0.5,
        "velocity": 72
      },
      {
        "pitch": 60,
        "duration": 0.5,
        "velocity": 70
      },
      {
        "pitch": 64,
        "duration": 0.5,
        "velocity": 72
      },
      {
        "pitch": 55,
        "duration": 0.5,
        "velocity": 61
      },
      {
        "pitch": 60,
        "duration": 0.5,
        "velocity": 73
      },
      {
        "pitch": 64,
        "duration": 0.5,
        "velocity": 69
      },
      {
        "pitch": 43,
        "duration": 0.5,
        "velocity": 74
      },
      {
        "pitch": 50,
        "duration": 0.5,
        "velocity": 76
      },
      {
        "pitch": 55,
        "duration": 0.5,
        "velocity": 69
      }
    ],
    "key": "C major",
    "tempo": 120,
    "name": "123e90585867a157fbb2c21319a8a2a4_3.mid_seg29",
    "avg_interval": 7.666666666666667,
    "span": 21,
    "note_density": 0.5,
    "register": "middle",
    "complexity": 0.6712962962962963
  },
  {
    "events": [
      {
        "pitch": 60,
        "duration": 0.5,
        "velocity": 71
      },
      {
        "pitch": 65,
        "duration": 0.5,
        "velocity": 71
      },
      {
        "pitch": 55,
        "duration": 0.5,
        "velocity": 72
      },
      {
        "pitch": 60,
        "duration": 0.5,
        "velocity": 68
      },
      {
        "pitch": 65,
        "duration": 0.5,
        "velocity": 70
      },
      {
        "pitch": 43,
        "duration": 0.5,
        "velocity": 71
      },
      {
        "pitch": 50,
        "duration": 0.5,
        "velocity": 74
      },
      {
        "pitch": 55,
        "duration": 0.5,
        "velocity": 70
      },
      {
        "pitch": 60,
        "duration": 0.5,
        "velocity": 69
      },
      {
        "pitch": 65,
        "duration": 0.5,
        "velocity": 73
      },
      {
        "pitch": 55,
        "duration": 0.5,
        "velocity": 68
      },
      {
        "pitch": 60,
        "duration": 0.5,
        "velocity": 70
      },
      {
        "pitch": 65,
        "duration": 0.5,
        "velocity": 70
      },
      {
        "pitch": 43,
        "duration": 0.5,
        "velocity": 71
      },
      {
        "pitch": 50,
        "duration": 0.5,
        "velocity": 78
      },
      {
        "pitch": 55,
        "duration": 0.5,
        "velocity": 72
      }
    ],
    "key": "C major",
    "tempo": 120,
    "name": "123e90585867a157fbb2c21319a8a2a4_3.mid_seg30",
    "avg_interval": 8.2,
    "span": 22,
    "note_density": 0.5,
    "register": "middle",
    "complexity": 0.6999999999999998
  },
  {
    "events": [
      {
        "pitch": 59,
        "duration": 0.5,
        "velocity": 61
      },
      {
        "pitch": 65,
        "duration": 0.5,
        "velocity": 72
      },
      {
        "pitch": 55,
        "duration": 0.5,
        "velocity": 71
      },
      {
        "pitch": 59,
        "duration": 0.5,
        "velocity": 76
      },
      {
        "pitch": 65,
        "duration": 0.5,
        "velocity": 72
      },
      {
        "pitch": 43,
        "duration": 0.5,
        "velocity": 71
      },
      {
        "pitch": 50,
        "duration": 0.5,
        "velocity": 75
      },
      {
        "pitch": 55,
        "duration": 0.5,
        "velocity": 75
      },
      {
        "pitch": 59,
        "duration": 0.5,
        "velocity": 66
      },
      {
        "pitch": 65,
        "duration": 0.5,
        "velocity": 67
      },
      {
        "pitch": 55,
        "duration": 0.5,
        "velocity": 73
      },
      {
        "pitch": 59,
        "duration": 0.5,
        "velocity": 69
      },
      {
        "pitch": 65,
        "duration": 0.5,
        "velocity": 66
      },
      {
        "pitch": 43,
        "duration": 0.5,
        "velocity": 71
      },
      {
        "pitch": 51,
        "duration": 0.5,
        "velocity": 75
      },
      {
        "pitch": 57,
        "duration": 0.5,
        "velocity": 78
      }
    ],
    "key": "C major",
    "tempo": 120,
    "name": "123e90585867a157fbb2c21319a8a2a4_3.mid_seg31",
    "avg_interval": 8.4,
    "span": 22,
    "note_density": 0.5,
    "register": "middle",
    "complexity": 0.7055555555555556
  },
  {
    "events": [
      {
        "pitch": 60,
        "duration": 0.5,
        "velocity": 70
      },
      {
        "pitch": 66,
        "duration": 0.5,
        "velocity": 74
      },
      {
        "pitch": 57,
        "duration": 0.5,
        "velocity": 74
      },
      {
        "pitch": 60,
        "duration": 0.5,
        "velocity": 71
      },
      {
        "pitch": 66,
        "duration": 0.5,
        "velocity": 71
      },
      {
        "pitch": 43,
        "duration": 0.5,
        "velocity": 71
      },
      {
        "pitch": 51,
        "duration": 0.5,
        "velocity": 72
      },
      {
        "pitch": 57,
        "duration": 0.5,
        "velocity": 73
      },
      {
        "pitch": 60,
        "duration": 0.5,
        "velocity": 71
      },
      {
        "pitch": 66,
        "duration": 0.5,
        "velocity": 69
      },
      {
        "pitch": 57,
        "duration": 0.5,
        "velocity": 74
      },
      {
        "pitch": 60,
        "duration": 0.5,
        "velocity": 75
      },
      {
        "pitch": 66,
        "duration": 0.5,
        "velocity": 63
      },
      {
        "pitch": 43,
        "duration": 0.5,
        "velocity": 73
      },
      {
        "pitch": 67,
        "duration": 4.0,
        "velocity": 64
      },
      {
        "pitch": 52,
        "duration": 0.5,
        "velocity": 74
      }
    ],
    "key": "C major",
    "tempo": 120,
    "name": "123e90585867a157fbb2c21319a8a2a4_3.mid_seg32",
    "avg_interval": 10.0,
    "span": 24,
    "note_density": 0.28125,
    "register": "middle",
    "complexity": 0.7048611111111112
  },
  {
    "events": [
      {
        "pitch": 55,
        "duration": 0.5,
        "velocity": 69
      },
      {
        "pitch": 60,
        "duration": 0.5,
        "velocity": 68
      },
      {
        "pitch": 67,
        "duration": 0.5,
        "velocity": 72
      },
      {
        "pitch": 55,
        "duration": 0.5,
        "velocity": 66
      },
      {
        "pitch": 60,
        "duration": 0.5,
        "velocity": 68
      },
      {
        "pitch": 67,
        "duration": 0.5,
        "velocity": 76
      },
      {
        "pitch": 43,
        "duration": 0.5,
        "velocity": 71
      },
      {
        "pitch": 67,
        "duration": 2.0,
        "velocity": 64
      },
      {
        "pitch": 52,
        "duration": 0.5,
        "velocity": 74
      },
      {
        "pitch": 55,
        "duration": 0.5,
        "velocity": 71
      },
      {
        "pitch": 60,
        "duration": 0.5,
        "velocity": 70
      },
      {
        "pitch": 67,
        "duration": 0.5,
        "velocity": 70
      },
      {
        "pitch": 55,
        "duration": 0.5,
        "velocity": 71
      },
      {
        "pitch": 60,
        "duration": 0.5,
        "velocity": 73
      },
      {
        "pitch": 67,
        "duration": 0.5,
        "velocity": 73
      },
      {
        "pitch": 43,
        "duration": 0.5,
        "velocity": 63
      }
    ],
    "key": "C major",
    "tempo": 120,
    "name": "123e90585867a157fbb2c21319a8a2a4_3.mid_seg33",
    "avg_interval": 10.8,
    "span": 24,
    "note_density": 0.40625,
    "register": "middle",
    "complexity": 0.7687499999999999
  },
  {
    "events": [
      {
        "pitch": 50,
        "duration": 0.5,
        "velocity": 72
      },
      {
        "pitch": 55,
        "duration": 0.5,
        "velocity": 70
      },
      {
        "pitch": 60,
        "duration": 0.5,
        "velocity": 69
      },
      {
        "pitch": 65,
        "duration": 0.5,
        "velocity": 71
      },
      {
        "pitch": 55,
        "duration": 0.5,
        "velocity": 66
      },
      {
        "pitch": 60,
        "duration": 0.5,
        "velocity": 67
      },
      {
        "pitch": 65,
        "duration": 0.5,
        "velocity": 69
      },
      {
        "pitch": 43,
        "duration": 0.5,
        "velocity": 66
      },
      {
        "pitch": 50,
        "duration": 0.5,
        "velocity": 73
      },
      {
        "pitch": 55,
        "duration": 0.5,
        "velocity": 72
      },
      {
        "pitch": 60,
        "duration": 0.5,
        "velocity": 65
      },
      {
        "pitch": 65,
        "duration": 0.5,
        "velocity": 69
      },
      {
        "pitch": 55,
        "duration": 0.5,
        "velocity": 66
      },
      {
        "pitch": 60,
        "duration": 0.5,
        "velocity": 67
      },
      {
        "pitch": 65,
        "duration": 0.5,
        "velocity": 70
      },
      {
        "pitch": 43,
        "duration": 0.5,
        "velocity": 66
      }
    ],
    "key": "C major",
    "tempo": 120,
    "name": "123e90585867a157fbb2c21319a8a2a4_3.mid_seg34",
    "avg_interval": 8.066666666666666,
    "span": 22,
    "note_density": 0.5,
    "register": "middle",
    "complexity": 0.6962962962962962
  },
  {
    "events": [
      {
        "pitch": 50,
        "duration": 4.0,
        "velocity": 64
      },
      {
        "pitch": 50,
        "duration": 0.5,
        "velocity": 70
      },
      {
        "pitch": 55,
        "duration": 0.5,
        "velocity": 70
      },
      {
        "pitch": 59,
        "duration": 0.5,
        "velocity": 62
      },
      {
        "pitch": 65,
        "duration": 0.5,
        "velocity": 74
      },
      {
        "pitch": 55,
        "duration": 0.5,
        "velocity": 73
      },
      {
        "pitch": 59,
        "duration": 0.5,
        "velocity": 69
      },
      {
        "pitch": 65,
        "duration": 0.5,
        "velocity": 72
      },
      {
        "pitch": 43,
        "duration": 0.5,
        "velocity": 67
      },
      {
        "pitch": 50,
        "duration": 2.75,
        "velocity": 64
      },
      {
        "pitch": 50,
        "duration": 0.5,
        "velocity": 73
      },
      {
        "pitch": 55,
        "duration": 0.5,
        "velocity": 75
      },
      {
        "pitch": 59,
        "duration": 0.5,
        "velocity": 66
      },
      {
        "pitch": 65,
        "duration": 0.5,
        "velocity": 72
      },
      {
        "pitch": 55,
        "duration": 0.5,
        "velocity": 72
      },
      {
        "pitch": 59,
        "duration": 0.5,
        "velocity": 65
      }
    ],
    "key": "C major",
    "tempo": 120,
    "name": "123e90585867a157fbb2c21319a8a2a4_3.mid_seg35",
    "avg_interval": 6.2,
    "span": 22,
    "note_density": 0.140625,
    "register": "middle",
    "complexity": 0.5246527777777777
  },
  {
    "events": [
      {
        "pitch": 65,
        "duration": 0.5,
        "velocity": 70
      },
      {
        "pitch": 36,
        "duration": 3.6666666666666665,
        "velocity": 63
      },
      {
        "pitch": 48,
        "duration": 3.25,
        "velocity": 58
      },
      {
        "pitch": 55,
        "duration": 0.5,
        "velocity": 75
      },
      {
        "pitch": 58,
        "duration": 0.5,
        "velocity": 65
      },
      {
        "pitch": 64,
        "duration": 0.5,
        "velocity": 71
      },
      {
        "pitch": 55,
        "duration": 0.5,
        "velocity": 71
      },
      {
        "pitch": 58,
        "duration": 0.5,
        "velocity": 64
      },
      {
        "pitch": 64,
        "duration": 0.5,
        "velocity": 73
      },
      {
        "pitch": 36,
        "duration": 3.6666666666666665,
        "velocity": 76
      },
      {
        "pitch": 48,
        "duration": 3.25,
        "velocity": 54
      },
      {
        "pitch": 55,
        "duration": 0.5,
        "velocity": 66
      },
      {
        "pitch": 58,
        "duration": 0.5,
        "velocity": 71
      },
      {
        "pitch": 64,
        "duration": 0.5,
        "velocity": 73
      },
      {
        "pitch": 55,
        "duration": 0.5,
        "velocity": 71
      },
      {
        "pitch": 58,
        "duration": 0.5,
        "velocity": 67
      }
    ],
    "key": "C major",
    "tempo": 120,
    "name": "123e90585867a157fbb2c21319a8a2a4_3.mid_seg36",
    "avg_interval": 9.533333333333333,
    "span": 29,
    "note_density": 0.0,
    "register": "bass",
    "complexity": 0.5981481481481481
  },
  {
    "events": [
      {
        "pitch": 64,
        "duration": 0.5,
        "velocity": 68
      },
      {
        "pitch": 60,
        "duration": 4.0,
        "velocity": 67
      },
      {
        "pitch": 48,
        "duration": 3.5,
        "velocity": 50
      },
      {
        "pitch": 53,
        "duration": 0.5,
        "velocity": 83
      },
      {
        "pitch": 57,
        "duration": 0.6666666666666666,
        "velocity": 81
      },
      {
        "pitch": 60,
        "duration": 0.5,
        "velocity": 76
      },
      {
        "pitch": 65,
        "duration": 0.5,
        "velocity": 79
      },
      {
        "pitch": 60,
        "duration": 0.5,
        "velocity": 77
      },
      {
        "pitch": 57,
        "duration": 0.5,
        "velocity": 78
      },
      {
        "pitch": 60,
        "duration": 0.6666666666666666,
        "velocity": 73
      },
      {
        "pitch": 60,
        "duration": 4.666666666666667,
        "velocity": 67
      },
      {
        "pitch": 48,
        "duration": 3.8333333333333335,
        "velocity": 50
      },
      {
        "pitch": 57,
        "duration": 0.16666666666666666,
        "velocity": 78
      },
      {
        "pitch": 57,
        "duration": 0.5,
        "velocity": 84
      },
      {
        "pitch": 53,
        "duration": 0.5,
        "velocity": 80
      },
      {
        "pitch": 57,
        "duration": 0.5,
        "velocity": 82
      }
    ],
    "key": "C major",
    "tempo": 120,
    "name": "123e90585867a157fbb2c21319a8a2a4_3.mid_seg37",
    "avg_interval": 4.866666666666666,
    "span": 17,
    "note_density": 0.0,
    "register": "middle",
    "complexity": 0.3712962962962963
  },
  {
    "events": [
      {
        "pitch": 53,
        "duration": 0.6666666666666666,
        "velocity": 78
      },
      {
        "pitch": 50,
        "duration": 0.5,
        "velocity": 79
      },
      {
        "pitch": 53,
        "duration": 0.5,
        "velocity": 76
      },
      {
        "pitch": 50,
        "duration": 0.5,
        "velocity": 69
      },
      {
        "pitch": 50,
        "duration": 0.16666666666666666,
        "velocity": 69
      },
      {
        "pitch": 36,
        "duration": 3.5,
        "velocity": 52
      },
      {
        "pitch": 36,
        "duration": 4.75,
        "velocity": 52
      }
    ],
    "key": "C major",
    "tempo": 120,
    "name": "123e90585867a157fbb2c21319a8a2a4_3.mid_seg38",
    "avg_interval": 3.8333333333333335,
    "span": 17,
    "note_density": 0.0,
    "register": "bass",
    "complexity": 0.3425925925925926
  },
  {
    "events": [
      {
        "pitch": 72,
        "duration": 0.25,
        "velocity": 127
      },
      {
        "pitch": 72,
        "duration": 0.25,
        "velocity": 127
      },
      {
        "pitch": 72,
        "duration": 0.25,
        "velocity": 127
      },
      {
        "pitch": 72,
        "duration": 0.25,
        "velocity": 127
      },
      {
        "pitch": 72,
        "duration": 0.5,
        "velocity": 127
      },
      {
        "pitch": 70,
        "duration": 0.25,
        "velocity": 127
      },
      {
        "pitch": 70,
        "duration": 0.5,
        "velocity": 127
      },
      {
        "pitch": 68,
        "duration": 0.25,
        "velocity": 127
      },
      {
        "pitch": 44,
        "duration": 3.5,
        "velocity": 110
      },
      {
        "pitch": 68,
        "duration": 1.0,
        "velocity": 127
      },
      {
        "pitch": 51,
        "duration": 3.0,
        "velocity": 110
      },
      {
        "pitch": 56,
        "duration": 2.5,
        "velocity": 110
      },
      {
        "pitch": 63,
        "duration": 2.0,
        "velocity": 127
      },
      {
        "pitch": 44,
        "duration": 3.0,
        "velocity": 110
      },
      {
        "pitch": 51,
        "duration": 2.5,
        "velocity": 110
      },
      {
        "pitch": 72,
        "duration": 0.5,
        "velocity": 127
      }
    ],
    "key": "A- major",
    "tempo": 120,
    "name": "5386ffb3b559bebd66657123275688d7.mid_seg0",
    "avg_interval": 8.533333333333333,
    "span": 28,
    "note_density": 0.0,
    "register": "middle",
    "complexity": 0.5703703703703704
  },
  {
    "events": [
      {
        "pitch": 56,
        "duration": 2.0,
        "velocity": 110
      },
      {
        "pitch": 72,
        "duration": 0.5,
        "velocity": 127
      },
      {
        "pitch": 72,
        "duration": 0.5,
        "velocity": 127
      },
      {
        "pitch": 72,
        "duration": 0.75,
        "velocity": 127
      },
      {
        "pitch": 70,
        "duration": 0.5,
        "velocity": 127
      },
      {
        "pitch": 70,
        "duration": 0.3333333333333333,
        "velocity": 127
      },
      {
        "pitch": 68,
        "duration": 0.3333333333333333,
        "velocity": 127
      },
      {
        "pitch": 53,
        "duration": 0.5,
        "velocity": 110
      },
      {
        "pitch": 68,
        "duration": 2.0,
        "velocity": 127
      },
      {
        "pitch": 56,
        "duration": 1.0,
        "velocity": 110
      },
      {
        "pitch": 53,
        "duration": 0.5,
        "velocity": 110
      },
      {
        "pitch": 53,
        "duration": 0.5,
        "velocity": 110
      },
      {
        "pitch": 56,
        "duration": 1.0,
        "velocity": 110
      },
      {
        "pitch": 75,
        "duration": 0.5,
        "velocity": 127
      },
      {
        "pitch": 53,
        "duration": 0.5,
        "velocity": 110
      },
      {
        "pitch": 75,
        "duration": 0.5,
        "velocity": 127
      }
    ],
    "key": "A- major",
    "tempo": 120,
    "name": "5386ffb3b559bebd66657123275688d7.mid_seg1",
    "avg_interval": 8.733333333333333,
    "span": 22,
    "note_density": 0.25520833333333337,
    "register": "middle",
    "complexity": 0.6332175925925926
  },
  {
    "events": [
      {
        "pitch": 75,
        "duration": 0.25,
        "velocity": 127
      },
      {
        "pitch": 75,
        "duration": 0.3333333333333333,
        "velocity": 127
      },
      {
        "pitch": 73,
        "duration": 0.75,
        "velocity": 127
      },
      {
        "pitch": 49,
        "duration": 3.75,
        "velocity": 110
      },
      {
        "pitch": 73,
        "duration": 4.0,
        "velocity": 88
      },
      {
        "pitch": 68,
        "duration": 0.25,
        "velocity": 88
      },
      {
        "pitch": 73,
        "duration": 1.0,
        "velocity": 127
      },
      {
        "pitch": 56,
        "duration": 3.25,
        "velocity": 110
      },
      {
        "pitch": 61,
        "duration": 2.6666666666666665,
        "velocity": 110
      },
      {
        "pitch": 68,
        "duration": 2.0,
        "velocity": 127
      },
      {
        "pitch": 49,
        "duration": 3.5,
        "velocity": 110
      },
      {
        "pitch": 73,
        "duration": 4.0,
        "velocity": 88
      },
      {
        "pitch": 56,
        "duration": 3.25,
        "velocity": 110
      },
      {
        "pitch": 75,
        "duration": 0.5,
        "velocity": 127
      },
      {
        "pitch": 61,
        "duration": 2.6666666666666665,
        "velocity": 110
      },
      {
        "pitch": 73,
        "duration": 0.75,
        "velocity": 127
      }
    ],
    "key": "A- major",
    "tempo": 120,
    "name": "5386ffb3b559bebd66657123275688d7.mid_seg2",
    "avg_interval": 12.933333333333334,
    "span": 26,
    "note_density": 0.0,
    "register": "middle",
    "complexity": 0.6666666666666666
  },
  {
    "events": [
      {
        "pitch": 72,
        "duration": 0.25,
        "velocity": 127
      },
      {
        "pitch": 73,
        "duration": 0.5,
        "velocity": 127
      },
      {
        "pitch": 72,
        "duration": 0.6666666666666666,
        "velocity": 127
      },
      {
        "pitch": 70,
        "duration": 0.25,
        "velocity": 127
      },
      {
        "pitch": 68,
        "duration": 0.5,
        "velocity": 127
      },
      {
        "pitch": 39,
        "duration": 4.0,
        "velocity": 110
      },
      {
        "pitch": 69,
        "duration": 0.25,
        "velocity": 127
      },
      {
        "pitch": 70,
        "duration": 2.0,
        "velocity": 127
      },
      {
        "pitch": 46,
        "duration": 3.5,
        "velocity": 110
      },
      {
        "pitch": 51,
        "duration": 3.0,
        "velocity": 110
      },
      {
        "pitch": 55,
        "duration": 2.5,
        "velocity": 110
      },
      {
        "pitch": 58,
        "duration": 0.75,
        "velocity": 110
      },
      {
        "pitch": 63,
        "duration": 1.0,
        "velocity": 110
      },
      {
        "pitch": 58,
        "duration": 0.5,
        "velocity": 110
      },
      {
        "pitch": 39,
        "duration": 2.25,
        "velocity": 110
      },
      {
        "pitch": 46,
        "duration": 2.5,
        "velocity": 110
      }
    ],
    "key": "A- major",
    "tempo": 120,
    "name": "5386ffb3b559bebd66657123275688d7.mid_seg3",
    "avg_interval": 9.2,
    "span": 34,
    "note_density": 0.0,
    "register": "middle",
    "complexity": 0.5888888888888889
  },
  {
    "events": [
      {
        "pitch": 51,
        "duration": 2.6666666666666665,
        "velocity": 110
      },
      {
        "pitch": 55,
        "duration": 3.0,
        "velocity": 110
      },
      {
        "pitch": 58,
        "duration": 3.25,
        "velocity": 110
      },
      {
        "pitch": 63,
        "duration": 3.5,
        "velocity": 110
      },
      {
        "pitch": 71,
        "duration": 0.25,
        "velocity": 127
      },
      {
        "pitch": 72,
        "duration": 0.5,
        "velocity": 127
      },
      {
        "pitch": 75,
        "duration": 0.25,
        "velocity": 127
      },
      {
        "pitch": 75,
        "duration": 0.5,
        "velocity": 127
      },
      {
        "pitch": 51,
        "duration": 2.0,
        "velocity": 88
      },
      {
        "pitch": 71,
        "duration": 0.25,
        "velocity": 127
      },
      {
        "pitch": 72,
        "duration": 0.5,
        "velocity": 127
      },
      {
        "pitch": 70,
        "duration": 0.5,
        "velocity": 127
      },
      {
        "pitch": 68,
        "duration": 0.3333333333333333,
        "velocity": 127
      },
      {
        "pitch": 70,
        "duration": 0.3333333333333333,
        "velocity": 127
      },
      {
        "pitch": 44,
        "duration": 3.5,
        "velocity": 110
      },
      {
        "pitch": 44,
        "duration": 4.0,
        "velocity": 88
      }
    ],
    "key": "A- major",
    "tempo": 120,
    "name": "5386ffb3b559bebd66657123275688d7.mid_seg4",
    "avg_interval": 6.733333333333333,
    "span": 31,
    "note_density": 0.0,
    "register": "middle",
    "complexity": 0.5203703703703704
  },
  {
    "events": [
      {
        "pitch": 51,
        "duration": 4.0,
        "velocity": 88
      },
      {
        "pitch": 68,
        "duration": 1.5,
        "velocity": 127
      },
      {
        "pitch": 51,
        "duration": 3.0,
        "velocity": 110
      },
      {
        "pitch": 56,
        "duration": 2.5,
        "velocity": 110
      },
      {
        "pitch": 63,
        "duration": 2.0,
        "velocity": 127
      },
      {
        "pitch": 44,
        "duration": 3.0,
        "velocity": 110
      },
      {
        "pitch": 51,
        "duration": 2.5,
        "velocity": 110
      },
      {
        "pitch": 72,
        "duration": 0.25,
        "velocity": 127
      },
      {
        "pitch": 56,
        "duration": 2.0,
        "velocity": 110
      },
      {
        "pitch": 72,
        "duration": 0.5,
        "velocity": 127
      },
      {
        "pitch": 68,
        "duration": 1.25,
        "velocity": 110
      },
      {
        "pitch": 63,
        "duration": 2.0,
        "velocity": 110
      },
      {
        "pitch": 72,
        "duration": 2.3333333333333335,
        "velocity": 110
      },
      {
        "pitch": 75,
        "duration": 0.5,
        "velocity": 127
      },
      {
        "pitch": 56,
        "duration": 0.75,
        "velocity": 110
      },
      {
        "pitch": 72,
        "duration": 0.3333333333333333,
        "velocity": 127
      }
    ],
    "key": "A- major",
    "tempo": 120,
    "name": "5386ffb3b559bebd66657123275688d7.mid_seg5",
    "avg_interval": 12.066666666666666,
    "span": 31,
    "note_density": 0.0,
    "register": "middle",
    "complexity": 0.6666666666666666
  },
  {
    "events": [
      {
        "pitch": 70,
        "duration": 0.6666666666666666,
        "velocity": 127
      },
      {
        "pitch": 53,
        "duration": 0.5,
        "velocity": 110
      },
      {
        "pitch": 68,
        "duration": 2.0,
        "velocity": 127
      },
      {
        "pitch": 56,
        "duration": 1.0,
        "velocity": 110
      },
      {
        "pitch": 53,
        "duration": 0.5,
        "velocity": 110
      },
      {
        "pitch": 53,
        "duration": 0.5,
        "velocity": 110
      },
      {
        "pitch": 56,
        "duration": 1.0,
        "velocity": 110
      },
      {
        "pitch": 63,
        "duration": 0.5,
        "velocity": 127
      },
      {
        "pitch": 53,
        "duration": 0.5,
        "velocity": 110
      },
      {
        "pitch": 63,
        "duration": 0.75,
        "velocity": 127
      },
      {
        "pitch": 75,
        "duration": 0.25,
        "velocity": 127
      },
      {
        "pitch": 53,
        "duration": 1.0,
        "velocity": 110
      },
      {
        "pitch": 73,
        "duration": 0.6666666666666666,
        "velocity": 127
      },
      {
        "pitch": 72,
        "duration": 0.3333333333333333,
        "velocity": 127
      },
      {
        "pitch": 70,
        "duration": 0.5,
        "velocity": 127
      },
      {
        "pitch": 68,
        "duration": 0.5,
        "velocity": 127
      }
    ],
    "key": "A- major",
    "tempo": 120,
    "name": "5386ffb3b559bebd66657123275688d7.mid_seg6",
    "avg_interval": 9.066666666666666,
    "span": 22,
    "note_density": 0.30208333333333337,
    "register": "middle",
    "complexity": 0.6581018518518519
  },
  {
    "events": [
      {
        "pitch": 49,
        "duration": 1.5,
        "velocity": 110
      },
      {
        "pitch": 49,
        "duration": 3.75,
        "velocity": 110
      },
      {
        "pitch": 65,
        "duration": 1.5,
        "velocity": 127
      },
      {
        "pitch": 56,
        "duration": 3.25,
        "velocity": 110
      },
      {
        "pitch": 61,
        "duration": 2.6666666666666665,
        "velocity": 110
      },
      {
        "pitch": 73,
        "duration": 0.25,
        "velocity": 127
      },
      {
        "pitch": 75,
        "duration": 0.25,
        "velocity": 127
      },
      {
        "pitch": 73,
        "duration": 0.5,
        "velocity": 127
      },
      {
        "pitch": 72,
        "duration": 0.5,
        "velocity": 127
      },
      {
        "pitch": 70,
        "duration": 0.25,
        "velocity": 127
      },
      {
        "pitch": 68,
        "duration": 0.3333333333333333,
        "velocity": 127
      },
      {
        "pitch": 70,
        "duration": 0.25,
        "velocity": 127
      },
      {
        "pitch": 39,
        "duration": 1.75,
        "velocity": 110
      },
      {
        "pitch": 70,
        "duration": 1.25,
        "velocity": 127
      },
      {
        "pitch": 46,
        "duration": 1.75,
        "velocity": 110
      },
      {
        "pitch": 51,
        "duration": 1.75,
        "velocity": 110
      }
    ],
    "key": "A- major",
    "tempo": 120,
    "name": "5386ffb3b559bebd66657123275688d7.mid_seg7",
    "avg_interval": 9.6,
    "span": 36,
    "note_density": 0.0,
    "register": "middle",
    "complexity": 0.6
  },
  {
    "events": [
      {
        "pitch": 63,
        "duration": 1.6666666666666667,
        "velocity": 110
      },
      {
        "pitch": 75,
        "duration": 0.5,
        "velocity": 127
      },
      {
        "pitch": 51,
        "duration": 2.0,
        "velocity": 110
      },
      {
        "pitch": 70,
        "duration": 1.6666666666666667,
        "velocity": 110
      },
      {
        "pitch": 67,
        "duration": 0.75,
        "velocity": 110
      },
      {
        "pitch": 39,
        "duration": 1.75,
        "velocity": 110
      },
      {
        "pitch": 73,
        "duration": 0.5,
        "velocity": 127
      },
      {
        "pitch": 46,
        "duration": 1.5,
        "velocity": 110
      },
      {
        "pitch": 72,
        "duration": 0.6666666666666666,
        "velocity": 127
      },
      {
        "pitch": 67,
        "duration": 0.5,
        "velocity": 110
      },
      {
        "pitch": 51,
        "duration": 0.75,
        "velocity": 110
      },
      {
        "pitch": 63,
        "duration": 0.5,
        "velocity": 110
      },
      {
        "pitch": 56,
        "duration": 0.75,
        "velocity": 110
      },
      {
        "pitch": 63,
        "duration": 1.25,
        "velocity": 110
      },
      {
        "pitch": 44,
        "duration": 4.0,
        "velocity": 110
      },
      {
        "pitch": 72,
        "duration": 3.0,
        "velocity": 88
      }
    ],
    "key": "A- major",
    "tempo": 120,
    "name": "5386ffb3b559bebd66657123275688d7.mid_seg8",
    "avg_interval": 17.8,
    "span": 36,
    "note_density": 0.0,
    "register": "middle",
    "complexity": 0.6666666666666666
  },
  {
    "events": [
      {
        "pitch": 72,
        "duration": 2.25,
        "velocity": 110
      },
      {
        "pitch": 68,
        "duration": 3.0,
        "velocity": 127
      },
      {
        "pitch": 51,
        "duration": 3.3333333333333335,
        "velocity": 110
      },
      {
        "pitch": 56,
        "duration": 1.75,
        "velocity": 110
      },
      {
        "pitch": 58,
        "duration": 1.75,
        "velocity": 110
      },
      {
        "pitch": 63,
        "duration": 1.75,
        "velocity": 110
      },
      {
        "pitch": 60,
        "duration": 2.0,
        "velocity": 110
      },
      {
        "pitch": 73,
        "duration": 2.0,
        "velocity": 110
      },
      {
        "pitch": 56,
        "duration": 1.5,
        "velocity": 110
      },
      {
        "pitch": 58,
        "duration": 1.0,
        "velocity": 110
      },
      {
        "pitch": 73,
        "duration": 1.0,
        "velocity": 88
      },
      {
        "pitch": 63,
        "duration": 0.5,
        "velocity": 110
      },
      {
        "pitch": 58,
        "duration": 2.5,
        "velocity": 110
      },
      {
        "pitch": 63,
        "duration": 3.75,
        "velocity": 110
      },
      {
        "pitch": 60,
        "duration": 2.75,
        "velocity": 110
      },
      {
        "pitch": 72,
        "duration": 3.5,
        "velocity": 88
      }
    ],
    "key": "A- major",
    "tempo": 120,
    "name": "5386ffb3b559bebd66657123275688d7.mid_seg9",
    "avg_interval": 7.866666666666666,
    "span": 22,
    "note_density": 0.0,
    "register": "middle",
    "complexity": 0.524074074074074
  },
  {
    "events": [
      {
        "pitch": 72,
        "duration": 0.3333333333333333,
        "velocity": 127
      },
      {
        "pitch": 72,
        "duration": 0.3333333333333333,
        "velocity": 127
      },
      {
        "pitch": 72,
        "duration": 0.3333333333333333,
        "velocity": 127
      },
      {
        "pitch": 71,
        "duration": 0.5,
        "velocity": 127
      },
      {
        "pitch": 70,
        "duration": 0.25,
        "velocity": 127
      },
      {
        "pitch": 68,
        "duration": 0.25,
        "velocity": 127
      },
      {
        "pitch": 70,
        "duration": 1.0,
        "velocity": 127
      },
      {
        "pitch": 72,
        "duration": 3.25,
        "velocity": 110
      },
      {
        "pitch": 32,
        "duration": 1.25,
        "velocity": 121
      },
      {
        "pitch": 44,
        "duration": 3.5,
        "velocity": 110
      },
      {
        "pitch": 68,
        "duration": 0.3333333333333333,
        "velocity": 127
      },
      {
        "pitch": 68,
        "duration": 0.6666666666666666,
        "velocity": 127
      },
      {
        "pitch": 51,
        "duration": 3.0,
        "velocity": 110
      },
      {
        "pitch": 56,
        "duration": 2.5,
        "velocity": 110
      },
      {
        "pitch": 63,
        "duration": 3.0,
        "velocity": 127
      },
      {
        "pitch": 32,
        "duration": 0.25,
        "velocity": 121
      }
    ],
    "key": "A- major",
    "tempo": 120,
    "name": "5386ffb3b559bebd66657123275688d7.mid_seg10",
    "avg_interval": 9.6,
    "span": 40,
    "note_density": 0.0,
    "register": "middle",
    "complexity": 0.6
  },
  {
    "events": [
      {
        "pitch": 32,
        "duration": 1.75,
        "velocity": 121
      },
      {
        "pitch": 72,
        "duration": 2.0,
        "velocity": 110
      },
      {
        "pitch": 32,
        "duration": 1.5,
        "velocity": 121
      },
      {
        "pitch": 44,
        "duration": 3.0,
        "velocity": 110
      },
      {
        "pitch": 51,
        "duration": 2.5,
        "velocity": 110
      },
      {
        "pitch": 70,
        "duration": 0.5,
        "velocity": 127
      },
      {
        "pitch": 56,
        "duration": 2.0,
        "velocity": 110
      },
      {
        "pitch": 72,
        "duration": 0.25,
        "velocity": 127
      },
      {
        "pitch": 73,
        "duration": 2.0,
        "velocity": 110
      },
      {
        "pitch": 39,
        "duration": 0.25,
        "velocity": 121
      },
      {
        "pitch": 75,
        "duration": 0.25,
        "velocity": 127
      },
      {
        "pitch": 77,
        "duration": 0.5,
        "velocity": 127
      },
      {
        "pitch": 32,
        "duration": 1.0,
        "velocity": 121
      },
      {
        "pitch": 39,
        "duration": 1.0,
        "velocity": 110
      },
      {
        "pitch": 75,
        "duration": 1.0,
        "velocity": 127
      },
      {
        "pitch": 31,
        "duration": 1.0,
        "velocity": 121
      }
    ],
    "key": "A- major",
    "tempo": 120,
    "name": "5386ffb3b559bebd66657123275688d7.mid_seg11",
    "avg_interval": 23.533333333333335,
    "span": 46,
    "note_density": 0.0,
    "register": "bass",
    "complexity": 0.6666666666666666
  },
  {
    "events": [
      {
        "pitch": 72,
        "duration": 2.0,
        "velocity": 110
      },
      {
        "pitch": 73,
        "duration": 0.3333333333333333,
        "velocity": 127
      },
      {
        "pitch": 72,
        "duration": 0.25,
        "velocity": 127
      },
      {
        "pitch": 53,
        "duration": 2.0,
        "velocity": 110
      },
      {
        "pitch": 29,
        "duration": 1.0,
        "velocity": 121
      },
      {
        "pitch": 53,
        "duration": 0.5,
        "velocity": 110
      },
      {
        "pitch": 53,
        "duration": 2.0,
        "velocity": 88
      },
      {
        "pitch": 72,
        "duration": 0.5,
        "velocity": 127
      },
      {
        "pitch": 56,
        "duration": 1.0,
        "velocity": 110
      },
      {
        "pitch": 70,
        "duration": 0.25,
        "velocity": 127
      },
      {
        "pitch": 68,
        "duration": 3.25,
        "velocity": 127
      },
      {
        "pitch": 53,
        "duration": 0.5,
        "velocity": 110
      },
      {
        "pitch": 63,
        "duration": 2.0,
        "velocity": 110
      },
      {
        "pitch": 72,
        "duration": 2.0,
        "velocity": 110
      },
      {
        "pitch": 68,
        "duration": 0.75,
        "velocity": 110
      },
      {
        "pitch": 29,
        "duration": 0.25,
        "velocity": 121
      }
    ],
    "key": "A- major",
    "tempo": 120,
    "name": "5386ffb3b559bebd66657123275688d7.mid_seg12",
    "avg_interval": 13.133333333333333,
    "span": 44,
    "note_density": 0.0,
    "register": "middle",
    "complexity": 0.6666666666666666
  },
  {
    "events": [
      {
        "pitch": 29,
        "duration": 1.75,
        "velocity": 121
      },
      {
        "pitch": 67,
        "duration": 1.0,
        "velocity": 110
      },
      {
        "pitch": 53,
        "duration": 4.0,
        "velocity": 110
      },
      {
        "pitch": 72,
        "duration": 3.25,
        "velocity": 110
      },
      {
        "pitch": 29,
        "duration": 1.25,
        "velocity": 121
      },
      {
        "pitch": 53,
        "duration": 0.5,
        "velocity": 110
      },
      {
        "pitch": 56,
        "duration": 1.0,
        "velocity": 110
      },
      {
        "pitch": 71,
        "duration": 0.25,
        "velocity": 127
      },
      {
        "pitch": 72,
        "duration": 0.5,
        "velocity": 127
      },
      {
        "pitch": 53,
        "duration": 0.5,
        "velocity": 110
      },
      {
        "pitch": 75,
        "duration": 0.5,
        "velocity": 127
      },
      {
        "pitch": 29,
        "duration": 0.25,
        "velocity": 121
      },
      {
        "pitch": 77,
        "duration": 0.5,
        "velocity": 127
      },
      {
        "pitch": 29,
        "duration": 1.0,
        "velocity": 121
      },
      {
        "pitch": 75,
        "duration": 0.5,
        "velocity": 127
      },
      {
        "pitch": 73,
        "duration": 1.0,
        "velocity": 110
      }
    ],
    "key": "A- major",
    "tempo": 120,
    "name": "5386ffb3b559bebd66657123275688d7.mid_seg13",
    "avg_interval": 25.866666666666667,
    "span": 48,
    "note_density": 0.0,
    "register": "middle",
    "complexity": 0.6666666666666666
  },
  {
    "events": [
      {
        "pitch": 73,
        "duration": 0.75,
        "velocity": 127
      },
      {
        "pitch": 39,
        "duration": 1.0,
        "velocity": 121
      },
      {
        "pitch": 73,
        "duration": 0.25,
        "velocity": 127
      },
      {
        "pitch": 72,
        "duration": 0.25,
        "velocity": 127
      },
      {
        "pitch": 25,
        "duration": 1.25,
        "velocity": 121
      },
      {
        "pitch": 49,
        "duration": 3.75,
        "velocity": 110
      },
      {
        "pitch": 73,
        "duration": 1.0,
        "velocity": 127
      },
      {
        "pitch": 56,
        "duration": 3.25,
        "velocity": 110
      },
      {
        "pitch": 61,
        "duration": 2.6666666666666665,
        "velocity": 110
      },
      {
        "pitch": 68,
        "duration": 2.0,
        "velocity": 127
      },
      {
        "pitch": 25,
        "duration": 0.25,
        "velocity": 121
      },
      {
        "pitch": 72,
        "duration": 3.75,
        "velocity": 110
      },
      {
        "pitch": 53,
        "duration": 3.0,
        "velocity": 110
      },
      {
        "pitch": 25,
        "duration": 1.5,
        "velocity": 121
      },
      {
        "pitch": 49,
        "duration": 1.75,
        "velocity": 110
      },
      {
        "pitch": 25,
        "duration": 1.0,
        "velocity": 121
      }
    ],
    "key": "A- major",
    "tempo": 120,
    "name": "5386ffb3b559bebd66657123275688d7.mid_seg14",
    "avg_interval": 25.2,
    "span": 48,
    "note_density": 0.0,
    "register": "bass",
    "complexity": 0.6666666666666666
  },
  {
    "events": [
      {
        "pitch": 49,
        "duration": 3.5,
        "velocity": 110
      },
      {
        "pitch": 49,
        "duration": 1.75,
        "velocity": 88
      },
      {
        "pitch": 56,
        "duration": 3.25,
        "velocity": 110
      },
      {
        "pitch": 61,
        "duration": 2.6666666666666665,
        "velocity": 110
      },
      {
        "pitch": 70,
        "duration": 0.5,
        "velocity": 127
      },
      {
        "pitch": 61,
        "duration": 0.5,
        "velocity": 110
      },
      {
        "pitch": 25,
        "duration": 0.25,
        "velocity": 121
      },
      {
        "pitch": 61,
        "duration": 0.5,
        "velocity": 88
      },
      {
        "pitch": 72,
        "duration": 0.25,
        "velocity": 127
      },
      {
        "pitch": 73,
        "duration": 1.0,
        "velocity": 127
      },
      {
        "pitch": 68,
        "duration": 3.0,
        "velocity": 110
      },
      {
        "pitch": 25,
        "duration": 1.0,
        "velocity": 121
      },
      {
        "pitch": 29,
        "duration": 1.0,
        "velocity": 121
      },
      {
        "pitch": 77,
        "duration": 1.0,
        "velocity": 127
      },
      {
        "pitch": 39,
        "duration": 1.25,
        "velocity": 121
      },
      {
        "pitch": 39,
        "duration": 4.0,
        "velocity": 110
      }
    ],
    "key": "A- major",
    "tempo": 120,
    "name": "5386ffb3b559bebd66657123275688d7.mid_seg15",
    "avg_interval": 16.8,
    "span": 52,
    "note_density": 0.0,
    "register": "bass",
    "complexity": 0.6666666666666666
  },
  {
    "events": [
      {
        "pitch": 75,
        "duration": 3.5,
        "velocity": 127
      },
      {
        "pitch": 46,
        "duration": 3.5,
        "velocity": 110
      },
      {
        "pitch": 70,
        "duration": 1.0,
        "velocity": 110
      },
      {
        "pitch": 51,
        "duration": 3.0,
        "velocity": 110
      },
      {
        "pitch": 39,
        "duration": 0.25,
        "velocity": 121
      },
      {
        "pitch": 55,
        "duration": 2.5,
        "velocity": 110
      },
      {
        "pitch": 39,
        "duration": 1.75,
        "velocity": 121
      },
      {
        "pitch": 58,
        "duration": 0.75,
        "velocity": 110
      },
      {
        "pitch": 63,
        "duration": 1.0,
        "velocity": 110
      },
      {
        "pitch": 58,
        "duration": 0.5,
        "velocity": 110
      },
      {
        "pitch": 77,
        "duration": 0.5,
        "velocity": 127
      },
      {
        "pitch": 39,
        "duration": 0.5,
        "velocity": 121
      },
      {
        "pitch": 39,
        "duration": 2.25,
        "velocity": 110
      },
      {
        "pitch": 46,
        "duration": 2.5,
        "velocity": 110
      },
      {
        "pitch": 51,
        "duration": 2.6666666666666665,
        "velocity": 110
      },
      {
        "pitch": 55,
        "duration": 3.0,
        "velocity": 110
      }
    ],
    "key": "A- major",
    "tempo": 120,
    "name": "5386ffb3b559bebd66657123275688d7.mid_seg16",
    "avg_interval": 14.533333333333333,
    "span": 38,
    "note_density": 0.0,
    "register": "bass",
    "complexity": 0.6666666666666666
  },
  {
    "events": [
      {
        "pitch": 58,
        "duration": 3.25,
        "velocity": 110
      },
      {
        "pitch": 63,
        "duration": 3.5,
        "velocity": 110
      },
      {
        "pitch": 75,
        "duration": 0.25,
        "velocity": 127
      },
      {
        "pitch": 71,
        "duration": 0.25,
        "velocity": 127
      },
      {
        "pitch": 72,
        "duration": 0.5,
        "velocity": 127
      },
      {
        "pitch": 75,
        "duration": 0.3333333333333333,
        "velocity": 127
      },
      {
        "pitch": 68,
        "duration": 3.75,
        "velocity": 110
      },
      {
        "pitch": 77,
        "duration": 0.25,
        "velocity": 127
      },
      {
        "pitch": 75,
        "duration": 0.75,
        "velocity": 127
      },
      {
        "pitch": 71,
        "duration": 0.25,
        "velocity": 127
      },
      {
        "pitch": 72,
        "duration": 0.5,
        "velocity": 127
      },
      {
        "pitch": 75,
        "duration": 0.3333333333333333,
        "velocity": 127
      },
      {
        "pitch": 72,
        "duration": 0.3333333333333333,
        "velocity": 127
      },
      {
        "pitch": 32,
        "duration": 1.25,
        "velocity": 121
      },
      {
        "pitch": 44,
        "duration": 3.5,
        "velocity": 110
      },
      {
        "pitch": 75,
        "duration": 1.0,
        "velocity": 127
      }
    ],
    "key": "A- major",
    "tempo": 120,
    "name": "5386ffb3b559bebd66657123275688d7.mid_seg17",
    "avg_interval": 9.133333333333333,
    "span": 45,
    "note_density": 0.0,
    "register": "treble",
    "complexity": 0.587037037037037
  },
  {
    "events": [
      {
        "pitch": 51,
        "duration": 3.0,
        "velocity": 110
      },
      {
        "pitch": 56,
        "duration": 2.5,
        "velocity": 110
      },
      {
        "pitch": 68,
        "duration": 2.0,
        "velocity": 127
      },
      {
        "pitch": 32,
        "duration": 0.25,
        "velocity": 121
      },
      {
        "pitch": 51,
        "duration": 4.0,
        "velocity": 110
      },
      {
        "pitch": 63,
        "duration": 4.0,
        "velocity": 110
      },
      {
        "pitch": 32,
        "duration": 1.75,
        "velocity": 121
      },
      {
        "pitch": 56,
        "duration": 1.75,
        "velocity": 110
      },
      {
        "pitch": 32,
        "duration": 1.25,
        "velocity": 121
      },
      {
        "pitch": 44,
        "duration": 3.0,
        "velocity": 110
      },
      {
        "pitch": 56,
        "duration": 1.75,
        "velocity": 88
      },
      {
        "pitch": 51,
        "duration": 2.5,
        "velocity": 110
      },
      {
        "pitch": 56,
        "duration": 2.0,
        "velocity": 110
      },
      {
        "pitch": 75,
        "duration": 0.25,
        "velocity": 127
      },
      {
        "pitch": 77,
        "duration": 0.3333333333333333,
        "velocity": 127
      },
      {
        "pitch": 63,
        "duration": 0.5,
        "velocity": 110
      }
    ],
    "key": "A- major",
    "tempo": 120,
    "name": "5386ffb3b559bebd66657123275688d7.mid_seg18",
    "avg_interval": 15.466666666666667,
    "span": 45,
    "note_density": 0.0,
    "register": "bass",
    "complexity": 0.6666666666666666
  },
  {
    "events": [
      {
        "pitch": 32,
        "duration": 0.25,
        "velocity": 121
      },
      {
        "pitch": 63,
        "duration": 0.5,
        "velocity": 88
      },
      {
        "pitch": 63,
        "duration": 0.75,
        "velocity": 110
      },
      {
        "pitch": 32,
        "duration": 1.0,
        "velocity": 121
      },
      {
        "pitch": 80,
        "duration": 0.5,
        "velocity": 127
      },
      {
        "pitch": 79,
        "duration": 0.5,
        "velocity": 127
      },
      {
        "pitch": 31,
        "duration": 1.0,
        "velocity": 121
      },
      {
        "pitch": 75,
        "duration": 0.3333333333333333,
        "velocity": 127
      },
      {
        "pitch": 77,
        "duration": 0.6666666666666666,
        "velocity": 127
      },
      {
        "pitch": 29,
        "duration": 1.0,
        "velocity": 121
      },
      {
        "pitch": 53,
        "duration": 0.5,
        "velocity": 110
      },
      {
        "pitch": 72,
        "duration": 4.0,
        "velocity": 127
      },
      {
        "pitch": 56,
        "duration": 1.0,
        "velocity": 110
      },
      {
        "pitch": 53,
        "duration": 0.5,
        "velocity": 110
      },
      {
        "pitch": 29,
        "duration": 0.25,
        "velocity": 121
      },
      {
        "pitch": 72,
        "duration": 3.0,
        "velocity": 110
      }
    ],
    "key": "A- major",
    "tempo": 120,
    "name": "5386ffb3b559bebd66657123275688d7.mid_seg19",
    "avg_interval": 25.466666666666665,
    "span": 51,
    "note_density": 0.015625,
    "register": "middle",
    "complexity": 0.671875
  },
  {
    "events": [
      {
        "pitch": 63,
        "duration": 4.0,
        "velocity": 110
      },
      {
        "pitch": 29,
        "duration": 1.5,
        "velocity": 121
      },
      {
        "pitch": 39,
        "duration": 0.25,
        "velocity": 121
      },
      {
        "pitch": 28,
        "duration": 0.25,
        "velocity": 121
      },
      {
        "pitch": 53,
        "duration": 2.0,
        "velocity": 110
      },
      {
        "pitch": 29,
        "duration": 1.0,
        "velocity": 121
      },
      {
        "pitch": 53,
        "duration": 0.5,
        "velocity": 110
      },
      {
        "pitch": 53,
        "duration": 2.0,
        "velocity": 88
      },
      {
        "pitch": 65,
        "duration": 1.25,
        "velocity": 88
      },
      {
        "pitch": 65,
        "duration": 0.3333333333333333,
        "velocity": 127
      },
      {
        "pitch": 56,
        "duration": 1.0,
        "velocity": 110
      },
      {
        "pitch": 70,
        "duration": 1.0,
        "velocity": 110
      },
      {
        "pitch": 53,
        "duration": 0.5,
        "velocity": 110
      },
      {
        "pitch": 65,
        "duration": 0.3333333333333333,
        "velocity": 127
      },
      {
        "pitch": 75,
        "duration": 0.3333333333333333,
        "velocity": 127
      },
      {
        "pitch": 65,
        "duration": 0.25,
        "velocity": 110
      }
    ],
    "key": "A- major",
    "tempo": 120,
    "name": "5386ffb3b559bebd66657123275688d7.mid_seg20",
    "avg_interval": 14.133333333333333,
    "span": 47,
    "note_density": 0.0,
    "register": "bass",
    "complexity": 0.6666666666666666
  },
  {
    "events": [
      {
        "pitch": 29,
        "duration": 0.25,
        "velocity": 121
      },
      {
        "pitch": 65,
        "duration": 0.25,
        "velocity": 88
      },
      {
        "pitch": 29,
        "duration": 1.0,
        "velocity": 121
      },
      {
        "pitch": 73,
        "duration": 0.25,
        "velocity": 127
      },
      {
        "pitch": 72,
        "duration": 0.5,
        "velocity": 127
      },
      {
        "pitch": 39,
        "duration": 1.0,
        "velocity": 121
      },
      {
        "pitch": 70,
        "duration": 0.5,
        "velocity": 127
      },
      {
        "pitch": 68,
        "duration": 0.25,
        "velocity": 127
      },
      {
        "pitch": 65,
        "duration": 0.25,
        "velocity": 127
      },
      {
        "pitch": 49,
        "duration": 1.75,
        "velocity": 110
      },
      {
        "pitch": 25,
        "duration": 1.0,
        "velocity": 121
      },
      {
        "pitch": 49,
        "duration": 3.75,
        "velocity": 110
      },
      {
        "pitch": 49,
        "duration": 1.75,
        "velocity": 88
      },
      {
        "pitch": 65,
        "duration": 1.25,
        "velocity": 127
      },
      {
        "pitch": 56,
        "duration": 3.25,
        "velocity": 110
      },
      {
        "pitch": 72,
        "duration": 4.0,
        "velocity": 110
      }
    ],
    "key": "A- major",
    "tempo": 120,
    "name": "5386ffb3b559bebd66657123275688d7.mid_seg21",
    "avg_interval": 19.4,
    "span": 48,
    "note_density": 0.0,
    "register": "bass",
    "complexity": 0.6666666666666666
  },
  {
    "events": [
      {
        "pitch": 63,
        "duration": 3.75,
        "velocity": 110
      },
      {
        "pitch": 61,
        "duration": 2.6666666666666665,
        "velocity": 110
      },
      {
        "pitch": 61,
        "duration": 0.25,
        "velocity": 110
      },
      {
        "pitch": 25,
        "duration": 0.25,
        "velocity": 121
      },
      {
        "pitch": 61,
        "duration": 0.25,
        "velocity": 88
      },
      {
        "pitch": 25,
        "duration": 1.25,
        "velocity": 121
      },
      {
        "pitch": 73,
        "duration": 0.5,
        "velocity": 127
      },
      {
        "pitch": 72,
        "duration": 0.25,
        "velocity": 127
      },
      {
        "pitch": 70,
        "duration": 0.5,
        "velocity": 127
      },
      {
        "pitch": 25,
        "duration": 0.25,
        "velocity": 121
      },
      {
        "pitch": 68,
        "duration": 0.25,
        "velocity": 127
      },
      {
        "pitch": 70,
        "duration": 0.25,
        "velocity": 127
      },
      {
        "pitch": 39,
        "duration": 1.25,
        "velocity": 121
      },
      {
        "pitch": 39,
        "duration": 1.75,
        "velocity": 110
      },
      {
        "pitch": 70,
        "duration": 1.5,
        "velocity": 127
      },
      {
        "pitch": 46,
        "duration": 1.75,
        "velocity": 110
      }
    ],
    "key": "A- major",
    "tempo": 120,
    "name": "5386ffb3b559bebd66657123275688d7.mid_seg22",
    "avg_interval": 22.466666666666665,
    "span": 48,
    "note_density": 0.0,
    "register": "bass",
    "complexity": 0.6666666666666666
  },
  {
    "events": [
      {
        "pitch": 72,
        "duration": 3.0,
        "velocity": 110
      },
      {
        "pitch": 51,
        "duration": 1.75,
        "velocity": 110
      },
      {
        "pitch": 39,
        "duration": 0.25,
        "velocity": 121
      },
      {
        "pitch": 75,
        "duration": 0.5,
        "velocity": 127
      },
      {
        "pitch": 29,
        "duration": 0.75,
        "velocity": 121
      },
      {
        "pitch": 39,
        "duration": 1.75,
        "velocity": 110
      },
      {
        "pitch": 73,
        "duration": 0.5,
        "velocity": 127
      },
      {
        "pitch": 46,
        "duration": 1.5,
        "velocity": 110
      },
      {
        "pitch": 72,
        "duration": 0.25,
        "velocity": 127
      },
      {
        "pitch": 31,
        "duration": 1.0,
        "velocity": 121
      },
      {
        "pitch": 51,
        "duration": 0.75,
        "velocity": 110
      },
      {
        "pitch": 70,
        "duration": 0.3333333333333333,
        "velocity": 127
      },
      {
        "pitch": 68,
        "duration": 0.3333333333333333,
        "velocity": 127
      },
      {
        "pitch": 73,
        "duration": 1.0,
        "velocity": 110
      },
      {
        "pitch": 32,
        "duration": 1.25,
        "velocity": 121
      },
      {
        "pitch": 44,
        "duration": 4.0,
        "velocity": 110
      }
    ],
    "key": "A- major",
    "tempo": 120,
    "name": "5386ffb3b559bebd66657123275688d7.mid_seg23",
    "avg_interval": 23.466666666666665,
    "span": 46,
    "note_density": 0.0,
    "register": "bass",
    "complexity": 0.6666666666666666
  },
  {
    "events": [
      {
        "pitch": 68,
        "duration": 3.0,
        "velocity": 127
      },
      {
        "pitch": 51,
        "duration": 3.3333333333333335,
        "velocity": 110
      },
      {
        "pitch": 58,
        "duration": 1.75,
        "velocity": 110
      },
      {
        "pitch": 32,
        "duration": 0.25,
        "velocity": 121
      },
      {
        "pitch": 63,
        "duration": 1.75,
        "velocity": 110
      },
      {
        "pitch": 32,
        "duration": 1.5,
        "velocity": 121
      },
      {
        "pitch": 60,
        "duration": 2.0,
        "velocity": 110
      },
      {
        "pitch": 56,
        "duration": 1.5,
        "velocity": 110
      },
      {
        "pitch": 58,
        "duration": 1.0,
        "velocity": 110
      },
      {
        "pitch": 72,
        "duration": 4.0,
        "velocity": 110
      },
      {
        "pitch": 39,
        "duration": 0.5,
        "velocity": 121
      },
      {
        "pitch": 63,
        "duration": 0.5,
        "velocity": 110
      },
      {
        "pitch": 56,
        "duration": 1.25,
        "velocity": 110
      },
      {
        "pitch": 32,
        "duration": 1.25,
        "velocity": 121
      },
      {
        "pitch": 68,
        "duration": 0.5,
        "velocity": 127
      },
      {
        "pitch": 56,
        "duration": 1.75,
        "velocity": 110
      }
    ],
    "key": "A- major",
    "tempo": 120,
    "name": "5386ffb3b559bebd66657123275688d7.mid_seg24",
    "avg_interval": 19.733333333333334,
    "span": 40,
    "note_density": 0.0,
    "register": "bass",
    "complexity": 0.6666666666666666
  },
  {
    "events": [
      {
        "pitch": 32,
        "duration": 0.5,
        "velocity": 121
      },
      {
        "pitch": 68,
        "duration": 0.5,
        "velocity": 88
      },
      {
        "pitch": 68,
        "duration": 0.5,
        "velocity": 127
      },
      {
        "pitch": 63,
        "duration": 1.5,
        "velocity": 110
      },
      {
        "pitch": 68,
        "duration": 2.0,
        "velocity": 110
      },
      {
        "pitch": 34,
        "duration": 1.0,
        "velocity": 121
      },
      {
        "pitch": 67,
        "duration": 1.0,
        "velocity": 88
      },
      {
        "pitch": 72,
        "duration": 1.0,
        "velocity": 127
      },
      {
        "pitch": 70,
        "duration": 1.3333333333333333,
        "velocity": 110
      },
      {
        "pitch": 72,
        "duration": 1.0,
        "velocity": 110
      },
      {
        "pitch": 36,
        "duration": 0.75,
        "velocity": 121
      },
      {
        "pitch": 72,
        "duration": 1.0,
        "velocity": 88
      },
      {
        "pitch": 75,
        "duration": 1.0,
        "velocity": 127
      },
      {
        "pitch": 73,
        "duration": 0.25,
        "velocity": 127
      },
      {
        "pitch": 63,
        "duration": 0.5,
        "velocity": 110
      },
      {
        "pitch": 49,
        "duration": 1.25,
        "velocity": 110
      }
    ],
    "key": "A- major",
    "tempo": 120,
    "name": "5386ffb3b559bebd66657123275688d7.mid_seg25",
    "avg_interval": 14.866666666666667,
    "span": 43,
    "note_density": 0.05729166666666663,
    "register": "middle",
    "complexity": 0.6857638888888888
  },
  {
    "events": [
      {
        "pitch": 37,
        "duration": 1.25,
        "velocity": 121
      },
      {
        "pitch": 49,
        "duration": 3.75,
        "velocity": 110
      },
      {
        "pitch": 73,
        "duration": 1.0,
        "velocity": 88
      },
      {
        "pitch": 77,
        "duration": 2.75,
        "velocity": 127
      },
      {
        "pitch": 56,
        "duration": 2.5,
        "velocity": 110
      },
      {
        "pitch": 61,
        "duration": 1.25,
        "velocity": 110
      },
      {
        "pitch": 80,
        "duration": 3.0,
        "velocity": 88
      },
      {
        "pitch": 37,
        "duration": 0.25,
        "velocity": 121
      },
      {
        "pitch": 63,
        "duration": 0.5,
        "velocity": 110
      },
      {
        "pitch": 37,
        "duration": 1.25,
        "velocity": 121
      },
      {
        "pitch": 65,
        "duration": 2.0,
        "velocity": 110
      },
      {
        "pitch": 63,
        "duration": 1.5,
        "velocity": 110
      },
      {
        "pitch": 61,
        "duration": 1.0,
        "velocity": 110
      },
      {
        "pitch": 82,
        "duration": 1.0,
        "velocity": 127
      },
      {
        "pitch": 63,
        "duration": 4.0,
        "velocity": 110
      },
      {
        "pitch": 37,
        "duration": 0.25,
        "velocity": 121
      }
    ],
    "key": "A- major",
    "tempo": 120,
    "name": "5386ffb3b559bebd66657123275688d7.mid_seg26",
    "avg_interval": 18.533333333333335,
    "span": 45,
    "note_density": 0.0,
    "register": "middle",
    "complexity": 0.6666666666666666
  },
  {
    "events": [
      {
        "pitch": 56,
        "duration": 0.5,
        "velocity": 110
      },
      {
        "pitch": 79,
        "duration": 0.25,
        "velocity": 127
      },
      {
        "pitch": 39,
        "duration": 1.0,
        "velocity": 121
      },
      {
        "pitch": 51,
        "duration": 4.0,
        "velocity": 110
      },
      {
        "pitch": 82,
        "duration": 4.0,
        "velocity": 88
      },
      {
        "pitch": 79,
        "duration": 0.4166666666666667,
        "velocity": 127
      },
      {
        "pitch": 77,
        "duration": 0.25,
        "velocity": 127
      },
      {
        "pitch": 58,
        "duration": 2.5,
        "velocity": 110
      },
      {
        "pitch": 75,
        "duration": 2.25,
        "velocity": 127
      },
      {
        "pitch": 63,
        "duration": 1.0,
        "velocity": 110
      },
      {
        "pitch": 73,
        "duration": 2.0,
        "velocity": 110
      },
      {
        "pitch": 39,
        "duration": 0.25,
        "velocity": 121
      },
      {
        "pitch": 65,
        "duration": 0.5,
        "velocity": 110
      },
      {
        "pitch": 39,
        "duration": 1.25,
        "velocity": 121
      },
      {
        "pitch": 67,
        "duration": 2.0,
        "velocity": 110
      },
      {
        "pitch": 65,
        "duration": 1.5,
        "velocity": 110
      }
    ],
    "key": "A- major",
    "tempo": 120,
    "name": "5386ffb3b559bebd66657123275688d7.mid_seg27",
    "avg_interval": 19.0,
    "span": 43,
    "note_density": 0.0,
    "register": "middle",
    "complexity": 0.6666666666666666
  },
  {
    "events": [
      {
        "pitch": 63,
        "duration": 1.0,
        "velocity": 110
      },
      {
        "pitch": 77,
        "duration": 0.5,
        "velocity": 127
      },
      {
        "pitch": 56,
        "duration": 4.0,
        "velocity": 110
      },
      {
        "pitch": 63,
        "duration": 7.333333333333333,
        "velocity": 110
      },
      {
        "pitch": 39,
        "duration": 0.25,
        "velocity": 121
      },
      {
        "pitch": 58,
        "duration": 0.5,
        "velocity": 110
      },
      {
        "pitch": 79,
        "duration": 0.5,
        "velocity": 127
      },
      {
        "pitch": 41,
        "duration": 1.25,
        "velocity": 121
      },
      {
        "pitch": 53,
        "duration": 1.75,
        "velocity": 110
      },
      {
        "pitch": 84,
        "duration": 1.25,
        "velocity": 88
      },
      {
        "pitch": 80,
        "duration": 1.5,
        "velocity": 127
      },
      {
        "pitch": 60,
        "duration": 1.5,
        "velocity": 110
      },
      {
        "pitch": 68,
        "duration": 1.0,
        "velocity": 110
      },
      {
        "pitch": 41,
        "duration": 0.25,
        "velocity": 121
      },
      {
        "pitch": 65,
        "duration": 0.5,
        "velocity": 110
      },
      {
        "pitch": 84,
        "duration": 0.5,
        "velocity": 88
      }
    ],
    "key": "A- major",
    "tempo": 120,
    "name": "5386ffb3b559bebd66657123275688d7.mid_seg28",
    "avg_interval": 19.266666666666666,
    "span": 45,
    "note_density": 0.0,
    "register": "middle",
    "complexity": 0.6666666666666666
  },
  {
    "events": [
      {
        "pitch": 80,
        "duration": 0.5,
        "velocity": 127
      },
      {
        "pitch": 79,
        "duration": 0.25,
        "velocity": 127
      },
      {
        "pitch": 39,
        "duration": 1.25,
        "velocity": 121
      },
      {
        "pitch": 51,
        "duration": 1.5,
        "velocity": 110
      },
      {
        "pitch": 82,
        "duration": 0.5,
        "velocity": 88
      },
      {
        "pitch": 79,
        "duration": 0.75,
        "velocity": 127
      },
      {
        "pitch": 58,
        "duration": 1.5,
        "velocity": 110
      },
      {
        "pitch": 84,
        "duration": 0.75,
        "velocity": 88
      },
      {
        "pitch": 80,
        "duration": 0.5,
        "velocity": 127
      },
      {
        "pitch": 67,
        "duration": 1.0,
        "velocity": 110
      },
      {
        "pitch": 82,
        "duration": 0.75,
        "velocity": 88
      },
      {
        "pitch": 39,
        "duration": 0.25,
        "velocity": 121
      },
      {
        "pitch": 63,
        "duration": 0.5,
        "velocity": 110
      },
      {
        "pitch": 79,
        "duration": 0.5,
        "velocity": 127
      },
      {
        "pitch": 32,
        "duration": 1.25,
        "velocity": 121
      },
      {
        "pitch": 63,
        "duration": 0.25,
        "velocity": 110
      }
    ],
    "key": "A- major",
    "tempo": 120,
    "name": "5386ffb3b559bebd66657123275688d7.mid_seg29",
    "avg_interval": 21.8,
    "span": 52,
    "note_density": 0.25,
    "register": "middle",
    "complexity": 0.75
  },
  {
    "events": [
      {
        "pitch": 58,
        "duration": 0.25,
        "velocity": 110
      },
      {
        "pitch": 67,
        "duration": 0.25,
        "velocity": 110
      },
      {
        "pitch": 84,
        "duration": 1.0,
        "velocity": 88
      },
      {
        "pitch": 80,
        "duration": 1.0,
        "velocity": 127
      },
      {
        "pitch": 44,
        "duration": 3.0,
        "velocity": 110
      },
      {
        "pitch": 51,
        "duration": 3.0,
        "velocity": 110
      },
      {
        "pitch": 87,
        "duration": 3.0,
        "velocity": 88
      },
      {
        "pitch": 32,
        "duration": 0.5,
        "velocity": 121
      },
      {
        "pitch": 56,
        "duration": 2.3333333333333335,
        "velocity": 110
      },
      {
        "pitch": 34,
        "duration": 1.0,
        "velocity": 121
      },
      {
        "pitch": 58,
        "duration": 1.0,
        "velocity": 110
      },
      {
        "pitch": 80,
        "duration": 0.3333333333333333,
        "velocity": 127
      },
      {
        "pitch": 60,
        "duration": 0.6666666666666666,
        "velocity": 110
      },
      {
        "pitch": 56,
        "duration": 3.0,
        "velocity": 110
      },
      {
        "pitch": 79,
        "duration": 0.3333333333333333,
        "velocity": 127
      },
      {
        "pitch": 36,
        "duration": 0.75,
        "velocity": 121
      }
    ],
    "key": "A- major",
    "tempo": 120,
    "name": "5386ffb3b559bebd66657123275688d7.mid_seg30",
    "avg_interval": 23.066666666666666,
    "span": 55,
    "note_density": 0.0,
    "register": "middle",
    "complexity": 0.6666666666666666
  },
  {
    "events": [
      {
        "pitch": 63,
        "duration": 1.0,
        "velocity": 110
      },
      {
        "pitch": 77,
        "duration": 0.6666666666666666,
        "velocity": 127
      },
      {
        "pitch": 60,
        "duration": 0.5,
        "velocity": 110
      },
      {
        "pitch": 37,
        "duration": 1.0,
        "velocity": 121
      },
      {
        "pitch": 49,
        "duration": 4.0,
        "velocity": 110
      },
      {
        "pitch": 87,
        "duration": 4.0,
        "velocity": 88
      },
      {
        "pitch": 80,
        "duration": 0.5,
        "velocity": 127
      },
      {
        "pitch": 56,
        "duration": 2.5,
        "velocity": 110
      },
      {
        "pitch": 61,
        "duration": 1.0,
        "velocity": 110
      },
      {
        "pitch": 37,
        "duration": 0.25,
        "velocity": 121
      },
      {
        "pitch": 63,
        "duration": 0.5,
        "velocity": 110
      },
      {
        "pitch": 80,
        "duration": 0.25,
        "velocity": 127
      },
      {
        "pitch": 37,
        "duration": 1.25,
        "velocity": 121
      },
      {
        "pitch": 65,
        "duration": 1.75,
        "velocity": 110
      },
      {
        "pitch": 80,
        "duration": 0.5,
        "velocity": 127
      },
      {
        "pitch": 63,
        "duration": 1.3333333333333333,
        "velocity": 110
      }
    ],
    "key": "A- major",
    "tempo": 120,
    "name": "5386ffb3b559bebd66657123275688d7.mid_seg31",
    "avg_interval": 20.666666666666668,
    "span": 50,
    "note_density": 0.0,
    "register": "middle",
    "complexity": 0.6666666666666666
  },
  {
    "events": [
      {
        "pitch": 79,
        "duration": 1.0,
        "velocity": 127
      },
      {
        "pitch": 61,
        "duration": 0.75,
        "velocity": 110
      },
      {
        "pitch": 77,
        "duration": 0.3333333333333333,
        "velocity": 127
      },
      {
        "pitch": 37,
        "duration": 0.25,
        "velocity": 121
      },
      {
        "pitch": 56,
        "duration": 0.5,
        "velocity": 110
      },
      {
        "pitch": 37,
        "duration": 1.25,
        "velocity": 121
      },
      {
        "pitch": 49,
        "duration": 3.75,
        "velocity": 110
      },
      {
        "pitch": 87,
        "duration": 1.0,
        "velocity": 88
      },
      {
        "pitch": 80,
        "duration": 1.25,
        "velocity": 127
      },
      {
        "pitch": 56,
        "duration": 2.6666666666666665,
        "velocity": 110
      },
      {
        "pitch": 61,
        "duration": 1.5,
        "velocity": 110
      },
      {
        "pitch": 85,
        "duration": 1.0,
        "velocity": 88
      },
      {
        "pitch": 37,
        "duration": 0.25,
        "velocity": 121
      },
      {
        "pitch": 63,
        "duration": 0.5,
        "velocity": 110
      },
      {
        "pitch": 80,
        "duration": 0.5,
        "velocity": 127
      },
      {
        "pitch": 37,
        "duration": 1.25,
        "velocity": 121
      }
    ],
    "key": "A- major",
    "tempo": 120,
    "name": "5386ffb3b559bebd66657123275688d7.mid_seg32",
    "avg_interval": 23.733333333333334,
    "span": 50,
    "note_density": 0.0,
    "register": "middle",
    "complexity": 0.6666666666666666
  },
  {
    "events": [
      {
        "pitch": 64,
        "duration": 2.0,
        "velocity": 110
      },
      {
        "pitch": 84,
        "duration": 1.0,
        "velocity": 88
      },
      {
        "pitch": 80,
        "duration": 0.75,
        "velocity": 127
      },
      {
        "pitch": 63,
        "duration": 1.3333333333333333,
        "velocity": 110
      },
      {
        "pitch": 79,
        "duration": 0.6666666666666666,
        "velocity": 127
      },
      {
        "pitch": 61,
        "duration": 0.75,
        "velocity": 110
      },
      {
        "pitch": 82,
        "duration": 1.0,
        "velocity": 88
      },
      {
        "pitch": 77,
        "duration": 0.3333333333333333,
        "velocity": 127
      },
      {
        "pitch": 37,
        "duration": 0.25,
        "velocity": 121
      },
      {
        "pitch": 56,
        "duration": 0.5,
        "velocity": 110
      },
      {
        "pitch": 39,
        "duration": 2.0,
        "velocity": 121
      },
      {
        "pitch": 89,
        "duration": 2.0,
        "velocity": 88
      },
      {
        "pitch": 58,
        "duration": 2.0,
        "velocity": 110
      },
      {
        "pitch": 70,
        "duration": 2.0,
        "velocity": 110
      },
      {
        "pitch": 75,
        "duration": 3.5,
        "velocity": 127
      },
      {
        "pitch": 41,
        "duration": 0.5,
        "velocity": 121
      }
    ],
    "key": "A- major",
    "tempo": 120,
    "name": "5386ffb3b559bebd66657123275688d7.mid_seg33",
    "avg_interval": 20.6,
    "span": 52,
    "note_density": 0.0,
    "register": "middle",
    "complexity": 0.6666666666666666
  },
  {
    "events": [
      {
        "pitch": 87,
        "duration": 0.5,
        "velocity": 88
      },
      {
        "pitch": 60,
        "duration": 2.0,
        "velocity": 110
      },
      {
        "pitch": 72,
        "duration": 2.0,
        "velocity": 110
      },
      {
        "pitch": 39,
        "duration": 0.5,
        "velocity": 121
      },
      {
        "pitch": 82,
        "duration": 0.5,
        "velocity": 88
      },
      {
        "pitch": 36,
        "duration": 0.5,
        "velocity": 121
      },
      {
        "pitch": 79,
        "duration": 0.5,
        "velocity": 88
      },
      {
        "pitch": 77,
        "duration": 0.6666666666666666,
        "velocity": 88
      },
      {
        "pitch": 34,
        "duration": 0.5,
        "velocity": 121
      },
      {
        "pitch": 77,
        "duration": 0.5,
        "velocity": 127
      },
      {
        "pitch": 39,
        "duration": 2.0,
        "velocity": 121
      },
      {
        "pitch": 80,
        "duration": 2.0,
        "velocity": 88
      },
      {
        "pitch": 61,
        "duration": 2.0,
        "velocity": 110
      },
      {
        "pitch": 73,
        "duration": 2.0,
        "velocity": 110
      },
      {
        "pitch": 75,
        "duration": 1.25,
        "velocity": 127
      },
      {
        "pitch": 29,
        "duration": 1.0,
        "velocity": 121
      }
    ],
    "key": "A- major",
    "tempo": 120,
    "name": "5386ffb3b559bebd66657123275688d7.mid_seg34",
    "avg_interval": 30.0,
    "span": 58,
    "note_density": 0.0,
    "register": "middle",
    "complexity": 0.6666666666666666
  },
  {
    "events": [
      {
        "pitch": 82,
        "duration": 2.0,
        "velocity": 88
      },
      {
        "pitch": 84,
        "duration": 0.5,
        "velocity": 110
      },
      {
        "pitch": 63,
        "duration": 2.0,
        "velocity": 110
      },
      {
        "pitch": 75,
        "duration": 2.0,
        "velocity": 110
      },
      {
        "pitch": 75,
        "duration": 0.25,
        "velocity": 127
      },
      {
        "pitch": 82,
        "duration": 0.5,
        "velocity": 110
      },
      {
        "pitch": 77,
        "duration": 0.25,
        "velocity": 127
      },
      {
        "pitch": 80,
        "duration": 0.3333333333333333,
        "velocity": 127
      },
      {
        "pitch": 31,
        "duration": 1.0,
        "velocity": 121
      },
      {
        "pitch": 80,
        "duration": 0.5,
        "velocity": 110
      },
      {
        "pitch": 77,
        "duration": 0.5,
        "velocity": 127
      },
      {
        "pitch": 77,
        "duration": 0.5,
        "velocity": 110
      },
      {
        "pitch": 75,
        "duration": 0.5,
        "velocity": 127
      },
      {
        "pitch": 32,
        "duration": 1.25,
        "velocity": 121
      },
      {
        "pitch": 75,
        "duration": 3.75,
        "velocity": 110
      },
      {
        "pitch": 60,
        "duration": 2.0,
        "velocity": 110
      }
    ],
    "key": "A- major",
    "tempo": 120,
    "name": "5386ffb3b559bebd66657123275688d7.mid_seg35",
    "avg_interval": 16.933333333333334,
    "span": 53,
    "note_density": 0.0,
    "register": "treble",
    "complexity": 0.6666666666666666
  },
  {
    "events": [
      {
        "pitch": 72,
        "duration": 2.0,
        "velocity": 110
      },
      {
        "pitch": 75,
        "duration": 1.0,
        "velocity": 127
      },
      {
        "pitch": 56,
        "duration": 2.75,
        "velocity": 110
      },
      {
        "pitch": 72,
        "duration": 2.5,
        "velocity": 127
      },
      {
        "pitch": 63,
        "duration": 2.75,
        "velocity": 110
      },
      {
        "pitch": 44,
        "duration": 1.3333333333333333,
        "velocity": 110
      },
      {
        "pitch": 32,
        "duration": 0.25,
        "velocity": 121
      },
      {
        "pitch": 68,
        "duration": 1.3333333333333333,
        "velocity": 110
      },
      {
        "pitch": 32,
        "duration": 1.5,
        "velocity": 121
      },
      {
        "pitch": 73,
        "duration": 0.5,
        "velocity": 110
      },
      {
        "pitch": 61,
        "duration": 2.0,
        "velocity": 110
      },
      {
        "pitch": 73,
        "duration": 2.0,
        "velocity": 110
      },
      {
        "pitch": 72,
        "duration": 1.5,
        "velocity": 110
      },
      {
        "pitch": 65,
        "duration": 3.25,
        "velocity": 110
      },
      {
        "pitch": 70,
        "duration": 1.0,
        "velocity": 110
      },
      {
        "pitch": 39,
        "duration": 0.5,
        "velocity": 121
      }
    ],
    "key": "A- major",
    "tempo": 120,
    "name": "5386ffb3b559bebd66657123275688d7.mid_seg36",
    "avg_interval": 17.266666666666666,
    "span": 43,
    "note_density": 0.0,
    "register": "middle",
    "complexity": 0.6666666666666666
  },
  {
    "events": [
      {
        "pitch": 68,
        "duration": 0.5,
        "velocity": 110
      },
      {
        "pitch": 70,
        "duration": 0.25,
        "velocity": 127
      },
      {
        "pitch": 70,
        "duration": 0.25,
        "velocity": 110
      },
      {
        "pitch": 68,
        "duration": 0.25,
        "velocity": 127
      },
      {
        "pitch": 44,
        "duration": 1.25,
        "velocity": 110
      },
      {
        "pitch": 32,
        "duration": 1.25,
        "velocity": 121
      },
      {
        "pitch": 56,
        "duration": 1.0,
        "velocity": 110
      },
      {
        "pitch": 63,
        "duration": 1.25,
        "velocity": 110
      },
      {
        "pitch": 70,
        "duration": 1.5,
        "velocity": 110
      },
      {
        "pitch": 72,
        "duration": 2.0,
        "velocity": 110
      },
      {
        "pitch": 68,
        "duration": 1.5,
        "velocity": 110
      },
      {
        "pitch": 72,
        "duration": 1.5,
        "velocity": 110
      },
      {
        "pitch": 60,
        "duration": 2.0,
        "velocity": 110
      },
      {
        "pitch": 72,
        "duration": 2.0,
        "velocity": 110
      },
      {
        "pitch": 68,
        "duration": 1.0,
        "velocity": 127
      },
      {
        "pitch": 56,
        "duration": 1.0,
        "velocity": 110
      }
    ],
    "key": "A- major",
    "tempo": 120,
    "name": "5386ffb3b559bebd66657123275688d7.mid_seg37",
    "avg_interval": 8.533333333333333,
    "span": 40,
    "note_density": 0.0,
    "register": "middle",
    "complexity": 0.5703703703703704
  },
  {
    "events": [
      {
        "pitch": 44,
        "duration": 0.25,
        "velocity": 110
      },
      {
        "pitch": 39,
        "duration": 0.5,
        "velocity": 121
      },
      {
        "pitch": 63,
        "duration": 0.75,
        "velocity": 110
      },
      {
        "pitch": 75,
        "duration": 0.5,
        "velocity": 110
      },
      {
        "pitch": 80,
        "duration": 0.5,
        "velocity": 127
      },
      {
        "pitch": 68,
        "duration": 0.75,
        "velocity": 110
      },
      {
        "pitch": 32,
        "duration": 1.0,
        "velocity": 121
      },
      {
        "pitch": 72,
        "duration": 0.75,
        "velocity": 110
      },
      {
        "pitch": 84,
        "duration": 1.0,
        "velocity": 127
      },
      {
        "pitch": 63,
        "duration": 0.25,
        "velocity": 110
      },
      {
        "pitch": 70,
        "duration": 0.75,
        "velocity": 110
      },
      {
        "pitch": 31,
        "duration": 1.0,
        "velocity": 121
      },
      {
        "pitch": 63,
        "duration": 0.25,
        "velocity": 110
      },
      {
        "pitch": 58,
        "duration": 1.0,
        "velocity": 110
      },
      {
        "pitch": 70,
        "duration": 1.0,
        "velocity": 110
      },
      {
        "pitch": 82,
        "duration": 0.5,
        "velocity": 127
      }
    ],
    "key": "A- major",
    "tempo": 120,
    "name": "5386ffb3b559bebd66657123275688d7.mid_seg38",
    "avg_interval": 18.266666666666666,
    "span": 53,
    "note_density": 0.328125,
    "register": "middle",
    "complexity": 0.7760416666666666
  },
  {
    "events": [
      {
        "pitch": 63,
        "duration": 0.25,
        "velocity": 110
      },
      {
        "pitch": 72,
        "duration": 0.5,
        "velocity": 110
      },
      {
        "pitch": 84,
        "duration": 0.3333333333333333,
        "velocity": 127
      },
      {
        "pitch": 82,
        "duration": 0.25,
        "velocity": 127
      },
      {
        "pitch": 29,
        "duration": 1.0,
        "velocity": 121
      },
      {
        "pitch": 72,
        "duration": 1.25,
        "velocity": 110
      },
      {
        "pitch": 72,
        "duration": 1.5,
        "velocity": 110
      },
      {
        "pitch": 60,
        "duration": 2.0,
        "velocity": 110
      },
      {
        "pitch": 72,
        "duration": 2.0,
        "velocity": 110
      },
      {
        "pitch": 82,
        "duration": 0.25,
        "velocity": 127
      },
      {
        "pitch": 80,
        "duration": 3.0,
        "velocity": 127
      },
      {
        "pitch": 53,
        "duration": 0.75,
        "velocity": 110
      },
      {
        "pitch": 65,
        "duration": 2.25,
        "velocity": 110
      },
      {
        "pitch": 70,
        "duration": 0.3333333333333333,
        "velocity": 110
      },
      {
        "pitch": 41,
        "duration": 1.3333333333333333,
        "velocity": 110
      },
      {
        "pitch": 29,
        "duration": 0.25,
        "velocity": 121
      }
    ],
    "key": "A- major",
    "tempo": 120,
    "name": "5386ffb3b559bebd66657123275688d7.mid_seg39",
    "avg_interval": 16.0,
    "span": 55,
    "note_density": 0.0,
    "register": "middle",
    "complexity": 0.6666666666666666
  },
  {
    "events": [
      {
        "pitch": 68,
        "duration": 0.3333333333333333,
        "velocity": 110
      },
      {
        "pitch": 53,
        "duration": 1.75,
        "velocity": 110
      },
      {
        "pitch": 29,
        "duration": 1.5,
        "velocity": 121
      },
      {
        "pitch": 72,
        "duration": 2.0,
        "velocity": 110
      },
      {
        "pitch": 53,
        "duration": 0.75,
        "velocity": 110
      },
      {
        "pitch": 65,
        "duration": 2.0,
        "velocity": 110
      },
      {
        "pitch": 61,
        "duration": 2.0,
        "velocity": 110
      },
      {
        "pitch": 73,
        "duration": 2.0,
        "velocity": 110
      },
      {
        "pitch": 70,
        "duration": 0.6666666666666666,
        "velocity": 110
      },
      {
        "pitch": 67,
        "duration": 1.75,
        "velocity": 110
      },
      {
        "pitch": 41,
        "duration": 0.5,
        "velocity": 110
      },
      {
        "pitch": 53,
        "duration": 1.0,
        "velocity": 110
      },
      {
        "pitch": 68,
        "duration": 0.25,
        "velocity": 110
      },
      {
        "pitch": 39,
        "duration": 0.25,
        "velocity": 121
      },
      {
        "pitch": 65,
        "duration": 0.5,
        "velocity": 110
      },
      {
        "pitch": 28,
        "duration": 0.25,
        "velocity": 121
      }
    ],
    "key": "A- major",
    "tempo": 120,
    "name": "5386ffb3b559bebd66657123275688d7.mid_seg40",
    "avg_interval": 18.666666666666668,
    "span": 45,
    "note_density": 0.0,
    "register": "middle",
    "complexity": 0.6666666666666666
  },
  {
    "events": [
      {
        "pitch": 29,
        "duration": 1.5,
        "velocity": 121
      },
      {
        "pitch": 53,
        "duration": 0.75,
        "velocity": 110
      },
      {
        "pitch": 68,
        "duration": 1.25,
        "velocity": 110
      },
      {
        "pitch": 72,
        "duration": 1.3333333333333333,
        "velocity": 110
      },
      {
        "pitch": 65,
        "duration": 1.0,
        "velocity": 110
      },
      {
        "pitch": 65,
        "duration": 2.0,
        "velocity": 110
      },
      {
        "pitch": 60,
        "duration": 2.0,
        "velocity": 110
      },
      {
        "pitch": 72,
        "duration": 2.0,
        "velocity": 110
      },
      {
        "pitch": 68,
        "duration": 2.0,
        "velocity": 110
      },
      {
        "pitch": 53,
        "duration": 1.0,
        "velocity": 110
      },
      {
        "pitch": 71,
        "duration": 0.25,
        "velocity": 127
      },
      {
        "pitch": 72,
        "duration": 0.5,
        "velocity": 127
      },
      {
        "pitch": 65,
        "duration": 1.0,
        "velocity": 110
      },
      {
        "pitch": 32,
        "duration": 0.5,
        "velocity": 121
      },
      {
        "pitch": 68,
        "duration": 0.25,
        "velocity": 110
      },
      {
        "pitch": 75,
        "duration": 0.25,
        "velocity": 127
      }
    ],
    "key": "A- major",
    "tempo": 120,
    "name": "5386ffb3b559bebd66657123275688d7.mid_seg41",
    "avg_interval": 12.533333333333333,
    "span": 46,
    "note_density": 0.0,
    "register": "middle",
    "complexity": 0.6666666666666666
  },
  {
    "events": [
      {
        "pitch": 72,
        "duration": 1.0,
        "velocity": 110
      },
      {
        "pitch": 29,
        "duration": 1.0,
        "velocity": 121
      },
      {
        "pitch": 60,
        "duration": 1.25,
        "velocity": 110
      },
      {
        "pitch": 77,
        "duration": 0.5,
        "velocity": 127
      },
      {
        "pitch": 65,
        "duration": 0.25,
        "velocity": 110
      },
      {
        "pitch": 80,
        "duration": 0.5,
        "velocity": 127
      },
      {
        "pitch": 39,
        "duration": 1.0,
        "velocity": 121
      },
      {
        "pitch": 80,
        "duration": 0.5,
        "velocity": 127
      },
      {
        "pitch": 58,
        "duration": 0.75,
        "velocity": 110
      },
      {
        "pitch": 77,
        "duration": 0.25,
        "velocity": 127
      },
      {
        "pitch": 80,
        "duration": 0.3333333333333333,
        "velocity": 127
      },
      {
        "pitch": 37,
        "duration": 1.25,
        "velocity": 110
      },
      {
        "pitch": 25,
        "duration": 1.0,
        "velocity": 121
      },
      {
        "pitch": 56,
        "duration": 3.5,
        "velocity": 110
      },
      {
        "pitch": 61,
        "duration": 2.0,
        "velocity": 110
      },
      {
        "pitch": 73,
        "duration": 2.0,
        "velocity": 110
      }
    ],
    "key": "A- major",
    "tempo": 120,
    "name": "5386ffb3b559bebd66657123275688d7.mid_seg42",
    "avg_interval": 23.133333333333333,
    "span": 55,
    "note_density": 0.0,
    "register": "middle",
    "complexity": 0.6666666666666666
  },
  {
    "events": [
      {
        "pitch": 77,
        "duration": 3.0,
        "velocity": 127
      },
      {
        "pitch": 49,
        "duration": 1.75,
        "velocity": 110
      },
      {
        "pitch": 61,
        "duration": 2.75,
        "velocity": 110
      },
      {
        "pitch": 70,
        "duration": 3.0,
        "velocity": 110
      },
      {
        "pitch": 37,
        "duration": 2.0,
        "velocity": 110
      },
      {
        "pitch": 25,
        "duration": 0.25,
        "velocity": 121
      },
      {
        "pitch": 65,
        "duration": 1.5,
        "velocity": 110
      },
      {
        "pitch": 67,
        "duration": 0.3333333333333333,
        "velocity": 110
      },
      {
        "pitch": 25,
        "duration": 1.5,
        "velocity": 121
      },
      {
        "pitch": 68,
        "duration": 2.0,
        "velocity": 110
      },
      {
        "pitch": 63,
        "duration": 2.0,
        "velocity": 110
      },
      {
        "pitch": 75,
        "duration": 2.0,
        "velocity": 110
      },
      {
        "pitch": 29,
        "duration": 0.5,
        "velocity": 121
      },
      {
        "pitch": 51,
        "duration": 0.5,
        "velocity": 110
      },
      {
        "pitch": 49,
        "duration": 1.25,
        "velocity": 110
      },
      {
        "pitch": 25,
        "duration": 1.25,
        "velocity": 121
      }
    ],
    "key": "A- major",
    "tempo": 120,
    "name": "5386ffb3b559bebd66657123275688d7.mid_seg43",
    "avg_interval": 22.133333333333333,
    "span": 52,
    "note_density": 0.0,
    "register": "bass",
    "complexity": 0.6666666666666666
  },
  {
    "events": [
      {
        "pitch": 49,
        "duration": 1.25,
        "velocity": 110
      },
      {
        "pitch": 61,
        "duration": 1.5833333333333333,
        "velocity": 110
      },
      {
        "pitch": 53,
        "duration": 2.0,
        "velocity": 110
      },
      {
        "pitch": 61,
        "duration": 2.0,
        "velocity": 110
      },
      {
        "pitch": 73,
        "duration": 2.0,
        "velocity": 110
      },
      {
        "pitch": 75,
        "duration": 0.5,
        "velocity": 127
      },
      {
        "pitch": 68,
        "duration": 4.0,
        "velocity": 110
      },
      {
        "pitch": 72,
        "duration": 3.0,
        "velocity": 110
      },
      {
        "pitch": 63,
        "duration": 4.0,
        "velocity": 110
      },
      {
        "pitch": 49,
        "duration": 0.5,
        "velocity": 110
      },
      {
        "pitch": 25,
        "duration": 0.25,
        "velocity": 121
      },
      {
        "pitch": 77,
        "duration": 0.25,
        "velocity": 127
      },
      {
        "pitch": 80,
        "duration": 0.5,
        "velocity": 127
      },
      {
        "pitch": 25,
        "duration": 1.0,
        "velocity": 121
      },
      {
        "pitch": 65,
        "duration": 0.6666666666666666,
        "velocity": 110
      },
      {
        "pitch": 49,
        "duration": 0.75,
        "velocity": 110
      }
    ],
    "key": "A- major",
    "tempo": 120,
    "name": "5386ffb3b559bebd66657123275688d7.mid_seg44",
    "avg_interval": 17.733333333333334,
    "span": 55,
    "note_density": 0.0,
    "register": "middle",
    "complexity": 0.6666666666666666
  },
  {
    "events": [
      {
        "pitch": 79,
        "duration": 0.6666666666666666,
        "velocity": 127
      },
      {
        "pitch": 68,
        "duration": 1.3333333333333333,
        "velocity": 110
      },
      {
        "pitch": 48,
        "duration": 0.75,
        "velocity": 110
      },
      {
        "pitch": 29,
        "duration": 1.0,
        "velocity": 121
      },
      {
        "pitch": 77,
        "duration": 0.5,
        "velocity": 127
      },
      {
        "pitch": 44,
        "duration": 0.6666666666666666,
        "velocity": 110
      },
      {
        "pitch": 61,
        "duration": 0.25,
        "velocity": 110
      },
      {
        "pitch": 79,
        "duration": 0.5,
        "velocity": 127
      },
      {
        "pitch": 39,
        "duration": 1.0,
        "velocity": 121
      },
      {
        "pitch": 46,
        "duration": 4.0,
        "velocity": 110
      },
      {
        "pitch": 58,
        "duration": 2.0,
        "velocity": 110
      },
      {
        "pitch": 70,
        "duration": 2.0,
        "velocity": 110
      },
      {
        "pitch": 75,
        "duration": 4.0,
        "velocity": 127
      },
      {
        "pitch": 73,
        "duration": 1.0,
        "velocity": 110
      },
      {
        "pitch": 72,
        "duration": 2.0,
        "velocity": 110
      },
      {
        "pitch": 68,
        "duration": 2.0,
        "velocity": 110
      }
    ],
    "key": "A- major",
    "tempo": 120,
    "name": "5386ffb3b559bebd66657123275688d7.mid_seg45",
    "avg_interval": 16.6,
    "span": 50,
    "note_density": 0.0,
    "register": "middle",
    "complexity": 0.6666666666666666
  },
  {
    "events": [
      {
        "pitch": 63,
        "duration": 4.0,
        "velocity": 110
      },
      {
        "pitch": 39,
        "duration": 0.25,
        "velocity": 121
      },
      {
        "pitch": 39,
        "duration": 1.0,
        "velocity": 121
      },
      {
        "pitch": 60,
        "duration": 2.0,
        "velocity": 110
      },
      {
        "pitch": 72,
        "duration": 2.0,
        "velocity": 110
      },
      {
        "pitch": 32,
        "duration": 0.75,
        "velocity": 121
      },
      {
        "pitch": 68,
        "duration": 0.25,
        "velocity": 110
      },
      {
        "pitch": 72,
        "duration": 2.0,
        "velocity": 110
      },
      {
        "pitch": 34,
        "duration": 0.25,
        "velocity": 121
      },
      {
        "pitch": 39,
        "duration": 1.25,
        "velocity": 121
      },
      {
        "pitch": 55,
        "duration": 0.75,
        "velocity": 110
      },
      {
        "pitch": 49,
        "duration": 1.0,
        "velocity": 110
      },
      {
        "pitch": 61,
        "duration": 2.0,
        "velocity": 110
      },
      {
        "pitch": 73,
        "duration": 2.0,
        "velocity": 110
      },
      {
        "pitch": 67,
        "duration": 1.0,
        "velocity": 110
      },
      {
        "pitch": 49,
        "duration": 0.25,
        "velocity": 110
      }
    ],
    "key": "A- major",
    "tempo": 120,
    "name": "5386ffb3b559bebd66657123275688d7.mid_seg46",
    "avg_interval": 16.666666666666668,
    "span": 41,
    "note_density": 0.0,
    "register": "bass",
    "complexity": 0.6666666666666666
  },
  {
    "events": [
      {
        "pitch": 71,
        "duration": 0.3333333333333333,
        "velocity": 127
      },
      {
        "pitch": 72,
        "duration": 0.3333333333333333,
        "velocity": 127
      },
      {
        "pitch": 68,
        "duration": 4.0,
        "velocity": 110
      },
      {
        "pitch": 65,
        "duration": 4.0,
        "velocity": 110
      },
      {
        "pitch": 72,
        "duration": 3.0,
        "velocity": 110
      },
      {
        "pitch": 39,
        "duration": 0.5,
        "velocity": 121
      },
      {
        "pitch": 80,
        "duration": 0.5,
        "velocity": 127
      },
      {
        "pitch": 29,
        "duration": 0.75,
        "velocity": 121
      },
      {
        "pitch": 51,
        "duration": 0.3333333333333333,
        "velocity": 110
      },
      {
        "pitch": 53,
        "duration": 0.3333333333333333,
        "velocity": 110
      },
      {
        "pitch": 77,
        "duration": 0.25,
        "velocity": 127
      },
      {
        "pitch": 75,
        "duration": 0.25,
        "velocity": 127
      },
      {
        "pitch": 31,
        "duration": 0.75,
        "velocity": 121
      },
      {
        "pitch": 49,
        "duration": 0.5,
        "velocity": 110
      },
      {
        "pitch": 58,
        "duration": 0.3333333333333333,
        "velocity": 110
      },
      {
        "pitch": 75,
        "duration": 0.5,
        "velocity": 127
      }
    ],
    "key": "A- major",
    "tempo": 120,
    "name": "5386ffb3b559bebd66657123275688d7.mid_seg47",
    "avg_interval": 18.533333333333335,
    "span": 51,
    "note_density": 0.0,
    "register": "middle",
    "complexity": 0.6666666666666666
  },
  {
    "events": [
      {
        "pitch": 60,
        "duration": 0.3333333333333333,
        "velocity": 110
      },
      {
        "pitch": 61,
        "duration": 0.5,
        "velocity": 110
      },
      {
        "pitch": 72,
        "duration": 0.3333333333333333,
        "velocity": 127
      },
      {
        "pitch": 32,
        "duration": 1.25,
        "velocity": 121
      },
      {
        "pitch": 44,
        "duration": 4.0,
        "velocity": 110
      },
      {
        "pitch": 63,
        "duration": 2.5,
        "velocity": 110
      },
      {
        "pitch": 63,
        "duration": 2.0,
        "velocity": 110
      },
      {
        "pitch": 75,
        "duration": 2.0,
        "velocity": 110
      },
      {
        "pitch": 75,
        "duration": 1.0,
        "velocity": 127
      },
      {
        "pitch": 73,
        "duration": 1.0,
        "velocity": 110
      },
      {
        "pitch": 51,
        "duration": 3.5,
        "velocity": 110
      },
      {
        "pitch": 56,
        "duration": 3.0,
        "velocity": 110
      },
      {
        "pitch": 72,
        "duration": 0.25,
        "velocity": 127
      },
      {
        "pitch": 70,
        "duration": 0.25,
        "velocity": 127
      },
      {
        "pitch": 72,
        "duration": 3.0,
        "velocity": 110
      },
      {
        "pitch": 68,
        "duration": 2.5,
        "velocity": 110
      }
    ],
    "key": "A- major",
    "tempo": 120,
    "name": "5386ffb3b559bebd66657123275688d7.mid_seg48",
    "avg_interval": 9.866666666666667,
    "span": 43,
    "note_density": 0.0,
    "register": "middle",
    "complexity": 0.6074074074074075
  },
  {
    "events": [
      {
        "pitch": 65,
        "duration": 3.0,
        "velocity": 110
      },
      {
        "pitch": 32,
        "duration": 0.25,
        "velocity": 121
      },
      {
        "pitch": 58,
        "duration": 2.0,
        "velocity": 110
      },
      {
        "pitch": 68,
        "duration": 2.5,
        "velocity": 127
      },
      {
        "pitch": 32,
        "duration": 1.5,
        "velocity": 121
      },
      {
        "pitch": 60,
        "duration": 1.75,
        "velocity": 110
      },
      {
        "pitch": 60,
        "duration": 1.0,
        "velocity": 110
      },
      {
        "pitch": 72,
        "duration": 1.0,
        "velocity": 110
      },
      {
        "pitch": 75,
        "duration": 0.75,
        "velocity": 110
      },
      {
        "pitch": 58,
        "duration": 1.0,
        "velocity": 110
      },
      {
        "pitch": 70,
        "duration": 1.0,
        "velocity": 110
      },
      {
        "pitch": 75,
        "duration": 0.75,
        "velocity": 110
      },
      {
        "pitch": 29,
        "duration": 0.5,
        "velocity": 121
      },
      {
        "pitch": 63,
        "duration": 0.25,
        "velocity": 110
      },
      {
        "pitch": 56,
        "duration": 1.75,
        "velocity": 110
      },
      {
        "pitch": 32,
        "duration": 1.5,
        "velocity": 121
      }
    ],
    "key": "A- major",
    "tempo": 120,
    "name": "5386ffb3b559bebd66657123275688d7.mid_seg49",
    "avg_interval": 19.533333333333335,
    "span": 46,
    "note_density": 0.0,
    "register": "middle",
    "complexity": 0.6666666666666666
  },
  {
    "events": [
      {
        "pitch": 44,
        "duration": 1.5,
        "velocity": 110
      },
      {
        "pitch": 51,
        "duration": 2.0,
        "velocity": 110
      },
      {
        "pitch": 75,
        "duration": 2.0,
        "velocity": 110
      },
      {
        "pitch": 56,
        "duration": 2.0,
        "velocity": 110
      },
      {
        "pitch": 68,
        "duration": 2.0,
        "velocity": 110
      },
      {
        "pitch": 68,
        "duration": 0.25,
        "velocity": 127
      },
      {
        "pitch": 70,
        "duration": 0.75,
        "velocity": 110
      },
      {
        "pitch": 68,
        "duration": 3.0,
        "velocity": 110
      },
      {
        "pitch": 63,
        "duration": 0.5,
        "velocity": 110
      },
      {
        "pitch": 39,
        "duration": 0.5,
        "velocity": 121
      },
      {
        "pitch": 75,
        "duration": 0.5,
        "velocity": 127
      },
      {
        "pitch": 32,
        "duration": 1.0,
        "velocity": 121
      },
      {
        "pitch": 44,
        "duration": 1.0,
        "velocity": 110
      },
      {
        "pitch": 72,
        "duration": 0.5,
        "velocity": 110
      },
      {
        "pitch": 79,
        "duration": 0.25,
        "velocity": 127
      },
      {
        "pitch": 80,
        "duration": 0.5,
        "velocity": 127
      }
    ],
    "key": "A- major",
    "tempo": 120,
    "name": "5386ffb3b559bebd66657123275688d7.mid_seg50",
    "avg_interval": 14.8,
    "span": 48,
    "note_density": 0.0,
    "register": "middle",
    "complexity": 0.6666666666666666
  },
  {
    "events": [
      {
        "pitch": 51,
        "duration": 1.3333333333333333,
        "velocity": 110
      },
      {
        "pitch": 56,
        "duration": 0.25,
        "velocity": 110
      },
      {
        "pitch": 75,
        "duration": 0.75,
        "velocity": 110
      },
      {
        "pitch": 75,
        "duration": 0.25,
        "velocity": 127
      },
      {
        "pitch": 60,
        "duration": 0.5,
        "velocity": 110
      },
      {
        "pitch": 31,
        "duration": 1.0,
        "velocity": 121
      },
      {
        "pitch": 43,
        "duration": 1.0,
        "velocity": 110
      },
      {
        "pitch": 80,
        "duration": 0.5,
        "velocity": 127
      },
      {
        "pitch": 55,
        "duration": 0.3333333333333333,
        "velocity": 110
      },
      {
        "pitch": 82,
        "duration": 0.75,
        "velocity": 110
      },
      {
        "pitch": 60,
        "duration": 0.5,
        "velocity": 110
      },
      {
        "pitch": 79,
        "duration": 0.25,
        "velocity": 127
      },
      {
        "pitch": 56,
        "duration": 0.25,
        "velocity": 110
      },
      {
        "pitch": 77,
        "duration": 0.25,
        "velocity": 127
      },
      {
        "pitch": 29,
        "duration": 1.25,
        "velocity": 121
      },
      {
        "pitch": 80,
        "duration": 1.5,
        "velocity": 110
      }
    ],
    "key": "A- major",
    "tempo": 120,
    "name": "5386ffb3b559bebd66657123275688d7.mid_seg51",
    "avg_interval": 23.533333333333335,
    "span": 53,
    "note_density": 0.33333333333333337,
    "register": "middle",
    "complexity": 0.7777777777777778
  },
  {
    "events": [
      {
        "pitch": 82,
        "duration": 0.25,
        "velocity": 110
      },
      {
        "pitch": 65,
        "duration": 3.0,
        "velocity": 110
      },
      {
        "pitch": 77,
        "duration": 3.0,
        "velocity": 110
      },
      {
        "pitch": 77,
        "duration": 3.0,
        "velocity": 127
      },
      {
        "pitch": 70,
        "duration": 1.0,
        "velocity": 110
      },
      {
        "pitch": 41,
        "duration": 1.0,
        "velocity": 110
      },
      {
        "pitch": 53,
        "duration": 2.75,
        "velocity": 110
      },
      {
        "pitch": 68,
        "duration": 3.75,
        "velocity": 110
      },
      {
        "pitch": 29,
        "duration": 0.25,
        "velocity": 121
      },
      {
        "pitch": 56,
        "duration": 0.75,
        "velocity": 110
      },
      {
        "pitch": 58,
        "duration": 0.3333333333333333,
        "velocity": 110
      },
      {
        "pitch": 79,
        "duration": 0.25,
        "velocity": 110
      },
      {
        "pitch": 29,
        "duration": 1.5,
        "velocity": 121
      },
      {
        "pitch": 60,
        "duration": 2.0,
        "velocity": 110
      },
      {
        "pitch": 41,
        "duration": 0.75,
        "velocity": 110
      },
      {
        "pitch": 77,
        "duration": 2.0,
        "velocity": 110
      }
    ],
    "key": "A- major",
    "tempo": 120,
    "name": "5386ffb3b559bebd66657123275688d7.mid_seg52",
    "avg_interval": 21.133333333333333,
    "span": 53,
    "note_density": 0.0,
    "register": "middle",
    "complexity": 0.6666666666666666
  },
  {
    "events": [
      {
        "pitch": 58,
        "duration": 0.5,
        "velocity": 110
      },
      {
        "pitch": 63,
        "duration": 1.0,
        "velocity": 110
      },
      {
        "pitch": 75,
        "duration": 1.0,
        "velocity": 110
      },
      {
        "pitch": 39,
        "duration": 0.25,
        "velocity": 121
      },
      {
        "pitch": 28,
        "duration": 0.25,
        "velocity": 121
      },
      {
        "pitch": 29,
        "duration": 1.5,
        "velocity": 121
      },
      {
        "pitch": 73,
        "duration": 0.75,
        "velocity": 110
      },
      {
        "pitch": 65,
        "duration": 3.0,
        "velocity": 110
      },
      {
        "pitch": 77,
        "duration": 3.0,
        "velocity": 110
      },
      {
        "pitch": 72,
        "duration": 0.75,
        "velocity": 110
      },
      {
        "pitch": 77,
        "duration": 0.25,
        "velocity": 127
      },
      {
        "pitch": 32,
        "duration": 0.5,
        "velocity": 121
      },
      {
        "pitch": 70,
        "duration": 0.5,
        "velocity": 110
      },
      {
        "pitch": 80,
        "duration": 0.25,
        "velocity": 127
      },
      {
        "pitch": 29,
        "duration": 1.0,
        "velocity": 121
      },
      {
        "pitch": 72,
        "duration": 0.25,
        "velocity": 110
      }
    ],
    "key": "A- major",
    "tempo": 120,
    "name": "5386ffb3b559bebd66657123275688d7.mid_seg53",
    "avg_interval": 21.733333333333334,
    "span": 52,
    "note_density": 0.078125,
    "register": "middle",
    "complexity": 0.6927083333333334
  },
  {
    "events": [
      {
        "pitch": 84,
        "duration": 0.5,
        "velocity": 127
      },
      {
        "pitch": 73,
        "duration": 0.6666666666666666,
        "velocity": 110
      },
      {
        "pitch": 82,
        "duration": 0.75,
        "velocity": 127
      },
      {
        "pitch": 72,
        "duration": 0.6666666666666666,
        "velocity": 110
      },
      {
        "pitch": 39,
        "duration": 1.0,
        "velocity": 121
      },
      {
        "pitch": 63,
        "duration": 1.0,
        "velocity": 110
      },
      {
        "pitch": 75,
        "duration": 1.0,
        "velocity": 110
      },
      {
        "pitch": 70,
        "duration": 0.25,
        "velocity": 110
      },
      {
        "pitch": 82,
        "duration": 0.3333333333333333,
        "velocity": 127
      },
      {
        "pitch": 80,
        "duration": 0.3333333333333333,
        "velocity": 127
      },
      {
        "pitch": 68,
        "duration": 0.25,
        "velocity": 110
      },
      {
        "pitch": 25,
        "duration": 1.0,
        "velocity": 121
      },
      {
        "pitch": 56,
        "duration": 1.6666666666666667,
        "velocity": 110
      },
      {
        "pitch": 68,
        "duration": 2.0,
        "velocity": 110
      },
      {
        "pitch": 61,
        "duration": 4.0,
        "velocity": 110
      },
      {
        "pitch": 73,
        "duration": 4.0,
        "velocity": 110
      }
    ],
    "key": "A- major",
    "tempo": 120,
    "name": "5386ffb3b559bebd66657123275688d7.mid_seg54",
    "avg_interval": 15.666666666666666,
    "span": 59,
    "note_density": 0.0,
    "register": "middle",
    "complexity": 0.6666666666666666
  },
  {
    "events": [
      {
        "pitch": 80,
        "duration": 1.5,
        "velocity": 127
      },
      {
        "pitch": 49,
        "duration": 0.5,
        "velocity": 110
      },
      {
        "pitch": 25,
        "duration": 0.25,
        "velocity": 121
      },
      {
        "pitch": 25,
        "duration": 1.25,
        "velocity": 121
      },
      {
        "pitch": 77,
        "duration": 2.0,
        "velocity": 110
      },
      {
        "pitch": 80,
        "duration": 0.5,
        "velocity": 127
      },
      {
        "pitch": 80,
        "duration": 0.5,
        "velocity": 127
      },
      {
        "pitch": 37,
        "duration": 1.0,
        "velocity": 110
      },
      {
        "pitch": 79,
        "duration": 0.5,
        "velocity": 127
      },
      {
        "pitch": 49,
        "duration": 0.5,
        "velocity": 110
      },
      {
        "pitch": 25,
        "duration": 0.25,
        "velocity": 121
      },
      {
        "pitch": 77,
        "duration": 0.5,
        "velocity": 127
      },
      {
        "pitch": 39,
        "duration": 1.25,
        "velocity": 121
      },
      {
        "pitch": 89,
        "duration": 1.0,
        "velocity": 110
      },
      {
        "pitch": 63,
        "duration": 4.0,
        "velocity": 110
      },
      {
        "pitch": 75,
        "duration": 4.0,
        "velocity": 110
      }
    ],
    "key": "A- major",
    "tempo": 120,
    "name": "5386ffb3b559bebd66657123275688d7.mid_seg55",
    "avg_interval": 28.466666666666665,
    "span": 64,
    "note_density": 0.0,
    "register": "middle",
    "complexity": 0.6666666666666666
  },
  {
    "events": [
      {
        "pitch": 75,
        "duration": 1.25,
        "velocity": 127
      },
      {
        "pitch": 87,
        "duration": 2.0,
        "velocity": 110
      },
      {
        "pitch": 44,
        "duration": 4.0,
        "velocity": 110
      },
      {
        "pitch": 56,
        "duration": 4.0,
        "velocity": 110
      },
      {
        "pitch": 39,
        "duration": 0.25,
        "velocity": 121
      },
      {
        "pitch": 75,
        "duration": 0.5,
        "velocity": 127
      },
      {
        "pitch": 29,
        "duration": 1.0,
        "velocity": 121
      },
      {
        "pitch": 73,
        "duration": 0.6666666666666666,
        "velocity": 127
      },
      {
        "pitch": 72,
        "duration": 0.5,
        "velocity": 127
      },
      {
        "pitch": 84,
        "duration": 0.75,
        "velocity": 110
      },
      {
        "pitch": 31,
        "duration": 0.75,
        "velocity": 121
      },
      {
        "pitch": 70,
        "duration": 0.5,
        "velocity": 127
      },
      {
        "pitch": 82,
        "duration": 0.5,
        "velocity": 110
      },
      {
        "pitch": 32,
        "duration": 1.25,
        "velocity": 121
      },
      {
        "pitch": 80,
        "duration": 3.75,
        "velocity": 88
      },
      {
        "pitch": 80,
        "duration": 4.0,
        "velocity": 110
      }
    ],
    "key": "A- major",
    "tempo": 120,
    "name": "5386ffb3b559bebd66657123275688d7.mid_seg56",
    "avg_interval": 28.333333333333332,
    "span": 58,
    "note_density": 0.0,
    "register": "middle",
    "complexity": 0.6666666666666666
  },
  {
    "events": [
      {
        "pitch": 56,
        "duration": 4.0,
        "velocity": 110
      },
      {
        "pitch": 68,
        "duration": 4.0,
        "velocity": 110
      },
      {
        "pitch": 68,
        "duration": 3.75,
        "velocity": 127
      },
      {
        "pitch": 44,
        "duration": 0.75,
        "velocity": 110
      },
      {
        "pitch": 63,
        "duration": 2.75,
        "velocity": 110
      },
      {
        "pitch": 60,
        "duration": 3.75,
        "velocity": 110
      },
      {
        "pitch": 51,
        "duration": 3.5,
        "velocity": 110
      },
      {
        "pitch": 44,
        "duration": 2.75,
        "velocity": 110
      },
      {
        "pitch": 56,
        "duration": 2.6666666666666665,
        "velocity": 110
      },
      {
        "pitch": 32,
        "duration": 0.25,
        "velocity": 121
      },
      {
        "pitch": 68,
        "duration": 2.5,
        "velocity": 110
      },
      {
        "pitch": 70,
        "duration": 1.0,
        "velocity": 110
      },
      {
        "pitch": 32,
        "duration": 1.5,
        "velocity": 121
      },
      {
        "pitch": 72,
        "duration": 1.0,
        "velocity": 110
      },
      {
        "pitch": 44,
        "duration": 0.5,
        "velocity": 110
      },
      {
        "pitch": 73,
        "duration": 0.6666666666666666,
        "velocity": 110
      }
    ],
    "key": "A- major",
    "tempo": 120,
    "name": "5386ffb3b559bebd66657123275688d7.mid_seg57",
    "avg_interval": 18.866666666666667,
    "span": 41,
    "note_density": 0.0,
    "register": "middle",
    "complexity": 0.6666666666666666
  },
  {
    "events": [
      {
        "pitch": 44,
        "duration": 0.3333333333333333,
        "velocity": 110
      },
      {
        "pitch": 39,
        "duration": 0.5,
        "velocity": 121
      },
      {
        "pitch": 32,
        "duration": 1.25,
        "velocity": 121
      },
      {
        "pitch": 44,
        "duration": 0.75,
        "velocity": 110
      },
      {
        "pitch": 63,
        "duration": 1.0,
        "velocity": 110
      },
      {
        "pitch": 80,
        "duration": 1.25,
        "velocity": 110
      },
      {
        "pitch": 63,
        "duration": 0.5,
        "velocity": 127
      },
      {
        "pitch": 44,
        "duration": 0.75,
        "velocity": 110
      },
      {
        "pitch": 63,
        "duration": 0.5,
        "velocity": 127
      },
      {
        "pitch": 60,
        "duration": 3.0,
        "velocity": 110
      },
      {
        "pitch": 32,
        "duration": 0.25,
        "velocity": 121
      },
      {
        "pitch": 75,
        "duration": 0.5,
        "velocity": 127
      },
      {
        "pitch": 32,
        "duration": 0.75,
        "velocity": 121
      },
      {
        "pitch": 44,
        "duration": 1.0,
        "velocity": 110
      },
      {
        "pitch": 73,
        "duration": 0.5,
        "velocity": 127
      },
      {
        "pitch": 72,
        "duration": 0.5,
        "velocity": 127
      }
    ],
    "key": "A- major",
    "tempo": 120,
    "name": "5386ffb3b559bebd66657123275688d7.mid_seg58",
    "avg_interval": 18.266666666666666,
    "span": 48,
    "note_density": 0.16666666666666674,
    "register": "bass",
    "complexity": 0.7222222222222223
  },
  {
    "events": [
      {
        "pitch": 39,
        "duration": 1.0,
        "velocity": 121
      },
      {
        "pitch": 44,
        "duration": 1.0,
        "velocity": 110
      },
      {
        "pitch": 70,
        "duration": 0.3333333333333333,
        "velocity": 127
      },
      {
        "pitch": 68,
        "duration": 0.6666666666666666,
        "velocity": 127
      },
      {
        "pitch": 25,
        "duration": 1.0,
        "velocity": 121
      },
      {
        "pitch": 56,
        "duration": 1.0,
        "velocity": 110
      },
      {
        "pitch": 49,
        "duration": 2.0,
        "velocity": 110
      },
      {
        "pitch": 61,
        "duration": 3.5,
        "velocity": 110
      },
      {
        "pitch": 73,
        "duration": 3.5,
        "velocity": 110
      },
      {
        "pitch": 65,
        "duration": 0.5,
        "velocity": 127
      },
      {
        "pitch": 61,
        "duration": 1.0,
        "velocity": 110
      },
      {
        "pitch": 49,
        "duration": 1.0,
        "velocity": 110
      },
      {
        "pitch": 56,
        "duration": 1.6666666666666667,
        "velocity": 110
      },
      {
        "pitch": 25,
        "duration": 0.25,
        "velocity": 121
      },
      {
        "pitch": 61,
        "duration": 1.3333333333333333,
        "velocity": 110
      },
      {
        "pitch": 73,
        "duration": 0.25,
        "velocity": 127
      }
    ],
    "key": "A- major",
    "tempo": 120,
    "name": "5386ffb3b559bebd66657123275688d7.mid_seg59",
    "avg_interval": 16.533333333333335,
    "span": 48,
    "note_density": 0.0,
    "register": "bass",
    "complexity": 0.6666666666666666
  },
  {
    "events": [
      {
        "pitch": 63,
        "duration": 0.3333333333333333,
        "velocity": 110
      },
      {
        "pitch": 75,
        "duration": 0.25,
        "velocity": 127
      },
      {
        "pitch": 25,
        "duration": 1.0,
        "velocity": 121
      },
      {
        "pitch": 49,
        "duration": 1.0,
        "velocity": 110
      },
      {
        "pitch": 73,
        "duration": 0.5,
        "velocity": 127
      },
      {
        "pitch": 72,
        "duration": 0.25,
        "velocity": 127
      },
      {
        "pitch": 29,
        "duration": 1.0,
        "velocity": 121
      },
      {
        "pitch": 49,
        "duration": 0.75,
        "velocity": 110
      },
      {
        "pitch": 53,
        "duration": 1.0,
        "velocity": 110
      },
      {
        "pitch": 65,
        "duration": 1.0,
        "velocity": 110
      },
      {
        "pitch": 77,
        "duration": 1.0,
        "velocity": 110
      },
      {
        "pitch": 70,
        "duration": 0.25,
        "velocity": 127
      },
      {
        "pitch": 68,
        "duration": 0.5,
        "velocity": 127
      },
      {
        "pitch": 39,
        "duration": 1.25,
        "velocity": 121
      },
      {
        "pitch": 51,
        "duration": 2.0,
        "velocity": 110
      },
      {
        "pitch": 63,
        "duration": 4.0,
        "velocity": 110
      }
    ],
    "key": "A- major",
    "tempo": 120,
    "name": "5386ffb3b559bebd66657123275688d7.mid_seg60",
    "avg_interval": 17.6,
    "span": 52,
    "note_density": 0.0,
    "register": "middle",
    "complexity": 0.6666666666666666
  },
  {
    "events": [
      {
        "pitch": 65,
        "duration": 0.5,
        "velocity": 110
      },
      {
        "pitch": 75,
        "duration": 4.0,
        "velocity": 110
      },
      {
        "pitch": 77,
        "duration": 0.5,
        "velocity": 110
      },
      {
        "pitch": 70,
        "duration": 1.25,
        "velocity": 127
      },
      {
        "pitch": 60,
        "duration": 3.25,
        "velocity": 110
      },
      {
        "pitch": 51,
        "duration": 1.0,
        "velocity": 110
      },
      {
        "pitch": 58,
        "duration": 2.75,
        "velocity": 110
      },
      {
        "pitch": 39,
        "duration": 0.5,
        "velocity": 121
      },
      {
        "pitch": 63,
        "duration": 1.5,
        "velocity": 110
      },
      {
        "pitch": 75,
        "duration": 0.5,
        "velocity": 127
      },
      {
        "pitch": 65,
        "duration": 0.25,
        "velocity": 110
      },
      {
        "pitch": 29,
        "duration": 1.0,
        "velocity": 121
      },
      {
        "pitch": 49,
        "duration": 0.75,
        "velocity": 110
      },
      {
        "pitch": 73,
        "duration": 0.6666666666666666,
        "velocity": 127
      },
      {
        "pitch": 67,
        "duration": 1.3333333333333333,
        "velocity": 110
      },
      {
        "pitch": 72,
        "duration": 0.6666666666666666,
        "velocity": 127
      }
    ],
    "key": "A- major",
    "tempo": 120,
    "name": "5386ffb3b559bebd66657123275688d7.mid_seg61",
    "avg_interval": 13.4,
    "span": 48,
    "note_density": 0.0,
    "register": "middle",
    "complexity": 0.6666666666666666
  },
  {
    "events": [
      {
        "pitch": 48,
        "duration": 0.75,
        "velocity": 110
      },
      {
        "pitch": 31,
        "duration": 1.0,
        "velocity": 121
      },
      {
        "pitch": 65,
        "duration": 1.0,
        "velocity": 110
      },
      {
        "pitch": 51,
        "duration": 0.25,
        "velocity": 110
      },
      {
        "pitch": 70,
        "duration": 0.25,
        "velocity": 127
      },
      {
        "pitch": 63,
        "duration": 0.5,
        "velocity": 110
      },
      {
        "pitch": 46,
        "duration": 0.5,
        "velocity": 110
      },
      {
        "pitch": 68,
        "duration": 0.25,
        "velocity": 127
      },
      {
        "pitch": 37,
        "duration": 1.25,
        "velocity": 121
      },
      {
        "pitch": 44,
        "duration": 1.75,
        "velocity": 110
      },
      {
        "pitch": 49,
        "duration": 4.0,
        "velocity": 110
      },
      {
        "pitch": 46,
        "duration": 0.16666666666666666,
        "velocity": 110
      },
      {
        "pitch": 61,
        "duration": 3.5,
        "velocity": 110
      },
      {
        "pitch": 73,
        "duration": 3.5,
        "velocity": 110
      },
      {
        "pitch": 65,
        "duration": 1.25,
        "velocity": 127
      },
      {
        "pitch": 58,
        "duration": 1.0,
        "velocity": 110
      }
    ],
    "key": "A- major",
    "tempo": 120,
    "name": "5386ffb3b559bebd66657123275688d7.mid_seg62",
    "avg_interval": 14.533333333333333,
    "span": 42,
    "note_density": 0.0,
    "register": "bass",
    "complexity": 0.6666666666666666
  },
  {
    "events": [
      {
        "pitch": 49,
        "duration": 2.3333333333333335,
        "velocity": 110
      },
      {
        "pitch": 37,
        "duration": 0.25,
        "velocity": 121
      },
      {
        "pitch": 60,
        "duration": 0.6666666666666666,
        "velocity": 110
      },
      {
        "pitch": 75,
        "duration": 0.3333333333333333,
        "velocity": 127
      },
      {
        "pitch": 77,
        "duration": 0.5,
        "velocity": 127
      },
      {
        "pitch": 56,
        "duration": 1.25,
        "velocity": 110
      },
      {
        "pitch": 37,
        "duration": 1.0,
        "velocity": 121
      },
      {
        "pitch": 75,
        "duration": 0.5,
        "velocity": 127
      },
      {
        "pitch": 61,
        "duration": 1.3333333333333333,
        "velocity": 110
      },
      {
        "pitch": 79,
        "duration": 0.5,
        "velocity": 127
      },
      {
        "pitch": 65,
        "duration": 0.75,
        "velocity": 110
      },
      {
        "pitch": 38,
        "duration": 1.0,
        "velocity": 121
      },
      {
        "pitch": 56,
        "duration": 0.25,
        "velocity": 110
      },
      {
        "pitch": 75,
        "duration": 0.5,
        "velocity": 127
      },
      {
        "pitch": 39,
        "duration": 1.0,
        "velocity": 121
      },
      {
        "pitch": 51,
        "duration": 3.75,
        "velocity": 110
      }
    ],
    "key": "A- major",
    "tempo": 120,
    "name": "5386ffb3b559bebd66657123275688d7.mid_seg63",
    "avg_interval": 19.2,
    "span": 42,
    "note_density": 0.005208333333333259,
    "register": "middle",
    "complexity": 0.6684027777777777
  },
  {
    "events": [
      {
        "pitch": 75,
        "duration": 1.75,
        "velocity": 127
      },
      {
        "pitch": 34,
        "duration": 0.5,
        "velocity": 121
      },
      {
        "pitch": 27,
        "duration": 2.5,
        "velocity": 121
      },
      {
        "pitch": 70,
        "duration": 0.75,
        "velocity": 127
      },
      {
        "pitch": 70,
        "duration": 0.6666666666666666,
        "velocity": 127
      },
      {
        "pitch": 72,
        "duration": 0.3333333333333333,
        "velocity": 127
      },
      {
        "pitch": 27,
        "duration": 1.75,
        "velocity": 121
      },
      {
        "pitch": 73,
        "duration": 0.6666666666666666,
        "velocity": 127
      },
      {
        "pitch": 72,
        "duration": 1.3333333333333333,
        "velocity": 127
      },
      {
        "pitch": 32,
        "duration": 2.0,
        "velocity": 121
      },
      {
        "pitch": 56,
        "duration": 2.0,
        "velocity": 110
      },
      {
        "pitch": 63,
        "duration": 0.25,
        "velocity": 88
      },
      {
        "pitch": 44,
        "duration": 2.0,
        "velocity": 110
      },
      {
        "pitch": 68,
        "duration": 2.0,
        "velocity": 127
      },
      {
        "pitch": 32,
        "duration": 4.0,
        "velocity": 121
      },
      {
        "pitch": 56,
        "duration": 4.0,
        "velocity": 110
      }
    ],
    "key": "A- major",
    "tempo": 120,
    "name": "5386ffb3b559bebd66657123275688d7.mid_seg64",
    "avg_interval": 23.933333333333334,
    "span": 48,
    "note_density": 0.0,
    "register": "bass",
    "complexity": 0.6666666666666666
  },
  {
    "events": [
      {
        "pitch": 44,
        "duration": 4.0,
        "velocity": 110
      },
      {
        "pitch": 68,
        "duration": 4.0,
        "velocity": 127
      },
      {
        "pitch": 32,
        "duration": 4.0,
        "velocity": 121
      },
      {
        "pitch": 44,
        "duration": 3.0,
        "velocity": 110
      },
      {
        "pitch": 32,
        "duration": 4.0,
        "velocity": 121
      },
      {
        "pitch": 44,
        "duration": 4.0,
        "velocity": 110
      },
      {
        "pitch": 63,
        "duration": 4.0,
        "velocity": 110
      },
      {
        "pitch": 73,
        "duration": 2.0,
        "velocity": 110
      },
      {
        "pitch": 73,
        "duration": 0.25,
        "velocity": 110
      },
      {
        "pitch": 63,
        "duration": 2.0,
        "velocity": 110
      },
      {
        "pitch": 65,
        "duration": 1.75,
        "velocity": 110
      },
      {
        "pitch": 70,
        "duration": 3.5,
        "velocity": 110
      },
      {
        "pitch": 72,
        "duration": 0.5,
        "velocity": 110
      },
      {
        "pitch": 73,
        "duration": 0.5,
        "velocity": 110
      },
      {
        "pitch": 72,
        "duration": 1.0,
        "velocity": 110
      },
      {
        "pitch": 44,
        "duration": 0.5,
        "velocity": 89
      }
    ],
    "key": "A- major",
    "tempo": 120,
    "name": "5386ffb3b559bebd66657123275688d7.mid_seg65",
    "avg_interval": 11.6,
    "span": 41,
    "note_density": 0.0,
    "register": "middle",
    "complexity": 0.6555555555555556
  },
  {
    "events": [
      {
        "pitch": 63,
        "duration": 1.75,
        "velocity": 89
      },
      {
        "pitch": 44,
        "duration": 6.166666666666667,
        "velocity": 89
      },
      {
        "pitch": 68,
        "duration": 1.0,
        "velocity": 89
      },
      {
        "pitch": 70,
        "duration": 1.0,
        "velocity": 89
      },
      {
        "pitch": 72,
        "duration": 0.6666666666666666,
        "velocity": 89
      },
      {
        "pitch": 75,
        "duration": 0.25,
        "velocity": 89
      },
      {
        "pitch": 80,
        "duration": 0.5,
        "velocity": 89
      },
      {
        "pitch": 85,
        "duration": 1.0,
        "velocity": 89
      },
      {
        "pitch": 84,
        "duration": 2.0,
        "velocity": 89
      }
    ],
    "key": "A- major",
    "tempo": 120,
    "name": "5386ffb3b559bebd66657123275688d7.mid_seg66",
    "avg_interval": 7.625,
    "span": 41,
    "note_density": 0.0,
    "register": "treble",
    "complexity": 0.5451388888888888
  }
]